<svg width="186" height="116" viewBox="0 0 186 116" fill="none" xmlns="http://www.w3.org/2000/svg">
<rect x="183.75" y="1.75" width="112" height="182" transform="rotate(90 183.75 1.75)" fill="#634D8B"/>
<rect x="183.75" y="1.75" width="112" height="182" transform="rotate(90 183.75 1.75)" stroke="black" stroke-width="3.5"/>
<rect x="183.75" y="1.75" width="112" height="42" transform="rotate(90 183.75 1.75)" fill="#D93A96" stroke="black" stroke-width="3.5"/>
<path d="M121.668 13.6726C121.668 14.782 121.469 15.6356 121.07 16.2336C120.68 16.8403 120.099 17.1436 119.328 17.1436C118.886 17.1436 118.5 17.0353 118.171 16.8186C117.842 16.602 117.603 16.3203 117.456 15.9736H117.43C117.274 16.3723 117.005 16.7103 116.624 16.9876C116.243 17.265 115.779 17.4036 115.233 17.4036C114.427 17.4036 113.812 17.1133 113.387 16.5326C112.962 15.9606 112.75 15.1936 112.75 14.2316V11.1246L121.668 11.1246V13.6726ZM118.119 13.3346V13.9066C118.119 14.2533 118.201 14.509 118.366 14.6736C118.539 14.847 118.765 14.9336 119.042 14.9336C119.25 14.9336 119.432 14.8686 119.588 14.7386C119.683 14.6606 119.761 14.5436 119.822 14.3876C119.883 14.2403 119.913 14.0193 119.913 13.7246V13.3346H118.119ZM114.505 13.3346V13.7766C114.505 14.1926 114.548 14.5003 114.635 14.6996C114.722 14.899 114.834 15.029 114.973 15.0896C115.112 15.159 115.259 15.1936 115.415 15.1936C115.71 15.1936 115.939 15.107 116.104 14.9336C116.277 14.7603 116.364 14.4223 116.364 13.9196V13.3346H114.505ZM112.542 23.1583C112.542 22.5169 112.659 21.9059 112.893 21.3253C113.136 20.7533 113.465 20.2506 113.881 19.8173C114.306 19.3839 114.8 19.0373 115.363 18.7773C115.935 18.5259 116.55 18.4003 117.209 18.4003C117.85 18.4003 118.453 18.5259 119.016 18.7773C119.588 19.0286 120.082 19.3666 120.498 19.7913C120.923 20.2246 121.256 20.7273 121.499 21.2993C121.75 21.8799 121.876 22.4996 121.876 23.1583C121.876 23.7996 121.755 24.4063 121.512 24.9783C121.278 25.5589 120.949 26.0659 120.524 26.4993C120.108 26.9326 119.614 27.2749 119.042 27.5263C118.479 27.7863 117.868 27.9163 117.209 27.9163C116.568 27.9163 115.961 27.7906 115.389 27.5393C114.826 27.2879 114.332 26.9456 113.907 26.5123C113.482 26.0876 113.149 25.5849 112.906 25.0043C112.663 24.4323 112.542 23.8169 112.542 23.1583ZM114.57 23.1583C114.57 23.5049 114.644 23.8343 114.791 24.1463C114.938 24.4583 115.133 24.7269 115.376 24.9523C115.619 25.1863 115.9 25.3683 116.221 25.4983C116.542 25.6369 116.871 25.7063 117.209 25.7063C117.547 25.7063 117.872 25.6369 118.184 25.4983C118.505 25.3683 118.786 25.1863 119.029 24.9523C119.28 24.7269 119.48 24.4583 119.627 24.1463C119.774 23.8343 119.848 23.5006 119.848 23.1453C119.848 22.7986 119.774 22.4693 119.627 22.1573C119.48 21.8539 119.285 21.5853 119.042 21.3513C118.799 21.1259 118.518 20.9439 118.197 20.8053C117.885 20.6753 117.556 20.6103 117.209 20.6103C116.871 20.6103 116.542 20.6753 116.221 20.8053C115.9 20.9439 115.619 21.1259 115.376 21.3513C115.133 21.5853 114.938 21.8539 114.791 22.1573C114.644 22.4693 114.57 22.8029 114.57 23.1583ZM116.26 31.4564C115.714 31.4564 115.294 31.5648 114.999 31.7814C114.713 32.0068 114.57 32.3621 114.57 32.8474C114.57 33.0814 114.596 33.2938 114.648 33.4844C114.709 33.6751 114.813 33.8398 114.96 33.9784C115.116 34.1258 115.328 34.2384 115.597 34.3164C115.866 34.3944 116.212 34.4334 116.637 34.4334H121.668L121.876 36.6434H115.805C115.285 36.6434 114.821 36.5438 114.414 36.3444C114.007 36.1451 113.664 35.8678 113.387 35.5124C113.11 35.1658 112.897 34.7584 112.75 34.2904C112.611 33.8224 112.542 33.3198 112.542 32.7824C112.542 31.6298 112.815 30.7501 113.361 30.1434C113.916 29.5454 114.678 29.2464 115.649 29.2464H121.668L121.876 31.4564H116.26ZM114.778 40.5693V43.4943L112.75 42.9093L112.75 38.3593H121.668L121.876 40.5693H114.778ZM121.668 49.5697L119.783 49.9597V46.7357H118.236V49.0367H116.351V46.7357H114.635V50.2327L112.75 49.6867V44.5257H121.668V49.5697ZM121.876 52.6117L117.144 54.3277V54.3537L121.876 56.0957L121.447 58.3317L112.542 54.2757V54.2497L121.447 50.3627L121.876 52.6117ZM121.876 61.45V61.476L112.997 66.286L112.542 64.037L114.453 63.127V59.734L112.542 58.837L112.997 56.692L121.876 61.45ZM116.104 60.267V62.633L118.288 61.45L116.104 60.267ZM121.668 69.2499C121.668 70.3852 121.443 71.2605 120.992 71.8759C120.541 72.4912 119.848 72.7989 118.912 72.7989C118.661 72.7989 118.414 72.7642 118.171 72.6949C117.937 72.6255 117.72 72.5259 117.521 72.3959C117.322 72.2659 117.144 72.1099 116.988 71.9279C116.841 71.7545 116.728 71.5639 116.65 71.3559L113.257 73.7609L112.542 71.5249L116.754 68.9249V68.8989H112.854L112.646 66.6889H121.668V69.2499ZM117.287 68.8989C117.278 68.9422 117.274 68.9855 117.274 69.0289C117.274 69.0722 117.274 69.1155 117.274 69.1589C117.274 69.3322 117.291 69.5055 117.326 69.6789C117.369 69.8522 117.439 70.0039 117.534 70.1339C117.638 70.2725 117.772 70.3809 117.937 70.4589C118.11 70.5455 118.327 70.5889 118.587 70.5889C118.899 70.5889 119.163 70.5065 119.38 70.3419C119.597 70.1859 119.727 69.8912 119.77 69.4579C119.779 69.3712 119.783 69.2802 119.783 69.1849C119.783 69.0982 119.783 69.0029 119.783 68.8989H117.287ZM121.668 77.6305C121.668 78.2545 121.551 78.8438 121.317 79.3985C121.092 79.9532 120.78 80.4342 120.381 80.8415C119.982 81.2575 119.51 81.5825 118.964 81.8165C118.418 82.0592 117.833 82.1805 117.209 82.1805C116.559 82.1805 115.961 82.0548 115.415 81.8035C114.869 81.5522 114.397 81.2185 113.998 80.8025C113.608 80.3865 113.3 79.9055 113.075 79.3595C112.858 78.8135 112.75 78.2415 112.75 77.6435V74.5105H121.668V77.6305ZM114.635 76.7205V77.3835C114.635 77.7302 114.7 78.0595 114.83 78.3715C114.96 78.6835 115.142 78.9565 115.376 79.1905C115.61 79.4332 115.883 79.6238 116.195 79.7625C116.507 79.9012 116.845 79.9705 117.209 79.9705C117.547 79.9705 117.868 79.9055 118.171 79.7755C118.483 79.6455 118.756 79.4635 118.99 79.2295C119.233 79.0042 119.423 78.7312 119.562 78.4105C119.709 78.0985 119.783 77.7605 119.783 77.3965V76.7205H114.635ZM121.668 90.6996C121.668 91.3236 121.551 91.9129 121.317 92.4676C121.092 93.0222 120.78 93.5032 120.381 93.9106C119.982 94.3266 119.51 94.6516 118.964 94.8856C118.418 95.1282 117.833 95.2496 117.209 95.2496C116.559 95.2496 115.961 95.1239 115.415 94.8726C114.869 94.6212 114.397 94.2876 113.998 93.8716C113.608 93.4556 113.3 92.9746 113.075 92.4286C112.858 91.8826 112.75 91.3106 112.75 90.7126L112.75 87.5796H121.668V90.6996ZM114.635 89.7896L114.635 90.4526C114.635 90.7992 114.7 91.1286 114.83 91.4406C114.96 91.7526 115.142 92.0256 115.376 92.2596C115.61 92.5022 115.883 92.6929 116.195 92.8316C116.507 92.9702 116.845 93.0396 117.209 93.0396C117.547 93.0396 117.868 92.9746 118.171 92.8446C118.483 92.7146 118.756 92.5326 118.99 92.2986C119.233 92.0732 119.423 91.8002 119.562 91.4796C119.709 91.1676 119.783 90.8296 119.783 90.4656V89.7896H114.635ZM116.26 98.7985C115.714 98.7985 115.294 98.9068 114.999 99.1235C114.713 99.3488 114.57 99.7041 114.57 100.189C114.57 100.423 114.596 100.636 114.648 100.826C114.709 101.017 114.813 101.182 114.96 101.32C115.116 101.468 115.328 101.58 115.597 101.658C115.866 101.736 116.212 101.775 116.637 101.775H121.668L121.876 103.985H115.805C115.285 103.985 114.821 103.886 114.414 103.686C114.007 103.487 113.664 103.21 113.387 102.854C113.11 102.508 112.897 102.1 112.75 101.632C112.611 101.164 112.542 100.662 112.542 100.124C112.542 98.9718 112.815 98.0921 113.361 97.4855C113.916 96.8875 114.678 96.5885 115.649 96.5885H121.668L121.876 98.7985H116.26ZM104.315 36.8455C104.566 36.5682 104.74 36.3125 104.835 36.0785C104.939 35.8445 104.991 35.6149 104.991 35.3895C104.991 35.0862 104.93 34.8262 104.809 34.6095C104.688 34.3929 104.514 34.2845 104.289 34.2845C104.15 34.2845 104.029 34.3192 103.925 34.3885C103.83 34.4665 103.743 34.5705 103.665 34.7005C103.596 34.8305 103.531 34.9822 103.47 35.1555C103.409 35.3289 103.349 35.5109 103.288 35.7015C103.193 35.9875 103.084 36.2822 102.963 36.5855C102.85 36.8975 102.694 37.1749 102.495 37.4175C102.296 37.6689 102.036 37.8725 101.715 38.0285C101.403 38.1932 101.004 38.2755 100.519 38.2755C100.008 38.2755 99.5657 38.1802 99.193 37.9895C98.8203 37.8075 98.5083 37.5562 98.257 37.2355C98.0143 36.9235 97.8367 36.5595 97.724 36.1435C97.6027 35.7362 97.542 35.3072 97.542 34.8565C97.542 34.2759 97.6287 33.7169 97.802 33.1795C97.9753 32.6509 98.2397 32.1785 98.595 31.7625L100.285 33.0885C100.06 33.2792 99.882 33.5219 99.752 33.8165C99.6307 34.1112 99.57 34.4102 99.57 34.7135C99.57 35.0429 99.6393 35.3289 99.778 35.5715C99.9167 35.8142 100.112 35.9355 100.363 35.9355C100.528 35.9355 100.662 35.8835 100.766 35.7795C100.879 35.6755 100.974 35.5369 101.052 35.3635C101.139 35.1989 101.217 35.0039 101.286 34.7785C101.355 34.5532 101.429 34.3235 101.507 34.0895C101.594 33.8295 101.702 33.5695 101.832 33.3095C101.962 33.0582 102.127 32.8285 102.326 32.6205C102.525 32.4212 102.768 32.2565 103.054 32.1265C103.349 32.0052 103.704 31.9445 104.12 31.9445C104.536 31.9445 104.913 32.0312 105.251 32.2045C105.589 32.3779 105.875 32.6119 106.109 32.9065C106.352 33.2012 106.538 33.5435 106.668 33.9335C106.807 34.3322 106.876 34.7525 106.876 35.1945C106.876 35.7145 106.785 36.2215 106.603 36.7155C106.43 37.2095 106.178 37.6559 105.849 38.0545L104.315 36.8455ZM106.668 44.7582L104.783 45.1482L104.783 41.9242H103.236L103.236 44.2252H101.351L101.351 41.9242H99.635L99.635 45.4212L97.75 44.8752L97.75 39.7142L106.668 39.7142L106.668 44.7582ZM106.668 48.9572C106.668 50.0925 106.443 50.9678 105.992 51.5832C105.541 52.1985 104.848 52.5062 103.912 52.5062C103.661 52.5062 103.414 52.4715 103.171 52.4022C102.937 52.3328 102.72 52.2332 102.521 52.1032C102.322 51.9732 102.144 51.8172 101.988 51.6352C101.841 51.4618 101.728 51.2712 101.65 51.0632L98.257 53.4682L97.542 51.2322L101.754 48.6322V48.6062H97.854L97.646 46.3962H106.668V48.9572ZM102.287 48.6062C102.278 48.6495 102.274 48.6928 102.274 48.7362C102.274 48.7795 102.274 48.8228 102.274 48.8662C102.274 49.0395 102.291 49.2128 102.326 49.3862C102.369 49.5595 102.439 49.7112 102.534 49.8412C102.638 49.9798 102.772 50.0882 102.937 50.1662C103.11 50.2528 103.327 50.2962 103.587 50.2962C103.899 50.2962 104.163 50.2138 104.38 50.0492C104.597 49.8932 104.727 49.5985 104.77 49.1652C104.779 49.0785 104.783 48.9875 104.783 48.8922C104.783 48.8055 104.783 48.7102 104.783 48.6062H102.287ZM106.876 55.1853L102.144 56.9013V56.9273L106.876 58.6693L106.447 60.9053L97.542 56.8493V56.8233L106.447 52.9363L106.876 55.1853ZM106.668 66.6469L104.783 67.0369V63.8129H103.236V66.1139H101.351V63.8129H99.635V67.3099L97.75 66.7639V61.6029H106.668V66.6469ZM101.26 70.6509C100.714 70.6509 100.294 70.7593 99.999 70.9759C99.713 71.2013 99.57 71.5566 99.57 72.0419C99.57 72.2759 99.596 72.4883 99.648 72.6789C99.7087 72.8696 99.8127 73.0343 99.96 73.1729C100.116 73.3203 100.328 73.4329 100.597 73.5109C100.866 73.5889 101.212 73.6279 101.637 73.6279H106.668L106.876 75.8379H100.805C100.285 75.8379 99.8213 75.7383 99.414 75.5389C99.0067 75.3396 98.6643 75.0623 98.387 74.7069C98.1097 74.3603 97.8973 73.9529 97.75 73.4849C97.6113 73.0169 97.542 72.5143 97.542 71.9769C97.542 70.8243 97.815 69.9446 98.361 69.3379C98.9157 68.7399 99.6783 68.4409 100.649 68.4409H106.668L106.876 70.6509H101.26ZM106.668 79.9068C106.668 81.0422 106.443 81.9175 105.992 82.5328C105.541 83.1482 104.848 83.4558 103.912 83.4558C103.661 83.4558 103.414 83.4212 103.171 83.3518C102.937 83.2825 102.72 83.1828 102.521 83.0528C102.322 82.9228 102.144 82.7668 101.988 82.5848C101.841 82.4115 101.728 82.2208 101.65 82.0128L98.257 84.4178L97.542 82.1818L101.754 79.5818V79.5558H97.854L97.646 77.3458H106.668V79.9068ZM102.287 79.5558C102.278 79.5992 102.274 79.6425 102.274 79.6858C102.274 79.7292 102.274 79.7725 102.274 79.8158C102.274 79.9892 102.291 80.1625 102.326 80.3358C102.369 80.5092 102.439 80.6608 102.534 80.7908C102.638 80.9295 102.772 81.0378 102.937 81.1158C103.11 81.2025 103.327 81.2458 103.587 81.2458C103.899 81.2458 104.163 81.1635 104.38 80.9988C104.597 80.8428 104.727 80.5482 104.77 80.1148C104.779 80.0282 104.783 79.9372 104.783 79.8418C104.783 79.7552 104.783 79.6598 104.783 79.5558H102.287Z" fill="white"/>
<path d="M24.224 49.4372C24.3973 49.2725 24.5447 49.0689 24.666 48.8262C24.796 48.5835 24.861 48.3149 24.861 48.0202C24.861 47.5782 24.7527 47.2185 24.536 46.9412C24.328 46.6725 24.0723 46.4645 23.769 46.3172L23.769 48.3062L22.599 48.0722L22.599 46.0052L21.962 45.9922L21.962 47.9422L20.792 47.7212L20.792 46.2132C20.4193 46.3519 20.1203 46.5642 19.895 46.8502C19.6697 47.1449 19.557 47.5305 19.557 48.0072C19.557 48.2152 19.6133 48.4579 19.726 48.7352C19.8473 49.0212 20.012 49.2682 20.22 49.4762L17.867 49.2552C17.7457 49.0819 17.6633 48.8652 17.62 48.6052C17.568 48.3539 17.542 48.1155 17.542 47.8902C17.542 47.4309 17.6113 46.9932 17.75 46.5772C17.8973 46.1699 18.1097 45.8015 18.387 45.4722C18.6643 45.1429 19.0023 44.8569 19.401 44.6142C19.8083 44.3715 20.272 44.1895 20.792 44.0682V42.8982L21.962 43.1192V43.9122L22.599 43.9252V42.8982L23.769 43.1322V44.1202C24.7657 44.3975 25.5327 44.8699 26.07 45.5372C26.6073 46.2045 26.876 46.9802 26.876 47.8642C26.876 48.0462 26.8543 48.2455 26.811 48.4622C26.7677 48.6875 26.694 48.8999 26.59 49.0992L24.224 49.4372Z" fill="white"/>
<path d="M23.951 58.945C23.405 58.945 22.8763 58.815 22.365 58.555C21.8623 58.3037 21.3857 57.983 20.935 57.593L19.752 56.592V59.322L17.75 58.854V52.562L21.728 55.812C21.8753 55.9247 22.0313 56.0417 22.196 56.163C22.3693 56.293 22.547 56.4057 22.729 56.501C22.911 56.605 23.0973 56.6873 23.288 56.748C23.4787 56.8173 23.665 56.852 23.847 56.852C24.159 56.852 24.406 56.735 24.588 56.501C24.7787 56.267 24.874 55.9897 24.874 55.669C24.874 55.3917 24.7873 55.1447 24.614 54.928C24.4407 54.72 24.2067 54.616 23.912 54.616C23.6433 54.616 23.4223 54.6767 23.249 54.798C23.0757 54.928 22.9283 55.1187 22.807 55.37L21.182 54.148C21.468 53.654 21.8233 53.2597 22.248 52.965C22.6813 52.6703 23.184 52.523 23.756 52.523C24.2327 52.523 24.6617 52.5967 25.043 52.744C25.4243 52.9 25.7493 53.121 26.018 53.407C26.2953 53.693 26.5077 54.0397 26.655 54.447C26.8023 54.8543 26.876 55.3093 26.876 55.812C26.876 56.2627 26.8067 56.6787 26.668 57.06C26.5293 57.45 26.33 57.7837 26.07 58.061C25.8187 58.3383 25.511 58.555 25.147 58.711C24.7917 58.867 24.393 58.945 23.951 58.945ZM22.209 66.7666C21.5243 66.7666 20.896 66.6973 20.324 66.5586C19.752 66.4286 19.258 66.225 18.842 65.9476C18.4347 65.679 18.114 65.3366 17.88 64.9206C17.6547 64.5046 17.542 64.015 17.542 63.4516C17.542 62.897 17.6547 62.416 17.88 62.0086C18.114 61.6013 18.4347 61.259 18.842 60.9816C19.2493 60.713 19.739 60.5093 20.311 60.3706C20.883 60.2406 21.5157 60.1756 22.209 60.1756C22.9023 60.1756 23.535 60.2406 24.107 60.3706C24.679 60.5093 25.1687 60.713 25.576 60.9816C25.992 61.259 26.3127 61.6013 26.538 62.0086C26.7633 62.416 26.876 62.897 26.876 63.4516C26.876 64.0063 26.7633 64.4916 26.538 64.9076C26.3127 65.3236 25.992 65.6703 25.576 65.9476C25.1687 66.225 24.679 66.4286 24.107 66.5586C23.535 66.6973 22.9023 66.7666 22.209 66.7666ZM19.544 63.4516C19.544 63.8503 19.7607 64.1536 20.194 64.3616C20.6273 64.5696 21.299 64.6736 22.209 64.6736C23.119 64.6736 23.7907 64.5696 24.224 64.3616C24.6573 64.1623 24.874 63.8546 24.874 63.4386C24.874 62.6586 23.9857 62.2686 22.209 62.2686C21.273 62.2686 20.5927 62.3683 20.168 62.5676C19.752 62.767 19.544 63.0616 19.544 63.4516ZM22.209 74.3803C21.5243 74.3803 20.896 74.3109 20.324 74.1723C19.752 74.0423 19.258 73.8386 18.842 73.5613C18.4347 73.2926 18.114 72.9503 17.88 72.5343C17.6547 72.1183 17.542 71.6286 17.542 71.0653C17.542 70.5106 17.6547 70.0296 17.88 69.6223C18.114 69.2149 18.4347 68.8726 18.842 68.5953C19.2493 68.3266 19.739 68.1229 20.311 67.9843C20.883 67.8543 21.5157 67.7893 22.209 67.7893C22.9023 67.7893 23.535 67.8543 24.107 67.9843C24.679 68.1229 25.1687 68.3266 25.576 68.5953C25.992 68.8726 26.3127 69.2149 26.538 69.6223C26.7633 70.0296 26.876 70.5106 26.876 71.0653C26.876 71.6199 26.7633 72.1053 26.538 72.5213C26.3127 72.9373 25.992 73.2839 25.576 73.5613C25.1687 73.8386 24.679 74.0423 24.107 74.1723C23.535 74.3109 22.9023 74.3803 22.209 74.3803ZM19.544 71.0653C19.544 71.4639 19.7607 71.7673 20.194 71.9753C20.6273 72.1833 21.299 72.2873 22.209 72.2873C23.119 72.2873 23.7907 72.1833 24.224 71.9753C24.6573 71.7759 24.874 71.4683 24.874 71.0523C24.874 70.2723 23.9857 69.8823 22.209 69.8823C21.273 69.8823 20.5927 69.9819 20.168 70.1813C19.752 70.3806 19.544 70.6753 19.544 71.0653Z" fill="white"/>
</svg>
