<svg width="186" height="116" viewBox="0 0 186 116" fill="none" xmlns="http://www.w3.org/2000/svg">
<rect x="183.75" y="1.75" width="112" height="182" transform="rotate(90 183.75 1.75)" fill="#634D8B"/>
<rect x="183.75" y="1.75" width="112" height="182" transform="rotate(90 183.75 1.75)" stroke="black" stroke-width="3.5"/>
<rect x="183.75" y="1.75" width="112" height="42" transform="rotate(90 183.75 1.75)" fill="#D93A96" stroke="black" stroke-width="3.5"/>
<path d="M121.876 26.9411V26.9671L112.997 31.7771L112.542 29.5281L114.453 28.6181V25.2251L112.542 24.3281L112.997 22.1831L121.876 26.9411ZM116.104 25.7581V28.1241L118.288 26.9411L116.104 25.7581ZM121.876 32.3906L117.144 34.1066V34.1326L121.876 35.8746L121.447 38.1106L112.542 34.0546V34.0286L121.447 30.1416L121.876 32.3906ZM121.668 43.8522L119.783 44.2422V41.0182H118.236V43.3192H116.351V41.0182H114.635V44.5152L112.75 43.9692L112.75 38.8082H121.668V43.8522ZM121.876 45.6592V45.6852L116.884 51.5222H121.668L121.876 53.7322H112.542V53.7062L117.638 47.8692H112.854L112.646 45.6592H121.876ZM116.26 57.6281C115.714 57.6281 115.294 57.7364 114.999 57.9531C114.713 58.1784 114.57 58.5337 114.57 59.0191C114.57 59.2531 114.596 59.4654 114.648 59.6561C114.709 59.8467 114.813 60.0114 114.96 60.1501C115.116 60.2974 115.328 60.4101 115.597 60.4881C115.866 60.5661 116.212 60.6051 116.637 60.6051H121.668L121.876 62.8151H115.805C115.285 62.8151 114.821 62.7154 114.414 62.5161C114.007 62.3167 113.664 62.0394 113.387 61.6841C113.11 61.3374 112.897 60.9301 112.75 60.4621C112.611 59.9941 112.542 59.4914 112.542 58.9541C112.542 57.8014 112.815 56.9217 113.361 56.3151C113.916 55.7171 114.678 55.4181 115.649 55.4181H121.668L121.876 57.6281H116.26ZM121.668 69.575L119.783 69.965V66.741H118.236V69.042H116.351V66.741H114.635V70.238L112.75 69.692V64.531H121.668V69.575ZM121.668 78.5491C121.668 79.1731 121.551 79.7625 121.317 80.3171C121.092 80.8718 120.78 81.3528 120.381 81.7601C119.982 82.1761 119.51 82.5011 118.964 82.7351C118.418 82.9778 117.833 83.0991 117.209 83.0991C116.559 83.0991 115.961 82.9735 115.415 82.7221C114.869 82.4708 114.397 82.1371 113.998 81.7211C113.608 81.3051 113.3 80.8241 113.075 80.2781C112.858 79.7321 112.75 79.1601 112.75 78.5621V75.4291H121.668V78.5491ZM114.635 77.6391V78.3021C114.635 78.6488 114.7 78.9781 114.83 79.2901C114.96 79.6021 115.142 79.8751 115.376 80.1091C115.61 80.3518 115.883 80.5425 116.195 80.6811C116.507 80.8198 116.845 80.8891 117.209 80.8891C117.547 80.8891 117.868 80.8241 118.171 80.6941C118.483 80.5641 118.756 80.3821 118.99 80.1481C119.233 79.9228 119.423 79.6498 119.562 79.3291C119.709 79.0171 119.783 78.6791 119.783 78.3151V77.6391H114.635ZM116.26 86.648C115.714 86.648 115.294 86.7564 114.999 86.973C114.713 87.1984 114.57 87.5537 114.57 88.039C114.57 88.273 114.596 88.4854 114.648 88.676C114.709 88.8667 114.813 89.0314 114.96 89.17C115.116 89.3174 115.328 89.43 115.597 89.508C115.866 89.586 116.212 89.625 116.637 89.625H121.668L121.876 91.835H115.805C115.285 91.835 114.821 91.7354 114.414 91.536C114.007 91.3367 113.664 91.0594 113.387 90.704C113.11 90.3574 112.897 89.95 112.75 89.482C112.611 89.014 112.542 88.5114 112.542 87.974C112.542 86.8214 112.815 85.9417 113.361 85.335C113.916 84.737 114.678 84.438 115.649 84.438H121.668L121.876 86.648H116.26ZM104.211 47.6167C104.384 47.374 104.532 47.1183 104.653 46.8497C104.783 46.581 104.848 46.295 104.848 45.9917C104.848 45.619 104.783 45.2723 104.653 44.9517C104.532 44.6397 104.354 44.371 104.12 44.1457C103.895 43.9203 103.622 43.7427 103.301 43.6127C102.98 43.4827 102.625 43.4177 102.235 43.4177C101.836 43.4177 101.472 43.4783 101.143 43.5997C100.822 43.7297 100.545 43.9073 100.311 44.1327C100.077 44.358 99.895 44.6267 99.765 44.9387C99.635 45.2593 99.57 45.6103 99.57 45.9917C99.57 46.295 99.635 46.5853 99.765 46.8627C99.9037 47.1487 100.06 47.4173 100.233 47.6687L97.867 47.3957C97.815 47.309 97.7717 47.1963 97.737 47.0577C97.6937 46.919 97.659 46.7717 97.633 46.6157C97.607 46.4683 97.5853 46.321 97.568 46.1737C97.5507 46.035 97.542 45.9223 97.542 45.8357C97.542 45.1597 97.6547 44.5357 97.88 43.9637C98.1053 43.4003 98.4217 42.9107 98.829 42.4947C99.2363 42.0873 99.7217 41.771 100.285 41.5457C100.857 41.3203 101.49 41.2077 102.183 41.2077C102.842 41.2077 103.457 41.3203 104.029 41.5457C104.601 41.771 105.099 42.0873 105.524 42.4947C105.949 42.902 106.278 43.3873 106.512 43.9507C106.755 44.5227 106.876 45.1467 106.876 45.8227C106.876 46.0827 106.854 46.334 106.811 46.5767C106.768 46.8193 106.694 47.0533 106.59 47.2787L104.211 47.6167ZM97.542 53.5793C97.542 52.938 97.659 52.327 97.893 51.7463C98.1357 51.1743 98.465 50.6716 98.881 50.2383C99.3057 49.805 99.7997 49.4583 100.363 49.1983C100.935 48.947 101.55 48.8213 102.209 48.8213C102.85 48.8213 103.453 48.947 104.016 49.1983C104.588 49.4496 105.082 49.7876 105.498 50.2123C105.923 50.6456 106.256 51.1483 106.499 51.7203C106.75 52.301 106.876 52.9206 106.876 53.5793C106.876 54.2206 106.755 54.8273 106.512 55.3993C106.278 55.98 105.949 56.487 105.524 56.9203C105.108 57.3536 104.614 57.696 104.042 57.9473C103.479 58.2073 102.868 58.3373 102.209 58.3373C101.568 58.3373 100.961 58.2116 100.389 57.9603C99.8257 57.709 99.3317 57.3666 98.907 56.9333C98.4823 56.5086 98.1487 56.006 97.906 55.4253C97.6633 54.8533 97.542 54.238 97.542 53.5793ZM99.57 53.5793C99.57 53.926 99.6437 54.2553 99.791 54.5673C99.9383 54.8793 100.133 55.148 100.376 55.3733C100.619 55.6073 100.9 55.7893 101.221 55.9193C101.542 56.058 101.871 56.1273 102.209 56.1273C102.547 56.1273 102.872 56.058 103.184 55.9193C103.505 55.7893 103.786 55.6073 104.029 55.3733C104.28 55.148 104.48 54.8793 104.627 54.5673C104.774 54.2553 104.848 53.9216 104.848 53.5663C104.848 53.2196 104.774 52.8903 104.627 52.5783C104.48 52.275 104.285 52.0063 104.042 51.7723C103.799 51.547 103.518 51.365 103.197 51.2263C102.885 51.0963 102.556 51.0313 102.209 51.0313C101.871 51.0313 101.542 51.0963 101.221 51.2263C100.9 51.365 100.619 51.547 100.376 51.7723C100.133 52.0063 99.9383 52.275 99.791 52.5783C99.6437 52.8903 99.57 53.224 99.57 53.5793ZM106.668 62.8394C106.668 63.4634 106.551 64.0528 106.317 64.6074C106.092 65.1621 105.78 65.6431 105.381 66.0504C104.982 66.4664 104.51 66.7914 103.964 67.0254C103.418 67.2681 102.833 67.3894 102.209 67.3894C101.559 67.3894 100.961 67.2638 100.415 67.0124C99.869 66.7611 99.3967 66.4274 98.998 66.0114C98.608 65.5954 98.3003 65.1144 98.075 64.5684C97.8583 64.0224 97.75 63.4504 97.75 62.8524V59.7194H106.668V62.8394ZM99.635 61.9294V62.5924C99.635 62.9391 99.7 63.2684 99.83 63.5804C99.96 63.8924 100.142 64.1654 100.376 64.3994C100.61 64.6421 100.883 64.8328 101.195 64.9714C101.507 65.1101 101.845 65.1794 102.209 65.1794C102.547 65.1794 102.868 65.1144 103.171 64.9844C103.483 64.8544 103.756 64.6724 103.99 64.4384C104.233 64.2131 104.423 63.9401 104.562 63.6194C104.709 63.3074 104.783 62.9694 104.783 62.6054V61.9294H99.635ZM106.668 73.8243L104.783 74.2143V70.9903H103.236V73.2913H101.351V70.9903H99.635V74.4873L97.75 73.9413V68.7803H106.668V73.8243Z" fill="white"/>
<path d="M24.224 49.4372C24.3973 49.2725 24.5447 49.0689 24.666 48.8262C24.796 48.5835 24.861 48.3149 24.861 48.0202C24.861 47.5782 24.7527 47.2185 24.536 46.9412C24.328 46.6725 24.0723 46.4645 23.769 46.3172L23.769 48.3062L22.599 48.0722L22.599 46.0052L21.962 45.9922L21.962 47.9422L20.792 47.7212L20.792 46.2132C20.4193 46.3519 20.1203 46.5642 19.895 46.8502C19.6697 47.1449 19.557 47.5305 19.557 48.0072C19.557 48.2152 19.6133 48.4579 19.726 48.7352C19.8473 49.0212 20.012 49.2682 20.22 49.4762L17.867 49.2552C17.7457 49.0819 17.6633 48.8652 17.62 48.6052C17.568 48.3539 17.542 48.1155 17.542 47.8902C17.542 47.4309 17.6113 46.9932 17.75 46.5772C17.8973 46.1699 18.1097 45.8015 18.387 45.4722C18.6643 45.1429 19.0023 44.8569 19.401 44.6142C19.8083 44.3715 20.272 44.1895 20.792 44.0682V42.8982L21.962 43.1192V43.9122L22.599 43.9252V42.8982L23.769 43.1322V44.1202C24.7657 44.3975 25.5327 44.8699 26.07 45.5372C26.6073 46.2045 26.876 46.9802 26.876 47.8642C26.876 48.0462 26.8543 48.2455 26.811 48.4622C26.7677 48.6875 26.694 48.8999 26.59 49.0992L24.224 49.4372Z" fill="white"/>
<path d="M23.951 58.945C23.405 58.945 22.8763 58.815 22.365 58.555C21.8623 58.3037 21.3857 57.983 20.935 57.593L19.752 56.592V59.322L17.75 58.854V52.562L21.728 55.812C21.8753 55.9247 22.0313 56.0417 22.196 56.163C22.3693 56.293 22.547 56.4057 22.729 56.501C22.911 56.605 23.0973 56.6873 23.288 56.748C23.4787 56.8173 23.665 56.852 23.847 56.852C24.159 56.852 24.406 56.735 24.588 56.501C24.7787 56.267 24.874 55.9897 24.874 55.669C24.874 55.3917 24.7873 55.1447 24.614 54.928C24.4407 54.72 24.2067 54.616 23.912 54.616C23.6433 54.616 23.4223 54.6767 23.249 54.798C23.0757 54.928 22.9283 55.1187 22.807 55.37L21.182 54.148C21.468 53.654 21.8233 53.2597 22.248 52.965C22.6813 52.6703 23.184 52.523 23.756 52.523C24.2327 52.523 24.6617 52.5967 25.043 52.744C25.4243 52.9 25.7493 53.121 26.018 53.407C26.2953 53.693 26.5077 54.0397 26.655 54.447C26.8023 54.8543 26.876 55.3093 26.876 55.812C26.876 56.2627 26.8067 56.6787 26.668 57.06C26.5293 57.45 26.33 57.7837 26.07 58.061C25.8187 58.3383 25.511 58.555 25.147 58.711C24.7917 58.867 24.393 58.945 23.951 58.945ZM22.209 66.7666C21.5243 66.7666 20.896 66.6973 20.324 66.5586C19.752 66.4286 19.258 66.225 18.842 65.9476C18.4347 65.679 18.114 65.3366 17.88 64.9206C17.6547 64.5046 17.542 64.015 17.542 63.4516C17.542 62.897 17.6547 62.416 17.88 62.0086C18.114 61.6013 18.4347 61.259 18.842 60.9816C19.2493 60.713 19.739 60.5093 20.311 60.3706C20.883 60.2406 21.5157 60.1756 22.209 60.1756C22.9023 60.1756 23.535 60.2406 24.107 60.3706C24.679 60.5093 25.1687 60.713 25.576 60.9816C25.992 61.259 26.3127 61.6013 26.538 62.0086C26.7633 62.416 26.876 62.897 26.876 63.4516C26.876 64.0063 26.7633 64.4916 26.538 64.9076C26.3127 65.3236 25.992 65.6703 25.576 65.9476C25.1687 66.225 24.679 66.4286 24.107 66.5586C23.535 66.6973 22.9023 66.7666 22.209 66.7666ZM19.544 63.4516C19.544 63.8503 19.7607 64.1536 20.194 64.3616C20.6273 64.5696 21.299 64.6736 22.209 64.6736C23.119 64.6736 23.7907 64.5696 24.224 64.3616C24.6573 64.1623 24.874 63.8546 24.874 63.4386C24.874 62.6586 23.9857 62.2686 22.209 62.2686C21.273 62.2686 20.5927 62.3683 20.168 62.5676C19.752 62.767 19.544 63.0616 19.544 63.4516ZM22.209 74.3803C21.5243 74.3803 20.896 74.3109 20.324 74.1723C19.752 74.0423 19.258 73.8386 18.842 73.5613C18.4347 73.2926 18.114 72.9503 17.88 72.5343C17.6547 72.1183 17.542 71.6286 17.542 71.0653C17.542 70.5106 17.6547 70.0296 17.88 69.6223C18.114 69.2149 18.4347 68.8726 18.842 68.5953C19.2493 68.3266 19.739 68.1229 20.311 67.9843C20.883 67.8543 21.5157 67.7893 22.209 67.7893C22.9023 67.7893 23.535 67.8543 24.107 67.9843C24.679 68.1229 25.1687 68.3266 25.576 68.5953C25.992 68.8726 26.3127 69.2149 26.538 69.6223C26.7633 70.0296 26.876 70.5106 26.876 71.0653C26.876 71.6199 26.7633 72.1053 26.538 72.5213C26.3127 72.9373 25.992 73.2839 25.576 73.5613C25.1687 73.8386 24.679 74.0423 24.107 74.1723C23.535 74.3109 22.9023 74.3803 22.209 74.3803ZM19.544 71.0653C19.544 71.4639 19.7607 71.7673 20.194 71.9753C20.6273 72.1833 21.299 72.2873 22.209 72.2873C23.119 72.2873 23.7907 72.1833 24.224 71.9753C24.6573 71.7759 24.874 71.4683 24.874 71.0523C24.874 70.2723 23.9857 69.8823 22.209 69.8823C21.273 69.8823 20.5927 69.9819 20.168 70.1813C19.752 70.3806 19.544 70.6753 19.544 71.0653Z" fill="white"/>
</svg>
