<svg width="186" height="116" viewBox="0 0 186 116" fill="none" xmlns="http://www.w3.org/2000/svg">
<rect x="183.75" y="1.75" width="112" height="182" transform="rotate(90 183.75 1.75)" fill="#634D8B"/>
<rect x="183.75" y="1.75" width="112" height="182" transform="rotate(90 183.75 1.75)" stroke="black" stroke-width="3.5"/>
<rect x="183.75" y="1.75" width="112" height="42" transform="rotate(90 183.75 1.75)" fill="#F7941D" stroke="black" stroke-width="3.5"/>
<path d="M121.668 24.7376C121.668 25.8469 121.469 26.7006 121.07 27.2986C120.68 27.9053 120.099 28.2086 119.328 28.2086C118.886 28.2086 118.5 28.1003 118.171 27.8836C117.842 27.6669 117.603 27.3853 117.456 27.0386H117.43C117.274 27.4373 117.005 27.7753 116.624 28.0526C116.243 28.3299 115.779 28.4686 115.233 28.4686C114.427 28.4686 113.812 28.1783 113.387 27.5976C112.962 27.0256 112.75 26.2586 112.75 25.2966V22.1896H121.668V24.7376ZM118.119 24.3996V24.9716C118.119 25.3183 118.201 25.5739 118.366 25.7386C118.539 25.9119 118.765 25.9986 119.042 25.9986C119.25 25.9986 119.432 25.9336 119.588 25.8036C119.683 25.7256 119.761 25.6086 119.822 25.4526C119.883 25.3053 119.913 25.0843 119.913 24.7896V24.3996H118.119ZM114.505 24.3996V24.8416C114.505 25.2576 114.548 25.5653 114.635 25.7646C114.722 25.9639 114.834 26.0939 114.973 26.1546C115.112 26.2239 115.259 26.2586 115.415 26.2586C115.71 26.2586 115.939 26.1719 116.104 25.9986C116.277 25.8253 116.364 25.4873 116.364 24.9846V24.3996H114.505ZM112.542 34.2232C112.542 33.5819 112.659 32.9709 112.893 32.3902C113.136 31.8182 113.465 31.3156 113.881 30.8822C114.306 30.4489 114.8 30.1022 115.363 29.8422C115.935 29.5909 116.55 29.4652 117.209 29.4652C117.85 29.4652 118.453 29.5909 119.016 29.8422C119.588 30.0936 120.082 30.4316 120.498 30.8562C120.923 31.2896 121.256 31.7922 121.499 32.3642C121.75 32.9449 121.876 33.5646 121.876 34.2232C121.876 34.8646 121.755 35.4712 121.512 36.0432C121.278 36.6239 120.949 37.1309 120.524 37.5642C120.108 37.9976 119.614 38.3399 119.042 38.5912C118.479 38.8512 117.868 38.9812 117.209 38.9812C116.568 38.9812 115.961 38.8556 115.389 38.6042C114.826 38.3529 114.332 38.0106 113.907 37.5772C113.482 37.1526 113.149 36.6499 112.906 36.0692C112.663 35.4972 112.542 34.8819 112.542 34.2232ZM114.57 34.2232C114.57 34.5699 114.644 34.8992 114.791 35.2112C114.938 35.5232 115.133 35.7919 115.376 36.0172C115.619 36.2512 115.9 36.4332 116.221 36.5632C116.542 36.7019 116.871 36.7712 117.209 36.7712C117.547 36.7712 117.872 36.7019 118.184 36.5632C118.505 36.4332 118.786 36.2512 119.029 36.0172C119.28 35.7919 119.48 35.5232 119.627 35.2112C119.774 34.8992 119.848 34.5656 119.848 34.2102C119.848 33.8636 119.774 33.5342 119.627 33.2222C119.48 32.9189 119.285 32.6502 119.042 32.4162C118.799 32.1909 118.518 32.0089 118.197 31.8702C117.885 31.7402 117.556 31.6752 117.209 31.6752C116.871 31.6752 116.542 31.7402 116.221 31.8702C115.9 32.0089 115.619 32.1909 115.376 32.4162C115.133 32.6502 114.938 32.9189 114.791 33.2222C114.644 33.5342 114.57 33.8679 114.57 34.2232ZM116.26 42.5214C115.714 42.5214 115.294 42.6297 114.999 42.8464C114.713 43.0717 114.57 43.4271 114.57 43.9124C114.57 44.1464 114.596 44.3587 114.648 44.5494C114.709 44.7401 114.813 44.9047 114.96 45.0434C115.116 45.1907 115.328 45.3034 115.597 45.3814C115.866 45.4594 116.212 45.4984 116.637 45.4984H121.668L121.876 47.7084H115.805C115.285 47.7084 114.821 47.6087 114.414 47.4094C114.007 47.2101 113.664 46.9327 113.387 46.5774C113.11 46.2307 112.897 45.8234 112.75 45.3554C112.611 44.8874 112.542 44.3847 112.542 43.8474C112.542 42.6947 112.815 41.8151 113.361 41.2084C113.916 40.6104 114.678 40.3114 115.649 40.3114H121.668L121.876 42.5214H116.26ZM114.778 51.6343V54.5593L112.75 53.9743V49.4243H121.668L121.876 51.6343H114.778ZM121.668 60.6347L119.783 61.0247V57.8007H118.236V60.1017H116.351V57.8007H114.635V61.2977L112.75 60.7517V55.5907H121.668V60.6347ZM121.876 63.6767L117.144 65.3927V65.4187L121.876 67.1607L121.447 69.3967L112.542 65.3407V65.3147L121.447 61.4277L121.876 63.6767ZM121.876 72.515V72.541L112.997 77.351L112.542 75.102L114.453 74.192V70.799L112.542 69.902L112.997 67.757L121.876 72.515ZM116.104 71.332V73.698L118.288 72.515L116.104 71.332ZM121.668 80.3149C121.668 81.4502 121.443 82.3255 120.992 82.9409C120.541 83.5562 119.848 83.8639 118.912 83.8639C118.661 83.8639 118.414 83.8292 118.171 83.7599C117.937 83.6905 117.72 83.5909 117.521 83.4609C117.322 83.3309 117.144 83.1749 116.988 82.9929C116.841 82.8195 116.728 82.6289 116.65 82.4209L113.257 84.8259L112.542 82.5899L116.754 79.9899V79.9639H112.854L112.646 77.7539H121.668V80.3149ZM117.287 79.9639C117.278 80.0072 117.274 80.0505 117.274 80.0939C117.274 80.1372 117.274 80.1805 117.274 80.2239C117.274 80.3972 117.291 80.5705 117.326 80.7439C117.369 80.9172 117.439 81.0689 117.534 81.1989C117.638 81.3375 117.772 81.4459 117.937 81.5239C118.11 81.6105 118.327 81.6539 118.587 81.6539C118.899 81.6539 119.163 81.5715 119.38 81.4069C119.597 81.2509 119.727 80.9562 119.77 80.5229C119.779 80.4362 119.783 80.3452 119.783 80.2499C119.783 80.1632 119.783 80.0679 119.783 79.9639H117.287ZM121.668 88.6955C121.668 89.3195 121.551 89.9088 121.317 90.4635C121.092 91.0181 120.78 91.4991 120.381 91.9065C119.982 92.3225 119.51 92.6475 118.964 92.8815C118.418 93.1241 117.833 93.2455 117.209 93.2455C116.559 93.2455 115.961 93.1198 115.415 92.8685C114.869 92.6171 114.397 92.2835 113.998 91.8675C113.608 91.4515 113.3 90.9705 113.075 90.4245C112.858 89.8785 112.75 89.3065 112.75 88.7085L112.75 85.5755H121.668V88.6955ZM114.635 87.7855V88.4485C114.635 88.7951 114.7 89.1245 114.83 89.4365C114.96 89.7485 115.142 90.0215 115.376 90.2555C115.61 90.4981 115.883 90.6888 116.195 90.8275C116.507 90.9661 116.845 91.0355 117.209 91.0355C117.547 91.0355 117.868 90.9705 118.171 90.8405C118.483 90.7105 118.756 90.5285 118.99 90.2945C119.233 90.0691 119.423 89.7961 119.562 89.4755C119.709 89.1635 119.783 88.8255 119.783 88.4615V87.7855H114.635ZM97.542 42.4988C97.542 42.3602 97.5463 42.2172 97.555 42.0698C97.5637 41.9312 97.5897 41.7968 97.633 41.6668L99.843 41.1338C99.7823 41.2812 99.739 41.4372 99.713 41.6018C99.6957 41.7665 99.687 41.9312 99.687 42.0958C99.687 42.5725 99.7997 42.9148 100.025 43.1228C100.259 43.3308 100.671 43.4348 101.26 43.4348H106.668L106.876 45.6448H100.831C100.337 45.6448 99.8863 45.5755 99.479 45.4368C99.0803 45.2982 98.738 45.0945 98.452 44.8258C98.166 44.5658 97.9407 44.2365 97.776 43.8378C97.62 43.4478 97.542 43.0015 97.542 42.4988ZM104.315 52.1536C104.566 51.8762 104.74 51.6206 104.835 51.3866C104.939 51.1526 104.991 50.9229 104.991 50.6976C104.991 50.3942 104.93 50.1342 104.809 49.9176C104.688 49.7009 104.514 49.5926 104.289 49.5926C104.15 49.5926 104.029 49.6272 103.925 49.6966C103.83 49.7746 103.743 49.8786 103.665 50.0086C103.596 50.1386 103.531 50.2902 103.47 50.4636C103.409 50.6369 103.349 50.8189 103.288 51.0096C103.193 51.2956 103.084 51.5902 102.963 51.8936C102.85 52.2056 102.694 52.4829 102.495 52.7256C102.296 52.9769 102.036 53.1806 101.715 53.3366C101.403 53.5012 101.004 53.5836 100.519 53.5836C100.008 53.5836 99.5657 53.4882 99.193 53.2976C98.8203 53.1156 98.5083 52.8642 98.257 52.5436C98.0143 52.2316 97.8367 51.8676 97.724 51.4516C97.6027 51.0442 97.542 50.6152 97.542 50.1646C97.542 49.5839 97.6287 49.0249 97.802 48.4876C97.9753 47.9589 98.2397 47.4866 98.595 47.0706L100.285 48.3966C100.06 48.5872 99.882 48.8299 99.752 49.1246C99.6307 49.4192 99.57 49.7182 99.57 50.0216C99.57 50.3509 99.6393 50.6369 99.778 50.8796C99.9167 51.1222 100.112 51.2436 100.363 51.2436C100.528 51.2436 100.662 51.1916 100.766 51.0876C100.879 50.9836 100.974 50.8449 101.052 50.6716C101.139 50.5069 101.217 50.3119 101.286 50.0866C101.355 49.8612 101.429 49.6316 101.507 49.3976C101.594 49.1376 101.702 48.8776 101.832 48.6176C101.962 48.3662 102.127 48.1366 102.326 47.9286C102.525 47.7292 102.768 47.5646 103.054 47.4346C103.349 47.3132 103.704 47.2526 104.12 47.2526C104.536 47.2526 104.913 47.3392 105.251 47.5126C105.589 47.6859 105.875 47.9199 106.109 48.2146C106.352 48.5092 106.538 48.8516 106.668 49.2416C106.807 49.6402 106.876 50.0606 106.876 50.5026C106.876 51.0226 106.785 51.5296 106.603 52.0236C106.43 52.5176 106.178 52.9639 105.849 53.3626L104.315 52.1536ZM97.542 59.3902C97.542 58.7489 97.659 58.1379 97.893 57.5572C98.1357 56.9852 98.465 56.4825 98.881 56.0492C99.3057 55.6158 99.7997 55.2692 100.363 55.0092C100.935 54.7578 101.55 54.6322 102.209 54.6322C102.85 54.6322 103.453 54.7578 104.016 55.0092C104.588 55.2605 105.082 55.5985 105.498 56.0232C105.923 56.4565 106.256 56.9592 106.499 57.5312C106.75 58.1119 106.876 58.7315 106.876 59.3902C106.876 60.0315 106.755 60.6382 106.512 61.2102C106.278 61.7909 105.949 62.2979 105.524 62.7312C105.108 63.1645 104.614 63.5069 104.042 63.7582C103.479 64.0182 102.868 64.1482 102.209 64.1482C101.568 64.1482 100.961 64.0225 100.389 63.7712C99.8257 63.5199 99.3317 63.1775 98.907 62.7442C98.4823 62.3195 98.1487 61.8169 97.906 61.2362C97.6633 60.6642 97.542 60.0489 97.542 59.3902ZM99.57 59.3902C99.57 59.7369 99.6437 60.0662 99.791 60.3782C99.9383 60.6902 100.133 60.9589 100.376 61.1842C100.619 61.4182 100.9 61.6002 101.221 61.7302C101.542 61.8689 101.871 61.9382 102.209 61.9382C102.547 61.9382 102.872 61.8689 103.184 61.7302C103.505 61.6002 103.786 61.4182 104.029 61.1842C104.28 60.9589 104.48 60.6902 104.627 60.3782C104.774 60.0662 104.848 59.7325 104.848 59.3772C104.848 59.0305 104.774 58.7012 104.627 58.3892C104.48 58.0859 104.285 57.8172 104.042 57.5832C103.799 57.3579 103.518 57.1759 103.197 57.0372C102.885 56.9072 102.556 56.8422 102.209 56.8422C101.871 56.8422 101.542 56.9072 101.221 57.0372C100.9 57.1759 100.619 57.3579 100.376 57.5832C100.133 57.8172 99.9383 58.0859 99.791 58.3892C99.6437 58.7012 99.57 59.0349 99.57 59.3902ZM106.876 65.4913V65.5173L101.884 71.3543H106.668L106.876 73.5643H97.542V73.5383L102.638 67.7013H97.854L97.646 65.4913H106.876Z" fill="white"/>
<path d="M24.224 49.4372C24.3973 49.2725 24.5447 49.0689 24.666 48.8262C24.796 48.5835 24.861 48.3149 24.861 48.0202C24.861 47.5782 24.7527 47.2185 24.536 46.9412C24.328 46.6725 24.0723 46.4645 23.769 46.3172L23.769 48.3062L22.599 48.0722L22.599 46.0052L21.962 45.9922L21.962 47.9422L20.792 47.7212L20.792 46.2132C20.4193 46.3519 20.1203 46.5642 19.895 46.8502C19.6697 47.1449 19.557 47.5305 19.557 48.0072C19.557 48.2152 19.6133 48.4579 19.726 48.7352C19.8473 49.0212 20.012 49.2682 20.22 49.4762L17.867 49.2552C17.7457 49.0819 17.6633 48.8652 17.62 48.6052C17.568 48.3539 17.542 48.1155 17.542 47.8902C17.542 47.4309 17.6113 46.9932 17.75 46.5772C17.8973 46.1699 18.1097 45.8015 18.387 45.4722C18.6643 45.1429 19.0023 44.8569 19.401 44.6142C19.8083 44.3715 20.272 44.1895 20.792 44.0682V42.8982L21.962 43.1192V43.9122L22.599 43.9252V42.8982L23.769 43.1322V44.1202C24.7657 44.3975 25.5327 44.8699 26.07 45.5372C26.6073 46.2045 26.876 46.9802 26.876 47.8642C26.876 48.0462 26.8543 48.2455 26.811 48.4622C26.7677 48.6875 26.694 48.8999 26.59 49.0992L24.224 49.4372Z" fill="white"/>
<path d="M23.951 58.945C23.405 58.945 22.8763 58.815 22.365 58.555C21.8623 58.3037 21.3857 57.983 20.935 57.593L19.752 56.592V59.322L17.75 58.854V52.562L21.728 55.812C21.8753 55.9247 22.0313 56.0417 22.196 56.163C22.3693 56.293 22.547 56.4057 22.729 56.501C22.911 56.605 23.0973 56.6873 23.288 56.748C23.4787 56.8173 23.665 56.852 23.847 56.852C24.159 56.852 24.406 56.735 24.588 56.501C24.7787 56.267 24.874 55.9897 24.874 55.669C24.874 55.3917 24.7873 55.1447 24.614 54.928C24.4407 54.72 24.2067 54.616 23.912 54.616C23.6433 54.616 23.4223 54.6767 23.249 54.798C23.0757 54.928 22.9283 55.1187 22.807 55.37L21.182 54.148C21.468 53.654 21.8233 53.2597 22.248 52.965C22.6813 52.6703 23.184 52.523 23.756 52.523C24.2327 52.523 24.6617 52.5967 25.043 52.744C25.4243 52.9 25.7493 53.121 26.018 53.407C26.2953 53.693 26.5077 54.0397 26.655 54.447C26.8023 54.8543 26.876 55.3093 26.876 55.812C26.876 56.2627 26.8067 56.6787 26.668 57.06C26.5293 57.45 26.33 57.7837 26.07 58.061C25.8187 58.3383 25.511 58.555 25.147 58.711C24.7917 58.867 24.393 58.945 23.951 58.945ZM26.668 66.0126L24.666 65.5056V62.9706H23.886C23.912 63.1613 23.925 63.326 23.925 63.4646C23.925 63.9153 23.8427 64.3313 23.678 64.7126C23.522 65.094 23.3053 65.419 23.028 65.6876C22.7507 65.965 22.4213 66.1773 22.04 66.3246C21.6673 66.4806 21.26 66.5586 20.818 66.5586C20.324 66.5586 19.8733 66.4676 19.466 66.2856C19.0673 66.1036 18.725 65.848 18.439 65.5186C18.153 65.198 17.932 64.8166 17.776 64.3746C17.62 63.9413 17.542 63.4733 17.542 62.9706C17.542 62.3726 17.6373 61.8136 17.828 61.2936C18.0187 60.7823 18.322 60.3186 18.738 59.9026L20.311 61.4496C20.0423 61.623 19.8473 61.844 19.726 62.1126C19.6047 62.39 19.544 62.6803 19.544 62.9836C19.544 63.157 19.5743 63.3216 19.635 63.4776C19.7043 63.6336 19.7997 63.7723 19.921 63.8936C20.051 64.015 20.1983 64.1103 20.363 64.1796C20.5363 64.249 20.727 64.2836 20.935 64.2836C21.3337 64.2836 21.65 64.1276 21.884 63.8156C22.118 63.5123 22.235 63.1136 22.235 62.6196C22.235 62.3163 22.2003 62.0173 22.131 61.7226C22.0703 61.4366 21.988 61.155 21.884 60.8776H26.668V66.0126ZM22.209 74.3803C21.5243 74.3803 20.896 74.3109 20.324 74.1723C19.752 74.0423 19.258 73.8386 18.842 73.5613C18.4347 73.2926 18.114 72.9503 17.88 72.5343C17.6547 72.1183 17.542 71.6286 17.542 71.0653C17.542 70.5106 17.6547 70.0296 17.88 69.6223C18.114 69.2149 18.4347 68.8726 18.842 68.5953C19.2493 68.3266 19.739 68.1229 20.311 67.9843C20.883 67.8543 21.5157 67.7893 22.209 67.7893C22.9023 67.7893 23.535 67.8543 24.107 67.9843C24.679 68.1229 25.1687 68.3266 25.576 68.5953C25.992 68.8726 26.3127 69.2149 26.538 69.6223C26.7633 70.0296 26.876 70.5106 26.876 71.0653C26.876 71.6199 26.7633 72.1053 26.538 72.5213C26.3127 72.9373 25.992 73.2839 25.576 73.5613C25.1687 73.8386 24.679 74.0423 24.107 74.1723C23.535 74.3109 22.9023 74.3803 22.209 74.3803ZM19.544 71.0653C19.544 71.4639 19.7607 71.7673 20.194 71.9753C20.6273 72.1833 21.299 72.2873 22.209 72.2873C23.119 72.2873 23.7907 72.1833 24.224 71.9753C24.6573 71.7759 24.874 71.4683 24.874 71.0523C24.874 70.2723 23.9857 69.8823 22.209 69.8823C21.273 69.8823 20.5927 69.9819 20.168 70.1813C19.752 70.3806 19.544 70.6753 19.544 71.0653Z" fill="white"/>
</svg>
