<svg width="116" height="186" viewBox="0 0 116 186" fill="none" xmlns="http://www.w3.org/2000/svg">
<rect x="113.75" y="183.75" width="112" height="182" transform="rotate(180 113.75 183.75)" fill="#634D8B"/>
<rect x="113.75" y="183.75" width="112" height="182" transform="rotate(180 113.75 183.75)" stroke="black" stroke-width="3.5"/>
<rect x="113.75" y="183.75" width="112" height="42" transform="rotate(180 113.75 183.75)" fill="#F11C26" stroke="black" stroke-width="3.5"/>
<path d="M90.5674 121.668C89.4581 121.668 88.6044 121.469 88.0064 121.07C87.3997 120.68 87.0964 120.099 87.0964 119.328C87.0964 118.886 87.2047 118.5 87.4214 118.171C87.6381 117.842 87.9197 117.603 88.2664 117.456V117.43C87.8677 117.274 87.5297 117.005 87.2524 116.624C86.9751 116.243 86.8364 115.779 86.8364 115.233C86.8364 114.427 87.1267 113.812 87.7074 113.387C88.2794 112.962 89.0464 112.75 90.0084 112.75H93.1154V121.668H90.5674ZM90.9054 118.119H90.3334C89.9867 118.119 89.7311 118.201 89.5664 118.366C89.3931 118.539 89.3064 118.765 89.3064 119.042C89.3064 119.25 89.3714 119.432 89.5014 119.588C89.5794 119.683 89.6964 119.761 89.8524 119.822C89.9997 119.883 90.2207 119.913 90.5154 119.913H90.9054V118.119ZM90.9054 114.505H90.4634C90.0474 114.505 89.7397 114.548 89.5404 114.635C89.3411 114.722 89.2111 114.834 89.1504 114.973C89.0811 115.112 89.0464 115.259 89.0464 115.415C89.0464 115.71 89.1331 115.939 89.3064 116.104C89.4797 116.277 89.8177 116.364 90.3204 116.364H90.9054V114.505ZM81.0818 112.542C81.7231 112.542 82.3341 112.659 82.9148 112.893C83.4868 113.136 83.9894 113.465 84.4228 113.881C84.8561 114.306 85.2028 114.8 85.4628 115.363C85.7141 115.935 85.8398 116.55 85.8398 117.209C85.8398 117.85 85.7141 118.453 85.4628 119.016C85.2114 119.588 84.8734 120.082 84.4488 120.498C84.0154 120.923 83.5128 121.256 82.9408 121.499C82.3601 121.75 81.7404 121.876 81.0818 121.876C80.4404 121.876 79.8338 121.755 79.2618 121.512C78.6811 121.278 78.1741 120.949 77.7408 120.524C77.3074 120.108 76.9651 119.614 76.7138 119.042C76.4538 118.479 76.3238 117.868 76.3238 117.209C76.3238 116.568 76.4494 115.961 76.7008 115.389C76.9521 114.826 77.2944 114.332 77.7278 113.907C78.1524 113.482 78.6551 113.149 79.2358 112.906C79.8078 112.663 80.4231 112.542 81.0818 112.542ZM81.0818 114.57C80.7351 114.57 80.4058 114.644 80.0938 114.791C79.7818 114.938 79.5131 115.133 79.2878 115.376C79.0538 115.619 78.8718 115.9 78.7418 116.221C78.6031 116.542 78.5338 116.871 78.5338 117.209C78.5338 117.547 78.6031 117.872 78.7418 118.184C78.8718 118.505 79.0538 118.786 79.2878 119.029C79.5131 119.28 79.7818 119.48 80.0938 119.627C80.4058 119.774 80.7394 119.848 81.0948 119.848C81.4414 119.848 81.7708 119.774 82.0828 119.627C82.3861 119.48 82.6548 119.285 82.8888 119.042C83.1141 118.799 83.2961 118.518 83.4348 118.197C83.5648 117.885 83.6298 117.556 83.6298 117.209C83.6298 116.871 83.5648 116.542 83.4348 116.221C83.2961 115.9 83.1141 115.619 82.8888 115.376C82.6548 115.133 82.3861 114.938 82.0828 114.791C81.7708 114.644 81.4371 114.57 81.0818 114.57ZM72.7836 116.26C72.7836 115.714 72.6753 115.294 72.4586 114.999C72.2333 114.713 71.8779 114.57 71.3926 114.57C71.1586 114.57 70.9463 114.596 70.7556 114.648C70.5649 114.709 70.4003 114.813 70.2616 114.96C70.1143 115.116 70.0016 115.328 69.9236 115.597C69.8456 115.866 69.8066 116.212 69.8066 116.637V121.668L67.5966 121.876V115.805C67.5966 115.285 67.6963 114.821 67.8956 114.414C68.0949 114.007 68.3723 113.664 68.7276 113.387C69.0743 113.11 69.4816 112.897 69.9496 112.75C70.4176 112.611 70.9203 112.542 71.4576 112.542C72.6103 112.542 73.4899 112.815 74.0966 113.361C74.6946 113.916 74.9936 114.678 74.9936 115.649V121.668L72.7836 121.876V116.26ZM63.6707 114.778H60.7457L61.3307 112.75H65.8807V121.668L63.6707 121.876V114.778ZM54.6703 121.668L54.2803 119.783H57.5043V118.236H55.2033V116.351H57.5043V114.635H54.0073L54.5533 112.75H59.7143V121.668H54.6703ZM51.6283 121.876L49.9123 117.144H49.8863L48.1443 121.876L45.9083 121.447L49.9643 112.542H49.9903L53.8773 121.447L51.6283 121.876ZM42.79 121.876H42.764L37.954 112.997L40.203 112.542L41.113 114.453H44.506L45.403 112.542L47.548 112.997L42.79 121.876ZM43.973 116.104H41.607L42.79 118.288L43.973 116.104ZM34.9902 121.668C33.8548 121.668 32.9795 121.443 32.3642 120.992C31.7488 120.541 31.4411 119.848 31.4411 118.912C31.4411 118.661 31.4758 118.414 31.5452 118.171C31.6145 117.937 31.7141 117.72 31.8442 117.521C31.9742 117.322 32.1301 117.144 32.3121 116.988C32.4855 116.841 32.6762 116.728 32.8841 116.65L30.4791 113.257L32.7152 112.542L35.3152 116.754H35.3412V112.854L37.5512 112.646V121.668H34.9902ZM35.3412 117.287C35.2978 117.278 35.2545 117.274 35.2112 117.274C35.1678 117.274 35.1245 117.274 35.0812 117.274C34.9078 117.274 34.7345 117.291 34.5612 117.326C34.3878 117.369 34.2362 117.439 34.1062 117.534C33.9675 117.638 33.8592 117.772 33.7811 117.937C33.6945 118.11 33.6512 118.327 33.6512 118.587C33.6512 118.899 33.7335 119.163 33.8982 119.38C34.0542 119.597 34.3488 119.727 34.7822 119.77C34.8688 119.779 34.9598 119.783 35.0552 119.783C35.1418 119.783 35.2372 119.783 35.3412 119.783V117.287ZM26.6095 121.668C25.9855 121.668 25.3962 121.551 24.8415 121.317C24.2869 121.092 23.8059 120.78 23.3985 120.381C22.9825 119.982 22.6575 119.51 22.4235 118.964C22.1809 118.418 22.0595 117.833 22.0595 117.209C22.0595 116.559 22.1852 115.961 22.4365 115.415C22.6879 114.869 23.0215 114.397 23.4375 113.998C23.8535 113.608 24.3345 113.3 24.8805 113.075C25.4265 112.858 25.9985 112.75 26.5965 112.75H29.7295V121.668H26.6095ZM27.5195 114.635H26.8565C26.5099 114.635 26.1805 114.7 25.8685 114.83C25.5565 114.96 25.2835 115.142 25.0495 115.376C24.8069 115.61 24.6162 115.883 24.4775 116.195C24.3389 116.507 24.2695 116.845 24.2695 117.209C24.2695 117.547 24.3345 117.868 24.4645 118.171C24.5945 118.483 24.7765 118.756 25.0105 118.99C25.2359 119.233 25.5089 119.423 25.8295 119.562C26.1415 119.709 26.4795 119.783 26.8435 119.783H27.5195V114.635ZM97.8092 104.211C98.0519 104.384 98.3076 104.532 98.5762 104.653C98.8449 104.783 99.1309 104.848 99.4342 104.848C99.8069 104.848 100.154 104.783 100.474 104.653C100.786 104.532 101.055 104.354 101.28 104.12C101.506 103.895 101.683 103.622 101.813 103.301C101.943 102.98 102.008 102.625 102.008 102.235C102.008 101.836 101.948 101.472 101.826 101.143C101.696 100.822 101.519 100.545 101.293 100.311C101.068 100.077 100.799 99.895 100.487 99.765C100.167 99.635 99.8156 99.57 99.4342 99.57C99.1309 99.57 98.8406 99.635 98.5632 99.765C98.2772 99.9037 98.0086 100.06 97.7572 100.233L98.0302 97.867C98.1169 97.815 98.2296 97.7717 98.3682 97.737C98.5069 97.6937 98.6542 97.659 98.8102 97.633C98.9576 97.607 99.1049 97.5853 99.2522 97.568C99.3909 97.5507 99.5036 97.542 99.5902 97.542C100.266 97.542 100.89 97.6547 101.462 97.88C102.026 98.1053 102.515 98.4217 102.931 98.829C103.339 99.2363 103.655 99.7217 103.88 100.285C104.106 100.857 104.218 101.49 104.218 102.183C104.218 102.842 104.106 103.457 103.88 104.029C103.655 104.601 103.339 105.099 102.931 105.524C102.524 105.949 102.039 106.278 101.475 106.512C100.903 106.755 100.279 106.876 99.6032 106.876C99.3432 106.876 99.0919 106.854 98.8492 106.811C98.6066 106.768 98.3726 106.694 98.1472 106.59L97.8092 104.211ZM95.2266 106.876L92.9516 103.275L91.5086 106.876L89.4156 106.226L93.1466 97.542L95.4346 97.828L94.0046 100.909L97.2936 106.031L95.2266 106.876ZM86.105 106.668C84.9956 106.668 84.142 106.469 83.544 106.07C82.9373 105.68 82.634 105.099 82.634 104.328C82.634 103.886 82.7423 103.5 82.959 103.171C83.1756 102.842 83.4573 102.603 83.804 102.456V102.43C83.4053 102.274 83.0673 102.005 82.79 101.624C82.5126 101.243 82.374 100.779 82.374 100.233C82.374 99.427 82.6643 98.8117 83.245 98.387C83.817 97.9623 84.584 97.75 85.546 97.75H88.653V106.668H86.105ZM86.443 103.119H85.871C85.5243 103.119 85.2686 103.201 85.104 103.366C84.9306 103.539 84.844 103.765 84.844 104.042C84.844 104.25 84.909 104.432 85.039 104.588C85.117 104.683 85.234 104.761 85.39 104.822C85.5373 104.883 85.7583 104.913 86.053 104.913H86.443V103.119ZM86.443 99.505H86.001C85.585 99.505 85.2773 99.5483 85.078 99.635C84.8786 99.7217 84.7486 99.8343 84.688 99.973C84.6186 100.112 84.584 100.259 84.584 100.415C84.584 100.71 84.6706 100.939 84.844 101.104C85.0173 101.277 85.3553 101.364 85.858 101.364H86.443V99.505ZM75.9433 106.668L75.5533 104.783H78.7773V103.236H76.4763V101.351H78.7773V99.635H75.2803L75.8263 97.75H80.9873V106.668H75.9433ZM71.7443 106.668C70.609 106.668 69.7337 106.443 69.1183 105.992C68.503 105.541 68.1953 104.848 68.1953 103.912C68.1953 103.661 68.23 103.414 68.2993 103.171C68.3687 102.937 68.4683 102.72 68.5983 102.521C68.7283 102.322 68.8843 102.144 69.0663 101.988C69.2397 101.841 69.4303 101.728 69.6383 101.65L67.2333 98.257L69.4693 97.542L72.0693 101.754H72.0953V97.854L74.3053 97.646V106.668H71.7443ZM72.0953 102.287C72.052 102.278 72.0087 102.274 71.9653 102.274C71.922 102.274 71.8787 102.274 71.8353 102.274C71.662 102.274 71.4887 102.291 71.3153 102.326C71.142 102.369 70.9903 102.439 70.8603 102.534C70.7217 102.638 70.6133 102.772 70.5353 102.937C70.4487 103.11 70.4053 103.327 70.4053 103.587C70.4053 103.899 70.4877 104.163 70.6523 104.38C70.8083 104.597 71.103 104.727 71.5363 104.77C71.623 104.779 71.714 104.783 71.8093 104.783C71.896 104.783 71.9913 104.783 72.0953 104.783V102.287ZM61.7387 104.315C62.016 104.566 62.2717 104.74 62.5057 104.835C62.7397 104.939 62.9694 104.991 63.1947 104.991C63.498 104.991 63.758 104.93 63.9747 104.809C64.1914 104.688 64.2997 104.514 64.2997 104.289C64.2997 104.15 64.265 104.029 64.1957 103.925C64.1177 103.83 64.0137 103.743 63.8837 103.665C63.7537 103.596 63.602 103.531 63.4287 103.47C63.2554 103.409 63.0734 103.349 62.8827 103.288C62.5967 103.193 62.302 103.084 61.9987 102.963C61.6867 102.85 61.4094 102.694 61.1667 102.495C60.9154 102.296 60.7117 102.036 60.5557 101.715C60.391 101.403 60.3087 101.004 60.3087 100.519C60.3087 100.008 60.404 99.5657 60.5947 99.193C60.7767 98.8203 61.028 98.5083 61.3487 98.257C61.6607 98.0143 62.0247 97.8367 62.4407 97.724C62.848 97.6027 63.277 97.542 63.7277 97.542C64.3084 97.542 64.8674 97.6287 65.4047 97.802C65.9334 97.9753 66.4057 98.2397 66.8217 98.595L65.4957 100.285C65.305 100.06 65.0624 99.882 64.7677 99.752C64.473 99.6307 64.174 99.57 63.8707 99.57C63.5414 99.57 63.2554 99.6393 63.0127 99.778C62.77 99.9167 62.6487 100.112 62.6487 100.363C62.6487 100.528 62.7007 100.662 62.8047 100.766C62.9087 100.879 63.0474 100.974 63.2207 101.052C63.3854 101.139 63.5804 101.217 63.8057 101.286C64.031 101.355 64.2607 101.429 64.4947 101.507C64.7547 101.594 65.0147 101.702 65.2747 101.832C65.526 101.962 65.7557 102.127 65.9637 102.326C66.163 102.525 66.3277 102.768 66.4577 103.054C66.579 103.349 66.6397 103.704 66.6397 104.12C66.6397 104.536 66.553 104.913 66.3797 105.251C66.2064 105.589 65.9724 105.875 65.6777 106.109C65.383 106.352 65.0407 106.538 64.6507 106.668C64.252 106.807 63.8317 106.876 63.3897 106.876C62.8697 106.876 62.3627 106.785 61.8687 106.603C61.3747 106.43 60.9284 106.178 60.5297 105.849L61.7387 104.315ZM53.8261 106.668L53.4361 104.783H56.6601V103.236H54.3591V101.351H56.6601V99.635H53.1631L53.7091 97.75H58.8701V106.668H53.8261ZM53.9041 109.229L55.9581 107.305H57.5311L56.2701 109.229H53.9041ZM45.9611 104.211C46.2037 104.384 46.4594 104.532 46.7281 104.653C46.9967 104.783 47.2827 104.848 47.5861 104.848C47.9587 104.848 48.3054 104.783 48.6261 104.653C48.9381 104.532 49.2067 104.354 49.4321 104.12C49.6574 103.895 49.8351 103.622 49.9651 103.301C50.0951 102.98 50.1601 102.625 50.1601 102.235C50.1601 101.836 50.0994 101.472 49.9781 101.143C49.8481 100.822 49.6704 100.545 49.4451 100.311C49.2197 100.077 48.9511 99.895 48.6391 99.765C48.3184 99.635 47.9674 99.57 47.5861 99.57C47.2827 99.57 46.9924 99.635 46.7151 99.765C46.4291 99.9037 46.1604 100.06 45.9091 100.233L46.1821 97.867C46.2687 97.815 46.3814 97.7717 46.5201 97.737C46.6587 97.6937 46.8061 97.659 46.9621 97.633C47.1094 97.607 47.2567 97.5853 47.4041 97.568C47.5427 97.5507 47.6554 97.542 47.7421 97.542C48.4181 97.542 49.0421 97.6547 49.6141 97.88C50.1774 98.1053 50.6671 98.4217 51.0831 98.829C51.4904 99.2363 51.8067 99.7217 52.0321 100.285C52.2574 100.857 52.3701 101.49 52.3701 102.183C52.3701 102.842 52.2574 103.457 52.0321 104.029C51.8067 104.601 51.4904 105.099 51.0831 105.524C50.6757 105.949 50.1904 106.278 49.6271 106.512C49.0551 106.755 48.4311 106.876 47.7551 106.876C47.4951 106.876 47.2437 106.854 47.0011 106.811C46.7584 106.768 46.5244 106.694 46.2991 106.59L45.9611 104.211ZM42.2085 101.26C42.2085 100.714 42.1001 100.294 41.8835 99.999C41.6581 99.713 41.3028 99.57 40.8175 99.57C40.5835 99.57 40.3711 99.596 40.1805 99.648C39.9898 99.7087 39.8251 99.8127 39.6865 99.96C39.5391 100.116 39.4265 100.328 39.3485 100.597C39.2705 100.866 39.2315 101.212 39.2315 101.637V106.668L37.0215 106.876V100.805C37.0215 100.285 37.1211 99.8213 37.3205 99.414C37.5198 99.0067 37.7971 98.6643 38.1525 98.387C38.4991 98.1097 38.9065 97.8973 39.3745 97.75C39.8425 97.6113 40.3451 97.542 40.8825 97.542C42.0351 97.542 42.9148 97.815 43.5215 98.361C44.1195 98.9157 44.4185 99.6783 44.4185 100.649V106.668L42.2085 106.876V101.26ZM32.9526 106.668C31.8172 106.668 30.9419 106.443 30.3266 105.992C29.7112 105.541 29.4036 104.848 29.4036 103.912C29.4036 103.661 29.4382 103.414 29.5076 103.171C29.5769 102.937 29.6766 102.72 29.8066 102.521C29.9366 102.322 30.0926 102.144 30.2746 101.988C30.4479 101.841 30.6386 101.728 30.8466 101.65L28.4416 98.257L30.6776 97.542L33.2776 101.754H33.3036V97.854L35.5136 97.646V106.668H32.9526ZM33.3036 102.287C33.2602 102.278 33.2169 102.274 33.1736 102.274C33.1302 102.274 33.0869 102.274 33.0436 102.274C32.8702 102.274 32.6969 102.291 32.5236 102.326C32.3502 102.369 32.1986 102.439 32.0686 102.534C31.9299 102.638 31.8216 102.772 31.7436 102.937C31.6569 103.11 31.6136 103.327 31.6136 103.587C31.6136 103.899 31.6959 104.163 31.8606 104.38C32.0166 104.597 32.3112 104.727 32.7446 104.77C32.8312 104.779 32.9222 104.783 33.0176 104.783C33.1042 104.783 33.1996 104.783 33.3036 104.783V102.287ZM25.4689 97.854L27.6789 97.646V106.668L25.4689 106.876V97.854ZM17.8728 106.668V104.64H20.0178V97.854L22.2278 97.646V104.64H24.5158L23.9568 106.668H17.8728ZM11.7498 106.668L11.3598 104.783H14.5838V103.236H12.2828V101.351H14.5838V99.635H11.0868L11.6328 97.75H16.7938V106.668H11.7498ZM11.8278 109.229L13.8818 107.305H15.4548L14.1938 109.229H11.8278Z" fill="white"/>
<path d="M66.0628 24.224C66.2275 24.3973 66.4311 24.5447 66.6738 24.666C66.9165 24.796 67.1851 24.861 67.4798 24.861C67.9218 24.861 68.2815 24.7527 68.5588 24.536C68.8275 24.328 69.0355 24.0723 69.1828 23.769H67.1938L67.4278 22.599H69.4948L69.5078 21.962H67.5578L67.7788 20.792H69.2868C69.1481 20.4193 68.9358 20.1203 68.6498 19.895C68.3551 19.6697 67.9695 19.557 67.4928 19.557C67.2848 19.557 67.0421 19.6133 66.7648 19.726C66.4788 19.8473 66.2318 20.012 66.0238 20.22L66.2448 17.867C66.4181 17.7457 66.6348 17.6633 66.8948 17.62C67.1461 17.568 67.3845 17.542 67.6098 17.542C68.0691 17.542 68.5068 17.6113 68.9228 17.75C69.3301 17.8973 69.6985 18.1097 70.0278 18.387C70.3571 18.6643 70.6431 19.0023 70.8858 19.401C71.1285 19.8083 71.3105 20.272 71.4318 20.792H72.6018L72.3808 21.962H71.5878L71.5748 22.599H72.6018L72.3678 23.769H71.3798C71.1025 24.7657 70.6301 25.5327 69.9628 26.07C69.2955 26.6073 68.5198 26.876 67.6358 26.876C67.4538 26.876 67.2545 26.8543 67.0378 26.811C66.8125 26.7677 66.6001 26.694 66.4008 26.59L66.0628 24.224Z" fill="white"/>
<path d="M56.906 24.263C56.906 23.873 56.9797 23.5437 57.127 23.275C57.2657 23.0063 57.478 22.7463 57.764 22.495C57.374 22.2957 57.0663 22.0053 56.841 21.624C56.6157 21.2513 56.503 20.844 56.503 20.402C56.503 19.9427 56.5897 19.5353 56.763 19.18C56.9363 18.8333 57.179 18.5343 57.491 18.283C57.7943 18.0403 58.1627 17.8583 58.596 17.737C59.0207 17.607 59.4887 17.542 60 17.542C60.5807 17.542 61.144 17.6677 61.69 17.919C62.2273 18.179 62.691 18.53 63.081 18.972L61.612 20.454C61.3867 20.168 61.157 19.9427 60.923 19.778C60.6803 19.622 60.377 19.544 60.013 19.544C59.623 19.544 59.3197 19.6393 59.103 19.83C58.8863 20.0293 58.778 20.298 58.778 20.636C58.778 21.078 58.999 21.3597 59.441 21.481C59.5537 21.5157 59.6793 21.533 59.818 21.533C59.9567 21.5417 60.1083 21.546 60.273 21.546H60.923V23.106H60.39C60.1907 23.106 60.0087 23.119 59.844 23.145C59.6707 23.171 59.5233 23.2187 59.402 23.288C59.272 23.366 59.1723 23.4657 59.103 23.587C59.0337 23.7083 58.999 23.86 58.999 24.042C58.999 24.406 59.1117 24.666 59.337 24.822C59.5623 24.978 59.818 25.056 60.104 25.056C60.416 25.056 60.6717 24.9737 60.871 24.809C61.0703 24.653 61.2783 24.4797 61.495 24.289L63.042 25.173C62.678 25.745 62.21 26.1697 61.638 26.447C61.066 26.733 60.455 26.876 59.805 26.876C59.3803 26.876 58.9903 26.811 58.635 26.681C58.2797 26.551 57.9763 26.369 57.725 26.135C57.465 25.9097 57.2657 25.6367 57.127 25.316C56.9797 24.9953 56.906 24.6443 56.906 24.263ZM48.7334 22.209C48.7334 21.5243 48.8027 20.896 48.9414 20.324C49.0714 19.752 49.275 19.258 49.5524 18.842C49.821 18.4347 50.1634 18.114 50.5794 17.88C50.9954 17.6547 51.485 17.542 52.0484 17.542C52.603 17.542 53.084 17.6547 53.4914 17.88C53.8987 18.114 54.241 18.4347 54.5184 18.842C54.787 19.2493 54.9907 19.739 55.1294 20.311C55.2594 20.883 55.3244 21.5157 55.3244 22.209C55.3244 22.9023 55.2594 23.535 55.1294 24.107C54.9907 24.679 54.787 25.1687 54.5184 25.576C54.241 25.992 53.8987 26.3127 53.4914 26.538C53.084 26.7633 52.603 26.876 52.0484 26.876C51.4937 26.876 51.0084 26.7633 50.5924 26.538C50.1764 26.3127 49.8297 25.992 49.5524 25.576C49.275 25.1687 49.0714 24.679 48.9414 24.107C48.8027 23.535 48.7334 22.9023 48.7334 22.209ZM52.0484 19.544C51.6497 19.544 51.3464 19.7607 51.1384 20.194C50.9304 20.6273 50.8264 21.299 50.8264 22.209C50.8264 23.119 50.9304 23.7907 51.1384 24.224C51.3377 24.6573 51.6454 24.874 52.0614 24.874C52.8414 24.874 53.2314 23.9857 53.2314 22.209C53.2314 21.273 53.1317 20.5927 52.9324 20.168C52.733 19.752 52.4384 19.544 52.0484 19.544ZM41.1197 22.209C41.1197 21.5243 41.1891 20.896 41.3277 20.324C41.4577 19.752 41.6614 19.258 41.9387 18.842C42.2074 18.4347 42.5497 18.114 42.9657 17.88C43.3817 17.6547 43.8714 17.542 44.4347 17.542C44.9894 17.542 45.4704 17.6547 45.8777 17.88C46.2851 18.114 46.6274 18.4347 46.9047 18.842C47.1734 19.2493 47.3771 19.739 47.5157 20.311C47.6457 20.883 47.7107 21.5157 47.7107 22.209C47.7107 22.9023 47.6457 23.535 47.5157 24.107C47.3771 24.679 47.1734 25.1687 46.9047 25.576C46.6274 25.992 46.2851 26.3127 45.8777 26.538C45.4704 26.7633 44.9894 26.876 44.4347 26.876C43.8801 26.876 43.3947 26.7633 42.9787 26.538C42.5627 26.3127 42.2161 25.992 41.9387 25.576C41.6614 25.1687 41.4577 24.679 41.3277 24.107C41.1891 23.535 41.1197 22.9023 41.1197 22.209ZM44.4347 19.544C44.0361 19.544 43.7327 19.7607 43.5247 20.194C43.3167 20.6273 43.2127 21.299 43.2127 22.209C43.2127 23.119 43.3167 23.7907 43.5247 24.224C43.7241 24.6573 44.0317 24.874 44.4477 24.874C45.2277 24.874 45.6177 23.9857 45.6177 22.209C45.6177 21.273 45.5181 20.5927 45.3187 20.168C45.1194 19.752 44.8247 19.544 44.4347 19.544Z" fill="white"/>
</svg>
