<svg width="116" height="186" viewBox="0 0 116 186" fill="none" xmlns="http://www.w3.org/2000/svg">
<rect x="113.75" y="183.75" width="112" height="182" transform="rotate(180 113.75 183.75)" fill="#634D8B"/>
<rect x="113.75" y="183.75" width="112" height="182" transform="rotate(180 113.75 183.75)" stroke="black" stroke-width="3.5"/>
<rect x="113.75" y="183.75" width="112" height="42" transform="rotate(180 113.75 183.75)" fill="#F11C26" stroke="black" stroke-width="3.5"/>
<path d="M77.494 121.876H77.468L72.658 112.997L74.907 112.542L75.817 114.453H79.21L80.107 112.542L82.252 112.997L77.494 121.876ZM78.677 116.104H76.311L77.494 118.288L78.677 116.104ZM72.0444 121.876L70.3284 117.144H70.3024L68.5604 121.876L66.3244 121.447L70.3804 112.542H70.4064L74.2934 121.447L72.0444 121.876ZM60.5828 121.668L60.1928 119.783H63.4168V118.236H61.1158V116.351H63.4168V114.635H59.9198L60.4658 112.75H65.6268V121.668H60.5828ZM58.7758 121.876H58.7498L52.9128 116.884V121.668L50.7028 121.876V112.542H50.7288L56.5658 117.638V112.854L58.7758 112.646V121.876ZM46.8069 116.26C46.8069 115.714 46.6986 115.294 46.4819 114.999C46.2566 114.713 45.9013 114.57 45.4159 114.57C45.1819 114.57 44.9696 114.596 44.7789 114.648C44.5883 114.709 44.4236 114.813 44.2849 114.96C44.1376 115.116 44.0249 115.328 43.9469 115.597C43.8689 115.866 43.8299 116.212 43.8299 116.637V121.668L41.6199 121.876V115.805C41.6199 115.285 41.7196 114.821 41.9189 114.414C42.1183 114.007 42.3956 113.664 42.7509 113.387C43.0976 113.11 43.5049 112.897 43.9729 112.75C44.4409 112.611 44.9436 112.542 45.4809 112.542C46.6336 112.542 47.5133 112.815 48.1199 113.361C48.7179 113.916 49.0169 114.678 49.0169 115.649V121.668L46.8069 121.876V116.26ZM34.86 121.668L34.47 119.783H37.694V118.236H35.393V116.351H37.694V114.635H34.197L34.743 112.75H39.904V121.668H34.86ZM92.1261 106.876H92.1001L89.2921 101.416L86.3931 106.876H86.3671L84.0011 97.854L86.2241 97.542L86.9911 101.832H87.0171L89.3571 97.542H89.3831L91.5151 101.819H91.5411L92.3081 97.542L94.5701 97.854L92.1261 106.876ZM79.5379 106.876H79.5119L74.7019 97.997L76.9509 97.542L77.8609 99.453H81.2539L82.1509 97.542L84.2959 97.997L79.5379 106.876ZM80.7209 101.104H78.3549L79.5379 103.288L80.7209 101.104ZM71.868 97.854L74.078 97.646V106.668L71.868 106.876V97.854ZM70.1218 106.876H70.0958L64.2588 101.884V106.668L62.0488 106.876V97.542H62.0748L67.9118 102.638V97.854L70.1218 97.646V106.876ZM55.605 106.668L55.072 104.64H58.101V102.729H55.904V100.844H58.101V97.75L60.311 97.646V106.668H55.605ZM51.7916 106.668C50.6563 106.668 49.781 106.443 49.1656 105.992C48.5503 105.541 48.2426 104.848 48.2426 103.912C48.2426 103.661 48.2773 103.414 48.3466 103.171C48.416 102.937 48.5156 102.72 48.6456 102.521C48.7756 102.322 48.9316 102.144 49.1136 101.988C49.287 101.841 49.4776 101.728 49.6856 101.65L47.2806 98.257L49.5166 97.542L52.1166 101.754H52.1426V97.854L54.3526 97.646V106.668H51.7916ZM52.1426 102.287C52.0993 102.278 52.056 102.274 52.0126 102.274C51.9693 102.274 51.926 102.274 51.8826 102.274C51.7093 102.274 51.536 102.291 51.3626 102.326C51.1893 102.369 51.0376 102.439 50.9076 102.534C50.769 102.638 50.6606 102.772 50.5826 102.937C50.496 103.11 50.4526 103.327 50.4526 103.587C50.4526 103.899 50.535 104.163 50.6996 104.38C50.8556 104.597 51.1503 104.727 51.5836 104.77C51.6703 104.779 51.7613 104.783 51.8566 104.783C51.9433 104.783 52.0386 104.783 52.1426 104.783V102.287ZM42.917 106.876H42.891L38.081 97.997L40.33 97.542L41.24 99.453H44.633L45.53 97.542L47.675 97.997L42.917 106.876ZM44.1 101.104H41.734L42.917 103.288L44.1 101.104ZM35.9361 106.876H35.9101L33.1021 101.416L30.2031 106.876H30.1771L27.8111 97.854L30.0341 97.542L30.8011 101.832H30.8271L33.1671 97.542H33.1931L35.3251 101.819H35.3511L36.1181 97.542L38.3801 97.854L35.9361 106.876ZM21.9179 106.668L21.5279 104.783H24.7519V103.236H22.4509V101.351H24.7519V99.635H21.2549L21.8009 97.75H26.9619V106.668H21.9179Z" fill="white"/>
<path d="M66.0628 24.224C66.2275 24.3973 66.4311 24.5447 66.6738 24.666C66.9165 24.796 67.1851 24.861 67.4798 24.861C67.9218 24.861 68.2815 24.7527 68.5588 24.536C68.8275 24.328 69.0355 24.0723 69.1828 23.769H67.1938L67.4278 22.599H69.4948L69.5078 21.962H67.5578L67.7788 20.792H69.2868C69.1481 20.4193 68.9358 20.1203 68.6498 19.895C68.3551 19.6697 67.9695 19.557 67.4928 19.557C67.2848 19.557 67.0421 19.6133 66.7648 19.726C66.4788 19.8473 66.2318 20.012 66.0238 20.22L66.2448 17.867C66.4181 17.7457 66.6348 17.6633 66.8948 17.62C67.1461 17.568 67.3845 17.542 67.6098 17.542C68.0691 17.542 68.5068 17.6113 68.9228 17.75C69.3301 17.8973 69.6985 18.1097 70.0278 18.387C70.3571 18.6643 70.6431 19.0023 70.8858 19.401C71.1285 19.8083 71.3105 20.272 71.4318 20.792H72.6018L72.3808 21.962H71.5878L71.5748 22.599H72.6018L72.3678 23.769H71.3798C71.1025 24.7657 70.6301 25.5327 69.9628 26.07C69.2955 26.6073 68.5198 26.876 67.6358 26.876C67.4538 26.876 67.2545 26.8543 67.0378 26.811C66.8125 26.7677 66.6001 26.694 66.4008 26.59L66.0628 24.224Z" fill="white"/>
<path d="M56.906 24.263C56.906 23.873 56.9797 23.5437 57.127 23.275C57.2657 23.0063 57.478 22.7463 57.764 22.495C57.374 22.2957 57.0663 22.0053 56.841 21.624C56.6157 21.2513 56.503 20.844 56.503 20.402C56.503 19.9427 56.5897 19.5353 56.763 19.18C56.9363 18.8333 57.179 18.5343 57.491 18.283C57.7943 18.0403 58.1627 17.8583 58.596 17.737C59.0207 17.607 59.4887 17.542 60 17.542C60.5807 17.542 61.144 17.6677 61.69 17.919C62.2273 18.179 62.691 18.53 63.081 18.972L61.612 20.454C61.3867 20.168 61.157 19.9427 60.923 19.778C60.6803 19.622 60.377 19.544 60.013 19.544C59.623 19.544 59.3197 19.6393 59.103 19.83C58.8863 20.0293 58.778 20.298 58.778 20.636C58.778 21.078 58.999 21.3597 59.441 21.481C59.5537 21.5157 59.6793 21.533 59.818 21.533C59.9567 21.5417 60.1083 21.546 60.273 21.546H60.923V23.106H60.39C60.1907 23.106 60.0087 23.119 59.844 23.145C59.6707 23.171 59.5233 23.2187 59.402 23.288C59.272 23.366 59.1723 23.4657 59.103 23.587C59.0337 23.7083 58.999 23.86 58.999 24.042C58.999 24.406 59.1117 24.666 59.337 24.822C59.5623 24.978 59.818 25.056 60.104 25.056C60.416 25.056 60.6717 24.9737 60.871 24.809C61.0703 24.653 61.2783 24.4797 61.495 24.289L63.042 25.173C62.678 25.745 62.21 26.1697 61.638 26.447C61.066 26.733 60.455 26.876 59.805 26.876C59.3803 26.876 58.9903 26.811 58.635 26.681C58.2797 26.551 57.9763 26.369 57.725 26.135C57.465 25.9097 57.2657 25.6367 57.127 25.316C56.9797 24.9953 56.906 24.6443 56.906 24.263ZM48.9414 23.951C48.9414 23.405 49.0714 22.8763 49.3314 22.365C49.5827 21.8623 49.9034 21.3857 50.2934 20.935L51.2944 19.752H48.5644L49.0324 17.75H55.3244L52.0744 21.728C51.9617 21.8753 51.8447 22.0313 51.7234 22.196C51.5934 22.3693 51.4807 22.547 51.3854 22.729C51.2814 22.911 51.199 23.0973 51.1384 23.288C51.069 23.4787 51.0344 23.665 51.0344 23.847C51.0344 24.159 51.1514 24.406 51.3854 24.588C51.6194 24.7787 51.8967 24.874 52.2174 24.874C52.4947 24.874 52.7417 24.7873 52.9584 24.614C53.1664 24.4407 53.2704 24.2067 53.2704 23.912C53.2704 23.6433 53.2097 23.4223 53.0884 23.249C52.9584 23.0757 52.7677 22.9283 52.5164 22.807L53.7384 21.182C54.2324 21.468 54.6267 21.8233 54.9214 22.248C55.216 22.6813 55.3634 23.184 55.3634 23.756C55.3634 24.2327 55.2897 24.6617 55.1424 25.043C54.9864 25.4243 54.7654 25.7493 54.4794 26.018C54.1934 26.2953 53.8467 26.5077 53.4394 26.655C53.032 26.8023 52.577 26.876 52.0744 26.876C51.6237 26.876 51.2077 26.8067 50.8264 26.668C50.4364 26.5293 50.1027 26.33 49.8254 26.07C49.548 25.8187 49.3314 25.511 49.1754 25.147C49.0194 24.7917 48.9414 24.393 48.9414 23.951ZM41.8737 26.668L42.3807 24.666H44.9157V23.886C44.7251 23.912 44.5604 23.925 44.4217 23.925C43.9711 23.925 43.5551 23.8427 43.1737 23.678C42.7924 23.522 42.4674 23.3053 42.1987 23.028C41.9214 22.7507 41.7091 22.4213 41.5617 22.04C41.4057 21.6673 41.3277 21.26 41.3277 20.818C41.3277 20.324 41.4187 19.8733 41.6007 19.466C41.7827 19.0673 42.0384 18.725 42.3677 18.439C42.6884 18.153 43.0697 17.932 43.5117 17.776C43.9451 17.62 44.4131 17.542 44.9157 17.542C45.5137 17.542 46.0727 17.6373 46.5927 17.828C47.1041 18.0187 47.5677 18.322 47.9837 18.738L46.4367 20.311C46.2634 20.0423 46.0424 19.8473 45.7737 19.726C45.4964 19.6047 45.2061 19.544 44.9027 19.544C44.7294 19.544 44.5647 19.5743 44.4087 19.635C44.2527 19.7043 44.1141 19.7997 43.9927 19.921C43.8714 20.051 43.7761 20.1983 43.7067 20.363C43.6374 20.5363 43.6027 20.727 43.6027 20.935C43.6027 21.3337 43.7587 21.65 44.0707 21.884C44.3741 22.118 44.7727 22.235 45.2667 22.235C45.5701 22.235 45.8691 22.2003 46.1637 22.131C46.4497 22.0703 46.7314 21.988 47.0087 21.884V26.668H41.8737Z" fill="white"/>
</svg>
