<svg width="186" height="116" viewBox="0 0 186 116" fill="none" xmlns="http://www.w3.org/2000/svg">
<rect x="1.75" y="113.75" width="112" height="182" transform="rotate(-90 1.75 113.75)" fill="#634D8B"/>
<rect x="1.75" y="113.75" width="112" height="182" transform="rotate(-90 1.75 113.75)" stroke="black" stroke-width="3.5"/>
<rect x="1.75" y="113.75" width="112" height="42" transform="rotate(-90 1.75 113.75)" fill="#1FB25A" stroke="black" stroke-width="3.5"/>
<path d="M63.624 97.0912V97.0652L72.503 92.2552L72.958 94.5042L71.047 95.4142V98.8072L72.958 99.7042L72.503 101.849L63.624 97.0912ZM69.396 98.2742V95.9082L67.212 97.0912L69.396 98.2742ZM63.624 91.6417L68.356 89.9257V89.8997L63.624 88.1577L64.053 85.9217L72.958 89.9777V90.0037L64.053 93.8907L63.624 91.6417ZM63.832 80.18L65.717 79.79V83.014H67.264V80.713H69.149V83.014H70.865V79.517L72.75 80.063V85.224H63.832V80.18ZM63.624 78.373V78.347L68.616 72.51H63.832L63.624 70.3H72.958V70.326L67.862 76.163H72.646L72.854 78.373H63.624ZM69.24 66.4042C69.786 66.4042 70.2063 66.2959 70.501 66.0792C70.787 65.8539 70.93 65.4985 70.93 65.0132C70.93 64.7792 70.904 64.5669 70.852 64.3762C70.7913 64.1855 70.6873 64.0209 70.54 63.8822C70.384 63.7349 70.1717 63.6222 69.903 63.5442C69.6343 63.4662 69.2877 63.4272 68.863 63.4272H63.832L63.624 61.2172H69.695C70.215 61.2172 70.6787 61.3169 71.086 61.5162C71.4933 61.7155 71.8357 61.9929 72.113 62.3482C72.3903 62.6949 72.6027 63.1022 72.75 63.5702C72.8887 64.0382 72.958 64.5409 72.958 65.0782C72.958 66.2309 72.685 67.1105 72.139 67.7172C71.5843 68.3152 70.8217 68.6142 69.851 68.6142H63.832L63.624 66.4042H69.24ZM63.832 54.4573L65.717 54.0673V57.2913H67.264V54.9903H69.149V57.2913H70.865V53.7943L72.75 54.3403V59.5013H63.832V54.4573ZM63.832 45.4831C63.832 44.8591 63.949 44.2698 64.183 43.7151C64.4083 43.1605 64.7203 42.6795 65.119 42.2721C65.5177 41.8561 65.99 41.5311 66.536 41.2971C67.082 41.0545 67.667 40.9331 68.291 40.9331C68.941 40.9331 69.539 41.0588 70.085 41.3101C70.631 41.5615 71.1033 41.8951 71.502 42.3111C71.892 42.7271 72.1997 43.2081 72.425 43.7541C72.6417 44.3001 72.75 44.8721 72.75 45.4701L72.75 48.6031H63.832V45.4831ZM70.865 46.3931V45.7301C70.865 45.3835 70.8 45.0541 70.67 44.7421C70.54 44.4301 70.358 44.1571 70.124 43.9231C69.89 43.6805 69.617 43.4898 69.305 43.3511C68.993 43.2125 68.655 43.1431 68.291 43.1431C67.953 43.1431 67.6323 43.2081 67.329 43.3381C67.017 43.4681 66.744 43.6501 66.51 43.8841C66.2673 44.1095 66.0767 44.3825 65.938 44.7031C65.7907 45.0151 65.717 45.3531 65.717 45.7171V46.3931H70.865ZM63.832 34.4982L65.717 34.1082V37.3322H67.264V35.0312H69.149V37.3322H70.865V33.8352L72.75 34.3812V39.5422H63.832V34.4982ZM70.722 26.4341V23.5091L72.75 24.0941V28.6441H63.832L63.624 26.4341H70.722ZM63.624 18.8637V18.8377L72.503 14.0277L72.958 16.2767L71.047 17.1867V20.5797L72.958 21.4767L72.503 23.6217L63.624 18.8637ZM69.396 20.0467V17.6807L67.212 18.8637L69.396 20.0467ZM78.832 67.2377C78.832 66.1284 79.0313 65.2747 79.43 64.6767C79.82 64.07 80.4007 63.7667 81.172 63.7667C81.614 63.7667 81.9997 63.875 82.329 64.0917C82.6583 64.3084 82.8967 64.59 83.044 64.9367H83.07C83.226 64.538 83.4947 64.2 83.876 63.9227C84.2573 63.6454 84.721 63.5067 85.267 63.5067C86.073 63.5067 86.6883 63.797 87.113 64.3777C87.5377 64.9497 87.75 65.7167 87.75 66.6787V69.7857H78.832V67.2377ZM82.381 67.5757V67.0037C82.381 66.657 82.2987 66.4014 82.134 66.2367C81.9607 66.0634 81.7353 65.9767 81.458 65.9767C81.25 65.9767 81.068 66.0417 80.912 66.1717C80.8167 66.2497 80.7387 66.3667 80.678 66.5227C80.6173 66.67 80.587 66.891 80.587 67.1857V67.5757H82.381ZM85.995 67.5757V67.1337C85.995 66.7177 85.9517 66.41 85.865 66.2107C85.7783 66.0114 85.6657 65.8814 85.527 65.8207C85.3883 65.7514 85.241 65.7167 85.085 65.7167C84.7903 65.7167 84.5607 65.8034 84.396 65.9767C84.2227 66.15 84.136 66.488 84.136 66.9907V67.5757H85.995ZM78.832 59.0001C78.832 58.3761 78.949 57.7867 79.183 57.2321C79.4083 56.6774 79.7203 56.1964 80.119 55.7891C80.5177 55.3731 80.99 55.0481 81.536 54.8141C82.082 54.5714 82.667 54.4501 83.291 54.4501C83.941 54.4501 84.539 54.5757 85.085 54.8271C85.631 55.0784 86.1033 55.4121 86.502 55.8281C86.892 56.2441 87.1997 56.7251 87.425 57.2711C87.6417 57.8171 87.75 58.3891 87.75 58.9871V62.1201H78.832V59.0001ZM85.865 59.9101V59.2471C85.865 58.9004 85.8 58.5711 85.67 58.2591C85.54 57.9471 85.358 57.6741 85.124 57.4401C84.89 57.1974 84.617 57.0067 84.305 56.8681C83.993 56.7294 83.655 56.6601 83.291 56.6601C82.953 56.6601 82.6323 56.7251 82.329 56.8551C82.017 56.9851 81.744 57.1671 81.51 57.4011C81.2673 57.6264 81.0767 57.8994 80.938 58.2201C80.7907 58.5321 80.717 58.8701 80.717 59.2341V59.9101H85.865ZM78.832 49.9392C78.832 49.3152 78.949 48.7259 79.183 48.1712C79.4083 47.6165 79.7203 47.1355 80.119 46.7282C80.5177 46.3122 80.99 45.9872 81.536 45.7532C82.082 45.5105 82.667 45.3892 83.291 45.3892C83.941 45.3892 84.539 45.5149 85.085 45.7662C85.631 46.0175 86.1033 46.3512 86.502 46.7672C86.892 47.1832 87.1997 47.6642 87.425 48.2102C87.6417 48.7562 87.75 49.3282 87.75 49.9262V53.0592H78.832V49.9392ZM85.865 50.8492V50.1862C85.865 49.8395 85.8 49.5102 85.67 49.1982C85.54 48.8862 85.358 48.6132 85.124 48.3792C84.89 48.1365 84.617 47.9459 84.305 47.8072C83.993 47.6685 83.655 47.5992 83.291 47.5992C82.953 47.5992 82.6323 47.6642 82.329 47.7942C82.017 47.9242 81.744 48.1062 81.51 48.3402C81.2673 48.5655 81.0767 48.8385 80.938 49.1592C80.7907 49.4712 80.717 49.8092 80.717 50.1732V50.8492H85.865Z" fill="white"/>
<path d="M161.276 66.0628C161.103 66.2275 160.955 66.4311 160.834 66.6738C160.704 66.9165 160.639 67.1851 160.639 67.4798C160.639 67.9218 160.747 68.2815 160.964 68.5588C161.172 68.8275 161.428 69.0355 161.731 69.1828V67.1938L162.901 67.4278V69.4948L163.538 69.5078V67.5578L164.708 67.7788V69.2868C165.081 69.1481 165.38 68.9358 165.605 68.6498C165.83 68.3551 165.943 67.9695 165.943 67.4928C165.943 67.2848 165.887 67.0421 165.774 66.7648C165.653 66.4788 165.488 66.2318 165.28 66.0238L167.633 66.2448C167.754 66.4181 167.837 66.6348 167.88 66.8948C167.932 67.1461 167.958 67.3845 167.958 67.6098C167.958 68.0691 167.889 68.5068 167.75 68.9228C167.603 69.3301 167.39 69.6985 167.113 70.0278C166.836 70.3571 166.498 70.6431 166.099 70.8858C165.692 71.1285 165.228 71.3105 164.708 71.4318V72.6018L163.538 72.3808V71.5878L162.901 71.5748V72.6018L161.731 72.3678V71.3798C160.734 71.1025 159.967 70.6301 159.43 69.9628C158.893 69.2955 158.624 68.5198 158.624 67.6358C158.624 67.4538 158.646 67.2545 158.689 67.0378C158.732 66.8125 158.806 66.6001 158.91 66.4008L161.276 66.0628Z" fill="white"/>
<path d="M158.832 57.517H163.759V56.295L165.579 56.62V57.517H167.75L167.958 59.61H165.579V63.237L158.832 60.39V57.517ZM163.759 60.728V59.454H160.717V59.48L163.759 60.728ZM163.291 48.7334C163.976 48.7334 164.604 48.8027 165.176 48.9414C165.748 49.0714 166.242 49.275 166.658 49.5524C167.065 49.821 167.386 50.1634 167.62 50.5794C167.845 50.9954 167.958 51.485 167.958 52.0484C167.958 52.603 167.845 53.084 167.62 53.4914C167.386 53.8987 167.065 54.241 166.658 54.5184C166.251 54.787 165.761 54.9907 165.189 55.1294C164.617 55.2594 163.984 55.3244 163.291 55.3244C162.598 55.3244 161.965 55.2594 161.393 55.1294C160.821 54.9907 160.331 54.787 159.924 54.5184C159.508 54.241 159.187 53.8987 158.962 53.4914C158.737 53.084 158.624 52.603 158.624 52.0484C158.624 51.4937 158.737 51.0084 158.962 50.5924C159.187 50.1764 159.508 49.8297 159.924 49.5524C160.331 49.275 160.821 49.0714 161.393 48.9414C161.965 48.8027 162.598 48.7334 163.291 48.7334ZM165.956 52.0484C165.956 51.6497 165.739 51.3464 165.306 51.1384C164.873 50.9304 164.201 50.8264 163.291 50.8264C162.381 50.8264 161.709 50.9304 161.276 51.1384C160.843 51.3377 160.626 51.6454 160.626 52.0614C160.626 52.8414 161.514 53.2314 163.291 53.2314C164.227 53.2314 164.907 53.1317 165.332 52.9324C165.748 52.733 165.956 52.4384 165.956 52.0484ZM163.291 41.1197C163.976 41.1197 164.604 41.1891 165.176 41.3277C165.748 41.4577 166.242 41.6614 166.658 41.9387C167.065 42.2074 167.386 42.5497 167.62 42.9657C167.845 43.3817 167.958 43.8714 167.958 44.4347C167.958 44.9894 167.845 45.4704 167.62 45.8777C167.386 46.2851 167.065 46.6274 166.658 46.9047C166.251 47.1734 165.761 47.3771 165.189 47.5157C164.617 47.6457 163.984 47.7107 163.291 47.7107C162.598 47.7107 161.965 47.6457 161.393 47.5157C160.821 47.3771 160.331 47.1734 159.924 46.9047C159.508 46.6274 159.187 46.2851 158.962 45.8777C158.737 45.4704 158.624 44.9894 158.624 44.4347C158.624 43.8801 158.737 43.3947 158.962 42.9787C159.187 42.5627 159.508 42.2161 159.924 41.9387C160.331 41.6614 160.821 41.4577 161.393 41.3277C161.965 41.1891 162.598 41.1197 163.291 41.1197ZM165.956 44.4347C165.956 44.0361 165.739 43.7327 165.306 43.5247C164.873 43.3167 164.201 43.2127 163.291 43.2127C162.381 43.2127 161.709 43.3167 161.276 43.5247C160.843 43.7241 160.626 44.0317 160.626 44.4477C160.626 45.2277 161.514 45.6177 163.291 45.6177C164.227 45.6177 164.907 45.5181 165.332 45.3187C165.748 45.1194 165.956 44.8247 165.956 44.4347Z" fill="white"/>
</svg>
