<svg width="116" height="186" viewBox="0 0 116 186" fill="none" xmlns="http://www.w3.org/2000/svg">
<rect x="1.75" y="1.75" width="112" height="182" fill="#634D8B"/>
<rect x="1.75" y="1.75" width="112" height="182" stroke="black" stroke-width="3.5"/>
<rect x="1.75" y="1.75" width="112" height="42" fill="#AAE0FA" stroke="black" stroke-width="3.5"/>
<path d="M38.201 63.624H38.227L43.037 72.503L40.788 72.958L39.878 71.047H36.485L35.588 72.958L33.443 72.503L38.201 63.624ZM37.018 69.396H39.384L38.201 67.212L37.018 69.396ZM43.6506 63.624L45.3666 68.356H45.3926L47.1346 63.624L49.3706 64.053L45.3146 72.958H45.2886L41.4016 64.053L43.6506 63.624ZM55.1122 63.832L55.5022 65.717H52.2782V67.264H54.5792V69.149H52.2782V70.865H55.7752L55.2292 72.75H50.0682V63.832H55.1122ZM56.9192 63.624H56.9452L62.7822 68.616V63.832L64.9922 63.624V72.958H64.9662L59.1292 67.862V72.646L56.9192 72.854V63.624ZM68.8881 69.24C68.8881 69.786 68.9964 70.2063 69.2131 70.501C69.4384 70.787 69.7937 70.93 70.2791 70.93C70.5131 70.93 70.7254 70.904 70.9161 70.852C71.1067 70.7913 71.2714 70.6873 71.4101 70.54C71.5574 70.384 71.6701 70.1717 71.7481 69.903C71.8261 69.6343 71.8651 69.2877 71.8651 68.863V63.832L74.0751 63.624V69.695C74.0751 70.215 73.9754 70.6787 73.7761 71.086C73.5767 71.4933 73.2994 71.8357 72.9441 72.113C72.5974 72.3903 72.1901 72.6027 71.7221 72.75C71.2541 72.8887 70.7514 72.958 70.2141 72.958C69.0614 72.958 68.1817 72.685 67.5751 72.139C66.9771 71.5843 66.6781 70.8217 66.6781 69.851V63.832L68.8881 63.624V69.24ZM80.835 63.832L81.225 65.717H78.001V67.264H80.302V69.149H78.001V70.865H81.498L80.952 72.75H75.791V63.832H80.835ZM24.0949 87.958C23.9563 87.958 23.8133 87.9537 23.6659 87.945C23.5273 87.9363 23.3929 87.9103 23.2629 87.867L22.7299 85.657C22.8773 85.7177 23.0333 85.761 23.1979 85.787C23.3626 85.8043 23.5273 85.813 23.6919 85.813C24.1686 85.813 24.5109 85.7003 24.7189 85.475C24.9269 85.241 25.0309 84.8293 25.0309 84.24V78.832L27.2409 78.624V84.669C27.2409 85.163 27.1716 85.6137 27.0329 86.021C26.8943 86.4197 26.6906 86.762 26.4219 87.048C26.1619 87.334 25.8326 87.5593 25.4339 87.724C25.0439 87.88 24.5976 87.958 24.0949 87.958ZM32.6187 78.624H32.6447L37.4547 87.503L35.2057 87.958L34.2957 86.047H30.9027L30.0057 87.958L27.8607 87.503L32.6187 78.624ZM31.4357 84.396H33.8017L32.6187 82.212L31.4357 84.396ZM38.0682 78.624L39.7842 83.356H39.8102L41.5522 78.624L43.7882 79.053L39.7322 87.958H39.7062L35.8192 79.053L38.0682 78.624ZM46.9065 78.624H46.9325L51.7425 87.503L49.4935 87.958L48.5835 86.047H45.1905L44.2935 87.958L42.1485 87.503L46.9065 78.624ZM45.7235 84.396H48.0895L46.9065 82.212L45.7235 84.396ZM57.0984 81.185C56.821 80.9337 56.5654 80.7603 56.3314 80.665C56.0974 80.561 55.8677 80.509 55.6424 80.509C55.339 80.509 55.079 80.5697 54.8624 80.691C54.6457 80.8123 54.5374 80.9857 54.5374 81.211C54.5374 81.3497 54.572 81.471 54.6414 81.575C54.7194 81.6703 54.8234 81.757 54.9534 81.835C55.0834 81.9043 55.235 81.9693 55.4084 82.03C55.5817 82.0907 55.7637 82.1513 55.9544 82.212C56.2404 82.3073 56.535 82.4157 56.8384 82.537C57.1504 82.6497 57.4277 82.8057 57.6704 83.005C57.9217 83.2043 58.1254 83.4643 58.2814 83.785C58.446 84.097 58.5284 84.4957 58.5284 84.981C58.5284 85.4923 58.433 85.9343 58.2424 86.307C58.0604 86.6797 57.809 86.9917 57.4884 87.243C57.1764 87.4857 56.8124 87.6633 56.3964 87.776C55.989 87.8973 55.56 87.958 55.1094 87.958C54.5287 87.958 53.9697 87.8713 53.4324 87.698C52.9037 87.5247 52.4314 87.2603 52.0154 86.905L53.3414 85.215C53.532 85.4403 53.7747 85.618 54.0694 85.748C54.364 85.8693 54.663 85.93 54.9664 85.93C55.2957 85.93 55.5817 85.8607 55.8244 85.722C56.067 85.5833 56.1884 85.3883 56.1884 85.137C56.1884 84.9723 56.1364 84.838 56.0324 84.734C55.9284 84.6213 55.7897 84.526 55.6164 84.448C55.4517 84.3613 55.2567 84.2833 55.0314 84.214C54.806 84.1447 54.5764 84.071 54.3424 83.993C54.0824 83.9063 53.8224 83.798 53.5624 83.668C53.311 83.538 53.0814 83.3733 52.8734 83.174C52.674 82.9747 52.5094 82.732 52.3794 82.446C52.258 82.1513 52.1974 81.796 52.1974 81.38C52.1974 80.964 52.284 80.587 52.4574 80.249C52.6307 79.911 52.8647 79.625 53.1594 79.391C53.454 79.1483 53.7964 78.962 54.1864 78.832C54.585 78.6933 55.0054 78.624 55.4474 78.624C55.9674 78.624 56.4744 78.715 56.9684 78.897C57.4624 79.0703 57.9087 79.3217 58.3074 79.651L57.0984 81.185ZM65.986 81.289C65.7433 81.1157 65.4877 80.9683 65.219 80.847C64.9503 80.717 64.6643 80.652 64.361 80.652C63.9883 80.652 63.6417 80.717 63.321 80.847C63.009 80.9683 62.7403 81.146 62.515 81.38C62.2897 81.6053 62.112 81.8783 61.982 82.199C61.852 82.5197 61.787 82.875 61.787 83.265C61.787 83.6637 61.8477 84.0277 61.969 84.357C62.099 84.6777 62.2767 84.955 62.502 85.189C62.7273 85.423 62.996 85.605 63.308 85.735C63.6287 85.865 63.9797 85.93 64.361 85.93C64.6643 85.93 64.9547 85.865 65.232 85.735C65.518 85.5963 65.7867 85.4403 66.038 85.267L65.765 87.633C65.6783 87.685 65.5657 87.7283 65.427 87.763C65.2883 87.8063 65.141 87.841 64.985 87.867C64.8377 87.893 64.6903 87.9147 64.543 87.932C64.4043 87.9493 64.2917 87.958 64.205 87.958C63.529 87.958 62.905 87.8453 62.333 87.62C61.7697 87.3947 61.28 87.0783 60.864 86.671C60.4567 86.2637 60.1403 85.7783 59.915 85.215C59.6897 84.643 59.577 84.0103 59.577 83.317C59.577 82.6583 59.6897 82.043 59.915 81.471C60.1403 80.899 60.4567 80.4007 60.864 79.976C61.2713 79.5513 61.7567 79.222 62.32 78.988C62.892 78.7453 63.516 78.624 64.192 78.624C64.452 78.624 64.7033 78.6457 64.946 78.689C65.1887 78.7323 65.4227 78.806 65.648 78.91L65.986 81.289ZM69.9336 78.832C71.069 78.832 71.9443 79.0573 72.5596 79.508C73.175 79.9587 73.4826 80.652 73.4826 81.588C73.4826 81.8393 73.448 82.0863 73.3786 82.329C73.3093 82.563 73.2096 82.7797 73.0796 82.979C72.9496 83.1783 72.7936 83.356 72.6116 83.512C72.4383 83.6593 72.2476 83.772 72.0396 83.85L74.4446 87.243L72.2086 87.958L69.6086 83.746H69.5826V87.646L67.3726 87.854V78.832H69.9336ZM69.5826 83.213C69.626 83.2217 69.6693 83.226 69.7126 83.226C69.756 83.226 69.7993 83.226 69.8426 83.226C70.016 83.226 70.1893 83.2087 70.3626 83.174C70.536 83.1307 70.6876 83.0613 70.8176 82.966C70.9563 82.862 71.0646 82.7277 71.1426 82.563C71.2293 82.3897 71.2726 82.173 71.2726 81.913C71.2726 81.601 71.1903 81.3367 71.0256 81.12C70.8696 80.9033 70.575 80.7733 70.1416 80.73C70.055 80.7213 69.964 80.717 69.8686 80.717C69.782 80.717 69.6866 80.717 69.5826 80.717V83.213ZM77.4173 87.646L75.2073 87.854V78.832L77.4173 78.624V87.646ZM81.9194 78.832C83.1154 78.832 84.0081 79.0573 84.5974 79.508C85.1868 79.9587 85.4814 80.6867 85.4814 81.692C85.4814 82.134 85.3948 82.5283 85.2214 82.875C85.0481 83.2217 84.8098 83.5207 84.5064 83.772C84.2118 84.0147 83.8608 84.201 83.4534 84.331C83.0548 84.461 82.6301 84.526 82.1794 84.526H81.3734V87.646L79.1634 87.854V78.832H81.9194ZM81.3734 82.641H82.0234C82.4134 82.641 82.7168 82.5587 82.9334 82.394C83.1588 82.2293 83.2714 81.991 83.2714 81.679C83.2714 81.367 83.1588 81.1287 82.9334 80.964C82.7168 80.7993 82.4134 80.717 82.0234 80.717H81.3734V82.641ZM92.6271 78.832V80.86H90.4821V87.646L88.2721 87.854V80.86H85.9841L86.5431 78.832H92.6271Z" fill="white"/>
<path d="M49.4372 161.276C49.2725 161.103 49.0689 160.955 48.8262 160.834C48.5835 160.704 48.3149 160.639 48.0202 160.639C47.5782 160.639 47.2185 160.747 46.9412 160.964C46.6725 161.172 46.4645 161.428 46.3172 161.731H48.3062L48.0722 162.901H46.0052L45.9922 163.538H47.9422L47.7212 164.708H46.2132C46.3519 165.081 46.5642 165.38 46.8502 165.605C47.1449 165.83 47.5305 165.943 48.0072 165.943C48.2152 165.943 48.4579 165.887 48.7352 165.774C49.0212 165.653 49.2682 165.488 49.4762 165.28L49.2552 167.633C49.0819 167.754 48.8652 167.837 48.6052 167.88C48.3539 167.932 48.1155 167.958 47.8902 167.958C47.4309 167.958 46.9932 167.889 46.5772 167.75C46.1699 167.603 45.8015 167.39 45.4722 167.113C45.1429 166.836 44.8569 166.498 44.6142 166.099C44.3715 165.692 44.1895 165.228 44.0682 164.708H42.8982L43.1192 163.538H43.9122L43.9252 162.901H42.8982L43.1322 161.731H44.1202C44.3975 160.734 44.8699 159.967 45.5372 159.43C46.2045 158.893 46.9802 158.624 47.8642 158.624C48.0462 158.624 48.2455 158.646 48.4622 158.689C48.6875 158.732 48.8999 158.806 49.0992 158.91L49.4372 161.276Z" fill="white"/>
<path d="M57.32 158.624V167.75L55.227 167.958V161.887L53.719 162.615L52.978 161.328L57.32 158.624ZM66.8446 158.832L63.9846 167.646L61.4626 167.958L63.9716 160.834H60.3186L60.8256 158.832H66.8446ZM73.6263 158.832L73.1193 160.834H70.5843V161.614C70.7749 161.588 70.9396 161.575 71.0783 161.575C71.5289 161.575 71.9449 161.657 72.3263 161.822C72.7076 161.978 73.0326 162.195 73.3013 162.472C73.5786 162.749 73.7909 163.079 73.9383 163.46C74.0943 163.833 74.1723 164.24 74.1723 164.682C74.1723 165.176 74.0813 165.627 73.8993 166.034C73.7173 166.433 73.4616 166.775 73.1323 167.061C72.8116 167.347 72.4303 167.568 71.9883 167.724C71.5549 167.88 71.0869 167.958 70.5843 167.958C69.9863 167.958 69.4273 167.863 68.9073 167.672C68.3959 167.481 67.9323 167.178 67.5163 166.762L69.0633 165.189C69.2366 165.458 69.4576 165.653 69.7263 165.774C70.0036 165.895 70.2939 165.956 70.5973 165.956C70.7706 165.956 70.9353 165.926 71.0913 165.865C71.2473 165.796 71.3859 165.7 71.5073 165.579C71.6286 165.449 71.7239 165.302 71.7933 165.137C71.8626 164.964 71.8973 164.773 71.8973 164.565C71.8973 164.166 71.7413 163.85 71.4293 163.616C71.1259 163.382 70.7273 163.265 70.2333 163.265C69.9299 163.265 69.6309 163.3 69.3363 163.369C69.0503 163.43 68.7686 163.512 68.4913 163.616V158.832H73.6263Z" fill="white"/>
</svg>
