<svg width="116" height="186" viewBox="0 0 116 186" fill="none" xmlns="http://www.w3.org/2000/svg">
<rect x="113.75" y="183.75" width="112" height="182" transform="rotate(180 113.75 183.75)" fill="#634D8B"/>
<rect x="113.75" y="183.75" width="112" height="182" transform="rotate(180 113.75 183.75)" stroke="black" stroke-width="3.5"/>
<rect x="113.75" y="183.75" width="112" height="42" transform="rotate(180 113.75 183.75)" fill="#F11C26" stroke="black" stroke-width="3.5"/>
<path d="M88.5589 121.876H88.5329L83.7229 112.997L85.9719 112.542L86.8819 114.453H90.2749L91.1719 112.542L93.3169 112.997L88.5589 121.876ZM89.7419 116.104H87.3759L88.5589 118.288L89.7419 116.104ZM83.1094 121.876L81.3934 117.144H81.3674L79.6254 121.876L77.3894 121.447L81.4454 112.542H81.4714L85.3584 121.447L83.1094 121.876ZM71.6478 121.668L71.2578 119.783H74.4818V118.236H72.1808V116.351H74.4818V114.635H70.9848L71.5308 112.75H76.6918V121.668H71.6478ZM69.8408 121.876H69.8148L63.9778 116.884V121.668L61.7678 121.876V112.542H61.7938L67.6308 117.638V112.854L69.8408 112.646V121.876ZM57.8719 116.26C57.8719 115.714 57.7636 115.294 57.5469 114.999C57.3216 114.713 56.9663 114.57 56.4809 114.57C56.2469 114.57 56.0346 114.596 55.8439 114.648C55.6533 114.709 55.4886 114.813 55.3499 114.96C55.2026 115.116 55.0899 115.328 55.0119 115.597C54.9339 115.866 54.8949 116.212 54.8949 116.637V121.668L52.6849 121.876V115.805C52.6849 115.285 52.7846 114.821 52.9839 114.414C53.1833 114.007 53.4606 113.664 53.8159 113.387C54.1626 113.11 54.5699 112.897 55.0379 112.75C55.5059 112.611 56.0086 112.542 56.5459 112.542C57.6986 112.542 58.5783 112.815 59.1849 113.361C59.7829 113.916 60.0819 114.678 60.0819 115.649V121.668L57.8719 121.876V116.26ZM45.925 121.668L45.535 119.783H48.759V118.236H46.458V116.351H48.759V114.635H45.262L45.808 112.75H50.969V121.668H45.925ZM36.9509 121.668C36.3269 121.668 35.7375 121.551 35.1829 121.317C34.6282 121.092 34.1472 120.78 33.7399 120.381C33.3239 119.982 32.9989 119.51 32.7649 118.964C32.5222 118.418 32.4009 117.833 32.4009 117.209C32.4009 116.559 32.5265 115.961 32.7779 115.415C33.0292 114.869 33.3629 114.397 33.7789 113.998C34.1949 113.608 34.6759 113.3 35.2219 113.075C35.7679 112.858 36.3399 112.75 36.9379 112.75H40.0709V121.668H36.9509ZM37.8609 114.635H37.1979C36.8512 114.635 36.5219 114.7 36.2099 114.83C35.8979 114.96 35.6249 115.142 35.3909 115.376C35.1482 115.61 34.9575 115.883 34.8189 116.195C34.6802 116.507 34.6109 116.845 34.6109 117.209C34.6109 117.547 34.6759 117.868 34.8059 118.171C34.9359 118.483 35.1179 118.756 35.3519 118.99C35.5772 119.233 35.8502 119.423 36.1709 119.562C36.4829 119.709 36.8209 119.783 37.1849 119.783H37.8609V114.635ZM28.852 116.26C28.852 115.714 28.7436 115.294 28.527 114.999C28.3016 114.713 27.9463 114.57 27.461 114.57C27.227 114.57 27.0146 114.596 26.824 114.648C26.6333 114.709 26.4686 114.813 26.33 114.96C26.1826 115.116 26.07 115.328 25.992 115.597C25.914 115.866 25.875 116.212 25.875 116.637V121.668L23.665 121.876V115.805C23.665 115.285 23.7646 114.821 23.964 114.414C24.1633 114.007 24.4406 113.664 24.796 113.387C25.1426 113.11 25.55 112.897 26.018 112.75C26.486 112.611 26.9886 112.542 27.526 112.542C28.6786 112.542 29.5583 112.815 30.165 113.361C30.763 113.916 31.062 114.678 31.062 115.649V121.668L28.852 121.876V116.26ZM84.6394 106.876H84.6134L81.8054 101.416L78.9064 106.876H78.8804L76.5144 97.854L78.7374 97.542L79.5044 101.832H79.5304L81.8704 97.542H81.8964L84.0284 101.819H84.0544L84.8214 97.542L87.0834 97.854L84.6394 106.876ZM72.0512 106.876H72.0252L67.2152 97.997L69.4642 97.542L70.3742 99.453H73.7672L74.6642 97.542L76.8092 97.997L72.0512 106.876ZM73.2342 101.104H70.8682L72.0512 103.288L73.2342 101.104ZM64.3943 99.778H61.4693L62.0543 97.75H66.6043V106.668L64.3943 106.876V99.778ZM59.9399 106.876L58.6659 102.326L56.4169 106.876L54.2069 102.261L52.8549 106.876L50.7099 106.616L53.8949 97.542H53.9469L56.3909 102.911L59.0169 97.542H59.0559L62.1239 106.616L59.9399 106.876ZM47.5091 106.876H47.4831L42.6731 97.997L44.9221 97.542L45.8321 99.453H49.2251L50.1221 97.542L52.2671 97.997L47.5091 106.876ZM48.6921 101.104H46.3261L47.5091 103.288L48.6921 101.104ZM39.7093 106.668C38.5739 106.668 37.6986 106.443 37.0833 105.992C36.4679 105.541 36.1603 104.848 36.1603 103.912C36.1603 103.661 36.1949 103.414 36.2643 103.171C36.3336 102.937 36.4333 102.72 36.5633 102.521C36.6933 102.322 36.8493 102.144 37.0313 101.988C37.2046 101.841 37.3953 101.728 37.6033 101.65L35.1983 98.257L37.4343 97.542L40.0343 101.754H40.0603V97.854L42.2703 97.646V106.668H39.7093ZM40.0603 102.287C40.0169 102.278 39.9736 102.274 39.9303 102.274C39.8869 102.274 39.8436 102.274 39.8003 102.274C39.6269 102.274 39.4536 102.291 39.2803 102.326C39.1069 102.369 38.9553 102.439 38.8253 102.534C38.6866 102.638 38.5783 102.772 38.5003 102.937C38.4136 103.11 38.3703 103.327 38.3703 103.587C38.3703 103.899 38.4526 104.163 38.6173 104.38C38.7733 104.597 39.0679 104.727 39.5013 104.77C39.5879 104.779 39.6789 104.783 39.7743 104.783C39.8609 104.783 39.9563 104.783 40.0603 104.783V102.287ZM29.4046 106.668L29.0146 104.783H32.2386V103.236H29.9376V101.351H32.2386V99.635H28.7416L29.2876 97.75H34.4486V106.668H29.4046Z" fill="white"/>
<path d="M66.0628 24.224C66.2275 24.3973 66.4311 24.5447 66.6738 24.666C66.9165 24.796 67.1851 24.861 67.4798 24.861C67.9218 24.861 68.2815 24.7527 68.5588 24.536C68.8275 24.328 69.0355 24.0723 69.1828 23.769H67.1938L67.4278 22.599H69.4948L69.5078 21.962H67.5578L67.7788 20.792H69.2868C69.1481 20.4193 68.9358 20.1203 68.6498 19.895C68.3551 19.6697 67.9695 19.557 67.4928 19.557C67.2848 19.557 67.0421 19.6133 66.7648 19.726C66.4788 19.8473 66.2318 20.012 66.0238 20.22L66.2448 17.867C66.4181 17.7457 66.6348 17.6633 66.8948 17.62C67.1461 17.568 67.3845 17.542 67.6098 17.542C68.0691 17.542 68.5068 17.6113 68.9228 17.75C69.3301 17.8973 69.6985 18.1097 70.0278 18.387C70.3571 18.6643 70.6431 19.0023 70.8858 19.401C71.1285 19.8083 71.3105 20.272 71.4318 20.792H72.6018L72.3808 21.962H71.5878L71.5748 22.599H72.6018L72.3678 23.769H71.3798C71.1025 24.7657 70.6301 25.5327 69.9628 26.07C69.2955 26.6073 68.5198 26.876 67.6358 26.876C67.4538 26.876 67.2545 26.8543 67.0378 26.811C66.8125 26.7677 66.6001 26.694 66.4008 26.59L66.0628 24.224Z" fill="white"/>
<path d="M56.906 24.263C56.906 23.873 56.9797 23.5437 57.127 23.275C57.2657 23.0063 57.478 22.7463 57.764 22.495C57.374 22.2957 57.0663 22.0053 56.841 21.624C56.6157 21.2513 56.503 20.844 56.503 20.402C56.503 19.9427 56.5897 19.5353 56.763 19.18C56.9363 18.8333 57.179 18.5343 57.491 18.283C57.7943 18.0403 58.1627 17.8583 58.596 17.737C59.0207 17.607 59.4887 17.542 60 17.542C60.5807 17.542 61.144 17.6677 61.69 17.919C62.2273 18.179 62.691 18.53 63.081 18.972L61.612 20.454C61.3867 20.168 61.157 19.9427 60.923 19.778C60.6803 19.622 60.377 19.544 60.013 19.544C59.623 19.544 59.3197 19.6393 59.103 19.83C58.8863 20.0293 58.778 20.298 58.778 20.636C58.778 21.078 58.999 21.3597 59.441 21.481C59.5537 21.5157 59.6793 21.533 59.818 21.533C59.9567 21.5417 60.1083 21.546 60.273 21.546H60.923V23.106H60.39C60.1907 23.106 60.0087 23.119 59.844 23.145C59.6707 23.171 59.5233 23.2187 59.402 23.288C59.272 23.366 59.1723 23.4657 59.103 23.587C59.0337 23.7083 58.999 23.86 58.999 24.042C58.999 24.406 59.1117 24.666 59.337 24.822C59.5623 24.978 59.818 25.056 60.104 25.056C60.416 25.056 60.6717 24.9737 60.871 24.809C61.0703 24.653 61.2783 24.4797 61.495 24.289L63.042 25.173C62.678 25.745 62.21 26.1697 61.638 26.447C61.066 26.733 60.455 26.876 59.805 26.876C59.3803 26.876 58.9903 26.811 58.635 26.681C58.2797 26.551 57.9763 26.369 57.725 26.135C57.465 25.9097 57.2657 25.6367 57.127 25.316C56.9797 24.9953 56.906 24.6443 56.906 24.263ZM48.7334 22.209C48.7334 21.5243 48.8027 20.896 48.9414 20.324C49.0714 19.752 49.275 19.258 49.5524 18.842C49.821 18.4347 50.1634 18.114 50.5794 17.88C50.9954 17.6547 51.485 17.542 52.0484 17.542C52.603 17.542 53.084 17.6547 53.4914 17.88C53.8987 18.114 54.241 18.4347 54.5184 18.842C54.787 19.2493 54.9907 19.739 55.1294 20.311C55.2594 20.883 55.3244 21.5157 55.3244 22.209C55.3244 22.9023 55.2594 23.535 55.1294 24.107C54.9907 24.679 54.787 25.1687 54.5184 25.576C54.241 25.992 53.8987 26.3127 53.4914 26.538C53.084 26.7633 52.603 26.876 52.0484 26.876C51.4937 26.876 51.0084 26.7633 50.5924 26.538C50.1764 26.3127 49.8297 25.992 49.5524 25.576C49.275 25.1687 49.0714 24.679 48.9414 24.107C48.8027 23.535 48.7334 22.9023 48.7334 22.209ZM52.0484 19.544C51.6497 19.544 51.3464 19.7607 51.1384 20.194C50.9304 20.6273 50.8264 21.299 50.8264 22.209C50.8264 23.119 50.9304 23.7907 51.1384 24.224C51.3377 24.6573 51.6454 24.874 52.0614 24.874C52.8414 24.874 53.2314 23.9857 53.2314 22.209C53.2314 21.273 53.1317 20.5927 52.9324 20.168C52.733 19.752 52.4384 19.544 52.0484 19.544ZM41.1197 22.209C41.1197 21.5243 41.1891 20.896 41.3277 20.324C41.4577 19.752 41.6614 19.258 41.9387 18.842C42.2074 18.4347 42.5497 18.114 42.9657 17.88C43.3817 17.6547 43.8714 17.542 44.4347 17.542C44.9894 17.542 45.4704 17.6547 45.8777 17.88C46.2851 18.114 46.6274 18.4347 46.9047 18.842C47.1734 19.2493 47.3771 19.739 47.5157 20.311C47.6457 20.883 47.7107 21.5157 47.7107 22.209C47.7107 22.9023 47.6457 23.535 47.5157 24.107C47.3771 24.679 47.1734 25.1687 46.9047 25.576C46.6274 25.992 46.2851 26.3127 45.8777 26.538C45.4704 26.7633 44.9894 26.876 44.4347 26.876C43.8801 26.876 43.3947 26.7633 42.9787 26.538C42.5627 26.3127 42.2161 25.992 41.9387 25.576C41.6614 25.1687 41.4577 24.679 41.3277 24.107C41.1891 23.535 41.1197 22.9023 41.1197 22.209ZM44.4347 19.544C44.0361 19.544 43.7327 19.7607 43.5247 20.194C43.3167 20.6273 43.2127 21.299 43.2127 22.209C43.2127 23.119 43.3167 23.7907 43.5247 24.224C43.7241 24.6573 44.0317 24.874 44.4477 24.874C45.2277 24.874 45.6177 23.9857 45.6177 22.209C45.6177 21.273 45.5181 20.5927 45.3187 20.168C45.1194 19.752 44.8247 19.544 44.4347 19.544Z" fill="white"/>
</svg>
