<svg width="116" height="186" viewBox="0 0 116 186" fill="none" xmlns="http://www.w3.org/2000/svg">
<rect x="1.75" y="1.75" width="112" height="182" fill="#634D8B"/>
<rect x="1.75" y="1.75" width="112" height="182" stroke="black" stroke-width="3.5"/>
<rect x="1.75" y="1.75" width="112" height="42" fill="#955235" stroke="black" stroke-width="3.5"/>
<path d="M24.7376 63.832C25.8469 63.832 26.7006 64.0313 27.2986 64.43C27.9053 64.82 28.2086 65.4007 28.2086 66.172C28.2086 66.614 28.1003 66.9997 27.8836 67.329C27.6669 67.6583 27.3853 67.8967 27.0386 68.044V68.07C27.4373 68.226 27.7753 68.4947 28.0526 68.876C28.3299 69.2573 28.4686 69.721 28.4686 70.267C28.4686 71.073 28.1783 71.6883 27.5976 72.113C27.0256 72.5377 26.2586 72.75 25.2966 72.75H22.1896V63.832H24.7376ZM24.3996 67.381H24.9716C25.3183 67.381 25.5739 67.2987 25.7386 67.134C25.9119 66.9607 25.9986 66.7353 25.9986 66.458C25.9986 66.25 25.9336 66.068 25.8036 65.912C25.7256 65.8167 25.6086 65.7387 25.4526 65.678C25.3053 65.6173 25.0843 65.587 24.7896 65.587H24.3996V67.381ZM24.3996 70.995H24.8416C25.2576 70.995 25.5653 70.9517 25.7646 70.865C25.9639 70.7783 26.0939 70.6657 26.1546 70.527C26.2239 70.3883 26.2586 70.241 26.2586 70.085C26.2586 69.7903 26.1719 69.5607 25.9986 69.396C25.8253 69.2227 25.4873 69.136 24.9846 69.136H24.3996V70.995ZM34.2232 72.958C33.5819 72.958 32.9709 72.841 32.3902 72.607C31.8182 72.3643 31.3156 72.035 30.8822 71.619C30.4489 71.1943 30.1022 70.7003 29.8422 70.137C29.5909 69.565 29.4652 68.9497 29.4652 68.291C29.4652 67.6497 29.5909 67.0473 29.8422 66.484C30.0936 65.912 30.4316 65.418 30.8562 65.002C31.2896 64.5773 31.7922 64.2437 32.3642 64.001C32.9449 63.7497 33.5646 63.624 34.2232 63.624C34.8646 63.624 35.4712 63.7453 36.0432 63.988C36.6239 64.222 37.1309 64.5513 37.5642 64.976C37.9976 65.392 38.3399 65.886 38.5912 66.458C38.8512 67.0213 38.9812 67.6323 38.9812 68.291C38.9812 68.9323 38.8556 69.539 38.6042 70.111C38.3529 70.6743 38.0106 71.1683 37.5772 71.593C37.1526 72.0177 36.6499 72.3513 36.0692 72.594C35.4972 72.8367 34.8819 72.958 34.2232 72.958ZM34.2232 70.93C34.5699 70.93 34.8992 70.8563 35.2112 70.709C35.5232 70.5617 35.7919 70.3667 36.0172 70.124C36.2512 69.8813 36.4332 69.5997 36.5632 69.279C36.7019 68.9583 36.7712 68.629 36.7712 68.291C36.7712 67.953 36.7019 67.628 36.5632 67.316C36.4332 66.9953 36.2512 66.7137 36.0172 66.471C35.7919 66.2197 35.5232 66.0203 35.2112 65.873C34.8992 65.7257 34.5656 65.652 34.2102 65.652C33.8636 65.652 33.5342 65.7257 33.2222 65.873C32.9189 66.0203 32.6502 66.2153 32.4162 66.458C32.1909 66.7007 32.0089 66.9823 31.8702 67.303C31.7402 67.615 31.6752 67.9443 31.6752 68.291C31.6752 68.629 31.7402 68.9583 31.8702 69.279C32.0089 69.5997 32.1909 69.8813 32.4162 70.124C32.6502 70.3667 32.9189 70.5617 33.2222 70.709C33.5342 70.8563 33.8679 70.93 34.2232 70.93ZM42.5214 69.24C42.5214 69.786 42.6297 70.2063 42.8464 70.501C43.0717 70.787 43.4271 70.93 43.9124 70.93C44.1464 70.93 44.3587 70.904 44.5494 70.852C44.7401 70.7913 44.9047 70.6873 45.0434 70.54C45.1907 70.384 45.3034 70.1717 45.3814 69.903C45.4594 69.6343 45.4984 69.2877 45.4984 68.863V63.832L47.7084 63.624V69.695C47.7084 70.215 47.6087 70.6787 47.4094 71.086C47.2101 71.4933 46.9327 71.8357 46.5774 72.113C46.2307 72.3903 45.8234 72.6027 45.3554 72.75C44.8874 72.8887 44.3847 72.958 43.8474 72.958C42.6947 72.958 41.8151 72.685 41.2084 72.139C40.6104 71.5843 40.3114 70.8217 40.3114 69.851V63.832L42.5214 63.624V69.24ZM51.6343 70.722H54.5593L53.9743 72.75L49.4243 72.75V63.832L51.6343 63.624V70.722ZM60.6347 63.832L61.0247 65.717H57.8007V67.264H60.1017V69.149H57.8007V70.865H61.2977L60.7517 72.75H55.5907V63.832H60.6347ZM63.6767 63.624L65.3927 68.356H65.4187L67.1607 63.624L69.3967 64.053L65.3407 72.958H65.3147L61.4277 64.053L63.6767 63.624ZM72.515 63.624H72.541L77.351 72.503L75.102 72.958L74.192 71.047H70.799L69.902 72.958L67.757 72.503L72.515 63.624ZM71.332 69.396H73.698L72.515 67.212L71.332 69.396ZM80.3149 63.832C81.4502 63.832 82.3255 64.0573 82.9409 64.508C83.5562 64.9587 83.8639 65.652 83.8639 66.588C83.8639 66.8393 83.8292 67.0863 83.7599 67.329C83.6905 67.563 83.5909 67.7797 83.4609 67.979C83.3309 68.1783 83.1749 68.356 82.9929 68.512C82.8195 68.6593 82.6289 68.772 82.4209 68.85L84.8259 72.243L82.5899 72.958L79.9899 68.746H79.9639V72.646L77.7539 72.854V63.832H80.3149ZM79.9639 68.213C80.0072 68.2217 80.0505 68.226 80.0939 68.226C80.1372 68.226 80.1805 68.226 80.2239 68.226C80.3972 68.226 80.5705 68.2087 80.7439 68.174C80.9172 68.1307 81.0689 68.0613 81.1989 67.966C81.3375 67.862 81.4459 67.7277 81.5239 67.563C81.6105 67.3897 81.6539 67.173 81.6539 66.913C81.6539 66.601 81.5715 66.3367 81.4069 66.12C81.2509 65.9033 80.9562 65.7733 80.5229 65.73C80.4362 65.7213 80.3452 65.717 80.2499 65.717C80.1632 65.717 80.0679 65.717 79.9639 65.717V68.213ZM88.6955 63.832C89.3195 63.832 89.9088 63.949 90.4635 64.183C91.0181 64.4083 91.4991 64.7203 91.9065 65.119C92.3225 65.5177 92.6475 65.99 92.8815 66.536C93.1241 67.082 93.2455 67.667 93.2455 68.291C93.2455 68.941 93.1198 69.539 92.8685 70.085C92.6171 70.631 92.2835 71.1033 91.8675 71.502C91.4515 71.892 90.9705 72.1997 90.4245 72.425C89.8785 72.6417 89.3065 72.75 88.7085 72.75H85.5755V63.832H88.6955ZM87.7855 70.865H88.4485C88.7951 70.865 89.1245 70.8 89.4365 70.67C89.7485 70.54 90.0215 70.358 90.2555 70.124C90.4981 69.89 90.6888 69.617 90.8275 69.305C90.9661 68.993 91.0355 68.655 91.0355 68.291C91.0355 67.953 90.9705 67.6323 90.8405 67.329C90.7105 67.017 90.5285 66.744 90.2945 66.51C90.0691 66.2673 89.7961 66.0767 89.4755 65.938C89.1635 65.7907 88.8255 65.717 88.4615 65.717H87.7855V70.865ZM46.9816 78.624L48.2556 83.174L50.5046 78.624L52.7146 83.239L54.0666 78.624L56.2116 78.884L53.0266 87.958H52.9746L50.5306 82.589L47.9046 87.958H47.8656L44.7976 78.884L46.9816 78.624ZM62.0357 78.832L62.4257 80.717H59.2017L59.2017 82.264H61.5027V84.149H59.2017V85.865H62.6987L62.1527 87.75H56.9917L56.9917 78.832H62.0357ZM66.3777 78.832C67.4871 78.832 68.3407 79.0313 68.9387 79.43C69.5454 79.82 69.8487 80.4007 69.8487 81.172C69.8487 81.614 69.7404 81.9997 69.5237 82.329C69.3071 82.6583 69.0254 82.8967 68.6787 83.044V83.07C69.0774 83.226 69.4154 83.4947 69.6927 83.876C69.9701 84.2573 70.1087 84.721 70.1087 85.267C70.1087 86.073 69.8184 86.6883 69.2377 87.113C68.6657 87.5377 67.8987 87.75 66.9367 87.75H63.8297L63.8297 78.832H66.3777ZM66.0397 82.381H66.6117C66.9584 82.381 67.2141 82.2987 67.3787 82.134C67.5521 81.9607 67.6387 81.7353 67.6387 81.458C67.6387 81.25 67.5737 81.068 67.4437 80.912C67.3657 80.8167 67.2487 80.7387 67.0927 80.678C66.9454 80.6173 66.7244 80.587 66.4297 80.587H66.0397V82.381ZM66.0397 85.995H66.4817C66.8977 85.995 67.2054 85.9517 67.4047 85.865C67.6041 85.7783 67.7341 85.6657 67.7947 85.527C67.8641 85.3883 67.8987 85.241 67.8987 85.085C67.8987 84.7903 67.8121 84.5607 67.6387 84.396C67.4654 84.2227 67.1274 84.136 66.6247 84.136H66.0397V85.995Z" fill="white"/>
<path d="M49.4372 161.276C49.2725 161.103 49.0689 160.955 48.8262 160.834C48.5835 160.704 48.3149 160.639 48.0202 160.639C47.5782 160.639 47.2185 160.747 46.9412 160.964C46.6725 161.172 46.4645 161.428 46.3172 161.731H48.3062L48.0722 162.901H46.0052L45.9922 163.538H47.9422L47.7212 164.708H46.2132C46.3519 165.081 46.5642 165.38 46.8502 165.605C47.1449 165.83 47.5305 165.943 48.0072 165.943C48.2152 165.943 48.4579 165.887 48.7352 165.774C49.0212 165.653 49.2682 165.488 49.4762 165.28L49.2552 167.633C49.0819 167.754 48.8652 167.837 48.6052 167.88C48.3539 167.932 48.1155 167.958 47.8902 167.958C47.4309 167.958 46.9932 167.889 46.5772 167.75C46.1699 167.603 45.8015 167.39 45.4722 167.113C45.1429 166.836 44.8569 166.498 44.6142 166.099C44.3715 165.692 44.1895 165.228 44.0682 164.708H42.8982L43.1192 163.538H43.9122L43.9252 162.901H42.8982L43.1322 161.731H44.1202C44.3975 160.734 44.8699 159.967 45.5372 159.43C46.2045 158.893 46.9802 158.624 47.8642 158.624C48.0462 158.624 48.2455 158.646 48.4622 158.689C48.6875 158.732 48.8999 158.806 49.0992 158.91L49.4372 161.276Z" fill="white"/>
<path d="M57.32 158.624V167.75L55.227 167.958V161.887L53.719 162.615L52.978 161.328L57.32 158.624ZM66.7666 163.291C66.7666 163.976 66.6973 164.604 66.5586 165.176C66.4286 165.748 66.225 166.242 65.9476 166.658C65.679 167.065 65.3366 167.386 64.9206 167.62C64.5046 167.845 64.015 167.958 63.4516 167.958C62.897 167.958 62.416 167.845 62.0086 167.62C61.6013 167.386 61.259 167.065 60.9816 166.658C60.713 166.251 60.5093 165.761 60.3706 165.189C60.2406 164.617 60.1756 163.984 60.1756 163.291C60.1756 162.598 60.2406 161.965 60.3706 161.393C60.5093 160.821 60.713 160.331 60.9816 159.924C61.259 159.508 61.6013 159.187 62.0086 158.962C62.416 158.737 62.897 158.624 63.4516 158.624C64.0063 158.624 64.4916 158.737 64.9076 158.962C65.3236 159.187 65.6703 159.508 65.9476 159.924C66.225 160.331 66.4286 160.821 66.5586 161.393C66.6973 161.965 66.7666 162.598 66.7666 163.291ZM63.4516 165.956C63.8503 165.956 64.1536 165.739 64.3616 165.306C64.5696 164.873 64.6736 164.201 64.6736 163.291C64.6736 162.381 64.5696 161.709 64.3616 161.276C64.1623 160.843 63.8546 160.626 63.4386 160.626C62.6586 160.626 62.2686 161.514 62.2686 163.291C62.2686 164.227 62.3683 164.907 62.5676 165.332C62.767 165.748 63.0616 165.956 63.4516 165.956ZM74.3803 163.291C74.3803 163.976 74.3109 164.604 74.1723 165.176C74.0423 165.748 73.8386 166.242 73.5613 166.658C73.2926 167.065 72.9503 167.386 72.5343 167.62C72.1183 167.845 71.6286 167.958 71.0653 167.958C70.5106 167.958 70.0296 167.845 69.6223 167.62C69.2149 167.386 68.8726 167.065 68.5953 166.658C68.3266 166.251 68.1229 165.761 67.9843 165.189C67.8543 164.617 67.7893 163.984 67.7893 163.291C67.7893 162.598 67.8543 161.965 67.9843 161.393C68.1229 160.821 68.3266 160.331 68.5953 159.924C68.8726 159.508 69.2149 159.187 69.6223 158.962C70.0296 158.737 70.5106 158.624 71.0653 158.624C71.6199 158.624 72.1053 158.737 72.5213 158.962C72.9373 159.187 73.2839 159.508 73.5613 159.924C73.8386 160.331 74.0423 160.821 74.1723 161.393C74.3109 161.965 74.3803 162.598 74.3803 163.291ZM71.0653 165.956C71.4639 165.956 71.7673 165.739 71.9753 165.306C72.1833 164.873 72.2873 164.201 72.2873 163.291C72.2873 162.381 72.1833 161.709 71.9753 161.276C71.7759 160.843 71.4683 160.626 71.0523 160.626C70.2723 160.626 69.8823 161.514 69.8823 163.291C69.8823 164.227 69.9819 164.907 70.1813 165.332C70.3806 165.748 70.6753 165.956 71.0653 165.956Z" fill="white"/>
</svg>
