<svg width="116" height="186" viewBox="0 0 116 186" fill="none" xmlns="http://www.w3.org/2000/svg">
<rect x="1.75" y="1.75" width="112" height="182" fill="#634D8B"/>
<rect x="1.75" y="1.75" width="112" height="182" stroke="black" stroke-width="3.5"/>
<rect x="1.75" y="1.75" width="112" height="42" fill="#AAE0FA" stroke="black" stroke-width="3.5"/>
<path d="M29.4125 63.832C30.5478 63.832 31.4232 64.0573 32.0385 64.508C32.6538 64.9587 32.9615 65.652 32.9615 66.588C32.9615 66.8393 32.9268 67.0863 32.8575 67.329C32.7882 67.563 32.6885 67.7797 32.5585 67.979C32.4285 68.1783 32.2725 68.356 32.0905 68.512C31.9172 68.6593 31.7265 68.772 31.5185 68.85L33.9235 72.243L31.6875 72.958L29.0875 68.746H29.0615V72.646L26.8515 72.854L26.8515 63.832L29.4125 63.832ZM29.0615 68.213C29.1048 68.2217 29.1482 68.226 29.1915 68.226C29.2348 68.226 29.2782 68.226 29.3215 68.226C29.4948 68.226 29.6682 68.2087 29.8415 68.174C30.0148 68.1307 30.1665 68.0613 30.2965 67.966C30.4352 67.862 30.5435 67.7277 30.6215 67.563C30.7082 67.3897 30.7515 67.173 30.7515 66.913C30.7515 66.601 30.6692 66.3367 30.5045 66.12C30.3485 65.9033 30.0538 65.7733 29.6205 65.73C29.5338 65.7213 29.4428 65.717 29.3475 65.717C29.2608 65.717 29.1655 65.717 29.0615 65.717V68.213ZM36.8311 69.24C36.8311 69.786 36.9395 70.2063 37.1561 70.501C37.3815 70.787 37.7368 70.93 38.2221 70.93C38.4561 70.93 38.6685 70.904 38.8591 70.852C39.0498 70.7913 39.2145 70.6873 39.3531 70.54C39.5005 70.384 39.6131 70.1717 39.6911 69.903C39.7691 69.6343 39.8081 69.2877 39.8081 68.863V63.832L42.0181 63.624V69.695C42.0181 70.215 41.9185 70.6787 41.7191 71.086C41.5198 71.4933 41.2425 71.8357 40.8871 72.113C40.5405 72.3903 40.1331 72.6027 39.6651 72.75C39.1971 72.8887 38.6945 72.958 38.1571 72.958C37.0045 72.958 36.1248 72.685 35.5181 72.139C34.9201 71.5843 34.6211 70.8217 34.6211 69.851V63.832L36.8311 63.624V69.24ZM48.778 63.832L49.168 65.717L45.944 65.717V67.264L48.245 67.264V69.149L45.944 69.149V70.865L49.441 70.865L48.895 72.75H43.734V63.832H48.778ZM57.7522 63.832C58.3762 63.832 58.9655 63.949 59.5202 64.183C60.0749 64.4083 60.5559 64.7203 60.9632 65.119C61.3792 65.5177 61.7042 65.99 61.9382 66.536C62.1809 67.082 62.3022 67.667 62.3022 68.291C62.3022 68.941 62.1765 69.539 61.9252 70.085C61.6739 70.631 61.3402 71.1033 60.9242 71.502C60.5082 71.892 60.0272 72.1997 59.4812 72.425C58.9352 72.6417 58.3632 72.75 57.7652 72.75H54.6322V63.832H57.7522ZM56.8422 70.865H57.5052C57.8519 70.865 58.1812 70.8 58.4932 70.67C58.8052 70.54 59.0782 70.358 59.3122 70.124C59.5549 69.89 59.7455 69.617 59.8842 69.305C60.0229 68.993 60.0922 68.655 60.0922 68.291C60.0922 67.953 60.0272 67.6323 59.8972 67.329C59.7672 67.017 59.5852 66.744 59.3512 66.51C59.1259 66.2673 58.8529 66.0767 58.5322 65.938C58.2202 65.7907 57.8822 65.717 57.5182 65.717H56.8422V70.865ZM68.7371 63.832L69.1271 65.717H65.9031V67.264H68.2041V69.149H65.9031V70.865H69.4001L68.8541 72.75H63.6931V63.832H68.7371ZM76.8012 70.722H79.7262L79.1412 72.75H74.5912V63.832L76.8012 63.624V70.722ZM84.3716 63.624H84.3976L89.2076 72.503L86.9586 72.958L86.0486 71.047H82.6556L81.7586 72.958L79.6136 72.503L84.3716 63.624ZM83.1886 69.396H85.5546L84.3716 67.212L83.1886 69.396ZM40.4537 78.832C41.563 78.832 42.4167 79.0313 43.0147 79.43C43.6213 79.82 43.9247 80.4007 43.9247 81.172C43.9247 81.614 43.8163 81.9997 43.5997 82.329C43.383 82.6583 43.1013 82.8967 42.7547 83.044V83.07C43.1533 83.226 43.4913 83.4947 43.7687 83.876C44.046 84.2573 44.1847 84.721 44.1847 85.267C44.1847 86.073 43.8943 86.6883 43.3137 87.113C42.7417 87.5377 41.9747 87.75 41.0127 87.75H37.9057V78.832H40.4537ZM40.1157 82.381H40.6877C41.0343 82.381 41.29 82.2987 41.4547 82.134C41.628 81.9607 41.7147 81.7353 41.7147 81.458C41.7147 81.25 41.6497 81.068 41.5197 80.912C41.4417 80.8167 41.3247 80.7387 41.1687 80.678C41.0213 80.6173 40.8003 80.587 40.5057 80.587H40.1157V82.381ZM40.1157 85.995H40.5577C40.9737 85.995 41.2813 85.9517 41.4807 85.865C41.68 85.7783 41.81 85.6657 41.8707 85.527C41.94 85.3883 41.9747 85.241 41.9747 85.085C41.9747 84.7903 41.888 84.5607 41.7147 84.396C41.5413 84.2227 41.2033 84.136 40.7007 84.136H40.1157V85.995ZM49.1853 78.624H49.2113L54.0213 87.503L51.7723 87.958L50.8623 86.047H47.4693L46.5723 87.958L44.4273 87.503L49.1853 78.624ZM48.0023 84.396H50.3683L49.1853 82.212L48.0023 84.396ZM56.8422 85.722H59.7672L59.1822 87.75H54.6322L54.6322 78.832L56.8422 78.624L56.8422 85.722ZM63.0216 87.646L60.8116 87.854L60.8116 78.832L63.0216 78.624L63.0216 87.646ZM69.5517 81.185C69.2744 80.9337 69.0187 80.7603 68.7847 80.665C68.5507 80.561 68.321 80.509 68.0957 80.509C67.7924 80.509 67.5324 80.5697 67.3157 80.691C67.099 80.8123 66.9907 80.9857 66.9907 81.211C66.9907 81.3497 67.0254 81.471 67.0947 81.575C67.1727 81.6703 67.2767 81.757 67.4067 81.835C67.5367 81.9043 67.6884 81.9693 67.8617 82.03C68.035 82.0907 68.217 82.1513 68.4077 82.212C68.6937 82.3073 68.9884 82.4157 69.2917 82.537C69.6037 82.6497 69.881 82.8057 70.1237 83.005C70.375 83.2043 70.5787 83.4643 70.7347 83.785C70.8994 84.097 70.9817 84.4957 70.9817 84.981C70.9817 85.4923 70.8864 85.9343 70.6957 86.307C70.5137 86.6797 70.2624 86.9917 69.9417 87.243C69.6297 87.4857 69.2657 87.6633 68.8497 87.776C68.4424 87.8973 68.0134 87.958 67.5627 87.958C66.982 87.958 66.423 87.8713 65.8857 87.698C65.357 87.5247 64.8847 87.2603 64.4687 86.905L65.7947 85.215C65.9854 85.4403 66.228 85.618 66.5227 85.748C66.8174 85.8693 67.1164 85.93 67.4197 85.93C67.749 85.93 68.035 85.8607 68.2777 85.722C68.5204 85.5833 68.6417 85.3883 68.6417 85.137C68.6417 84.9723 68.5897 84.838 68.4857 84.734C68.3817 84.6213 68.243 84.526 68.0697 84.448C67.905 84.3613 67.71 84.2833 67.4847 84.214C67.2594 84.1447 67.0297 84.071 66.7957 83.993C66.5357 83.9063 66.2757 83.798 66.0157 83.668C65.7644 83.538 65.5347 83.3733 65.3267 83.174C65.1274 82.9747 64.9627 82.732 64.8327 82.446C64.7114 82.1513 64.6507 81.796 64.6507 81.38C64.6507 80.964 64.7374 80.587 64.9107 80.249C65.084 79.911 65.318 79.625 65.6127 79.391C65.9074 79.1483 66.2497 78.962 66.6397 78.832C67.0384 78.6933 67.4587 78.624 67.9007 78.624C68.4207 78.624 68.9277 78.715 69.4217 78.897C69.9157 79.0703 70.362 79.3217 70.7607 79.651L69.5517 81.185ZM77.4643 78.832L77.8543 80.717H74.6303V82.264H76.9313V84.149H74.6303V85.865H78.1273L77.5813 87.75H72.4203V78.832H77.4643Z" fill="white"/>
<path d="M49.4372 161.276C49.2725 161.103 49.0689 160.955 48.8262 160.834C48.5835 160.704 48.3149 160.639 48.0202 160.639C47.5782 160.639 47.2185 160.747 46.9412 160.964C46.6725 161.172 46.4645 161.428 46.3172 161.731H48.3062L48.0722 162.901H46.0052L45.9922 163.538H47.9422L47.7212 164.708H46.2132C46.3519 165.081 46.5642 165.38 46.8502 165.605C47.1449 165.83 47.5305 165.943 48.0072 165.943C48.2152 165.943 48.4579 165.887 48.7352 165.774C49.0212 165.653 49.2682 165.488 49.4762 165.28L49.2552 167.633C49.0819 167.754 48.8652 167.837 48.6052 167.88C48.3539 167.932 48.1155 167.958 47.8902 167.958C47.4309 167.958 46.9932 167.889 46.5772 167.75C46.1699 167.603 45.8015 167.39 45.4722 167.113C45.1429 166.836 44.8569 166.498 44.6142 166.099C44.3715 165.692 44.1895 165.228 44.0682 164.708H42.8982L43.1192 163.538H43.9122L43.9252 162.901H42.8982L43.1322 161.731H44.1202C44.3975 160.734 44.8699 159.967 45.5372 159.43C46.2045 158.893 46.9802 158.624 47.8642 158.624C48.0462 158.624 48.2455 158.646 48.4622 158.689C48.6875 158.732 48.8999 158.806 49.0992 158.91L49.4372 161.276Z" fill="white"/>
<path d="M57.32 158.624V167.75L55.227 167.958V161.887L53.719 162.615L52.978 161.328L57.32 158.624ZM66.0126 158.832L65.5056 160.834H62.9706V161.614C63.1613 161.588 63.326 161.575 63.4646 161.575C63.9153 161.575 64.3313 161.657 64.7126 161.822C65.094 161.978 65.419 162.195 65.6876 162.472C65.965 162.749 66.1773 163.079 66.3246 163.46C66.4806 163.833 66.5586 164.24 66.5586 164.682C66.5586 165.176 66.4676 165.627 66.2856 166.034C66.1036 166.433 65.848 166.775 65.5186 167.061C65.198 167.347 64.8166 167.568 64.3746 167.724C63.9413 167.88 63.4733 167.958 62.9706 167.958C62.3726 167.958 61.8136 167.863 61.2936 167.672C60.7823 167.481 60.3186 167.178 59.9026 166.762L61.4496 165.189C61.623 165.458 61.844 165.653 62.1126 165.774C62.39 165.895 62.6803 165.956 62.9836 165.956C63.157 165.956 63.3216 165.926 63.4776 165.865C63.6336 165.796 63.7723 165.7 63.8936 165.579C64.015 165.449 64.1103 165.302 64.1796 165.137C64.249 164.964 64.2836 164.773 64.2836 164.565C64.2836 164.166 64.1276 163.85 63.8156 163.616C63.5123 163.382 63.1136 163.265 62.6196 163.265C62.3163 163.265 62.0173 163.3 61.7226 163.369C61.4366 163.43 61.155 163.512 60.8776 163.616V158.832H66.0126ZM74.3803 163.291C74.3803 163.976 74.3109 164.604 74.1723 165.176C74.0423 165.748 73.8386 166.242 73.5613 166.658C73.2926 167.065 72.9503 167.386 72.5343 167.62C72.1183 167.845 71.6286 167.958 71.0653 167.958C70.5106 167.958 70.0296 167.845 69.6223 167.62C69.2149 167.386 68.8726 167.065 68.5953 166.658C68.3266 166.251 68.1229 165.761 67.9843 165.189C67.8543 164.617 67.7893 163.984 67.7893 163.291C67.7893 162.598 67.8543 161.965 67.9843 161.393C68.1229 160.821 68.3266 160.331 68.5953 159.924C68.8726 159.508 69.2149 159.187 69.6223 158.962C70.0296 158.737 70.5106 158.624 71.0653 158.624C71.6199 158.624 72.1053 158.737 72.5213 158.962C72.9373 159.187 73.2839 159.508 73.5613 159.924C73.8386 160.331 74.0423 160.821 74.1723 161.393C74.3109 161.965 74.3803 162.598 74.3803 163.291ZM71.0653 165.956C71.4639 165.956 71.7673 165.739 71.9753 165.306C72.1833 164.873 72.2873 164.201 72.2873 163.291C72.2873 162.381 72.1833 161.709 71.9753 161.276C71.7759 160.843 71.4683 160.626 71.0523 160.626C70.2723 160.626 69.8823 161.514 69.8823 163.291C69.8823 164.227 69.9819 164.907 70.1813 165.332C70.3806 165.748 70.6753 165.956 71.0653 165.956Z" fill="white"/>
</svg>
