<svg width="116" height="186" viewBox="0 0 116 186" fill="none" xmlns="http://www.w3.org/2000/svg">
<rect x="113.75" y="183.75" width="112" height="182" transform="rotate(180 113.75 183.75)" fill="#634D8B"/>
<rect x="113.75" y="183.75" width="112" height="182" transform="rotate(180 113.75 183.75)" stroke="black" stroke-width="3.5"/>
<rect x="113.75" y="183.75" width="112" height="42" transform="rotate(180 113.75 183.75)" fill="#FEF200" stroke="black" stroke-width="3.5"/>
<path d="M86.0875 121.668C84.9522 121.668 84.0768 121.443 83.4615 120.992C82.8462 120.541 82.5385 119.848 82.5385 118.912C82.5385 118.661 82.5732 118.414 82.6425 118.171C82.7118 117.937 82.8115 117.72 82.9415 117.521C83.0715 117.322 83.2275 117.144 83.4095 116.988C83.5828 116.841 83.7735 116.728 83.9815 116.65L81.5765 113.257L83.8125 112.542L86.4125 116.754H86.4385V112.854L88.6485 112.646V121.668H86.0875ZM86.4385 117.287C86.3952 117.278 86.3518 117.274 86.3085 117.274C86.2652 117.274 86.2218 117.274 86.1785 117.274C86.0052 117.274 85.8318 117.291 85.6585 117.326C85.4852 117.369 85.3335 117.439 85.2035 117.534C85.0648 117.638 84.9565 117.772 84.8785 117.937C84.7918 118.11 84.7485 118.327 84.7485 118.587C84.7485 118.899 84.8308 119.163 84.9955 119.38C85.1515 119.597 85.4462 119.727 85.8795 119.77C85.9662 119.779 86.0572 119.783 86.1525 119.783C86.2392 119.783 86.3345 119.783 86.4385 119.783V117.287ZM78.6689 116.26C78.6689 115.714 78.5605 115.294 78.3439 114.999C78.1185 114.713 77.7632 114.57 77.2779 114.57C77.0439 114.57 76.8315 114.596 76.6409 114.648C76.4502 114.709 76.2855 114.813 76.1469 114.96C75.9995 115.116 75.8869 115.328 75.8089 115.597C75.7309 115.866 75.6919 116.212 75.6919 116.637V121.668L73.4819 121.876V115.805C73.4819 115.285 73.5815 114.821 73.7809 114.414C73.9802 114.007 74.2575 113.664 74.6129 113.387C74.9595 113.11 75.3669 112.897 75.8349 112.75C76.3029 112.611 76.8055 112.542 77.3429 112.542C78.4955 112.542 79.3752 112.815 79.9819 113.361C80.5799 113.916 80.8789 114.678 80.8789 115.649V121.668L78.6689 121.876V116.26ZM66.722 121.668L66.332 119.783H69.556V118.236H67.255V116.351H69.556V114.635H66.059L66.605 112.75H71.766V121.668H66.722ZM57.7478 121.668C57.1238 121.668 56.5345 121.551 55.9798 121.317C55.4251 121.092 54.9441 120.78 54.5368 120.381C54.1208 119.982 53.7958 119.51 53.5618 118.964C53.3191 118.418 53.1978 117.833 53.1978 117.209C53.1978 116.559 53.3235 115.961 53.5748 115.415C53.8261 114.869 54.1598 114.397 54.5758 113.998C54.9918 113.608 55.4728 113.3 56.0188 113.075C56.5648 112.858 57.1368 112.75 57.7348 112.75H60.8678V121.668H57.7478ZM58.6578 114.635H57.9948C57.6481 114.635 57.3188 114.7 57.0068 114.83C56.6948 114.96 56.4218 115.142 56.1878 115.376C55.9451 115.61 55.7545 115.883 55.6158 116.195C55.4771 116.507 55.4078 116.845 55.4078 117.209C55.4078 117.547 55.4728 117.868 55.6028 118.171C55.7328 118.483 55.9148 118.756 56.1488 118.99C56.3741 119.233 56.6471 119.423 56.9678 119.562C57.2798 119.709 57.6178 119.783 57.9818 119.783H58.6578V114.635ZM46.7629 121.668L46.3729 119.783H49.5969V118.236H47.2959V116.351H49.5969V114.635H46.0999L46.6459 112.75H51.8069V121.668H46.7629ZM38.6988 114.778H35.7738L36.3588 112.75H40.9088V121.668L38.6988 121.876V114.778ZM31.1284 121.876H31.1024L26.2924 112.997L28.5414 112.542L29.4514 114.453H32.8444L33.7414 112.542L35.8864 112.997L31.1284 121.876ZM32.3114 116.104H29.9454L31.1284 118.288L32.3114 116.104ZM68.3059 106.668L67.7729 104.64H70.8019V102.729H68.6049V100.844H70.8019V97.75L73.0119 97.646V106.668H68.3059ZM64.6225 97.854L66.8325 97.646V106.668L64.6225 106.876V97.854ZM60.3414 106.668C59.232 106.668 58.3784 106.469 57.7804 106.07C57.1737 105.68 56.8704 105.099 56.8704 104.328C56.8704 103.886 56.9787 103.5 57.1954 103.171C57.412 102.842 57.6937 102.603 58.0404 102.456V102.43C57.6417 102.274 57.3037 102.005 57.0264 101.624C56.749 101.243 56.6104 100.779 56.6104 100.233C56.6104 99.427 56.9007 98.8117 57.4814 98.387C58.0534 97.9623 58.8204 97.75 59.7824 97.75H62.8894V106.668H60.3414ZM60.6794 103.119H60.1074C59.7607 103.119 59.505 103.201 59.3404 103.366C59.167 103.539 59.0804 103.765 59.0804 104.042C59.0804 104.25 59.1454 104.432 59.2754 104.588C59.3534 104.683 59.4704 104.761 59.6264 104.822C59.7737 104.883 59.9947 104.913 60.2894 104.913H60.6794V103.119ZM60.6794 99.505H60.2374C59.8214 99.505 59.5137 99.5483 59.3144 99.635C59.115 99.7217 58.985 99.8343 58.9244 99.973C58.855 100.112 58.8204 100.259 58.8204 100.415C58.8204 100.71 58.907 100.939 59.0804 101.104C59.2537 101.277 59.5917 101.364 60.0944 101.364H60.6794V99.505ZM52.8707 106.668C51.7354 106.668 50.8601 106.443 50.2447 105.992C49.6294 105.541 49.3217 104.848 49.3217 103.912C49.3217 103.661 49.3564 103.414 49.4257 103.171C49.4951 102.937 49.5947 102.72 49.7247 102.521C49.8547 102.322 50.0107 102.144 50.1927 101.988C50.3661 101.841 50.5567 101.728 50.7647 101.65L48.3597 98.257L50.5957 97.542L53.1957 101.754H53.2217V97.854L55.4317 97.646V106.668H52.8707ZM53.2217 102.287C53.1784 102.278 53.1351 102.274 53.0917 102.274C53.0484 102.274 53.0051 102.274 52.9617 102.274C52.7884 102.274 52.6151 102.291 52.4417 102.326C52.2684 102.369 52.1167 102.439 51.9867 102.534C51.8481 102.638 51.7397 102.772 51.6617 102.937C51.5751 103.11 51.5317 103.327 51.5317 103.587C51.5317 103.899 51.6141 104.163 51.7787 104.38C51.9347 104.597 52.2294 104.727 52.6627 104.77C52.7494 104.779 52.8404 104.783 52.9357 104.783C53.0224 104.783 53.1177 104.783 53.2217 104.783V102.287ZM42.5661 106.668L42.1761 104.783H45.4001V103.236H43.0991V101.351H45.4001V99.635H41.9031L42.4491 97.75H47.6101V106.668H42.5661Z" fill="white"/>
<path d="M66.0628 24.224C66.2275 24.3973 66.4311 24.5447 66.6738 24.666C66.9165 24.796 67.1851 24.861 67.4798 24.861C67.9218 24.861 68.2815 24.7527 68.5588 24.536C68.8275 24.328 69.0355 24.0723 69.1828 23.769H67.1938L67.4278 22.599H69.4948L69.5078 21.962H67.5578L67.7788 20.792H69.2868C69.1481 20.4193 68.9358 20.1203 68.6498 19.895C68.3551 19.6697 67.9695 19.557 67.4928 19.557C67.2848 19.557 67.0421 19.6133 66.7648 19.726C66.4788 19.8473 66.2318 20.012 66.0238 20.22L66.2448 17.867C66.4181 17.7457 66.6348 17.6633 66.8948 17.62C67.1461 17.568 67.3845 17.542 67.6098 17.542C68.0691 17.542 68.5068 17.6113 68.9228 17.75C69.3301 17.8973 69.6985 18.1097 70.0278 18.387C70.3571 18.6643 70.6431 19.0023 70.8858 19.401C71.1285 19.8083 71.3105 20.272 71.4318 20.792H72.6018L72.3808 21.962H71.5878L71.5748 22.599H72.6018L72.3678 23.769H71.3798C71.1025 24.7657 70.6301 25.5327 69.9628 26.07C69.2955 26.6073 68.5198 26.876 67.6358 26.876C67.4538 26.876 67.2545 26.8543 67.0378 26.811C66.8125 26.7677 66.6001 26.694 66.4008 26.59L66.0628 24.224Z" fill="white"/>
<path d="M56.906 24.263C56.906 23.873 56.9797 23.5437 57.127 23.275C57.2657 23.0063 57.478 22.7463 57.764 22.495C57.374 22.2957 57.0663 22.0053 56.841 21.624C56.6157 21.2513 56.503 20.844 56.503 20.402C56.503 19.9427 56.5897 19.5353 56.763 19.18C56.9363 18.8333 57.179 18.5343 57.491 18.283C57.7943 18.0403 58.1627 17.8583 58.596 17.737C59.0207 17.607 59.4887 17.542 60 17.542C60.5807 17.542 61.144 17.6677 61.69 17.919C62.2273 18.179 62.691 18.53 63.081 18.972L61.612 20.454C61.3867 20.168 61.157 19.9427 60.923 19.778C60.6803 19.622 60.377 19.544 60.013 19.544C59.623 19.544 59.3197 19.6393 59.103 19.83C58.8863 20.0293 58.778 20.298 58.778 20.636C58.778 21.078 58.999 21.3597 59.441 21.481C59.5537 21.5157 59.6793 21.533 59.818 21.533C59.9567 21.5417 60.1083 21.546 60.273 21.546H60.923V23.106H60.39C60.1907 23.106 60.0087 23.119 59.844 23.145C59.6707 23.171 59.5233 23.2187 59.402 23.288C59.272 23.366 59.1723 23.4657 59.103 23.587C59.0337 23.7083 58.999 23.86 58.999 24.042C58.999 24.406 59.1117 24.666 59.337 24.822C59.5623 24.978 59.818 25.056 60.104 25.056C60.416 25.056 60.6717 24.9737 60.871 24.809C61.0703 24.653 61.2783 24.4797 61.495 24.289L63.042 25.173C62.678 25.745 62.21 26.1697 61.638 26.447C61.066 26.733 60.455 26.876 59.805 26.876C59.3803 26.876 58.9903 26.811 58.635 26.681C58.2797 26.551 57.9763 26.369 57.725 26.135C57.465 25.9097 57.2657 25.6367 57.127 25.316C56.9797 24.9953 56.906 24.6443 56.906 24.263ZM48.6554 26.668L51.5154 17.854L54.0374 17.542L51.5284 24.666H55.1814L54.6744 26.668H48.6554ZM41.8737 26.668L42.3807 24.666H44.9157V23.886C44.7251 23.912 44.5604 23.925 44.4217 23.925C43.9711 23.925 43.5551 23.8427 43.1737 23.678C42.7924 23.522 42.4674 23.3053 42.1987 23.028C41.9214 22.7507 41.7091 22.4213 41.5617 22.04C41.4057 21.6673 41.3277 21.26 41.3277 20.818C41.3277 20.324 41.4187 19.8733 41.6007 19.466C41.7827 19.0673 42.0384 18.725 42.3677 18.439C42.6884 18.153 43.0697 17.932 43.5117 17.776C43.9451 17.62 44.4131 17.542 44.9157 17.542C45.5137 17.542 46.0727 17.6373 46.5927 17.828C47.1041 18.0187 47.5677 18.322 47.9837 18.738L46.4367 20.311C46.2634 20.0423 46.0424 19.8473 45.7737 19.726C45.4964 19.6047 45.2061 19.544 44.9027 19.544C44.7294 19.544 44.5647 19.5743 44.4087 19.635C44.2527 19.7043 44.1141 19.7997 43.9927 19.921C43.8714 20.051 43.7761 20.1983 43.7067 20.363C43.6374 20.5363 43.6027 20.727 43.6027 20.935C43.6027 21.3337 43.7587 21.65 44.0707 21.884C44.3741 22.118 44.7727 22.235 45.2667 22.235C45.5701 22.235 45.8691 22.2003 46.1637 22.131C46.4497 22.0703 46.7314 21.988 47.0087 21.884V26.668H41.8737Z" fill="white"/>
</svg>
