<svg width="186" height="116" viewBox="0 0 186 116" fill="none" xmlns="http://www.w3.org/2000/svg">
<rect x="1.75" y="113.75" width="112" height="182" transform="rotate(-90 1.75 113.75)" fill="#634D8B"/>
<rect x="1.75" y="113.75" width="112" height="182" transform="rotate(-90 1.75 113.75)" stroke="black" stroke-width="3.5"/>
<rect x="1.75" y="113.75" width="112" height="42" transform="rotate(-90 1.75 113.75)" fill="#1FB25A" stroke="black" stroke-width="3.5"/>
<path d="M63.624 88.5589V88.5329L72.503 83.7229L72.958 85.9719L71.047 86.8819V90.2749L72.958 91.1719L72.503 93.3169L63.624 88.5589ZM69.396 89.7419V87.3759L67.212 88.5589L69.396 89.7419ZM63.624 83.1094L68.356 81.3934V81.3674L63.624 79.6254L64.053 77.3894L72.958 81.4454V81.4714L64.053 85.3584L63.624 83.1094ZM63.832 71.6478L65.717 71.2578V74.4818H67.264V72.1808H69.149V74.4818H70.865V70.9848L72.75 71.5308V76.6918H63.832V71.6478ZM63.624 69.8408V69.8148L68.616 63.9778H63.832L63.624 61.7678H72.958V61.7938L67.862 67.6308H72.646L72.854 69.8408H63.624ZM69.24 57.8719C69.786 57.8719 70.2063 57.7636 70.501 57.5469C70.787 57.3216 70.93 56.9663 70.93 56.4809C70.93 56.2469 70.904 56.0346 70.852 55.8439C70.7913 55.6533 70.6873 55.4886 70.54 55.3499C70.384 55.2026 70.1717 55.0899 69.903 55.0119C69.6343 54.9339 69.2877 54.8949 68.863 54.8949H63.832L63.624 52.6849H69.695C70.215 52.6849 70.6787 52.7846 71.086 52.9839C71.4933 53.1833 71.8357 53.4606 72.113 53.8159C72.3903 54.1626 72.6027 54.5699 72.75 55.0379C72.8887 55.5059 72.958 56.0086 72.958 56.5459C72.958 57.6986 72.685 58.5783 72.139 59.1849C71.5843 59.7829 70.8217 60.0819 69.851 60.0819H63.832L63.624 57.8719H69.24ZM63.832 45.925L65.717 45.535V48.759H67.264V46.458H69.149V48.759H70.865V45.262L72.75 45.808L72.75 50.969H63.832V45.925ZM63.832 36.9509C63.832 36.3269 63.949 35.7375 64.183 35.1829C64.4083 34.6282 64.7203 34.1472 65.119 33.7399C65.5177 33.3239 65.99 32.9989 66.536 32.7649C67.082 32.5222 67.667 32.4009 68.291 32.4009C68.941 32.4009 69.539 32.5265 70.085 32.7779C70.631 33.0292 71.1033 33.3629 71.502 33.7789C71.892 34.1949 72.1997 34.6759 72.425 35.2219C72.6417 35.7679 72.75 36.3399 72.75 36.9379V40.0709H63.832V36.9509ZM70.865 37.8609V37.1979C70.865 36.8512 70.8 36.5219 70.67 36.2099C70.54 35.8979 70.358 35.6249 70.124 35.3909C69.89 35.1482 69.617 34.9575 69.305 34.8189C68.993 34.6802 68.655 34.6109 68.291 34.6109C67.953 34.6109 67.6323 34.6759 67.329 34.8059C67.017 34.9359 66.744 35.1179 66.51 35.3519C66.2673 35.5772 66.0767 35.8502 65.938 36.1709C65.7907 36.4829 65.717 36.8209 65.717 37.1849V37.8609H70.865ZM69.24 28.852C69.786 28.852 70.2063 28.7436 70.501 28.527C70.787 28.3016 70.93 27.9463 70.93 27.461C70.93 27.227 70.904 27.0146 70.852 26.824C70.7913 26.6333 70.6873 26.4686 70.54 26.33C70.384 26.1826 70.1717 26.07 69.903 25.992C69.6343 25.914 69.2877 25.875 68.863 25.875H63.832L63.624 23.665H69.695C70.215 23.665 70.6787 23.7646 71.086 23.964C71.4933 24.1633 71.8357 24.4406 72.113 24.796C72.3903 25.1426 72.6027 25.55 72.75 26.018C72.8887 26.486 72.958 26.9886 72.958 27.526C72.958 28.6786 72.685 29.5583 72.139 30.165C71.5843 30.763 70.8217 31.062 69.851 31.062H63.832L63.624 28.852H69.24ZM78.832 80.2088L80.86 79.6758V82.7048H82.771V80.5078H84.656V82.7048H87.75L87.854 84.9148H78.832V80.2088ZM87.646 76.5254L87.854 78.7354H78.832L78.624 76.5254H87.646ZM78.832 72.3872C78.832 71.2519 79.0573 70.3766 79.508 69.7612C79.9587 69.1459 80.652 68.8382 81.588 68.8382C81.8393 68.8382 82.0863 68.8729 82.329 68.9422C82.563 69.0116 82.7797 69.1112 82.979 69.2412C83.1783 69.3712 83.356 69.5272 83.512 69.7092C83.6593 69.8826 83.772 70.0732 83.85 70.2812L87.243 67.8762L87.958 70.1122L83.746 72.7122V72.7382H87.646L87.854 74.9482H78.832V72.3872ZM83.213 72.7382C83.2217 72.6949 83.226 72.6516 83.226 72.6082C83.226 72.5649 83.226 72.5216 83.226 72.4782C83.226 72.3049 83.2087 72.1316 83.174 71.9582C83.1307 71.7849 83.0613 71.6332 82.966 71.5032C82.862 71.3646 82.7277 71.2562 82.563 71.1782C82.3897 71.0916 82.173 71.0482 81.913 71.0482C81.601 71.0482 81.3367 71.1306 81.12 71.2952C80.9033 71.4512 80.7733 71.7459 80.73 72.1792C80.7213 72.2659 80.717 72.3569 80.717 72.4522C80.717 72.5389 80.717 72.6342 80.717 72.7382H83.213ZM78.832 62.0826L80.717 61.6926V64.9166H82.264V62.6156H84.149V64.9166H85.865V61.4196L87.75 61.9656V67.1266H78.832V62.0826ZM78.624 59.0276L83.174 57.7536L78.624 55.5046L83.239 53.2946L78.624 51.9426L78.884 49.7976L87.958 52.9826V53.0346L82.589 55.4786L87.958 58.1046V58.1436L78.884 61.2116L78.624 59.0276ZM78.624 46.5969V46.5709L87.503 41.7609L87.958 44.0099L86.047 44.9199V48.3129L87.958 49.2099L87.503 51.3549L78.624 46.5969ZM84.396 47.7799V45.4139L82.212 46.5969L84.396 47.7799ZM85.722 38.94V36.015L87.75 36.6V41.15H78.832L78.624 38.94H85.722ZM85.722 32.7736V29.8486L87.75 30.4336V34.9836H78.832L78.624 32.7736H85.722Z" fill="white"/>
<path d="M161.276 66.0628C161.103 66.2275 160.955 66.4311 160.834 66.6738C160.704 66.9165 160.639 67.1851 160.639 67.4798C160.639 67.9218 160.747 68.2815 160.964 68.5588C161.172 68.8275 161.428 69.0355 161.731 69.1828V67.1938L162.901 67.4278V69.4948L163.538 69.5078V67.5578L164.708 67.7788V69.2868C165.081 69.1481 165.38 68.9358 165.605 68.6498C165.83 68.3551 165.943 67.9695 165.943 67.4928C165.943 67.2848 165.887 67.0421 165.774 66.7648C165.653 66.4788 165.488 66.2318 165.28 66.0238L167.633 66.2448C167.754 66.4181 167.837 66.6348 167.88 66.8948C167.932 67.1461 167.958 67.3845 167.958 67.6098C167.958 68.0691 167.889 68.5068 167.75 68.9228C167.603 69.3301 167.39 69.6985 167.113 70.0278C166.836 70.3571 166.498 70.6431 166.099 70.8858C165.692 71.1285 165.228 71.3105 164.708 71.4318V72.6018L163.538 72.3808V71.5878L162.901 71.5748V72.6018L161.731 72.3678V71.3798C160.734 71.1025 159.967 70.6301 159.43 69.9628C158.893 69.2955 158.624 68.5198 158.624 67.6358C158.624 67.4538 158.646 67.2545 158.689 67.0378C158.732 66.8125 158.806 66.6001 158.91 66.4008L161.276 66.0628Z" fill="white"/>
<path d="M158.832 57.517H163.759V56.295L165.579 56.62V57.517H167.75L167.958 59.61H165.579V63.237L158.832 60.39V57.517ZM163.759 60.728V59.454H160.717V59.48L163.759 60.728ZM163.291 48.7334C163.976 48.7334 164.604 48.8027 165.176 48.9414C165.748 49.0714 166.242 49.275 166.658 49.5524C167.065 49.821 167.386 50.1634 167.62 50.5794C167.845 50.9954 167.958 51.485 167.958 52.0484C167.958 52.603 167.845 53.084 167.62 53.4914C167.386 53.8987 167.065 54.241 166.658 54.5184C166.251 54.787 165.761 54.9907 165.189 55.1294C164.617 55.2594 163.984 55.3244 163.291 55.3244C162.598 55.3244 161.965 55.2594 161.393 55.1294C160.821 54.9907 160.331 54.787 159.924 54.5184C159.508 54.241 159.187 53.8987 158.962 53.4914C158.737 53.084 158.624 52.603 158.624 52.0484C158.624 51.4937 158.737 51.0084 158.962 50.5924C159.187 50.1764 159.508 49.8297 159.924 49.5524C160.331 49.275 160.821 49.0714 161.393 48.9414C161.965 48.8027 162.598 48.7334 163.291 48.7334ZM165.956 52.0484C165.956 51.6497 165.739 51.3464 165.306 51.1384C164.873 50.9304 164.201 50.8264 163.291 50.8264C162.381 50.8264 161.709 50.9304 161.276 51.1384C160.843 51.3377 160.626 51.6454 160.626 52.0614C160.626 52.8414 161.514 53.2314 163.291 53.2314C164.227 53.2314 164.907 53.1317 165.332 52.9324C165.748 52.733 165.956 52.4384 165.956 52.0484ZM163.291 41.1197C163.976 41.1197 164.604 41.1891 165.176 41.3277C165.748 41.4577 166.242 41.6614 166.658 41.9387C167.065 42.2074 167.386 42.5497 167.62 42.9657C167.845 43.3817 167.958 43.8714 167.958 44.4347C167.958 44.9894 167.845 45.4704 167.62 45.8777C167.386 46.2851 167.065 46.6274 166.658 46.9047C166.251 47.1734 165.761 47.3771 165.189 47.5157C164.617 47.6457 163.984 47.7107 163.291 47.7107C162.598 47.7107 161.965 47.6457 161.393 47.5157C160.821 47.3771 160.331 47.1734 159.924 46.9047C159.508 46.6274 159.187 46.2851 158.962 45.8777C158.737 45.4704 158.624 44.9894 158.624 44.4347C158.624 43.8801 158.737 43.3947 158.962 42.9787C159.187 42.5627 159.508 42.2161 159.924 41.9387C160.331 41.6614 160.821 41.4577 161.393 41.3277C161.965 41.1891 162.598 41.1197 163.291 41.1197ZM165.956 44.4347C165.956 44.0361 165.739 43.7327 165.306 43.5247C164.873 43.3167 164.201 43.2127 163.291 43.2127C162.381 43.2127 161.709 43.3167 161.276 43.5247C160.843 43.7241 160.626 44.0317 160.626 44.4477C160.626 45.2277 161.514 45.6177 163.291 45.6177C164.227 45.6177 164.907 45.5181 165.332 45.3187C165.748 45.1194 165.956 44.8247 165.956 44.4347Z" fill="white"/>
</svg>
