<svg width="116" height="186" viewBox="0 0 116 186" fill="none" xmlns="http://www.w3.org/2000/svg">
<rect x="1.75" y="1.75" width="112" height="182" fill="#634D8B"/>
<rect x="1.75" y="1.75" width="112" height="182" stroke="black" stroke-width="3.5"/>
<rect x="1.75" y="1.75" width="112" height="42" fill="#955235" stroke="black" stroke-width="3.5"/>
<path d="M16.786 63.832C17.9213 63.832 18.7967 64.0573 19.412 64.508C20.0273 64.9587 20.335 65.652 20.335 66.588C20.335 66.8393 20.3003 67.0863 20.231 67.329C20.1617 67.563 20.062 67.7797 19.932 67.979C19.802 68.1783 19.646 68.356 19.464 68.512C19.2907 68.6593 19.1 68.772 18.892 68.85L21.297 72.243L19.061 72.958L16.461 68.746H16.435V72.646L14.225 72.854L14.225 63.832H16.786ZM16.435 68.213C16.4783 68.2217 16.5217 68.226 16.565 68.226C16.6083 68.226 16.6517 68.226 16.695 68.226C16.8683 68.226 17.0417 68.2087 17.215 68.174C17.3883 68.1307 17.54 68.0613 17.67 67.966C17.8087 67.862 17.917 67.7277 17.995 67.563C18.0817 67.3897 18.125 67.173 18.125 66.913C18.125 66.601 18.0427 66.3367 17.878 66.12C17.722 65.9033 17.4273 65.7733 16.994 65.73C16.9073 65.7213 16.8163 65.717 16.721 65.717C16.6343 65.717 16.539 65.717 16.435 65.717V68.213ZM24.2046 69.24C24.2046 69.786 24.3129 70.2063 24.5296 70.501C24.7549 70.787 25.1103 70.93 25.5956 70.93C25.8296 70.93 26.042 70.904 26.2326 70.852C26.4233 70.7913 26.5879 70.6873 26.7266 70.54C26.8739 70.384 26.9866 70.1717 27.0646 69.903C27.1426 69.6343 27.1816 69.2877 27.1816 68.863V63.832L29.3916 63.624V69.695C29.3916 70.215 29.292 70.6787 29.0926 71.086C28.8933 71.4933 28.616 71.8357 28.2606 72.113C27.914 72.3903 27.5066 72.6027 27.0386 72.75C26.5706 72.8887 26.0679 72.958 25.5306 72.958C24.3779 72.958 23.4983 72.685 22.8916 72.139C22.2936 71.5843 21.9946 70.8217 21.9946 69.851V63.832L24.2046 63.624V69.24ZM36.1515 63.832L36.5415 65.717H33.3175V67.264H35.6185V69.149H33.3175V70.865H36.8145L36.2685 72.75H31.1075L31.1075 63.832H36.1515ZM45.1257 63.832C45.7497 63.832 46.339 63.949 46.8937 64.183C47.4483 64.4083 47.9293 64.7203 48.3367 65.119C48.7527 65.5177 49.0777 65.99 49.3117 66.536C49.5543 67.082 49.6757 67.667 49.6757 68.291C49.6757 68.941 49.55 69.539 49.2987 70.085C49.0473 70.631 48.7137 71.1033 48.2977 71.502C47.8817 71.892 47.4007 72.1997 46.8547 72.425C46.3087 72.6417 45.7367 72.75 45.1387 72.75H42.0057V63.832H45.1257ZM44.2157 70.865H44.8787C45.2253 70.865 45.5547 70.8 45.8667 70.67C46.1787 70.54 46.4517 70.358 46.6857 70.124C46.9283 69.89 47.119 69.617 47.2577 69.305C47.3963 68.993 47.4657 68.655 47.4657 68.291C47.4657 67.953 47.4007 67.6323 47.2707 67.329C47.1407 67.017 46.9587 66.744 46.7247 66.51C46.4993 66.2673 46.2263 66.0767 45.9057 65.938C45.5937 65.7907 45.2557 65.717 44.8917 65.717H44.2157V70.865ZM56.1106 63.832L56.5006 65.717H53.2766V67.264H55.5776V69.149H53.2766V70.865H56.7736L56.2276 72.75H51.0666V63.832H56.1106ZM64.1747 70.722H67.0997L66.5147 72.75H61.9647V63.832L64.1747 63.624V70.722ZM67.9517 63.624C68.0731 63.6847 68.1857 63.7713 68.2897 63.884C68.4024 63.9967 68.4977 64.118 68.5757 64.248C68.6537 64.378 68.7144 64.5167 68.7577 64.664C68.8011 64.8027 68.8227 64.937 68.8227 65.067C68.8227 65.405 68.7317 65.7733 68.5497 66.172C68.3764 66.5707 68.0731 67.082 67.6397 67.706L66.6257 67.212C66.8424 66.8133 67.0027 66.4883 67.1067 66.237C67.2107 65.977 67.2627 65.7517 67.2627 65.561C67.2627 65.327 67.1934 65.119 67.0547 64.937C66.9247 64.7463 66.7601 64.6207 66.5607 64.56L67.9517 63.624ZM72.4196 67.082H75.2796V63.832L77.4896 63.624V72.646L75.2796 72.854V69.11H72.4196V72.646L70.2096 72.854V63.832L72.4196 63.624V67.082ZM85.0815 63.832V65.86H82.9365V72.646L80.7265 72.854V65.86H78.4385L78.9975 63.832H85.0815ZM87.6945 63.624H87.7205L90.5285 69.084L93.4275 63.624H93.4535L95.8195 72.646L93.5965 72.958L92.8295 68.668H92.8035L90.4635 72.958H90.4375L88.3055 68.681H88.2795L87.5125 72.958L85.2505 72.646L87.6945 63.624ZM98.8786 70.722H101.804L101.219 72.75H96.6686V63.832L98.8786 63.624V70.722Z" fill="white"/>
<path d="M49.4372 161.276C49.2725 161.103 49.0689 160.955 48.8262 160.834C48.5835 160.704 48.3149 160.639 48.0202 160.639C47.5782 160.639 47.2185 160.747 46.9412 160.964C46.6725 161.172 46.4645 161.428 46.3172 161.731H48.3062L48.0722 162.901H46.0052L45.9922 163.538H47.9422L47.7212 164.708H46.2132C46.3519 165.081 46.5642 165.38 46.8502 165.605C47.1449 165.83 47.5305 165.943 48.0072 165.943C48.2152 165.943 48.4579 165.887 48.7352 165.774C49.0212 165.653 49.2682 165.488 49.4762 165.28L49.2552 167.633C49.0819 167.754 48.8652 167.837 48.6052 167.88C48.3539 167.932 48.1155 167.958 47.8902 167.958C47.4309 167.958 46.9932 167.889 46.5772 167.75C46.1699 167.603 45.8015 167.39 45.4722 167.113C45.1429 166.836 44.8569 166.498 44.6142 166.099C44.3715 165.692 44.1895 165.228 44.0682 164.708H42.8982L43.1192 163.538H43.9122L43.9252 162.901H42.8982L43.1322 161.731H44.1202C44.3975 160.734 44.8699 159.967 45.5372 159.43C46.2045 158.893 46.9802 158.624 47.8642 158.624C48.0462 158.624 48.2455 158.646 48.4622 158.689C48.6875 158.732 48.8999 158.806 49.0992 158.91L49.4372 161.276Z" fill="white"/>
<path d="M57.32 158.624V167.75L55.227 167.958V161.887L53.719 162.615L52.978 161.328L57.32 158.624ZM66.7666 163.291C66.7666 163.976 66.6973 164.604 66.5586 165.176C66.4286 165.748 66.225 166.242 65.9476 166.658C65.679 167.065 65.3366 167.386 64.9206 167.62C64.5046 167.845 64.015 167.958 63.4516 167.958C62.897 167.958 62.416 167.845 62.0086 167.62C61.6013 167.386 61.259 167.065 60.9816 166.658C60.713 166.251 60.5093 165.761 60.3706 165.189C60.2406 164.617 60.1756 163.984 60.1756 163.291C60.1756 162.598 60.2406 161.965 60.3706 161.393C60.5093 160.821 60.713 160.331 60.9816 159.924C61.259 159.508 61.6013 159.187 62.0086 158.962C62.416 158.737 62.897 158.624 63.4516 158.624C64.0063 158.624 64.4916 158.737 64.9076 158.962C65.3236 159.187 65.6703 159.508 65.9476 159.924C66.225 160.331 66.4286 160.821 66.5586 161.393C66.6973 161.965 66.7666 162.598 66.7666 163.291ZM63.4516 165.956C63.8503 165.956 64.1536 165.739 64.3616 165.306C64.5696 164.873 64.6736 164.201 64.6736 163.291C64.6736 162.381 64.5696 161.709 64.3616 161.276C64.1623 160.843 63.8546 160.626 63.4386 160.626C62.6586 160.626 62.2686 161.514 62.2686 163.291C62.2686 164.227 62.3683 164.907 62.5676 165.332C62.767 165.748 63.0616 165.956 63.4516 165.956ZM74.3803 163.291C74.3803 163.976 74.3109 164.604 74.1723 165.176C74.0423 165.748 73.8386 166.242 73.5613 166.658C73.2926 167.065 72.9503 167.386 72.5343 167.62C72.1183 167.845 71.6286 167.958 71.0653 167.958C70.5106 167.958 70.0296 167.845 69.6223 167.62C69.2149 167.386 68.8726 167.065 68.5953 166.658C68.3266 166.251 68.1229 165.761 67.9843 165.189C67.8543 164.617 67.7893 163.984 67.7893 163.291C67.7893 162.598 67.8543 161.965 67.9843 161.393C68.1229 160.821 68.3266 160.331 68.5953 159.924C68.8726 159.508 69.2149 159.187 69.6223 158.962C70.0296 158.737 70.5106 158.624 71.0653 158.624C71.6199 158.624 72.1053 158.737 72.5213 158.962C72.9373 159.187 73.2839 159.508 73.5613 159.924C73.8386 160.331 74.0423 160.821 74.1723 161.393C74.3109 161.965 74.3803 162.598 74.3803 163.291ZM71.0653 165.956C71.4639 165.956 71.7673 165.739 71.9753 165.306C72.1833 164.873 72.2873 164.201 72.2873 163.291C72.2873 162.381 72.1833 161.709 71.9753 161.276C71.7759 160.843 71.4683 160.626 71.0523 160.626C70.2723 160.626 69.8823 161.514 69.8823 163.291C69.8823 164.227 69.9819 164.907 70.1813 165.332C70.3806 165.748 70.6753 165.956 71.0653 165.956Z" fill="white"/>
</svg>
