<svg width="186" height="116" viewBox="0 0 186 116" fill="none" xmlns="http://www.w3.org/2000/svg">
<rect x="183.75" y="1.75" width="112" height="182" transform="rotate(90 183.75 1.75)" fill="#634D8B"/>
<rect x="183.75" y="1.75" width="112" height="182" transform="rotate(90 183.75 1.75)" stroke="black" stroke-width="3.5"/>
<rect x="183.75" y="1.75" width="112" height="42" transform="rotate(90 183.75 1.75)" fill="#D93A96" stroke="black" stroke-width="3.5"/>
<path d="M121.668 39.0302C121.668 40.1655 121.443 41.0409 120.992 41.6562C120.541 42.2715 119.848 42.5792 118.912 42.5792C118.661 42.5792 118.414 42.5445 118.171 42.4752C117.937 42.4059 117.72 42.3062 117.521 42.1762C117.322 42.0462 117.144 41.8902 116.988 41.7082C116.841 41.5349 116.728 41.3442 116.65 41.1362L113.257 43.5412L112.542 41.3052L116.754 38.7052V38.6792H112.854L112.646 36.4692H121.668L121.668 39.0302ZM117.287 38.6792C117.278 38.7225 117.274 38.7659 117.274 38.8092C117.274 38.8525 117.274 38.8959 117.274 38.9392C117.274 39.1125 117.291 39.2859 117.326 39.4592C117.369 39.6325 117.439 39.7842 117.534 39.9142C117.638 40.0529 117.772 40.1612 117.937 40.2392C118.11 40.3259 118.327 40.3692 118.587 40.3692C118.899 40.3692 119.163 40.2869 119.38 40.1222C119.597 39.9662 119.727 39.6715 119.77 39.2382C119.779 39.1515 119.783 39.0605 119.783 38.9652C119.783 38.8785 119.783 38.7832 119.783 38.6792H117.287ZM116.26 46.4488C115.714 46.4488 115.294 46.5572 114.999 46.7738C114.713 46.9992 114.57 47.3545 114.57 47.8398C114.57 48.0738 114.596 48.2862 114.648 48.4768C114.709 48.6675 114.813 48.8322 114.96 48.9708C115.116 49.1182 115.328 49.2308 115.597 49.3088C115.866 49.3868 116.212 49.4258 116.637 49.4258H121.668L121.876 51.6358H115.805C115.285 51.6358 114.821 51.5362 114.414 51.3368C114.007 51.1375 113.664 50.8602 113.387 50.5048C113.11 50.1582 112.897 49.7508 112.75 49.2828C112.611 48.8148 112.542 48.3122 112.542 47.7748C112.542 46.6222 112.815 45.7425 113.361 45.1358C113.916 44.5378 114.678 44.2388 115.649 44.2388H121.668L121.876 46.4488H116.26ZM121.668 58.3957L119.783 58.7857V55.5617H118.236V57.8627H116.351V55.5617H114.635V59.0587L112.75 58.5127V53.3517H121.668V58.3957ZM121.668 67.3699C121.668 67.9939 121.551 68.5832 121.317 69.1379C121.092 69.6926 120.78 70.1736 120.381 70.5809C119.982 70.9969 119.51 71.3219 118.964 71.5559C118.418 71.7986 117.833 71.9199 117.209 71.9199C116.559 71.9199 115.961 71.7942 115.415 71.5429C114.869 71.2916 114.397 70.9579 113.998 70.5419C113.608 70.1259 113.3 69.6449 113.075 69.0989C112.858 68.5529 112.75 67.9809 112.75 67.3829V64.2499H121.668V67.3699ZM114.635 66.4599V67.1229C114.635 67.4696 114.7 67.7989 114.83 68.1109C114.96 68.4229 115.142 68.6959 115.376 68.9299C115.61 69.1726 115.883 69.3632 116.195 69.5019C116.507 69.6406 116.845 69.7099 117.209 69.7099C117.547 69.7099 117.868 69.6449 118.171 69.5149C118.483 69.3849 118.756 69.2029 118.99 68.9689C119.233 68.7436 119.423 68.4706 119.562 68.1499C119.709 67.8379 119.783 67.4999 119.783 67.1359V66.4599H114.635ZM121.668 78.3548L119.783 78.7448V75.5208H118.236V77.8218H116.351V75.5208H114.635V79.0178L112.75 78.4718V73.3108H121.668V78.3548ZM106.668 35.6219C106.668 36.8179 106.443 37.7106 105.992 38.2999C105.541 38.8893 104.813 39.1839 103.808 39.1839C103.366 39.1839 102.972 39.0973 102.625 38.9239C102.278 38.7506 101.979 38.5123 101.728 38.2089C101.485 37.9143 101.299 37.5633 101.169 37.1559C101.039 36.7573 100.974 36.3326 100.974 35.8819V35.0759H97.854L97.646 32.8659L106.668 32.8659V35.6219ZM102.859 35.0759V35.7259C102.859 36.1159 102.941 36.4193 103.106 36.6359C103.271 36.8613 103.509 36.9739 103.821 36.9739C104.133 36.9739 104.371 36.8613 104.536 36.6359C104.701 36.4193 104.783 36.1159 104.783 35.7259V35.0759H102.859ZM106.876 41.5065L103.275 43.7816L106.876 45.2246L106.226 47.3176L97.542 43.5865L97.828 41.2985L100.909 42.7285L106.031 39.4395L106.876 41.5065ZM106.668 53.9432H104.64V51.7982H97.854L97.646 49.5882H104.64V47.3002L106.668 47.8592V53.9432ZM103.418 57.2322V60.0922H106.668L106.876 62.3022H97.854L97.646 60.0922H101.39V57.2322H97.854L97.646 55.0222H106.668L106.876 57.2322H103.418ZM97.542 68.4511C97.542 67.8097 97.659 67.1987 97.893 66.6181C98.1357 66.0461 98.465 65.5434 98.881 65.1101C99.3057 64.6767 99.7997 64.3301 100.363 64.0701C100.935 63.8187 101.55 63.6931 102.209 63.6931C102.85 63.6931 103.453 63.8187 104.016 64.0701C104.588 64.3214 105.082 64.6594 105.498 65.0841C105.923 65.5174 106.256 66.0201 106.499 66.5921C106.75 67.1727 106.876 67.7924 106.876 68.4511C106.876 69.0924 106.755 69.6991 106.512 70.2711C106.278 70.8517 105.949 71.3587 105.524 71.7921C105.108 72.2254 104.614 72.5677 104.042 72.8191C103.479 73.0791 102.868 73.2091 102.209 73.2091C101.568 73.2091 100.961 73.0834 100.389 72.8321C99.8257 72.5807 99.3317 72.2384 98.907 71.8051C98.4823 71.3804 98.1487 70.8777 97.906 70.2971C97.6633 69.7251 97.542 69.1097 97.542 68.4511ZM99.57 68.4511C99.57 68.7977 99.6437 69.1271 99.791 69.4391C99.9383 69.7511 100.133 70.0197 100.376 70.2451C100.619 70.4791 100.9 70.6611 101.221 70.7911C101.542 70.9297 101.871 70.9991 102.209 70.9991C102.547 70.9991 102.872 70.9297 103.184 70.7911C103.505 70.6611 103.786 70.4791 104.029 70.2451C104.28 70.0197 104.48 69.7511 104.627 69.4391C104.774 69.1271 104.848 68.7934 104.848 68.4381C104.848 68.0914 104.774 67.7621 104.627 67.4501C104.48 67.1467 104.285 66.8781 104.042 66.6441C103.799 66.4187 103.518 66.2367 103.197 66.0981C102.885 65.9681 102.556 65.9031 102.209 65.9031C101.871 65.9031 101.542 65.9681 101.221 66.0981C100.9 66.2367 100.619 66.4187 100.376 66.6441C100.133 66.8781 99.9383 67.1467 99.791 67.4501C99.6437 67.7621 99.57 68.0957 99.57 68.4511ZM106.876 74.5522V74.5782L101.884 80.4152H106.668L106.876 82.6252H97.542V82.5992L102.638 76.7622H97.854L97.646 74.5522H106.876Z" fill="white"/>
<path d="M24.224 49.4372C24.3973 49.2725 24.5447 49.0689 24.666 48.8262C24.796 48.5835 24.861 48.3149 24.861 48.0202C24.861 47.5782 24.7527 47.2185 24.536 46.9412C24.328 46.6725 24.0723 46.4645 23.769 46.3172L23.769 48.3062L22.599 48.0722L22.599 46.0052L21.962 45.9922L21.962 47.9422L20.792 47.7212L20.792 46.2132C20.4193 46.3519 20.1203 46.5642 19.895 46.8502C19.6697 47.1449 19.557 47.5305 19.557 48.0072C19.557 48.2152 19.6133 48.4579 19.726 48.7352C19.8473 49.0212 20.012 49.2682 20.22 49.4762L17.867 49.2552C17.7457 49.0819 17.6633 48.8652 17.62 48.6052C17.568 48.3539 17.542 48.1155 17.542 47.8902C17.542 47.4309 17.6113 46.9932 17.75 46.5772C17.8973 46.1699 18.1097 45.8015 18.387 45.4722C18.6643 45.1429 19.0023 44.8569 19.401 44.6142C19.8083 44.3715 20.272 44.1895 20.792 44.0682V42.8982L21.962 43.1192V43.9122L22.599 43.9252V42.8982L23.769 43.1322V44.1202C24.7657 44.3975 25.5327 44.8699 26.07 45.5372C26.6073 46.2045 26.876 46.9802 26.876 47.8642C26.876 48.0462 26.8543 48.2455 26.811 48.4622C26.7677 48.6875 26.694 48.8999 26.59 49.0992L24.224 49.4372Z" fill="white"/>
<path d="M23.951 58.945C23.405 58.945 22.8763 58.815 22.365 58.555C21.8623 58.3037 21.3857 57.983 20.935 57.593L19.752 56.592V59.322L17.75 58.854V52.562L21.728 55.812C21.8753 55.9247 22.0313 56.0417 22.196 56.163C22.3693 56.293 22.547 56.4057 22.729 56.501C22.911 56.605 23.0973 56.6873 23.288 56.748C23.4787 56.8173 23.665 56.852 23.847 56.852C24.159 56.852 24.406 56.735 24.588 56.501C24.7787 56.267 24.874 55.9897 24.874 55.669C24.874 55.3917 24.7873 55.1447 24.614 54.928C24.4407 54.72 24.2067 54.616 23.912 54.616C23.6433 54.616 23.4223 54.6767 23.249 54.798C23.0757 54.928 22.9283 55.1187 22.807 55.37L21.182 54.148C21.468 53.654 21.8233 53.2597 22.248 52.965C22.6813 52.6703 23.184 52.523 23.756 52.523C24.2327 52.523 24.6617 52.5967 25.043 52.744C25.4243 52.9 25.7493 53.121 26.018 53.407C26.2953 53.693 26.5077 54.0397 26.655 54.447C26.8023 54.8543 26.876 55.3093 26.876 55.812C26.876 56.2627 26.8067 56.6787 26.668 57.06C26.5293 57.45 26.33 57.7837 26.07 58.061C25.8187 58.3383 25.511 58.555 25.147 58.711C24.7917 58.867 24.393 58.945 23.951 58.945ZM23.951 66.5586C23.405 66.5586 22.8763 66.4286 22.365 66.1686C21.8623 65.9173 21.3857 65.5966 20.935 65.2066L19.752 64.2056V66.9356L17.75 66.4676L17.75 60.1756L21.728 63.4256C21.8753 63.5383 22.0313 63.6553 22.196 63.7766C22.3693 63.9066 22.547 64.0193 22.729 64.1146C22.911 64.2186 23.0973 64.301 23.288 64.3616C23.4787 64.431 23.665 64.4656 23.847 64.4656C24.159 64.4656 24.406 64.3486 24.588 64.1146C24.7787 63.8806 24.874 63.6033 24.874 63.2826C24.874 63.0053 24.7873 62.7583 24.614 62.5416C24.4407 62.3336 24.2067 62.2296 23.912 62.2296C23.6433 62.2296 23.4223 62.2903 23.249 62.4116C23.0757 62.5416 22.9283 62.7323 22.807 62.9836L21.182 61.7616C21.468 61.2676 21.8233 60.8733 22.248 60.5786C22.6813 60.284 23.184 60.1366 23.756 60.1366C24.2327 60.1366 24.6617 60.2103 25.043 60.3576C25.4243 60.5136 25.7493 60.7346 26.018 61.0206C26.2953 61.3066 26.5077 61.6533 26.655 62.0606C26.8023 62.468 26.876 62.923 26.876 63.4256C26.876 63.8763 26.8067 64.2923 26.668 64.6736C26.5293 65.0636 26.33 65.3973 26.07 65.6746C25.8187 65.952 25.511 66.1686 25.147 66.3246C24.7917 66.4806 24.393 66.5586 23.951 66.5586ZM26.668 73.6263L24.666 73.1193L24.666 70.5843H23.886C23.912 70.7749 23.925 70.9396 23.925 71.0783C23.925 71.5289 23.8427 71.9449 23.678 72.3263C23.522 72.7076 23.3053 73.0326 23.028 73.3013C22.7507 73.5786 22.4213 73.7909 22.04 73.9383C21.6673 74.0943 21.26 74.1723 20.818 74.1723C20.324 74.1723 19.8733 74.0813 19.466 73.8993C19.0673 73.7173 18.725 73.4616 18.439 73.1323C18.153 72.8116 17.932 72.4303 17.776 71.9883C17.62 71.5549 17.542 71.0869 17.542 70.5843C17.542 69.9863 17.6373 69.4273 17.828 68.9073C18.0187 68.3959 18.322 67.9323 18.738 67.5163L20.311 69.0633C20.0423 69.2366 19.8473 69.4576 19.726 69.7263C19.6047 70.0036 19.544 70.2939 19.544 70.5973C19.544 70.7706 19.5743 70.9353 19.635 71.0913C19.7043 71.2473 19.7997 71.3859 19.921 71.5073C20.051 71.6286 20.1983 71.7239 20.363 71.7933C20.5363 71.8626 20.727 71.8973 20.935 71.8973C21.3337 71.8973 21.65 71.7413 21.884 71.4293C22.118 71.1259 22.235 70.7273 22.235 70.2333C22.235 69.9299 22.2003 69.6309 22.131 69.3363C22.0703 69.0503 21.988 68.7686 21.884 68.4913H26.668L26.668 73.6263Z" fill="white"/>
</svg>
