<svg width="186" height="116" viewBox="0 0 186 116" fill="none" xmlns="http://www.w3.org/2000/svg">
<rect x="1.75" y="113.75" width="112" height="182" transform="rotate(-90 1.75 113.75)" fill="#634D8B"/>
<rect x="1.75" y="113.75" width="112" height="182" transform="rotate(-90 1.75 113.75)" stroke="black" stroke-width="3.5"/>
<rect x="1.75" y="113.75" width="112" height="42" transform="rotate(-90 1.75 113.75)" fill="#1FB25A" stroke="black" stroke-width="3.5"/>
<path d="M63.832 90.5674C63.832 89.4581 64.0313 88.6044 64.43 88.0064C64.82 87.3997 65.4007 87.0964 66.172 87.0964C66.614 87.0964 66.9997 87.2047 67.329 87.4214C67.6583 87.6381 67.8967 87.9197 68.044 88.2664H68.07C68.226 87.8677 68.4947 87.5297 68.876 87.2524C69.2573 86.9751 69.721 86.8364 70.267 86.8364C71.073 86.8364 71.6883 87.1267 72.113 87.7074C72.5377 88.2794 72.75 89.0464 72.75 90.0084V93.1154H63.832V90.5674ZM67.381 90.9054V90.3334C67.381 89.9867 67.2987 89.7311 67.134 89.5664C66.9607 89.3931 66.7353 89.3064 66.458 89.3064C66.25 89.3064 66.068 89.3714 65.912 89.5014C65.8167 89.5794 65.7387 89.6964 65.678 89.8524C65.6173 89.9997 65.587 90.2207 65.587 90.5154V90.9054H67.381ZM70.995 90.9054V90.4634C70.995 90.0474 70.9517 89.7397 70.865 89.5404C70.7783 89.3411 70.6657 89.2111 70.527 89.1504C70.3883 89.0811 70.241 89.0464 70.085 89.0464C69.7903 89.0464 69.5607 89.1331 69.396 89.3064C69.2227 89.4797 69.136 89.8177 69.136 90.3204V90.9054H70.995ZM72.958 81.0818C72.958 81.7231 72.841 82.3341 72.607 82.9148C72.3643 83.4868 72.035 83.9894 71.619 84.4228C71.1943 84.8561 70.7003 85.2028 70.137 85.4628C69.565 85.7141 68.9497 85.8398 68.291 85.8398C67.6497 85.8398 67.0473 85.7141 66.484 85.4628C65.912 85.2114 65.418 84.8734 65.002 84.4488C64.5773 84.0154 64.2437 83.5128 64.001 82.9408C63.7497 82.3601 63.624 81.7404 63.624 81.0818C63.624 80.4404 63.7453 79.8338 63.988 79.2618C64.222 78.6811 64.5513 78.1741 64.976 77.7408C65.392 77.3074 65.886 76.9651 66.458 76.7138C67.0213 76.4538 67.6323 76.3238 68.291 76.3238C68.9323 76.3238 69.539 76.4494 70.111 76.7008C70.6743 76.9521 71.1683 77.2944 71.593 77.7278C72.0177 78.1524 72.3513 78.6551 72.594 79.2358C72.8367 79.8078 72.958 80.4231 72.958 81.0818ZM70.93 81.0818C70.93 80.7351 70.8563 80.4058 70.709 80.0938C70.5617 79.7818 70.3667 79.5131 70.124 79.2878C69.8813 79.0538 69.5997 78.8718 69.279 78.7418C68.9583 78.6031 68.629 78.5338 68.291 78.5338C67.953 78.5338 67.628 78.6031 67.316 78.7418C66.9953 78.8718 66.7137 79.0538 66.471 79.2878C66.2197 79.5131 66.0203 79.7818 65.873 80.0938C65.7257 80.4058 65.652 80.7394 65.652 81.0948C65.652 81.4414 65.7257 81.7708 65.873 82.0828C66.0203 82.3861 66.2153 82.6548 66.458 82.8888C66.7007 83.1141 66.9823 83.2961 67.303 83.4348C67.615 83.5648 67.9443 83.6298 68.291 83.6298C68.629 83.6298 68.9583 83.5648 69.279 83.4348C69.5997 83.2961 69.8813 83.1141 70.124 82.8888C70.3667 82.6548 70.5617 82.3861 70.709 82.0828C70.8563 81.7708 70.93 81.4371 70.93 81.0818ZM69.24 72.7836C69.786 72.7836 70.2063 72.6753 70.501 72.4586C70.787 72.2333 70.93 71.8779 70.93 71.3926C70.93 71.1586 70.904 70.9463 70.852 70.7556C70.7913 70.5649 70.6873 70.4003 70.54 70.2616C70.384 70.1143 70.1717 70.0016 69.903 69.9236C69.6343 69.8456 69.2877 69.8066 68.863 69.8066H63.832L63.624 67.5966H69.695C70.215 67.5966 70.6787 67.6963 71.086 67.8956C71.4933 68.0949 71.8357 68.3723 72.113 68.7276C72.3903 69.0743 72.6027 69.4816 72.75 69.9496C72.8887 70.4176 72.958 70.9203 72.958 71.4576C72.958 72.6103 72.685 73.4899 72.139 74.0966C71.5843 74.6946 70.8217 74.9936 69.851 74.9936H63.832L63.624 72.7836H69.24ZM70.722 63.6707V60.7457L72.75 61.3307V65.8807H63.832L63.624 63.6707H70.722ZM63.832 54.6703L65.717 54.2803V57.5043H67.264V55.2033H69.149V57.5043H70.865V54.0073L72.75 54.5533V59.7143H63.832V54.6703ZM63.624 51.6283L68.356 49.9123V49.8863L63.624 48.1443L64.053 45.9083L72.958 49.9643V49.9903L64.053 53.8773L63.624 51.6283ZM63.624 42.79V42.764L72.503 37.954L72.958 40.203L71.047 41.113V44.506L72.958 45.403L72.503 47.548L63.624 42.79ZM69.396 43.973V41.607L67.212 42.79L69.396 43.973ZM63.832 34.9902C63.832 33.8548 64.0573 32.9795 64.508 32.3642C64.9587 31.7488 65.652 31.4411 66.588 31.4411C66.8393 31.4411 67.0863 31.4758 67.329 31.5452C67.563 31.6145 67.7797 31.7141 67.979 31.8442C68.1783 31.9742 68.356 32.1301 68.512 32.3121C68.6593 32.4855 68.772 32.6762 68.85 32.8841L72.243 30.4791L72.958 32.7152L68.746 35.3152V35.3412H72.646L72.854 37.5512H63.832V34.9902ZM68.213 35.3412C68.2217 35.2978 68.226 35.2545 68.226 35.2112C68.226 35.1678 68.226 35.1245 68.226 35.0812C68.226 34.9078 68.2087 34.7345 68.174 34.5612C68.1307 34.3878 68.0613 34.2362 67.966 34.1062C67.862 33.9675 67.7277 33.8592 67.563 33.7811C67.3897 33.6945 67.173 33.6512 66.913 33.6512C66.601 33.6512 66.3367 33.7335 66.12 33.8982C65.9033 34.0542 65.7733 34.3488 65.73 34.7822C65.7213 34.8688 65.717 34.9598 65.717 35.0552C65.717 35.1418 65.717 35.2372 65.717 35.3412H68.213ZM63.832 26.6095C63.832 25.9855 63.949 25.3962 64.183 24.8415C64.4083 24.2869 64.7203 23.8059 65.119 23.3985C65.5177 22.9825 65.99 22.6575 66.536 22.4235C67.082 22.1809 67.667 22.0595 68.291 22.0595C68.941 22.0595 69.539 22.1852 70.085 22.4365C70.631 22.6879 71.1033 23.0215 71.502 23.4375C71.892 23.8535 72.1997 24.3345 72.425 24.8805C72.6417 25.4265 72.75 25.9985 72.75 26.5965V29.7295H63.832L63.832 26.6095ZM70.865 27.5195V26.8565C70.865 26.5099 70.8 26.1805 70.67 25.8685C70.54 25.5565 70.358 25.2835 70.124 25.0495C69.89 24.8069 69.617 24.6162 69.305 24.4775C68.993 24.3389 68.655 24.2695 68.291 24.2695C67.953 24.2695 67.6323 24.3345 67.329 24.4645C67.017 24.5945 66.744 24.7765 66.51 25.0105C66.2673 25.2359 66.0767 25.5089 65.938 25.8295C65.7907 26.1415 65.717 26.4795 65.717 26.8435V27.5195H70.865ZM81.289 62.8387C81.1157 63.0814 80.9683 63.3371 80.847 63.6057C80.717 63.8744 80.652 64.1604 80.652 64.4637C80.652 64.8364 80.717 65.1831 80.847 65.5037C80.9683 65.8157 81.146 66.0844 81.38 66.3097C81.6053 66.5351 81.8783 66.7127 82.199 66.8427C82.5197 66.9727 82.875 67.0377 83.265 67.0377C83.6637 67.0377 84.0277 66.9771 84.357 66.8557C84.6777 66.7257 84.955 66.5481 85.189 66.3227C85.423 66.0974 85.605 65.8287 85.735 65.5167C85.865 65.1961 85.93 64.8451 85.93 64.4637C85.93 64.1604 85.865 63.8701 85.735 63.5927C85.5963 63.3067 85.4403 63.0381 85.267 62.7867L87.633 63.0597C87.685 63.1464 87.7283 63.2591 87.763 63.3977C87.8063 63.5364 87.841 63.6837 87.867 63.8397C87.893 63.9871 87.9147 64.1344 87.932 64.2817C87.9493 64.4204 87.958 64.5331 87.958 64.6197C87.958 65.2957 87.8453 65.9197 87.62 66.4917C87.3947 67.0551 87.0783 67.5447 86.671 67.9607C86.2637 68.3681 85.7783 68.6844 85.215 68.9097C84.643 69.1351 84.0103 69.2477 83.317 69.2477C82.6583 69.2477 82.043 69.1351 81.471 68.9097C80.899 68.6844 80.4007 68.3681 79.976 67.9607C79.5513 67.5534 79.222 67.0681 78.988 66.5047C78.7453 65.9327 78.624 65.3087 78.624 64.6327C78.624 64.3727 78.6457 64.1214 78.689 63.8787C78.7323 63.6361 78.806 63.4021 78.91 63.1767L81.289 62.8387ZM81.042 57.2401H83.603V54.6791H85.189V57.2401H87.75V58.8261H85.189V61.3871H83.603V58.8261H81.042V57.2401ZM81.042 49.0552H83.603V46.4942H85.189V49.0552H87.75V50.6412H85.189V53.2022H83.603V50.6412H81.042V49.0552Z" fill="white"/>
<path d="M161.276 66.0628C161.103 66.2275 160.955 66.4311 160.834 66.6738C160.704 66.9165 160.639 67.1851 160.639 67.4798C160.639 67.9218 160.747 68.2815 160.964 68.5588C161.172 68.8275 161.428 69.0355 161.731 69.1828V67.1938L162.901 67.4278V69.4948L163.538 69.5078V67.5578L164.708 67.7788V69.2868C165.081 69.1481 165.38 68.9358 165.605 68.6498C165.83 68.3551 165.943 67.9695 165.943 67.4928C165.943 67.2848 165.887 67.0421 165.774 66.7648C165.653 66.4788 165.488 66.2318 165.28 66.0238L167.633 66.2448C167.754 66.4181 167.837 66.6348 167.88 66.8948C167.932 67.1461 167.958 67.3845 167.958 67.6098C167.958 68.0691 167.889 68.5068 167.75 68.9228C167.603 69.3301 167.39 69.6985 167.113 70.0278C166.836 70.3571 166.498 70.6431 166.099 70.8858C165.692 71.1285 165.228 71.3105 164.708 71.4318V72.6018L163.538 72.3808V71.5878L162.901 71.5748V72.6018L161.731 72.3678V71.3798C160.734 71.1025 159.967 70.6301 159.43 69.9628C158.893 69.2955 158.624 68.5198 158.624 67.6358C158.624 67.4538 158.646 67.2545 158.689 67.0378C158.732 66.8125 158.806 66.6001 158.91 66.4008L161.276 66.0628Z" fill="white"/>
<path d="M158.832 57.517H163.759V56.295L165.579 56.62V57.517H167.75L167.958 59.61H165.579V63.237L158.832 60.39V57.517ZM163.759 60.728V59.454H160.717V59.48L163.759 60.728ZM161.549 48.9414C162.095 48.9414 162.624 49.0714 163.135 49.3314C163.638 49.5827 164.114 49.9034 164.565 50.2934L165.748 51.2944V48.5644L167.75 49.0324V55.3244L163.772 52.0744C163.625 51.9617 163.469 51.8447 163.304 51.7234C163.131 51.5934 162.953 51.4807 162.771 51.3854C162.589 51.2814 162.403 51.199 162.212 51.1384C162.021 51.069 161.835 51.0344 161.653 51.0344C161.341 51.0344 161.094 51.1514 160.912 51.3854C160.721 51.6194 160.626 51.8967 160.626 52.2174C160.626 52.4947 160.713 52.7417 160.886 52.9584C161.059 53.1664 161.293 53.2704 161.588 53.2704C161.857 53.2704 162.078 53.2097 162.251 53.0884C162.424 52.9584 162.572 52.7677 162.693 52.5164L164.318 53.7384C164.032 54.2324 163.677 54.6267 163.252 54.9214C162.819 55.216 162.316 55.3634 161.744 55.3634C161.267 55.3634 160.838 55.2897 160.457 55.1424C160.076 54.9864 159.751 54.7654 159.482 54.4794C159.205 54.1934 158.992 53.8467 158.845 53.4394C158.698 53.032 158.624 52.577 158.624 52.0744C158.624 51.6237 158.693 51.2077 158.832 50.8264C158.971 50.4364 159.17 50.1027 159.43 49.8254C159.681 49.548 159.989 49.3314 160.353 49.1754C160.708 49.0194 161.107 48.9414 161.549 48.9414ZM158.832 41.8737L160.834 42.3807V44.9157H161.614C161.588 44.7251 161.575 44.5604 161.575 44.4217C161.575 43.9711 161.657 43.5551 161.822 43.1737C161.978 42.7924 162.195 42.4674 162.472 42.1987C162.749 41.9214 163.079 41.7091 163.46 41.5617C163.833 41.4057 164.24 41.3277 164.682 41.3277C165.176 41.3277 165.627 41.4187 166.034 41.6007C166.433 41.7827 166.775 42.0384 167.061 42.3677C167.347 42.6884 167.568 43.0697 167.724 43.5117C167.88 43.9451 167.958 44.4131 167.958 44.9157C167.958 45.5137 167.863 46.0727 167.672 46.5927C167.481 47.1041 167.178 47.5677 166.762 47.9837L165.189 46.4367C165.458 46.2634 165.653 46.0424 165.774 45.7737C165.895 45.4964 165.956 45.2061 165.956 44.9027C165.956 44.7294 165.926 44.5647 165.865 44.4087C165.796 44.2527 165.7 44.1141 165.579 43.9927C165.449 43.8714 165.302 43.7761 165.137 43.7067C164.964 43.6374 164.773 43.6027 164.565 43.6027C164.166 43.6027 163.85 43.7587 163.616 44.0707C163.382 44.3741 163.265 44.7727 163.265 45.2667C163.265 45.5701 163.3 45.8691 163.369 46.1637C163.43 46.4497 163.512 46.7314 163.616 47.0087H158.832V41.8737Z" fill="white"/>
</svg>
