<svg width="116" height="186" viewBox="0 0 116 186" fill="none" xmlns="http://www.w3.org/2000/svg">
<rect x="1.75" y="1.75" width="112" height="182" fill="#634D8B"/>
<rect x="1.75" y="1.75" width="112" height="182" stroke="black" stroke-width="3.5"/>
<rect x="1.75" y="1.75" width="112" height="42" fill="#AAE0FA" stroke="black" stroke-width="3.5"/>
<path d="M39.0302 63.832C40.1655 63.832 41.0409 64.0573 41.6562 64.508C42.2715 64.9587 42.5792 65.652 42.5792 66.588C42.5792 66.8393 42.5445 67.0863 42.4752 67.329C42.4059 67.563 42.3062 67.7797 42.1762 67.979C42.0462 68.1783 41.8902 68.356 41.7082 68.512C41.5349 68.6593 41.3442 68.772 41.1362 68.85L43.5412 72.243L41.3052 72.958L38.7052 68.746H38.6792V72.646L36.4692 72.854V63.832H39.0302ZM38.6792 68.213C38.7225 68.2217 38.7659 68.226 38.8092 68.226C38.8525 68.226 38.8959 68.226 38.9392 68.226C39.1125 68.226 39.2859 68.2087 39.4592 68.174C39.6325 68.1307 39.7842 68.0613 39.9142 67.966C40.0529 67.862 40.1612 67.7277 40.2392 67.563C40.3259 67.3897 40.3692 67.173 40.3692 66.913C40.3692 66.601 40.2869 66.3367 40.1222 66.12C39.9662 65.9033 39.6715 65.7733 39.2382 65.73C39.1515 65.7213 39.0605 65.717 38.9652 65.717C38.8785 65.717 38.7832 65.717 38.6792 65.717V68.213ZM46.4488 69.24C46.4488 69.786 46.5572 70.2063 46.7738 70.501C46.9992 70.787 47.3545 70.93 47.8398 70.93C48.0738 70.93 48.2862 70.904 48.4768 70.852C48.6675 70.7913 48.8322 70.6873 48.9708 70.54C49.1182 70.384 49.2308 70.1717 49.3088 69.903C49.3868 69.6343 49.4258 69.2877 49.4258 68.863V63.832L51.6358 63.624V69.695C51.6358 70.215 51.5362 70.6787 51.3368 71.086C51.1375 71.4933 50.8602 71.8357 50.5048 72.113C50.1582 72.3903 49.7508 72.6027 49.2828 72.75C48.8148 72.8887 48.3122 72.958 47.7748 72.958C46.6222 72.958 45.7425 72.685 45.1358 72.139C44.5378 71.5843 44.2388 70.8217 44.2388 69.851V63.832L46.4488 63.624V69.24ZM58.3957 63.832L58.7857 65.717H55.5617V67.264H57.8627V69.149H55.5617V70.865H59.0587L58.5127 72.75H53.3517V63.832H58.3957ZM67.3699 63.832C67.9939 63.832 68.5832 63.949 69.1379 64.183C69.6926 64.4083 70.1736 64.7203 70.5809 65.119C70.9969 65.5177 71.3219 65.99 71.5559 66.536C71.7986 67.082 71.9199 67.667 71.9199 68.291C71.9199 68.941 71.7942 69.539 71.5429 70.085C71.2916 70.631 70.9579 71.1033 70.5419 71.502C70.1259 71.892 69.6449 72.1997 69.0989 72.425C68.5529 72.6417 67.9809 72.75 67.3829 72.75H64.2499V63.832H67.3699ZM66.4599 70.865H67.1229C67.4696 70.865 67.7989 70.8 68.1109 70.67C68.4229 70.54 68.6959 70.358 68.9299 70.124C69.1726 69.89 69.3632 69.617 69.5019 69.305C69.6406 68.993 69.7099 68.655 69.7099 68.291C69.7099 67.953 69.6449 67.6323 69.5149 67.329C69.3849 67.017 69.2029 66.744 68.9689 66.51C68.7436 66.2673 68.4706 66.0767 68.1499 65.938C67.8379 65.7907 67.4999 65.717 67.1359 65.717H66.4599V70.865ZM78.3548 63.832L78.7448 65.717H75.5208V67.264H77.8218V69.149H75.5208V70.865H79.0178L78.4718 72.75H73.3108V63.832H78.3548ZM16.4825 85.722H19.4075L18.8225 87.75H14.2725V78.832L16.4825 78.624V85.722ZM20.2595 78.624C20.3809 78.6847 20.4935 78.7713 20.5975 78.884C20.7102 78.9967 20.8055 79.118 20.8835 79.248C20.9615 79.378 21.0222 79.5167 21.0655 79.664C21.1089 79.8027 21.1305 79.937 21.1305 80.067C21.1305 80.405 21.0395 80.7733 20.8575 81.172C20.6842 81.5707 20.3809 82.082 19.9475 82.706L18.9335 82.212C19.1502 81.8133 19.3105 81.4883 19.4145 81.237C19.5185 80.977 19.5705 80.7517 19.5705 80.561C19.5705 80.327 19.5012 80.119 19.3625 79.937C19.2325 79.7463 19.0679 79.6207 18.8685 79.56L20.2595 78.624ZM26.1314 78.624H26.1574L30.9674 87.503L28.7184 87.958L27.8084 86.047H24.4154L23.5184 87.958L21.3734 87.503L26.1314 78.624ZM24.9484 84.396H27.3144L26.1314 82.212L24.9484 84.396ZM33.7883 85.722H36.7133L36.1283 87.75H31.5783V78.832L33.7883 78.624V85.722ZM44.3226 81.471C44.0366 81.211 43.7116 81.0117 43.3476 80.873C42.9923 80.7257 42.6196 80.652 42.2296 80.652C41.831 80.652 41.467 80.7213 41.1376 80.86C40.817 80.99 40.5396 81.1763 40.3056 81.419C40.0716 81.653 39.8896 81.9303 39.7596 82.251C39.6296 82.5717 39.5646 82.9183 39.5646 83.291C39.5646 83.6897 39.634 84.0537 39.7726 84.383C39.92 84.7037 40.1193 84.981 40.3706 85.215C40.622 85.4403 40.921 85.618 41.2676 85.748C41.6143 85.8693 41.9913 85.93 42.3986 85.93C42.676 85.93 42.9316 85.8997 43.1656 85.839C43.4083 85.7783 43.5773 85.7003 43.6726 85.605V84.318H41.3586L41.9956 82.433H45.8826V87.048C45.6313 87.1953 45.3496 87.3253 45.0376 87.438C44.7343 87.5507 44.4136 87.646 44.0756 87.724C43.7463 87.802 43.4126 87.8583 43.0746 87.893C42.7453 87.9363 42.4246 87.958 42.1126 87.958C41.4713 87.958 40.8603 87.841 40.2796 87.607C39.7076 87.3643 39.205 87.035 38.7716 86.619C38.3383 86.1943 37.9916 85.7003 37.7316 85.137C37.4803 84.565 37.3546 83.9497 37.3546 83.291C37.3546 82.641 37.4803 82.0343 37.7316 81.471C37.983 80.899 38.3253 80.405 38.7586 79.989C39.192 79.5643 39.6946 79.2307 40.2666 78.988C40.8473 78.7453 41.4626 78.624 42.1126 78.624C42.5373 78.624 42.9316 78.6673 43.2956 78.754C43.6596 78.832 43.989 78.9317 44.2836 79.053C44.5783 79.1743 44.8383 79.3087 45.0636 79.456C45.289 79.6033 45.4753 79.742 45.6226 79.872L44.3226 81.471ZM51.8845 87.958C51.2431 87.958 50.6321 87.841 50.0515 87.607C49.4795 87.3643 48.9768 87.035 48.5435 86.619C48.1101 86.1943 47.7635 85.7003 47.5035 85.137C47.2521 84.565 47.1265 83.9497 47.1265 83.291C47.1265 82.6497 47.2521 82.0473 47.5035 81.484C47.7548 80.912 48.0928 80.418 48.5175 80.002C48.9508 79.5773 49.4535 79.2437 50.0255 79.001C50.6061 78.7497 51.2258 78.624 51.8845 78.624C52.5258 78.624 53.1325 78.7453 53.7045 78.988C54.2851 79.222 54.7921 79.5513 55.2255 79.976C55.6588 80.392 56.0011 80.886 56.2525 81.458C56.5125 82.0213 56.6425 82.6323 56.6425 83.291C56.6425 83.9323 56.5168 84.539 56.2655 85.111C56.0141 85.6743 55.6718 86.1683 55.2385 86.593C54.8138 87.0177 54.3111 87.3513 53.7305 87.594C53.1585 87.8367 52.5431 87.958 51.8845 87.958ZM51.8845 85.93C52.2311 85.93 52.5605 85.8563 52.8725 85.709C53.1845 85.5617 53.4531 85.3667 53.6785 85.124C53.9125 84.8813 54.0945 84.5997 54.2245 84.279C54.3631 83.9583 54.4325 83.629 54.4325 83.291C54.4325 82.953 54.3631 82.628 54.2245 82.316C54.0945 81.9953 53.9125 81.7137 53.6785 81.471C53.4531 81.2197 53.1845 81.0203 52.8725 80.873C52.5605 80.7257 52.2268 80.652 51.8715 80.652C51.5248 80.652 51.1955 80.7257 50.8835 80.873C50.5801 81.0203 50.3115 81.2153 50.0775 81.458C49.8521 81.7007 49.6701 81.9823 49.5315 82.303C49.4015 82.615 49.3365 82.9443 49.3365 83.291C49.3365 83.629 49.4015 83.9583 49.5315 84.279C49.6701 84.5997 49.8521 84.8813 50.0775 85.124C50.3115 85.3667 50.5801 85.5617 50.8835 85.709C51.1955 85.8563 51.5291 85.93 51.8845 85.93ZM60.3776 78.832C61.513 78.832 62.3883 79.0573 63.0036 79.508C63.619 79.9587 63.9266 80.652 63.9266 81.588C63.9266 81.8393 63.892 82.0863 63.8226 82.329C63.7533 82.563 63.6536 82.7797 63.5236 82.979C63.3936 83.1783 63.2376 83.356 63.0556 83.512C62.8823 83.6593 62.6916 83.772 62.4836 83.85L64.8886 87.243L62.6526 87.958L60.0526 83.746H60.0266V87.646L57.8166 87.854L57.8166 78.832H60.3776ZM60.0266 83.213C60.07 83.2217 60.1133 83.226 60.1566 83.226C60.2 83.226 60.2433 83.226 60.2866 83.226C60.46 83.226 60.6333 83.2087 60.8066 83.174C60.98 83.1307 61.1316 83.0613 61.2616 82.966C61.4003 82.862 61.5086 82.7277 61.5866 82.563C61.6733 82.3897 61.7166 82.173 61.7166 81.913C61.7166 81.601 61.6343 81.3367 61.4696 81.12C61.3136 80.9033 61.019 80.7733 60.5856 80.73C60.499 80.7213 60.408 80.717 60.3126 80.717C60.226 80.717 60.1306 80.717 60.0266 80.717L60.0266 83.213ZM67.8613 87.646L65.6513 87.854V78.832L67.8613 78.624V87.646ZM75.4574 78.832V80.86H73.3124V87.646L71.1024 87.854V80.86H68.8144L69.3734 78.832H75.4574ZM78.7464 82.082H81.6064V78.832L83.8164 78.624V87.646L81.6064 87.854V84.11H78.7464V87.646L76.5364 87.854V78.832L78.7464 78.624V82.082ZM87.1313 78.624H87.1573L89.9653 84.084L92.8643 78.624H92.8903L95.2563 87.646L93.0333 87.958L92.2663 83.668H92.2403L89.9003 87.958H89.8743L87.7423 83.681H87.7163L86.9493 87.958L84.6873 87.646L87.1313 78.624ZM101.149 78.832L101.539 80.717H98.3155V82.264H100.616V84.149H98.3155V85.865H101.812L101.266 87.75H96.1055V78.832H101.149Z" fill="white"/>
<path d="M49.4372 161.276C49.2725 161.103 49.0689 160.955 48.8262 160.834C48.5835 160.704 48.3149 160.639 48.0202 160.639C47.5782 160.639 47.2185 160.747 46.9412 160.964C46.6725 161.172 46.4645 161.428 46.3172 161.731H48.3062L48.0722 162.901H46.0052L45.9922 163.538H47.9422L47.7212 164.708H46.2132C46.3519 165.081 46.5642 165.38 46.8502 165.605C47.1449 165.83 47.5305 165.943 48.0072 165.943C48.2152 165.943 48.4579 165.887 48.7352 165.774C49.0212 165.653 49.2682 165.488 49.4762 165.28L49.2552 167.633C49.0819 167.754 48.8652 167.837 48.6052 167.88C48.3539 167.932 48.1155 167.958 47.8902 167.958C47.4309 167.958 46.9932 167.889 46.5772 167.75C46.1699 167.603 45.8015 167.39 45.4722 167.113C45.1429 166.836 44.8569 166.498 44.6142 166.099C44.3715 165.692 44.1895 165.228 44.0682 164.708H42.8982L43.1192 163.538H43.9122L43.9252 162.901H42.8982L43.1322 161.731H44.1202C44.3975 160.734 44.8699 159.967 45.5372 159.43C46.2045 158.893 46.9802 158.624 47.8642 158.624C48.0462 158.624 48.2455 158.646 48.4622 158.689C48.6875 158.732 48.8999 158.806 49.0992 158.91L49.4372 161.276Z" fill="white"/>
<path d="M57.32 158.624V167.75L55.227 167.958V161.887L53.719 162.615L52.978 161.328L57.32 158.624ZM66.0126 158.832L65.5056 160.834H62.9706V161.614C63.1613 161.588 63.326 161.575 63.4646 161.575C63.9153 161.575 64.3313 161.657 64.7126 161.822C65.094 161.978 65.419 162.195 65.6876 162.472C65.965 162.749 66.1773 163.079 66.3246 163.46C66.4806 163.833 66.5586 164.24 66.5586 164.682C66.5586 165.176 66.4676 165.627 66.2856 166.034C66.1036 166.433 65.848 166.775 65.5186 167.061C65.198 167.347 64.8166 167.568 64.3746 167.724C63.9413 167.88 63.4733 167.958 62.9706 167.958C62.3726 167.958 61.8136 167.863 61.2936 167.672C60.7823 167.481 60.3186 167.178 59.9026 166.762L61.4496 165.189C61.623 165.458 61.844 165.653 62.1126 165.774C62.39 165.895 62.6803 165.956 62.9836 165.956C63.157 165.956 63.3216 165.926 63.4776 165.865C63.6336 165.796 63.7723 165.7 63.8936 165.579C64.015 165.449 64.1103 165.302 64.1796 165.137C64.249 164.964 64.2836 164.773 64.2836 164.565C64.2836 164.166 64.1276 163.85 63.8156 163.616C63.5123 163.382 63.1136 163.265 62.6196 163.265C62.3163 163.265 62.0173 163.3 61.7226 163.369C61.4366 163.43 61.155 163.512 60.8776 163.616V158.832H66.0126ZM74.3803 163.291C74.3803 163.976 74.3109 164.604 74.1723 165.176C74.0423 165.748 73.8386 166.242 73.5613 166.658C73.2926 167.065 72.9503 167.386 72.5343 167.62C72.1183 167.845 71.6286 167.958 71.0653 167.958C70.5106 167.958 70.0296 167.845 69.6223 167.62C69.2149 167.386 68.8726 167.065 68.5953 166.658C68.3266 166.251 68.1229 165.761 67.9843 165.189C67.8543 164.617 67.7893 163.984 67.7893 163.291C67.7893 162.598 67.8543 161.965 67.9843 161.393C68.1229 160.821 68.3266 160.331 68.5953 159.924C68.8726 159.508 69.2149 159.187 69.6223 158.962C70.0296 158.737 70.5106 158.624 71.0653 158.624C71.6199 158.624 72.1053 158.737 72.5213 158.962C72.9373 159.187 73.2839 159.508 73.5613 159.924C73.8386 160.331 74.0423 160.821 74.1723 161.393C74.3109 161.965 74.3803 162.598 74.3803 163.291ZM71.0653 165.956C71.4639 165.956 71.7673 165.739 71.9753 165.306C72.1833 164.873 72.2873 164.201 72.2873 163.291C72.2873 162.381 72.1833 161.709 71.9753 161.276C71.7759 160.843 71.4683 160.626 71.0523 160.626C70.2723 160.626 69.8823 161.514 69.8823 163.291C69.8823 164.227 69.9819 164.907 70.1813 165.332C70.3806 165.748 70.6753 165.956 71.0653 165.956Z" fill="white"/>
</svg>
