<svg width="116" height="186" viewBox="0 0 116 186" fill="none" xmlns="http://www.w3.org/2000/svg">
<rect x="113.75" y="183.75" width="112" height="182" transform="rotate(180 113.75 183.75)" fill="#634D8B"/>
<rect x="113.75" y="183.75" width="112" height="182" transform="rotate(180 113.75 183.75)" stroke="black" stroke-width="3.5"/>
<rect x="113.75" y="183.75" width="112" height="42" transform="rotate(180 113.75 183.75)" fill="#FEF200" stroke="black" stroke-width="3.5"/>
<path d="M77.3602 121.668C76.2249 121.668 75.3496 121.443 74.7342 120.992C74.1189 120.541 73.8112 119.848 73.8112 118.912C73.8112 118.661 73.8459 118.414 73.9152 118.171C73.9846 117.937 74.0842 117.72 74.2142 117.521C74.3442 117.322 74.5002 117.144 74.6822 116.988C74.8556 116.841 75.0462 116.728 75.2542 116.65L72.8492 113.257L75.0852 112.542L77.6852 116.754H77.7112V112.854L79.9212 112.646V121.668H77.3602ZM77.7112 117.287C77.6679 117.278 77.6246 117.274 77.5812 117.274C77.5379 117.274 77.4946 117.274 77.4512 117.274C77.2779 117.274 77.1046 117.291 76.9312 117.326C76.7579 117.369 76.6062 117.439 76.4762 117.534C76.3376 117.638 76.2292 117.772 76.1512 117.937C76.0646 118.11 76.0212 118.327 76.0212 118.587C76.0212 118.899 76.1036 119.163 76.2682 119.38C76.4242 119.597 76.7189 119.727 77.1522 119.77C77.2389 119.779 77.3299 119.783 77.4252 119.783C77.5119 119.783 77.6072 119.783 77.7112 119.783V117.287ZM69.9416 116.26C69.9416 115.714 69.8333 115.294 69.6166 114.999C69.3913 114.713 69.0359 114.57 68.5506 114.57C68.3166 114.57 68.1043 114.596 67.9136 114.648C67.7229 114.709 67.5583 114.813 67.4196 114.96C67.2723 115.116 67.1596 115.328 67.0816 115.597C67.0036 115.866 66.9646 116.212 66.9646 116.637V121.668L64.7546 121.876V115.805C64.7546 115.285 64.8543 114.821 65.0536 114.414C65.2529 114.007 65.5303 113.664 65.8856 113.387C66.2323 113.11 66.6396 112.897 67.1076 112.75C67.5756 112.611 68.0783 112.542 68.6156 112.542C69.7683 112.542 70.6479 112.815 71.2546 113.361C71.8526 113.916 72.1516 114.678 72.1516 115.649V121.668L69.9416 121.876V116.26ZM57.9947 121.668L57.6047 119.783H60.8287V118.236H58.5277V116.351H60.8287V114.635H57.3317L57.8777 112.75H63.0387V121.668H57.9947ZM49.0206 121.668C48.3966 121.668 47.8072 121.551 47.2526 121.317C46.6979 121.092 46.2169 120.78 45.8096 120.381C45.3936 119.982 45.0686 119.51 44.8346 118.964C44.5919 118.418 44.4706 117.833 44.4706 117.209C44.4706 116.559 44.5962 115.961 44.8476 115.415C45.0989 114.869 45.4326 114.397 45.8486 113.998C46.2646 113.608 46.7456 113.3 47.2916 113.075C47.8376 112.858 48.4096 112.75 49.0076 112.75H52.1406V121.668H49.0206ZM49.9306 114.635H49.2676C48.9209 114.635 48.5916 114.7 48.2796 114.83C47.9676 114.96 47.6946 115.142 47.4606 115.376C47.2179 115.61 47.0272 115.883 46.8886 116.195C46.7499 116.507 46.6806 116.845 46.6806 117.209C46.6806 117.547 46.7456 117.868 46.8756 118.171C47.0056 118.483 47.1876 118.756 47.4216 118.99C47.6469 119.233 47.9199 119.423 48.2406 119.562C48.5526 119.709 48.8906 119.783 49.2546 119.783H49.9306V114.635ZM40.9217 116.26C40.9217 115.714 40.8133 115.294 40.5967 114.999C40.3713 114.713 40.016 114.57 39.5307 114.57C39.2967 114.57 39.0843 114.596 38.8937 114.648C38.703 114.709 38.5383 114.813 38.3997 114.96C38.2523 115.116 38.1397 115.328 38.0617 115.597C37.9837 115.866 37.9447 116.212 37.9447 116.637V121.668L35.7347 121.876V115.805C35.7347 115.285 35.8343 114.821 36.0337 114.414C36.233 114.007 36.5103 113.664 36.8657 113.387C37.2123 113.11 37.6197 112.897 38.0877 112.75C38.5557 112.611 39.0583 112.542 39.5957 112.542C40.7483 112.542 41.628 112.815 42.2347 113.361C42.8327 113.916 43.1317 114.678 43.1317 115.649V121.668L40.9217 121.876V116.26ZM94.2308 104.315C94.5082 104.566 94.7638 104.74 94.9978 104.835C95.2318 104.939 95.4615 104.991 95.6868 104.991C95.9902 104.991 96.2502 104.93 96.4668 104.809C96.6835 104.688 96.7918 104.514 96.7918 104.289C96.7918 104.15 96.7572 104.029 96.6878 103.925C96.6098 103.83 96.5058 103.743 96.3758 103.665C96.2458 103.596 96.0942 103.531 95.9208 103.47C95.7475 103.409 95.5655 103.349 95.3748 103.288C95.0888 103.193 94.7942 103.084 94.4908 102.963C94.1788 102.85 93.9015 102.694 93.6588 102.495C93.4075 102.296 93.2038 102.036 93.0478 101.715C92.8832 101.403 92.8008 101.004 92.8008 100.519C92.8008 100.008 92.8962 99.5657 93.0868 99.193C93.2688 98.8203 93.5202 98.5083 93.8408 98.257C94.1528 98.0143 94.5168 97.8367 94.9328 97.724C95.3402 97.6027 95.7692 97.542 96.2198 97.542C96.8005 97.542 97.3595 97.6287 97.8968 97.802C98.4255 97.9753 98.8978 98.2397 99.3138 98.595L97.9878 100.285C97.7972 100.06 97.5545 99.882 97.2598 99.752C96.9652 99.6307 96.6662 99.57 96.3628 99.57C96.0335 99.57 95.7475 99.6393 95.5048 99.778C95.2622 99.9167 95.1408 100.112 95.1408 100.363C95.1408 100.528 95.1928 100.662 95.2968 100.766C95.4008 100.879 95.5395 100.974 95.7128 101.052C95.8775 101.139 96.0725 101.217 96.2978 101.286C96.5232 101.355 96.7528 101.429 96.9868 101.507C97.2468 101.594 97.5068 101.702 97.7668 101.832C98.0182 101.962 98.2478 102.127 98.4558 102.326C98.6552 102.525 98.8198 102.768 98.9498 103.054C99.0712 103.349 99.1318 103.704 99.1318 104.12C99.1318 104.536 99.0452 104.913 98.8718 105.251C98.6985 105.589 98.4645 105.875 98.1698 106.109C97.8752 106.352 97.5328 106.538 97.1428 106.668C96.7442 106.807 96.3238 106.876 95.8818 106.876C95.3618 106.876 94.8548 106.785 94.3608 106.603C93.8668 106.43 93.4205 106.178 93.0218 105.849L94.2308 104.315ZM87.7482 106.876H87.7222L82.9122 97.997L85.1612 97.542L86.0712 99.453H89.4642L90.3612 97.542L92.5062 97.997L87.7482 106.876ZM88.9312 101.104H86.5652L87.7482 103.288L88.9312 101.104ZM80.0783 97.854L82.2883 97.646V106.668L80.0783 106.876V97.854ZM78.3321 106.876H78.3061L72.4691 101.884V106.668L70.2591 106.876V97.542H70.2851L76.1221 102.638V97.854L78.3321 97.646V106.876ZM62.7103 106.668V104.64H64.8553V97.854L67.0653 97.646V104.64H69.3533L68.7943 106.668H62.7103ZM59.4372 101.988V100.22H62.8042V101.988H59.4372ZM55.5241 106.668C54.3887 106.668 53.5134 106.443 52.8981 105.992C52.2827 105.541 51.9751 104.848 51.9751 103.912C51.9751 103.661 52.0097 103.414 52.0791 103.171C52.1484 102.937 52.2481 102.72 52.3781 102.521C52.5081 102.322 52.6641 102.144 52.8461 101.988C53.0194 101.841 53.2101 101.728 53.4181 101.65L51.0131 98.257L53.2491 97.542L55.8491 101.754H55.8751V97.854L58.0851 97.646V106.668H55.5241ZM55.8751 102.287C55.8317 102.278 55.7884 102.274 55.7451 102.274C55.7017 102.274 55.6584 102.274 55.6151 102.274C55.4417 102.274 55.2684 102.291 55.0951 102.326C54.9217 102.369 54.7701 102.439 54.6401 102.534C54.5014 102.638 54.3931 102.772 54.3151 102.937C54.2284 103.11 54.1851 103.327 54.1851 103.587C54.1851 103.899 54.2674 104.163 54.4321 104.38C54.5881 104.597 54.8827 104.727 55.3161 104.77C55.4027 104.779 55.4937 104.783 55.5891 104.783C55.6757 104.783 55.7711 104.783 55.8751 104.783V102.287ZM45.2194 106.668L44.8294 104.783H48.0534V103.236H45.7524V101.351H48.0534V99.635H44.5564L45.1024 97.75H50.2634V106.668H45.2194ZM45.2974 109.229L47.3514 107.305H48.9244L47.6634 109.229H45.2974ZM38.6284 104.315C38.9058 104.566 39.1614 104.74 39.3954 104.835C39.6294 104.939 39.8591 104.991 40.0844 104.991C40.3878 104.991 40.6478 104.93 40.8644 104.809C41.0811 104.688 41.1894 104.514 41.1894 104.289C41.1894 104.15 41.1548 104.029 41.0854 103.925C41.0074 103.83 40.9034 103.743 40.7734 103.665C40.6434 103.596 40.4918 103.531 40.3184 103.47C40.1451 103.409 39.9631 103.349 39.7724 103.288C39.4864 103.193 39.1918 103.084 38.8884 102.963C38.5764 102.85 38.2991 102.694 38.0564 102.495C37.8051 102.296 37.6014 102.036 37.4454 101.715C37.2808 101.403 37.1984 101.004 37.1984 100.519C37.1984 100.008 37.2938 99.5657 37.4844 99.193C37.6664 98.8203 37.9178 98.5083 38.2384 98.257C38.5504 98.0143 38.9144 97.8367 39.3304 97.724C39.7378 97.6027 40.1668 97.542 40.6174 97.542C41.1981 97.542 41.7571 97.6287 42.2944 97.802C42.8231 97.9753 43.2954 98.2397 43.7114 98.595L42.3854 100.285C42.1948 100.06 41.9521 99.882 41.6574 99.752C41.3628 99.6307 41.0638 99.57 40.7604 99.57C40.4311 99.57 40.1451 99.6393 39.9024 99.778C39.6598 99.9167 39.5384 100.112 39.5384 100.363C39.5384 100.528 39.5904 100.662 39.6944 100.766C39.7984 100.879 39.9371 100.974 40.1104 101.052C40.2751 101.139 40.4701 101.217 40.6954 101.286C40.9208 101.355 41.1504 101.429 41.3844 101.507C41.6444 101.594 41.9044 101.702 42.1644 101.832C42.4158 101.962 42.6454 102.127 42.8534 102.326C43.0528 102.525 43.2174 102.768 43.3474 103.054C43.4688 103.349 43.5294 103.704 43.5294 104.12C43.5294 104.536 43.4428 104.913 43.2694 105.251C43.0961 105.589 42.8621 105.875 42.5674 106.109C42.2728 106.352 41.9304 106.538 41.5404 106.668C41.1418 106.807 40.7214 106.876 40.2794 106.876C39.7594 106.876 39.2524 106.785 38.7584 106.603C38.2644 106.43 37.8181 106.178 37.4194 105.849L38.6284 104.315ZM30.7158 106.668L30.3258 104.783H33.5498V103.236H31.2488V101.351H33.5498V99.635H30.0528L30.5988 97.75H35.7598V106.668H30.7158ZM25.2558 106.876H25.2298L20.4198 97.997L22.6688 97.542L23.5788 99.453H26.9718L27.8688 97.542L30.0138 97.997L25.2558 106.876ZM26.4388 101.104H24.0728L25.2558 103.288L26.4388 101.104ZM17.6509 101.26C17.6509 100.714 17.5426 100.294 17.3259 99.999C17.1006 99.713 16.7452 99.57 16.2599 99.57C16.0259 99.57 15.8136 99.596 15.6229 99.648C15.4322 99.7087 15.2676 99.8127 15.1289 99.96C14.9816 100.116 14.8689 100.328 14.7909 100.597C14.7129 100.866 14.6739 101.212 14.6739 101.637V106.668L12.4639 106.876V100.805C12.4639 100.285 12.5636 99.8213 12.7629 99.414C12.9622 99.0067 13.2396 98.6643 13.5949 98.387C13.9416 98.1097 14.3489 97.8973 14.8169 97.75C15.2849 97.6113 15.7876 97.542 16.3249 97.542C17.4776 97.542 18.3572 97.815 18.9639 98.361C19.5619 98.9157 19.8609 99.6783 19.8609 100.649V106.668L17.6509 106.876V101.26Z" fill="white"/>
<path d="M66.0628 24.224C66.2275 24.3973 66.4311 24.5447 66.6738 24.666C66.9165 24.796 67.1851 24.861 67.4798 24.861C67.9218 24.861 68.2815 24.7527 68.5588 24.536C68.8275 24.328 69.0355 24.0723 69.1828 23.769H67.1938L67.4278 22.599H69.4948L69.5078 21.962H67.5578L67.7788 20.792H69.2868C69.1481 20.4193 68.9358 20.1203 68.6498 19.895C68.3551 19.6697 67.9695 19.557 67.4928 19.557C67.2848 19.557 67.0421 19.6133 66.7648 19.726C66.4788 19.8473 66.2318 20.012 66.0238 20.22L66.2448 17.867C66.4181 17.7457 66.6348 17.6633 66.8948 17.62C67.1461 17.568 67.3845 17.542 67.6098 17.542C68.0691 17.542 68.5068 17.6113 68.9228 17.75C69.3301 17.8973 69.6985 18.1097 70.0278 18.387C70.3571 18.6643 70.6431 19.0023 70.8858 19.401C71.1285 19.8083 71.3105 20.272 71.4318 20.792H72.6018L72.3808 21.962H71.5878L71.5748 22.599H72.6018L72.3678 23.769H71.3798C71.1025 24.7657 70.6301 25.5327 69.9628 26.07C69.2955 26.6073 68.5198 26.876 67.6358 26.876C67.4538 26.876 67.2545 26.8543 67.0378 26.811C66.8125 26.7677 66.6001 26.694 66.4008 26.59L66.0628 24.224Z" fill="white"/>
<path d="M56.906 24.263C56.906 23.873 56.9797 23.5437 57.127 23.275C57.2657 23.0063 57.478 22.7463 57.764 22.495C57.374 22.2957 57.0663 22.0053 56.841 21.624C56.6157 21.2513 56.503 20.844 56.503 20.402C56.503 19.9427 56.5897 19.5353 56.763 19.18C56.9363 18.8333 57.179 18.5343 57.491 18.283C57.7943 18.0403 58.1627 17.8583 58.596 17.737C59.0207 17.607 59.4887 17.542 60 17.542C60.5807 17.542 61.144 17.6677 61.69 17.919C62.2273 18.179 62.691 18.53 63.081 18.972L61.612 20.454C61.3867 20.168 61.157 19.9427 60.923 19.778C60.6803 19.622 60.377 19.544 60.013 19.544C59.623 19.544 59.3197 19.6393 59.103 19.83C58.8863 20.0293 58.778 20.298 58.778 20.636C58.778 21.078 58.999 21.3597 59.441 21.481C59.5537 21.5157 59.6793 21.533 59.818 21.533C59.9567 21.5417 60.1083 21.546 60.273 21.546H60.923V23.106H60.39C60.1907 23.106 60.0087 23.119 59.844 23.145C59.6707 23.171 59.5233 23.2187 59.402 23.288C59.272 23.366 59.1723 23.4657 59.103 23.587C59.0337 23.7083 58.999 23.86 58.999 24.042C58.999 24.406 59.1117 24.666 59.337 24.822C59.5623 24.978 59.818 25.056 60.104 25.056C60.416 25.056 60.6717 24.9737 60.871 24.809C61.0703 24.653 61.2783 24.4797 61.495 24.289L63.042 25.173C62.678 25.745 62.21 26.1697 61.638 26.447C61.066 26.733 60.455 26.876 59.805 26.876C59.3803 26.876 58.9903 26.811 58.635 26.681C58.2797 26.551 57.9763 26.369 57.725 26.135C57.465 25.9097 57.2657 25.6367 57.127 25.316C56.9797 24.9953 56.906 24.6443 56.906 24.263ZM49.4874 26.668L49.9944 24.666H52.5294V23.886C52.3387 23.912 52.174 23.925 52.0354 23.925C51.5847 23.925 51.1687 23.8427 50.7874 23.678C50.406 23.522 50.081 23.3053 49.8124 23.028C49.535 22.7507 49.3227 22.4213 49.1754 22.04C49.0194 21.6673 48.9414 21.26 48.9414 20.818C48.9414 20.324 49.0324 19.8733 49.2144 19.466C49.3964 19.0673 49.652 18.725 49.9814 18.439C50.302 18.153 50.6834 17.932 51.1254 17.776C51.5587 17.62 52.0267 17.542 52.5294 17.542C53.1274 17.542 53.6864 17.6373 54.2064 17.828C54.7177 18.0187 55.1814 18.322 55.5974 18.738L54.0504 20.311C53.877 20.0423 53.656 19.8473 53.3874 19.726C53.11 19.6047 52.8197 19.544 52.5164 19.544C52.343 19.544 52.1784 19.5743 52.0224 19.635C51.8664 19.7043 51.7277 19.7997 51.6064 19.921C51.485 20.051 51.3897 20.1983 51.3204 20.363C51.251 20.5363 51.2164 20.727 51.2164 20.935C51.2164 21.3337 51.3724 21.65 51.6844 21.884C51.9877 22.118 52.3864 22.235 52.8804 22.235C53.1837 22.235 53.4827 22.2003 53.7774 22.131C54.0634 22.0703 54.345 21.988 54.6224 21.884V26.668H49.4874ZM41.1197 22.209C41.1197 21.5243 41.1891 20.896 41.3277 20.324C41.4577 19.752 41.6614 19.258 41.9387 18.842C42.2074 18.4347 42.5497 18.114 42.9657 17.88C43.3817 17.6547 43.8714 17.542 44.4347 17.542C44.9894 17.542 45.4704 17.6547 45.8777 17.88C46.2851 18.114 46.6274 18.4347 46.9047 18.842C47.1734 19.2493 47.3771 19.739 47.5157 20.311C47.6457 20.883 47.7107 21.5157 47.7107 22.209C47.7107 22.9023 47.6457 23.535 47.5157 24.107C47.3771 24.679 47.1734 25.1687 46.9047 25.576C46.6274 25.992 46.2851 26.3127 45.8777 26.538C45.4704 26.7633 44.9894 26.876 44.4347 26.876C43.8801 26.876 43.3947 26.7633 42.9787 26.538C42.5627 26.3127 42.2161 25.992 41.9387 25.576C41.6614 25.1687 41.4577 24.679 41.3277 24.107C41.1891 23.535 41.1197 22.9023 41.1197 22.209ZM44.4347 19.544C44.0361 19.544 43.7327 19.7607 43.5247 20.194C43.3167 20.6273 43.2127 21.299 43.2127 22.209C43.2127 23.119 43.3167 23.7907 43.5247 24.224C43.7241 24.6573 44.0317 24.874 44.4477 24.874C45.2277 24.874 45.6177 23.9857 45.6177 22.209C45.6177 21.273 45.5181 20.5927 45.3187 20.168C45.1194 19.752 44.8247 19.544 44.4347 19.544Z" fill="white"/>
</svg>
