<svg width="244" height="157" viewBox="0 0 244 157" fill="none" xmlns="http://www.w3.org/2000/svg">
<rect width="244" height="157" fill="white"/>
<rect x="9" y="9" width="226" height="139" stroke="black"/>
<path d="M106.19 23.036C105.966 22.876 105.73 22.74 105.482 22.628C105.234 22.508 104.97 22.448 104.69 22.448C104.346 22.448 104.026 22.508 103.73 22.628C103.442 22.74 103.194 22.904 102.986 23.12C102.778 23.328 102.614 23.58 102.494 23.876C102.374 24.172 102.314 24.5 102.314 24.86C102.314 25.228 102.37 25.564 102.482 25.868C102.602 26.164 102.766 26.42 102.974 26.636C103.182 26.852 103.43 27.02 103.718 27.14C104.014 27.26 104.338 27.32 104.69 27.32C104.97 27.32 105.238 27.26 105.494 27.14C105.758 27.012 106.006 26.868 106.238 26.708L105.986 28.892C105.906 28.94 105.802 28.98 105.674 29.012C105.546 29.052 105.41 29.084 105.266 29.108C105.13 29.132 104.994 29.152 104.858 29.168C104.73 29.184 104.626 29.192 104.546 29.192C103.922 29.192 103.346 29.088 102.818 28.88C102.298 28.672 101.846 28.38 101.462 28.004C101.086 27.628 100.794 27.18 100.586 26.66C100.378 26.132 100.274 25.548 100.274 24.908C100.274 24.3 100.378 23.732 100.586 23.204C100.794 22.676 101.086 22.216 101.462 21.824C101.838 21.432 102.286 21.128 102.806 20.912C103.334 20.688 103.91 20.576 104.534 20.576C104.774 20.576 105.006 20.596 105.23 20.636C105.454 20.676 105.67 20.744 105.878 20.84L106.19 23.036ZM109.342 23.768H111.982V20.768L114.022 20.576V28.904L111.982 29.096V25.64H109.342V28.904L107.302 29.096V20.768L109.342 20.576V23.768ZM118.642 20.576H118.666L123.106 28.772L121.03 29.192L120.19 27.428L117.058 27.428L116.23 29.192L114.25 28.772L118.642 20.576ZM117.55 25.904L119.734 25.904L118.642 23.888L117.55 25.904ZM123.274 20.576H123.298L128.686 25.184V20.768L130.726 20.576V29.192H130.702L125.314 24.488V28.904L123.274 29.096V20.576ZM137.526 23.036C137.302 22.876 137.066 22.74 136.818 22.628C136.57 22.508 136.306 22.448 136.026 22.448C135.682 22.448 135.362 22.508 135.066 22.628C134.778 22.74 134.53 22.904 134.322 23.12C134.114 23.328 133.95 23.58 133.83 23.876C133.71 24.172 133.65 24.5 133.65 24.86C133.65 25.228 133.706 25.564 133.818 25.868C133.938 26.164 134.102 26.42 134.31 26.636C134.518 26.852 134.766 27.02 135.054 27.14C135.35 27.26 135.674 27.32 136.026 27.32C136.306 27.32 136.574 27.26 136.83 27.14C137.094 27.012 137.342 26.868 137.574 26.708L137.322 28.892C137.242 28.94 137.138 28.98 137.01 29.012C136.882 29.052 136.746 29.084 136.602 29.108C136.466 29.132 136.33 29.152 136.194 29.168C136.066 29.184 135.962 29.192 135.882 29.192C135.258 29.192 134.682 29.088 134.154 28.88C133.634 28.672 133.182 28.38 132.798 28.004C132.422 27.628 132.13 27.18 131.922 26.66C131.714 26.132 131.61 25.548 131.61 24.908C131.61 24.3 131.714 23.732 131.922 23.204C132.13 22.676 132.422 22.216 132.798 21.824C133.174 21.432 133.622 21.128 134.142 20.912C134.67 20.688 135.246 20.576 135.87 20.576C136.11 20.576 136.342 20.596 136.566 20.636C136.79 20.676 137.006 20.744 137.214 20.84L137.526 23.036ZM143.294 20.768L143.654 22.508H140.678V23.936H142.802V25.676H140.678V27.26H143.906L143.402 29H138.638V20.768H143.294Z" fill="black"/>
<rect width="194" height="95" transform="translate(25 37)" fill="white"/>
<path d="M62.6365 63.7C62.6365 64 62.5915 64.27 62.5015 64.51C62.4175 64.744 62.2945 64.948 62.1325 65.122C61.9765 65.29 61.7845 65.419 61.5565 65.509C61.3345 65.599 61.0855 65.644 60.8095 65.644C60.7075 65.644 60.5995 65.632 60.4855 65.608C60.3715 65.584 60.2605 65.554 60.1525 65.518C60.0505 65.482 59.9575 65.44 59.8735 65.392C59.7895 65.344 59.7235 65.296 59.6755 65.248L60.1165 64.474C60.3625 64.666 60.6355 64.762 60.9355 64.762C61.2115 64.762 61.4155 64.672 61.5475 64.492C61.6855 64.306 61.7545 64.042 61.7545 63.7V59.326L62.6365 59.182V63.7ZM69.9685 62.413C69.9685 62.863 69.8815 63.286 69.7075 63.682C69.5395 64.072 69.3085 64.414 69.0145 64.708C68.7265 64.996 68.3845 65.224 67.9885 65.392C67.5985 65.56 67.1785 65.644 66.7285 65.644C66.2725 65.644 65.8465 65.56 65.4505 65.392C65.0605 65.224 64.7185 64.993 64.4245 64.699C64.1365 64.405 63.9085 64.063 63.7405 63.673C63.5725 63.277 63.4885 62.857 63.4885 62.413C63.4885 61.963 63.5725 61.543 63.7405 61.153C63.9145 60.757 64.1455 60.415 64.4335 60.127C64.7275 59.833 65.0695 59.602 65.4595 59.434C65.8555 59.266 66.2785 59.182 66.7285 59.182C67.1845 59.182 67.6075 59.269 67.9975 59.443C68.3935 59.611 68.7355 59.842 69.0235 60.136C69.3175 60.424 69.5485 60.766 69.7165 61.162C69.8845 61.552 69.9685 61.969 69.9685 62.413ZM66.7285 64.834C67.0405 64.834 67.3375 64.771 67.6195 64.645C67.9075 64.513 68.1595 64.339 68.3755 64.123C68.5915 63.901 68.7625 63.643 68.8885 63.349C69.0205 63.055 69.0865 62.743 69.0865 62.413C69.0865 62.089 69.0235 61.78 68.8975 61.486C68.7715 61.192 68.6005 60.937 68.3845 60.721C68.1745 60.499 67.9255 60.322 67.6375 60.19C67.3495 60.058 67.0435 59.992 66.7195 59.992C66.4135 59.992 66.1165 60.055 65.8285 60.181C65.5465 60.307 65.2975 60.481 65.0815 60.703C64.8655 60.919 64.6915 61.174 64.5595 61.468C64.4335 61.762 64.3705 62.077 64.3705 62.413C64.3705 62.743 64.4335 63.055 64.5595 63.349C64.6855 63.643 64.8565 63.901 65.0725 64.123C65.2885 64.339 65.5375 64.513 65.8195 64.645C66.1075 64.771 66.4105 64.834 66.7285 64.834ZM71.6814 63.601C71.6814 63.967 71.7834 64.264 71.9874 64.492C72.1974 64.72 72.5094 64.834 72.9234 64.834C73.3734 64.834 73.7124 64.726 73.9404 64.51C74.1684 64.288 74.2824 63.988 74.2824 63.61V59.326L75.1644 59.182V62.809C75.1644 63.031 75.1584 63.256 75.1464 63.484C75.1404 63.712 75.1164 63.931 75.0744 64.141C75.0384 64.351 74.9754 64.549 74.8854 64.735C74.8014 64.915 74.6814 65.074 74.5254 65.212C74.3694 65.344 74.1714 65.449 73.9314 65.527C73.6974 65.605 73.4094 65.644 73.0674 65.644C72.6414 65.644 72.2814 65.602 71.9874 65.518C71.6994 65.434 71.4654 65.296 71.2854 65.104C71.1114 64.906 70.9854 64.651 70.9074 64.339C70.8354 64.021 70.7994 63.631 70.7994 63.169V59.326L71.6814 59.182V63.601ZM77.7594 59.326C78.0354 59.326 78.2964 59.365 78.5424 59.443C78.7884 59.515 79.0044 59.629 79.1904 59.785C79.3764 59.941 79.5234 60.136 79.6314 60.37C79.7394 60.604 79.7934 60.88 79.7934 61.198C79.7934 61.666 79.6704 62.029 79.4244 62.287C79.1784 62.539 78.8454 62.713 78.4254 62.809L80.2884 65.392L79.2984 65.644L77.1474 62.503H77.1294V65.5L76.2474 65.608V59.326H77.7594ZM77.7774 62.305C77.9214 62.305 78.0624 62.278 78.2004 62.224C78.3384 62.17 78.4584 62.095 78.5604 61.999C78.6684 61.903 78.7524 61.789 78.8124 61.657C78.8784 61.519 78.9114 61.366 78.9114 61.198C78.9114 61.012 78.8814 60.853 78.8214 60.721C78.7614 60.583 78.6804 60.472 78.5784 60.388C78.4764 60.304 78.3564 60.241 78.2184 60.199C78.0864 60.157 77.9424 60.136 77.7864 60.136H77.1294V62.305H77.7774ZM84.8903 59.326C85.3343 59.326 85.7453 59.41 86.1233 59.578C86.5013 59.746 86.8253 59.971 87.0953 60.253C87.3713 60.535 87.5873 60.862 87.7433 61.234C87.8993 61.606 87.9773 61.999 87.9773 62.413C87.9773 62.827 87.8993 63.22 87.7433 63.592C87.5873 63.964 87.3713 64.294 87.0953 64.582C86.8193 64.864 86.4923 65.089 86.1143 65.257C85.7423 65.419 85.3373 65.5 84.8993 65.5H83.3243V59.326H84.8903ZM84.8633 64.69C85.1393 64.69 85.4093 64.636 85.6733 64.528C85.9433 64.42 86.1833 64.267 86.3933 64.069C86.6033 63.865 86.7713 63.625 86.8973 63.349C87.0293 63.067 87.0953 62.755 87.0953 62.413C87.0953 62.077 87.0293 61.771 86.8973 61.495C86.7713 61.213 86.6033 60.973 86.3933 60.775C86.1833 60.571 85.9433 60.415 85.6733 60.307C85.4093 60.193 85.1363 60.136 84.8543 60.136H84.2063V64.69H84.8633ZM92.1382 59.326L92.3272 60.136L89.7262 60.136V61.882H91.8052V62.692H89.7262V64.69H92.5252L92.2732 65.5H88.8442V59.326L92.1382 59.326ZM98.7291 60.676C98.4891 60.412 98.2761 60.232 98.0901 60.136C97.9041 60.04 97.7211 59.992 97.5411 59.992C97.2531 59.992 97.0191 60.076 96.8391 60.244C96.6591 60.412 96.5691 60.643 96.5691 60.937C96.5691 61.075 96.5991 61.195 96.6591 61.297C96.7251 61.393 96.8121 61.48 96.9201 61.558C97.0341 61.636 97.1691 61.708 97.3251 61.774C97.4811 61.834 97.6521 61.9 97.8381 61.972C98.0601 62.056 98.2641 62.146 98.4501 62.242C98.6421 62.338 98.8071 62.455 98.9451 62.593C99.0831 62.731 99.1911 62.896 99.2691 63.088C99.3531 63.274 99.3951 63.499 99.3951 63.763C99.3951 64.045 99.3441 64.3 99.2421 64.528C99.1401 64.756 99.0021 64.954 98.8281 65.122C98.6541 65.29 98.4501 65.419 98.2161 65.509C97.9881 65.599 97.7421 65.644 97.4781 65.644C97.3041 65.644 97.1391 65.626 96.9831 65.59C96.8271 65.56 96.6711 65.506 96.5151 65.428C96.3651 65.35 96.2091 65.248 96.0471 65.122C95.8911 64.99 95.7291 64.831 95.5611 64.645L96.2091 64.105C96.3351 64.303 96.5001 64.474 96.7041 64.618C96.9081 64.762 97.1361 64.834 97.3881 64.834C97.5441 64.834 97.6881 64.816 97.8201 64.78C97.9581 64.738 98.0781 64.675 98.1801 64.591C98.2821 64.507 98.3631 64.396 98.4231 64.258C98.4831 64.12 98.5131 63.952 98.5131 63.754C98.5131 63.64 98.4711 63.535 98.3871 63.439C98.3031 63.337 98.1981 63.247 98.0721 63.169C97.9521 63.091 97.8261 63.022 97.6941 62.962C97.5621 62.896 97.4481 62.839 97.3521 62.791C97.1541 62.695 96.9561 62.593 96.7581 62.485C96.5601 62.371 96.3801 62.242 96.2181 62.098C96.0621 61.954 95.9331 61.789 95.8311 61.603C95.7351 61.411 95.6871 61.183 95.6871 60.919C95.6871 60.661 95.7321 60.427 95.8221 60.217C95.9121 60.001 96.0381 59.818 96.2001 59.668C96.3681 59.512 96.5691 59.392 96.8031 59.308C97.0371 59.224 97.2981 59.182 97.5861 59.182C97.8921 59.182 98.2011 59.257 98.5131 59.407C98.8251 59.557 99.0951 59.782 99.3231 60.082L98.7291 60.676ZM103.625 59.326V60.136H102.185V65.5L101.303 65.608V60.136H99.7011L99.9801 59.326H103.625ZM106.259 59.182L109.4 65.464L108.518 65.644L107.465 63.52H104.981L103.937 65.644L103.109 65.464L106.241 59.182H106.259ZM105.35 62.71H107.105L106.223 60.937L105.35 62.71ZM114.449 60.631C114.329 60.547 114.209 60.466 114.089 60.388C113.969 60.31 113.84 60.244 113.702 60.19C113.57 60.13 113.426 60.082 113.27 60.046C113.114 60.01 112.943 59.992 112.757 59.992C112.439 59.992 112.136 60.058 111.848 60.19C111.566 60.316 111.317 60.493 111.101 60.721C110.885 60.943 110.714 61.204 110.588 61.504C110.462 61.804 110.399 62.128 110.399 62.476C110.399 62.758 110.456 63.04 110.57 63.322C110.684 63.604 110.84 63.859 111.038 64.087C111.236 64.309 111.467 64.489 111.731 64.627C112.001 64.765 112.289 64.834 112.595 64.834C112.871 64.834 113.15 64.795 113.432 64.717C113.72 64.633 113.966 64.489 114.17 64.285V62.818H112.325L112.631 62.008H115.052V64.744C114.938 64.882 114.791 65.008 114.611 65.122C114.431 65.23 114.233 65.323 114.017 65.401C113.801 65.479 113.573 65.539 113.333 65.581C113.093 65.623 112.856 65.644 112.622 65.644C112.214 65.644 111.824 65.56 111.452 65.392C111.08 65.218 110.75 64.987 110.462 64.699C110.174 64.411 109.943 64.078 109.769 63.7C109.601 63.316 109.517 62.914 109.517 62.494C109.517 62.044 109.598 61.618 109.76 61.216C109.922 60.814 110.144 60.463 110.426 60.163C110.714 59.857 111.053 59.617 111.443 59.443C111.833 59.269 112.259 59.182 112.721 59.182C113.153 59.182 113.567 59.254 113.963 59.398C114.359 59.536 114.695 59.746 114.971 60.028L114.449 60.631ZM119.648 59.326L119.837 60.136H117.236V61.882H119.315V62.692H117.236V64.69H120.035L119.783 65.5H116.354V59.326H119.648ZM126.653 59.326L126.842 60.136H124.241V61.882H126.32V62.692H124.241V64.69H127.04L126.788 65.5H123.359V59.326H126.653ZM127.832 59.182L127.859 59.191L131.81 63.502V59.47L132.692 59.326V65.644L132.665 65.635L128.714 61.324V65.5L127.832 65.608V59.182ZM139.661 59.326L139.85 60.136H137.249V61.882H139.328V62.692H137.249V64.69H140.048L139.796 65.5H136.367V59.326H139.661ZM140.84 59.182L140.867 59.191L144.818 63.502V59.47L145.7 59.326V65.644L145.673 65.635L141.722 61.324V65.5L140.84 65.608V59.182ZM150.146 59.326V60.136H148.706V65.5L147.824 65.608V60.136H146.222L146.501 59.326H150.146ZM152.291 59.326C152.567 59.326 152.828 59.365 153.074 59.443C153.32 59.515 153.536 59.629 153.722 59.785C153.908 59.941 154.055 60.136 154.163 60.37C154.271 60.604 154.325 60.88 154.325 61.198C154.325 61.666 154.202 62.029 153.956 62.287C153.71 62.539 153.377 62.713 152.957 62.809L154.82 65.392L153.83 65.644L151.679 62.503H151.661V65.5L150.779 65.608V59.326H152.291ZM152.309 62.305C152.453 62.305 152.594 62.278 152.732 62.224C152.87 62.17 152.99 62.095 153.092 61.999C153.2 61.903 153.284 61.789 153.344 61.657C153.41 61.519 153.443 61.366 153.443 61.198C153.443 61.012 153.413 60.853 153.353 60.721C153.293 60.583 153.212 60.472 153.11 60.388C153.008 60.304 152.888 60.241 152.75 60.199C152.618 60.157 152.474 60.136 152.318 60.136H151.661V62.305H152.309ZM158.663 59.326L158.852 60.136H156.251V61.882H158.33V62.692H156.251V64.69H159.05L158.798 65.5H155.369V59.326H158.663ZM161.534 59.326C161.834 59.326 162.11 59.371 162.362 59.461C162.614 59.545 162.83 59.668 163.01 59.83C163.196 59.992 163.34 60.184 163.442 60.406C163.544 60.628 163.595 60.874 163.595 61.144C163.595 61.426 163.556 61.69 163.478 61.936C163.4 62.176 163.265 62.386 163.073 62.566C162.887 62.746 162.638 62.887 162.326 62.989C162.014 63.091 161.624 63.142 161.156 63.142H160.724V65.5L159.842 65.608V59.326H161.534ZM161.435 62.332C161.633 62.332 161.81 62.314 161.966 62.278C162.122 62.236 162.254 62.17 162.362 62.08C162.476 61.984 162.563 61.861 162.623 61.711C162.683 61.555 162.713 61.366 162.713 61.144C162.713 60.808 162.596 60.556 162.362 60.388C162.134 60.22 161.825 60.136 161.435 60.136H160.724V62.332H161.435ZM165.791 59.326C166.067 59.326 166.328 59.365 166.574 59.443C166.82 59.515 167.036 59.629 167.222 59.785C167.408 59.941 167.555 60.136 167.663 60.37C167.771 60.604 167.825 60.88 167.825 61.198C167.825 61.666 167.702 62.029 167.456 62.287C167.21 62.539 166.877 62.713 166.457 62.809L168.32 65.392L167.33 65.644L165.179 62.503H165.161V65.5L164.279 65.608V59.326H165.791ZM165.809 62.305C165.953 62.305 166.094 62.278 166.232 62.224C166.37 62.17 166.49 62.095 166.592 61.999C166.7 61.903 166.784 61.789 166.844 61.657C166.91 61.519 166.943 61.366 166.943 61.198C166.943 61.012 166.913 60.853 166.853 60.721C166.793 60.583 166.712 60.472 166.61 60.388C166.508 60.304 166.388 60.241 166.25 60.199C166.118 60.157 165.974 60.136 165.818 60.136H165.161V62.305H165.809ZM169.706 65.5L168.824 65.572V59.326L169.706 59.182V65.5ZM173.744 60.676C173.504 60.412 173.291 60.232 173.105 60.136C172.919 60.04 172.736 59.992 172.556 59.992C172.268 59.992 172.034 60.076 171.854 60.244C171.674 60.412 171.584 60.643 171.584 60.937C171.584 61.075 171.614 61.195 171.674 61.297C171.74 61.393 171.827 61.48 171.935 61.558C172.049 61.636 172.184 61.708 172.34 61.774C172.496 61.834 172.667 61.9 172.853 61.972C173.075 62.056 173.279 62.146 173.465 62.242C173.657 62.338 173.822 62.455 173.96 62.593C174.098 62.731 174.206 62.896 174.284 63.088C174.368 63.274 174.41 63.499 174.41 63.763C174.41 64.045 174.359 64.3 174.257 64.528C174.155 64.756 174.017 64.954 173.843 65.122C173.669 65.29 173.465 65.419 173.231 65.509C173.003 65.599 172.757 65.644 172.493 65.644C172.319 65.644 172.154 65.626 171.998 65.59C171.842 65.56 171.686 65.506 171.53 65.428C171.38 65.35 171.224 65.248 171.062 65.122C170.906 64.99 170.744 64.831 170.576 64.645L171.224 64.105C171.35 64.303 171.515 64.474 171.719 64.618C171.923 64.762 172.151 64.834 172.403 64.834C172.559 64.834 172.703 64.816 172.835 64.78C172.973 64.738 173.093 64.675 173.195 64.591C173.297 64.507 173.378 64.396 173.438 64.258C173.498 64.12 173.528 63.952 173.528 63.754C173.528 63.64 173.486 63.535 173.402 63.439C173.318 63.337 173.213 63.247 173.087 63.169C172.967 63.091 172.841 63.022 172.709 62.962C172.577 62.896 172.463 62.839 172.367 62.791C172.169 62.695 171.971 62.593 171.773 62.485C171.575 62.371 171.395 62.242 171.233 62.098C171.077 61.954 170.948 61.789 170.846 61.603C170.75 61.411 170.702 61.183 170.702 60.919C170.702 60.661 170.747 60.427 170.837 60.217C170.927 60.001 171.053 59.818 171.215 59.668C171.383 59.512 171.584 59.392 171.818 59.308C172.052 59.224 172.313 59.182 172.601 59.182C172.907 59.182 173.216 59.257 173.528 59.407C173.84 59.557 174.11 59.782 174.338 60.082L173.744 60.676ZM178.658 59.326L178.847 60.136H176.246V61.882H178.325V62.692H176.246V64.69H179.045L178.793 65.5H175.364V59.326H178.658ZM183.476 63.412L182.774 63.556L182.693 59.326L183.611 59.182L183.476 63.412ZM183.08 64.033L183.665 64.807L183.08 65.581L182.495 64.807L183.08 64.033ZM56.2228 70.182L59.3638 76.464L58.4818 76.644L57.4288 74.52H54.9448L53.9008 76.644L53.0728 76.464L56.2048 70.182H56.2228ZM55.3138 73.71H57.0688L56.1868 71.937L55.3138 73.71ZM59.4205 70.182L60.9325 74.466H60.9505L62.5255 70.182L63.4075 70.326L60.9505 76.644H60.9325L58.5475 70.326L59.4205 70.182ZM65.7414 70.182L68.8824 76.464L68.0004 76.644L66.9474 74.52H64.4634L63.4194 76.644L62.5914 76.464L65.7234 70.182H65.7414ZM64.8324 73.71H66.5874L65.7054 71.937L64.8324 73.71ZM69.3143 70.182L69.3413 70.191L73.2923 74.502V70.47L74.1743 70.326V76.644L74.1473 76.635L70.1963 72.324V76.5L69.3143 76.608V70.182ZM79.1692 71.289C79.0072 71.175 78.8422 71.097 78.6742 71.055C78.5062 71.013 78.3262 70.992 78.1342 70.992C77.8162 70.992 77.5192 71.061 77.2432 71.199C76.9732 71.331 76.7362 71.508 76.5322 71.73C76.3282 71.946 76.1692 72.198 76.0552 72.486C75.9412 72.774 75.8842 73.071 75.8842 73.377C75.8842 73.701 75.9412 74.013 76.0552 74.313C76.1692 74.607 76.3252 74.868 76.5232 75.096C76.7212 75.318 76.9522 75.498 77.2162 75.636C77.4862 75.768 77.7772 75.834 78.0892 75.834C78.2992 75.834 78.5092 75.801 78.7192 75.735C78.9352 75.663 79.1302 75.57 79.3042 75.456L79.1422 76.419C78.9562 76.485 78.7762 76.539 78.6022 76.581C78.4342 76.623 78.2572 76.644 78.0712 76.644C77.6572 76.644 77.2642 76.56 76.8922 76.392C76.5202 76.224 76.1932 75.996 75.9112 75.708C75.6352 75.414 75.4132 75.072 75.2452 74.682C75.0832 74.286 75.0022 73.863 75.0022 73.413C75.0022 73.005 75.0862 72.609 75.2542 72.225C75.4222 71.835 75.6412 71.49 75.9112 71.19C76.1872 70.884 76.4992 70.641 76.8472 70.461C77.1952 70.275 77.5522 70.182 77.9182 70.182C78.0982 70.182 78.2752 70.197 78.4492 70.227C78.6292 70.251 78.8062 70.287 78.9802 70.335L79.1692 71.289ZM83.6392 70.326L83.8282 71.136H81.2272V72.882H83.3062V73.692H81.2272V75.69H84.0262L83.7742 76.5H80.3452V70.326H83.6392ZM88.9672 70.326L85.7272 75.69H89.1292L88.9132 76.5H84.3682L87.6442 71.136H84.5032L84.6832 70.326H88.9672ZM94.655 74.7C94.655 75 94.61 75.27 94.52 75.51C94.436 75.744 94.313 75.948 94.151 76.122C93.995 76.29 93.803 76.419 93.575 76.509C93.353 76.599 93.104 76.644 92.828 76.644C92.726 76.644 92.618 76.632 92.504 76.608C92.39 76.584 92.279 76.554 92.171 76.518C92.069 76.482 91.976 76.44 91.892 76.392C91.808 76.344 91.742 76.296 91.694 76.248L92.135 75.474C92.381 75.666 92.654 75.762 92.954 75.762C93.23 75.762 93.434 75.672 93.566 75.492C93.704 75.306 93.773 75.042 93.773 74.7V70.326L94.655 70.182V74.7ZM96.6951 74.601C96.6951 74.967 96.7971 75.264 97.0011 75.492C97.2111 75.72 97.5231 75.834 97.9371 75.834C98.3871 75.834 98.7261 75.726 98.9541 75.51C99.1821 75.288 99.2961 74.988 99.2961 74.61V70.326L100.178 70.182V73.809C100.178 74.031 100.172 74.256 100.16 74.484C100.154 74.712 100.13 74.931 100.088 75.141C100.052 75.351 99.9891 75.549 99.8991 75.735C99.8151 75.915 99.6951 76.074 99.5391 76.212C99.3831 76.344 99.1851 76.449 98.9451 76.527C98.7111 76.605 98.4231 76.644 98.0811 76.644C97.6551 76.644 97.2951 76.602 97.0011 76.518C96.7131 76.434 96.4791 76.296 96.2991 76.104C96.1251 75.906 95.9991 75.651 95.9211 75.339C95.8491 75.021 95.8131 74.631 95.8131 74.169V70.326L96.6951 70.182V74.601ZM104.231 71.676C103.991 71.412 103.778 71.232 103.592 71.136C103.406 71.04 103.223 70.992 103.043 70.992C102.755 70.992 102.521 71.076 102.341 71.244C102.161 71.412 102.071 71.643 102.071 71.937C102.071 72.075 102.101 72.195 102.161 72.297C102.227 72.393 102.314 72.48 102.422 72.558C102.536 72.636 102.671 72.708 102.827 72.774C102.983 72.834 103.154 72.9 103.34 72.972C103.562 73.056 103.766 73.146 103.952 73.242C104.144 73.338 104.309 73.455 104.447 73.593C104.585 73.731 104.693 73.896 104.771 74.088C104.855 74.274 104.897 74.499 104.897 74.763C104.897 75.045 104.846 75.3 104.744 75.528C104.642 75.756 104.504 75.954 104.33 76.122C104.156 76.29 103.952 76.419 103.718 76.509C103.49 76.599 103.244 76.644 102.98 76.644C102.806 76.644 102.641 76.626 102.485 76.59C102.329 76.56 102.173 76.506 102.017 76.428C101.867 76.35 101.711 76.248 101.549 76.122C101.393 75.99 101.231 75.831 101.063 75.645L101.711 75.105C101.837 75.303 102.002 75.474 102.206 75.618C102.41 75.762 102.638 75.834 102.89 75.834C103.046 75.834 103.19 75.816 103.322 75.78C103.46 75.738 103.58 75.675 103.682 75.591C103.784 75.507 103.865 75.396 103.925 75.258C103.985 75.12 104.015 74.952 104.015 74.754C104.015 74.64 103.973 74.535 103.889 74.439C103.805 74.337 103.7 74.247 103.574 74.169C103.454 74.091 103.328 74.022 103.196 73.962C103.064 73.896 102.95 73.839 102.854 73.791C102.656 73.695 102.458 73.593 102.26 73.485C102.062 73.371 101.882 73.242 101.72 73.098C101.564 72.954 101.435 72.789 101.333 72.603C101.237 72.411 101.189 72.183 101.189 71.919C101.189 71.661 101.234 71.427 101.324 71.217C101.414 71.001 101.54 70.818 101.702 70.668C101.87 70.512 102.071 70.392 102.305 70.308C102.539 70.224 102.8 70.182 103.088 70.182C103.394 70.182 103.703 70.257 104.015 70.407C104.327 70.557 104.597 70.782 104.825 71.082L104.231 71.676ZM111.989 73.413C111.989 73.827 111.917 74.214 111.773 74.574C111.635 74.934 111.44 75.258 111.188 75.546L112.178 76.653L111.485 77.103L110.576 76.086C110.318 76.26 110.033 76.398 109.721 76.5C109.415 76.596 109.091 76.644 108.749 76.644C108.299 76.644 107.876 76.56 107.48 76.392C107.084 76.224 106.739 75.993 106.445 75.699C106.157 75.405 105.929 75.063 105.761 74.673C105.593 74.283 105.509 73.863 105.509 73.413C105.509 72.969 105.593 72.552 105.761 72.162C105.929 71.766 106.157 71.424 106.445 71.136C106.739 70.842 107.081 70.611 107.471 70.443C107.867 70.269 108.293 70.182 108.749 70.182C109.205 70.182 109.631 70.269 110.027 70.443C110.423 70.611 110.765 70.842 111.053 71.136C111.347 71.424 111.575 71.766 111.737 72.162C111.905 72.552 111.989 72.969 111.989 73.413ZM108.749 75.834C109.193 75.834 109.613 75.705 110.009 75.447L109.235 74.583L109.919 74.142L110.594 74.889C110.756 74.679 110.882 74.448 110.972 74.196C111.062 73.944 111.107 73.683 111.107 73.413C111.107 73.089 111.044 72.78 110.918 72.486C110.792 72.192 110.621 71.937 110.405 71.721C110.195 71.499 109.946 71.322 109.658 71.19C109.37 71.058 109.064 70.992 108.74 70.992C108.422 70.992 108.119 71.058 107.831 71.19C107.549 71.322 107.3 71.499 107.084 71.721C106.874 71.937 106.706 72.192 106.58 72.486C106.454 72.78 106.391 73.089 106.391 73.413C106.391 73.743 106.454 74.055 106.58 74.349C106.706 74.643 106.877 74.901 107.093 75.123C107.309 75.339 107.558 75.513 107.84 75.645C108.128 75.771 108.431 75.834 108.749 75.834ZM113.702 74.601C113.702 74.967 113.804 75.264 114.008 75.492C114.218 75.72 114.53 75.834 114.944 75.834C115.394 75.834 115.733 75.726 115.961 75.51C116.189 75.288 116.303 74.988 116.303 74.61V70.326L117.185 70.182V73.809C117.185 74.031 117.179 74.256 117.167 74.484C117.161 74.712 117.137 74.931 117.095 75.141C117.059 75.351 116.996 75.549 116.906 75.735C116.822 75.915 116.702 76.074 116.546 76.212C116.39 76.344 116.192 76.449 115.952 76.527C115.718 76.605 115.43 76.644 115.088 76.644C114.662 76.644 114.302 76.602 114.008 76.518C113.72 76.434 113.486 76.296 113.306 76.104C113.132 75.906 113.006 75.651 112.928 75.339C112.856 75.021 112.82 74.631 112.82 74.169V70.326L113.702 70.182V74.601ZM118.709 70.182C118.979 70.362 119.165 70.533 119.267 70.695C119.369 70.851 119.42 71.016 119.42 71.19C119.42 71.31 119.357 71.481 119.231 71.703C119.105 71.925 118.883 72.237 118.565 72.639L118.097 72.297C118.115 72.273 118.151 72.222 118.205 72.144C118.259 72.06 118.316 71.97 118.376 71.874C118.436 71.778 118.49 71.682 118.538 71.586C118.586 71.49 118.61 71.409 118.61 71.343C118.61 71.205 118.565 71.103 118.475 71.037C118.385 70.971 118.283 70.911 118.169 70.857L118.709 70.182ZM122.756 70.182L125.897 76.464L125.015 76.644L123.962 74.52H121.478L120.434 76.644L119.606 76.464L122.738 70.182H122.756ZM121.847 73.71H123.602L122.72 71.937L121.847 73.71ZM122.621 68.67L123.431 69.966H122.693L121.415 68.67H122.621ZM129.743 75.69H132.362L132.002 76.5H128.861V70.326L129.743 70.182V75.69ZM135.263 70.182L138.404 76.464L137.522 76.644L136.469 74.52H133.985L132.941 76.644L132.113 76.464L135.245 70.182H135.263ZM134.354 73.71H136.109L135.227 71.937L134.354 73.71ZM145.193 71.289C145.031 71.175 144.866 71.097 144.698 71.055C144.53 71.013 144.35 70.992 144.158 70.992C143.84 70.992 143.543 71.061 143.267 71.199C142.997 71.331 142.76 71.508 142.556 71.73C142.352 71.946 142.193 72.198 142.079 72.486C141.965 72.774 141.908 73.071 141.908 73.377C141.908 73.701 141.965 74.013 142.079 74.313C142.193 74.607 142.349 74.868 142.547 75.096C142.745 75.318 142.976 75.498 143.24 75.636C143.51 75.768 143.801 75.834 144.113 75.834C144.323 75.834 144.533 75.801 144.743 75.735C144.959 75.663 145.154 75.57 145.328 75.456L145.166 76.419C144.98 76.485 144.8 76.539 144.626 76.581C144.458 76.623 144.281 76.644 144.095 76.644C143.681 76.644 143.288 76.56 142.916 76.392C142.544 76.224 142.217 75.996 141.935 75.708C141.659 75.414 141.437 75.072 141.269 74.682C141.107 74.286 141.026 73.863 141.026 73.413C141.026 73.005 141.11 72.609 141.278 72.225C141.446 71.835 141.665 71.49 141.935 71.19C142.211 70.884 142.523 70.641 142.871 70.461C143.219 70.275 143.576 70.182 143.942 70.182C144.122 70.182 144.299 70.197 144.473 70.227C144.653 70.251 144.83 70.287 145.004 70.335L145.193 71.289ZM148.772 70.182L151.913 76.464L151.031 76.644L149.978 74.52H147.494L146.45 76.644L145.622 76.464L148.754 70.182H148.772ZM147.863 73.71H149.618L148.736 71.937L147.863 73.71ZM155.252 71.676C155.012 71.412 154.799 71.232 154.613 71.136C154.427 71.04 154.244 70.992 154.064 70.992C153.776 70.992 153.542 71.076 153.362 71.244C153.182 71.412 153.092 71.643 153.092 71.937C153.092 72.075 153.122 72.195 153.182 72.297C153.248 72.393 153.335 72.48 153.443 72.558C153.557 72.636 153.692 72.708 153.848 72.774C154.004 72.834 154.175 72.9 154.361 72.972C154.583 73.056 154.787 73.146 154.973 73.242C155.165 73.338 155.33 73.455 155.468 73.593C155.606 73.731 155.714 73.896 155.792 74.088C155.876 74.274 155.918 74.499 155.918 74.763C155.918 75.045 155.867 75.3 155.765 75.528C155.663 75.756 155.525 75.954 155.351 76.122C155.177 76.29 154.973 76.419 154.739 76.509C154.511 76.599 154.265 76.644 154.001 76.644C153.827 76.644 153.662 76.626 153.506 76.59C153.35 76.56 153.194 76.506 153.038 76.428C152.888 76.35 152.732 76.248 152.57 76.122C152.414 75.99 152.252 75.831 152.084 75.645L152.732 75.105C152.858 75.303 153.023 75.474 153.227 75.618C153.431 75.762 153.659 75.834 153.911 75.834C154.067 75.834 154.211 75.816 154.343 75.78C154.481 75.738 154.601 75.675 154.703 75.591C154.805 75.507 154.886 75.396 154.946 75.258C155.006 75.12 155.036 74.952 155.036 74.754C155.036 74.64 154.994 74.535 154.91 74.439C154.826 74.337 154.721 74.247 154.595 74.169C154.475 74.091 154.349 74.022 154.217 73.962C154.085 73.896 153.971 73.839 153.875 73.791C153.677 73.695 153.479 73.593 153.281 73.485C153.083 73.371 152.903 73.242 152.741 73.098C152.585 72.954 152.456 72.789 152.354 72.603C152.258 72.411 152.21 72.183 152.21 71.919C152.21 71.661 152.255 71.427 152.345 71.217C152.435 71.001 152.561 70.818 152.723 70.668C152.891 70.512 153.092 70.392 153.326 70.308C153.56 70.224 153.821 70.182 154.109 70.182C154.415 70.182 154.724 70.257 155.036 70.407C155.348 70.557 155.618 70.782 155.846 71.082L155.252 71.676ZM160.166 70.326L160.355 71.136H157.754V72.882H159.833V73.692H157.754V75.69H160.553L160.301 76.5H156.872V70.326H160.166ZM166.756 71.676C166.516 71.412 166.303 71.232 166.117 71.136C165.931 71.04 165.748 70.992 165.568 70.992C165.28 70.992 165.046 71.076 164.866 71.244C164.686 71.412 164.596 71.643 164.596 71.937C164.596 72.075 164.626 72.195 164.686 72.297C164.752 72.393 164.839 72.48 164.947 72.558C165.061 72.636 165.196 72.708 165.352 72.774C165.508 72.834 165.679 72.9 165.865 72.972C166.087 73.056 166.291 73.146 166.477 73.242C166.669 73.338 166.834 73.455 166.972 73.593C167.11 73.731 167.218 73.896 167.296 74.088C167.38 74.274 167.422 74.499 167.422 74.763C167.422 75.045 167.371 75.3 167.269 75.528C167.167 75.756 167.029 75.954 166.855 76.122C166.681 76.29 166.477 76.419 166.243 76.509C166.015 76.599 165.769 76.644 165.505 76.644C165.331 76.644 165.166 76.626 165.01 76.59C164.854 76.56 164.698 76.506 164.542 76.428C164.392 76.35 164.236 76.248 164.074 76.122C163.918 75.99 163.756 75.831 163.588 75.645L164.236 75.105C164.362 75.303 164.527 75.474 164.731 75.618C164.935 75.762 165.163 75.834 165.415 75.834C165.571 75.834 165.715 75.816 165.847 75.78C165.985 75.738 166.105 75.675 166.207 75.591C166.309 75.507 166.39 75.396 166.45 75.258C166.51 75.12 166.54 74.952 166.54 74.754C166.54 74.64 166.498 74.535 166.414 74.439C166.33 74.337 166.225 74.247 166.099 74.169C165.979 74.091 165.853 74.022 165.721 73.962C165.589 73.896 165.475 73.839 165.379 73.791C165.181 73.695 164.983 73.593 164.785 73.485C164.587 73.371 164.407 73.242 164.245 73.098C164.089 72.954 163.96 72.789 163.858 72.603C163.762 72.411 163.714 72.183 163.714 71.919C163.714 71.661 163.759 71.427 163.849 71.217C163.939 71.001 164.065 70.818 164.227 70.668C164.395 70.512 164.596 70.392 164.83 70.308C165.064 70.224 165.325 70.182 165.613 70.182C165.919 70.182 166.228 70.257 166.54 70.407C166.852 70.557 167.122 70.782 167.35 71.082L166.756 71.676ZM171.652 70.326V71.136H170.212V76.5L169.33 76.608V71.136L167.728 71.136L168.007 70.326L171.652 70.326ZM174.286 70.182L177.427 76.464L176.545 76.644L175.492 74.52H173.008L171.964 76.644L171.136 76.464L174.268 70.182H174.286ZM173.377 73.71H175.132L174.25 71.937L173.377 73.71ZM182.476 71.631C182.356 71.547 182.236 71.466 182.116 71.388C181.996 71.31 181.867 71.244 181.729 71.19C181.597 71.13 181.453 71.082 181.297 71.046C181.141 71.01 180.97 70.992 180.784 70.992C180.466 70.992 180.163 71.058 179.875 71.19C179.593 71.316 179.344 71.493 179.128 71.721C178.912 71.943 178.741 72.204 178.615 72.504C178.489 72.804 178.426 73.128 178.426 73.476C178.426 73.758 178.483 74.04 178.597 74.322C178.711 74.604 178.867 74.859 179.065 75.087C179.263 75.309 179.494 75.489 179.758 75.627C180.028 75.765 180.316 75.834 180.622 75.834C180.898 75.834 181.177 75.795 181.459 75.717C181.747 75.633 181.993 75.489 182.197 75.285V73.818H180.352L180.658 73.008H183.079V75.744C182.965 75.882 182.818 76.008 182.638 76.122C182.458 76.23 182.26 76.323 182.044 76.401C181.828 76.479 181.6 76.539 181.36 76.581C181.12 76.623 180.883 76.644 180.649 76.644C180.241 76.644 179.851 76.56 179.479 76.392C179.107 76.218 178.777 75.987 178.489 75.699C178.201 75.411 177.97 75.078 177.796 74.7C177.628 74.316 177.544 73.914 177.544 73.494C177.544 73.044 177.625 72.618 177.787 72.216C177.949 71.814 178.171 71.463 178.453 71.163C178.741 70.857 179.08 70.617 179.47 70.443C179.86 70.269 180.286 70.182 180.748 70.182C181.18 70.182 181.594 70.254 181.99 70.398C182.386 70.536 182.722 70.746 182.998 71.028L182.476 71.631ZM187.675 70.326L187.864 71.136H185.263V72.882H187.342V73.692H185.263V75.69H188.062L187.81 76.5L184.381 76.5V70.326H187.675ZM189.529 75.033L190.114 75.807L189.529 76.581L188.944 75.807L189.529 75.033ZM52.9601 93.676C52.7201 93.412 52.5071 93.232 52.3211 93.136C52.1351 93.04 51.9521 92.992 51.7721 92.992C51.4841 92.992 51.2501 93.076 51.0701 93.244C50.8901 93.412 50.8001 93.643 50.8001 93.937C50.8001 94.075 50.8301 94.195 50.8901 94.297C50.9561 94.393 51.0431 94.48 51.1511 94.558C51.2651 94.636 51.4001 94.708 51.5561 94.774C51.7121 94.834 51.8831 94.9 52.0691 94.972C52.2911 95.056 52.4951 95.146 52.6811 95.242C52.8731 95.338 53.0381 95.455 53.1761 95.593C53.3141 95.731 53.4221 95.896 53.5001 96.088C53.5841 96.274 53.6261 96.499 53.6261 96.763C53.6261 97.045 53.5751 97.3 53.4731 97.528C53.3711 97.756 53.2331 97.954 53.0591 98.122C52.8851 98.29 52.6811 98.419 52.4471 98.509C52.2191 98.599 51.9731 98.644 51.7091 98.644C51.5351 98.644 51.3701 98.626 51.2141 98.59C51.0581 98.56 50.9021 98.506 50.7461 98.428C50.5961 98.35 50.4401 98.248 50.2781 98.122C50.1221 97.99 49.9601 97.831 49.7921 97.645L50.4401 97.105C50.5661 97.303 50.7311 97.474 50.9351 97.618C51.1391 97.762 51.3671 97.834 51.6191 97.834C51.7751 97.834 51.9191 97.816 52.0511 97.78C52.1891 97.738 52.3091 97.675 52.4111 97.591C52.5131 97.507 52.5941 97.396 52.6541 97.258C52.7141 97.12 52.7441 96.952 52.7441 96.754C52.7441 96.64 52.7021 96.535 52.6181 96.439C52.5341 96.337 52.4291 96.247 52.3031 96.169C52.1831 96.091 52.0571 96.022 51.9251 95.962C51.7931 95.896 51.6791 95.839 51.5831 95.791C51.3851 95.695 51.1871 95.593 50.9891 95.485C50.7911 95.371 50.6111 95.242 50.4491 95.098C50.2931 94.954 50.1641 94.789 50.0621 94.603C49.9661 94.411 49.9181 94.183 49.9181 93.919C49.9181 93.661 49.9631 93.427 50.0531 93.217C50.1431 93.001 50.2691 92.818 50.4311 92.668C50.5991 92.512 50.8001 92.392 51.0341 92.308C51.2681 92.224 51.5291 92.182 51.8171 92.182C52.1231 92.182 52.4321 92.257 52.7441 92.407C53.0561 92.557 53.3261 92.782 53.5541 93.082L52.9601 93.676ZM55.4171 98.5L54.5351 98.572V92.326L55.4171 92.182V98.5ZM59.1701 92.182L60.6821 96.466H60.7001L62.2751 92.182L63.1571 92.326L60.7001 98.644H60.6821L58.2971 92.326L59.1701 92.182ZM69.7181 95.413C69.7181 95.863 69.6311 96.286 69.4571 96.682C69.2891 97.072 69.0581 97.414 68.7641 97.708C68.4761 97.996 68.1341 98.224 67.7381 98.392C67.3481 98.56 66.9281 98.644 66.4781 98.644C66.0221 98.644 65.5961 98.56 65.2001 98.392C64.8101 98.224 64.4681 97.993 64.1741 97.699C63.8861 97.405 63.6581 97.063 63.4901 96.673C63.3221 96.277 63.2381 95.857 63.2381 95.413C63.2381 94.963 63.3221 94.543 63.4901 94.153C63.6641 93.757 63.8951 93.415 64.1831 93.127C64.4771 92.833 64.8191 92.602 65.2091 92.434C65.6051 92.266 66.0281 92.182 66.4781 92.182C66.9341 92.182 67.3571 92.269 67.7471 92.443C68.1431 92.611 68.4851 92.842 68.7731 93.136C69.0671 93.424 69.2981 93.766 69.4661 94.162C69.6341 94.552 69.7181 94.969 69.7181 95.413ZM66.4781 97.834C66.7901 97.834 67.0871 97.771 67.3691 97.645C67.6571 97.513 67.9091 97.339 68.1251 97.123C68.3411 96.901 68.5121 96.643 68.6381 96.349C68.7701 96.055 68.8361 95.743 68.8361 95.413C68.8361 95.089 68.7731 94.78 68.6471 94.486C68.5211 94.192 68.3501 93.937 68.1341 93.721C67.9241 93.499 67.6751 93.322 67.3871 93.19C67.0991 93.058 66.7931 92.992 66.4691 92.992C66.1631 92.992 65.8661 93.055 65.5781 93.181C65.2961 93.307 65.0471 93.481 64.8311 93.703C64.6151 93.919 64.4411 94.174 64.3091 94.468C64.1831 94.762 64.1201 95.077 64.1201 95.413C64.1201 95.743 64.1831 96.055 64.3091 96.349C64.4351 96.643 64.6061 96.901 64.8221 97.123C65.0381 97.339 65.2871 97.513 65.5691 97.645C65.8571 97.771 66.1601 97.834 66.4781 97.834ZM71.4309 96.601C71.4309 96.967 71.5329 97.264 71.7369 97.492C71.9469 97.72 72.2589 97.834 72.6729 97.834C73.1229 97.834 73.4619 97.726 73.6899 97.51C73.9179 97.288 74.0319 96.988 74.0319 96.61V92.326L74.9139 92.182V95.809C74.9139 96.031 74.9079 96.256 74.8959 96.484C74.8899 96.712 74.8659 96.931 74.8239 97.141C74.7879 97.351 74.7249 97.549 74.6349 97.735C74.5509 97.915 74.4309 98.074 74.2749 98.212C74.1189 98.344 73.9209 98.449 73.6809 98.527C73.4469 98.605 73.1589 98.644 72.8169 98.644C72.3909 98.644 72.0309 98.602 71.7369 98.518C71.4489 98.434 71.2149 98.296 71.0349 98.104C70.8609 97.906 70.7349 97.651 70.6569 97.339C70.5849 97.021 70.5489 96.631 70.5489 96.169V92.326L71.4309 92.182V96.601ZM78.9669 93.676C78.7269 93.412 78.5139 93.232 78.3279 93.136C78.1419 93.04 77.9589 92.992 77.7789 92.992C77.4909 92.992 77.2569 93.076 77.0769 93.244C76.8969 93.412 76.8069 93.643 76.8069 93.937C76.8069 94.075 76.8369 94.195 76.8969 94.297C76.9629 94.393 77.0499 94.48 77.1579 94.558C77.2719 94.636 77.4069 94.708 77.5629 94.774C77.7189 94.834 77.8899 94.9 78.0759 94.972C78.2979 95.056 78.5019 95.146 78.6879 95.242C78.8799 95.338 79.0449 95.455 79.1829 95.593C79.3209 95.731 79.4289 95.896 79.5069 96.088C79.5909 96.274 79.6329 96.499 79.6329 96.763C79.6329 97.045 79.5819 97.3 79.4799 97.528C79.3779 97.756 79.2399 97.954 79.0659 98.122C78.8919 98.29 78.6879 98.419 78.4539 98.509C78.2259 98.599 77.9799 98.644 77.7159 98.644C77.5419 98.644 77.3769 98.626 77.2209 98.59C77.0649 98.56 76.9089 98.506 76.7529 98.428C76.6029 98.35 76.4469 98.248 76.2849 98.122C76.1289 97.99 75.9669 97.831 75.7989 97.645L76.4469 97.105C76.5729 97.303 76.7379 97.474 76.9419 97.618C77.1459 97.762 77.3739 97.834 77.6259 97.834C77.7819 97.834 77.9259 97.816 78.0579 97.78C78.1959 97.738 78.3159 97.675 78.4179 97.591C78.5199 97.507 78.6009 97.396 78.6609 97.258C78.7209 97.12 78.7509 96.952 78.7509 96.754C78.7509 96.64 78.7089 96.535 78.6249 96.439C78.5409 96.337 78.4359 96.247 78.3099 96.169C78.1899 96.091 78.0639 96.022 77.9319 95.962C77.7999 95.896 77.6859 95.839 77.5899 95.791C77.3919 95.695 77.1939 95.593 76.9959 95.485C76.7979 95.371 76.6179 95.242 76.4559 95.098C76.2999 94.954 76.1709 94.789 76.0689 94.603C75.9729 94.411 75.9249 94.183 75.9249 93.919C75.9249 93.661 75.9699 93.427 76.0599 93.217C76.1499 93.001 76.2759 92.818 76.4379 92.668C76.6059 92.512 76.8069 92.392 77.0409 92.308C77.2749 92.224 77.5359 92.182 77.8239 92.182C78.1299 92.182 78.4389 92.257 78.7509 92.407C79.0629 92.557 79.3329 92.782 79.5609 93.082L78.9669 93.676ZM84.7568 92.326C85.0568 92.326 85.3328 92.371 85.5848 92.461C85.8368 92.545 86.0528 92.668 86.2328 92.83C86.4188 92.992 86.5628 93.184 86.6648 93.406C86.7668 93.628 86.8178 93.874 86.8178 94.144C86.8178 94.426 86.7788 94.69 86.7008 94.936C86.6228 95.176 86.4878 95.386 86.2958 95.566C86.1098 95.746 85.8608 95.887 85.5488 95.989C85.2368 96.091 84.8468 96.142 84.3788 96.142H83.9468V98.5L83.0648 98.608V92.326H84.7568ZM84.6578 95.332C84.8558 95.332 85.0328 95.314 85.1888 95.278C85.3448 95.236 85.4768 95.17 85.5848 95.08C85.6988 94.984 85.7858 94.861 85.8458 94.711C85.9058 94.555 85.9358 94.366 85.9358 94.144C85.9358 93.808 85.8188 93.556 85.5848 93.388C85.3568 93.22 85.0478 93.136 84.6578 93.136H83.9468V95.332H84.6578ZM89.6608 92.182L92.8018 98.464L91.9198 98.644L90.8668 96.52H88.3828L87.3388 98.644L86.5108 98.464L89.6428 92.182H89.6608ZM88.7518 95.71H90.5068L89.6248 93.937L88.7518 95.71ZM96.1407 93.676C95.9007 93.412 95.6877 93.232 95.5017 93.136C95.3157 93.04 95.1327 92.992 94.9527 92.992C94.6647 92.992 94.4307 93.076 94.2507 93.244C94.0707 93.412 93.9807 93.643 93.9807 93.937C93.9807 94.075 94.0107 94.195 94.0707 94.297C94.1367 94.393 94.2237 94.48 94.3317 94.558C94.4457 94.636 94.5807 94.708 94.7367 94.774C94.8927 94.834 95.0637 94.9 95.2497 94.972C95.4717 95.056 95.6757 95.146 95.8617 95.242C96.0537 95.338 96.2187 95.455 96.3567 95.593C96.4947 95.731 96.6027 95.896 96.6807 96.088C96.7647 96.274 96.8067 96.499 96.8067 96.763C96.8067 97.045 96.7557 97.3 96.6537 97.528C96.5517 97.756 96.4137 97.954 96.2397 98.122C96.0657 98.29 95.8617 98.419 95.6277 98.509C95.3997 98.599 95.1537 98.644 94.8897 98.644C94.7157 98.644 94.5507 98.626 94.3947 98.59C94.2387 98.56 94.0827 98.506 93.9267 98.428C93.7767 98.35 93.6207 98.248 93.4587 98.122C93.3027 97.99 93.1407 97.831 92.9727 97.645L93.6207 97.105C93.7467 97.303 93.9117 97.474 94.1157 97.618C94.3197 97.762 94.5477 97.834 94.7997 97.834C94.9557 97.834 95.0997 97.816 95.2317 97.78C95.3697 97.738 95.4897 97.675 95.5917 97.591C95.6937 97.507 95.7747 97.396 95.8347 97.258C95.8947 97.12 95.9247 96.952 95.9247 96.754C95.9247 96.64 95.8827 96.535 95.7987 96.439C95.7147 96.337 95.6097 96.247 95.4837 96.169C95.3637 96.091 95.2377 96.022 95.1057 95.962C94.9737 95.896 94.8597 95.839 94.7637 95.791C94.5657 95.695 94.3677 95.593 94.1697 95.485C93.9717 95.371 93.7917 95.242 93.6297 95.098C93.4737 94.954 93.3447 94.789 93.2427 94.603C93.1467 94.411 93.0987 94.183 93.0987 93.919C93.0987 93.661 93.1437 93.427 93.2337 93.217C93.3237 93.001 93.4497 92.818 93.6117 92.668C93.7797 92.512 93.9807 92.392 94.2147 92.308C94.4487 92.224 94.7097 92.182 94.9977 92.182C95.3037 92.182 95.6127 92.257 95.9247 92.407C96.2367 92.557 96.5067 92.782 96.7347 93.082L96.1407 93.676ZM100.641 93.676C100.401 93.412 100.188 93.232 100.002 93.136C99.8157 93.04 99.6327 92.992 99.4527 92.992C99.1647 92.992 98.9307 93.076 98.7507 93.244C98.5707 93.412 98.4807 93.643 98.4807 93.937C98.4807 94.075 98.5107 94.195 98.5707 94.297C98.6367 94.393 98.7237 94.48 98.8317 94.558C98.9457 94.636 99.0807 94.708 99.2367 94.774C99.3927 94.834 99.5637 94.9 99.7497 94.972C99.9717 95.056 100.176 95.146 100.362 95.242C100.554 95.338 100.719 95.455 100.857 95.593C100.995 95.731 101.103 95.896 101.181 96.088C101.265 96.274 101.307 96.499 101.307 96.763C101.307 97.045 101.256 97.3 101.154 97.528C101.052 97.756 100.914 97.954 100.74 98.122C100.566 98.29 100.362 98.419 100.128 98.509C99.8997 98.599 99.6537 98.644 99.3897 98.644C99.2157 98.644 99.0507 98.626 98.8947 98.59C98.7387 98.56 98.5827 98.506 98.4267 98.428C98.2767 98.35 98.1207 98.248 97.9587 98.122C97.8027 97.99 97.6407 97.831 97.4727 97.645L98.1207 97.105C98.2467 97.303 98.4117 97.474 98.6157 97.618C98.8197 97.762 99.0477 97.834 99.2997 97.834C99.4557 97.834 99.5997 97.816 99.7317 97.78C99.8697 97.738 99.9897 97.675 100.092 97.591C100.194 97.507 100.275 97.396 100.335 97.258C100.395 97.12 100.425 96.952 100.425 96.754C100.425 96.64 100.383 96.535 100.299 96.439C100.215 96.337 100.11 96.247 99.9837 96.169C99.8637 96.091 99.7377 96.022 99.6057 95.962C99.4737 95.896 99.3597 95.839 99.2637 95.791C99.0657 95.695 98.8677 95.593 98.6697 95.485C98.4717 95.371 98.2917 95.242 98.1297 95.098C97.9737 94.954 97.8447 94.789 97.7427 94.603C97.6467 94.411 97.5987 94.183 97.5987 93.919C97.5987 93.661 97.6437 93.427 97.7337 93.217C97.8237 93.001 97.9497 92.818 98.1117 92.668C98.2797 92.512 98.4807 92.392 98.7147 92.308C98.9487 92.224 99.2097 92.182 99.4977 92.182C99.8037 92.182 100.113 92.257 100.425 92.407C100.737 92.557 101.007 92.782 101.235 93.082L100.641 93.676ZM105.555 92.326L105.744 93.136H103.143V94.882H105.222V95.692H103.143V97.69H105.942L105.69 98.5H102.261V92.326H105.555ZM110.883 92.326L107.643 97.69H111.045L110.829 98.5H106.284L109.56 93.136H106.419L106.599 92.326H110.883ZM115.932 92.326C116.232 92.326 116.508 92.371 116.76 92.461C117.012 92.545 117.228 92.668 117.408 92.83C117.594 92.992 117.738 93.184 117.84 93.406C117.942 93.628 117.993 93.874 117.993 94.144C117.993 94.426 117.954 94.69 117.876 94.936C117.798 95.176 117.663 95.386 117.471 95.566C117.285 95.746 117.036 95.887 116.724 95.989C116.412 96.091 116.022 96.142 115.554 96.142H115.122V98.5L114.24 98.608V92.326H115.932ZM115.833 95.332C116.031 95.332 116.208 95.314 116.364 95.278C116.52 95.236 116.652 95.17 116.76 95.08C116.874 94.984 116.961 94.861 117.021 94.711C117.081 94.555 117.111 94.366 117.111 94.144C117.111 93.808 116.994 93.556 116.76 93.388C116.532 93.22 116.223 93.136 115.833 93.136H115.122V95.332H115.833ZM120.836 92.182L123.977 98.464L123.095 98.644L122.042 96.52H119.558L118.514 98.644L117.686 98.464L120.818 92.182H120.836ZM119.927 95.71H121.682L120.8 93.937L119.927 95.71ZM125.858 92.326C126.134 92.326 126.395 92.365 126.641 92.443C126.887 92.515 127.103 92.629 127.289 92.785C127.475 92.941 127.622 93.136 127.73 93.37C127.838 93.604 127.892 93.88 127.892 94.198C127.892 94.666 127.769 95.029 127.523 95.287C127.277 95.539 126.944 95.713 126.524 95.809L128.387 98.392L127.397 98.644L125.246 95.503H125.228V98.5L124.346 98.608V92.326H125.858ZM125.876 95.305C126.02 95.305 126.161 95.278 126.299 95.224C126.437 95.17 126.557 95.095 126.659 94.999C126.767 94.903 126.851 94.789 126.911 94.657C126.977 94.519 127.01 94.366 127.01 94.198C127.01 94.012 126.98 93.853 126.92 93.721C126.86 93.583 126.779 93.472 126.677 93.388C126.575 93.304 126.455 93.241 126.317 93.199C126.185 93.157 126.041 93.136 125.885 93.136H125.228V95.305H125.876ZM132.322 97.69H134.941L134.581 98.5H131.44V92.326L132.322 92.182V97.69ZM137.842 92.182L140.983 98.464L140.101 98.644L139.048 96.52H136.564L135.52 98.644L134.692 98.464L137.824 92.182H137.842ZM136.933 95.71H138.688L137.806 93.937L136.933 95.71ZM147.772 93.289C147.61 93.175 147.445 93.097 147.277 93.055C147.109 93.013 146.929 92.992 146.737 92.992C146.419 92.992 146.122 93.061 145.846 93.199C145.576 93.331 145.339 93.508 145.135 93.73C144.931 93.946 144.772 94.198 144.658 94.486C144.544 94.774 144.487 95.071 144.487 95.377C144.487 95.701 144.544 96.013 144.658 96.313C144.772 96.607 144.928 96.868 145.126 97.096C145.324 97.318 145.555 97.498 145.819 97.636C146.089 97.768 146.38 97.834 146.692 97.834C146.902 97.834 147.112 97.801 147.322 97.735C147.538 97.663 147.733 97.57 147.907 97.456L147.745 98.419C147.559 98.485 147.379 98.539 147.205 98.581C147.037 98.623 146.86 98.644 146.674 98.644C146.26 98.644 145.867 98.56 145.495 98.392C145.123 98.224 144.796 97.996 144.514 97.708C144.238 97.414 144.016 97.072 143.848 96.682C143.686 96.286 143.605 95.863 143.605 95.413C143.605 95.005 143.689 94.609 143.857 94.225C144.025 93.835 144.244 93.49 144.514 93.19C144.79 92.884 145.102 92.641 145.45 92.461C145.798 92.275 146.155 92.182 146.521 92.182C146.701 92.182 146.878 92.197 147.052 92.227C147.232 92.251 147.409 92.287 147.583 92.335L147.772 93.289ZM151.351 92.182L154.492 98.464L153.61 98.644L152.557 96.52H150.073L149.029 98.644L148.201 98.464L151.333 92.182H151.351ZM150.442 95.71H152.197L151.315 93.937L150.442 95.71ZM157.831 93.676C157.591 93.412 157.378 93.232 157.192 93.136C157.006 93.04 156.823 92.992 156.643 92.992C156.355 92.992 156.121 93.076 155.941 93.244C155.761 93.412 155.671 93.643 155.671 93.937C155.671 94.075 155.701 94.195 155.761 94.297C155.827 94.393 155.914 94.48 156.022 94.558C156.136 94.636 156.271 94.708 156.427 94.774C156.583 94.834 156.754 94.9 156.94 94.972C157.162 95.056 157.366 95.146 157.552 95.242C157.744 95.338 157.909 95.455 158.047 95.593C158.185 95.731 158.293 95.896 158.371 96.088C158.455 96.274 158.497 96.499 158.497 96.763C158.497 97.045 158.446 97.3 158.344 97.528C158.242 97.756 158.104 97.954 157.93 98.122C157.756 98.29 157.552 98.419 157.318 98.509C157.09 98.599 156.844 98.644 156.58 98.644C156.406 98.644 156.241 98.626 156.085 98.59C155.929 98.56 155.773 98.506 155.617 98.428C155.467 98.35 155.311 98.248 155.149 98.122C154.993 97.99 154.831 97.831 154.663 97.645L155.311 97.105C155.437 97.303 155.602 97.474 155.806 97.618C156.01 97.762 156.238 97.834 156.49 97.834C156.646 97.834 156.79 97.816 156.922 97.78C157.06 97.738 157.18 97.675 157.282 97.591C157.384 97.507 157.465 97.396 157.525 97.258C157.585 97.12 157.615 96.952 157.615 96.754C157.615 96.64 157.573 96.535 157.489 96.439C157.405 96.337 157.3 96.247 157.174 96.169C157.054 96.091 156.928 96.022 156.796 95.962C156.664 95.896 156.55 95.839 156.454 95.791C156.256 95.695 156.058 95.593 155.86 95.485C155.662 95.371 155.482 95.242 155.32 95.098C155.164 94.954 155.035 94.789 154.933 94.603C154.837 94.411 154.789 94.183 154.789 93.919C154.789 93.661 154.834 93.427 154.924 93.217C155.014 93.001 155.14 92.818 155.302 92.668C155.47 92.512 155.671 92.392 155.905 92.308C156.139 92.224 156.4 92.182 156.688 92.182C156.994 92.182 157.303 92.257 157.615 92.407C157.927 92.557 158.197 92.782 158.425 93.082L157.831 93.676ZM162.745 92.326L162.934 93.136H160.333V94.882H162.412V95.692H160.333V97.69H163.132L162.88 98.5H159.451V92.326H162.745ZM168.004 92.326C168.448 92.326 168.859 92.41 169.237 92.578C169.615 92.746 169.939 92.971 170.209 93.253C170.485 93.535 170.701 93.862 170.857 94.234C171.013 94.606 171.091 94.999 171.091 95.413C171.091 95.827 171.013 96.22 170.857 96.592C170.701 96.964 170.485 97.294 170.209 97.582C169.933 97.864 169.606 98.089 169.228 98.257C168.856 98.419 168.451 98.5 168.013 98.5H166.438V92.326H168.004ZM167.977 97.69C168.253 97.69 168.523 97.636 168.787 97.528C169.057 97.42 169.297 97.267 169.507 97.069C169.717 96.865 169.885 96.625 170.011 96.349C170.143 96.067 170.209 95.755 170.209 95.413C170.209 95.077 170.143 94.771 170.011 94.495C169.885 94.213 169.717 93.973 169.507 93.775C169.297 93.571 169.057 93.415 168.787 93.307C168.523 93.193 168.25 93.136 167.968 93.136H167.32V97.69H167.977ZM175.252 92.326L175.441 93.136H172.84V94.882H174.919V95.692H172.84V97.69H175.639L175.387 98.5H171.958V92.326H175.252ZM174.946 90.67L173.65 91.966H172.912L173.722 90.67H174.946ZM178.123 92.326C178.423 92.326 178.699 92.371 178.951 92.461C179.203 92.545 179.419 92.668 179.599 92.83C179.785 92.992 179.929 93.184 180.031 93.406C180.133 93.628 180.184 93.874 180.184 94.144C180.184 94.426 180.145 94.69 180.067 94.936C179.989 95.176 179.854 95.386 179.662 95.566C179.476 95.746 179.227 95.887 178.915 95.989C178.603 96.091 178.213 96.142 177.745 96.142H177.313V98.5L176.431 98.608V92.326H178.123ZM178.024 95.332C178.222 95.332 178.399 95.314 178.555 95.278C178.711 95.236 178.843 95.17 178.951 95.08C179.065 94.984 179.152 94.861 179.212 94.711C179.272 94.555 179.302 94.366 179.302 94.144C179.302 93.808 179.185 93.556 178.951 93.388C178.723 93.22 178.414 93.136 178.024 93.136H177.313V95.332H178.024ZM183.027 92.182L186.168 98.464L185.286 98.644L184.233 96.52H181.749L180.705 98.644L179.877 98.464L183.009 92.182H183.027ZM182.118 95.71H183.873L182.991 93.937L182.118 95.71ZM188.049 92.326C188.325 92.326 188.586 92.365 188.832 92.443C189.078 92.515 189.294 92.629 189.48 92.785C189.666 92.941 189.813 93.136 189.921 93.37C190.029 93.604 190.083 93.88 190.083 94.198C190.083 94.666 189.96 95.029 189.714 95.287C189.468 95.539 189.135 95.713 188.715 95.809L190.578 98.392L189.588 98.644L187.437 95.503H187.419V98.5L186.537 98.608V92.326H188.049ZM188.067 95.305C188.211 95.305 188.352 95.278 188.49 95.224C188.628 95.17 188.748 95.095 188.85 94.999C188.958 94.903 189.042 94.789 189.102 94.657C189.168 94.519 189.201 94.366 189.201 94.198C189.201 94.012 189.171 93.853 189.111 93.721C189.051 93.583 188.97 93.472 188.868 93.388C188.766 93.304 188.646 93.241 188.508 93.199C188.376 93.157 188.232 93.136 188.076 93.136H187.419V95.305H188.067ZM194.403 92.326V93.136H192.963V98.5L192.081 98.608V93.136H190.479L190.758 92.326H194.403Z" fill="black"/>
<path d="M71.9827 103.182L72.0097 103.191L75.9607 107.502V103.47L76.8427 103.326V109.644L76.8157 109.635L72.8647 105.324V109.5L71.9827 109.608V103.182ZM81.3067 103.326L81.4957 104.136H78.8947V105.882H80.9737V106.692H78.8947V108.69H81.6937L81.4417 109.5H78.0127V103.326H81.3067ZM88.8426 104.289C88.6806 104.175 88.5156 104.097 88.3476 104.055C88.1796 104.013 87.9996 103.992 87.8076 103.992C87.4896 103.992 87.1926 104.061 86.9166 104.199C86.6466 104.331 86.4096 104.508 86.2056 104.73C86.0016 104.946 85.8426 105.198 85.7286 105.486C85.6146 105.774 85.5576 106.071 85.5576 106.377C85.5576 106.701 85.6146 107.013 85.7286 107.313C85.8426 107.607 85.9986 107.868 86.1966 108.096C86.3946 108.318 86.6256 108.498 86.8896 108.636C87.1596 108.768 87.4506 108.834 87.7626 108.834C87.9726 108.834 88.1826 108.801 88.3926 108.735C88.6086 108.663 88.8036 108.57 88.9776 108.456L88.8156 109.419C88.6296 109.485 88.4496 109.539 88.2756 109.581C88.1076 109.623 87.9306 109.644 87.7446 109.644C87.3306 109.644 86.9376 109.56 86.5656 109.392C86.1936 109.224 85.8666 108.996 85.5846 108.708C85.3086 108.414 85.0866 108.072 84.9186 107.682C84.7566 107.286 84.6756 106.863 84.6756 106.413C84.6756 106.005 84.7596 105.609 84.9276 105.225C85.0956 104.835 85.3146 104.49 85.5846 104.19C85.8606 103.884 86.1726 103.641 86.5206 103.461C86.8686 103.275 87.2256 103.182 87.5916 103.182C87.7716 103.182 87.9486 103.197 88.1226 103.227C88.3026 103.251 88.4796 103.287 88.6536 103.335L88.8426 104.289ZM96.1565 106.413C96.1565 106.863 96.0695 107.286 95.8955 107.682C95.7275 108.072 95.4965 108.414 95.2025 108.708C94.9145 108.996 94.5725 109.224 94.1765 109.392C93.7865 109.56 93.3665 109.644 92.9165 109.644C92.4605 109.644 92.0345 109.56 91.6385 109.392C91.2485 109.224 90.9065 108.993 90.6125 108.699C90.3245 108.405 90.0965 108.063 89.9285 107.673C89.7605 107.277 89.6765 106.857 89.6765 106.413C89.6765 105.963 89.7605 105.543 89.9285 105.153C90.1025 104.757 90.3335 104.415 90.6215 104.127C90.9155 103.833 91.2575 103.602 91.6475 103.434C92.0435 103.266 92.4665 103.182 92.9165 103.182C93.3725 103.182 93.7955 103.269 94.1855 103.443C94.5815 103.611 94.9235 103.842 95.2115 104.136C95.5055 104.424 95.7365 104.766 95.9045 105.162C96.0725 105.552 96.1565 105.969 96.1565 106.413ZM92.9165 108.834C93.2285 108.834 93.5255 108.771 93.8075 108.645C94.0955 108.513 94.3475 108.339 94.5635 108.123C94.7795 107.901 94.9505 107.643 95.0765 107.349C95.2085 107.055 95.2745 106.743 95.2745 106.413C95.2745 106.089 95.2115 105.78 95.0855 105.486C94.9595 105.192 94.7885 104.937 94.5725 104.721C94.3625 104.499 94.1135 104.322 93.8255 104.19C93.5375 104.058 93.2315 103.992 92.9075 103.992C92.6015 103.992 92.3045 104.055 92.0165 104.181C91.7345 104.307 91.4855 104.481 91.2695 104.703C91.0535 104.919 90.8795 105.174 90.7475 105.468C90.6215 105.762 90.5585 106.077 90.5585 106.413C90.5585 106.743 90.6215 107.055 90.7475 107.349C90.8735 107.643 91.0445 107.901 91.2605 108.123C91.4765 108.339 91.7255 108.513 92.0075 108.645C92.2955 108.771 92.5985 108.834 92.9165 108.834ZM97.9054 108.69H100.524L100.164 109.5H97.0234V103.326L97.9054 103.182V108.69ZM101.904 108.69H104.523L104.163 109.5H101.022V103.326L101.904 103.182V108.69ZM108.315 103.326L108.504 104.136H105.903V105.882H107.982V106.692H105.903V108.69H108.702L108.45 109.5H105.021V103.326H108.315ZM113.346 104.289C113.184 104.175 113.019 104.097 112.851 104.055C112.683 104.013 112.503 103.992 112.311 103.992C111.993 103.992 111.696 104.061 111.42 104.199C111.15 104.331 110.913 104.508 110.709 104.73C110.505 104.946 110.346 105.198 110.232 105.486C110.118 105.774 110.061 106.071 110.061 106.377C110.061 106.701 110.118 107.013 110.232 107.313C110.346 107.607 110.502 107.868 110.7 108.096C110.898 108.318 111.129 108.498 111.393 108.636C111.663 108.768 111.954 108.834 112.266 108.834C112.476 108.834 112.686 108.801 112.896 108.735C113.112 108.663 113.307 108.57 113.481 108.456L113.319 109.419C113.133 109.485 112.953 109.539 112.779 109.581C112.611 109.623 112.434 109.644 112.248 109.644C111.834 109.644 111.441 109.56 111.069 109.392C110.697 109.224 110.37 108.996 110.088 108.708C109.812 108.414 109.59 108.072 109.422 107.682C109.26 107.286 109.179 106.863 109.179 106.413C109.179 106.005 109.263 105.609 109.431 105.225C109.599 104.835 109.818 104.49 110.088 104.19C110.364 103.884 110.676 103.641 111.024 103.461C111.372 103.275 111.729 103.182 112.095 103.182C112.275 103.182 112.452 103.197 112.626 103.227C112.806 103.251 112.983 103.287 113.157 103.335L113.346 104.289ZM117.798 103.326V104.136H116.358V109.5L115.476 109.608V104.136H113.874L114.153 103.326H117.798ZM121.815 103.326L122.004 104.136H119.403V105.882H121.482V106.692H119.403V108.69H122.202L121.95 109.5H118.521V103.326H121.815ZM127.143 103.326L123.903 108.69H127.305L127.089 109.5H122.544L125.82 104.136H122.679L122.859 103.326H127.143ZM132.192 103.326C132.492 103.326 132.768 103.371 133.02 103.461C133.272 103.545 133.488 103.668 133.668 103.83C133.854 103.992 133.998 104.184 134.1 104.406C134.202 104.628 134.253 104.874 134.253 105.144C134.253 105.426 134.214 105.69 134.136 105.936C134.058 106.176 133.923 106.386 133.731 106.566C133.545 106.746 133.296 106.887 132.984 106.989C132.672 107.091 132.282 107.142 131.814 107.142H131.382V109.5L130.5 109.608V103.326H132.192ZM132.093 106.332C132.291 106.332 132.468 106.314 132.624 106.278C132.78 106.236 132.912 106.17 133.02 106.08C133.134 105.984 133.221 105.861 133.281 105.711C133.341 105.555 133.371 105.366 133.371 105.144C133.371 104.808 133.254 104.556 133.02 104.388C132.792 104.22 132.483 104.136 132.093 104.136H131.382V106.332H132.093ZM137.096 103.182L140.237 109.464L139.355 109.644L138.302 107.52H135.818L134.774 109.644L133.946 109.464L137.078 103.182H137.096ZM136.187 106.71H137.942L137.06 104.937L136.187 106.71ZM143.576 104.676C143.336 104.412 143.123 104.232 142.937 104.136C142.751 104.04 142.568 103.992 142.388 103.992C142.1 103.992 141.866 104.076 141.686 104.244C141.506 104.412 141.416 104.643 141.416 104.937C141.416 105.075 141.446 105.195 141.506 105.297C141.572 105.393 141.659 105.48 141.767 105.558C141.881 105.636 142.016 105.708 142.172 105.774C142.328 105.834 142.499 105.9 142.685 105.972C142.907 106.056 143.111 106.146 143.297 106.242C143.489 106.338 143.654 106.455 143.792 106.593C143.93 106.731 144.038 106.896 144.116 107.088C144.2 107.274 144.242 107.499 144.242 107.763C144.242 108.045 144.191 108.3 144.089 108.528C143.987 108.756 143.849 108.954 143.675 109.122C143.501 109.29 143.297 109.419 143.063 109.509C142.835 109.599 142.589 109.644 142.325 109.644C142.151 109.644 141.986 109.626 141.83 109.59C141.674 109.56 141.518 109.506 141.362 109.428C141.212 109.35 141.056 109.248 140.894 109.122C140.738 108.99 140.576 108.831 140.408 108.645L141.056 108.105C141.182 108.303 141.347 108.474 141.551 108.618C141.755 108.762 141.983 108.834 142.235 108.834C142.391 108.834 142.535 108.816 142.667 108.78C142.805 108.738 142.925 108.675 143.027 108.591C143.129 108.507 143.21 108.396 143.27 108.258C143.33 108.12 143.36 107.952 143.36 107.754C143.36 107.64 143.318 107.535 143.234 107.439C143.15 107.337 143.045 107.247 142.919 107.169C142.799 107.091 142.673 107.022 142.541 106.962C142.409 106.896 142.295 106.839 142.199 106.791C142.001 106.695 141.803 106.593 141.605 106.485C141.407 106.371 141.227 106.242 141.065 106.098C140.909 105.954 140.78 105.789 140.678 105.603C140.582 105.411 140.534 105.183 140.534 104.919C140.534 104.661 140.579 104.427 140.669 104.217C140.759 104.001 140.885 103.818 141.047 103.668C141.215 103.512 141.416 103.392 141.65 103.308C141.884 103.224 142.145 103.182 142.433 103.182C142.739 103.182 143.048 103.257 143.36 103.407C143.672 103.557 143.942 103.782 144.17 104.082L143.576 104.676Z" fill="black"/>
<path d="M153.007 104.064C152.905 103.962 152.77 103.878 152.602 103.812C152.44 103.74 152.263 103.704 152.071 103.704C151.873 103.704 151.687 103.749 151.513 103.839C151.339 103.923 151.18 104.046 151.036 104.208C150.892 104.364 150.766 104.556 150.658 104.784C150.55 105.012 150.469 105.264 150.415 105.54H152.278L152.188 106.017H150.334C150.322 106.083 150.316 106.146 150.316 106.206C150.316 106.266 150.316 106.329 150.316 106.395C150.316 106.443 150.316 106.488 150.316 106.53C150.316 106.572 150.319 106.617 150.325 106.665H152.062L151.972 107.142H150.37C150.466 107.76 150.667 108.246 150.973 108.6C151.285 108.948 151.657 109.122 152.089 109.122C152.269 109.122 152.443 109.089 152.611 109.023C152.779 108.951 152.926 108.858 153.052 108.744L152.971 109.41C152.827 109.512 152.671 109.575 152.503 109.599C152.341 109.629 152.206 109.644 152.098 109.644C151.81 109.644 151.537 109.584 151.279 109.464C151.027 109.344 150.799 109.176 150.595 108.96C150.397 108.744 150.229 108.483 150.091 108.177C149.953 107.871 149.854 107.526 149.794 107.142H148.984L149.074 106.665H149.749C149.743 106.617 149.74 106.572 149.74 106.53C149.74 106.482 149.74 106.437 149.74 106.395C149.74 106.329 149.74 106.266 149.74 106.206C149.746 106.146 149.752 106.083 149.758 106.017H148.984L149.074 105.54H149.821C149.887 105.198 149.989 104.883 150.127 104.595C150.271 104.307 150.442 104.058 150.64 103.848C150.838 103.638 151.06 103.476 151.306 103.362C151.558 103.242 151.825 103.182 152.107 103.182C152.257 103.182 152.407 103.2 152.557 103.236C152.713 103.272 152.833 103.329 152.917 103.407L153.007 104.064Z" fill="black"/>
<path d="M159.737 105.108C159.737 105.348 159.692 105.588 159.602 105.828C159.512 106.068 159.398 106.302 159.26 106.53C159.122 106.752 158.969 106.965 158.801 107.169C158.633 107.373 158.471 107.559 158.315 107.727L157.406 108.69H159.836L159.674 109.5H155.633L158.099 106.638C158.189 106.536 158.279 106.422 158.369 106.296C158.459 106.17 158.54 106.041 158.612 105.909C158.684 105.771 158.741 105.636 158.783 105.504C158.831 105.366 158.855 105.234 158.855 105.108C158.855 104.76 158.747 104.487 158.531 104.289C158.315 104.091 158.027 103.992 157.667 103.992C157.493 103.992 157.334 104.022 157.19 104.082C157.046 104.142 156.92 104.226 156.812 104.334C156.704 104.436 156.62 104.556 156.56 104.694C156.5 104.832 156.47 104.979 156.47 105.135C156.47 105.531 156.569 105.843 156.767 106.071C156.971 106.293 157.226 106.419 157.532 106.449L156.974 107.151C156.578 107.025 156.26 106.785 156.02 106.431C155.78 106.077 155.66 105.636 155.66 105.108C155.66 104.826 155.711 104.568 155.813 104.334C155.921 104.1 156.068 103.899 156.254 103.731C156.44 103.557 156.659 103.422 156.911 103.326C157.163 103.23 157.439 103.182 157.739 103.182C158.021 103.182 158.282 103.227 158.522 103.317C158.768 103.407 158.981 103.536 159.161 103.704C159.341 103.872 159.482 104.076 159.584 104.316C159.686 104.55 159.737 104.814 159.737 105.108ZM162.749 109.644C162.335 109.644 161.984 109.548 161.696 109.356C161.408 109.158 161.177 108.906 161.003 108.6C160.829 108.288 160.703 107.94 160.625 107.556C160.547 107.166 160.508 106.782 160.508 106.404C160.508 106.176 160.523 105.939 160.553 105.693C160.583 105.447 160.631 105.204 160.697 104.964C160.769 104.724 160.862 104.496 160.976 104.28C161.09 104.064 161.228 103.875 161.39 103.713C161.558 103.551 161.753 103.422 161.975 103.326C162.197 103.23 162.455 103.182 162.749 103.182C163.169 103.182 163.52 103.281 163.802 103.479C164.09 103.677 164.321 103.932 164.495 104.244C164.675 104.556 164.801 104.904 164.873 105.288C164.951 105.672 164.99 106.053 164.99 106.431C164.99 106.773 164.954 107.133 164.882 107.511C164.81 107.883 164.687 108.228 164.513 108.546C164.345 108.864 164.117 109.128 163.829 109.338C163.541 109.542 163.181 109.644 162.749 109.644ZM162.749 108.834C163.199 108.834 163.538 108.627 163.766 108.213C163.994 107.793 164.108 107.193 164.108 106.413C164.108 105.645 163.994 105.051 163.766 104.631C163.544 104.205 163.202 103.992 162.74 103.992C162.32 103.992 161.99 104.193 161.75 104.595C161.51 104.991 161.39 105.597 161.39 106.413C161.39 107.193 161.504 107.793 161.732 108.213C161.96 108.627 162.299 108.834 162.749 108.834ZM167.75 109.644C167.336 109.644 166.985 109.548 166.697 109.356C166.409 109.158 166.178 108.906 166.004 108.6C165.83 108.288 165.704 107.94 165.626 107.556C165.548 107.166 165.509 106.782 165.509 106.404C165.509 106.176 165.524 105.939 165.554 105.693C165.584 105.447 165.632 105.204 165.698 104.964C165.77 104.724 165.863 104.496 165.977 104.28C166.091 104.064 166.229 103.875 166.391 103.713C166.559 103.551 166.754 103.422 166.976 103.326C167.198 103.23 167.456 103.182 167.75 103.182C168.17 103.182 168.521 103.281 168.803 103.479C169.091 103.677 169.322 103.932 169.496 104.244C169.676 104.556 169.802 104.904 169.874 105.288C169.952 105.672 169.991 106.053 169.991 106.431C169.991 106.773 169.955 107.133 169.883 107.511C169.811 107.883 169.688 108.228 169.514 108.546C169.346 108.864 169.118 109.128 168.83 109.338C168.542 109.542 168.182 109.644 167.75 109.644ZM167.75 108.834C168.2 108.834 168.539 108.627 168.767 108.213C168.995 107.793 169.109 107.193 169.109 106.413C169.109 105.645 168.995 105.051 168.767 104.631C168.545 104.205 168.203 103.992 167.741 103.992C167.321 103.992 166.991 104.193 166.751 104.595C166.511 104.991 166.391 105.597 166.391 106.413C166.391 107.193 166.505 107.793 166.733 108.213C166.961 108.627 167.3 108.834 167.75 108.834ZM171.5 108.033L172.085 108.807L171.5 109.581L170.915 108.807L171.5 108.033Z" fill="black"/>
<rect width="30" height="13" transform="translate(107.5 141)" fill="white"/>
<path d="M111.426 145.198C111.659 145.198 111.874 145.233 112.07 145.303C112.266 145.368 112.434 145.464 112.574 145.59C112.719 145.716 112.831 145.865 112.91 146.038C112.989 146.211 113.029 146.402 113.029 146.612C113.029 146.831 112.999 147.037 112.938 147.228C112.877 147.415 112.772 147.578 112.623 147.718C112.478 147.858 112.285 147.968 112.042 148.047C111.799 148.126 111.496 148.166 111.132 148.166H110.796V150L110.11 150.084V145.198H111.426ZM111.349 147.536C111.503 147.536 111.641 147.522 111.762 147.494C111.883 147.461 111.986 147.41 112.07 147.34C112.159 147.265 112.226 147.17 112.273 147.053C112.32 146.932 112.343 146.785 112.343 146.612C112.343 146.351 112.252 146.155 112.07 146.024C111.893 145.893 111.652 145.828 111.349 145.828H110.796V147.536H111.349ZM118.405 147.599C118.405 147.949 118.337 148.278 118.202 148.586C118.071 148.889 117.892 149.155 117.663 149.384C117.439 149.608 117.173 149.785 116.865 149.916C116.562 150.047 116.235 150.112 115.885 150.112C115.53 150.112 115.199 150.047 114.891 149.916C114.588 149.785 114.322 149.606 114.093 149.377C113.869 149.148 113.692 148.882 113.561 148.579C113.43 148.271 113.365 147.944 113.365 147.599C113.365 147.249 113.43 146.922 113.561 146.619C113.696 146.311 113.876 146.045 114.1 145.821C114.329 145.592 114.595 145.413 114.898 145.282C115.206 145.151 115.535 145.086 115.885 145.086C116.24 145.086 116.569 145.154 116.872 145.289C117.18 145.42 117.446 145.599 117.67 145.828C117.899 146.052 118.078 146.318 118.209 146.626C118.34 146.929 118.405 147.254 118.405 147.599ZM115.885 149.482C116.128 149.482 116.359 149.433 116.578 149.335C116.802 149.232 116.998 149.097 117.166 148.929C117.334 148.756 117.467 148.556 117.565 148.327C117.668 148.098 117.719 147.856 117.719 147.599C117.719 147.347 117.67 147.107 117.572 146.878C117.474 146.649 117.341 146.451 117.173 146.283C117.01 146.11 116.816 145.973 116.592 145.87C116.368 145.767 116.13 145.716 115.878 145.716C115.64 145.716 115.409 145.765 115.185 145.863C114.966 145.961 114.772 146.096 114.604 146.269C114.436 146.437 114.301 146.635 114.198 146.864C114.1 147.093 114.051 147.338 114.051 147.599C114.051 147.856 114.1 148.098 114.198 148.327C114.296 148.556 114.429 148.756 114.597 148.929C114.765 149.097 114.959 149.232 115.178 149.335C115.402 149.433 115.638 149.482 115.885 149.482ZM119.765 149.37H121.802L121.522 150H119.079V145.198L119.765 145.086V149.37ZM121.898 145.086L123.291 147.424L124.299 145.086L124.957 145.289L122.801 150.112L122.129 149.965L122.969 148.152L121.226 145.282L121.898 145.086ZM127.547 146.248C127.36 146.043 127.195 145.903 127.05 145.828C126.905 145.753 126.763 145.716 126.623 145.716C126.399 145.716 126.217 145.781 126.077 145.912C125.937 146.043 125.867 146.222 125.867 146.451C125.867 146.558 125.89 146.652 125.937 146.731C125.988 146.806 126.056 146.873 126.14 146.934C126.229 146.995 126.334 147.051 126.455 147.102C126.576 147.149 126.709 147.2 126.854 147.256C127.027 147.321 127.185 147.391 127.33 147.466C127.479 147.541 127.608 147.632 127.715 147.739C127.822 147.846 127.906 147.975 127.967 148.124C128.032 148.269 128.065 148.444 128.065 148.649C128.065 148.868 128.025 149.067 127.946 149.244C127.867 149.421 127.759 149.575 127.624 149.706C127.489 149.837 127.33 149.937 127.148 150.007C126.971 150.077 126.779 150.112 126.574 150.112C126.439 150.112 126.31 150.098 126.189 150.07C126.068 150.047 125.946 150.005 125.825 149.944C125.708 149.883 125.587 149.804 125.461 149.706C125.34 149.603 125.214 149.48 125.083 149.335L125.587 148.915C125.685 149.069 125.813 149.202 125.972 149.314C126.131 149.426 126.308 149.482 126.504 149.482C126.625 149.482 126.737 149.468 126.84 149.44C126.947 149.407 127.041 149.358 127.12 149.293C127.199 149.228 127.262 149.141 127.309 149.034C127.356 148.927 127.379 148.796 127.379 148.642C127.379 148.553 127.346 148.472 127.281 148.397C127.216 148.318 127.134 148.248 127.036 148.187C126.943 148.126 126.845 148.073 126.742 148.026C126.639 147.975 126.551 147.93 126.476 147.893C126.322 147.818 126.168 147.739 126.014 147.655C125.86 147.566 125.72 147.466 125.594 147.354C125.473 147.242 125.372 147.114 125.293 146.969C125.218 146.82 125.181 146.642 125.181 146.437C125.181 146.236 125.216 146.054 125.286 145.891C125.356 145.723 125.454 145.581 125.58 145.464C125.711 145.343 125.867 145.249 126.049 145.184C126.231 145.119 126.434 145.086 126.658 145.086C126.896 145.086 127.136 145.144 127.379 145.261C127.622 145.378 127.832 145.553 128.009 145.786L127.547 146.248ZM129.458 150L128.772 150.056V145.198L129.458 145.086V150ZM135.133 147.599C135.133 147.949 135.065 148.278 134.93 148.586C134.799 148.889 134.619 149.155 134.391 149.384C134.167 149.608 133.901 149.785 133.593 149.916C133.289 150.047 132.963 150.112 132.613 150.112C132.258 150.112 131.927 150.047 131.619 149.916C131.315 149.785 131.049 149.606 130.821 149.377C130.597 149.148 130.419 148.882 130.289 148.579C130.158 148.271 130.093 147.944 130.093 147.599C130.093 147.249 130.158 146.922 130.289 146.619C130.424 146.311 130.604 146.045 130.828 145.821C131.056 145.592 131.322 145.413 131.626 145.282C131.934 145.151 132.263 145.086 132.613 145.086C132.967 145.086 133.296 145.154 133.6 145.289C133.908 145.42 134.174 145.599 134.398 145.828C134.626 146.052 134.806 146.318 134.937 146.626C135.067 146.929 135.133 147.254 135.133 147.599ZM132.613 149.482C132.855 149.482 133.086 149.433 133.306 149.335C133.53 149.232 133.726 149.097 133.894 148.929C134.062 148.756 134.195 148.556 134.293 148.327C134.395 148.098 134.447 147.856 134.447 147.599C134.447 147.347 134.398 147.107 134.3 146.878C134.202 146.649 134.069 146.451 133.901 146.283C133.737 146.11 133.544 145.973 133.32 145.87C133.096 145.767 132.858 145.716 132.606 145.716C132.368 145.716 132.137 145.765 131.913 145.863C131.693 145.961 131.5 146.096 131.332 146.269C131.164 146.437 131.028 146.635 130.926 146.864C130.828 147.093 130.779 147.338 130.779 147.599C130.779 147.856 130.828 148.098 130.926 148.327C131.024 148.556 131.157 148.756 131.325 148.929C131.493 149.097 131.686 149.232 131.906 149.335C132.13 149.433 132.365 149.482 132.613 149.482Z" fill="black"/>
</svg>
