<svg width="244" height="157" viewBox="0 0 244 157" fill="none" xmlns="http://www.w3.org/2000/svg">
<rect width="244" height="157" fill="white"/>
<rect x="9" y="9" width="226" height="139" stroke="black"/>
<path d="M106.19 23.036C105.966 22.876 105.73 22.74 105.482 22.628C105.234 22.508 104.97 22.448 104.69 22.448C104.346 22.448 104.026 22.508 103.73 22.628C103.442 22.74 103.194 22.904 102.986 23.12C102.778 23.328 102.614 23.58 102.494 23.876C102.374 24.172 102.314 24.5 102.314 24.86C102.314 25.228 102.37 25.564 102.482 25.868C102.602 26.164 102.766 26.42 102.974 26.636C103.182 26.852 103.43 27.02 103.718 27.14C104.014 27.26 104.338 27.32 104.69 27.32C104.97 27.32 105.238 27.26 105.494 27.14C105.758 27.012 106.006 26.868 106.238 26.708L105.986 28.892C105.906 28.94 105.802 28.98 105.674 29.012C105.546 29.052 105.41 29.084 105.266 29.108C105.13 29.132 104.994 29.152 104.858 29.168C104.73 29.184 104.626 29.192 104.546 29.192C103.922 29.192 103.346 29.088 102.818 28.88C102.298 28.672 101.846 28.38 101.462 28.004C101.086 27.628 100.794 27.18 100.586 26.66C100.378 26.132 100.274 25.548 100.274 24.908C100.274 24.3 100.378 23.732 100.586 23.204C100.794 22.676 101.086 22.216 101.462 21.824C101.838 21.432 102.286 21.128 102.806 20.912C103.334 20.688 103.91 20.576 104.534 20.576C104.774 20.576 105.006 20.596 105.23 20.636C105.454 20.676 105.67 20.744 105.878 20.84L106.19 23.036ZM109.342 23.768H111.982V20.768L114.022 20.576V28.904L111.982 29.096V25.64H109.342V28.904L107.302 29.096V20.768L109.342 20.576V23.768ZM118.642 20.576H118.666L123.106 28.772L121.03 29.192L120.19 27.428L117.058 27.428L116.23 29.192L114.25 28.772L118.642 20.576ZM117.55 25.904L119.734 25.904L118.642 23.888L117.55 25.904ZM123.274 20.576H123.298L128.686 25.184V20.768L130.726 20.576V29.192H130.702L125.314 24.488V28.904L123.274 29.096V20.576ZM137.526 23.036C137.302 22.876 137.066 22.74 136.818 22.628C136.57 22.508 136.306 22.448 136.026 22.448C135.682 22.448 135.362 22.508 135.066 22.628C134.778 22.74 134.53 22.904 134.322 23.12C134.114 23.328 133.95 23.58 133.83 23.876C133.71 24.172 133.65 24.5 133.65 24.86C133.65 25.228 133.706 25.564 133.818 25.868C133.938 26.164 134.102 26.42 134.31 26.636C134.518 26.852 134.766 27.02 135.054 27.14C135.35 27.26 135.674 27.32 136.026 27.32C136.306 27.32 136.574 27.26 136.83 27.14C137.094 27.012 137.342 26.868 137.574 26.708L137.322 28.892C137.242 28.94 137.138 28.98 137.01 29.012C136.882 29.052 136.746 29.084 136.602 29.108C136.466 29.132 136.33 29.152 136.194 29.168C136.066 29.184 135.962 29.192 135.882 29.192C135.258 29.192 134.682 29.088 134.154 28.88C133.634 28.672 133.182 28.38 132.798 28.004C132.422 27.628 132.13 27.18 131.922 26.66C131.714 26.132 131.61 25.548 131.61 24.908C131.61 24.3 131.714 23.732 131.922 23.204C132.13 22.676 132.422 22.216 132.798 21.824C133.174 21.432 133.622 21.128 134.142 20.912C134.67 20.688 135.246 20.576 135.87 20.576C136.11 20.576 136.342 20.596 136.566 20.636C136.79 20.676 137.006 20.744 137.214 20.84L137.526 23.036ZM143.294 20.768L143.654 22.508H140.678V23.936H142.802V25.676H140.678V27.26H143.906L143.402 29H138.638V20.768H143.294Z" fill="black"/>
<rect width="194" height="95" transform="translate(25 37)" fill="white"/>
<path d="M31.4187 69.101C31.4187 69.467 31.5207 69.764 31.7247 69.992C31.9347 70.22 32.2467 70.334 32.6607 70.334C33.1107 70.334 33.4497 70.226 33.6777 70.01C33.9057 69.788 34.0197 69.488 34.0197 69.11V64.826L34.9017 64.682V68.309C34.9017 68.531 34.8957 68.756 34.8837 68.984C34.8777 69.212 34.8537 69.431 34.8117 69.641C34.7757 69.851 34.7127 70.049 34.6227 70.235C34.5387 70.415 34.4187 70.574 34.2627 70.712C34.1067 70.844 33.9087 70.949 33.6687 71.027C33.4347 71.105 33.1467 71.144 32.8047 71.144C32.3787 71.144 32.0187 71.102 31.7247 71.018C31.4367 70.934 31.2027 70.796 31.0227 70.604C30.8487 70.406 30.7227 70.151 30.6447 69.839C30.5727 69.521 30.5367 69.131 30.5367 68.669V64.826L31.4187 64.682V69.101ZM36.0477 64.682L36.0747 64.691L40.0257 69.002V64.97L40.9077 64.826V71.144L40.8807 71.135L36.9297 66.824V71L36.0477 71.108V64.682ZM45.3716 64.826L45.5606 65.636H42.9596V67.382H45.0386V68.192H42.9596V70.19H45.7586L45.5066 71H42.0776V64.826H45.3716ZM52.3765 64.826L52.5655 65.636H49.9645V67.382H52.0435V68.192H49.9645V70.19H52.7635L52.5115 71H49.0825V64.826H52.3765ZM53.5555 64.682L53.5825 64.691L57.5335 69.002V64.97L58.4155 64.826V71.144L58.3885 71.135L54.4375 66.824V71L53.5555 71.108V64.682ZM62.8614 64.826V65.636H61.4214V71L60.5394 71.108V65.636H58.9374L59.2164 64.826H62.8614ZM65.0064 64.826C65.2824 64.826 65.5434 64.865 65.7894 64.943C66.0354 65.015 66.2514 65.129 66.4374 65.285C66.6234 65.441 66.7704 65.636 66.8784 65.87C66.9864 66.104 67.0404 66.38 67.0404 66.698C67.0404 67.166 66.9174 67.529 66.6714 67.787C66.4254 68.039 66.0924 68.213 65.6724 68.309L67.5354 70.892L66.5454 71.144L64.3944 68.003H64.3764V71L63.4944 71.108V64.826H65.0064ZM65.0244 67.805C65.1684 67.805 65.3094 67.778 65.4474 67.724C65.5854 67.67 65.7054 67.595 65.8074 67.499C65.9154 67.403 65.9994 67.289 66.0594 67.157C66.1254 67.019 66.1584 66.866 66.1584 66.698C66.1584 66.512 66.1284 66.353 66.0684 66.221C66.0084 66.083 65.9274 65.972 65.8254 65.888C65.7234 65.804 65.6034 65.741 65.4654 65.699C65.3334 65.657 65.1894 65.636 65.0334 65.636H64.3764V67.805H65.0244ZM71.3784 64.826L71.5674 65.636H68.9664V67.382H71.0454V68.192H68.9664V70.19H71.7654L71.5134 71H68.0844V64.826H71.3784ZM74.2494 64.826C74.5494 64.826 74.8254 64.871 75.0774 64.961C75.3294 65.045 75.5454 65.168 75.7254 65.33C75.9114 65.492 76.0554 65.684 76.1574 65.906C76.2594 66.128 76.3104 66.374 76.3104 66.644C76.3104 66.926 76.2714 67.19 76.1934 67.436C76.1154 67.676 75.9804 67.886 75.7884 68.066C75.6024 68.246 75.3534 68.387 75.0414 68.489C74.7294 68.591 74.3394 68.642 73.8714 68.642H73.4394V71L72.5574 71.108V64.826H74.2494ZM74.1504 67.832C74.3484 67.832 74.5254 67.814 74.6814 67.778C74.8374 67.736 74.9694 67.67 75.0774 67.58C75.1914 67.484 75.2784 67.361 75.3384 67.211C75.3984 67.055 75.4284 66.866 75.4284 66.644C75.4284 66.308 75.3114 66.056 75.0774 65.888C74.8494 65.72 74.5404 65.636 74.1504 65.636H73.4394V67.832H74.1504ZM78.5064 64.826C78.7824 64.826 79.0434 64.865 79.2894 64.943C79.5354 65.015 79.7514 65.129 79.9374 65.285C80.1234 65.441 80.2704 65.636 80.3784 65.87C80.4864 66.104 80.5404 66.38 80.5404 66.698C80.5404 67.166 80.4174 67.529 80.1714 67.787C79.9254 68.039 79.5924 68.213 79.1724 68.309L81.0354 70.892L80.0454 71.144L77.8944 68.003H77.8764V71L76.9944 71.108V64.826H78.5064ZM78.5244 67.805C78.6684 67.805 78.8094 67.778 78.9474 67.724C79.0854 67.67 79.2054 67.595 79.3074 67.499C79.4154 67.403 79.4994 67.289 79.5594 67.157C79.6254 67.019 79.6584 66.866 79.6584 66.698C79.6584 66.512 79.6284 66.353 79.5684 66.221C79.5084 66.083 79.4274 65.972 79.3254 65.888C79.2234 65.804 79.1034 65.741 78.9654 65.699C78.8334 65.657 78.6894 65.636 78.5334 65.636H77.8764V67.805H78.5244ZM82.4214 71L81.5394 71.072V64.826L82.4214 64.682V71ZM86.4596 66.176C86.2196 65.912 86.0066 65.732 85.8206 65.636C85.6346 65.54 85.4516 65.492 85.2716 65.492C84.9836 65.492 84.7496 65.576 84.5696 65.744C84.3896 65.912 84.2996 66.143 84.2996 66.437C84.2996 66.575 84.3296 66.695 84.3896 66.797C84.4556 66.893 84.5426 66.98 84.6506 67.058C84.7646 67.136 84.8996 67.208 85.0556 67.274C85.2116 67.334 85.3826 67.4 85.5686 67.472C85.7906 67.556 85.9946 67.646 86.1806 67.742C86.3726 67.838 86.5376 67.955 86.6756 68.093C86.8136 68.231 86.9216 68.396 86.9996 68.588C87.0836 68.774 87.1256 68.999 87.1256 69.263C87.1256 69.545 87.0746 69.8 86.9726 70.028C86.8706 70.256 86.7326 70.454 86.5586 70.622C86.3846 70.79 86.1806 70.919 85.9466 71.009C85.7186 71.099 85.4726 71.144 85.2086 71.144C85.0346 71.144 84.8696 71.126 84.7136 71.09C84.5576 71.06 84.4016 71.006 84.2456 70.928C84.0956 70.85 83.9396 70.748 83.7776 70.622C83.6216 70.49 83.4596 70.331 83.2916 70.145L83.9396 69.605C84.0656 69.803 84.2306 69.974 84.4346 70.118C84.6386 70.262 84.8666 70.334 85.1186 70.334C85.2746 70.334 85.4186 70.316 85.5506 70.28C85.6886 70.238 85.8086 70.175 85.9106 70.091C86.0126 70.007 86.0936 69.896 86.1536 69.758C86.2136 69.62 86.2436 69.452 86.2436 69.254C86.2436 69.14 86.2016 69.035 86.1176 68.939C86.0336 68.837 85.9286 68.747 85.8026 68.669C85.6826 68.591 85.5566 68.522 85.4246 68.462C85.2926 68.396 85.1786 68.339 85.0826 68.291C84.8846 68.195 84.6866 68.093 84.4886 67.985C84.2906 67.871 84.1106 67.742 83.9486 67.598C83.7926 67.454 83.6636 67.289 83.5616 67.103C83.4656 66.911 83.4176 66.683 83.4176 66.419C83.4176 66.161 83.4626 65.927 83.5526 65.717C83.6426 65.501 83.7686 65.318 83.9306 65.168C84.0986 65.012 84.2996 64.892 84.5336 64.808C84.7676 64.724 85.0286 64.682 85.3166 64.682C85.6226 64.682 85.9316 64.757 86.2436 64.907C86.5556 65.057 86.8256 65.282 87.0536 65.582L86.4596 66.176ZM91.3736 64.826L91.5626 65.636H88.9616V67.382H91.0406V68.192H88.9616V70.19H91.7606L91.5086 71H88.0796V64.826H91.3736ZM95.1744 64.682L96.6864 68.966H96.7044L98.2794 64.682L99.1614 64.826L96.7044 71.144H96.6864L94.3014 64.826L95.1744 64.682ZM105.722 67.913C105.722 68.363 105.635 68.786 105.461 69.182C105.293 69.572 105.062 69.914 104.768 70.208C104.48 70.496 104.138 70.724 103.742 70.892C103.352 71.06 102.932 71.144 102.482 71.144C102.026 71.144 101.6 71.06 101.204 70.892C100.814 70.724 100.472 70.493 100.178 70.199C99.8904 69.905 99.6624 69.563 99.4944 69.173C99.3264 68.777 99.2424 68.357 99.2424 67.913C99.2424 67.463 99.3264 67.043 99.4944 66.653C99.6684 66.257 99.8994 65.915 100.187 65.627C100.481 65.333 100.823 65.102 101.213 64.934C101.609 64.766 102.032 64.682 102.482 64.682C102.938 64.682 103.361 64.769 103.751 64.943C104.147 65.111 104.489 65.342 104.777 65.636C105.071 65.924 105.302 66.266 105.47 66.662C105.638 67.052 105.722 67.469 105.722 67.913ZM102.482 70.334C102.794 70.334 103.091 70.271 103.373 70.145C103.661 70.013 103.913 69.839 104.129 69.623C104.345 69.401 104.516 69.143 104.642 68.849C104.774 68.555 104.84 68.243 104.84 67.913C104.84 67.589 104.777 67.28 104.651 66.986C104.525 66.692 104.354 66.437 104.138 66.221C103.928 65.999 103.679 65.822 103.391 65.69C103.103 65.558 102.797 65.492 102.473 65.492C102.167 65.492 101.87 65.555 101.582 65.681C101.3 65.807 101.051 65.981 100.835 66.203C100.619 66.419 100.445 66.674 100.313 66.968C100.187 67.262 100.124 67.577 100.124 67.913C100.124 68.243 100.187 68.555 100.313 68.849C100.439 69.143 100.61 69.401 100.826 69.623C101.042 69.839 101.291 70.013 101.573 70.145C101.861 70.271 102.164 70.334 102.482 70.334ZM107.435 69.101C107.435 69.467 107.537 69.764 107.741 69.992C107.951 70.22 108.263 70.334 108.677 70.334C109.127 70.334 109.466 70.226 109.694 70.01C109.922 69.788 110.036 69.488 110.036 69.11V64.826L110.918 64.682V68.309C110.918 68.531 110.912 68.756 110.9 68.984C110.894 69.212 110.87 69.431 110.828 69.641C110.792 69.851 110.729 70.049 110.639 70.235C110.555 70.415 110.435 70.574 110.279 70.712C110.123 70.844 109.925 70.949 109.685 71.027C109.451 71.105 109.163 71.144 108.821 71.144C108.395 71.144 108.035 71.102 107.741 71.018C107.453 70.934 107.219 70.796 107.039 70.604C106.865 70.406 106.739 70.151 106.661 69.839C106.589 69.521 106.553 69.131 106.553 68.669V64.826L107.435 64.682V69.101ZM114.971 66.176C114.731 65.912 114.518 65.732 114.332 65.636C114.146 65.54 113.963 65.492 113.783 65.492C113.495 65.492 113.261 65.576 113.081 65.744C112.901 65.912 112.811 66.143 112.811 66.437C112.811 66.575 112.841 66.695 112.901 66.797C112.967 66.893 113.054 66.98 113.162 67.058C113.276 67.136 113.411 67.208 113.567 67.274C113.723 67.334 113.894 67.4 114.08 67.472C114.302 67.556 114.506 67.646 114.692 67.742C114.884 67.838 115.049 67.955 115.187 68.093C115.325 68.231 115.433 68.396 115.511 68.588C115.595 68.774 115.637 68.999 115.637 69.263C115.637 69.545 115.586 69.8 115.484 70.028C115.382 70.256 115.244 70.454 115.07 70.622C114.896 70.79 114.692 70.919 114.458 71.009C114.23 71.099 113.984 71.144 113.72 71.144C113.546 71.144 113.381 71.126 113.225 71.09C113.069 71.06 112.913 71.006 112.757 70.928C112.607 70.85 112.451 70.748 112.289 70.622C112.133 70.49 111.971 70.331 111.803 70.145L112.451 69.605C112.577 69.803 112.742 69.974 112.946 70.118C113.15 70.262 113.378 70.334 113.63 70.334C113.786 70.334 113.93 70.316 114.062 70.28C114.2 70.238 114.32 70.175 114.422 70.091C114.524 70.007 114.605 69.896 114.665 69.758C114.725 69.62 114.755 69.452 114.755 69.254C114.755 69.14 114.713 69.035 114.629 68.939C114.545 68.837 114.44 68.747 114.314 68.669C114.194 68.591 114.068 68.522 113.936 68.462C113.804 68.396 113.69 68.339 113.594 68.291C113.396 68.195 113.198 68.093 113 67.985C112.802 67.871 112.622 67.742 112.46 67.598C112.304 67.454 112.175 67.289 112.073 67.103C111.977 66.911 111.929 66.683 111.929 66.419C111.929 66.161 111.974 65.927 112.064 65.717C112.154 65.501 112.28 65.318 112.442 65.168C112.61 65.012 112.811 64.892 113.045 64.808C113.279 64.724 113.54 64.682 113.828 64.682C114.134 64.682 114.443 64.757 114.755 64.907C115.067 65.057 115.337 65.282 115.565 65.582L114.971 66.176ZM122.921 65.789C122.759 65.675 122.594 65.597 122.426 65.555C122.258 65.513 122.078 65.492 121.886 65.492C121.568 65.492 121.271 65.561 120.995 65.699C120.725 65.831 120.488 66.008 120.284 66.23C120.08 66.446 119.921 66.698 119.807 66.986C119.693 67.274 119.636 67.571 119.636 67.877C119.636 68.201 119.693 68.513 119.807 68.813C119.921 69.107 120.077 69.368 120.275 69.596C120.473 69.818 120.704 69.998 120.968 70.136C121.238 70.268 121.529 70.334 121.841 70.334C122.051 70.334 122.261 70.301 122.471 70.235C122.687 70.163 122.882 70.07 123.056 69.956L122.894 70.919C122.708 70.985 122.528 71.039 122.354 71.081C122.186 71.123 122.009 71.144 121.823 71.144C121.409 71.144 121.016 71.06 120.644 70.892C120.272 70.724 119.945 70.496 119.663 70.208C119.387 69.914 119.165 69.572 118.997 69.182C118.835 68.786 118.754 68.363 118.754 67.913C118.754 67.505 118.838 67.109 119.006 66.725C119.174 66.335 119.393 65.99 119.663 65.69C119.939 65.384 120.251 65.141 120.599 64.961C120.947 64.775 121.304 64.682 121.67 64.682C121.85 64.682 122.027 64.697 122.201 64.727C122.381 64.751 122.558 64.787 122.732 64.835L122.921 65.789ZM130.235 67.913C130.235 68.363 130.148 68.786 129.974 69.182C129.806 69.572 129.575 69.914 129.281 70.208C128.993 70.496 128.651 70.724 128.255 70.892C127.865 71.06 127.445 71.144 126.995 71.144C126.539 71.144 126.113 71.06 125.717 70.892C125.327 70.724 124.985 70.493 124.691 70.199C124.403 69.905 124.175 69.563 124.007 69.173C123.839 68.777 123.755 68.357 123.755 67.913C123.755 67.463 123.839 67.043 124.007 66.653C124.181 66.257 124.412 65.915 124.7 65.627C124.994 65.333 125.336 65.102 125.726 64.934C126.122 64.766 126.545 64.682 126.995 64.682C127.451 64.682 127.874 64.769 128.264 64.943C128.66 65.111 129.002 65.342 129.29 65.636C129.584 65.924 129.815 66.266 129.983 66.662C130.151 67.052 130.235 67.469 130.235 67.913ZM126.995 70.334C127.307 70.334 127.604 70.271 127.886 70.145C128.174 70.013 128.426 69.839 128.642 69.623C128.858 69.401 129.029 69.143 129.155 68.849C129.287 68.555 129.353 68.243 129.353 67.913C129.353 67.589 129.29 67.28 129.164 66.986C129.038 66.692 128.867 66.437 128.651 66.221C128.441 65.999 128.192 65.822 127.904 65.69C127.616 65.558 127.31 65.492 126.986 65.492C126.68 65.492 126.383 65.555 126.095 65.681C125.813 65.807 125.564 65.981 125.348 66.203C125.132 66.419 124.958 66.674 124.826 66.968C124.7 67.262 124.637 67.577 124.637 67.913C124.637 68.243 124.7 68.555 124.826 68.849C124.952 69.143 125.123 69.401 125.339 69.623C125.555 69.839 125.804 70.013 126.086 70.145C126.374 70.271 126.677 70.334 126.995 70.334ZM131.858 64.682H131.876L134.009 69.389L136.115 64.682H136.133L137.393 71L136.538 71.108L135.791 67.202H135.773L134.018 71.072H134L132.2 67.202H132.182L131.453 71.108L130.607 71L131.858 64.682ZM138.863 64.682H138.881L141.014 69.389L143.12 64.682H143.138L144.398 71L143.543 71.108L142.796 67.202H142.778L141.023 71.072H141.005L139.205 67.202H139.187L138.458 71.108L137.612 71L138.863 64.682ZM147.515 64.682L150.656 70.964L149.774 71.144L148.721 69.02H146.237L145.193 71.144L144.365 70.964L147.497 64.682H147.515ZM146.606 68.21H148.361L147.479 66.437L146.606 68.21ZM151.088 64.682L151.115 64.691L155.066 69.002V64.97L155.948 64.826V71.144L155.921 71.135L151.97 66.824V71L151.088 71.108V64.682ZM158.666 64.826C159.11 64.826 159.521 64.91 159.899 65.078C160.277 65.246 160.601 65.471 160.871 65.753C161.147 66.035 161.363 66.362 161.519 66.734C161.675 67.106 161.753 67.499 161.753 67.913C161.753 68.327 161.675 68.72 161.519 69.092C161.363 69.464 161.147 69.794 160.871 70.082C160.595 70.364 160.268 70.589 159.89 70.757C159.518 70.919 159.113 71 158.675 71H157.1V64.826H158.666ZM158.639 70.19C158.915 70.19 159.185 70.136 159.449 70.028C159.719 69.92 159.959 69.767 160.169 69.569C160.379 69.365 160.547 69.125 160.673 68.849C160.805 68.567 160.871 68.255 160.871 67.913C160.871 67.577 160.805 67.271 160.673 66.995C160.547 66.713 160.379 66.473 160.169 66.275C159.959 66.071 159.719 65.915 159.449 65.807C159.185 65.693 158.912 65.636 158.63 65.636H157.982V70.19H158.639ZM165.914 64.826L166.103 65.636H163.502V67.382H165.581V68.192H163.502V70.19H166.301L166.049 71H162.62V64.826H165.914ZM171.172 64.826C171.616 64.826 172.027 64.91 172.405 65.078C172.783 65.246 173.107 65.471 173.377 65.753C173.653 66.035 173.869 66.362 174.025 66.734C174.181 67.106 174.259 67.499 174.259 67.913C174.259 68.327 174.181 68.72 174.025 69.092C173.869 69.464 173.653 69.794 173.377 70.082C173.101 70.364 172.774 70.589 172.396 70.757C172.024 70.919 171.619 71 171.181 71H169.606V64.826H171.172ZM171.145 70.19C171.421 70.19 171.691 70.136 171.955 70.028C172.225 69.92 172.465 69.767 172.675 69.569C172.885 69.365 173.053 69.125 173.179 68.849C173.311 68.567 173.377 68.255 173.377 67.913C173.377 67.577 173.311 67.271 173.179 66.995C173.053 66.713 172.885 66.473 172.675 66.275C172.465 66.071 172.225 65.915 171.955 65.807C171.691 65.693 171.418 65.636 171.136 65.636H170.488V70.19H171.145ZM178.42 64.826L178.609 65.636H176.008V67.382H178.087V68.192H176.008V70.19H178.807L178.555 71H175.126V64.826H178.42ZM182.506 66.176C182.266 65.912 182.053 65.732 181.867 65.636C181.681 65.54 181.498 65.492 181.318 65.492C181.03 65.492 180.796 65.576 180.616 65.744C180.436 65.912 180.346 66.143 180.346 66.437C180.346 66.575 180.376 66.695 180.436 66.797C180.502 66.893 180.589 66.98 180.697 67.058C180.811 67.136 180.946 67.208 181.102 67.274C181.258 67.334 181.429 67.4 181.615 67.472C181.837 67.556 182.041 67.646 182.227 67.742C182.419 67.838 182.584 67.955 182.722 68.093C182.86 68.231 182.968 68.396 183.046 68.588C183.13 68.774 183.172 68.999 183.172 69.263C183.172 69.545 183.121 69.8 183.019 70.028C182.917 70.256 182.779 70.454 182.605 70.622C182.431 70.79 182.227 70.919 181.993 71.009C181.765 71.099 181.519 71.144 181.255 71.144C181.081 71.144 180.916 71.126 180.76 71.09C180.604 71.06 180.448 71.006 180.292 70.928C180.142 70.85 179.986 70.748 179.824 70.622C179.668 70.49 179.506 70.331 179.338 70.145L179.986 69.605C180.112 69.803 180.277 69.974 180.481 70.118C180.685 70.262 180.913 70.334 181.165 70.334C181.321 70.334 181.465 70.316 181.597 70.28C181.735 70.238 181.855 70.175 181.957 70.091C182.059 70.007 182.14 69.896 182.2 69.758C182.26 69.62 182.29 69.452 182.29 69.254C182.29 69.14 182.248 69.035 182.164 68.939C182.08 68.837 181.975 68.747 181.849 68.669C181.729 68.591 181.603 68.522 181.471 68.462C181.339 68.396 181.225 68.339 181.129 68.291C180.931 68.195 180.733 68.093 180.535 67.985C180.337 67.871 180.157 67.742 179.995 67.598C179.839 67.454 179.71 67.289 179.608 67.103C179.512 66.911 179.464 66.683 179.464 66.419C179.464 66.161 179.509 65.927 179.599 65.717C179.689 65.501 179.815 65.318 179.977 65.168C180.145 65.012 180.346 64.892 180.58 64.808C180.814 64.724 181.075 64.682 181.363 64.682C181.669 64.682 181.978 64.757 182.29 64.907C182.602 65.057 182.872 65.282 183.1 65.582L182.506 66.176ZM190.456 65.789C190.294 65.675 190.129 65.597 189.961 65.555C189.793 65.513 189.613 65.492 189.421 65.492C189.103 65.492 188.806 65.561 188.53 65.699C188.26 65.831 188.023 66.008 187.819 66.23C187.615 66.446 187.456 66.698 187.342 66.986C187.228 67.274 187.171 67.571 187.171 67.877C187.171 68.201 187.228 68.513 187.342 68.813C187.456 69.107 187.612 69.368 187.81 69.596C188.008 69.818 188.239 69.998 188.503 70.136C188.773 70.268 189.064 70.334 189.376 70.334C189.586 70.334 189.796 70.301 190.006 70.235C190.222 70.163 190.417 70.07 190.591 69.956L190.429 70.919C190.243 70.985 190.063 71.039 189.889 71.081C189.721 71.123 189.544 71.144 189.358 71.144C188.944 71.144 188.551 71.06 188.179 70.892C187.807 70.724 187.48 70.496 187.198 70.208C186.922 69.914 186.7 69.572 186.532 69.182C186.37 68.786 186.289 68.363 186.289 67.913C186.289 67.505 186.373 67.109 186.541 66.725C186.709 66.335 186.928 65.99 187.198 65.69C187.474 65.384 187.786 65.141 188.134 64.961C188.482 64.775 188.839 64.682 189.205 64.682C189.385 64.682 189.562 64.697 189.736 64.727C189.916 64.751 190.093 64.787 190.267 64.835L190.456 65.789ZM192.514 70.19H195.133L194.773 71H191.632V64.826L192.514 64.682V70.19ZM198.925 64.826L199.114 65.636H196.513V67.382H198.592V68.192H196.513V70.19H199.312L199.06 71H195.631V64.826H198.925ZM198.619 63.17L197.323 64.466H196.585L197.395 63.17H198.619ZM203.011 66.176C202.771 65.912 202.558 65.732 202.372 65.636C202.186 65.54 202.003 65.492 201.823 65.492C201.535 65.492 201.301 65.576 201.121 65.744C200.941 65.912 200.851 66.143 200.851 66.437C200.851 66.575 200.881 66.695 200.941 66.797C201.007 66.893 201.094 66.98 201.202 67.058C201.316 67.136 201.451 67.208 201.607 67.274C201.763 67.334 201.934 67.4 202.12 67.472C202.342 67.556 202.546 67.646 202.732 67.742C202.924 67.838 203.089 67.955 203.227 68.093C203.365 68.231 203.473 68.396 203.551 68.588C203.635 68.774 203.677 68.999 203.677 69.263C203.677 69.545 203.626 69.8 203.524 70.028C203.422 70.256 203.284 70.454 203.11 70.622C202.936 70.79 202.732 70.919 202.498 71.009C202.27 71.099 202.024 71.144 201.76 71.144C201.586 71.144 201.421 71.126 201.265 71.09C201.109 71.06 200.953 71.006 200.797 70.928C200.647 70.85 200.491 70.748 200.329 70.622C200.173 70.49 200.011 70.331 199.843 70.145L200.491 69.605C200.617 69.803 200.782 69.974 200.986 70.118C201.19 70.262 201.418 70.334 201.67 70.334C201.826 70.334 201.97 70.316 202.102 70.28C202.24 70.238 202.36 70.175 202.462 70.091C202.564 70.007 202.645 69.896 202.705 69.758C202.765 69.62 202.795 69.452 202.795 69.254C202.795 69.14 202.753 69.035 202.669 68.939C202.585 68.837 202.48 68.747 202.354 68.669C202.234 68.591 202.108 68.522 201.976 68.462C201.844 68.396 201.73 68.339 201.634 68.291C201.436 68.195 201.238 68.093 201.04 67.985C200.842 67.871 200.662 67.742 200.5 67.598C200.344 67.454 200.215 67.289 200.113 67.103C200.017 66.911 199.969 66.683 199.969 66.419C199.969 66.161 200.014 65.927 200.104 65.717C200.194 65.501 200.32 65.318 200.482 65.168C200.65 65.012 200.851 64.892 201.085 64.808C201.319 64.724 201.58 64.682 201.868 64.682C202.174 64.682 202.483 64.757 202.795 64.907C203.107 65.057 203.377 65.282 203.605 65.582L203.011 66.176ZM208.684 64.826C209.128 64.826 209.539 64.91 209.917 65.078C210.295 65.246 210.619 65.471 210.889 65.753C211.165 66.035 211.381 66.362 211.537 66.734C211.693 67.106 211.771 67.499 211.771 67.913C211.771 68.327 211.693 68.72 211.537 69.092C211.381 69.464 211.165 69.794 210.889 70.082C210.613 70.364 210.286 70.589 209.908 70.757C209.536 70.919 209.131 71 208.693 71H207.118V64.826H208.684ZM208.657 70.19C208.933 70.19 209.203 70.136 209.467 70.028C209.737 69.92 209.977 69.767 210.187 69.569C210.397 69.365 210.565 69.125 210.691 68.849C210.823 68.567 210.889 68.255 210.889 67.913C210.889 67.577 210.823 67.271 210.691 66.995C210.565 66.713 210.397 66.473 210.187 66.275C209.977 66.071 209.737 65.915 209.467 65.807C209.203 65.693 208.93 65.636 208.648 65.636H208V70.19H208.657ZM215.932 64.826L216.121 65.636H213.52V67.382H215.599V68.192H213.52V70.19H216.319L216.067 71H212.638V64.826H215.932ZM68.2282 81.19H70.8472L70.4872 82H67.3462V75.826L68.2282 75.682V81.19ZM72.1822 82L71.3002 82.072V75.826L72.1822 75.682V82ZM77.1653 76.789C77.0033 76.675 76.8383 76.597 76.6703 76.555C76.5023 76.513 76.3223 76.492 76.1303 76.492C75.8123 76.492 75.5153 76.561 75.2393 76.699C74.9693 76.831 74.7323 77.008 74.5283 77.23C74.3243 77.446 74.1653 77.698 74.0513 77.986C73.9373 78.274 73.8803 78.571 73.8803 78.877C73.8803 79.201 73.9373 79.513 74.0513 79.813C74.1653 80.107 74.3213 80.368 74.5193 80.596C74.7173 80.818 74.9483 80.998 75.2123 81.136C75.4823 81.268 75.7733 81.334 76.0853 81.334C76.2953 81.334 76.5053 81.301 76.7153 81.235C76.9313 81.163 77.1263 81.07 77.3003 80.956L77.1383 81.919C76.9523 81.985 76.7723 82.039 76.5983 82.081C76.4303 82.123 76.2533 82.144 76.0673 82.144C75.6533 82.144 75.2603 82.06 74.8883 81.892C74.5163 81.724 74.1893 81.496 73.9073 81.208C73.6313 80.914 73.4093 80.572 73.2413 80.182C73.0793 79.786 72.9983 79.363 72.9983 78.913C72.9983 78.505 73.0823 78.109 73.2503 77.725C73.4183 77.335 73.6373 76.99 73.9073 76.69C74.1833 76.384 74.4953 76.141 74.8433 75.961C75.1913 75.775 75.5483 75.682 75.9143 75.682C76.0943 75.682 76.2713 75.697 76.4453 75.727C76.6253 75.751 76.8023 75.787 76.9763 75.835L77.1653 76.789ZM81.6353 75.826L81.8243 76.636H79.2233V78.382H81.3023V79.192H79.2233V81.19H82.0223L81.7703 82H78.3413V75.826H81.6353ZM82.8143 75.682L82.8413 75.691L86.7923 80.002V75.97L87.6743 75.826V82.144L87.6473 82.135L83.6963 77.824V82L82.8143 82.108V75.682ZM92.6692 76.789C92.5072 76.675 92.3422 76.597 92.1742 76.555C92.0062 76.513 91.8262 76.492 91.6342 76.492C91.3162 76.492 91.0192 76.561 90.7432 76.699C90.4732 76.831 90.2362 77.008 90.0322 77.23C89.8282 77.446 89.6692 77.698 89.5552 77.986C89.4412 78.274 89.3842 78.571 89.3842 78.877C89.3842 79.201 89.4412 79.513 89.5552 79.813C89.6692 80.107 89.8252 80.368 90.0232 80.596C90.2212 80.818 90.4522 80.998 90.7162 81.136C90.9862 81.268 91.2772 81.334 91.5892 81.334C91.7992 81.334 92.0092 81.301 92.2192 81.235C92.4352 81.163 92.6302 81.07 92.8042 80.956L92.6422 81.919C92.4562 81.985 92.2762 82.039 92.1022 82.081C91.9342 82.123 91.7572 82.144 91.5712 82.144C91.1572 82.144 90.7642 82.06 90.3922 81.892C90.0202 81.724 89.6932 81.496 89.4112 81.208C89.1352 80.914 88.9132 80.572 88.7452 80.182C88.5832 79.786 88.5022 79.363 88.5022 78.913C88.5022 78.505 88.5862 78.109 88.7542 77.725C88.9222 77.335 89.1412 76.99 89.4112 76.69C89.6872 76.384 89.9992 76.141 90.3472 75.961C90.6952 75.775 91.0522 75.682 91.4182 75.682C91.5982 75.682 91.7752 75.697 91.9492 75.727C92.1292 75.751 92.3062 75.787 92.4802 75.835L92.6692 76.789ZM97.1392 75.826L97.3282 76.636H94.7272V78.382H96.8062V79.192H94.7272V81.19H97.5262L97.2742 82H93.8452V75.826H97.1392ZM102.398 75.826C102.842 75.826 103.253 75.91 103.631 76.078C104.009 76.246 104.333 76.471 104.603 76.753C104.879 77.035 105.095 77.362 105.251 77.734C105.407 78.106 105.485 78.499 105.485 78.913C105.485 79.327 105.407 79.72 105.251 80.092C105.095 80.464 104.879 80.794 104.603 81.082C104.327 81.364 104 81.589 103.622 81.757C103.25 81.919 102.845 82 102.407 82H100.832V75.826H102.398ZM102.371 81.19C102.647 81.19 102.917 81.136 103.181 81.028C103.451 80.92 103.691 80.767 103.901 80.569C104.111 80.365 104.279 80.125 104.405 79.849C104.537 79.567 104.603 79.255 104.603 78.913C104.603 78.577 104.537 78.271 104.405 77.995C104.279 77.713 104.111 77.473 103.901 77.275C103.691 77.071 103.451 76.915 103.181 76.807C102.917 76.693 102.644 76.636 102.362 76.636H101.714V81.19H102.371ZM109.646 75.826L109.835 76.636H107.234V78.382H109.313V79.192H107.234V81.19H110.033L109.781 82H106.352V75.826H109.646ZM113.447 75.682L114.959 79.966H114.977L116.552 75.682L117.434 75.826L114.977 82.144H114.959L112.574 75.826L113.447 75.682ZM123.995 78.913C123.995 79.363 123.908 79.786 123.734 80.182C123.566 80.572 123.335 80.914 123.041 81.208C122.753 81.496 122.411 81.724 122.015 81.892C121.625 82.06 121.205 82.144 120.755 82.144C120.299 82.144 119.873 82.06 119.477 81.892C119.087 81.724 118.745 81.493 118.451 81.199C118.163 80.905 117.935 80.563 117.767 80.173C117.599 79.777 117.515 79.357 117.515 78.913C117.515 78.463 117.599 78.043 117.767 77.653C117.941 77.257 118.172 76.915 118.46 76.627C118.754 76.333 119.096 76.102 119.486 75.934C119.882 75.766 120.305 75.682 120.755 75.682C121.211 75.682 121.634 75.769 122.024 75.943C122.42 76.111 122.762 76.342 123.05 76.636C123.344 76.924 123.575 77.266 123.743 77.662C123.911 78.052 123.995 78.469 123.995 78.913ZM120.755 81.334C121.067 81.334 121.364 81.271 121.646 81.145C121.934 81.013 122.186 80.839 122.402 80.623C122.618 80.401 122.789 80.143 122.915 79.849C123.047 79.555 123.113 79.243 123.113 78.913C123.113 78.589 123.05 78.28 122.924 77.986C122.798 77.692 122.627 77.437 122.411 77.221C122.201 76.999 121.952 76.822 121.664 76.69C121.376 76.558 121.07 76.492 120.746 76.492C120.44 76.492 120.143 76.555 119.855 76.681C119.573 76.807 119.324 76.981 119.108 77.203C118.892 77.419 118.718 77.674 118.586 77.968C118.46 78.262 118.397 78.577 118.397 78.913C118.397 79.243 118.46 79.555 118.586 79.849C118.712 80.143 118.883 80.401 119.099 80.623C119.315 80.839 119.564 81.013 119.846 81.145C120.134 81.271 120.437 81.334 120.755 81.334ZM128.138 75.826V76.636H126.698V82L125.816 82.108V76.636H124.214L124.493 75.826H128.138ZM130.283 75.826C130.559 75.826 130.82 75.865 131.066 75.943C131.312 76.015 131.528 76.129 131.714 76.285C131.9 76.441 132.047 76.636 132.155 76.87C132.263 77.104 132.317 77.38 132.317 77.698C132.317 78.166 132.194 78.529 131.948 78.787C131.702 79.039 131.369 79.213 130.949 79.309L132.812 81.892L131.822 82.144L129.671 79.003H129.653V82L128.771 82.108V75.826H130.283ZM130.301 78.805C130.445 78.805 130.586 78.778 130.724 78.724C130.862 78.67 130.982 78.595 131.084 78.499C131.192 78.403 131.276 78.289 131.336 78.157C131.402 78.019 131.435 77.866 131.435 77.698C131.435 77.512 131.405 77.353 131.345 77.221C131.285 77.083 131.204 76.972 131.102 76.888C131 76.804 130.88 76.741 130.742 76.699C130.61 76.657 130.466 76.636 130.31 76.636H129.653V78.805H130.301ZM136.655 75.826L136.844 76.636H134.243V78.382H136.322V79.192H134.243V81.19H137.042L136.79 82H133.361V75.826H136.655ZM141.248 81.19H143.867L143.507 82H140.366V75.826L141.248 75.682V81.19ZM150.503 78.913C150.503 79.363 150.416 79.786 150.242 80.182C150.074 80.572 149.843 80.914 149.549 81.208C149.261 81.496 148.919 81.724 148.523 81.892C148.133 82.06 147.713 82.144 147.263 82.144C146.807 82.144 146.381 82.06 145.985 81.892C145.595 81.724 145.253 81.493 144.959 81.199C144.671 80.905 144.443 80.563 144.275 80.173C144.107 79.777 144.023 79.357 144.023 78.913C144.023 78.463 144.107 78.043 144.275 77.653C144.449 77.257 144.68 76.915 144.968 76.627C145.262 76.333 145.604 76.102 145.994 75.934C146.39 75.766 146.813 75.682 147.263 75.682C147.719 75.682 148.142 75.769 148.532 75.943C148.928 76.111 149.27 76.342 149.558 76.636C149.852 76.924 150.083 77.266 150.251 77.662C150.419 78.052 150.503 78.469 150.503 78.913ZM147.263 81.334C147.575 81.334 147.872 81.271 148.154 81.145C148.442 81.013 148.694 80.839 148.91 80.623C149.126 80.401 149.297 80.143 149.423 79.849C149.555 79.555 149.621 79.243 149.621 78.913C149.621 78.589 149.558 78.28 149.432 77.986C149.306 77.692 149.135 77.437 148.919 77.221C148.709 76.999 148.46 76.822 148.172 76.69C147.884 76.558 147.578 76.492 147.254 76.492C146.948 76.492 146.651 76.555 146.363 76.681C146.081 76.807 145.832 76.981 145.616 77.203C145.4 77.419 145.226 77.674 145.094 77.968C144.968 78.262 144.905 78.577 144.905 78.913C144.905 79.243 144.968 79.555 145.094 79.849C145.22 80.143 145.391 80.401 145.607 80.623C145.823 80.839 146.072 81.013 146.354 81.145C146.642 81.271 146.945 81.334 147.263 81.334ZM155.96 77.131C155.84 77.047 155.72 76.966 155.6 76.888C155.48 76.81 155.351 76.744 155.213 76.69C155.081 76.63 154.937 76.582 154.781 76.546C154.625 76.51 154.454 76.492 154.268 76.492C153.95 76.492 153.647 76.558 153.359 76.69C153.077 76.816 152.828 76.993 152.612 77.221C152.396 77.443 152.225 77.704 152.099 78.004C151.973 78.304 151.91 78.628 151.91 78.976C151.91 79.258 151.967 79.54 152.081 79.822C152.195 80.104 152.351 80.359 152.549 80.587C152.747 80.809 152.978 80.989 153.242 81.127C153.512 81.265 153.8 81.334 154.106 81.334C154.382 81.334 154.661 81.295 154.943 81.217C155.231 81.133 155.477 80.989 155.681 80.785V79.318H153.836L154.142 78.508H156.563V81.244C156.449 81.382 156.302 81.508 156.122 81.622C155.942 81.73 155.744 81.823 155.528 81.901C155.312 81.979 155.084 82.039 154.844 82.081C154.604 82.123 154.367 82.144 154.133 82.144C153.725 82.144 153.335 82.06 152.963 81.892C152.591 81.718 152.261 81.487 151.973 81.199C151.685 80.911 151.454 80.578 151.28 80.2C151.112 79.816 151.028 79.414 151.028 78.994C151.028 78.544 151.109 78.118 151.271 77.716C151.433 77.314 151.655 76.963 151.937 76.663C152.225 76.357 152.564 76.117 152.954 75.943C153.344 75.769 153.77 75.682 154.232 75.682C154.664 75.682 155.078 75.754 155.474 75.898C155.87 76.036 156.206 76.246 156.482 76.528L155.96 77.131ZM158.702 82L157.82 82.072V75.826L158.702 75.682V82ZM163.685 76.789C163.523 76.675 163.358 76.597 163.19 76.555C163.022 76.513 162.842 76.492 162.65 76.492C162.332 76.492 162.035 76.561 161.759 76.699C161.489 76.831 161.252 77.008 161.048 77.23C160.844 77.446 160.685 77.698 160.571 77.986C160.457 78.274 160.4 78.571 160.4 78.877C160.4 79.201 160.457 79.513 160.571 79.813C160.685 80.107 160.841 80.368 161.039 80.596C161.237 80.818 161.468 80.998 161.732 81.136C162.002 81.268 162.293 81.334 162.605 81.334C162.815 81.334 163.025 81.301 163.235 81.235C163.451 81.163 163.646 81.07 163.82 80.956L163.658 81.919C163.472 81.985 163.292 82.039 163.118 82.081C162.95 82.123 162.773 82.144 162.587 82.144C162.173 82.144 161.78 82.06 161.408 81.892C161.036 81.724 160.709 81.496 160.427 81.208C160.151 80.914 159.929 80.572 159.761 80.182C159.599 79.786 159.518 79.363 159.518 78.913C159.518 78.505 159.602 78.109 159.77 77.725C159.938 77.335 160.157 76.99 160.427 76.69C160.703 76.384 161.015 76.141 161.363 75.961C161.711 75.775 162.068 75.682 162.434 75.682C162.614 75.682 162.791 75.697 162.965 75.727C163.145 75.751 163.322 75.787 163.496 75.835L163.685 76.789ZM165.698 82L164.816 82.072V75.826L165.698 75.682V82ZM170.15 75.826L170.339 76.636L167.738 76.636V78.382L169.817 78.382V79.192L167.738 79.192V81.19H170.537L170.285 82H166.856V75.826L170.15 75.826ZM172.238 81.19H174.857L174.497 82H171.356V75.826L172.238 75.682V81.19ZM176.003 80.533L176.588 81.307L176.003 82.081L175.418 81.307L176.003 80.533Z" fill="black"/>
<path d="M93.774 97.826C94.05 97.826 94.311 97.865 94.557 97.943C94.803 98.015 95.019 98.129 95.205 98.285C95.391 98.441 95.538 98.636 95.646 98.87C95.754 99.104 95.808 99.38 95.808 99.698C95.808 100.166 95.685 100.529 95.439 100.787C95.193 101.039 94.86 101.213 94.44 101.309L96.303 103.892L95.313 104.144L93.162 101.003H93.144V104L92.262 104.108V97.826H93.774ZM93.792 100.805C93.936 100.805 94.077 100.778 94.215 100.724C94.353 100.67 94.473 100.595 94.575 100.499C94.683 100.403 94.767 100.289 94.827 100.157C94.893 100.019 94.926 99.866 94.926 99.698C94.926 99.512 94.896 99.353 94.836 99.221C94.776 99.083 94.695 98.972 94.593 98.888C94.491 98.804 94.371 98.741 94.233 98.699C94.101 98.657 93.957 98.636 93.801 98.636H93.144V100.805H93.792ZM100.146 97.826L100.335 98.636H97.734V100.382H99.813V101.192H97.734V103.19H100.533L100.281 104H96.852V97.826H100.146ZM105.177 98.789C105.015 98.675 104.85 98.597 104.682 98.555C104.514 98.513 104.334 98.492 104.142 98.492C103.824 98.492 103.527 98.561 103.251 98.699C102.981 98.831 102.744 99.008 102.54 99.23C102.336 99.446 102.177 99.698 102.063 99.986C101.949 100.274 101.892 100.571 101.892 100.877C101.892 101.201 101.949 101.513 102.063 101.813C102.177 102.107 102.333 102.368 102.531 102.596C102.729 102.818 102.96 102.998 103.224 103.136C103.494 103.268 103.785 103.334 104.097 103.334C104.307 103.334 104.517 103.301 104.727 103.235C104.943 103.163 105.138 103.07 105.312 102.956L105.15 103.919C104.964 103.985 104.784 104.039 104.61 104.081C104.442 104.123 104.265 104.144 104.079 104.144C103.665 104.144 103.272 104.06 102.9 103.892C102.528 103.724 102.201 103.496 101.919 103.208C101.643 102.914 101.421 102.572 101.253 102.182C101.091 101.786 101.01 101.363 101.01 100.913C101.01 100.505 101.094 100.109 101.262 99.725C101.43 99.335 101.649 98.99 101.919 98.69C102.195 98.384 102.507 98.141 102.855 97.961C103.203 97.775 103.56 97.682 103.926 97.682C104.106 97.682 104.283 97.697 104.457 97.727C104.637 97.751 104.814 97.787 104.988 97.835L105.177 98.789ZM109.647 97.826L109.836 98.636H107.235V100.382H109.314V101.192H107.235V103.19H110.034L109.782 104H106.353V97.826H109.647ZM110.943 97.682L112.455 101.966H112.473L114.048 97.682L114.93 97.826L112.473 104.144H112.455L110.07 97.826L110.943 97.682ZM118.647 97.826L118.836 98.636H116.235V100.382H118.314V101.192H116.235V103.19H119.034L118.782 104H115.353V97.826H118.647ZM123.975 97.826L120.735 103.19H124.137L123.921 104H119.376L122.652 98.636H119.511L119.691 97.826H123.975Z" fill="black"/>
<path d="M132.507 98.564C132.405 98.462 132.27 98.378 132.102 98.312C131.94 98.24 131.763 98.204 131.571 98.204C131.373 98.204 131.187 98.249 131.013 98.339C130.839 98.423 130.68 98.546 130.536 98.708C130.392 98.864 130.266 99.056 130.158 99.284C130.05 99.512 129.969 99.764 129.915 100.04H131.778L131.688 100.517H129.834C129.822 100.583 129.816 100.646 129.816 100.706C129.816 100.766 129.816 100.829 129.816 100.895C129.816 100.943 129.816 100.988 129.816 101.03C129.816 101.072 129.819 101.117 129.825 101.165H131.562L131.472 101.642H129.87C129.966 102.26 130.167 102.746 130.473 103.1C130.785 103.448 131.157 103.622 131.589 103.622C131.769 103.622 131.943 103.589 132.111 103.523C132.279 103.451 132.426 103.358 132.552 103.244L132.471 103.91C132.327 104.012 132.171 104.075 132.003 104.099C131.841 104.129 131.706 104.144 131.598 104.144C131.31 104.144 131.037 104.084 130.779 103.964C130.527 103.844 130.299 103.676 130.095 103.46C129.897 103.244 129.729 102.983 129.591 102.677C129.453 102.371 129.354 102.026 129.294 101.642H128.484L128.574 101.165H129.249C129.243 101.117 129.24 101.072 129.24 101.03C129.24 100.982 129.24 100.937 129.24 100.895C129.24 100.829 129.24 100.766 129.24 100.706C129.246 100.646 129.252 100.583 129.258 100.517H128.484L128.574 100.04H129.321C129.387 99.698 129.489 99.383 129.627 99.095C129.771 98.807 129.942 98.558 130.14 98.348C130.338 98.138 130.56 97.976 130.806 97.862C131.058 97.742 131.325 97.682 131.607 97.682C131.757 97.682 131.907 97.7 132.057 97.736C132.213 97.772 132.333 97.829 132.417 97.907L132.507 98.564Z" fill="black"/>
<path d="M138.895 97.826L138.679 98.636H136.519V99.905C136.717 99.845 136.918 99.815 137.122 99.815C137.41 99.815 137.683 99.875 137.941 99.995C138.199 100.109 138.427 100.265 138.625 100.463C138.823 100.661 138.979 100.892 139.093 101.156C139.207 101.414 139.264 101.687 139.264 101.975C139.264 102.293 139.201 102.584 139.075 102.848C138.955 103.112 138.787 103.34 138.571 103.532C138.355 103.724 138.103 103.874 137.815 103.982C137.527 104.09 137.218 104.144 136.888 104.144C136.474 104.144 136.117 104.063 135.817 103.901C135.517 103.739 135.238 103.502 134.98 103.19L135.7 102.704C135.844 102.878 136.015 103.028 136.213 103.154C136.411 103.274 136.624 103.334 136.852 103.334C137.056 103.334 137.248 103.304 137.428 103.244C137.614 103.184 137.776 103.097 137.914 102.983C138.058 102.869 138.172 102.728 138.256 102.56C138.34 102.386 138.382 102.191 138.382 101.975C138.382 101.777 138.343 101.597 138.265 101.435C138.187 101.267 138.079 101.123 137.941 101.003C137.809 100.883 137.65 100.79 137.464 100.724C137.284 100.658 137.092 100.625 136.888 100.625C136.648 100.625 136.423 100.673 136.213 100.769C136.003 100.859 135.811 100.982 135.637 101.138V97.826H138.895ZM142.249 104.144C141.835 104.144 141.484 104.048 141.196 103.856C140.908 103.658 140.677 103.406 140.503 103.1C140.329 102.788 140.203 102.44 140.125 102.056C140.047 101.666 140.008 101.282 140.008 100.904C140.008 100.676 140.023 100.439 140.053 100.193C140.083 99.947 140.131 99.704 140.197 99.464C140.269 99.224 140.362 98.996 140.476 98.78C140.59 98.564 140.728 98.375 140.89 98.213C141.058 98.051 141.253 97.922 141.475 97.826C141.697 97.73 141.955 97.682 142.249 97.682C142.669 97.682 143.02 97.781 143.302 97.979C143.59 98.177 143.821 98.432 143.995 98.744C144.175 99.056 144.301 99.404 144.373 99.788C144.451 100.172 144.49 100.553 144.49 100.931C144.49 101.273 144.454 101.633 144.382 102.011C144.31 102.383 144.187 102.728 144.013 103.046C143.845 103.364 143.617 103.628 143.329 103.838C143.041 104.042 142.681 104.144 142.249 104.144ZM142.249 103.334C142.699 103.334 143.038 103.127 143.266 102.713C143.494 102.293 143.608 101.693 143.608 100.913C143.608 100.145 143.494 99.551 143.266 99.131C143.044 98.705 142.702 98.492 142.24 98.492C141.82 98.492 141.49 98.693 141.25 99.095C141.01 99.491 140.89 100.097 140.89 100.913C140.89 101.693 141.004 102.293 141.232 102.713C141.46 103.127 141.799 103.334 142.249 103.334ZM147.25 104.144C146.836 104.144 146.485 104.048 146.197 103.856C145.909 103.658 145.678 103.406 145.504 103.1C145.33 102.788 145.204 102.44 145.126 102.056C145.048 101.666 145.009 101.282 145.009 100.904C145.009 100.676 145.024 100.439 145.054 100.193C145.084 99.947 145.132 99.704 145.198 99.464C145.27 99.224 145.363 98.996 145.477 98.78C145.591 98.564 145.729 98.375 145.891 98.213C146.059 98.051 146.254 97.922 146.476 97.826C146.698 97.73 146.956 97.682 147.25 97.682C147.67 97.682 148.021 97.781 148.303 97.979C148.591 98.177 148.822 98.432 148.996 98.744C149.176 99.056 149.302 99.404 149.374 99.788C149.452 100.172 149.491 100.553 149.491 100.931C149.491 101.273 149.455 101.633 149.383 102.011C149.311 102.383 149.188 102.728 149.014 103.046C148.846 103.364 148.618 103.628 148.33 103.838C148.042 104.042 147.682 104.144 147.25 104.144ZM147.25 103.334C147.7 103.334 148.039 103.127 148.267 102.713C148.495 102.293 148.609 101.693 148.609 100.913C148.609 100.145 148.495 99.551 148.267 99.131C148.045 98.705 147.703 98.492 147.241 98.492C146.821 98.492 146.491 98.693 146.251 99.095C146.011 99.491 145.891 100.097 145.891 100.913C145.891 101.693 146.005 102.293 146.233 102.713C146.461 103.127 146.8 103.334 147.25 103.334ZM151 102.533L151.585 103.307L151 104.081L150.415 103.307L151 102.533Z" fill="black"/>
<rect width="30" height="13" transform="translate(107.5 141)" fill="white"/>
<path d="M111.426 145.198C111.659 145.198 111.874 145.233 112.07 145.303C112.266 145.368 112.434 145.464 112.574 145.59C112.719 145.716 112.831 145.865 112.91 146.038C112.989 146.211 113.029 146.402 113.029 146.612C113.029 146.831 112.999 147.037 112.938 147.228C112.877 147.415 112.772 147.578 112.623 147.718C112.478 147.858 112.285 147.968 112.042 148.047C111.799 148.126 111.496 148.166 111.132 148.166H110.796V150L110.11 150.084V145.198H111.426ZM111.349 147.536C111.503 147.536 111.641 147.522 111.762 147.494C111.883 147.461 111.986 147.41 112.07 147.34C112.159 147.265 112.226 147.17 112.273 147.053C112.32 146.932 112.343 146.785 112.343 146.612C112.343 146.351 112.252 146.155 112.07 146.024C111.893 145.893 111.652 145.828 111.349 145.828H110.796V147.536H111.349ZM118.405 147.599C118.405 147.949 118.337 148.278 118.202 148.586C118.071 148.889 117.892 149.155 117.663 149.384C117.439 149.608 117.173 149.785 116.865 149.916C116.562 150.047 116.235 150.112 115.885 150.112C115.53 150.112 115.199 150.047 114.891 149.916C114.588 149.785 114.322 149.606 114.093 149.377C113.869 149.148 113.692 148.882 113.561 148.579C113.43 148.271 113.365 147.944 113.365 147.599C113.365 147.249 113.43 146.922 113.561 146.619C113.696 146.311 113.876 146.045 114.1 145.821C114.329 145.592 114.595 145.413 114.898 145.282C115.206 145.151 115.535 145.086 115.885 145.086C116.24 145.086 116.569 145.154 116.872 145.289C117.18 145.42 117.446 145.599 117.67 145.828C117.899 146.052 118.078 146.318 118.209 146.626C118.34 146.929 118.405 147.254 118.405 147.599ZM115.885 149.482C116.128 149.482 116.359 149.433 116.578 149.335C116.802 149.232 116.998 149.097 117.166 148.929C117.334 148.756 117.467 148.556 117.565 148.327C117.668 148.098 117.719 147.856 117.719 147.599C117.719 147.347 117.67 147.107 117.572 146.878C117.474 146.649 117.341 146.451 117.173 146.283C117.01 146.11 116.816 145.973 116.592 145.87C116.368 145.767 116.13 145.716 115.878 145.716C115.64 145.716 115.409 145.765 115.185 145.863C114.966 145.961 114.772 146.096 114.604 146.269C114.436 146.437 114.301 146.635 114.198 146.864C114.1 147.093 114.051 147.338 114.051 147.599C114.051 147.856 114.1 148.098 114.198 148.327C114.296 148.556 114.429 148.756 114.597 148.929C114.765 149.097 114.959 149.232 115.178 149.335C115.402 149.433 115.638 149.482 115.885 149.482ZM119.765 149.37H121.802L121.522 150H119.079V145.198L119.765 145.086V149.37ZM121.898 145.086L123.291 147.424L124.299 145.086L124.957 145.289L122.801 150.112L122.129 149.965L122.969 148.152L121.226 145.282L121.898 145.086ZM127.547 146.248C127.36 146.043 127.195 145.903 127.05 145.828C126.905 145.753 126.763 145.716 126.623 145.716C126.399 145.716 126.217 145.781 126.077 145.912C125.937 146.043 125.867 146.222 125.867 146.451C125.867 146.558 125.89 146.652 125.937 146.731C125.988 146.806 126.056 146.873 126.14 146.934C126.229 146.995 126.334 147.051 126.455 147.102C126.576 147.149 126.709 147.2 126.854 147.256C127.027 147.321 127.185 147.391 127.33 147.466C127.479 147.541 127.608 147.632 127.715 147.739C127.822 147.846 127.906 147.975 127.967 148.124C128.032 148.269 128.065 148.444 128.065 148.649C128.065 148.868 128.025 149.067 127.946 149.244C127.867 149.421 127.759 149.575 127.624 149.706C127.489 149.837 127.33 149.937 127.148 150.007C126.971 150.077 126.779 150.112 126.574 150.112C126.439 150.112 126.31 150.098 126.189 150.07C126.068 150.047 125.946 150.005 125.825 149.944C125.708 149.883 125.587 149.804 125.461 149.706C125.34 149.603 125.214 149.48 125.083 149.335L125.587 148.915C125.685 149.069 125.813 149.202 125.972 149.314C126.131 149.426 126.308 149.482 126.504 149.482C126.625 149.482 126.737 149.468 126.84 149.44C126.947 149.407 127.041 149.358 127.12 149.293C127.199 149.228 127.262 149.141 127.309 149.034C127.356 148.927 127.379 148.796 127.379 148.642C127.379 148.553 127.346 148.472 127.281 148.397C127.216 148.318 127.134 148.248 127.036 148.187C126.943 148.126 126.845 148.073 126.742 148.026C126.639 147.975 126.551 147.93 126.476 147.893C126.322 147.818 126.168 147.739 126.014 147.655C125.86 147.566 125.72 147.466 125.594 147.354C125.473 147.242 125.372 147.114 125.293 146.969C125.218 146.82 125.181 146.642 125.181 146.437C125.181 146.236 125.216 146.054 125.286 145.891C125.356 145.723 125.454 145.581 125.58 145.464C125.711 145.343 125.867 145.249 126.049 145.184C126.231 145.119 126.434 145.086 126.658 145.086C126.896 145.086 127.136 145.144 127.379 145.261C127.622 145.378 127.832 145.553 128.009 145.786L127.547 146.248ZM129.458 150L128.772 150.056V145.198L129.458 145.086V150ZM135.133 147.599C135.133 147.949 135.065 148.278 134.93 148.586C134.799 148.889 134.619 149.155 134.391 149.384C134.167 149.608 133.901 149.785 133.593 149.916C133.289 150.047 132.963 150.112 132.613 150.112C132.258 150.112 131.927 150.047 131.619 149.916C131.315 149.785 131.049 149.606 130.821 149.377C130.597 149.148 130.419 148.882 130.289 148.579C130.158 148.271 130.093 147.944 130.093 147.599C130.093 147.249 130.158 146.922 130.289 146.619C130.424 146.311 130.604 146.045 130.828 145.821C131.056 145.592 131.322 145.413 131.626 145.282C131.934 145.151 132.263 145.086 132.613 145.086C132.967 145.086 133.296 145.154 133.6 145.289C133.908 145.42 134.174 145.599 134.398 145.828C134.626 146.052 134.806 146.318 134.937 146.626C135.067 146.929 135.133 147.254 135.133 147.599ZM132.613 149.482C132.855 149.482 133.086 149.433 133.306 149.335C133.53 149.232 133.726 149.097 133.894 148.929C134.062 148.756 134.195 148.556 134.293 148.327C134.395 148.098 134.447 147.856 134.447 147.599C134.447 147.347 134.398 147.107 134.3 146.878C134.202 146.649 134.069 146.451 133.901 146.283C133.737 146.11 133.544 145.973 133.32 145.87C133.096 145.767 132.858 145.716 132.606 145.716C132.368 145.716 132.137 145.765 131.913 145.863C131.693 145.961 131.5 146.096 131.332 146.269C131.164 146.437 131.028 146.635 130.926 146.864C130.828 147.093 130.779 147.338 130.779 147.599C130.779 147.856 130.828 148.098 130.926 148.327C131.024 148.556 131.157 148.756 131.325 148.929C131.493 149.097 131.686 149.232 131.906 149.335C132.13 149.433 132.365 149.482 132.613 149.482Z" fill="black"/>
</svg>
