<svg width="244" height="157" viewBox="0 0 244 157" fill="none" xmlns="http://www.w3.org/2000/svg">
<rect width="244" height="157" fill="white"/>
<rect x="9" y="9" width="226" height="139" stroke="black"/>
<path d="M106.19 23.036C105.966 22.876 105.73 22.74 105.482 22.628C105.234 22.508 104.97 22.448 104.69 22.448C104.346 22.448 104.026 22.508 103.73 22.628C103.442 22.74 103.194 22.904 102.986 23.12C102.778 23.328 102.614 23.58 102.494 23.876C102.374 24.172 102.314 24.5 102.314 24.86C102.314 25.228 102.37 25.564 102.482 25.868C102.602 26.164 102.766 26.42 102.974 26.636C103.182 26.852 103.43 27.02 103.718 27.14C104.014 27.26 104.338 27.32 104.69 27.32C104.97 27.32 105.238 27.26 105.494 27.14C105.758 27.012 106.006 26.868 106.238 26.708L105.986 28.892C105.906 28.94 105.802 28.98 105.674 29.012C105.546 29.052 105.41 29.084 105.266 29.108C105.13 29.132 104.994 29.152 104.858 29.168C104.73 29.184 104.626 29.192 104.546 29.192C103.922 29.192 103.346 29.088 102.818 28.88C102.298 28.672 101.846 28.38 101.462 28.004C101.086 27.628 100.794 27.18 100.586 26.66C100.378 26.132 100.274 25.548 100.274 24.908C100.274 24.3 100.378 23.732 100.586 23.204C100.794 22.676 101.086 22.216 101.462 21.824C101.838 21.432 102.286 21.128 102.806 20.912C103.334 20.688 103.91 20.576 104.534 20.576C104.774 20.576 105.006 20.596 105.23 20.636C105.454 20.676 105.67 20.744 105.878 20.84L106.19 23.036ZM109.342 23.768H111.982V20.768L114.022 20.576V28.904L111.982 29.096V25.64H109.342V28.904L107.302 29.096V20.768L109.342 20.576V23.768ZM118.642 20.576H118.666L123.106 28.772L121.03 29.192L120.19 27.428L117.058 27.428L116.23 29.192L114.25 28.772L118.642 20.576ZM117.55 25.904L119.734 25.904L118.642 23.888L117.55 25.904ZM123.274 20.576H123.298L128.686 25.184V20.768L130.726 20.576V29.192H130.702L125.314 24.488V28.904L123.274 29.096V20.576ZM137.526 23.036C137.302 22.876 137.066 22.74 136.818 22.628C136.57 22.508 136.306 22.448 136.026 22.448C135.682 22.448 135.362 22.508 135.066 22.628C134.778 22.74 134.53 22.904 134.322 23.12C134.114 23.328 133.95 23.58 133.83 23.876C133.71 24.172 133.65 24.5 133.65 24.86C133.65 25.228 133.706 25.564 133.818 25.868C133.938 26.164 134.102 26.42 134.31 26.636C134.518 26.852 134.766 27.02 135.054 27.14C135.35 27.26 135.674 27.32 136.026 27.32C136.306 27.32 136.574 27.26 136.83 27.14C137.094 27.012 137.342 26.868 137.574 26.708L137.322 28.892C137.242 28.94 137.138 28.98 137.01 29.012C136.882 29.052 136.746 29.084 136.602 29.108C136.466 29.132 136.33 29.152 136.194 29.168C136.066 29.184 135.962 29.192 135.882 29.192C135.258 29.192 134.682 29.088 134.154 28.88C133.634 28.672 133.182 28.38 132.798 28.004C132.422 27.628 132.13 27.18 131.922 26.66C131.714 26.132 131.61 25.548 131.61 24.908C131.61 24.3 131.714 23.732 131.922 23.204C132.13 22.676 132.422 22.216 132.798 21.824C133.174 21.432 133.622 21.128 134.142 20.912C134.67 20.688 135.246 20.576 135.87 20.576C136.11 20.576 136.342 20.596 136.566 20.636C136.79 20.676 137.006 20.744 137.214 20.84L137.526 23.036ZM143.294 20.768L143.654 22.508H140.678V23.936H142.802V25.676H140.678V27.26H143.906L143.402 29H138.638V20.768H143.294Z" fill="black"/>
<rect width="194" height="95" transform="translate(25 37)" fill="white"/>
<path d="M32.3235 65.789C32.1615 65.675 31.9965 65.597 31.8285 65.555C31.6605 65.513 31.4805 65.492 31.2885 65.492C30.9705 65.492 30.6735 65.561 30.3975 65.699C30.1275 65.831 29.8905 66.008 29.6865 66.23C29.4825 66.446 29.3235 66.698 29.2095 66.986C29.0955 67.274 29.0385 67.571 29.0385 67.877C29.0385 68.201 29.0955 68.513 29.2095 68.813C29.3235 69.107 29.4795 69.368 29.6775 69.596C29.8755 69.818 30.1065 69.998 30.3705 70.136C30.6405 70.268 30.9315 70.334 31.2435 70.334C31.4535 70.334 31.6635 70.301 31.8735 70.235C32.0895 70.163 32.2845 70.07 32.4585 69.956L32.2965 70.919C32.1105 70.985 31.9305 71.039 31.7565 71.081C31.5885 71.123 31.4115 71.144 31.2255 71.144C30.8115 71.144 30.4185 71.06 30.0465 70.892C29.6745 70.724 29.3475 70.496 29.0655 70.208C28.7895 69.914 28.5675 69.572 28.3995 69.182C28.2375 68.786 28.1565 68.363 28.1565 67.913C28.1565 67.505 28.2405 67.109 28.4085 66.725C28.5765 66.335 28.7955 65.99 29.0655 65.69C29.3415 65.384 29.6535 65.141 30.0015 64.961C30.3495 64.775 30.7065 64.682 31.0725 64.682C31.2525 64.682 31.4295 64.697 31.6035 64.727C31.7835 64.751 31.9605 64.787 32.1345 64.835L32.3235 65.789ZM36.7935 64.826L36.9825 65.636H34.3815V67.382H36.4605V68.192H34.3815V70.19H37.1805L36.9285 71H33.4995V64.826H36.7935ZM41.1164 64.826V67.265H40.3784V64.826H41.1164ZM42.4124 64.826V67.265H41.6744V64.826H42.4124ZM46.3814 66.176C46.1414 65.912 45.9284 65.732 45.7424 65.636C45.5564 65.54 45.3734 65.492 45.1934 65.492C44.9054 65.492 44.6714 65.576 44.4914 65.744C44.3114 65.912 44.2214 66.143 44.2214 66.437C44.2214 66.575 44.2514 66.695 44.3114 66.797C44.3774 66.893 44.4644 66.98 44.5724 67.058C44.6864 67.136 44.8214 67.208 44.9774 67.274C45.1334 67.334 45.3044 67.4 45.4904 67.472C45.7124 67.556 45.9164 67.646 46.1024 67.742C46.2944 67.838 46.4594 67.955 46.5974 68.093C46.7354 68.231 46.8434 68.396 46.9214 68.588C47.0054 68.774 47.0474 68.999 47.0474 69.263C47.0474 69.545 46.9964 69.8 46.8944 70.028C46.7924 70.256 46.6544 70.454 46.4804 70.622C46.3064 70.79 46.1024 70.919 45.8684 71.009C45.6404 71.099 45.3944 71.144 45.1304 71.144C44.9564 71.144 44.7914 71.126 44.6354 71.09C44.4794 71.06 44.3234 71.006 44.1674 70.928C44.0174 70.85 43.8614 70.748 43.6994 70.622C43.5434 70.49 43.3814 70.331 43.2134 70.145L43.8614 69.605C43.9874 69.803 44.1524 69.974 44.3564 70.118C44.5604 70.262 44.7884 70.334 45.0404 70.334C45.1964 70.334 45.3404 70.316 45.4724 70.28C45.6104 70.238 45.7304 70.175 45.8324 70.091C45.9344 70.007 46.0154 69.896 46.0754 69.758C46.1354 69.62 46.1654 69.452 46.1654 69.254C46.1654 69.14 46.1234 69.035 46.0394 68.939C45.9554 68.837 45.8504 68.747 45.7244 68.669C45.6044 68.591 45.4784 68.522 45.3464 68.462C45.2144 68.396 45.1004 68.339 45.0044 68.291C44.8064 68.195 44.6084 68.093 44.4104 67.985C44.2124 67.871 44.0324 67.742 43.8704 67.598C43.7144 67.454 43.5854 67.289 43.4834 67.103C43.3874 66.911 43.3394 66.683 43.3394 66.419C43.3394 66.161 43.3844 65.927 43.4744 65.717C43.5644 65.501 43.6904 65.318 43.8524 65.168C44.0204 65.012 44.2214 64.892 44.4554 64.808C44.6894 64.724 44.9504 64.682 45.2384 64.682C45.5444 64.682 45.8534 64.757 46.1654 64.907C46.4774 65.057 46.7474 65.282 46.9754 65.582L46.3814 66.176ZM48.8474 69.101C48.8474 69.467 48.9494 69.764 49.1534 69.992C49.3634 70.22 49.6754 70.334 50.0894 70.334C50.5394 70.334 50.8784 70.226 51.1064 70.01C51.3344 69.788 51.4484 69.488 51.4484 69.11V64.826L52.3304 64.682V68.309C52.3304 68.531 52.3244 68.756 52.3124 68.984C52.3064 69.212 52.2824 69.431 52.2404 69.641C52.2044 69.851 52.1414 70.049 52.0514 70.235C51.9674 70.415 51.8474 70.574 51.6914 70.712C51.5354 70.844 51.3374 70.949 51.0974 71.027C50.8634 71.105 50.5754 71.144 50.2334 71.144C49.8074 71.144 49.4474 71.102 49.1534 71.018C48.8654 70.934 48.6314 70.796 48.4514 70.604C48.2774 70.406 48.1514 70.151 48.0734 69.839C48.0014 69.521 47.9654 69.131 47.9654 68.669V64.826L48.8474 64.682V69.101ZM55.1684 64.826C55.4684 64.826 55.7444 64.871 55.9964 64.961C56.2484 65.045 56.4644 65.168 56.6444 65.33C56.8304 65.492 56.9744 65.684 57.0764 65.906C57.1784 66.128 57.2294 66.374 57.2294 66.644C57.2294 66.926 57.1904 67.19 57.1124 67.436C57.0344 67.676 56.8994 67.886 56.7074 68.066C56.5214 68.246 56.2724 68.387 55.9604 68.489C55.6484 68.591 55.2584 68.642 54.7904 68.642H54.3584V71L53.4764 71.108V64.826H55.1684ZM55.0694 67.832C55.2674 67.832 55.4444 67.814 55.6004 67.778C55.7564 67.736 55.8884 67.67 55.9964 67.58C56.1104 67.484 56.1974 67.361 56.2574 67.211C56.3174 67.055 56.3474 66.866 56.3474 66.644C56.3474 66.308 56.2304 66.056 55.9964 65.888C55.7684 65.72 55.4594 65.636 55.0694 65.636H54.3584V67.832H55.0694ZM61.2974 64.826L61.4864 65.636H58.8854V67.382H60.9644V68.192H58.8854V70.19H61.6844L61.4324 71H58.0034V64.826H61.2974ZM63.9254 64.826C64.2014 64.826 64.4624 64.865 64.7084 64.943C64.9544 65.015 65.1704 65.129 65.3564 65.285C65.5424 65.441 65.6894 65.636 65.7974 65.87C65.9054 66.104 65.9594 66.38 65.9594 66.698C65.9594 67.166 65.8364 67.529 65.5904 67.787C65.3444 68.039 65.0114 68.213 64.5914 68.309L66.4544 70.892L65.4644 71.144L63.3134 68.003H63.2954V71L62.4134 71.108V64.826H63.9254ZM63.9434 67.805C64.0874 67.805 64.2284 67.778 64.3664 67.724C64.5044 67.67 64.6244 67.595 64.7264 67.499C64.8344 67.403 64.9184 67.289 64.9784 67.157C65.0444 67.019 65.0774 66.866 65.0774 66.698C65.0774 66.512 65.0474 66.353 64.9874 66.221C64.9274 66.083 64.8464 65.972 64.7444 65.888C64.6424 65.804 64.5224 65.741 64.3844 65.699C64.2524 65.657 64.1084 65.636 63.9524 65.636H63.2954V67.805H63.9434ZM71.1733 64.826C71.4733 64.826 71.7493 64.871 72.0013 64.961C72.2533 65.045 72.4693 65.168 72.6493 65.33C72.8353 65.492 72.9793 65.684 73.0813 65.906C73.1833 66.128 73.2343 66.374 73.2343 66.644C73.2343 66.926 73.1953 67.19 73.1173 67.436C73.0393 67.676 72.9043 67.886 72.7123 68.066C72.5263 68.246 72.2773 68.387 71.9653 68.489C71.6533 68.591 71.2633 68.642 70.7953 68.642H70.3633V71L69.4813 71.108V64.826H71.1733ZM71.0743 67.832C71.2723 67.832 71.4493 67.814 71.6053 67.778C71.7613 67.736 71.8933 67.67 72.0013 67.58C72.1153 67.484 72.2023 67.361 72.2623 67.211C72.3223 67.055 72.3523 66.866 72.3523 66.644C72.3523 66.308 72.2353 66.056 72.0013 65.888C71.7733 65.72 71.4643 65.636 71.0743 65.636H70.3633V67.832H71.0743ZM75.4303 64.826C75.7063 64.826 75.9673 64.865 76.2133 64.943C76.4593 65.015 76.6753 65.129 76.8613 65.285C77.0473 65.441 77.1943 65.636 77.3023 65.87C77.4103 66.104 77.4643 66.38 77.4643 66.698C77.4643 67.166 77.3413 67.529 77.0953 67.787C76.8493 68.039 76.5163 68.213 76.0963 68.309L77.9593 70.892L76.9693 71.144L74.8183 68.003H74.8003V71L73.9183 71.108V64.826H75.4303ZM75.4483 67.805C75.5923 67.805 75.7333 67.778 75.8713 67.724C76.0093 67.67 76.1293 67.595 76.2313 67.499C76.3393 67.403 76.4233 67.289 76.4833 67.157C76.5493 67.019 76.5823 66.866 76.5823 66.698C76.5823 66.512 76.5523 66.353 76.4923 66.221C76.4323 66.083 76.3513 65.972 76.2493 65.888C76.1473 65.804 76.0273 65.741 75.8893 65.699C75.7573 65.657 75.6133 65.636 75.4573 65.636H74.8003V67.805H75.4483ZM84.6463 67.913C84.6463 68.363 84.5593 68.786 84.3853 69.182C84.2173 69.572 83.9863 69.914 83.6923 70.208C83.4043 70.496 83.0623 70.724 82.6663 70.892C82.2763 71.06 81.8563 71.144 81.4063 71.144C80.9503 71.144 80.5243 71.06 80.1283 70.892C79.7383 70.724 79.3963 70.493 79.1023 70.199C78.8143 69.905 78.5863 69.563 78.4183 69.173C78.2503 68.777 78.1663 68.357 78.1663 67.913C78.1663 67.463 78.2503 67.043 78.4183 66.653C78.5923 66.257 78.8233 65.915 79.1113 65.627C79.4053 65.333 79.7473 65.102 80.1373 64.934C80.5333 64.766 80.9563 64.682 81.4063 64.682C81.8623 64.682 82.2853 64.769 82.6753 64.943C83.0713 65.111 83.4133 65.342 83.7013 65.636C83.9953 65.924 84.2263 66.266 84.3943 66.662C84.5623 67.052 84.6463 67.469 84.6463 67.913ZM81.4063 70.334C81.7183 70.334 82.0153 70.271 82.2973 70.145C82.5853 70.013 82.8373 69.839 83.0533 69.623C83.2693 69.401 83.4403 69.143 83.5663 68.849C83.6983 68.555 83.7643 68.243 83.7643 67.913C83.7643 67.589 83.7013 67.28 83.5753 66.986C83.4493 66.692 83.2783 66.437 83.0623 66.221C82.8523 65.999 82.6033 65.822 82.3153 65.69C82.0273 65.558 81.7213 65.492 81.3973 65.492C81.0913 65.492 80.7943 65.555 80.5063 65.681C80.2243 65.807 79.9753 65.981 79.7593 66.203C79.5433 66.419 79.3693 66.674 79.2373 66.968C79.1113 67.262 79.0483 67.577 79.0483 67.913C79.0483 68.243 79.1113 68.555 79.2373 68.849C79.3633 69.143 79.5343 69.401 79.7503 69.623C79.9663 69.839 80.2153 70.013 80.4973 70.145C80.7853 70.271 81.0883 70.334 81.4063 70.334ZM90.1032 66.131C89.9832 66.047 89.8632 65.966 89.7432 65.888C89.6232 65.81 89.4942 65.744 89.3562 65.69C89.2242 65.63 89.0802 65.582 88.9242 65.546C88.7682 65.51 88.5972 65.492 88.4112 65.492C88.0932 65.492 87.7902 65.558 87.5022 65.69C87.2202 65.816 86.9712 65.993 86.7552 66.221C86.5392 66.443 86.3682 66.704 86.2422 67.004C86.1162 67.304 86.0532 67.628 86.0532 67.976C86.0532 68.258 86.1102 68.54 86.2242 68.822C86.3382 69.104 86.4942 69.359 86.6922 69.587C86.8902 69.809 87.1212 69.989 87.3852 70.127C87.6552 70.265 87.9432 70.334 88.2492 70.334C88.5252 70.334 88.8042 70.295 89.0862 70.217C89.3742 70.133 89.6202 69.989 89.8242 69.785V68.318H87.9792L88.2852 67.508H90.7062V70.244C90.5922 70.382 90.4452 70.508 90.2652 70.622C90.0852 70.73 89.8872 70.823 89.6712 70.901C89.4552 70.979 89.2272 71.039 88.9872 71.081C88.7472 71.123 88.5102 71.144 88.2762 71.144C87.8682 71.144 87.4782 71.06 87.1062 70.892C86.7342 70.718 86.4042 70.487 86.1162 70.199C85.8282 69.911 85.5972 69.578 85.4232 69.2C85.2552 68.816 85.1712 68.414 85.1712 67.994C85.1712 67.544 85.2522 67.118 85.4142 66.716C85.5762 66.314 85.7982 65.963 86.0802 65.663C86.3682 65.357 86.7072 65.117 87.0972 64.943C87.4872 64.769 87.9132 64.682 88.3752 64.682C88.8072 64.682 89.2212 64.754 89.6172 64.898C90.0132 65.036 90.3492 65.246 90.6252 65.528L90.1032 66.131ZM93.4303 64.826C93.7063 64.826 93.9673 64.865 94.2133 64.943C94.4593 65.015 94.6753 65.129 94.8613 65.285C95.0473 65.441 95.1943 65.636 95.3023 65.87C95.4103 66.104 95.4643 66.38 95.4643 66.698C95.4643 67.166 95.3413 67.529 95.0953 67.787C94.8493 68.039 94.5163 68.213 94.0963 68.309L95.9593 70.892L94.9693 71.144L92.8183 68.003H92.8003V71L91.9183 71.108V64.826H93.4303ZM93.4483 67.805C93.5923 67.805 93.7333 67.778 93.8713 67.724C94.0093 67.67 94.1293 67.595 94.2313 67.499C94.3393 67.403 94.4233 67.289 94.4833 67.157C94.5493 67.019 94.5823 66.866 94.5823 66.698C94.5823 66.512 94.5523 66.353 94.4923 66.221C94.4323 66.083 94.3513 65.972 94.2493 65.888C94.1473 65.804 94.0273 65.741 93.8893 65.699C93.7573 65.657 93.6133 65.636 93.4573 65.636H92.8003V67.805H93.4483ZM98.9113 64.682L102.052 70.964L101.17 71.144L100.117 69.02H97.6333L96.5893 71.144L95.7613 70.964L98.8933 64.682H98.9113ZM98.0023 68.21H99.7573L98.8753 66.437L98.0023 68.21ZM103.267 64.682H103.285L105.418 69.389L107.524 64.682H107.542L108.802 71L107.947 71.108L107.2 67.202H107.182L105.427 71.072H105.409L103.609 67.202H103.591L102.862 71.108L102.016 71L103.267 64.682ZM110.272 64.682H110.29L112.423 69.389L114.529 64.682H114.547L115.807 71L114.952 71.108L114.205 67.202H114.187L112.432 71.072H112.414L110.614 67.202H110.596L109.867 71.108L109.021 71L110.272 64.682ZM119.815 64.826L120.004 65.636H117.403V67.382H119.482V68.192H117.403V70.19H120.202L119.95 71H116.521V64.826H119.815ZM121.633 64.826V67.265H120.895V64.826H121.633ZM122.929 64.826V67.265H122.191V64.826H122.929ZM126.496 64.682L126.523 64.691L130.474 69.002V64.97L131.356 64.826V71.144L131.329 71.135L127.378 66.824V71L126.496 71.108V64.682ZM133.291 64.826V67.265H132.553V64.826H133.291ZM137.815 64.826L138.004 65.636H135.403V67.382H137.482V68.192H135.403V70.19H138.202L137.95 71H134.521V64.826H137.815ZM141.901 66.176C141.661 65.912 141.448 65.732 141.262 65.636C141.076 65.54 140.893 65.492 140.713 65.492C140.425 65.492 140.191 65.576 140.011 65.744C139.831 65.912 139.741 66.143 139.741 66.437C139.741 66.575 139.771 66.695 139.831 66.797C139.897 66.893 139.984 66.98 140.092 67.058C140.206 67.136 140.341 67.208 140.497 67.274C140.653 67.334 140.824 67.4 141.01 67.472C141.232 67.556 141.436 67.646 141.622 67.742C141.814 67.838 141.979 67.955 142.117 68.093C142.255 68.231 142.363 68.396 142.441 68.588C142.525 68.774 142.567 68.999 142.567 69.263C142.567 69.545 142.516 69.8 142.414 70.028C142.312 70.256 142.174 70.454 142 70.622C141.826 70.79 141.622 70.919 141.388 71.009C141.16 71.099 140.914 71.144 140.65 71.144C140.476 71.144 140.311 71.126 140.155 71.09C139.999 71.06 139.843 71.006 139.687 70.928C139.537 70.85 139.381 70.748 139.219 70.622C139.063 70.49 138.901 70.331 138.733 70.145L139.381 69.605C139.507 69.803 139.672 69.974 139.876 70.118C140.08 70.262 140.308 70.334 140.56 70.334C140.716 70.334 140.86 70.316 140.992 70.28C141.13 70.238 141.25 70.175 141.352 70.091C141.454 70.007 141.535 69.896 141.595 69.758C141.655 69.62 141.685 69.452 141.685 69.254C141.685 69.14 141.643 69.035 141.559 68.939C141.475 68.837 141.37 68.747 141.244 68.669C141.124 68.591 140.998 68.522 140.866 68.462C140.734 68.396 140.62 68.339 140.524 68.291C140.326 68.195 140.128 68.093 139.93 67.985C139.732 67.871 139.552 67.742 139.39 67.598C139.234 67.454 139.105 67.289 139.003 67.103C138.907 66.911 138.859 66.683 138.859 66.419C138.859 66.161 138.904 65.927 138.994 65.717C139.084 65.501 139.21 65.318 139.372 65.168C139.54 65.012 139.741 64.892 139.975 64.808C140.209 64.724 140.47 64.682 140.758 64.682C141.064 64.682 141.373 64.757 141.685 64.907C141.997 65.057 142.267 65.282 142.495 65.582L141.901 66.176ZM146.797 64.826V65.636H145.357V71L144.475 71.108V65.636H142.873L143.152 64.826H146.797ZM151.69 64.826C151.99 64.826 152.266 64.871 152.518 64.961C152.77 65.045 152.986 65.168 153.166 65.33C153.352 65.492 153.496 65.684 153.598 65.906C153.7 66.128 153.751 66.374 153.751 66.644C153.751 66.926 153.712 67.19 153.634 67.436C153.556 67.676 153.421 67.886 153.229 68.066C153.043 68.246 152.794 68.387 152.482 68.489C152.17 68.591 151.78 68.642 151.312 68.642H150.88V71L149.998 71.108V64.826H151.69ZM151.591 67.832C151.789 67.832 151.966 67.814 152.122 67.778C152.278 67.736 152.41 67.67 152.518 67.58C152.632 67.484 152.719 67.361 152.779 67.211C152.839 67.055 152.869 66.866 152.869 66.644C152.869 66.308 152.752 66.056 152.518 65.888C152.29 65.72 151.981 65.636 151.591 65.636H150.88V67.832H151.591ZM156.594 64.682L159.735 70.964L158.853 71.144L157.8 69.02H155.316L154.272 71.144L153.444 70.964L156.576 64.682H156.594ZM155.685 68.21L157.44 68.21L156.558 66.437L155.685 68.21ZM163.074 66.176C162.834 65.912 162.621 65.732 162.435 65.636C162.249 65.54 162.066 65.492 161.886 65.492C161.598 65.492 161.364 65.576 161.184 65.744C161.004 65.912 160.914 66.143 160.914 66.437C160.914 66.575 160.944 66.695 161.004 66.797C161.07 66.893 161.157 66.98 161.265 67.058C161.379 67.136 161.514 67.208 161.67 67.274C161.826 67.334 161.997 67.4 162.183 67.472C162.405 67.556 162.609 67.646 162.795 67.742C162.987 67.838 163.152 67.955 163.29 68.093C163.428 68.231 163.536 68.396 163.614 68.588C163.698 68.774 163.74 68.999 163.74 69.263C163.74 69.545 163.689 69.8 163.587 70.028C163.485 70.256 163.347 70.454 163.173 70.622C162.999 70.79 162.795 70.919 162.561 71.009C162.333 71.099 162.087 71.144 161.823 71.144C161.649 71.144 161.484 71.126 161.328 71.09C161.172 71.06 161.016 71.006 160.86 70.928C160.71 70.85 160.554 70.748 160.392 70.622C160.236 70.49 160.074 70.331 159.906 70.145L160.554 69.605C160.68 69.803 160.845 69.974 161.049 70.118C161.253 70.262 161.481 70.334 161.733 70.334C161.889 70.334 162.033 70.316 162.165 70.28C162.303 70.238 162.423 70.175 162.525 70.091C162.627 70.007 162.708 69.896 162.768 69.758C162.828 69.62 162.858 69.452 162.858 69.254C162.858 69.14 162.816 69.035 162.732 68.939C162.648 68.837 162.543 68.747 162.417 68.669C162.297 68.591 162.171 68.522 162.039 68.462C161.907 68.396 161.793 68.339 161.697 68.291C161.499 68.195 161.301 68.093 161.103 67.985C160.905 67.871 160.725 67.742 160.563 67.598C160.407 67.454 160.278 67.289 160.176 67.103C160.08 66.911 160.032 66.683 160.032 66.419C160.032 66.161 160.077 65.927 160.167 65.717C160.257 65.501 160.383 65.318 160.545 65.168C160.713 65.012 160.914 64.892 161.148 64.808C161.382 64.724 161.643 64.682 161.931 64.682C162.237 64.682 162.546 64.757 162.858 64.907C163.17 65.057 163.44 65.282 163.668 65.582L163.074 66.176ZM170.079 66.176C169.839 65.912 169.626 65.732 169.44 65.636C169.254 65.54 169.071 65.492 168.891 65.492C168.603 65.492 168.369 65.576 168.189 65.744C168.009 65.912 167.919 66.143 167.919 66.437C167.919 66.575 167.949 66.695 168.009 66.797C168.075 66.893 168.162 66.98 168.27 67.058C168.384 67.136 168.519 67.208 168.675 67.274C168.831 67.334 169.002 67.4 169.188 67.472C169.41 67.556 169.614 67.646 169.8 67.742C169.992 67.838 170.157 67.955 170.295 68.093C170.433 68.231 170.541 68.396 170.619 68.588C170.703 68.774 170.745 68.999 170.745 69.263C170.745 69.545 170.694 69.8 170.592 70.028C170.49 70.256 170.352 70.454 170.178 70.622C170.004 70.79 169.8 70.919 169.566 71.009C169.338 71.099 169.092 71.144 168.828 71.144C168.654 71.144 168.489 71.126 168.333 71.09C168.177 71.06 168.021 71.006 167.865 70.928C167.715 70.85 167.559 70.748 167.397 70.622C167.241 70.49 167.079 70.331 166.911 70.145L167.559 69.605C167.685 69.803 167.85 69.974 168.054 70.118C168.258 70.262 168.486 70.334 168.738 70.334C168.894 70.334 169.038 70.316 169.17 70.28C169.308 70.238 169.428 70.175 169.53 70.091C169.632 70.007 169.713 69.896 169.773 69.758C169.833 69.62 169.863 69.452 169.863 69.254C169.863 69.14 169.821 69.035 169.737 68.939C169.653 68.837 169.548 68.747 169.422 68.669C169.302 68.591 169.176 68.522 169.044 68.462C168.912 68.396 168.798 68.339 168.702 68.291C168.504 68.195 168.306 68.093 168.108 67.985C167.91 67.871 167.73 67.742 167.568 67.598C167.412 67.454 167.283 67.289 167.181 67.103C167.085 66.911 167.037 66.683 167.037 66.419C167.037 66.161 167.082 65.927 167.172 65.717C167.262 65.501 167.388 65.318 167.55 65.168C167.718 65.012 167.919 64.892 168.153 64.808C168.387 64.724 168.648 64.682 168.936 64.682C169.242 64.682 169.551 64.757 169.863 64.907C170.175 65.057 170.445 65.282 170.673 65.582L170.079 66.176ZM172.536 71L171.654 71.072V64.826L172.536 64.682V71ZM180.024 65.789C179.862 65.675 179.697 65.597 179.529 65.555C179.361 65.513 179.181 65.492 178.989 65.492C178.671 65.492 178.374 65.561 178.098 65.699C177.828 65.831 177.591 66.008 177.387 66.23C177.183 66.446 177.024 66.698 176.91 66.986C176.796 67.274 176.739 67.571 176.739 67.877C176.739 68.201 176.796 68.513 176.91 68.813C177.024 69.107 177.18 69.368 177.378 69.596C177.576 69.818 177.807 69.998 178.071 70.136C178.341 70.268 178.632 70.334 178.944 70.334C179.154 70.334 179.364 70.301 179.574 70.235C179.79 70.163 179.985 70.07 180.159 69.956L179.997 70.919C179.811 70.985 179.631 71.039 179.457 71.081C179.289 71.123 179.112 71.144 178.926 71.144C178.512 71.144 178.119 71.06 177.747 70.892C177.375 70.724 177.048 70.496 176.766 70.208C176.49 69.914 176.268 69.572 176.1 69.182C175.938 68.786 175.857 68.363 175.857 67.913C175.857 67.505 175.941 67.109 176.109 66.725C176.277 66.335 176.496 65.99 176.766 65.69C177.042 65.384 177.354 65.141 177.702 64.961C178.05 64.775 178.407 64.682 178.773 64.682C178.953 64.682 179.13 64.697 179.304 64.727C179.484 64.751 179.661 64.787 179.835 64.835L180.024 65.789ZM182.082 67.382H185.124V64.826L186.006 64.682V71L185.124 71.108V68.192H182.082V71L181.2 71.108V64.826L182.082 64.682V67.382ZM193.341 67.913C193.341 68.363 193.254 68.786 193.08 69.182C192.912 69.572 192.681 69.914 192.387 70.208C192.099 70.496 191.757 70.724 191.361 70.892C190.971 71.06 190.551 71.144 190.101 71.144C189.645 71.144 189.219 71.06 188.823 70.892C188.433 70.724 188.091 70.493 187.797 70.199C187.509 69.905 187.281 69.563 187.113 69.173C186.945 68.777 186.861 68.357 186.861 67.913C186.861 67.463 186.945 67.043 187.113 66.653C187.287 66.257 187.518 65.915 187.806 65.627C188.1 65.333 188.442 65.102 188.832 64.934C189.228 64.766 189.651 64.682 190.101 64.682C190.557 64.682 190.98 64.769 191.37 64.943C191.766 65.111 192.108 65.342 192.396 65.636C192.69 65.924 192.921 66.266 193.089 66.662C193.257 67.052 193.341 67.469 193.341 67.913ZM190.101 70.334C190.413 70.334 190.71 70.271 190.992 70.145C191.28 70.013 191.532 69.839 191.748 69.623C191.964 69.401 192.135 69.143 192.261 68.849C192.393 68.555 192.459 68.243 192.459 67.913C192.459 67.589 192.396 67.28 192.27 66.986C192.144 66.692 191.973 66.437 191.757 66.221C191.547 65.999 191.298 65.822 191.01 65.69C190.722 65.558 190.416 65.492 190.092 65.492C189.786 65.492 189.489 65.555 189.201 65.681C188.919 65.807 188.67 65.981 188.454 66.203C188.238 66.419 188.064 66.674 187.932 66.968C187.806 67.262 187.743 67.577 187.743 67.913C187.743 68.243 187.806 68.555 187.932 68.849C188.058 69.143 188.229 69.401 188.445 69.623C188.661 69.839 188.91 70.013 189.192 70.145C189.48 70.271 189.783 70.334 190.101 70.334ZM195.053 69.101C195.053 69.467 195.155 69.764 195.359 69.992C195.569 70.22 195.881 70.334 196.295 70.334C196.745 70.334 197.084 70.226 197.312 70.01C197.54 69.788 197.654 69.488 197.654 69.11V64.826L198.536 64.682V68.309C198.536 68.531 198.53 68.756 198.518 68.984C198.512 69.212 198.488 69.431 198.446 69.641C198.41 69.851 198.347 70.049 198.257 70.235C198.173 70.415 198.053 70.574 197.897 70.712C197.741 70.844 197.543 70.949 197.303 71.027C197.069 71.105 196.781 71.144 196.439 71.144C196.013 71.144 195.653 71.102 195.359 71.018C195.071 70.934 194.837 70.796 194.657 70.604C194.483 70.406 194.357 70.151 194.279 69.839C194.207 69.521 194.171 69.131 194.171 68.669V64.826L195.053 64.682V69.101ZM203.003 64.826L203.192 65.636H200.591V67.382H202.67V68.192H200.591V70.19H203.39L203.138 71H199.709V64.826H203.003ZM207.485 64.826V65.636H206.045V71L205.163 71.108V65.636H203.561L203.84 64.826H207.485ZM211.484 64.826V65.636H210.044V71L209.162 71.108V65.636H207.56L207.839 64.826H211.484ZM215.501 64.826L215.69 65.636H213.089V67.382H215.168V68.192H213.089V70.19H215.888L215.636 71H212.207V64.826H215.501ZM109.726 78.913C109.726 79.327 109.654 79.714 109.51 80.074C109.372 80.434 109.177 80.758 108.925 81.046L109.915 82.153L109.222 82.603L108.313 81.586C108.055 81.76 107.77 81.898 107.458 82C107.152 82.096 106.828 82.144 106.486 82.144C106.036 82.144 105.613 82.06 105.217 81.892C104.821 81.724 104.476 81.493 104.182 81.199C103.894 80.905 103.666 80.563 103.498 80.173C103.33 79.783 103.246 79.363 103.246 78.913C103.246 78.469 103.33 78.052 103.498 77.662C103.666 77.266 103.894 76.924 104.182 76.636C104.476 76.342 104.818 76.111 105.208 75.943C105.604 75.769 106.03 75.682 106.486 75.682C106.942 75.682 107.368 75.769 107.764 75.943C108.16 76.111 108.502 76.342 108.79 76.636C109.084 76.924 109.312 77.266 109.474 77.662C109.642 78.052 109.726 78.469 109.726 78.913ZM106.486 81.334C106.93 81.334 107.35 81.205 107.746 80.947L106.972 80.083L107.656 79.642L108.331 80.389C108.493 80.179 108.619 79.948 108.709 79.696C108.799 79.444 108.844 79.183 108.844 78.913C108.844 78.589 108.781 78.28 108.655 77.986C108.529 77.692 108.358 77.437 108.142 77.221C107.932 76.999 107.683 76.822 107.395 76.69C107.107 76.558 106.801 76.492 106.477 76.492C106.159 76.492 105.856 76.558 105.568 76.69C105.286 76.822 105.037 76.999 104.821 77.221C104.611 77.437 104.443 77.692 104.317 77.986C104.191 78.28 104.128 78.589 104.128 78.913C104.128 79.243 104.191 79.555 104.317 79.849C104.443 80.143 104.614 80.401 104.83 80.623C105.046 80.839 105.295 81.013 105.577 81.145C105.865 81.271 106.168 81.334 106.486 81.334ZM111.439 80.101C111.439 80.467 111.541 80.764 111.745 80.992C111.955 81.22 112.267 81.334 112.681 81.334C113.131 81.334 113.47 81.226 113.698 81.01C113.926 80.788 114.04 80.488 114.04 80.11V75.826L114.922 75.682V79.309C114.922 79.531 114.916 79.756 114.904 79.984C114.898 80.212 114.874 80.431 114.832 80.641C114.796 80.851 114.733 81.049 114.643 81.235C114.559 81.415 114.439 81.574 114.283 81.712C114.127 81.844 113.929 81.949 113.689 82.027C113.455 82.105 113.167 82.144 112.825 82.144C112.399 82.144 112.039 82.102 111.745 82.018C111.457 81.934 111.223 81.796 111.043 81.604C110.869 81.406 110.743 81.151 110.665 80.839C110.593 80.521 110.557 80.131 110.557 79.669V75.826L111.439 75.682V80.101ZM119.389 75.826L119.578 76.636H116.977V78.382H119.056V79.192H116.977V81.19H119.776L119.524 82H116.095V75.826H119.389ZM126.925 76.789C126.763 76.675 126.598 76.597 126.43 76.555C126.262 76.513 126.082 76.492 125.89 76.492C125.578 76.492 125.284 76.558 125.008 76.69C124.738 76.822 124.501 76.999 124.297 77.221C124.093 77.443 123.931 77.698 123.811 77.986C123.697 78.268 123.64 78.565 123.64 78.877C123.64 79.201 123.694 79.513 123.802 79.813C123.916 80.107 124.072 80.368 124.27 80.596C124.468 80.818 124.702 80.998 124.972 81.136C125.242 81.268 125.536 81.334 125.854 81.334C126.064 81.334 126.274 81.301 126.484 81.235C126.694 81.163 126.886 81.07 127.06 80.956L126.898 81.919C126.736 81.979 126.568 82.03 126.394 82.072C126.22 82.12 126.04 82.144 125.854 82.144L125.566 82.522L125.584 82.54C125.656 82.516 125.737 82.504 125.827 82.504C125.923 82.504 126.016 82.519 126.106 82.549C126.202 82.579 126.286 82.624 126.358 82.684C126.436 82.744 126.496 82.816 126.538 82.9C126.586 82.984 126.61 83.08 126.61 83.188C126.61 83.464 126.502 83.674 126.286 83.818C126.076 83.962 125.803 84.034 125.467 84.034C125.401 84.034 125.326 84.025 125.242 84.007C125.158 83.995 125.074 83.977 124.99 83.953C124.912 83.929 124.837 83.902 124.765 83.872C124.693 83.848 124.636 83.824 124.594 83.8L124.765 83.44C124.861 83.482 124.957 83.515 125.053 83.539C125.149 83.569 125.245 83.584 125.341 83.584C125.707 83.584 125.89 83.464 125.89 83.224C125.89 83.104 125.842 83.02 125.746 82.972C125.656 82.924 125.56 82.9 125.458 82.9C125.338 82.9 125.227 82.921 125.125 82.963L124.927 82.792L125.44 82.117C125.044 82.063 124.681 81.94 124.351 81.748C124.021 81.55 123.736 81.307 123.496 81.019C123.262 80.725 123.079 80.398 122.947 80.038C122.821 79.678 122.758 79.303 122.758 78.913C122.758 78.523 122.839 78.136 123.001 77.752C123.163 77.362 123.379 77.014 123.649 76.708C123.919 76.402 124.231 76.156 124.585 75.97C124.939 75.778 125.311 75.682 125.701 75.682C125.875 75.682 126.049 75.697 126.223 75.727C126.397 75.751 126.568 75.787 126.736 75.835L126.925 76.789ZM130.504 75.682L133.645 81.964L132.763 82.144L131.71 80.02H129.226L128.182 82.144L127.354 81.964L130.486 75.682H130.504ZM129.595 79.21H131.35L130.468 77.437L129.595 79.21ZM134.751 80.533L135.336 81.307L134.751 82.081L134.166 81.307L134.751 80.533ZM137.256 80.533L137.841 81.307L137.256 82.081L136.671 81.307L137.256 80.533ZM139.761 80.533L140.346 81.307L139.761 82.081L139.176 81.307L139.761 80.533Z" fill="black"/>
<path d="M98.6005 97.826C98.9005 97.826 99.1765 97.871 99.4285 97.961C99.6805 98.045 99.8965 98.168 100.077 98.33C100.263 98.492 100.407 98.684 100.509 98.906C100.611 99.128 100.662 99.374 100.662 99.644C100.662 99.926 100.623 100.19 100.545 100.436C100.467 100.676 100.332 100.886 100.14 101.066C99.9535 101.246 99.7045 101.387 99.3925 101.489C99.0805 101.591 98.6905 101.642 98.2225 101.642H97.7905V104L96.9085 104.108V97.826H98.6005ZM98.5015 100.832C98.6995 100.832 98.8765 100.814 99.0325 100.778C99.1885 100.736 99.3205 100.67 99.4285 100.58C99.5425 100.484 99.6295 100.361 99.6895 100.211C99.7495 100.055 99.7795 99.866 99.7795 99.644C99.7795 99.308 99.6625 99.056 99.4285 98.888C99.2005 98.72 98.8915 98.636 98.5015 98.636H97.7905V100.832H98.5015ZM103.505 97.682L106.646 103.964L105.764 104.144L104.711 102.02H102.227L101.183 104.144L100.355 103.964L103.487 97.682H103.505ZM102.596 101.21H104.351L103.469 99.437L102.596 101.21ZM106.887 97.682L108.678 100.688L109.974 97.682L110.82 97.943L108.048 104.144L107.184 103.955L108.264 101.624L106.023 97.934L106.887 97.682ZM114.564 97.826L114.753 98.636H112.152V100.382H114.231V101.192H112.152V103.19H114.951L114.699 104H111.27V97.826H114.564ZM117.192 97.826C117.468 97.826 117.729 97.865 117.975 97.943C118.221 98.015 118.437 98.129 118.623 98.285C118.809 98.441 118.956 98.636 119.064 98.87C119.172 99.104 119.226 99.38 119.226 99.698C119.226 100.166 119.103 100.529 118.857 100.787C118.611 101.039 118.278 101.213 117.858 101.309L119.721 103.892L118.731 104.144L116.58 101.003H116.562V104L115.68 104.108V97.826H117.192ZM117.21 100.805C117.354 100.805 117.495 100.778 117.633 100.724C117.771 100.67 117.891 100.595 117.993 100.499C118.101 100.403 118.185 100.289 118.245 100.157C118.311 100.019 118.344 99.866 118.344 99.698C118.344 99.512 118.314 99.353 118.254 99.221C118.194 99.083 118.113 98.972 118.011 98.888C117.909 98.804 117.789 98.741 117.651 98.699C117.519 98.657 117.375 98.636 117.219 98.636H116.562V100.805H117.21Z" fill="black"/>
<path d="M128.007 98.564C127.905 98.462 127.77 98.378 127.602 98.312C127.44 98.24 127.263 98.204 127.071 98.204C126.873 98.204 126.687 98.249 126.513 98.339C126.339 98.423 126.18 98.546 126.036 98.708C125.892 98.864 125.766 99.056 125.658 99.284C125.55 99.512 125.469 99.764 125.415 100.04H127.278L127.188 100.517H125.334C125.322 100.583 125.316 100.646 125.316 100.706C125.316 100.766 125.316 100.829 125.316 100.895C125.316 100.943 125.316 100.988 125.316 101.03C125.316 101.072 125.319 101.117 125.325 101.165H127.062L126.972 101.642H125.37C125.466 102.26 125.667 102.746 125.973 103.1C126.285 103.448 126.657 103.622 127.089 103.622C127.269 103.622 127.443 103.589 127.611 103.523C127.779 103.451 127.926 103.358 128.052 103.244L127.971 103.91C127.827 104.012 127.671 104.075 127.503 104.099C127.341 104.129 127.206 104.144 127.098 104.144C126.81 104.144 126.537 104.084 126.279 103.964C126.027 103.844 125.799 103.676 125.595 103.46C125.397 103.244 125.229 102.983 125.091 102.677C124.953 102.371 124.854 102.026 124.794 101.642H123.984L124.074 101.165H124.749C124.743 101.117 124.74 101.072 124.74 101.03C124.74 100.982 124.74 100.937 124.74 100.895C124.74 100.829 124.74 100.766 124.74 100.706C124.746 100.646 124.752 100.583 124.758 100.517H123.984L124.074 100.04H124.821C124.887 99.698 124.989 99.383 125.127 99.095C125.271 98.807 125.442 98.558 125.64 98.348C125.838 98.138 126.06 97.976 126.306 97.862C126.558 97.742 126.825 97.682 127.107 97.682C127.257 97.682 127.407 97.7 127.557 97.736C127.713 97.772 127.833 97.829 127.917 97.907L128.007 98.564Z" fill="black"/>
<path d="M134.737 99.608C134.737 99.848 134.692 100.088 134.602 100.328C134.512 100.568 134.398 100.802 134.26 101.03C134.122 101.252 133.969 101.465 133.801 101.669C133.633 101.873 133.471 102.059 133.315 102.227L132.406 103.19H134.836L134.674 104H130.633L133.099 101.138C133.189 101.036 133.279 100.922 133.369 100.796C133.459 100.67 133.54 100.541 133.612 100.409C133.684 100.271 133.741 100.136 133.783 100.004C133.831 99.866 133.855 99.734 133.855 99.608C133.855 99.26 133.747 98.987 133.531 98.789C133.315 98.591 133.027 98.492 132.667 98.492C132.493 98.492 132.334 98.522 132.19 98.582C132.046 98.642 131.92 98.726 131.812 98.834C131.704 98.936 131.62 99.056 131.56 99.194C131.5 99.332 131.47 99.479 131.47 99.635C131.47 100.031 131.569 100.343 131.767 100.571C131.971 100.793 132.226 100.919 132.532 100.949L131.974 101.651C131.578 101.525 131.26 101.285 131.02 100.931C130.78 100.577 130.66 100.136 130.66 99.608C130.66 99.326 130.711 99.068 130.813 98.834C130.921 98.6 131.068 98.399 131.254 98.231C131.44 98.057 131.659 97.922 131.911 97.826C132.163 97.73 132.439 97.682 132.739 97.682C133.021 97.682 133.282 97.727 133.522 97.817C133.768 97.907 133.981 98.036 134.161 98.204C134.341 98.372 134.482 98.576 134.584 98.816C134.686 99.05 134.737 99.314 134.737 99.608ZM137.749 104.144C137.335 104.144 136.984 104.048 136.696 103.856C136.408 103.658 136.177 103.406 136.003 103.1C135.829 102.788 135.703 102.44 135.625 102.056C135.547 101.666 135.508 101.282 135.508 100.904C135.508 100.676 135.523 100.439 135.553 100.193C135.583 99.947 135.631 99.704 135.697 99.464C135.769 99.224 135.862 98.996 135.976 98.78C136.09 98.564 136.228 98.375 136.39 98.213C136.558 98.051 136.753 97.922 136.975 97.826C137.197 97.73 137.455 97.682 137.749 97.682C138.169 97.682 138.52 97.781 138.802 97.979C139.09 98.177 139.321 98.432 139.495 98.744C139.675 99.056 139.801 99.404 139.873 99.788C139.951 100.172 139.99 100.553 139.99 100.931C139.99 101.273 139.954 101.633 139.882 102.011C139.81 102.383 139.687 102.728 139.513 103.046C139.345 103.364 139.117 103.628 138.829 103.838C138.541 104.042 138.181 104.144 137.749 104.144ZM137.749 103.334C138.199 103.334 138.538 103.127 138.766 102.713C138.994 102.293 139.108 101.693 139.108 100.913C139.108 100.145 138.994 99.551 138.766 99.131C138.544 98.705 138.202 98.492 137.74 98.492C137.32 98.492 136.99 98.693 136.75 99.095C136.51 99.491 136.39 100.097 136.39 100.913C136.39 101.693 136.504 102.293 136.732 102.713C136.96 103.127 137.299 103.334 137.749 103.334ZM142.75 104.144C142.336 104.144 141.985 104.048 141.697 103.856C141.409 103.658 141.178 103.406 141.004 103.1C140.83 102.788 140.704 102.44 140.626 102.056C140.548 101.666 140.509 101.282 140.509 100.904C140.509 100.676 140.524 100.439 140.554 100.193C140.584 99.947 140.632 99.704 140.698 99.464C140.77 99.224 140.863 98.996 140.977 98.78C141.091 98.564 141.229 98.375 141.391 98.213C141.559 98.051 141.754 97.922 141.976 97.826C142.198 97.73 142.456 97.682 142.75 97.682C143.17 97.682 143.521 97.781 143.803 97.979C144.091 98.177 144.322 98.432 144.496 98.744C144.676 99.056 144.802 99.404 144.874 99.788C144.952 100.172 144.991 100.553 144.991 100.931C144.991 101.273 144.955 101.633 144.883 102.011C144.811 102.383 144.688 102.728 144.514 103.046C144.346 103.364 144.118 103.628 143.83 103.838C143.542 104.042 143.182 104.144 142.75 104.144ZM142.75 103.334C143.2 103.334 143.539 103.127 143.767 102.713C143.995 102.293 144.109 101.693 144.109 100.913C144.109 100.145 143.995 99.551 143.767 99.131C143.545 98.705 143.203 98.492 142.741 98.492C142.321 98.492 141.991 98.693 141.751 99.095C141.511 99.491 141.391 100.097 141.391 100.913C141.391 101.693 141.505 102.293 141.733 102.713C141.961 103.127 142.3 103.334 142.75 103.334ZM146.5 102.533L147.085 103.307L146.5 104.081L145.915 103.307L146.5 102.533Z" fill="black"/>
<rect width="30" height="13" transform="translate(107.5 141)" fill="white"/>
<path d="M111.426 145.198C111.659 145.198 111.874 145.233 112.07 145.303C112.266 145.368 112.434 145.464 112.574 145.59C112.719 145.716 112.831 145.865 112.91 146.038C112.989 146.211 113.029 146.402 113.029 146.612C113.029 146.831 112.999 147.037 112.938 147.228C112.877 147.415 112.772 147.578 112.623 147.718C112.478 147.858 112.285 147.968 112.042 148.047C111.799 148.126 111.496 148.166 111.132 148.166H110.796V150L110.11 150.084V145.198H111.426ZM111.349 147.536C111.503 147.536 111.641 147.522 111.762 147.494C111.883 147.461 111.986 147.41 112.07 147.34C112.159 147.265 112.226 147.17 112.273 147.053C112.32 146.932 112.343 146.785 112.343 146.612C112.343 146.351 112.252 146.155 112.07 146.024C111.893 145.893 111.652 145.828 111.349 145.828H110.796V147.536H111.349ZM118.405 147.599C118.405 147.949 118.337 148.278 118.202 148.586C118.071 148.889 117.892 149.155 117.663 149.384C117.439 149.608 117.173 149.785 116.865 149.916C116.562 150.047 116.235 150.112 115.885 150.112C115.53 150.112 115.199 150.047 114.891 149.916C114.588 149.785 114.322 149.606 114.093 149.377C113.869 149.148 113.692 148.882 113.561 148.579C113.43 148.271 113.365 147.944 113.365 147.599C113.365 147.249 113.43 146.922 113.561 146.619C113.696 146.311 113.876 146.045 114.1 145.821C114.329 145.592 114.595 145.413 114.898 145.282C115.206 145.151 115.535 145.086 115.885 145.086C116.24 145.086 116.569 145.154 116.872 145.289C117.18 145.42 117.446 145.599 117.67 145.828C117.899 146.052 118.078 146.318 118.209 146.626C118.34 146.929 118.405 147.254 118.405 147.599ZM115.885 149.482C116.128 149.482 116.359 149.433 116.578 149.335C116.802 149.232 116.998 149.097 117.166 148.929C117.334 148.756 117.467 148.556 117.565 148.327C117.668 148.098 117.719 147.856 117.719 147.599C117.719 147.347 117.67 147.107 117.572 146.878C117.474 146.649 117.341 146.451 117.173 146.283C117.01 146.11 116.816 145.973 116.592 145.87C116.368 145.767 116.13 145.716 115.878 145.716C115.64 145.716 115.409 145.765 115.185 145.863C114.966 145.961 114.772 146.096 114.604 146.269C114.436 146.437 114.301 146.635 114.198 146.864C114.1 147.093 114.051 147.338 114.051 147.599C114.051 147.856 114.1 148.098 114.198 148.327C114.296 148.556 114.429 148.756 114.597 148.929C114.765 149.097 114.959 149.232 115.178 149.335C115.402 149.433 115.638 149.482 115.885 149.482ZM119.765 149.37H121.802L121.522 150H119.079V145.198L119.765 145.086V149.37ZM121.898 145.086L123.291 147.424L124.299 145.086L124.957 145.289L122.801 150.112L122.129 149.965L122.969 148.152L121.226 145.282L121.898 145.086ZM127.547 146.248C127.36 146.043 127.195 145.903 127.05 145.828C126.905 145.753 126.763 145.716 126.623 145.716C126.399 145.716 126.217 145.781 126.077 145.912C125.937 146.043 125.867 146.222 125.867 146.451C125.867 146.558 125.89 146.652 125.937 146.731C125.988 146.806 126.056 146.873 126.14 146.934C126.229 146.995 126.334 147.051 126.455 147.102C126.576 147.149 126.709 147.2 126.854 147.256C127.027 147.321 127.185 147.391 127.33 147.466C127.479 147.541 127.608 147.632 127.715 147.739C127.822 147.846 127.906 147.975 127.967 148.124C128.032 148.269 128.065 148.444 128.065 148.649C128.065 148.868 128.025 149.067 127.946 149.244C127.867 149.421 127.759 149.575 127.624 149.706C127.489 149.837 127.33 149.937 127.148 150.007C126.971 150.077 126.779 150.112 126.574 150.112C126.439 150.112 126.31 150.098 126.189 150.07C126.068 150.047 125.946 150.005 125.825 149.944C125.708 149.883 125.587 149.804 125.461 149.706C125.34 149.603 125.214 149.48 125.083 149.335L125.587 148.915C125.685 149.069 125.813 149.202 125.972 149.314C126.131 149.426 126.308 149.482 126.504 149.482C126.625 149.482 126.737 149.468 126.84 149.44C126.947 149.407 127.041 149.358 127.12 149.293C127.199 149.228 127.262 149.141 127.309 149.034C127.356 148.927 127.379 148.796 127.379 148.642C127.379 148.553 127.346 148.472 127.281 148.397C127.216 148.318 127.134 148.248 127.036 148.187C126.943 148.126 126.845 148.073 126.742 148.026C126.639 147.975 126.551 147.93 126.476 147.893C126.322 147.818 126.168 147.739 126.014 147.655C125.86 147.566 125.72 147.466 125.594 147.354C125.473 147.242 125.372 147.114 125.293 146.969C125.218 146.82 125.181 146.642 125.181 146.437C125.181 146.236 125.216 146.054 125.286 145.891C125.356 145.723 125.454 145.581 125.58 145.464C125.711 145.343 125.867 145.249 126.049 145.184C126.231 145.119 126.434 145.086 126.658 145.086C126.896 145.086 127.136 145.144 127.379 145.261C127.622 145.378 127.832 145.553 128.009 145.786L127.547 146.248ZM129.458 150L128.772 150.056V145.198L129.458 145.086V150ZM135.133 147.599C135.133 147.949 135.065 148.278 134.93 148.586C134.799 148.889 134.619 149.155 134.391 149.384C134.167 149.608 133.901 149.785 133.593 149.916C133.289 150.047 132.963 150.112 132.613 150.112C132.258 150.112 131.927 150.047 131.619 149.916C131.315 149.785 131.049 149.606 130.821 149.377C130.597 149.148 130.419 148.882 130.289 148.579C130.158 148.271 130.093 147.944 130.093 147.599C130.093 147.249 130.158 146.922 130.289 146.619C130.424 146.311 130.604 146.045 130.828 145.821C131.056 145.592 131.322 145.413 131.626 145.282C131.934 145.151 132.263 145.086 132.613 145.086C132.967 145.086 133.296 145.154 133.6 145.289C133.908 145.42 134.174 145.599 134.398 145.828C134.626 146.052 134.806 146.318 134.937 146.626C135.067 146.929 135.133 147.254 135.133 147.599ZM132.613 149.482C132.855 149.482 133.086 149.433 133.306 149.335C133.53 149.232 133.726 149.097 133.894 148.929C134.062 148.756 134.195 148.556 134.293 148.327C134.395 148.098 134.447 147.856 134.447 147.599C134.447 147.347 134.398 147.107 134.3 146.878C134.202 146.649 134.069 146.451 133.901 146.283C133.737 146.11 133.544 145.973 133.32 145.87C133.096 145.767 132.858 145.716 132.606 145.716C132.368 145.716 132.137 145.765 131.913 145.863C131.693 145.961 131.5 146.096 131.332 146.269C131.164 146.437 131.028 146.635 130.926 146.864C130.828 147.093 130.779 147.338 130.779 147.599C130.779 147.856 130.828 148.098 130.926 148.327C131.024 148.556 131.157 148.756 131.325 148.929C131.493 149.097 131.686 149.232 131.906 149.335C132.13 149.433 132.365 149.482 132.613 149.482Z" fill="black"/>
</svg>
