<svg width="186" height="116" viewBox="0 0 186 116" fill="none" xmlns="http://www.w3.org/2000/svg">
<rect x="183.75" y="1.75" width="112" height="182" transform="rotate(90 183.75 1.75)" fill="#634D8B"/>
<rect x="183.75" y="1.75" width="112" height="182" transform="rotate(90 183.75 1.75)" stroke="black" stroke-width="3.5"/>
<rect x="183.75" y="1.75" width="112" height="42" transform="rotate(90 183.75 1.75)" fill="#F7941D" stroke="black" stroke-width="3.5"/>
<path d="M121.668 37.9448C121.668 39.0801 121.443 39.9554 120.992 40.5708C120.541 41.1861 119.848 41.4938 118.912 41.4938C118.661 41.4938 118.414 41.4591 118.171 41.3898C117.937 41.3204 117.72 41.2208 117.521 41.0908C117.322 40.9608 117.144 40.8048 116.988 40.6228C116.841 40.4494 116.728 40.2588 116.65 40.0508L113.257 42.4558L112.542 40.2198L116.754 37.6198V37.5938H112.854L112.646 35.3838H121.668L121.668 37.9448ZM117.287 37.5938C117.278 37.6371 117.274 37.6804 117.274 37.7238C117.274 37.7671 117.274 37.8104 117.274 37.8538C117.274 38.0271 117.291 38.2004 117.326 38.3738C117.369 38.5471 117.439 38.6988 117.534 38.8288C117.638 38.9674 117.772 39.0758 117.937 39.1538C118.11 39.2404 118.327 39.2838 118.587 39.2838C118.899 39.2838 119.163 39.2014 119.38 39.0368C119.597 38.8808 119.727 38.5861 119.77 38.1528C119.779 38.0661 119.783 37.9751 119.783 37.8798C119.783 37.7931 119.783 37.6978 119.783 37.5938H117.287ZM116.26 45.3634C115.714 45.3634 115.294 45.4717 114.999 45.6884C114.713 45.9137 114.57 46.2691 114.57 46.7544C114.57 46.9884 114.596 47.2007 114.648 47.3914C114.709 47.5821 114.813 47.7467 114.96 47.8854C115.116 48.0327 115.328 48.1454 115.597 48.2234C115.866 48.3014 116.212 48.3404 116.637 48.3404H121.668L121.876 50.5504H115.805C115.285 50.5504 114.821 50.4507 114.414 50.2514C114.007 50.0521 113.664 49.7747 113.387 49.4194C113.11 49.0727 112.897 48.6654 112.75 48.1974C112.611 47.7294 112.542 47.2267 112.542 46.6894C112.542 45.5367 112.815 44.6571 113.361 44.0504C113.916 43.4524 114.678 43.1534 115.649 43.1534H121.668L121.876 45.3634H116.26ZM121.668 57.3103L119.783 57.7003V54.4763H118.236V56.7773H116.351V54.4763H114.635V57.9733L112.75 57.4273V52.2663H121.668V57.3103ZM121.668 66.2844C121.668 66.9084 121.551 67.4978 121.317 68.0524C121.092 68.6071 120.78 69.0881 120.381 69.4954C119.982 69.9114 119.51 70.2364 118.964 70.4704C118.418 70.7131 117.833 70.8344 117.209 70.8344C116.559 70.8344 115.961 70.7088 115.415 70.4574C114.869 70.2061 114.397 69.8724 113.998 69.4564C113.608 69.0404 113.3 68.5594 113.075 68.0134C112.858 67.4674 112.75 66.8954 112.75 66.2974V63.1644H121.668V66.2844ZM114.635 65.3744V66.0374C114.635 66.3841 114.7 66.7134 114.83 67.0254C114.96 67.3374 115.142 67.6104 115.376 67.8444C115.61 68.0871 115.883 68.2778 116.195 68.4164C116.507 68.5551 116.845 68.6244 117.209 68.6244C117.547 68.6244 117.868 68.5594 118.171 68.4294C118.483 68.2994 118.756 68.1174 118.99 67.8834C119.233 67.6581 119.423 67.3851 119.562 67.0644C119.709 66.7524 119.783 66.4144 119.783 66.0504V65.3744H114.635ZM116.26 74.3833C115.714 74.3833 115.294 74.4917 114.999 74.7083C114.713 74.9337 114.57 75.289 114.57 75.7743C114.57 76.0083 114.596 76.2207 114.648 76.4113C114.709 76.602 114.813 76.7667 114.96 76.9053C115.116 77.0527 115.328 77.1653 115.597 77.2433C115.866 77.3213 116.212 77.3603 116.637 77.3603H121.668L121.876 79.5703H115.805C115.285 79.5703 114.821 79.4707 114.414 79.2713C114.007 79.072 113.664 78.7947 113.387 78.4393C113.11 78.0927 112.897 77.6853 112.75 77.2173C112.611 76.7493 112.542 76.2467 112.542 75.7093C112.542 74.5567 112.815 73.677 113.361 73.0703C113.916 72.4723 114.678 72.1733 115.649 72.1733H121.668L121.876 74.3833H116.26ZM106.668 24.3814L104.64 24.9144V21.8854H102.729V24.0824H100.844V21.8854H97.75L97.646 19.6754L106.668 19.6754V24.3814ZM106.668 28.1948C106.668 29.3301 106.443 30.2054 105.992 30.8208C105.541 31.4361 104.848 31.7438 103.912 31.7438C103.661 31.7438 103.414 31.7091 103.171 31.6398C102.937 31.5704 102.72 31.4708 102.521 31.3408C102.322 31.2108 102.144 31.0548 101.988 30.8728C101.841 30.6994 101.728 30.5088 101.65 30.3008L98.257 32.7058L97.542 30.4698L101.754 27.8698V27.8438L97.854 27.8438L97.646 25.6338L106.668 25.6338V28.1948ZM102.287 27.8438C102.278 27.8871 102.274 27.9304 102.274 27.9738C102.274 28.0171 102.274 28.0604 102.274 28.1038C102.274 28.2771 102.291 28.4504 102.326 28.6238C102.369 28.7971 102.439 28.9488 102.534 29.0788C102.638 29.2174 102.772 29.3258 102.937 29.4038C103.11 29.4904 103.327 29.5338 103.587 29.5338C103.899 29.5338 104.163 29.4514 104.38 29.2868C104.597 29.1308 104.727 28.8361 104.77 28.4028C104.779 28.3161 104.783 28.2251 104.783 28.1298C104.783 28.0431 104.783 27.9478 104.783 27.8438H102.287ZM106.876 37.0694V37.0954L97.997 41.9054L97.542 39.6564L99.453 38.7464V35.3534L97.542 34.4564L97.997 32.3114L106.876 37.0694ZM101.104 35.8864V38.2524L103.288 37.0694L101.104 35.8864ZM106.876 44.0503V44.0763L101.416 46.8843L106.876 49.7833V49.8093L97.854 52.1753L97.542 49.9523L101.832 49.1853V49.1593L97.542 46.8193V46.7933L101.819 44.6613V44.6353L97.542 43.8683L97.854 41.6063L106.876 44.0503ZM106.668 58.0684L104.783 58.4584V55.2344H103.236V57.5354H101.351V55.2344H99.635V58.7314L97.75 58.1854V53.0244H106.668V58.0684ZM106.876 61.1234L102.326 62.3974L106.876 64.6464L102.261 66.8564L106.876 68.2084L106.616 70.3534L97.542 67.1684V67.1164L102.911 64.6724L97.542 62.0464V62.0074L106.616 58.9394L106.876 61.1234ZM97.542 75.5015C97.542 74.8602 97.659 74.2492 97.893 73.6685C98.1357 73.0965 98.465 72.5939 98.881 72.1605C99.3057 71.7272 99.7997 71.3805 100.363 71.1205C100.935 70.8692 101.55 70.7435 102.209 70.7435C102.85 70.7435 103.453 70.8692 104.016 71.1205C104.588 71.3719 105.082 71.7099 105.498 72.1345C105.923 72.5679 106.256 73.0705 106.499 73.6425C106.75 74.2232 106.876 74.8429 106.876 75.5015C106.876 76.1429 106.755 76.7496 106.512 77.3216C106.278 77.9022 105.949 78.4092 105.524 78.8425C105.108 79.2759 104.614 79.6182 104.042 79.8695C103.479 80.1296 102.868 80.2596 102.209 80.2596C101.568 80.2596 100.961 80.1339 100.389 79.8825C99.8257 79.6312 99.3317 79.2889 98.907 78.8555C98.4823 78.4309 98.1487 77.9282 97.906 77.3475C97.6633 76.7755 97.542 76.1602 97.542 75.5015ZM99.57 75.5015C99.57 75.8482 99.6437 76.1775 99.791 76.4895C99.9383 76.8016 100.133 77.0702 100.376 77.2955C100.619 77.5295 100.9 77.7115 101.221 77.8415C101.542 77.9802 101.871 78.0496 102.209 78.0496C102.547 78.0496 102.872 77.9802 103.184 77.8415C103.505 77.7115 103.786 77.5295 104.029 77.2955C104.28 77.0702 104.48 76.8016 104.627 76.4895C104.774 76.1775 104.848 75.8439 104.848 75.4885C104.848 75.1419 104.774 74.8125 104.627 74.5005C104.48 74.1972 104.285 73.9285 104.042 73.6945C103.799 73.4692 103.518 73.2872 103.197 73.1485C102.885 73.0185 102.556 72.9535 102.209 72.9535C101.871 72.9535 101.542 73.0185 101.221 73.1485C100.9 73.2872 100.619 73.4692 100.376 73.6945C100.133 73.9285 99.9383 74.1972 99.791 74.5005C99.6437 74.8125 99.57 75.1462 99.57 75.5015ZM106.668 83.9947C106.668 85.13 106.443 86.0054 105.992 86.6207C105.541 87.236 104.848 87.5437 103.912 87.5437C103.661 87.5437 103.414 87.509 103.171 87.4397C102.937 87.3704 102.72 87.2707 102.521 87.1407C102.322 87.0107 102.144 86.8547 101.988 86.6727C101.841 86.4994 101.728 86.3087 101.65 86.1007L98.257 88.5057L97.542 86.2697L101.754 83.6697V83.6437H97.854L97.646 81.4337H106.668V83.9947ZM102.287 83.6437C102.278 83.687 102.274 83.7304 102.274 83.7737C102.274 83.817 102.274 83.8604 102.274 83.9037C102.274 84.077 102.291 84.2504 102.326 84.4237C102.369 84.597 102.439 84.7487 102.534 84.8787C102.638 85.0174 102.772 85.1257 102.937 85.2037C103.11 85.2904 103.327 85.3337 103.587 85.3337C103.899 85.3337 104.163 85.2514 104.38 85.0867C104.597 84.9307 104.727 84.636 104.77 84.2027C104.779 84.116 104.783 84.025 104.783 83.9297C104.783 83.843 104.783 83.7477 104.783 83.6437H102.287ZM102.846 91.4653V91.5303L106.876 94.5073L106.291 96.6783L102.417 93.7533L98.127 96.7823L97.542 94.4553L101.975 91.5303V91.4653H97.854L97.646 89.2553H106.668L106.876 91.4653H102.846Z" fill="white"/>
<path d="M24.224 49.4372C24.3973 49.2725 24.5447 49.0689 24.666 48.8262C24.796 48.5835 24.861 48.3149 24.861 48.0202C24.861 47.5782 24.7527 47.2185 24.536 46.9412C24.328 46.6725 24.0723 46.4645 23.769 46.3172L23.769 48.3062L22.599 48.0722L22.599 46.0052L21.962 45.9922L21.962 47.9422L20.792 47.7212L20.792 46.2132C20.4193 46.3519 20.1203 46.5642 19.895 46.8502C19.6697 47.1449 19.557 47.5305 19.557 48.0072C19.557 48.2152 19.6133 48.4579 19.726 48.7352C19.8473 49.0212 20.012 49.2682 20.22 49.4762L17.867 49.2552C17.7457 49.0819 17.6633 48.8652 17.62 48.6052C17.568 48.3539 17.542 48.1155 17.542 47.8902C17.542 47.4309 17.6113 46.9932 17.75 46.5772C17.8973 46.1699 18.1097 45.8015 18.387 45.4722C18.6643 45.1429 19.0023 44.8569 19.401 44.6142C19.8083 44.3715 20.272 44.1895 20.792 44.0682V42.8982L21.962 43.1192V43.9122L22.599 43.9252V42.8982L23.769 43.1322V44.1202C24.7657 44.3975 25.5327 44.8699 26.07 45.5372C26.6073 46.2045 26.876 46.9802 26.876 47.8642C26.876 48.0462 26.8543 48.2455 26.811 48.4622C26.7677 48.6875 26.694 48.8999 26.59 49.0992L24.224 49.4372Z" fill="white"/>
<path d="M23.951 58.945C23.405 58.945 22.8763 58.815 22.365 58.555C21.8623 58.3037 21.3857 57.983 20.935 57.593L19.752 56.592V59.322L17.75 58.854V52.562L21.728 55.812C21.8753 55.9247 22.0313 56.0417 22.196 56.163C22.3693 56.293 22.547 56.4057 22.729 56.501C22.911 56.605 23.0973 56.6873 23.288 56.748C23.4787 56.8173 23.665 56.852 23.847 56.852C24.159 56.852 24.406 56.735 24.588 56.501C24.7787 56.267 24.874 55.9897 24.874 55.669C24.874 55.3917 24.7873 55.1447 24.614 54.928C24.4407 54.72 24.2067 54.616 23.912 54.616C23.6433 54.616 23.4223 54.6767 23.249 54.798C23.0757 54.928 22.9283 55.1187 22.807 55.37L21.182 54.148C21.468 53.654 21.8233 53.2597 22.248 52.965C22.6813 52.6703 23.184 52.523 23.756 52.523C24.2327 52.523 24.6617 52.5967 25.043 52.744C25.4243 52.9 25.7493 53.121 26.018 53.407C26.2953 53.693 26.5077 54.0397 26.655 54.447C26.8023 54.8543 26.876 55.3093 26.876 55.812C26.876 56.2627 26.8067 56.6787 26.668 57.06C26.5293 57.45 26.33 57.7837 26.07 58.061C25.8187 58.3383 25.511 58.555 25.147 58.711C24.7917 58.867 24.393 58.945 23.951 58.945ZM26.668 66.8446L17.854 63.9846L17.542 61.4626L24.666 63.9716V60.3186L26.668 60.8256V66.8446ZM26.668 73.6263L24.666 73.1193L24.666 70.5843H23.886C23.912 70.7749 23.925 70.9396 23.925 71.0783C23.925 71.5289 23.8427 71.9449 23.678 72.3263C23.522 72.7076 23.3053 73.0326 23.028 73.3013C22.7507 73.5786 22.4213 73.7909 22.04 73.9383C21.6673 74.0943 21.26 74.1723 20.818 74.1723C20.324 74.1723 19.8733 74.0813 19.466 73.8993C19.0673 73.7173 18.725 73.4616 18.439 73.1323C18.153 72.8116 17.932 72.4303 17.776 71.9883C17.62 71.5549 17.542 71.0869 17.542 70.5843C17.542 69.9863 17.6373 69.4273 17.828 68.9073C18.0187 68.3959 18.322 67.9323 18.738 67.5163L20.311 69.0633C20.0423 69.2366 19.8473 69.4576 19.726 69.7263C19.6047 70.0036 19.544 70.2939 19.544 70.5973C19.544 70.7706 19.5743 70.9353 19.635 71.0913C19.7043 71.2473 19.7997 71.3859 19.921 71.5073C20.051 71.6286 20.1983 71.7239 20.363 71.7933C20.5363 71.8626 20.727 71.8973 20.935 71.8973C21.3337 71.8973 21.65 71.7413 21.884 71.4293C22.118 71.1259 22.235 70.7273 22.235 70.2333C22.235 69.9299 22.2003 69.6309 22.131 69.3363C22.0703 69.0503 21.988 68.7686 21.884 68.4913H26.668L26.668 73.6263Z" fill="white"/>
</svg>
