<svg width="116" height="186" viewBox="0 0 116 186" fill="none" xmlns="http://www.w3.org/2000/svg">
<rect x="1.75" y="1.75" width="112" height="182" fill="#634D8B"/>
<rect x="1.75" y="1.75" width="112" height="182" stroke="black" stroke-width="3.5"/>
<path d="M27.7902 28.35C27.7902 29.19 27.9568 29.8367 28.2902 30.29C28.6368 30.73 29.1835 30.95 29.9302 30.95C30.2902 30.95 30.6168 30.91 30.9102 30.83C31.2035 30.7367 31.4568 30.5767 31.6702 30.35C31.8968 30.11 32.0702 29.7833 32.1902 29.37C32.3102 28.9567 32.3702 28.4233 32.3702 27.77V20.03L35.7702 19.71V29.05C35.7702 29.85 35.6168 30.5633 35.3102 31.19C35.0035 31.8167 34.5768 32.3433 34.0302 32.77C33.4968 33.1967 32.8702 33.5233 32.1502 33.75C31.4302 33.9633 30.6568 34.07 29.8302 34.07C28.0568 34.07 26.7035 33.65 25.7702 32.81C24.8502 31.9567 24.3902 30.7833 24.3902 29.29L24.3902 20.03L27.7902 19.71L27.7902 28.35ZM41.83 20.03C43.5767 20.03 44.9233 20.3767 45.87 21.07C46.8167 21.7633 47.29 22.83 47.29 24.27C47.29 24.6567 47.2367 25.0367 47.13 25.41C47.0233 25.77 46.87 26.1033 46.67 26.41C46.47 26.7167 46.23 26.99 45.95 27.23C45.6833 27.4567 45.39 27.63 45.07 27.75L48.77 32.97L45.33 34.07L41.33 27.59H41.29V33.59L37.89 33.91V20.03H41.83ZM41.29 26.77C41.3567 26.7833 41.4233 26.79 41.49 26.79C41.5567 26.79 41.6233 26.79 41.69 26.79C41.9567 26.79 42.2233 26.7633 42.49 26.71C42.7567 26.6433 42.99 26.5367 43.19 26.39C43.4033 26.23 43.57 26.0233 43.69 25.77C43.8233 25.5033 43.89 25.17 43.89 24.77C43.89 24.29 43.7633 23.8833 43.51 23.55C43.27 23.2167 42.8167 23.0167 42.15 22.95C42.0167 22.9367 41.8767 22.93 41.73 22.93C41.5967 22.93 41.45 22.93 41.29 22.93V26.77ZM57.0233 23.65C56.5966 23.2633 56.2033 22.9967 55.8433 22.85C55.4833 22.69 55.1299 22.61 54.7833 22.61C54.3166 22.61 53.9166 22.7033 53.5833 22.89C53.2499 23.0767 53.0833 23.3433 53.0833 23.69C53.0833 23.9033 53.1366 24.09 53.2433 24.25C53.3633 24.3967 53.5233 24.53 53.7233 24.65C53.9233 24.7567 54.1566 24.8567 54.4233 24.95C54.6899 25.0433 54.9699 25.1367 55.2633 25.23C55.7033 25.3767 56.1566 25.5433 56.6233 25.73C57.1033 25.9033 57.5299 26.1433 57.9033 26.45C58.2899 26.7567 58.6033 27.1567 58.8433 27.65C59.0966 28.13 59.2233 28.7433 59.2233 29.49C59.2233 30.2767 59.0766 30.9567 58.7833 31.53C58.5033 32.1033 58.1166 32.5833 57.6233 32.97C57.1433 33.3433 56.5833 33.6167 55.9433 33.79C55.3166 33.9767 54.6566 34.07 53.9633 34.07C53.0699 34.07 52.2099 33.9367 51.3833 33.67C50.5699 33.4033 49.8433 32.9967 49.2033 32.45L51.2433 29.85C51.5366 30.1967 51.9099 30.47 52.3633 30.67C52.8166 30.8567 53.2766 30.95 53.7433 30.95C54.2499 30.95 54.6899 30.8433 55.0633 30.63C55.4366 30.4167 55.6233 30.1167 55.6233 29.73C55.6233 29.4767 55.5433 29.27 55.3833 29.11C55.2233 28.9367 55.0099 28.79 54.7433 28.67C54.4899 28.5367 54.1899 28.4167 53.8433 28.31C53.4966 28.2033 53.1433 28.09 52.7833 27.97C52.3833 27.8367 51.9833 27.67 51.5833 27.47C51.1966 27.27 50.8433 27.0167 50.5233 26.71C50.2166 26.4033 49.9633 26.03 49.7633 25.59C49.5766 25.1367 49.4833 24.59 49.4833 23.95C49.4833 23.31 49.6166 22.73 49.8833 22.21C50.1499 21.69 50.5099 21.25 50.9633 20.89C51.4166 20.5167 51.9433 20.23 52.5433 20.03C53.1566 19.8167 53.8033 19.71 54.4833 19.71C55.2833 19.71 56.0633 19.85 56.8233 20.13C57.5833 20.3967 58.2699 20.7833 58.8833 21.29L57.0233 23.65ZM66.7966 19.71H66.8366L74.2366 33.37L70.7766 34.07L69.3766 31.13H64.1566L62.7766 34.07L59.4766 33.37L66.7966 19.71ZM64.9766 28.59H68.6166L66.7966 25.23L64.9766 28.59ZM82.2164 20.03L83.0364 23.15L78.3764 23.15V26.09L81.7564 26.09V28.99H78.3764V33.75L74.9764 33.91V20.03L82.2164 20.03ZM91.5031 20.03L92.3231 23.15H87.6631V26.09H91.0431V28.99L87.6631 28.99V33.75L84.2631 33.91V20.03H91.5031Z" fill="white"/>
<path d="M24.656 154.832C25.852 154.832 26.7447 155.057 27.334 155.508C27.9233 155.959 28.218 156.687 28.218 157.692C28.218 158.134 28.1313 158.528 27.958 158.875C27.7847 159.222 27.5463 159.521 27.243 159.772C26.9483 160.015 26.5973 160.201 26.19 160.331C25.7913 160.461 25.3667 160.526 24.916 160.526H24.11V163.646L21.9 163.854L21.9 154.832H24.656ZM24.11 158.641H24.76C25.15 158.641 25.4533 158.559 25.67 158.394C25.8953 158.229 26.008 157.991 26.008 157.679C26.008 157.367 25.8953 157.129 25.67 156.964C25.4533 156.799 25.15 156.717 24.76 156.717H24.11V158.641ZM32.4557 154.624H32.4817L37.2917 163.503L35.0427 163.958L34.1327 162.047H30.7397L29.8427 163.958L27.6977 163.503L32.4557 154.624ZM31.2727 160.396H33.6387L32.4557 158.212L31.2727 160.396ZM38.1797 154.624L40.4547 158.225L41.8977 154.624L43.9907 155.274L40.2597 163.958L37.9717 163.672L39.4017 160.591L36.1127 155.469L38.1797 154.624ZM49.8493 154.832L50.2393 156.717H47.0153V158.264H49.3163V160.149H47.0153V161.865H50.5123L49.9663 163.75H44.8053V154.832H49.8493ZM54.0483 154.832C55.1836 154.832 56.059 155.057 56.6743 155.508C57.2896 155.959 57.5973 156.652 57.5973 157.588C57.5973 157.839 57.5626 158.086 57.4933 158.329C57.424 158.563 57.3243 158.78 57.1943 158.979C57.0643 159.178 56.9083 159.356 56.7263 159.512C56.553 159.659 56.3623 159.772 56.1543 159.85L58.5593 163.243L56.3233 163.958L53.7233 159.746H53.6973V163.646L51.4873 163.854V154.832H54.0483ZM53.6973 159.213C53.7406 159.222 53.784 159.226 53.8273 159.226C53.8706 159.226 53.914 159.226 53.9573 159.226C54.1306 159.226 54.304 159.209 54.4773 159.174C54.6506 159.131 54.8023 159.061 54.9323 158.966C55.071 158.862 55.1793 158.728 55.2573 158.563C55.344 158.39 55.3873 158.173 55.3873 157.913C55.3873 157.601 55.305 157.337 55.1403 157.12C54.9843 156.903 54.6896 156.773 54.2563 156.73C54.1696 156.721 54.0786 156.717 53.9833 156.717C53.8966 156.717 53.8013 156.717 53.6973 156.717V159.213Z" fill="white"/>
<path d="M69.4372 157.276C69.2725 157.103 69.0689 156.955 68.8262 156.834C68.5835 156.704 68.3149 156.639 68.0202 156.639C67.5782 156.639 67.2185 156.747 66.9412 156.964C66.6725 157.172 66.4645 157.428 66.3172 157.731H68.3062L68.0722 158.901H66.0052L65.9922 159.538H67.9422L67.7212 160.708H66.2132C66.3519 161.081 66.5642 161.38 66.8502 161.605C67.1449 161.83 67.5305 161.943 68.0072 161.943C68.2152 161.943 68.4579 161.887 68.7352 161.774C69.0212 161.653 69.2682 161.488 69.4762 161.28L69.2552 163.633C69.0819 163.754 68.8652 163.837 68.6052 163.88C68.3539 163.932 68.1155 163.958 67.8902 163.958C67.4309 163.958 66.9932 163.889 66.5772 163.75C66.1699 163.603 65.8015 163.39 65.4722 163.113C65.1429 162.836 64.8569 162.498 64.6142 162.099C64.3715 161.692 64.1895 161.228 64.0682 160.708H62.8982L63.1192 159.538H63.9122L63.9252 158.901H62.8982L63.1322 157.731H64.1202C64.3975 156.734 64.8699 155.967 65.5372 155.43C66.2045 154.893 66.9802 154.624 67.8642 154.624C68.0462 154.624 68.2455 154.646 68.4622 154.689C68.6875 154.732 68.8999 154.806 69.0992 154.91L69.4372 157.276Z" fill="white"/>
<path d="M76.32 154.624V163.75L74.227 163.958V157.887L72.719 158.615L71.978 157.328L76.32 154.624ZM85.0126 154.832L84.5056 156.834H81.9706V157.614C82.1613 157.588 82.326 157.575 82.4646 157.575C82.9153 157.575 83.3313 157.657 83.7126 157.822C84.094 157.978 84.419 158.195 84.6876 158.472C84.965 158.749 85.1773 159.079 85.3246 159.46C85.4806 159.833 85.5586 160.24 85.5586 160.682C85.5586 161.176 85.4676 161.627 85.2856 162.034C85.1036 162.433 84.848 162.775 84.5186 163.061C84.198 163.347 83.8166 163.568 83.3746 163.724C82.9413 163.88 82.4733 163.958 81.9706 163.958C81.3726 163.958 80.8136 163.863 80.2936 163.672C79.7823 163.481 79.3186 163.178 78.9026 162.762L80.4496 161.189C80.623 161.458 80.844 161.653 81.1126 161.774C81.39 161.895 81.6803 161.956 81.9836 161.956C82.157 161.956 82.3216 161.926 82.4776 161.865C82.6336 161.796 82.7723 161.7 82.8936 161.579C83.015 161.449 83.1103 161.302 83.1796 161.137C83.249 160.964 83.2836 160.773 83.2836 160.565C83.2836 160.166 83.1276 159.85 82.8156 159.616C82.5123 159.382 82.1136 159.265 81.6196 159.265C81.3163 159.265 81.0173 159.3 80.7226 159.369C80.4366 159.43 80.155 159.512 79.8776 159.616V154.832H85.0126ZM93.3803 159.291C93.3803 159.976 93.3109 160.604 93.1723 161.176C93.0423 161.748 92.8386 162.242 92.5613 162.658C92.2926 163.065 91.9503 163.386 91.5343 163.62C91.1183 163.845 90.6286 163.958 90.0653 163.958C89.5106 163.958 89.0296 163.845 88.6223 163.62C88.2149 163.386 87.8726 163.065 87.5953 162.658C87.3266 162.251 87.1229 161.761 86.9843 161.189C86.8543 160.617 86.7893 159.984 86.7893 159.291C86.7893 158.598 86.8543 157.965 86.9843 157.393C87.1229 156.821 87.3266 156.331 87.5953 155.924C87.8726 155.508 88.2149 155.187 88.6223 154.962C89.0296 154.737 89.5106 154.624 90.0653 154.624C90.6199 154.624 91.1053 154.737 91.5213 154.962C91.9373 155.187 92.2839 155.508 92.5613 155.924C92.8386 156.331 93.0423 156.821 93.1723 157.393C93.3109 157.965 93.3803 158.598 93.3803 159.291ZM90.0653 161.956C90.4639 161.956 90.7673 161.739 90.9753 161.306C91.1833 160.873 91.2873 160.201 91.2873 159.291C91.2873 158.381 91.1833 157.709 90.9753 157.276C90.7759 156.843 90.4683 156.626 90.0523 156.626C89.2723 156.626 88.8823 157.514 88.8823 159.291C88.8823 160.227 88.9819 160.907 89.1813 161.332C89.3806 161.748 89.6753 161.956 90.0653 161.956Z" fill="white"/>
<path d="M57.75 88.75L65.75 96.75L57.75 104.75L49.75 96.75L57.75 88.75Z" stroke="white" stroke-width="2"/>
<path d="M57.75 92.75L61.75 96.75L57.75 100.75L53.75 96.75L57.75 92.75Z" fill="white"/>
</svg>
