<svg width="116" height="186" viewBox="0 0 116 186" fill="none" xmlns="http://www.w3.org/2000/svg">
<rect x="113.75" y="183.75" width="112" height="182" transform="rotate(180 113.75 183.75)" fill="#634D8B"/>
<rect x="113.75" y="183.75" width="112" height="182" transform="rotate(180 113.75 183.75)" stroke="black" stroke-width="3.5"/>
<rect x="113.75" y="183.75" width="112" height="42" transform="rotate(180 113.75 183.75)" fill="#FEF200" stroke="black" stroke-width="3.5"/>
<path d="M84.0812 121.668C82.8852 121.668 81.9926 121.443 81.4032 120.992C80.8139 120.541 80.5192 119.813 80.5192 118.808C80.5192 118.366 80.6059 117.972 80.7792 117.625C80.9526 117.278 81.1909 116.979 81.4942 116.728C81.7889 116.485 82.1399 116.299 82.5472 116.169C82.9459 116.039 83.3706 115.974 83.8212 115.974H84.6272V112.854L86.8372 112.646V121.668H84.0812ZM84.6272 117.859H83.9772C83.5872 117.859 83.2839 117.941 83.0672 118.106C82.8419 118.271 82.7292 118.509 82.7292 118.821C82.7292 119.133 82.8419 119.371 83.0672 119.536C83.2839 119.701 83.5872 119.783 83.9772 119.783H84.6272V117.859ZM76.9746 114.778H74.0496L74.6346 112.75H79.1846V121.668L76.9746 121.876V114.778ZM69.4042 121.876H69.3782L64.5682 112.997L66.8172 112.542L67.7272 114.453H71.1202L72.0172 112.542L74.1622 112.997L69.4042 121.876ZM70.5872 116.104H68.2212L69.4042 118.288L70.5872 116.104ZM57.9383 119.211C58.181 119.384 58.4367 119.532 58.7053 119.653C58.974 119.783 59.26 119.848 59.5633 119.848C59.936 119.848 60.2827 119.783 60.6033 119.653C60.9153 119.532 61.184 119.354 61.4093 119.12C61.6347 118.895 61.8123 118.622 61.9423 118.301C62.0723 117.98 62.1373 117.625 62.1373 117.235C62.1373 116.836 62.0767 116.472 61.9553 116.143C61.8253 115.822 61.6477 115.545 61.4223 115.311C61.197 115.077 60.9283 114.895 60.6163 114.765C60.2957 114.635 59.9447 114.57 59.5633 114.57C59.26 114.57 58.9697 114.635 58.6923 114.765C58.4063 114.904 58.1377 115.06 57.8863 115.233L58.1593 112.867C58.246 112.815 58.3587 112.772 58.4973 112.737C58.636 112.694 58.7833 112.659 58.9393 112.633C59.0867 112.607 59.234 112.585 59.3813 112.568C59.52 112.551 59.6327 112.542 59.7193 112.542C60.3953 112.542 61.0193 112.655 61.5913 112.88C62.1547 113.105 62.6443 113.422 63.0603 113.829C63.4677 114.236 63.784 114.722 64.0093 115.285C64.2347 115.857 64.3473 116.49 64.3473 117.183C64.3473 117.842 64.2347 118.457 64.0093 119.029C63.784 119.601 63.4677 120.099 63.0603 120.524C62.653 120.949 62.1677 121.278 61.6043 121.512C61.0323 121.755 60.4083 121.876 59.7323 121.876C59.4723 121.876 59.221 121.854 58.9783 121.811C58.7357 121.768 58.5017 121.694 58.2763 121.59L57.9383 119.211ZM51.2997 121.668L50.9097 119.783H54.1337V118.236H51.8327V116.351H54.1337V114.635H50.6367L51.1827 112.75H56.3437V121.668H51.2997ZM42.3256 121.668C41.7016 121.668 41.1122 121.551 40.5576 121.317C40.0029 121.092 39.5219 120.78 39.1146 120.381C38.6986 119.982 38.3736 119.51 38.1396 118.964C37.8969 118.418 37.7756 117.833 37.7756 117.209C37.7756 116.559 37.9012 115.961 38.1526 115.415C38.4039 114.869 38.7376 114.397 39.1536 113.998C39.5696 113.608 40.0506 113.3 40.5966 113.075C41.1426 112.858 41.7146 112.75 42.3126 112.75H45.4456V121.668H42.3256ZM43.2356 114.635H42.5726C42.2259 114.635 41.8966 114.7 41.5846 114.83C41.2726 114.96 40.9996 115.142 40.7656 115.376C40.5229 115.61 40.3322 115.883 40.1936 116.195C40.0549 116.507 39.9856 116.845 39.9856 117.209C39.9856 117.547 40.0506 117.868 40.1806 118.171C40.3106 118.483 40.4926 118.756 40.7266 118.99C40.9519 119.233 41.2249 119.423 41.5456 119.562C41.8576 119.709 42.1956 119.783 42.5596 119.783H43.2356V114.635ZM34.2267 116.26C34.2267 115.714 34.1183 115.294 33.9017 114.999C33.6763 114.713 33.321 114.57 32.8357 114.57C32.6017 114.57 32.3893 114.596 32.1987 114.648C32.008 114.709 31.8433 114.813 31.7047 114.96C31.5573 115.116 31.4447 115.328 31.3667 115.597C31.2887 115.866 31.2497 116.212 31.2497 116.637V121.668L29.0397 121.876V115.805C29.0397 115.285 29.1393 114.821 29.3387 114.414C29.538 114.007 29.8153 113.664 30.1707 113.387C30.5173 113.11 30.9247 112.897 31.3927 112.75C31.8607 112.611 32.3633 112.542 32.9007 112.542C34.0533 112.542 34.933 112.815 35.5397 113.361C36.1377 113.916 36.4367 114.678 36.4367 115.649V121.668L34.2267 121.876V116.26ZM69.9188 104.029C70.2048 104.289 70.5298 104.488 70.8938 104.627C71.2491 104.774 71.6218 104.848 72.0118 104.848C72.4104 104.848 72.7744 104.779 73.1038 104.64C73.4244 104.51 73.7018 104.324 73.9358 104.081C74.1698 103.847 74.3518 103.57 74.4818 103.249C74.6118 102.928 74.6768 102.582 74.6768 102.209C74.6768 101.81 74.6074 101.446 74.4688 101.117C74.3214 100.796 74.1221 100.519 73.8708 100.285C73.6194 100.06 73.3204 99.882 72.9738 99.752C72.6271 99.6307 72.2501 99.57 71.8428 99.57C71.5654 99.57 71.3098 99.6003 71.0758 99.661C70.8331 99.7217 70.6641 99.7997 70.5688 99.895V101.182H72.8828L72.2458 103.067H68.3588V98.452C68.6101 98.3047 68.8918 98.1747 69.2038 98.062C69.5071 97.9493 69.8278 97.854 70.1658 97.776C70.4951 97.698 70.8288 97.6417 71.1668 97.607C71.4961 97.5637 71.8168 97.542 72.1288 97.542C72.7701 97.542 73.3811 97.659 73.9618 97.893C74.5338 98.1357 75.0364 98.465 75.4698 98.881C75.9031 99.3057 76.2498 99.7997 76.5098 100.363C76.7611 100.935 76.8868 101.55 76.8868 102.209C76.8868 102.859 76.7611 103.466 76.5098 104.029C76.2584 104.601 75.9161 105.095 75.4828 105.511C75.0494 105.936 74.5468 106.269 73.9748 106.512C73.3941 106.755 72.7788 106.876 72.1288 106.876C71.7041 106.876 71.3098 106.833 70.9458 106.746C70.5818 106.668 70.2524 106.568 69.9578 106.447C69.6631 106.326 69.4031 106.191 69.1778 106.044C68.9524 105.897 68.7661 105.758 68.6188 105.628L69.9188 104.029ZM64.3719 106.668C63.2366 106.668 62.3613 106.443 61.7459 105.992C61.1306 105.541 60.8229 104.848 60.8229 103.912C60.8229 103.661 60.8576 103.414 60.9269 103.171C60.9963 102.937 61.0959 102.72 61.2259 102.521C61.3559 102.322 61.5119 102.144 61.6939 101.988C61.8673 101.841 62.0579 101.728 62.2659 101.65L59.8609 98.257L62.0969 97.542L64.6969 101.754H64.7229V97.854L66.9329 97.646V106.668H64.3719ZM64.7229 102.287C64.6796 102.278 64.6363 102.274 64.5929 102.274C64.5496 102.274 64.5063 102.274 64.4629 102.274C64.2896 102.274 64.1163 102.291 63.9429 102.326C63.7696 102.369 63.6179 102.439 63.4879 102.534C63.3493 102.638 63.2409 102.772 63.1629 102.937C63.0763 103.11 63.0329 103.327 63.0329 103.587C63.0329 103.899 63.1153 104.163 63.2799 104.38C63.4359 104.597 63.7306 104.727 64.1639 104.77C64.2506 104.779 64.3416 104.783 64.4369 104.783C64.5236 104.783 64.6189 104.783 64.7229 104.783V102.287ZM54.0673 106.668L53.6773 104.783H56.9013V103.236H54.6003V101.351H56.9013V99.635H53.4043L53.9503 97.75H59.1113V106.668H54.0673ZM46.4103 106.668V104.64H48.5553V97.854L50.7653 97.646V104.64H53.0533L52.4943 106.668H46.4103ZM42.6821 106.876H42.6561L37.8461 97.997L40.0951 97.542L41.0051 99.453H44.3981L45.2951 97.542L47.4401 97.997L42.6821 106.876ZM43.8651 101.104H41.4991L42.6821 103.288L43.8651 101.104Z" fill="white"/>
<path d="M66.0628 24.224C66.2275 24.3973 66.4311 24.5447 66.6738 24.666C66.9165 24.796 67.1851 24.861 67.4798 24.861C67.9218 24.861 68.2815 24.7527 68.5588 24.536C68.8275 24.328 69.0355 24.0723 69.1828 23.769H67.1938L67.4278 22.599H69.4948L69.5078 21.962H67.5578L67.7788 20.792H69.2868C69.1481 20.4193 68.9358 20.1203 68.6498 19.895C68.3551 19.6697 67.9695 19.557 67.4928 19.557C67.2848 19.557 67.0421 19.6133 66.7648 19.726C66.4788 19.8473 66.2318 20.012 66.0238 20.22L66.2448 17.867C66.4181 17.7457 66.6348 17.6633 66.8948 17.62C67.1461 17.568 67.3845 17.542 67.6098 17.542C68.0691 17.542 68.5068 17.6113 68.9228 17.75C69.3301 17.8973 69.6985 18.1097 70.0278 18.387C70.3571 18.6643 70.6431 19.0023 70.8858 19.401C71.1285 19.8083 71.3105 20.272 71.4318 20.792H72.6018L72.3808 21.962H71.5878L71.5748 22.599H72.6018L72.3678 23.769H71.3798C71.1025 24.7657 70.6301 25.5327 69.9628 26.07C69.2955 26.6073 68.5198 26.876 67.6358 26.876C67.4538 26.876 67.2545 26.8543 67.0378 26.811C66.8125 26.7677 66.6001 26.694 66.4008 26.59L66.0628 24.224Z" fill="white"/>
<path d="M56.906 24.263C56.906 23.873 56.9797 23.5437 57.127 23.275C57.2657 23.0063 57.478 22.7463 57.764 22.495C57.374 22.2957 57.0663 22.0053 56.841 21.624C56.6157 21.2513 56.503 20.844 56.503 20.402C56.503 19.9427 56.5897 19.5353 56.763 19.18C56.9363 18.8333 57.179 18.5343 57.491 18.283C57.7943 18.0403 58.1627 17.8583 58.596 17.737C59.0207 17.607 59.4887 17.542 60 17.542C60.5807 17.542 61.144 17.6677 61.69 17.919C62.2273 18.179 62.691 18.53 63.081 18.972L61.612 20.454C61.3867 20.168 61.157 19.9427 60.923 19.778C60.6803 19.622 60.377 19.544 60.013 19.544C59.623 19.544 59.3197 19.6393 59.103 19.83C58.8863 20.0293 58.778 20.298 58.778 20.636C58.778 21.078 58.999 21.3597 59.441 21.481C59.5537 21.5157 59.6793 21.533 59.818 21.533C59.9567 21.5417 60.1083 21.546 60.273 21.546H60.923V23.106H60.39C60.1907 23.106 60.0087 23.119 59.844 23.145C59.6707 23.171 59.5233 23.2187 59.402 23.288C59.272 23.366 59.1723 23.4657 59.103 23.587C59.0337 23.7083 58.999 23.86 58.999 24.042C58.999 24.406 59.1117 24.666 59.337 24.822C59.5623 24.978 59.818 25.056 60.104 25.056C60.416 25.056 60.6717 24.9737 60.871 24.809C61.0703 24.653 61.2783 24.4797 61.495 24.289L63.042 25.173C62.678 25.745 62.21 26.1697 61.638 26.447C61.066 26.733 60.455 26.876 59.805 26.876C59.3803 26.876 58.9903 26.811 58.635 26.681C58.2797 26.551 57.9763 26.369 57.725 26.135C57.465 25.9097 57.2657 25.6367 57.127 25.316C56.9797 24.9953 56.906 24.6443 56.906 24.263ZM49.4874 26.668L49.9944 24.666H52.5294V23.886C52.3387 23.912 52.174 23.925 52.0354 23.925C51.5847 23.925 51.1687 23.8427 50.7874 23.678C50.406 23.522 50.081 23.3053 49.8124 23.028C49.535 22.7507 49.3227 22.4213 49.1754 22.04C49.0194 21.6673 48.9414 21.26 48.9414 20.818C48.9414 20.324 49.0324 19.8733 49.2144 19.466C49.3964 19.0673 49.652 18.725 49.9814 18.439C50.302 18.153 50.6834 17.932 51.1254 17.776C51.5587 17.62 52.0267 17.542 52.5294 17.542C53.1274 17.542 53.6864 17.6373 54.2064 17.828C54.7177 18.0187 55.1814 18.322 55.5974 18.738L54.0504 20.311C53.877 20.0423 53.656 19.8473 53.3874 19.726C53.11 19.6047 52.8197 19.544 52.5164 19.544C52.343 19.544 52.1784 19.5743 52.0224 19.635C51.8664 19.7043 51.7277 19.7997 51.6064 19.921C51.485 20.051 51.3897 20.1983 51.3204 20.363C51.251 20.5363 51.2164 20.727 51.2164 20.935C51.2164 21.3337 51.3724 21.65 51.6844 21.884C51.9877 22.118 52.3864 22.235 52.8804 22.235C53.1837 22.235 53.4827 22.2003 53.7774 22.131C54.0634 22.0703 54.345 21.988 54.6224 21.884V26.668H49.4874ZM41.1197 22.209C41.1197 21.5243 41.1891 20.896 41.3277 20.324C41.4577 19.752 41.6614 19.258 41.9387 18.842C42.2074 18.4347 42.5497 18.114 42.9657 17.88C43.3817 17.6547 43.8714 17.542 44.4347 17.542C44.9894 17.542 45.4704 17.6547 45.8777 17.88C46.2851 18.114 46.6274 18.4347 46.9047 18.842C47.1734 19.2493 47.3771 19.739 47.5157 20.311C47.6457 20.883 47.7107 21.5157 47.7107 22.209C47.7107 22.9023 47.6457 23.535 47.5157 24.107C47.3771 24.679 47.1734 25.1687 46.9047 25.576C46.6274 25.992 46.2851 26.3127 45.8777 26.538C45.4704 26.7633 44.9894 26.876 44.4347 26.876C43.8801 26.876 43.3947 26.7633 42.9787 26.538C42.5627 26.3127 42.2161 25.992 41.9387 25.576C41.6614 25.1687 41.4577 24.679 41.3277 24.107C41.1891 23.535 41.1197 22.9023 41.1197 22.209ZM44.4347 19.544C44.0361 19.544 43.7327 19.7607 43.5247 20.194C43.3167 20.6273 43.2127 21.299 43.2127 22.209C43.2127 23.119 43.3167 23.7907 43.5247 24.224C43.7241 24.6573 44.0317 24.874 44.4477 24.874C45.2277 24.874 45.6177 23.9857 45.6177 22.209C45.6177 21.273 45.5181 20.5927 45.3187 20.168C45.1194 19.752 44.8247 19.544 44.4347 19.544Z" fill="white"/>
</svg>
