<svg width="186" height="116" viewBox="0 0 186 116" fill="none" xmlns="http://www.w3.org/2000/svg">
<rect x="1.75" y="113.75" width="112" height="182" transform="rotate(-90 1.75 113.75)" fill="#634D8B"/>
<rect x="1.75" y="113.75" width="112" height="182" transform="rotate(-90 1.75 113.75)" stroke="black" stroke-width="3.5"/>
<rect x="1.75" y="113.75" width="112" height="42" transform="rotate(-90 1.75 113.75)" fill="#0072BB" stroke="black" stroke-width="3.5"/>
<path d="M63.624 97.0912V97.0652L72.503 92.2552L72.958 94.5042L71.047 95.4142V98.8072L72.958 99.7042L72.503 101.849L63.624 97.0912ZM69.396 98.2742V95.9082L67.212 97.0912L69.396 98.2742ZM63.624 91.6417L68.356 89.9257V89.8997L63.624 88.1577L64.053 85.9217L72.958 89.9777V90.0037L64.053 93.8907L63.624 91.6417ZM63.832 80.18L65.717 79.79V83.014H67.264V80.713H69.149V83.014H70.865V79.517L72.75 80.063V85.224H63.832V80.18ZM63.624 78.373V78.347L68.616 72.51H63.832L63.624 70.3H72.958V70.326L67.862 76.163H72.646L72.854 78.373H63.624ZM69.24 66.4042C69.786 66.4042 70.2063 66.2959 70.501 66.0792C70.787 65.8539 70.93 65.4985 70.93 65.0132C70.93 64.7792 70.904 64.5669 70.852 64.3762C70.7913 64.1855 70.6873 64.0209 70.54 63.8822C70.384 63.7349 70.1717 63.6222 69.903 63.5442C69.6343 63.4662 69.2877 63.4272 68.863 63.4272H63.832L63.624 61.2172H69.695C70.215 61.2172 70.6787 61.3169 71.086 61.5162C71.4933 61.7155 71.8357 61.9929 72.113 62.3482C72.3903 62.6949 72.6027 63.1022 72.75 63.5702C72.8887 64.0382 72.958 64.5409 72.958 65.0782C72.958 66.2309 72.685 67.1105 72.139 67.7172C71.5843 68.3152 70.8217 68.6142 69.851 68.6142H63.832L63.624 66.4042H69.24ZM63.832 54.4573L65.717 54.0673V57.2913H67.264V54.9903H69.149V57.2913H70.865V53.7943L72.75 54.3403V59.5013H63.832V54.4573ZM63.832 45.4831C63.832 44.8591 63.949 44.2698 64.183 43.7151C64.4083 43.1605 64.7203 42.6795 65.119 42.2721C65.5177 41.8561 65.99 41.5311 66.536 41.2971C67.082 41.0545 67.667 40.9331 68.291 40.9331C68.941 40.9331 69.539 41.0588 70.085 41.3101C70.631 41.5615 71.1033 41.8951 71.502 42.3111C71.892 42.7271 72.1997 43.2081 72.425 43.7541C72.6417 44.3001 72.75 44.8721 72.75 45.4701L72.75 48.6031H63.832V45.4831ZM70.865 46.3931V45.7301C70.865 45.3835 70.8 45.0541 70.67 44.7421C70.54 44.4301 70.358 44.1571 70.124 43.9231C69.89 43.6805 69.617 43.4898 69.305 43.3511C68.993 43.2125 68.655 43.1431 68.291 43.1431C67.953 43.1431 67.6323 43.2081 67.329 43.3381C67.017 43.4681 66.744 43.6501 66.51 43.8841C66.2673 44.1095 66.0767 44.3825 65.938 44.7031C65.7907 45.0151 65.717 45.3531 65.717 45.7171V46.3931H70.865ZM63.832 34.4982L65.717 34.1082V37.3322H67.264V35.0312H69.149V37.3322H70.865V33.8352L72.75 34.3812V39.5422H63.832V34.4982ZM70.722 26.4341V23.5091L72.75 24.0941V28.6441H63.832L63.624 26.4341H70.722ZM63.624 18.8637V18.8377L72.503 14.0277L72.958 16.2767L71.047 17.1867V20.5797L72.958 21.4767L72.503 23.6217L63.624 18.8637ZM69.396 20.0467V17.6807L67.212 18.8637L69.396 20.0467ZM78.832 94.2472C78.832 93.1379 79.0313 92.2842 79.43 91.6862C79.82 91.0796 80.4007 90.7762 81.172 90.7762C81.614 90.7762 81.9997 90.8846 82.329 91.1012C82.6583 91.3179 82.8967 91.5996 83.044 91.9462H83.07C83.226 91.5476 83.4947 91.2096 83.876 90.9322C84.2573 90.6549 84.721 90.5162 85.267 90.5162C86.073 90.5162 86.6883 90.8066 87.113 91.3872C87.5377 91.9592 87.75 92.7262 87.75 93.6882V96.7952H78.832V94.2472ZM82.381 94.5852V94.0132C82.381 93.6666 82.2987 93.4109 82.134 93.2462C81.9607 93.0729 81.7353 92.9862 81.458 92.9862C81.25 92.9862 81.068 93.0512 80.912 93.1812C80.8167 93.2592 80.7387 93.3762 80.678 93.5322C80.6173 93.6796 80.587 93.9006 80.587 94.1952V94.5852H82.381ZM85.995 94.5852V94.1432C85.995 93.7272 85.9517 93.4196 85.865 93.2202C85.7783 93.0209 85.6657 92.8909 85.527 92.8302C85.3883 92.7609 85.241 92.7262 85.085 92.7262C84.7903 92.7262 84.5607 92.8129 84.396 92.9862C84.2227 93.1596 84.136 93.4976 84.136 94.0002V94.5852H85.995ZM85.722 86.9196V83.9946L87.75 84.5796V89.1296H78.832L78.624 86.9196H85.722ZM87.958 78.5952C87.958 79.2366 87.841 79.8476 87.607 80.4282C87.3643 81.0002 87.035 81.5029 86.619 81.9362C86.1943 82.3696 85.7003 82.7162 85.137 82.9762C84.565 83.2276 83.9497 83.3532 83.291 83.3532C82.6497 83.3532 82.0473 83.2276 81.484 82.9762C80.912 82.7249 80.418 82.3869 80.002 81.9622C79.5773 81.5289 79.2437 81.0262 79.001 80.4542C78.7497 79.8736 78.624 79.2539 78.624 78.5952C78.624 77.9539 78.7453 77.3472 78.988 76.7752C79.222 76.1946 79.5513 75.6876 79.976 75.2542C80.392 74.8209 80.886 74.4786 81.458 74.2272C82.0213 73.9672 82.6323 73.8372 83.291 73.8372C83.9323 73.8372 84.539 73.9629 85.111 74.2142C85.6743 74.4656 86.1683 74.8079 86.593 75.2412C87.0177 75.6659 87.3513 76.1686 87.594 76.7492C87.8367 77.3212 87.958 77.9366 87.958 78.5952ZM85.93 78.5952C85.93 78.2486 85.8563 77.9192 85.709 77.6072C85.5617 77.2952 85.3667 77.0266 85.124 76.8012C84.8813 76.5672 84.5997 76.3852 84.279 76.2552C83.9583 76.1166 83.629 76.0472 83.291 76.0472C82.953 76.0472 82.628 76.1166 82.316 76.2552C81.9953 76.3852 81.7137 76.5672 81.471 76.8012C81.2197 77.0266 81.0203 77.2952 80.873 77.6072C80.7257 77.9192 80.652 78.2529 80.652 78.6082C80.652 78.9549 80.7257 79.2842 80.873 79.5962C81.0203 79.8996 81.2153 80.1682 81.458 80.4022C81.7007 80.6276 81.9823 80.8096 82.303 80.9482C82.615 81.0782 82.9443 81.1432 83.291 81.1432C83.629 81.1432 83.9583 81.0782 84.279 80.9482C84.5997 80.8096 84.8813 80.6276 85.124 80.4022C85.3667 80.1682 85.5617 79.8996 85.709 79.5962C85.8563 79.2842 85.93 78.9506 85.93 78.5952ZM81.289 66.4361C81.1157 66.6787 80.9683 66.9344 80.847 67.2031C80.717 67.4717 80.652 67.7577 80.652 68.0611C80.652 68.4337 80.717 68.7804 80.847 69.1011C80.9683 69.4131 81.146 69.6817 81.38 69.9071C81.6053 70.1324 81.8783 70.3101 82.199 70.4401C82.5197 70.5701 82.875 70.6351 83.265 70.6351C83.6637 70.6351 84.0277 70.5744 84.357 70.4531C84.6777 70.3231 84.955 70.1454 85.189 69.9201C85.423 69.6947 85.605 69.4261 85.735 69.1141C85.865 68.7934 85.93 68.4424 85.93 68.0611C85.93 67.7577 85.865 67.4674 85.735 67.1901C85.5963 66.9041 85.4403 66.6354 85.267 66.3841L87.633 66.6571C87.685 66.7437 87.7283 66.8564 87.763 66.9951C87.8063 67.1337 87.841 67.2811 87.867 67.4371C87.893 67.5844 87.9147 67.7317 87.932 67.8791C87.9493 68.0177 87.958 68.1304 87.958 68.2171C87.958 68.8931 87.8453 69.5171 87.62 70.0891C87.3947 70.6524 87.0783 71.1421 86.671 71.5581C86.2637 71.9654 85.7783 72.2817 85.215 72.5071C84.643 72.7324 84.0103 72.8451 83.317 72.8451C82.6583 72.8451 82.043 72.7324 81.471 72.5071C80.899 72.2817 80.4007 71.9654 79.976 71.5581C79.5513 71.1507 79.222 70.6654 78.988 70.1021C78.7453 69.5301 78.624 68.9061 78.624 68.2301C78.624 67.9701 78.6457 67.7187 78.689 67.4761C78.7323 67.2334 78.806 66.9994 78.91 66.7741L81.289 66.4361ZM82.654 62.6314V62.5664L78.624 59.5894L79.209 57.4184L83.083 60.3434L87.373 57.3144L87.958 59.6414L83.525 62.5664V62.6314H87.646L87.854 64.8414H78.832L78.624 62.6314H82.654ZM81.289 50.4852C81.1157 50.7279 80.9683 50.9835 80.847 51.2522C80.717 51.5209 80.652 51.8069 80.652 52.1102C80.652 52.4829 80.717 52.8295 80.847 53.1502C80.9683 53.4622 81.146 53.7309 81.38 53.9562C81.6053 54.1815 81.8783 54.3592 82.199 54.4892C82.5197 54.6192 82.875 54.6842 83.265 54.6842C83.6637 54.6842 84.0277 54.6235 84.357 54.5022C84.6777 54.3722 84.955 54.1945 85.189 53.9692C85.423 53.7439 85.605 53.4752 85.735 53.1632C85.865 52.8425 85.93 52.4915 85.93 52.1102C85.93 51.8069 85.865 51.5165 85.735 51.2392C85.5963 50.9532 85.4403 50.6845 85.267 50.4332L87.633 50.7062C87.685 50.7929 87.7283 50.9055 87.763 51.0442C87.8063 51.1829 87.841 51.3302 87.867 51.4862C87.893 51.6335 87.9147 51.7809 87.932 51.9282C87.9493 52.0669 87.958 52.1795 87.958 52.2662C87.958 52.9422 87.8453 53.5662 87.62 54.1382C87.3947 54.7015 87.0783 55.1912 86.671 55.6072C86.2637 56.0145 85.7783 56.3309 85.215 56.5562C84.643 56.7815 84.0103 56.8942 83.317 56.8942C82.6583 56.8942 82.043 56.7815 81.471 56.5562C80.899 56.3309 80.4007 56.0145 79.976 55.6072C79.5513 55.1999 79.222 54.7145 78.988 54.1512C78.7453 53.5792 78.624 52.9552 78.624 52.2792C78.624 52.0192 78.6457 51.7679 78.689 51.5252C78.7323 51.2825 78.806 51.0485 78.91 50.8232L81.289 50.4852ZM82.082 46.6806V43.8206H78.832L78.624 41.6106H87.646L87.854 43.8206H84.11V46.6806H87.646L87.854 48.8906H78.832L78.624 46.6806H82.082ZM78.624 36.2157V36.1897L87.503 31.3797L87.958 33.6287L86.047 34.5387V37.9317L87.958 38.8287L87.503 40.9737L78.624 36.2157ZM84.396 37.3987V35.0327L82.212 36.2157L84.396 37.3987ZM87.646 28.5457L87.854 30.7557H78.832L78.624 28.5457H87.646ZM78.624 26.7996V26.7736L83.616 20.9366H78.832L78.624 18.7266H87.958V18.7526L82.862 24.5896H87.646L87.854 26.7996H78.624Z" fill="white"/>
<path d="M161.276 66.0628C161.103 66.2275 160.955 66.4311 160.834 66.6738C160.704 66.9165 160.639 67.1851 160.639 67.4798C160.639 67.9218 160.747 68.2815 160.964 68.5588C161.172 68.8275 161.428 69.0355 161.731 69.1828V67.1938L162.901 67.4278V69.4948L163.538 69.5078V67.5578L164.708 67.7788V69.2868C165.081 69.1481 165.38 68.9358 165.605 68.6498C165.83 68.3551 165.943 67.9695 165.943 67.4928C165.943 67.2848 165.887 67.0421 165.774 66.7648C165.653 66.4788 165.488 66.2318 165.28 66.0238L167.633 66.2448C167.754 66.4181 167.837 66.6348 167.88 66.8948C167.932 67.1461 167.958 67.3845 167.958 67.6098C167.958 68.0691 167.889 68.5068 167.75 68.9228C167.603 69.3301 167.39 69.6985 167.113 70.0278C166.836 70.3571 166.498 70.6431 166.099 70.8858C165.692 71.1285 165.228 71.3105 164.708 71.4318V72.6018L163.538 72.3808V71.5878L162.901 71.5748V72.6018L161.731 72.3678V71.3798C160.734 71.1025 159.967 70.6301 159.43 69.9628C158.893 69.2955 158.624 68.5198 158.624 67.6358C158.624 67.4538 158.646 67.2545 158.689 67.0378C158.732 66.8125 158.806 66.6001 158.91 66.4008L161.276 66.0628Z" fill="white"/>
<path d="M158.832 57.517H163.759V56.295L165.579 56.62V57.517H167.75L167.958 59.61H165.579V63.237L158.832 60.39V57.517ZM163.759 60.728V59.454H160.717V59.48L163.759 60.728ZM158.832 49.4874L160.834 49.9944V52.5294H161.614C161.588 52.3387 161.575 52.174 161.575 52.0354C161.575 51.5847 161.657 51.1687 161.822 50.7874C161.978 50.406 162.195 50.081 162.472 49.8124C162.749 49.535 163.079 49.3227 163.46 49.1754C163.833 49.0194 164.24 48.9414 164.682 48.9414C165.176 48.9414 165.627 49.0324 166.034 49.2144C166.433 49.3964 166.775 49.652 167.061 49.9814C167.347 50.302 167.568 50.6834 167.724 51.1254C167.88 51.5587 167.958 52.0267 167.958 52.5294C167.958 53.1274 167.863 53.6864 167.672 54.2064C167.481 54.7177 167.178 55.1814 166.762 55.5974L165.189 54.0504C165.458 53.877 165.653 53.656 165.774 53.3874C165.895 53.11 165.956 52.8197 165.956 52.5164C165.956 52.343 165.926 52.1784 165.865 52.0224C165.796 51.8664 165.7 51.7277 165.579 51.6064C165.449 51.485 165.302 51.3897 165.137 51.3204C164.964 51.251 164.773 51.2164 164.565 51.2164C164.166 51.2164 163.85 51.3724 163.616 51.6844C163.382 51.9877 163.265 52.3864 163.265 52.8804C163.265 53.1837 163.3 53.4827 163.369 53.7774C163.43 54.0634 163.512 54.345 163.616 54.6224H158.832V49.4874ZM163.291 41.1197C163.976 41.1197 164.604 41.1891 165.176 41.3277C165.748 41.4577 166.242 41.6614 166.658 41.9387C167.065 42.2074 167.386 42.5497 167.62 42.9657C167.845 43.3817 167.958 43.8714 167.958 44.4347C167.958 44.9894 167.845 45.4704 167.62 45.8777C167.386 46.2851 167.065 46.6274 166.658 46.9047C166.251 47.1734 165.761 47.3771 165.189 47.5157C164.617 47.6457 163.984 47.7107 163.291 47.7107C162.598 47.7107 161.965 47.6457 161.393 47.5157C160.821 47.3771 160.331 47.1734 159.924 46.9047C159.508 46.6274 159.187 46.2851 158.962 45.8777C158.737 45.4704 158.624 44.9894 158.624 44.4347C158.624 43.8801 158.737 43.3947 158.962 42.9787C159.187 42.5627 159.508 42.2161 159.924 41.9387C160.331 41.6614 160.821 41.4577 161.393 41.3277C161.965 41.1891 162.598 41.1197 163.291 41.1197ZM165.956 44.4347C165.956 44.0361 165.739 43.7327 165.306 43.5247C164.873 43.3167 164.201 43.2127 163.291 43.2127C162.381 43.2127 161.709 43.3167 161.276 43.5247C160.843 43.7241 160.626 44.0317 160.626 44.4477C160.626 45.2277 161.514 45.6177 163.291 45.6177C164.227 45.6177 164.907 45.5181 165.332 45.3187C165.748 45.1194 165.956 44.8247 165.956 44.4347Z" fill="white"/>
</svg>
