<svg width="186" height="116" viewBox="0 0 186 116" fill="none" xmlns="http://www.w3.org/2000/svg">
<rect x="183.75" y="1.75" width="112" height="182" transform="rotate(90 183.75 1.75)" fill="#634D8B"/>
<rect x="183.75" y="1.75" width="112" height="182" transform="rotate(90 183.75 1.75)" stroke="black" stroke-width="3.5"/>
<rect x="183.75" y="1.75" width="112" height="42" transform="rotate(90 183.75 1.75)" fill="#F7941D" stroke="black" stroke-width="3.5"/>
<path d="M121.876 18.4088V18.4348L112.997 23.2448L112.542 20.9958L114.453 20.0858V16.6928L112.542 15.7958L112.997 13.6508L121.876 18.4088ZM116.104 17.2258V19.5918L118.288 18.4088L116.104 17.2258ZM121.876 23.8583L117.144 25.5743V25.6003L121.876 27.3423L121.447 29.5783L112.542 25.5223V25.4963L121.447 21.6093L121.876 23.8583ZM121.668 35.32L119.783 35.71V32.486H118.236V34.787H116.351V32.486H114.635V35.983L112.75 35.437V30.276L121.668 30.276V35.32ZM121.876 37.127V37.153L116.884 42.99H121.668L121.876 45.2H112.542V45.174L117.638 39.337H112.854L112.646 37.127H121.876ZM116.26 49.0958C115.714 49.0958 115.294 49.2041 114.999 49.4208C114.713 49.6461 114.57 50.0015 114.57 50.4868C114.57 50.7208 114.596 50.9331 114.648 51.1238C114.709 51.3145 114.813 51.4791 114.96 51.6178C115.116 51.7651 115.328 51.8778 115.597 51.9558C115.866 52.0338 116.212 52.0728 116.637 52.0728H121.668L121.876 54.2828H115.805C115.285 54.2828 114.821 54.1831 114.414 53.9838C114.007 53.7845 113.664 53.5071 113.387 53.1518C113.11 52.8051 112.897 52.3978 112.75 51.9298C112.611 51.4618 112.542 50.9591 112.542 50.4218C112.542 49.2691 112.815 48.3895 113.361 47.7828C113.916 47.1848 114.678 46.8858 115.649 46.8858H121.668L121.876 49.0958H116.26ZM121.668 61.0427L119.783 61.4327V58.2087H118.236V60.5097H116.351V58.2087H114.635V61.7057L112.75 61.1597V55.9987H121.668V61.0427ZM121.668 70.0169C121.668 70.6409 121.551 71.2302 121.317 71.7849C121.092 72.3395 120.78 72.8205 120.381 73.2279C119.982 73.6439 119.51 73.9689 118.964 74.2029C118.418 74.4455 117.833 74.5669 117.209 74.5669C116.559 74.5669 115.961 74.4412 115.415 74.1899C114.869 73.9385 114.397 73.6049 113.998 73.1889C113.608 72.7729 113.3 72.2919 113.075 71.7459C112.858 71.1999 112.75 70.6279 112.75 70.0299V66.8969H121.668V70.0169ZM114.635 69.1069V69.7699C114.635 70.1165 114.7 70.4459 114.83 70.7579C114.96 71.0699 115.142 71.3429 115.376 71.5769C115.61 71.8195 115.883 72.0102 116.195 72.1489C116.507 72.2875 116.845 72.3569 117.209 72.3569C117.547 72.3569 117.868 72.2919 118.171 72.1619C118.483 72.0319 118.756 71.8499 118.99 71.6159C119.233 71.3905 119.423 71.1175 119.562 70.7969C119.709 70.4849 119.783 70.1469 119.783 69.7829V69.1069H114.635ZM121.668 81.0018L119.783 81.3918V78.1678H118.236V80.4688H116.351V78.1678H114.635V81.6648L112.75 81.1188V75.9578H121.668V81.0018ZM114.778 89.0659L114.778 91.9909L112.75 91.4059L112.75 86.8559H121.668L121.876 89.0659H114.778ZM121.876 96.6363V96.6623L112.997 101.472L112.542 99.2233L114.453 98.3133V94.9203L112.542 94.0233L112.997 91.8783L121.876 96.6363ZM116.104 95.4533V97.8193L118.288 96.6363L116.104 95.4533ZM106.668 35.3076C106.668 35.9316 106.551 36.521 106.317 37.0756C106.092 37.6303 105.78 38.1113 105.381 38.5186C104.982 38.9346 104.51 39.2596 103.964 39.4936C103.418 39.7363 102.833 39.8576 102.209 39.8576C101.559 39.8576 100.961 39.732 100.415 39.4806C99.869 39.2293 99.3967 38.8956 98.998 38.4796C98.608 38.0636 98.3003 37.5826 98.075 37.0366C97.8583 36.4906 97.75 35.9186 97.75 35.3206V32.1876L106.668 32.1876V35.3076ZM99.635 34.3976V35.0606C99.635 35.4073 99.7 35.7366 99.83 36.0486C99.96 36.3606 100.142 36.6336 100.376 36.8676C100.61 37.1103 100.883 37.301 101.195 37.4396C101.507 37.5783 101.845 37.6476 102.209 37.6476C102.547 37.6476 102.868 37.5826 103.171 37.4526C103.483 37.3226 103.756 37.1406 103.99 36.9066C104.233 36.6813 104.423 36.4083 104.562 36.0876C104.709 35.7756 104.783 35.4376 104.783 35.0736V34.3976L99.635 34.3976ZM97.542 45.6165C97.542 44.9752 97.659 44.3642 97.893 43.7835C98.1357 43.2115 98.465 42.7089 98.881 42.2755C99.3057 41.8422 99.7997 41.4955 100.363 41.2355C100.935 40.9842 101.55 40.8585 102.209 40.8585C102.85 40.8585 103.453 40.9842 104.016 41.2355C104.588 41.4869 105.082 41.8249 105.498 42.2495C105.923 42.6829 106.256 43.1855 106.499 43.7575C106.75 44.3382 106.876 44.9579 106.876 45.6165C106.876 46.2579 106.755 46.8645 106.512 47.4365C106.278 48.0172 105.949 48.5242 105.524 48.9575C105.108 49.3909 104.614 49.7332 104.042 49.9845C103.479 50.2445 102.868 50.3745 102.209 50.3745C101.568 50.3745 100.961 50.2489 100.389 49.9975C99.8257 49.7462 99.3317 49.4039 98.907 48.9705C98.4823 48.5459 98.1487 48.0432 97.906 47.4625C97.6633 46.8905 97.542 46.2752 97.542 45.6165ZM99.57 45.6165C99.57 45.9632 99.6437 46.2925 99.791 46.6045C99.9383 46.9165 100.133 47.1852 100.376 47.4105C100.619 47.6445 100.9 47.8265 101.221 47.9565C101.542 48.0952 101.871 48.1645 102.209 48.1645C102.547 48.1645 102.872 48.0952 103.184 47.9565C103.505 47.8265 103.786 47.6445 104.029 47.4105C104.28 47.1852 104.48 46.9165 104.627 46.6045C104.774 46.2925 104.848 45.9589 104.848 45.6035C104.848 45.2569 104.774 44.9275 104.627 44.6155C104.48 44.3122 104.285 44.0435 104.042 43.8095C103.799 43.5842 103.518 43.4022 103.197 43.2635C102.885 43.1335 102.556 43.0685 102.209 43.0685C101.871 43.0685 101.542 43.1335 101.221 43.2635C100.9 43.4022 100.619 43.5842 100.376 43.8095C100.133 44.0435 99.9383 44.3122 99.791 44.6155C99.6437 44.9275 99.57 45.2612 99.57 45.6165ZM106.876 51.7177V51.7437L101.884 57.5807H106.668L106.876 59.7907H97.542V59.7647L102.638 53.9277H97.854L97.646 51.7177H106.876ZM106.876 61.4895V61.5155L101.884 67.3525H106.668L106.876 69.5625H97.542V69.5365L102.638 63.6995H97.854L97.646 61.4895H106.876ZM106.668 76.3444L104.783 76.7344V73.5104H103.236V75.8114H101.351V73.5104H99.635V77.0074L97.75 76.4614V71.3004H106.668V76.3444ZM109.229 76.2664L107.305 74.2124V72.6394L109.229 73.9004V76.2664ZM106.668 83.2344L104.783 83.6244V80.4004H103.236V82.7014H101.351V80.4004H99.635V83.8974L97.75 83.3514V78.1904H106.668V83.2344Z" fill="white"/>
<path d="M24.224 49.4372C24.3973 49.2725 24.5447 49.0689 24.666 48.8262C24.796 48.5835 24.861 48.3149 24.861 48.0202C24.861 47.5782 24.7527 47.2185 24.536 46.9412C24.328 46.6725 24.0723 46.4645 23.769 46.3172L23.769 48.3062L22.599 48.0722L22.599 46.0052L21.962 45.9922L21.962 47.9422L20.792 47.7212L20.792 46.2132C20.4193 46.3519 20.1203 46.5642 19.895 46.8502C19.6697 47.1449 19.557 47.5305 19.557 48.0072C19.557 48.2152 19.6133 48.4579 19.726 48.7352C19.8473 49.0212 20.012 49.2682 20.22 49.4762L17.867 49.2552C17.7457 49.0819 17.6633 48.8652 17.62 48.6052C17.568 48.3539 17.542 48.1155 17.542 47.8902C17.542 47.4309 17.6113 46.9932 17.75 46.5772C17.8973 46.1699 18.1097 45.8015 18.387 45.4722C18.6643 45.1429 19.0023 44.8569 19.401 44.6142C19.8083 44.3715 20.272 44.1895 20.792 44.0682V42.8982L21.962 43.1192V43.9122L22.599 43.9252V42.8982L23.769 43.1322V44.1202C24.7657 44.3975 25.5327 44.8699 26.07 45.5372C26.6073 46.2045 26.876 46.9802 26.876 47.8642C26.876 48.0462 26.8543 48.2455 26.811 48.4622C26.7677 48.6875 26.694 48.8999 26.59 49.0992L24.224 49.4372Z" fill="white"/>
<path d="M23.951 58.945C23.405 58.945 22.8763 58.815 22.365 58.555C21.8623 58.3037 21.3857 57.983 20.935 57.593L19.752 56.592V59.322L17.75 58.854V52.562L21.728 55.812C21.8753 55.9247 22.0313 56.0417 22.196 56.163C22.3693 56.293 22.547 56.4057 22.729 56.501C22.911 56.605 23.0973 56.6873 23.288 56.748C23.4787 56.8173 23.665 56.852 23.847 56.852C24.159 56.852 24.406 56.735 24.588 56.501C24.7787 56.267 24.874 55.9897 24.874 55.669C24.874 55.3917 24.7873 55.1447 24.614 54.928C24.4407 54.72 24.2067 54.616 23.912 54.616C23.6433 54.616 23.4223 54.6767 23.249 54.798C23.0757 54.928 22.9283 55.1187 22.807 55.37L21.182 54.148C21.468 53.654 21.8233 53.2597 22.248 52.965C22.6813 52.6703 23.184 52.523 23.756 52.523C24.2327 52.523 24.6617 52.5967 25.043 52.744C25.4243 52.9 25.7493 53.121 26.018 53.407C26.2953 53.693 26.5077 54.0397 26.655 54.447C26.8023 54.8543 26.876 55.3093 26.876 55.812C26.876 56.2627 26.8067 56.6787 26.668 57.06C26.5293 57.45 26.33 57.7837 26.07 58.061C25.8187 58.3383 25.511 58.555 25.147 58.711C24.7917 58.867 24.393 58.945 23.951 58.945ZM26.668 66.0126L24.666 65.5056V62.9706H23.886C23.912 63.1613 23.925 63.326 23.925 63.4646C23.925 63.9153 23.8427 64.3313 23.678 64.7126C23.522 65.094 23.3053 65.419 23.028 65.6876C22.7507 65.965 22.4213 66.1773 22.04 66.3246C21.6673 66.4806 21.26 66.5586 20.818 66.5586C20.324 66.5586 19.8733 66.4676 19.466 66.2856C19.0673 66.1036 18.725 65.848 18.439 65.5186C18.153 65.198 17.932 64.8166 17.776 64.3746C17.62 63.9413 17.542 63.4733 17.542 62.9706C17.542 62.3726 17.6373 61.8136 17.828 61.2936C18.0187 60.7823 18.322 60.3186 18.738 59.9026L20.311 61.4496C20.0423 61.623 19.8473 61.844 19.726 62.1126C19.6047 62.39 19.544 62.6803 19.544 62.9836C19.544 63.157 19.5743 63.3216 19.635 63.4776C19.7043 63.6336 19.7997 63.7723 19.921 63.8936C20.051 64.015 20.1983 64.1103 20.363 64.1796C20.5363 64.249 20.727 64.2836 20.935 64.2836C21.3337 64.2836 21.65 64.1276 21.884 63.8156C22.118 63.5123 22.235 63.1136 22.235 62.6196C22.235 62.3163 22.2003 62.0173 22.131 61.7226C22.0703 61.4366 21.988 61.155 21.884 60.8776H26.668V66.0126ZM22.209 74.3803C21.5243 74.3803 20.896 74.3109 20.324 74.1723C19.752 74.0423 19.258 73.8386 18.842 73.5613C18.4347 73.2926 18.114 72.9503 17.88 72.5343C17.6547 72.1183 17.542 71.6286 17.542 71.0653C17.542 70.5106 17.6547 70.0296 17.88 69.6223C18.114 69.2149 18.4347 68.8726 18.842 68.5953C19.2493 68.3266 19.739 68.1229 20.311 67.9843C20.883 67.8543 21.5157 67.7893 22.209 67.7893C22.9023 67.7893 23.535 67.8543 24.107 67.9843C24.679 68.1229 25.1687 68.3266 25.576 68.5953C25.992 68.8726 26.3127 69.2149 26.538 69.6223C26.7633 70.0296 26.876 70.5106 26.876 71.0653C26.876 71.6199 26.7633 72.1053 26.538 72.5213C26.3127 72.9373 25.992 73.2839 25.576 73.5613C25.1687 73.8386 24.679 74.0423 24.107 74.1723C23.535 74.3109 22.9023 74.3803 22.209 74.3803ZM19.544 71.0653C19.544 71.4639 19.7607 71.7673 20.194 71.9753C20.6273 72.1833 21.299 72.2873 22.209 72.2873C23.119 72.2873 23.7907 72.1833 24.224 71.9753C24.6573 71.7759 24.874 71.4683 24.874 71.0523C24.874 70.2723 23.9857 69.8823 22.209 69.8823C21.273 69.8823 20.5927 69.9819 20.168 70.1813C19.752 70.3806 19.544 70.6753 19.544 71.0653Z" fill="white"/>
</svg>
