<svg width="186" height="116" viewBox="0 0 186 116" fill="none" xmlns="http://www.w3.org/2000/svg">
<rect x="1.75" y="113.75" width="112" height="182" transform="rotate(-90 1.75 113.75)" fill="#634D8B"/>
<rect x="1.75" y="113.75" width="112" height="182" transform="rotate(-90 1.75 113.75)" stroke="black" stroke-width="3.5"/>
<rect x="1.75" y="113.75" width="112" height="42" transform="rotate(-90 1.75 113.75)" fill="#0072BB" stroke="black" stroke-width="3.5"/>
<path d="M63.832 100.041C63.832 98.9053 64.0573 98.03 64.508 97.4147C64.9587 96.7993 65.652 96.4917 66.588 96.4917C66.8393 96.4917 67.0863 96.5263 67.329 96.5957C67.563 96.665 67.7797 96.7647 67.979 96.8947C68.1783 97.0247 68.356 97.1807 68.512 97.3627C68.6593 97.536 68.772 97.7267 68.85 97.9347L72.243 95.5297L72.958 97.7657L68.746 100.366V100.392H72.646L72.854 102.602H63.832V100.041ZM68.213 100.392C68.2217 100.348 68.226 100.305 68.226 100.262C68.226 100.218 68.226 100.175 68.226 100.132C68.226 99.9583 68.2087 99.785 68.174 99.6117C68.1307 99.4383 68.0613 99.2867 67.966 99.1567C67.862 99.018 67.7277 98.9097 67.563 98.8317C67.3897 98.745 67.173 98.7017 66.913 98.7017C66.601 98.7017 66.3367 98.784 66.12 98.9487C65.9033 99.1047 65.7733 99.3993 65.73 99.8327C65.7213 99.9193 65.717 100.01 65.717 100.106C65.717 100.192 65.717 100.288 65.717 100.392H68.213ZM69.24 92.622C69.786 92.622 70.2063 92.5137 70.501 92.297C70.787 92.0717 70.93 91.7164 70.93 91.231C70.93 90.997 70.904 90.7847 70.852 90.594C70.7913 90.4034 70.6873 90.2387 70.54 90.1C70.384 89.9527 70.1717 89.84 69.903 89.762C69.6343 89.684 69.2877 89.645 68.863 89.645H63.832L63.624 87.435H69.695C70.215 87.435 70.6787 87.5347 71.086 87.734C71.4933 87.9334 71.8357 88.2107 72.113 88.566C72.3903 88.9127 72.6027 89.32 72.75 89.788C72.8887 90.256 72.958 90.7587 72.958 91.296C72.958 92.4487 72.685 93.3284 72.139 93.935C71.5843 94.533 70.8217 94.832 69.851 94.832H63.832L63.624 92.622H69.24ZM63.832 80.6751L65.717 80.2851V83.5091H67.264V81.2081H69.149V83.5091H70.865V80.0121L72.75 80.5581V85.7191H63.832V80.6751ZM63.832 71.701C63.832 71.077 63.949 70.4876 64.183 69.933C64.4083 69.3783 64.7203 68.8973 65.119 68.49C65.5177 68.074 65.99 67.749 66.536 67.515C67.082 67.2723 67.667 67.151 68.291 67.151C68.941 67.151 69.539 67.2766 70.085 67.528C70.631 67.7793 71.1033 68.113 71.502 68.529C71.892 68.945 72.1997 69.426 72.425 69.972C72.6417 70.518 72.75 71.09 72.75 71.688V74.821H63.832V71.701ZM70.865 72.611V71.948C70.865 71.6013 70.8 71.272 70.67 70.96C70.54 70.648 70.358 70.375 70.124 70.141C69.89 69.8983 69.617 69.7076 69.305 69.569C68.993 69.4303 68.655 69.361 68.291 69.361C67.953 69.361 67.6323 69.426 67.329 69.556C67.017 69.686 66.744 69.868 66.51 70.102C66.2673 70.3273 66.0767 70.6003 65.938 70.921C65.7907 71.233 65.717 71.571 65.717 71.935V72.611H70.865ZM63.832 60.7161L65.717 60.3261V63.5501H67.264V61.2491H69.149V63.5501H70.865V60.0531L72.75 60.5991V65.7601H63.832V60.7161ZM70.722 52.6519L70.722 49.7269L72.75 50.3119V54.8619H63.832L63.624 52.6519H70.722ZM63.624 45.0816V45.0556L72.503 40.2456L72.958 42.4946L71.047 43.4046V46.7976L72.958 47.6946L72.503 49.8396L63.624 45.0816ZM69.396 46.2646V43.8986L67.212 45.0816L69.396 46.2646ZM63.832 32.9095C63.832 31.7135 64.0573 30.8208 64.508 30.2315C64.9587 29.6422 65.6867 29.3475 66.692 29.3475C67.134 29.3475 67.5283 29.4342 67.875 29.6075C68.2217 29.7808 68.5207 30.0192 68.772 30.3225C69.0147 30.6172 69.201 30.9682 69.331 31.3755C69.461 31.7742 69.526 32.1988 69.526 32.6495V33.4555H72.646L72.854 35.6655H63.832V32.9095ZM67.641 33.4555V32.8055C67.641 32.4155 67.5587 32.1122 67.394 31.8955C67.2293 31.6702 66.991 31.5575 66.679 31.5575C66.367 31.5575 66.1287 31.6702 65.964 31.8955C65.7993 32.1122 65.717 32.4155 65.717 32.8055V33.4555H67.641ZM67.082 25.8029V22.9429H63.832L63.624 20.7329H72.646L72.854 22.9429H69.11V25.8029H72.646L72.854 28.0129H63.832L63.624 25.8029H67.082ZM63.832 16.235C63.832 15.039 64.0573 14.1463 64.508 13.557C64.9587 12.9676 65.6867 12.673 66.692 12.673C67.134 12.673 67.5283 12.7596 67.875 12.933C68.2217 13.1063 68.5207 13.3446 68.772 13.648C69.0147 13.9426 69.201 14.2936 69.331 14.701C69.461 15.0996 69.526 15.5243 69.526 15.975V16.781H72.646L72.854 18.991H63.832V16.235ZM67.641 16.781V16.131C67.641 15.741 67.5587 15.4376 67.394 15.221C67.2293 14.9956 66.991 14.883 66.679 14.883C66.367 14.883 66.1287 14.9956 65.964 15.221C65.7993 15.4376 65.717 15.741 65.717 16.131V16.781H67.641Z" fill="white"/>
<path d="M161.276 66.0628C161.103 66.2275 160.955 66.4311 160.834 66.6738C160.704 66.9165 160.639 67.1851 160.639 67.4798C160.639 67.9218 160.747 68.2815 160.964 68.5588C161.172 68.8275 161.428 69.0355 161.731 69.1828V67.1938L162.901 67.4278V69.4948L163.538 69.5078V67.5578L164.708 67.7788V69.2868C165.081 69.1481 165.38 68.9358 165.605 68.6498C165.83 68.3551 165.943 67.9695 165.943 67.4928C165.943 67.2848 165.887 67.0421 165.774 66.7648C165.653 66.4788 165.488 66.2318 165.28 66.0238L167.633 66.2448C167.754 66.4181 167.837 66.6348 167.88 66.8948C167.932 67.1461 167.958 67.3845 167.958 67.6098C167.958 68.0691 167.889 68.5068 167.75 68.9228C167.603 69.3301 167.39 69.6985 167.113 70.0278C166.836 70.3571 166.498 70.6431 166.099 70.8858C165.692 71.1285 165.228 71.3105 164.708 71.4318V72.6018L163.538 72.3808V71.5878L162.901 71.5748V72.6018L161.731 72.3678V71.3798C160.734 71.1025 159.967 70.6301 159.43 69.9628C158.893 69.2955 158.624 68.5198 158.624 67.6358C158.624 67.4538 158.646 67.2545 158.689 67.0378C158.732 66.8125 158.806 66.6001 158.91 66.4008L161.276 66.0628Z" fill="white"/>
<path d="M158.832 57.101L160.834 57.608V60.143H161.614C161.588 59.9523 161.575 59.7877 161.575 59.649C161.575 59.1983 161.657 58.7823 161.822 58.401C161.978 58.0197 162.195 57.6947 162.472 57.426C162.749 57.1487 163.079 56.9363 163.46 56.789C163.833 56.633 164.24 56.555 164.682 56.555C165.176 56.555 165.627 56.646 166.034 56.828C166.433 57.01 166.775 57.2657 167.061 57.595C167.347 57.9157 167.568 58.297 167.724 58.739C167.88 59.1723 167.958 59.6403 167.958 60.143C167.958 60.741 167.863 61.3 167.672 61.82C167.481 62.3313 167.178 62.795 166.762 63.211L165.189 61.664C165.458 61.4907 165.653 61.2697 165.774 61.001C165.895 60.7237 165.956 60.4333 165.956 60.13C165.956 59.9567 165.926 59.792 165.865 59.636C165.796 59.48 165.7 59.3413 165.579 59.22C165.449 59.0987 165.302 59.0033 165.137 58.934C164.964 58.8647 164.773 58.83 164.565 58.83C164.166 58.83 163.85 58.986 163.616 59.298C163.382 59.6013 163.265 60 163.265 60.494C163.265 60.7973 163.3 61.0963 163.369 61.391C163.43 61.677 163.512 61.9587 163.616 62.236H158.832V57.101ZM163.291 48.7334C163.976 48.7334 164.604 48.8027 165.176 48.9414C165.748 49.0714 166.242 49.275 166.658 49.5524C167.065 49.821 167.386 50.1634 167.62 50.5794C167.845 50.9954 167.958 51.485 167.958 52.0484C167.958 52.603 167.845 53.084 167.62 53.4914C167.386 53.8987 167.065 54.241 166.658 54.5184C166.251 54.787 165.761 54.9907 165.189 55.1294C164.617 55.2594 163.984 55.3244 163.291 55.3244C162.598 55.3244 161.965 55.2594 161.393 55.1294C160.821 54.9907 160.331 54.787 159.924 54.5184C159.508 54.241 159.187 53.8987 158.962 53.4914C158.737 53.084 158.624 52.603 158.624 52.0484C158.624 51.4937 158.737 51.0084 158.962 50.5924C159.187 50.1764 159.508 49.8297 159.924 49.5524C160.331 49.275 160.821 49.0714 161.393 48.9414C161.965 48.8027 162.598 48.7334 163.291 48.7334ZM165.956 52.0484C165.956 51.6497 165.739 51.3464 165.306 51.1384C164.873 50.9304 164.201 50.8264 163.291 50.8264C162.381 50.8264 161.709 50.9304 161.276 51.1384C160.843 51.3377 160.626 51.6454 160.626 52.0614C160.626 52.8414 161.514 53.2314 163.291 53.2314C164.227 53.2314 164.907 53.1317 165.332 52.9324C165.748 52.733 165.956 52.4384 165.956 52.0484ZM163.291 41.1197C163.976 41.1197 164.604 41.1891 165.176 41.3277C165.748 41.4577 166.242 41.6614 166.658 41.9387C167.065 42.2074 167.386 42.5497 167.62 42.9657C167.845 43.3817 167.958 43.8714 167.958 44.4347C167.958 44.9894 167.845 45.4704 167.62 45.8777C167.386 46.2851 167.065 46.6274 166.658 46.9047C166.251 47.1734 165.761 47.3771 165.189 47.5157C164.617 47.6457 163.984 47.7107 163.291 47.7107C162.598 47.7107 161.965 47.6457 161.393 47.5157C160.821 47.3771 160.331 47.1734 159.924 46.9047C159.508 46.6274 159.187 46.2851 158.962 45.8777C158.737 45.4704 158.624 44.9894 158.624 44.4347C158.624 43.8801 158.737 43.3947 158.962 42.9787C159.187 42.5627 159.508 42.2161 159.924 41.9387C160.331 41.6614 160.821 41.4577 161.393 41.3277C161.965 41.1891 162.598 41.1197 163.291 41.1197ZM165.956 44.4347C165.956 44.0361 165.739 43.7327 165.306 43.5247C164.873 43.3167 164.201 43.2127 163.291 43.2127C162.381 43.2127 161.709 43.3167 161.276 43.5247C160.843 43.7241 160.626 44.0317 160.626 44.4477C160.626 45.2277 161.514 45.6177 163.291 45.6177C164.227 45.6177 164.907 45.5181 165.332 45.3187C165.748 45.1194 165.956 44.8247 165.956 44.4347Z" fill="white"/>
</svg>
