<svg width="157" height="244" viewBox="0 0 157 244" fill="none" xmlns="http://www.w3.org/2000/svg">
<rect width="157" height="244" fill="#CDB1FF"/>
<rect x="9" y="9" width="139" height="226" stroke="black"/>
<rect x="14.5" y="14.5" width="128" height="47" fill="#D93A96"/>
<rect x="14.5" y="14.5" width="128" height="47" stroke="black"/>
<path d="M49.8743 21.198V22.087H48.6773V26L47.7533 26.056V22.087H46.4443L46.6683 21.198H49.8743ZM51.5403 26L50.6163 26.056V21.198L51.5403 21.086V26ZM55.6025 21.198V22.087H54.4055V26L53.4815 26.056V22.087H52.1725L52.3965 21.198H55.6025ZM57.8425 21.198C58.0898 21.198 58.3138 21.2307 58.5145 21.296C58.7152 21.3567 58.8878 21.45 59.0325 21.576C59.1772 21.702 59.2868 21.8583 59.3615 22.045C59.4408 22.227 59.4805 22.437 59.4805 22.675C59.4805 22.9737 59.3965 23.235 59.2285 23.459C59.0652 23.683 58.8412 23.8417 58.5565 23.935L59.8655 25.867L58.8575 26.112L57.2265 23.599H57.2125V26L56.2885 26.056V21.198H57.8425ZM57.2125 23.375H57.5135C57.7002 23.375 57.8518 23.3587 57.9685 23.326C58.0898 23.2887 58.1855 23.2397 58.2555 23.179C58.3255 23.1137 58.3745 23.0413 58.4025 22.962C58.4305 22.8827 58.4445 22.7963 58.4445 22.703C58.4445 22.4883 58.3792 22.332 58.2485 22.234C58.1225 22.136 57.9195 22.087 57.6395 22.087H57.2125V23.375ZM62.9012 21.198L63.0552 22.087H61.2422V23.046H62.6982V23.935H61.2422V25.111H63.2792L62.9852 26H60.3182V21.198H62.9012ZM67.4674 21.198C67.7614 21.198 68.0391 21.261 68.3004 21.387C68.5664 21.5083 68.7997 21.6763 69.0004 21.891C69.2057 22.1057 69.3667 22.3577 69.4834 22.647C69.6047 22.9317 69.6654 23.2373 69.6654 23.564C69.6654 23.9467 69.5977 24.2897 69.4624 24.593C69.3271 24.8917 69.1474 25.146 68.9234 25.356C68.6994 25.566 68.4427 25.727 68.1534 25.839C67.8641 25.9463 67.5654 26 67.2574 26H65.9974V21.198H67.4674ZM67.4254 25.111C67.6167 25.111 67.7894 25.0713 67.9434 24.992C68.1021 24.908 68.2374 24.796 68.3494 24.656C68.4614 24.516 68.5477 24.3527 68.6084 24.166C68.6691 23.9747 68.6994 23.774 68.6994 23.564C68.6994 23.3493 68.6644 23.1533 68.5944 22.976C68.5244 22.794 68.4287 22.6377 68.3074 22.507C68.1907 22.3763 68.0531 22.2737 67.8944 22.199C67.7357 22.1243 67.5654 22.087 67.3834 22.087H66.9214V25.111H67.4254ZM73.0487 21.198L73.2027 22.087H71.3897V23.046H72.8457V23.935H71.3897V25.111H73.4267L73.1327 26H70.4657V21.198H73.0487ZM77.6079 21.198C77.8413 21.198 78.0513 21.24 78.2379 21.324C78.4246 21.408 78.5833 21.5223 78.7139 21.667C78.8493 21.807 78.9519 21.9703 79.0219 22.157C79.0966 22.339 79.1339 22.528 79.1339 22.724C79.1339 22.962 79.0943 23.179 79.0149 23.375C78.9356 23.5663 78.8236 23.7297 78.6789 23.865C78.5343 24.0003 78.3616 24.1053 78.1609 24.18C77.9603 24.2547 77.7409 24.292 77.5029 24.292C77.3723 24.292 77.2486 24.285 77.1319 24.271V26L76.2079 26.056V21.198H77.6079ZM77.1319 23.403H77.3349C77.6523 23.403 77.8763 23.347 78.0069 23.235C78.1423 23.1183 78.2099 22.955 78.2099 22.745C78.2099 22.3063 77.9253 22.087 77.3559 22.087H77.1319V23.403ZM81.3879 21.198C81.6353 21.198 81.8593 21.2307 82.0599 21.296C82.2606 21.3567 82.4333 21.45 82.5779 21.576C82.7226 21.702 82.8323 21.8583 82.9069 22.045C82.9863 22.227 83.0259 22.437 83.0259 22.675C83.0259 22.9737 82.9419 23.235 82.7739 23.459C82.6106 23.683 82.3866 23.8417 82.1019 23.935L83.4109 25.867L82.4029 26.112L80.7719 23.599H80.7579V26L79.8339 26.056V21.198H81.3879ZM80.7579 23.375H81.0589C81.2456 23.375 81.3973 23.3587 81.5139 23.326C81.6353 23.2887 81.7309 23.2397 81.8009 23.179C81.8709 23.1137 81.9199 23.0413 81.9479 22.962C81.9759 22.8827 81.9899 22.7963 81.9899 22.703C81.9899 22.4883 81.9246 22.332 81.7939 22.234C81.6679 22.136 81.4649 22.087 81.1849 22.087H80.7579V23.375ZM88.6656 23.599C88.6656 23.9443 88.5979 24.271 88.4626 24.579C88.3319 24.8823 88.1523 25.1483 87.9236 25.377C87.6949 25.601 87.4266 25.7807 87.1186 25.916C86.8106 26.0467 86.4816 26.112 86.1316 26.112C85.7816 26.112 85.4526 26.0467 85.1446 25.916C84.8366 25.7807 84.5683 25.5987 84.3396 25.37C84.1109 25.1413 83.9289 24.8753 83.7936 24.572C83.6629 24.2687 83.5976 23.9443 83.5976 23.599C83.5976 23.2537 83.6629 22.9293 83.7936 22.626C83.9289 22.318 84.1109 22.052 84.3396 21.828C84.5683 21.5993 84.8366 21.4197 85.1446 21.289C85.4526 21.1537 85.7816 21.086 86.1316 21.086C86.4816 21.086 86.8106 21.1537 87.1186 21.289C87.4266 21.4197 87.6949 21.5993 87.9236 21.828C88.1523 22.052 88.3319 22.318 88.4626 22.626C88.5979 22.9293 88.6656 23.2537 88.6656 23.599ZM86.1316 25.167C86.3509 25.167 86.5563 25.125 86.7476 25.041C86.9389 24.9523 87.1046 24.838 87.2446 24.698C87.3846 24.5533 87.4943 24.3877 87.5736 24.201C87.6576 24.0097 87.6996 23.809 87.6996 23.599C87.6996 23.389 87.6576 23.1883 87.5736 22.997C87.4943 22.8057 87.3823 22.64 87.2376 22.5C87.0929 22.3553 86.9249 22.241 86.7336 22.157C86.5423 22.073 86.3393 22.031 86.1246 22.031C85.9146 22.031 85.7139 22.073 85.5226 22.157C85.3359 22.241 85.1703 22.3553 85.0256 22.5C84.8856 22.64 84.7736 22.8057 84.6896 22.997C84.6056 23.1883 84.5636 23.389 84.5636 23.599C84.5636 23.809 84.6033 24.0097 84.6826 24.201C84.7666 24.3877 84.8786 24.5533 85.0186 24.698C85.1633 24.838 85.3289 24.9523 85.5156 25.041C85.7069 25.125 85.9123 25.167 86.1316 25.167ZM90.8658 21.198C91.0992 21.198 91.3092 21.24 91.4958 21.324C91.6825 21.408 91.8412 21.5223 91.9718 21.667C92.1072 21.807 92.2098 21.9703 92.2798 22.157C92.3545 22.339 92.3918 22.528 92.3918 22.724C92.3918 22.962 92.3522 23.179 92.2728 23.375C92.1935 23.5663 92.0815 23.7297 91.9368 23.865C91.7922 24.0003 91.6195 24.1053 91.4188 24.18C91.2182 24.2547 90.9988 24.292 90.7608 24.292C90.6302 24.292 90.5065 24.285 90.3898 24.271V26L89.4658 26.056V21.198H90.8658ZM90.3898 23.403H90.5928C90.9102 23.403 91.1342 23.347 91.2648 23.235C91.4002 23.1183 91.4678 22.955 91.4678 22.745C91.4678 22.3063 91.1832 22.087 90.6138 22.087H90.3898V23.403ZM94.6458 21.198C94.8932 21.198 95.1172 21.2307 95.3178 21.296C95.5185 21.3567 95.6912 21.45 95.8358 21.576C95.9805 21.702 96.0902 21.8583 96.1648 22.045C96.2442 22.227 96.2838 22.437 96.2838 22.675C96.2838 22.9737 96.1998 23.235 96.0318 23.459C95.8685 23.683 95.6445 23.8417 95.3598 23.935L96.6688 25.867L95.6608 26.112L94.0298 23.599H94.0158V26L93.0918 26.056V21.198H94.6458ZM94.0158 23.375H94.3168C94.5035 23.375 94.6552 23.3587 94.7718 23.326C94.8932 23.2887 94.9888 23.2397 95.0588 23.179C95.1288 23.1137 95.1778 23.0413 95.2058 22.962C95.2338 22.8827 95.2478 22.7963 95.2478 22.703C95.2478 22.4883 95.1825 22.332 95.0518 22.234C94.9258 22.136 94.7228 22.087 94.4428 22.087H94.0158V23.375ZM98.1015 26L97.1775 26.056V21.198L98.1015 21.086V26ZM101.793 21.198L101.947 22.087H100.134V23.046H101.59V23.935H100.134V25.111H102.171L101.877 26H99.2097V21.198H101.793ZM101.667 19.854L100.624 20.876H99.9237L100.582 19.854H101.667ZM105.804 21.198V22.087H104.607V26L103.683 26.056V22.087H102.374L102.598 21.198H105.804ZM109.073 21.198L109.227 22.087H107.414V23.046H108.87V23.935H107.414V25.111H109.451L109.157 26H106.49V21.198H109.073ZM108.947 19.854L107.904 20.876H107.204L107.862 19.854H108.947Z" fill="black"/>
<path d="M39.9732 31.768C40.9972 31.768 41.7852 31.952 42.3372 32.32C42.8972 32.68 43.1772 33.216 43.1772 33.928C43.1772 34.336 43.0772 34.692 42.8772 34.996C42.6772 35.3 42.4172 35.52 42.0972 35.656V35.68C42.4652 35.824 42.7772 36.072 43.0332 36.424C43.2892 36.776 43.4172 37.204 43.4172 37.708C43.4172 38.452 43.1492 39.02 42.6132 39.412C42.0852 39.804 41.3772 40 40.4892 40H37.6212V31.768H39.9732ZM39.6612 35.044H40.1892C40.5092 35.044 40.7452 34.968 40.8972 34.816C41.0572 34.656 41.1372 34.448 41.1372 34.192C41.1372 34 41.0772 33.832 40.9572 33.688C40.8852 33.6 40.7772 33.528 40.6332 33.472C40.4972 33.416 40.2932 33.388 40.0212 33.388H39.6612V35.044ZM39.6612 38.38H40.0692C40.4532 38.38 40.7372 38.34 40.9212 38.26C41.1052 38.18 41.2252 38.076 41.2812 37.948C41.3452 37.82 41.3772 37.684 41.3772 37.54C41.3772 37.268 41.2972 37.056 41.1372 36.904C40.9772 36.744 40.6652 36.664 40.2012 36.664H39.6612V38.38ZM48.3692 40.192C47.7772 40.192 47.2132 40.084 46.6772 39.868C46.1492 39.644 45.6852 39.34 45.2852 38.956C44.8852 38.564 44.5652 38.108 44.3252 37.588C44.0932 37.06 43.9772 36.492 43.9772 35.884C43.9772 35.292 44.0932 34.736 44.3252 34.216C44.5572 33.688 44.8692 33.232 45.2612 32.848C45.6612 32.456 46.1252 32.148 46.6532 31.924C47.1892 31.692 47.7612 31.576 48.3692 31.576C48.9612 31.576 49.5212 31.688 50.0492 31.912C50.5852 32.128 51.0532 32.432 51.4532 32.824C51.8532 33.208 52.1692 33.664 52.4012 34.192C52.6412 34.712 52.7612 35.276 52.7612 35.884C52.7612 36.476 52.6452 37.036 52.4132 37.564C52.1812 38.084 51.8652 38.54 51.4652 38.932C51.0732 39.324 50.6092 39.632 50.0732 39.856C49.5452 40.08 48.9772 40.192 48.3692 40.192ZM48.3692 38.32C48.6892 38.32 48.9932 38.252 49.2812 38.116C49.5692 37.98 49.8172 37.8 50.0252 37.576C50.2412 37.352 50.4092 37.092 50.5292 36.796C50.6572 36.5 50.7212 36.196 50.7212 35.884C50.7212 35.572 50.6572 35.272 50.5292 34.984C50.4092 34.688 50.2412 34.428 50.0252 34.204C49.8172 33.972 49.5692 33.788 49.2812 33.652C48.9932 33.516 48.6852 33.448 48.3572 33.448C48.0372 33.448 47.7332 33.516 47.4452 33.652C47.1652 33.788 46.9172 33.968 46.7012 34.192C46.4932 34.416 46.3252 34.676 46.1972 34.972C46.0772 35.26 46.0172 35.564 46.0172 35.884C46.0172 36.196 46.0772 36.5 46.1972 36.796C46.3252 37.092 46.4932 37.352 46.7012 37.576C46.9172 37.8 47.1652 37.98 47.4452 38.116C47.7332 38.252 48.0412 38.32 48.3692 38.32ZM55.669 36.76C55.669 37.264 55.769 37.652 55.969 37.924C56.177 38.188 56.505 38.32 56.953 38.32C57.169 38.32 57.365 38.296 57.541 38.248C57.717 38.192 57.869 38.096 57.997 37.96C58.133 37.816 58.237 37.62 58.309 37.372C58.381 37.124 58.417 36.804 58.417 36.412V31.768L60.457 31.576V37.18C60.457 37.66 60.365 38.088 60.181 38.464C59.997 38.84 59.741 39.156 59.413 39.412C59.093 39.668 58.717 39.864 58.285 40C57.853 40.128 57.389 40.192 56.893 40.192C55.829 40.192 55.017 39.94 54.457 39.436C53.905 38.924 53.629 38.22 53.629 37.324V31.768L55.669 31.576V36.76ZM63.7209 38.128H66.4209L65.8809 40H61.6809V31.768L63.7209 31.576V38.128ZM71.669 31.768L72.029 33.508H69.053V34.936H71.177V36.676H69.053V38.26H72.281L71.777 40H67.013V31.768H71.669ZM74.117 31.576L75.701 35.944H75.725L77.333 31.576L79.397 31.972L75.653 40.192H75.629L72.041 31.972L74.117 31.576ZM81.9154 31.576H81.9394L86.3794 39.772L84.3034 40.192L83.4634 38.428H80.3314L79.5034 40.192L77.5234 39.772L81.9154 31.576ZM80.8234 36.904H83.0074L81.9154 34.888L80.8234 36.904ZM88.7553 31.768C89.8033 31.768 90.6113 31.976 91.1793 32.392C91.7473 32.808 92.0313 33.448 92.0313 34.312C92.0313 34.544 91.9993 34.772 91.9353 34.996C91.8713 35.212 91.7793 35.412 91.6593 35.596C91.5393 35.78 91.3953 35.944 91.2273 36.088C91.0673 36.224 90.8913 36.328 90.6993 36.4L92.9193 39.532L90.8553 40.192L88.4553 36.304H88.4313V39.904L86.3913 40.096V31.768H88.7553ZM88.4313 35.812C88.4713 35.82 88.5113 35.824 88.5513 35.824C88.5913 35.824 88.6313 35.824 88.6713 35.824C88.8313 35.824 88.9913 35.808 89.1513 35.776C89.3113 35.736 89.4513 35.672 89.5713 35.584C89.6993 35.488 89.7993 35.364 89.8713 35.212C89.9513 35.052 89.9913 34.852 89.9913 34.612C89.9913 34.324 89.9153 34.08 89.7633 33.88C89.6193 33.68 89.3473 33.56 88.9473 33.52C88.8673 33.512 88.7833 33.508 88.6953 33.508C88.6153 33.508 88.5273 33.508 88.4313 33.508V35.812ZM96.1312 31.768C96.7072 31.768 97.2512 31.876 97.7632 32.092C98.2752 32.3 98.7192 32.588 99.0952 32.956C99.4792 33.324 99.7792 33.76 99.9952 34.264C100.219 34.768 100.331 35.308 100.331 35.884C100.331 36.484 100.215 37.036 99.9832 37.54C99.7512 38.044 99.4432 38.48 99.0592 38.848C98.6752 39.208 98.2312 39.492 97.7272 39.7C97.2232 39.9 96.6952 40 96.1432 40H93.2512V31.768H96.1312ZM95.2912 38.26H95.9032C96.2232 38.26 96.5272 38.2 96.8152 38.08C97.1032 37.96 97.3552 37.792 97.5712 37.576C97.7952 37.36 97.9712 37.108 98.0992 36.82C98.2272 36.532 98.2912 36.22 98.2912 35.884C98.2912 35.572 98.2312 35.276 98.1112 34.996C97.9912 34.708 97.8232 34.456 97.6072 34.24C97.3992 34.016 97.1472 33.84 96.8512 33.712C96.5632 33.576 96.2512 33.508 95.9152 33.508H95.2912V38.26ZM107.475 31.768C108.051 31.768 108.595 31.876 109.107 32.092C109.619 32.3 110.063 32.588 110.439 32.956C110.823 33.324 111.123 33.76 111.339 34.264C111.563 34.768 111.675 35.308 111.675 35.884C111.675 36.484 111.559 37.036 111.327 37.54C111.095 38.044 110.787 38.48 110.403 38.848C110.019 39.208 109.575 39.492 109.071 39.7C108.567 39.9 108.039 40 107.487 40H104.595V31.768H107.475ZM106.635 38.26H107.247C107.567 38.26 107.871 38.2 108.159 38.08C108.447 37.96 108.699 37.792 108.915 37.576C109.139 37.36 109.315 37.108 109.443 36.82C109.571 36.532 109.635 36.22 109.635 35.884C109.635 35.572 109.575 35.276 109.455 34.996C109.335 34.708 109.167 34.456 108.951 34.24C108.743 34.016 108.491 33.84 108.195 33.712C107.907 33.576 107.595 33.508 107.259 33.508H106.635V38.26ZM114.591 36.76C114.591 37.264 114.691 37.652 114.891 37.924C115.099 38.188 115.427 38.32 115.875 38.32C116.091 38.32 116.287 38.296 116.463 38.248C116.639 38.192 116.791 38.096 116.919 37.96C117.055 37.816 117.159 37.62 117.231 37.372C117.303 37.124 117.339 36.804 117.339 36.412V31.768L119.379 31.576V37.18C119.379 37.66 119.287 38.088 119.103 38.464C118.919 38.84 118.663 39.156 118.335 39.412C118.015 39.668 117.639 39.864 117.207 40C116.775 40.128 116.311 40.192 115.815 40.192C114.751 40.192 113.939 39.94 113.379 39.436C112.827 38.924 112.551 38.22 112.551 37.324V31.768L114.591 31.576V36.76ZM60.2836 47.94C60.0276 47.708 59.7916 47.548 59.5756 47.46C59.3596 47.364 59.1476 47.316 58.9396 47.316C58.6596 47.316 58.4196 47.372 58.2196 47.484C58.0196 47.596 57.9196 47.756 57.9196 47.964C57.9196 48.092 57.9516 48.204 58.0156 48.3C58.0876 48.388 58.1836 48.468 58.3036 48.54C58.4236 48.604 58.5636 48.664 58.7236 48.72C58.8836 48.776 59.0516 48.832 59.2276 48.888C59.4916 48.976 59.7636 49.076 60.0436 49.188C60.3316 49.292 60.5876 49.436 60.8116 49.62C61.0436 49.804 61.2316 50.044 61.3756 50.34C61.5276 50.628 61.6036 50.996 61.6036 51.444C61.6036 51.916 61.5156 52.324 61.3396 52.668C61.1716 53.012 60.9396 53.3 60.6436 53.532C60.3556 53.756 60.0196 53.92 59.6356 54.024C59.2596 54.136 58.8636 54.192 58.4476 54.192C57.9116 54.192 57.3956 54.112 56.8996 53.952C56.4116 53.792 55.9756 53.548 55.5916 53.22L56.8156 51.66C56.9916 51.868 57.2156 52.032 57.4876 52.152C57.7596 52.264 58.0356 52.32 58.3156 52.32C58.6196 52.32 58.8836 52.256 59.1076 52.128C59.3316 52 59.4436 51.82 59.4436 51.588C59.4436 51.436 59.3956 51.312 59.2996 51.216C59.2036 51.112 59.0756 51.024 58.9156 50.952C58.7636 50.872 58.5836 50.8 58.3756 50.736C58.1676 50.672 57.9556 50.604 57.7396 50.532C57.4996 50.452 57.2596 50.352 57.0196 50.232C56.7876 50.112 56.5756 49.96 56.3836 49.776C56.1996 49.592 56.0476 49.368 55.9276 49.104C55.8156 48.832 55.7596 48.504 55.7596 48.12C55.7596 47.736 55.8396 47.388 55.9996 47.076C56.1596 46.764 56.3756 46.5 56.6476 46.284C56.9196 46.06 57.2356 45.888 57.5956 45.768C57.9636 45.64 58.3516 45.576 58.7596 45.576C59.2396 45.576 59.7076 45.66 60.1636 45.828C60.6196 45.988 61.0316 46.22 61.3996 46.524L60.2836 47.94ZM67.2275 45.768L67.5875 47.508H64.6115V48.936H66.7355V50.676H64.6115V52.26H67.8395L67.3355 54H62.5715V45.768H67.2275ZM70.7435 45.768C71.7915 45.768 72.5995 45.976 73.1675 46.392C73.7355 46.808 74.0195 47.448 74.0195 48.312C74.0195 48.544 73.9875 48.772 73.9235 48.996C73.8595 49.212 73.7675 49.412 73.6475 49.596C73.5275 49.78 73.3835 49.944 73.2155 50.088C73.0555 50.224 72.8795 50.328 72.6875 50.4L74.9075 53.532L72.8435 54.192L70.4435 50.304H70.4195V53.904L68.3795 54.096V45.768H70.7435ZM70.4195 49.812C70.4595 49.82 70.4995 49.824 70.5395 49.824C70.5795 49.824 70.6195 49.824 70.6595 49.824C70.8195 49.824 70.9795 49.808 71.1395 49.776C71.2995 49.736 71.4395 49.672 71.5595 49.584C71.6875 49.488 71.7875 49.364 71.8595 49.212C71.9395 49.052 71.9795 48.852 71.9795 48.612C71.9795 48.324 71.9035 48.08 71.7515 47.88C71.6075 47.68 71.3355 47.56 70.9355 47.52C70.8555 47.512 70.7715 47.508 70.6835 47.508C70.6035 47.508 70.5155 47.508 70.4195 47.508V49.812ZM76.1326 45.576L77.7166 49.944H77.7406L79.3486 45.576L81.4126 45.972L77.6686 54.192H77.6446L74.0566 45.972L76.1326 45.576ZM86.3525 45.768L86.7125 47.508H83.7365V48.936H85.8605V50.676H83.7365V52.26H86.9645L86.4605 54H81.6965V45.768H86.3525ZM89.6885 50.76C89.6885 51.264 89.7885 51.652 89.9885 51.924C90.1965 52.188 90.5245 52.32 90.9725 52.32C91.1885 52.32 91.3845 52.296 91.5605 52.248C91.7365 52.192 91.8885 52.096 92.0165 51.96C92.1525 51.816 92.2565 51.62 92.3285 51.372C92.4005 51.124 92.4365 50.804 92.4365 50.412V45.768L94.4765 45.576V51.18C94.4765 51.66 94.3845 52.088 94.2005 52.464C94.0165 52.84 93.7605 53.156 93.4325 53.412C93.1125 53.668 92.7365 53.864 92.3045 54C91.8725 54.128 91.4085 54.192 90.9125 54.192C89.8485 54.192 89.0365 53.94 88.4765 53.436C87.9245 52.924 87.6485 52.22 87.6485 51.324V45.768L89.6885 45.576V50.76ZM97.8725 45.768C98.9205 45.768 99.7285 45.976 100.296 46.392C100.864 46.808 101.148 47.448 101.148 48.312C101.148 48.544 101.116 48.772 101.052 48.996C100.988 49.212 100.896 49.412 100.776 49.596C100.656 49.78 100.512 49.944 100.344 50.088C100.184 50.224 100.008 50.328 99.8165 50.4L102.036 53.532L99.9725 54.192L97.5725 50.304H97.5485V53.904L95.5085 54.096V45.768H97.8725ZM97.5485 49.812C97.5885 49.82 97.6285 49.824 97.6685 49.824C97.7085 49.824 97.7485 49.824 97.7885 49.824C97.9485 49.824 98.1085 49.808 98.2685 49.776C98.4285 49.736 98.5685 49.672 98.6885 49.584C98.8165 49.488 98.9165 49.364 98.9885 49.212C99.0685 49.052 99.1085 48.852 99.1085 48.612C99.1085 48.324 99.0325 48.08 98.8805 47.88C98.7365 47.68 98.4645 47.56 98.0645 47.52C97.9845 47.512 97.9005 47.508 97.8125 47.508C97.7325 47.508 97.6445 47.508 97.5485 47.508V49.812Z" fill="black"/>
<path d="M15.736 77.19H18.355L17.995 78H14.854V71.826L15.736 71.682V77.19ZM20.995 78.144C20.647 78.144 20.323 78.081 20.023 77.955C19.723 77.829 19.462 77.655 19.24 77.433C19.018 77.211 18.841 76.956 18.709 76.668C18.583 76.374 18.52 76.059 18.52 75.723C18.52 75.387 18.583 75.072 18.709 74.778C18.841 74.484 19.018 74.229 19.24 74.013C19.462 73.791 19.723 73.617 20.023 73.491C20.329 73.365 20.653 73.302 20.995 73.302C21.343 73.302 21.667 73.368 21.967 73.5C22.273 73.626 22.537 73.8 22.759 74.022C22.981 74.238 23.155 74.493 23.281 74.787C23.413 75.081 23.479 75.393 23.479 75.723C23.479 76.053 23.416 76.365 23.29 76.659C23.164 76.953 22.987 77.211 22.759 77.433C22.537 77.649 22.273 77.823 21.967 77.955C21.667 78.081 21.343 78.144 20.995 78.144ZM20.995 77.334C21.223 77.334 21.436 77.292 21.634 77.208C21.832 77.118 22.003 77.001 22.147 76.857C22.291 76.707 22.405 76.536 22.489 76.344C22.573 76.146 22.615 75.939 22.615 75.723C22.615 75.507 22.573 75.303 22.489 75.111C22.411 74.919 22.3 74.748 22.156 74.598C22.012 74.448 21.838 74.331 21.634 74.247C21.436 74.157 21.22 74.112 20.986 74.112C20.764 74.112 20.554 74.154 20.356 74.238C20.164 74.322 19.996 74.439 19.852 74.589C19.708 74.733 19.594 74.904 19.51 75.102C19.426 75.294 19.384 75.501 19.384 75.723C19.384 75.939 19.423 76.146 19.501 76.344C19.585 76.536 19.699 76.707 19.843 76.857C19.987 77.001 20.158 77.118 20.356 77.208C20.554 77.292 20.767 77.334 20.995 77.334ZM24.364 73.302L25.795 76.101L27.127 73.302L27.883 73.446L24.994 79.476L24.22 79.26L25.381 76.983L23.608 73.446L24.364 73.302ZM29.173 76.596C29.317 76.824 29.494 77.004 29.704 77.136C29.914 77.268 30.154 77.334 30.424 77.334C30.526 77.334 30.634 77.322 30.748 77.298C30.862 77.274 30.985 77.235 31.117 77.181C31.255 77.121 31.405 77.04 31.567 76.938C31.735 76.836 31.918 76.704 32.116 76.542L32.287 77.451C31.999 77.649 31.714 77.814 31.432 77.946C31.156 78.078 30.838 78.144 30.478 78.144C30.124 78.144 29.797 78.081 29.497 77.955C29.203 77.829 28.948 77.655 28.732 77.433C28.522 77.205 28.357 76.935 28.237 76.623C28.117 76.311 28.057 75.969 28.057 75.597C28.057 75.297 28.117 75.009 28.237 74.733C28.357 74.457 28.519 74.214 28.723 74.004C28.933 73.788 29.176 73.617 29.452 73.491C29.728 73.365 30.022 73.302 30.334 73.302C30.826 73.302 31.228 73.41 31.54 73.626C31.852 73.842 32.131 74.151 32.377 74.553L29.173 76.596ZM31.189 74.409C31.087 74.295 30.967 74.217 30.829 74.175C30.697 74.133 30.55 74.112 30.388 74.112C30.178 74.112 29.983 74.151 29.803 74.229C29.623 74.301 29.467 74.403 29.335 74.535C29.203 74.661 29.098 74.817 29.02 75.003C28.948 75.183 28.912 75.381 28.912 75.597C28.912 75.627 28.912 75.666 28.912 75.714C28.912 75.762 28.915 75.807 28.921 75.849L31.189 74.409ZM35.542 74.148H35.452C35.248 74.148 35.062 74.19 34.894 74.274C34.726 74.352 34.582 74.466 34.462 74.616C34.348 74.76 34.258 74.934 34.192 75.138C34.132 75.342 34.102 75.567 34.102 75.813V78L33.238 78.144V73.446L34.048 73.302V74.283H34.066C34.222 73.959 34.411 73.713 34.633 73.545C34.855 73.371 35.146 73.284 35.506 73.284H35.902L35.542 74.148Z" fill="black"/>
<path d="M130.007 72.564C129.905 72.462 129.77 72.378 129.602 72.312C129.44 72.24 129.263 72.204 129.071 72.204C128.873 72.204 128.687 72.249 128.513 72.339C128.339 72.423 128.18 72.546 128.036 72.708C127.892 72.864 127.766 73.056 127.658 73.284C127.55 73.512 127.469 73.764 127.415 74.04H129.278L129.188 74.517H127.334C127.322 74.583 127.316 74.646 127.316 74.706C127.316 74.766 127.316 74.829 127.316 74.895C127.316 74.943 127.316 74.988 127.316 75.03C127.316 75.072 127.319 75.117 127.325 75.165H129.062L128.972 75.642H127.37C127.466 76.26 127.667 76.746 127.973 77.1C128.285 77.448 128.657 77.622 129.089 77.622C129.269 77.622 129.443 77.589 129.611 77.523C129.779 77.451 129.926 77.358 130.052 77.244L129.971 77.91C129.827 78.012 129.671 78.075 129.503 78.099C129.341 78.129 129.206 78.144 129.098 78.144C128.81 78.144 128.537 78.084 128.279 77.964C128.027 77.844 127.799 77.676 127.595 77.46C127.397 77.244 127.229 76.983 127.091 76.677C126.953 76.371 126.854 76.026 126.794 75.642H125.984L126.074 75.165H126.749C126.743 75.117 126.74 75.072 126.74 75.03C126.74 74.982 126.74 74.937 126.74 74.895C126.74 74.829 126.74 74.766 126.74 74.706C126.746 74.646 126.752 74.583 126.758 74.517H125.984L126.074 74.04H126.821C126.887 73.698 126.989 73.383 127.127 73.095C127.271 72.807 127.442 72.558 127.64 72.348C127.838 72.138 128.06 71.976 128.306 71.862C128.558 71.742 128.825 71.682 129.107 71.682C129.257 71.682 129.407 71.7 129.557 71.736C129.713 71.772 129.833 71.829 129.917 71.907L130.007 72.564Z" fill="black"/>
<path d="M135.703 71.682H135.721V78L134.839 78.072V73.221L133.579 74.004L133.264 73.446L135.703 71.682ZM140.002 78.144C139.588 78.144 139.237 78.048 138.949 77.856C138.661 77.658 138.43 77.406 138.256 77.1C138.082 76.788 137.956 76.44 137.878 76.056C137.8 75.666 137.761 75.282 137.761 74.904C137.761 74.676 137.776 74.439 137.806 74.193C137.836 73.947 137.884 73.704 137.95 73.464C138.022 73.224 138.115 72.996 138.229 72.78C138.343 72.564 138.481 72.375 138.643 72.213C138.811 72.051 139.006 71.922 139.228 71.826C139.45 71.73 139.708 71.682 140.002 71.682C140.422 71.682 140.773 71.781 141.055 71.979C141.343 72.177 141.574 72.432 141.748 72.744C141.928 73.056 142.054 73.404 142.126 73.788C142.204 74.172 142.243 74.553 142.243 74.931C142.243 75.273 142.207 75.633 142.135 76.011C142.063 76.383 141.94 76.728 141.766 77.046C141.598 77.364 141.37 77.628 141.082 77.838C140.794 78.042 140.434 78.144 140.002 78.144ZM140.002 77.334C140.452 77.334 140.791 77.127 141.019 76.713C141.247 76.293 141.361 75.693 141.361 74.913C141.361 74.145 141.247 73.551 141.019 73.131C140.797 72.705 140.455 72.492 139.993 72.492C139.573 72.492 139.243 72.693 139.003 73.095C138.763 73.491 138.643 74.097 138.643 74.913C138.643 75.693 138.757 76.293 138.985 76.713C139.213 77.127 139.552 77.334 140.002 77.334Z" fill="black"/>
<path d="M17.4142 87.682L20.5552 93.964L19.6732 94.144L18.6202 92.02H16.1362L15.0922 94.144L14.2642 93.964L17.3962 87.682H17.4142ZM16.5052 91.21H18.2602L17.3782 89.437L16.5052 91.21ZM20.7611 89.302L22.0751 92.398L23.3801 89.302L24.1991 89.446L22.0841 94.144H22.0661L19.9511 89.446L20.7611 89.302ZM25.4982 92.596C25.6422 92.824 25.8192 93.004 26.0292 93.136C26.2392 93.268 26.4792 93.334 26.7492 93.334C26.8512 93.334 26.9592 93.322 27.0732 93.298C27.1872 93.274 27.3102 93.235 27.4422 93.181C27.5802 93.121 27.7302 93.04 27.8922 92.938C28.0602 92.836 28.2432 92.704 28.4412 92.542L28.6122 93.451C28.3242 93.649 28.0392 93.814 27.7572 93.946C27.4812 94.078 27.1632 94.144 26.8032 94.144C26.4492 94.144 26.1222 94.081 25.8222 93.955C25.5282 93.829 25.2732 93.655 25.0572 93.433C24.8472 93.205 24.6822 92.935 24.5622 92.623C24.4422 92.311 24.3822 91.969 24.3822 91.597C24.3822 91.297 24.4422 91.009 24.5622 90.733C24.6822 90.457 24.8442 90.214 25.0482 90.004C25.2582 89.788 25.5012 89.617 25.7772 89.491C26.0532 89.365 26.3472 89.302 26.6592 89.302C27.1512 89.302 27.5532 89.41 27.8652 89.626C28.1772 89.842 28.4562 90.151 28.7022 90.553L25.4982 92.596ZM27.5142 90.409C27.4122 90.295 27.2922 90.217 27.1542 90.175C27.0222 90.133 26.8752 90.112 26.7132 90.112C26.5032 90.112 26.3082 90.151 26.1282 90.229C25.9482 90.301 25.7922 90.403 25.6602 90.535C25.5282 90.661 25.4232 90.817 25.3452 91.003C25.2732 91.183 25.2372 91.381 25.2372 91.597C25.2372 91.627 25.2372 91.666 25.2372 91.714C25.2372 91.762 25.2402 91.807 25.2462 91.849L27.5142 90.409ZM32.8301 90.535C32.6081 90.367 32.4131 90.256 32.2451 90.202C32.0771 90.142 31.8881 90.112 31.6781 90.112C31.4621 90.112 31.2641 90.157 31.0841 90.247C30.9041 90.337 30.7481 90.457 30.6161 90.607C30.4901 90.757 30.3911 90.931 30.3191 91.129C30.2471 91.321 30.2111 91.522 30.2111 91.732C30.2111 91.93 30.2501 92.125 30.3281 92.317C30.4121 92.509 30.5201 92.68 30.6521 92.83C30.7901 92.98 30.9491 93.103 31.1291 93.199C31.3091 93.289 31.4981 93.334 31.6961 93.334C31.9421 93.334 32.1521 93.283 32.3261 93.181C32.5001 93.079 32.6651 92.95 32.8211 92.794L33.3791 93.361C33.1511 93.601 32.8931 93.793 32.6051 93.937C32.3231 94.075 32.0111 94.144 31.6691 94.144C31.3631 94.144 31.0691 94.084 30.7871 93.964C30.5111 93.838 30.2651 93.667 30.0491 93.451C29.8391 93.235 29.6681 92.983 29.5361 92.695C29.4101 92.401 29.3471 92.089 29.3471 91.759C29.3471 91.417 29.4041 91.096 29.5181 90.796C29.6381 90.496 29.8001 90.238 30.0041 90.022C30.2141 89.8 30.4601 89.626 30.7421 89.5C31.0241 89.368 31.3331 89.302 31.6691 89.302C31.8791 89.302 32.0711 89.326 32.2451 89.374C32.4251 89.416 32.5841 89.47 32.7221 89.536C32.8661 89.602 32.9891 89.671 33.0911 89.743C33.1991 89.815 33.2861 89.881 33.3521 89.941L32.8301 90.535ZM40.141 89.743L39.601 89.878C39.985 90.118 40.177 90.484 40.177 90.976C40.177 91.288 40.096 91.561 39.934 91.795C39.772 92.029 39.538 92.197 39.232 92.299V92.317C39.58 92.437 39.853 92.629 40.051 92.893C40.249 93.151 40.348 93.469 40.348 93.847C40.348 94.123 40.294 94.372 40.186 94.594C40.084 94.816 39.937 95.005 39.745 95.161C39.559 95.323 39.337 95.446 39.079 95.53C38.827 95.614 38.554 95.656 38.26 95.656C37.81 95.656 37.435 95.56 37.135 95.368C36.835 95.182 36.559 94.918 36.307 94.576L36.946 94.072C37.108 94.33 37.288 94.531 37.486 94.675C37.69 94.819 37.951 94.891 38.269 94.891C38.443 94.891 38.602 94.867 38.746 94.819C38.896 94.771 39.025 94.702 39.133 94.612C39.241 94.522 39.325 94.414 39.385 94.288C39.451 94.162 39.484 94.024 39.484 93.874C39.484 93.514 39.37 93.232 39.142 93.028C38.914 92.824 38.62 92.722 38.26 92.722C38.038 92.722 37.84 92.752 37.666 92.812C37.492 92.872 37.324 92.953 37.162 93.055L37.324 92.416C36.982 92.302 36.73 92.116 36.568 91.858C36.412 91.6 36.334 91.297 36.334 90.949C36.334 90.679 36.382 90.445 36.478 90.247C36.58 90.043 36.709 89.875 36.865 89.743C37.027 89.605 37.21 89.5 37.414 89.428C37.618 89.356 37.825 89.314 38.035 89.302C38.077 89.302 38.137 89.299 38.215 89.293C38.299 89.287 38.386 89.284 38.476 89.284C38.566 89.278 38.653 89.272 38.737 89.266C38.821 89.26 38.887 89.254 38.935 89.248C39.205 89.224 39.442 89.185 39.646 89.131C39.85 89.071 40.081 88.993 40.339 88.897L40.141 89.743ZM38.269 91.993C38.575 91.993 38.824 91.897 39.016 91.705C39.214 91.513 39.313 91.27 39.313 90.976C39.313 90.67 39.214 90.436 39.016 90.274C38.818 90.112 38.566 90.031 38.26 90.031C37.954 90.031 37.699 90.118 37.495 90.292C37.297 90.46 37.198 90.688 37.198 90.976C37.198 91.282 37.291 91.528 37.477 91.714C37.663 91.9 37.927 91.993 38.269 91.993ZM43.372 90.148H43.282C43.078 90.148 42.892 90.19 42.724 90.274C42.556 90.352 42.412 90.466 42.292 90.616C42.178 90.76 42.088 90.934 42.022 91.138C41.962 91.342 41.932 91.567 41.932 91.813V94L41.068 94.144V89.446L41.878 89.302V90.283H41.896C42.052 89.959 42.241 89.713 42.463 89.545C42.685 89.371 42.976 89.284 43.336 89.284H43.732L43.372 90.148ZM46.3241 94.144C45.9761 94.144 45.6521 94.081 45.3521 93.955C45.0521 93.829 44.7911 93.655 44.5691 93.433C44.3471 93.211 44.1701 92.956 44.0381 92.668C43.9121 92.374 43.8491 92.059 43.8491 91.723C43.8491 91.387 43.9121 91.072 44.0381 90.778C44.1701 90.484 44.3471 90.229 44.5691 90.013C44.7911 89.791 45.0521 89.617 45.3521 89.491C45.6581 89.365 45.9821 89.302 46.3241 89.302C46.6721 89.302 46.9961 89.368 47.2961 89.5C47.6021 89.626 47.8661 89.8 48.0881 90.022C48.3101 90.238 48.4841 90.493 48.6101 90.787C48.7421 91.081 48.8081 91.393 48.8081 91.723C48.8081 92.053 48.7451 92.365 48.6191 92.659C48.4931 92.953 48.3161 93.211 48.0881 93.433C47.8661 93.649 47.6021 93.823 47.2961 93.955C46.9961 94.081 46.6721 94.144 46.3241 94.144ZM46.3241 93.334C46.5521 93.334 46.7651 93.292 46.9631 93.208C47.1611 93.118 47.3321 93.001 47.4761 92.857C47.6201 92.707 47.7341 92.536 47.8181 92.344C47.9021 92.146 47.9441 91.939 47.9441 91.723C47.9441 91.507 47.9021 91.303 47.8181 91.111C47.7401 90.919 47.6291 90.748 47.4851 90.598C47.3411 90.448 47.1671 90.331 46.9631 90.247C46.7651 90.157 46.5491 90.112 46.3151 90.112C46.0931 90.112 45.8831 90.154 45.6851 90.238C45.4931 90.322 45.3251 90.439 45.1811 90.589C45.0371 90.733 44.9231 90.904 44.8391 91.102C44.7551 91.294 44.7131 91.501 44.7131 91.723C44.7131 91.939 44.7521 92.146 44.8301 92.344C44.9141 92.536 45.0281 92.707 45.1721 92.857C45.3161 93.001 45.4871 93.118 45.6851 93.208C45.8831 93.292 46.0961 93.334 46.3241 93.334ZM50.4311 92.515C50.4311 92.785 50.5181 92.998 50.6921 93.154C50.8661 93.304 51.1151 93.379 51.4391 93.379C51.8171 93.379 52.1261 93.262 52.3661 93.028C52.6061 92.788 52.7261 92.452 52.7261 92.02V89.446L53.5901 89.302V94L52.7441 94.144V93.469H52.7261C52.5881 93.703 52.3931 93.874 52.1411 93.982C51.8891 94.09 51.6281 94.144 51.3581 94.144C51.0881 94.144 50.8421 94.108 50.6201 94.036C50.4041 93.97 50.2151 93.871 50.0531 93.739C49.8971 93.607 49.7771 93.451 49.6931 93.271C49.6091 93.085 49.5671 92.875 49.5671 92.641V89.446L50.4311 89.302V92.515ZM55.324 90.067C55.54 89.815 55.783 89.626 56.053 89.5C56.329 89.368 56.638 89.302 56.98 89.302C57.292 89.302 57.589 89.365 57.871 89.491C58.153 89.617 58.399 89.791 58.609 90.013C58.825 90.229 58.996 90.487 59.122 90.787C59.248 91.081 59.311 91.399 59.311 91.741C59.311 92.089 59.251 92.41 59.131 92.704C59.011 92.998 58.846 93.253 58.636 93.469C58.426 93.679 58.18 93.844 57.898 93.964C57.616 94.084 57.31 94.144 56.98 94.144C56.638 94.144 56.326 94.081 56.044 93.955C55.762 93.829 55.54 93.673 55.378 93.487V95.548L54.514 95.656V89.446L55.324 89.302V90.067ZM56.809 93.334C57.049 93.334 57.268 93.295 57.466 93.217C57.67 93.139 57.844 93.031 57.988 92.893C58.132 92.749 58.243 92.578 58.321 92.38C58.405 92.182 58.447 91.966 58.447 91.732C58.447 91.504 58.408 91.291 58.33 91.093C58.252 90.895 58.141 90.724 57.997 90.58C57.859 90.436 57.694 90.322 57.502 90.238C57.31 90.154 57.1 90.112 56.872 90.112C56.644 90.112 56.431 90.154 56.233 90.238C56.041 90.322 55.873 90.439 55.729 90.589C55.585 90.733 55.471 90.904 55.387 91.102C55.309 91.3 55.27 91.51 55.27 91.732C55.27 91.942 55.309 92.143 55.387 92.335C55.471 92.527 55.582 92.698 55.72 92.848C55.858 92.992 56.02 93.109 56.206 93.199C56.398 93.289 56.599 93.334 56.809 93.334ZM61.006 92.596C61.15 92.824 61.327 93.004 61.537 93.136C61.747 93.268 61.987 93.334 62.257 93.334C62.359 93.334 62.467 93.322 62.581 93.298C62.695 93.274 62.818 93.235 62.95 93.181C63.088 93.121 63.238 93.04 63.4 92.938C63.568 92.836 63.751 92.704 63.949 92.542L64.12 93.451C63.832 93.649 63.547 93.814 63.265 93.946C62.989 94.078 62.671 94.144 62.311 94.144C61.957 94.144 61.63 94.081 61.33 93.955C61.036 93.829 60.781 93.655 60.565 93.433C60.355 93.205 60.19 92.935 60.07 92.623C59.95 92.311 59.89 91.969 59.89 91.597C59.89 91.297 59.95 91.009 60.07 90.733C60.19 90.457 60.352 90.214 60.556 90.004C60.766 89.788 61.009 89.617 61.285 89.491C61.561 89.365 61.855 89.302 62.167 89.302C62.659 89.302 63.061 89.41 63.373 89.626C63.685 89.842 63.964 90.151 64.21 90.553L61.006 92.596ZM63.022 90.409C62.92 90.295 62.8 90.217 62.662 90.175C62.53 90.133 62.383 90.112 62.221 90.112C62.011 90.112 61.816 90.151 61.636 90.229C61.456 90.301 61.3 90.403 61.168 90.535C61.036 90.661 60.931 90.817 60.853 91.003C60.781 91.183 60.745 91.381 60.745 91.597C60.745 91.627 60.745 91.666 60.745 91.714C60.745 91.762 60.748 91.807 60.754 91.849L63.022 90.409ZM70.8428 90.535C70.6208 90.367 70.4258 90.256 70.2578 90.202C70.0898 90.142 69.9008 90.112 69.6908 90.112C69.4748 90.112 69.2768 90.157 69.0968 90.247C68.9168 90.337 68.7608 90.457 68.6288 90.607C68.5028 90.757 68.4038 90.931 68.3318 91.129C68.2598 91.321 68.2238 91.522 68.2238 91.732C68.2238 91.93 68.2628 92.125 68.3408 92.317C68.4248 92.509 68.5328 92.68 68.6648 92.83C68.8028 92.98 68.9618 93.103 69.1418 93.199C69.3218 93.289 69.5108 93.334 69.7088 93.334C69.9548 93.334 70.1648 93.283 70.3388 93.181C70.5128 93.079 70.6778 92.95 70.8338 92.794L71.3918 93.361C71.1638 93.601 70.9058 93.793 70.6178 93.937C70.3358 94.075 70.0238 94.144 69.6818 94.144C69.3758 94.144 69.0818 94.084 68.7998 93.964C68.5238 93.838 68.2778 93.667 68.0618 93.451C67.8518 93.235 67.6808 92.983 67.5488 92.695C67.4228 92.401 67.3598 92.089 67.3598 91.759C67.3598 91.417 67.4168 91.096 67.5308 90.796C67.6508 90.496 67.8128 90.238 68.0168 90.022C68.2268 89.8 68.4728 89.626 68.7548 89.5C69.0368 89.368 69.3458 89.302 69.6818 89.302C69.8918 89.302 70.0838 89.326 70.2578 89.374C70.4378 89.416 70.5968 89.47 70.7348 89.536C70.8788 89.602 71.0018 89.671 71.1038 89.743C71.2118 89.815 71.2988 89.881 71.3648 89.941L70.8428 90.535ZM74.3348 94.144C73.9868 94.144 73.6628 94.081 73.3628 93.955C73.0628 93.829 72.8018 93.655 72.5798 93.433C72.3578 93.211 72.1808 92.956 72.0488 92.668C71.9228 92.374 71.8598 92.059 71.8598 91.723C71.8598 91.387 71.9228 91.072 72.0488 90.778C72.1808 90.484 72.3578 90.229 72.5798 90.013C72.8018 89.791 73.0628 89.617 73.3628 89.491C73.6688 89.365 73.9928 89.302 74.3348 89.302C74.6828 89.302 75.0068 89.368 75.3068 89.5C75.6128 89.626 75.8768 89.8 76.0988 90.022C76.3208 90.238 76.4948 90.493 76.6208 90.787C76.7528 91.081 76.8188 91.393 76.8188 91.723C76.8188 92.053 76.7558 92.365 76.6298 92.659C76.5038 92.953 76.3268 93.211 76.0988 93.433C75.8768 93.649 75.6128 93.823 75.3068 93.955C75.0068 94.081 74.6828 94.144 74.3348 94.144ZM74.3348 93.334C74.5628 93.334 74.7758 93.292 74.9738 93.208C75.1718 93.118 75.3428 93.001 75.4868 92.857C75.6308 92.707 75.7448 92.536 75.8288 92.344C75.9128 92.146 75.9548 91.939 75.9548 91.723C75.9548 91.507 75.9128 91.303 75.8288 91.111C75.7508 90.919 75.6398 90.748 75.4958 90.598C75.3518 90.448 75.1778 90.331 74.9738 90.247C74.7758 90.157 74.5598 90.112 74.3258 90.112C74.1038 90.112 73.8938 90.154 73.6958 90.238C73.5038 90.322 73.3358 90.439 73.1918 90.589C73.0478 90.733 72.9338 90.904 72.8498 91.102C72.7658 91.294 72.7238 91.501 72.7238 91.723C72.7238 91.939 72.7628 92.146 72.8408 92.344C72.9248 92.536 73.0388 92.707 73.1828 92.857C73.3268 93.001 73.4978 93.118 73.6958 93.208C73.8938 93.292 74.1068 93.334 74.3348 93.334ZM78.3968 89.923H78.4148C78.5048 89.749 78.6488 89.602 78.8468 89.482C79.0508 89.362 79.2908 89.302 79.5668 89.302C79.8308 89.302 80.0648 89.347 80.2688 89.437C80.4788 89.527 80.6408 89.704 80.7548 89.968C80.8448 89.788 81.0128 89.632 81.2588 89.5C81.5108 89.368 81.7928 89.302 82.1048 89.302C82.5728 89.302 82.9418 89.431 83.2118 89.689C83.4818 89.941 83.6168 90.283 83.6168 90.715V94L82.7528 94.144V90.877C82.7528 90.661 82.6988 90.472 82.5908 90.31C82.4828 90.148 82.2908 90.067 82.0148 90.067C81.7328 90.067 81.4958 90.151 81.3038 90.319C81.1178 90.481 81.0248 90.697 81.0248 90.967V94L80.1608 94.144V90.877C80.1608 90.661 80.1068 90.472 79.9988 90.31C79.8908 90.148 79.6988 90.067 79.4228 90.067C79.2908 90.067 79.1648 90.088 79.0448 90.13C78.9248 90.172 78.8198 90.232 78.7298 90.31C78.6398 90.388 78.5678 90.484 78.5138 90.598C78.4598 90.706 78.4328 90.829 78.4328 90.967V94L77.5688 94.144V89.446L78.3968 89.302V89.923ZM85.3387 90.067C85.5547 89.815 85.7977 89.626 86.0677 89.5C86.3437 89.368 86.6527 89.302 86.9947 89.302C87.3067 89.302 87.6037 89.365 87.8857 89.491C88.1677 89.617 88.4137 89.791 88.6237 90.013C88.8397 90.229 89.0107 90.487 89.1367 90.787C89.2627 91.081 89.3257 91.399 89.3257 91.741C89.3257 92.089 89.2657 92.41 89.1457 92.704C89.0257 92.998 88.8607 93.253 88.6507 93.469C88.4407 93.679 88.1947 93.844 87.9127 93.964C87.6307 94.084 87.3247 94.144 86.9947 94.144C86.6527 94.144 86.3407 94.081 86.0587 93.955C85.7767 93.829 85.5547 93.673 85.3927 93.487V95.548L84.5287 95.656V89.446L85.3387 89.302V90.067ZM86.8237 93.334C87.0637 93.334 87.2827 93.295 87.4807 93.217C87.6847 93.139 87.8587 93.031 88.0027 92.893C88.1467 92.749 88.2577 92.578 88.3357 92.38C88.4197 92.182 88.4617 91.966 88.4617 91.732C88.4617 91.504 88.4227 91.291 88.3447 91.093C88.2667 90.895 88.1557 90.724 88.0117 90.58C87.8737 90.436 87.7087 90.322 87.5167 90.238C87.3247 90.154 87.1147 90.112 86.8867 90.112C86.6587 90.112 86.4457 90.154 86.2477 90.238C86.0557 90.322 85.8877 90.439 85.7437 90.589C85.5997 90.733 85.4857 90.904 85.4017 91.102C85.3237 91.3 85.2847 91.51 85.2847 91.732C85.2847 91.942 85.3237 92.143 85.4017 92.335C85.4857 92.527 85.5967 92.698 85.7347 92.848C85.8727 92.992 86.0347 93.109 86.2207 93.199C86.4127 93.289 86.6137 93.334 86.8237 93.334ZM91.0296 94L90.1656 94.108V87.781L91.0296 87.637V94ZM93.0158 92.596C93.1598 92.824 93.3368 93.004 93.5468 93.136C93.7568 93.268 93.9968 93.334 94.2668 93.334C94.3688 93.334 94.4768 93.322 94.5908 93.298C94.7048 93.274 94.8278 93.235 94.9598 93.181C95.0978 93.121 95.2478 93.04 95.4098 92.938C95.5778 92.836 95.7608 92.704 95.9588 92.542L96.1298 93.451C95.8418 93.649 95.5568 93.814 95.2748 93.946C94.9988 94.078 94.6808 94.144 94.3208 94.144C93.9668 94.144 93.6398 94.081 93.3398 93.955C93.0458 93.829 92.7908 93.655 92.5748 93.433C92.3648 93.205 92.1998 92.935 92.0798 92.623C91.9598 92.311 91.8998 91.969 91.8998 91.597C91.8998 91.297 91.9598 91.009 92.0798 90.733C92.1998 90.457 92.3618 90.214 92.5658 90.004C92.7758 89.788 93.0188 89.617 93.2948 89.491C93.5708 89.365 93.8648 89.302 94.1768 89.302C94.6688 89.302 95.0708 89.41 95.3828 89.626C95.6948 89.842 95.9738 90.151 96.2197 90.553L93.0158 92.596ZM95.0318 90.409C94.9298 90.295 94.8098 90.217 94.6718 90.175C94.5398 90.133 94.3928 90.112 94.2308 90.112C94.0208 90.112 93.8258 90.151 93.6458 90.229C93.4658 90.301 93.3098 90.403 93.1778 90.535C93.0458 90.661 92.9408 90.817 92.8628 91.003C92.7908 91.183 92.7548 91.381 92.7548 91.597C92.7548 91.627 92.7548 91.666 92.7548 91.714C92.7548 91.762 92.7578 91.807 92.7638 91.849L95.0318 90.409ZM98.2237 89.446H99.4387V90.211H98.2237V92.659C98.2237 92.785 98.2357 92.893 98.2597 92.983C98.2837 93.073 98.3257 93.148 98.3857 93.208C98.4457 93.268 98.5267 93.313 98.6287 93.343C98.7367 93.367 98.8717 93.379 99.0337 93.379C99.1357 93.379 99.2317 93.373 99.3217 93.361C99.4117 93.349 99.5077 93.337 99.6097 93.325L99.4567 94.108C99.4267 94.108 99.3577 94.114 99.2497 94.126C99.1477 94.138 98.9947 94.144 98.7907 94.144C98.5567 94.144 98.3497 94.105 98.1697 94.027C97.9957 93.949 97.8487 93.847 97.7287 93.721C97.6087 93.595 97.5157 93.451 97.4497 93.289C97.3897 93.121 97.3597 92.95 97.3597 92.776V90.211H96.6487L96.9547 89.446H97.3597V88.33L98.2237 88.123V89.446Z" fill="black"/>
<path d="M130.007 88.564C129.905 88.462 129.77 88.378 129.602 88.312C129.44 88.24 129.263 88.204 129.071 88.204C128.873 88.204 128.687 88.249 128.513 88.339C128.339 88.423 128.18 88.546 128.036 88.708C127.892 88.864 127.766 89.056 127.658 89.284C127.55 89.512 127.469 89.764 127.415 90.04H129.278L129.188 90.517H127.334C127.322 90.583 127.316 90.646 127.316 90.706C127.316 90.766 127.316 90.829 127.316 90.895C127.316 90.943 127.316 90.988 127.316 91.03C127.316 91.072 127.319 91.117 127.325 91.165H129.062L128.972 91.642H127.37C127.466 92.26 127.667 92.746 127.973 93.1C128.285 93.448 128.657 93.622 129.089 93.622C129.269 93.622 129.443 93.589 129.611 93.523C129.779 93.451 129.926 93.358 130.052 93.244L129.971 93.91C129.827 94.012 129.671 94.075 129.503 94.099C129.341 94.129 129.206 94.144 129.098 94.144C128.81 94.144 128.537 94.084 128.279 93.964C128.027 93.844 127.799 93.676 127.595 93.46C127.397 93.244 127.229 92.983 127.091 92.677C126.953 92.371 126.854 92.026 126.794 91.642H125.984L126.074 91.165H126.749C126.743 91.117 126.74 91.072 126.74 91.03C126.74 90.982 126.74 90.937 126.74 90.895C126.74 90.829 126.74 90.766 126.74 90.706C126.746 90.646 126.752 90.583 126.758 90.517H125.984L126.074 90.04H126.821C126.887 89.698 126.989 89.383 127.127 89.095C127.271 88.807 127.442 88.558 127.64 88.348C127.838 88.138 128.06 87.976 128.306 87.862C128.558 87.742 128.825 87.682 129.107 87.682C129.257 87.682 129.407 87.7 129.557 87.736C129.713 87.772 129.833 87.829 129.917 87.907L130.007 88.564Z" fill="black"/>
<path d="M136.99 89.608C136.99 89.848 136.945 90.088 136.855 90.328C136.765 90.568 136.651 90.802 136.513 91.03C136.375 91.252 136.222 91.465 136.054 91.669C135.886 91.873 135.724 92.059 135.568 92.227L134.659 93.19H137.089L136.927 94H132.886L135.352 91.138C135.442 91.036 135.532 90.922 135.622 90.796C135.712 90.67 135.793 90.541 135.865 90.409C135.937 90.271 135.994 90.136 136.036 90.004C136.084 89.866 136.108 89.734 136.108 89.608C136.108 89.26 136 88.987 135.784 88.789C135.568 88.591 135.28 88.492 134.92 88.492C134.746 88.492 134.587 88.522 134.443 88.582C134.299 88.642 134.173 88.726 134.065 88.834C133.957 88.936 133.873 89.056 133.813 89.194C133.753 89.332 133.723 89.479 133.723 89.635C133.723 90.031 133.822 90.343 134.02 90.571C134.224 90.793 134.479 90.919 134.785 90.949L134.227 91.651C133.831 91.525 133.513 91.285 133.273 90.931C133.033 90.577 132.913 90.136 132.913 89.608C132.913 89.326 132.964 89.068 133.066 88.834C133.174 88.6 133.321 88.399 133.507 88.231C133.693 88.057 133.912 87.922 134.164 87.826C134.416 87.73 134.692 87.682 134.992 87.682C135.274 87.682 135.535 87.727 135.775 87.817C136.021 87.907 136.234 88.036 136.414 88.204C136.594 88.372 136.735 88.576 136.837 88.816C136.939 89.05 136.99 89.314 136.99 89.608ZM140.002 94.144C139.588 94.144 139.237 94.048 138.949 93.856C138.661 93.658 138.43 93.406 138.256 93.1C138.082 92.788 137.956 92.44 137.878 92.056C137.8 91.666 137.761 91.282 137.761 90.904C137.761 90.676 137.776 90.439 137.806 90.193C137.836 89.947 137.884 89.704 137.95 89.464C138.022 89.224 138.115 88.996 138.229 88.78C138.343 88.564 138.481 88.375 138.643 88.213C138.811 88.051 139.006 87.922 139.228 87.826C139.45 87.73 139.708 87.682 140.002 87.682C140.422 87.682 140.773 87.781 141.055 87.979C141.343 88.177 141.574 88.432 141.748 88.744C141.928 89.056 142.054 89.404 142.126 89.788C142.204 90.172 142.243 90.553 142.243 90.931C142.243 91.273 142.207 91.633 142.135 92.011C142.063 92.383 141.94 92.728 141.766 93.046C141.598 93.364 141.37 93.628 141.082 93.838C140.794 94.042 140.434 94.144 140.002 94.144ZM140.002 93.334C140.452 93.334 140.791 93.127 141.019 92.713C141.247 92.293 141.361 91.693 141.361 90.913C141.361 90.145 141.247 89.551 141.019 89.131C140.797 88.705 140.455 88.492 139.993 88.492C139.573 88.492 139.243 88.693 139.003 89.095C138.763 89.491 138.643 90.097 138.643 90.913C138.643 91.693 138.757 92.293 138.985 92.713C139.213 93.127 139.552 93.334 140.002 93.334Z" fill="black"/>
<path d="M15.9835 109.19H18.6025L18.2425 110H15.1015V103.826L15.9835 103.682V109.19ZM21.2426 110.144C20.8946 110.144 20.5706 110.081 20.2706 109.955C19.9706 109.829 19.7096 109.655 19.4876 109.433C19.2656 109.211 19.0886 108.956 18.9566 108.668C18.8306 108.374 18.7676 108.059 18.7676 107.723C18.7676 107.387 18.8306 107.072 18.9566 106.778C19.0886 106.484 19.2656 106.229 19.4876 106.013C19.7096 105.791 19.9706 105.617 20.2706 105.491C20.5766 105.365 20.9006 105.302 21.2426 105.302C21.5906 105.302 21.9146 105.368 22.2146 105.5C22.5206 105.626 22.7846 105.8 23.0066 106.022C23.2286 106.238 23.4026 106.493 23.5286 106.787C23.6606 107.081 23.7266 107.393 23.7266 107.723C23.7266 108.053 23.6636 108.365 23.5376 108.659C23.4116 108.953 23.2346 109.211 23.0066 109.433C22.7846 109.649 22.5206 109.823 22.2146 109.955C21.9146 110.081 21.5906 110.144 21.2426 110.144ZM21.2426 109.334C21.4706 109.334 21.6836 109.292 21.8816 109.208C22.0796 109.118 22.2506 109.001 22.3946 108.857C22.5386 108.707 22.6526 108.536 22.7366 108.344C22.8206 108.146 22.8626 107.939 22.8626 107.723C22.8626 107.507 22.8206 107.303 22.7366 107.111C22.6586 106.919 22.5476 106.748 22.4036 106.598C22.2596 106.448 22.0856 106.331 21.8816 106.247C21.6836 106.157 21.4676 106.112 21.2336 106.112C21.0116 106.112 20.8016 106.154 20.6036 106.238C20.4116 106.322 20.2436 106.439 20.0996 106.589C19.9556 106.733 19.8416 106.904 19.7576 107.102C19.6736 107.294 19.6316 107.501 19.6316 107.723C19.6316 107.939 19.6706 108.146 19.7486 108.344C19.8326 108.536 19.9466 108.707 20.0906 108.857C20.2346 109.001 20.4056 109.118 20.6036 109.208C20.8016 109.292 21.0146 109.334 21.2426 109.334ZM24.6115 105.302L26.0425 108.101L27.3745 105.302L28.1305 105.446L25.2415 111.476L24.4675 111.26L25.6285 108.983L23.8555 105.446L24.6115 105.302ZM29.4205 108.596C29.5645 108.824 29.7415 109.004 29.9515 109.136C30.1615 109.268 30.4015 109.334 30.6715 109.334C30.7735 109.334 30.8815 109.322 30.9955 109.298C31.1095 109.274 31.2325 109.235 31.3645 109.181C31.5025 109.121 31.6525 109.04 31.8145 108.938C31.9825 108.836 32.1655 108.704 32.3635 108.542L32.5345 109.451C32.2465 109.649 31.9615 109.814 31.6795 109.946C31.4035 110.078 31.0855 110.144 30.7255 110.144C30.3715 110.144 30.0445 110.081 29.7445 109.955C29.4505 109.829 29.1955 109.655 28.9795 109.433C28.7695 109.205 28.6045 108.935 28.4845 108.623C28.3645 108.311 28.3045 107.969 28.3045 107.597C28.3045 107.297 28.3645 107.009 28.4845 106.733C28.6045 106.457 28.7665 106.214 28.9705 106.004C29.1805 105.788 29.4235 105.617 29.6995 105.491C29.9755 105.365 30.2695 105.302 30.5815 105.302C31.0735 105.302 31.4755 105.41 31.7875 105.626C32.0995 105.842 32.3785 106.151 32.6245 106.553L29.4205 108.596ZM31.4365 106.409C31.3345 106.295 31.2145 106.217 31.0765 106.175C30.9445 106.133 30.7975 106.112 30.6355 106.112C30.4255 106.112 30.2305 106.151 30.0505 106.229C29.8705 106.301 29.7145 106.403 29.5825 106.535C29.4505 106.661 29.3455 106.817 29.2675 107.003C29.1955 107.183 29.1595 107.381 29.1595 107.597C29.1595 107.627 29.1595 107.666 29.1595 107.714C29.1595 107.762 29.1625 107.807 29.1685 107.849L31.4365 106.409ZM35.7895 106.148H35.6995C35.4955 106.148 35.3095 106.19 35.1415 106.274C34.9735 106.352 34.8295 106.466 34.7095 106.616C34.5955 106.76 34.5055 106.934 34.4395 107.138C34.3795 107.342 34.3495 107.567 34.3495 107.813V110L33.4855 110.144V105.446L34.2955 105.302V106.283H34.3135C34.4695 105.959 34.6585 105.713 34.8805 105.545C35.1025 105.371 35.3935 105.284 35.7535 105.284H36.1495L35.7895 106.148ZM42.5425 110L41.7685 110.144V109.514H41.7505C41.6845 109.64 41.6005 109.745 41.4985 109.829C41.4025 109.913 41.2945 109.976 41.1745 110.018C41.0605 110.066 40.9345 110.099 40.7965 110.117C40.6645 110.135 40.5325 110.144 40.4005 110.144C40.1485 110.144 39.9175 110.099 39.7075 110.009C39.5035 109.925 39.3265 109.805 39.1765 109.649C39.0265 109.487 38.9095 109.298 38.8255 109.082C38.7475 108.866 38.7085 108.629 38.7085 108.371C38.7085 108.137 38.7565 107.921 38.8525 107.723C38.9485 107.525 39.0775 107.354 39.2395 107.21C39.4075 107.066 39.5995 106.955 39.8155 106.877C40.0375 106.799 40.2745 106.76 40.5265 106.76C40.7365 106.76 40.9405 106.793 41.1385 106.859C41.3425 106.925 41.5225 107.039 41.6785 107.201V106.886C41.6785 106.718 41.6575 106.583 41.6155 106.481C41.5735 106.379 41.5075 106.301 41.4175 106.247C41.3335 106.193 41.2225 106.157 41.0845 106.139C40.9465 106.121 40.7815 106.112 40.5895 106.112C40.4035 106.112 40.1965 106.127 39.9685 106.157C39.7405 106.181 39.5065 106.253 39.2665 106.373L39.5005 105.482C39.7165 105.434 39.9325 105.392 40.1485 105.356C40.3645 105.32 40.5655 105.302 40.7515 105.302C41.3935 105.302 41.8525 105.443 42.1285 105.725C42.4045 106.007 42.5425 106.427 42.5425 106.985V110ZM40.5625 109.334C40.9405 109.334 41.2195 109.25 41.3995 109.082C41.5855 108.914 41.6785 108.677 41.6785 108.371C41.6785 108.119 41.5825 107.915 41.3905 107.759C41.1985 107.603 40.9405 107.525 40.6165 107.525C40.3105 107.525 40.0585 107.603 39.8605 107.759C39.6685 107.909 39.5725 108.113 39.5725 108.371C39.5725 108.695 39.6595 108.938 39.8335 109.1C40.0135 109.256 40.2565 109.334 40.5625 109.334ZM43.6855 105.302L44.9995 108.398L46.3045 105.302L47.1235 105.446L45.0085 110.144H44.9905L42.8755 105.446L43.6855 105.302ZM48.4225 108.596C48.5665 108.824 48.7435 109.004 48.9535 109.136C49.1635 109.268 49.4035 109.334 49.6735 109.334C49.7755 109.334 49.8835 109.322 49.9975 109.298C50.1115 109.274 50.2345 109.235 50.3665 109.181C50.5045 109.121 50.6545 109.04 50.8165 108.938C50.9845 108.836 51.1675 108.704 51.3655 108.542L51.5365 109.451C51.2485 109.649 50.9635 109.814 50.6815 109.946C50.4055 110.078 50.0875 110.144 49.7275 110.144C49.3735 110.144 49.0465 110.081 48.7465 109.955C48.4525 109.829 48.1975 109.655 47.9815 109.433C47.7715 109.205 47.6065 108.935 47.4865 108.623C47.3665 108.311 47.3065 107.969 47.3065 107.597C47.3065 107.297 47.3665 107.009 47.4865 106.733C47.6065 106.457 47.7685 106.214 47.9725 106.004C48.1825 105.788 48.4255 105.617 48.7015 105.491C48.9775 105.365 49.2715 105.302 49.5835 105.302C50.0755 105.302 50.4775 105.41 50.7895 105.626C51.1015 105.842 51.3805 106.151 51.6265 106.553L48.4225 108.596ZM50.4385 106.409C50.3365 106.295 50.2165 106.217 50.0785 106.175C49.9465 106.133 49.7995 106.112 49.6375 106.112C49.4275 106.112 49.2325 106.151 49.0525 106.229C48.8725 106.301 48.7165 106.403 48.5845 106.535C48.4525 106.661 48.3475 106.817 48.2695 107.003C48.1975 107.183 48.1615 107.381 48.1615 107.597C48.1615 107.627 48.1615 107.666 48.1615 107.714C48.1615 107.762 48.1645 107.807 48.1705 107.849L50.4385 106.409ZM55.7545 106.535C55.5325 106.367 55.3375 106.256 55.1695 106.202C55.0015 106.142 54.8125 106.112 54.6025 106.112C54.3865 106.112 54.1885 106.157 54.0085 106.247C53.8285 106.337 53.6725 106.457 53.5405 106.607C53.4145 106.757 53.3155 106.931 53.2435 107.129C53.1715 107.321 53.1355 107.522 53.1355 107.732C53.1355 107.93 53.1745 108.125 53.2525 108.317C53.3365 108.509 53.4445 108.68 53.5765 108.83C53.7145 108.98 53.8735 109.103 54.0535 109.199C54.2335 109.289 54.4225 109.334 54.6205 109.334C54.8665 109.334 55.0765 109.283 55.2505 109.181C55.4245 109.079 55.5895 108.95 55.7455 108.794L56.3035 109.361C56.0755 109.601 55.8175 109.793 55.5295 109.937C55.2475 110.075 54.9355 110.144 54.5935 110.144C54.2875 110.144 53.9935 110.084 53.7115 109.964C53.4355 109.838 53.1895 109.667 52.9735 109.451C52.7635 109.235 52.5925 108.983 52.4605 108.695C52.3345 108.401 52.2715 108.089 52.2715 107.759C52.2715 107.417 52.3285 107.096 52.4425 106.796C52.5625 106.496 52.7245 106.238 52.9285 106.022C53.1385 105.8 53.3845 105.626 53.6665 105.5C53.9485 105.368 54.2575 105.302 54.5935 105.302C54.8035 105.302 54.9955 105.326 55.1695 105.374C55.3495 105.416 55.5085 105.47 55.6465 105.536C55.7905 105.602 55.9135 105.671 56.0155 105.743C56.1235 105.815 56.2105 105.881 56.2765 105.941L55.7545 106.535Z" fill="black"/>
<path d="M64.5 110V105H63L68.5 100L70 101.364V100.5H72V103.182L72.5 103.636L74 105H72.5V110H64.5Z" fill="#7648C7"/>
<path d="M69.5022 108L68.1162 108.112V105.032L67.2552 105.396L66.8772 104.479L69.5022 103.086V108Z" fill="white"/>
<path d="M130.007 104.564C129.905 104.462 129.77 104.378 129.602 104.312C129.44 104.24 129.263 104.204 129.071 104.204C128.873 104.204 128.687 104.249 128.513 104.339C128.339 104.423 128.18 104.546 128.036 104.708C127.892 104.864 127.766 105.056 127.658 105.284C127.55 105.512 127.469 105.764 127.415 106.04H129.278L129.188 106.517H127.334C127.322 106.583 127.316 106.646 127.316 106.706C127.316 106.766 127.316 106.829 127.316 106.895C127.316 106.943 127.316 106.988 127.316 107.03C127.316 107.072 127.319 107.117 127.325 107.165H129.062L128.972 107.642H127.37C127.466 108.26 127.667 108.746 127.973 109.1C128.285 109.448 128.657 109.622 129.089 109.622C129.269 109.622 129.443 109.589 129.611 109.523C129.779 109.451 129.926 109.358 130.052 109.244L129.971 109.91C129.827 110.012 129.671 110.075 129.503 110.099C129.341 110.129 129.206 110.144 129.098 110.144C128.81 110.144 128.537 110.084 128.279 109.964C128.027 109.844 127.799 109.676 127.595 109.46C127.397 109.244 127.229 108.983 127.091 108.677C126.953 108.371 126.854 108.026 126.794 107.642H125.984L126.074 107.165H126.749C126.743 107.117 126.74 107.072 126.74 107.03C126.74 106.982 126.74 106.937 126.74 106.895C126.74 106.829 126.74 106.766 126.74 106.706C126.746 106.646 126.752 106.583 126.758 106.517H125.984L126.074 106.04H126.821C126.887 105.698 126.989 105.383 127.127 105.095C127.271 104.807 127.442 104.558 127.64 104.348C127.838 104.138 128.06 103.976 128.306 103.862C128.558 103.742 128.825 103.682 129.107 103.682C129.257 103.682 129.407 103.7 129.557 103.736C129.713 103.772 129.833 103.829 129.917 103.907L130.007 104.564Z" fill="black"/>
<path d="M136.648 103.826L136.432 104.636H134.272V105.905C134.47 105.845 134.671 105.815 134.875 105.815C135.163 105.815 135.436 105.875 135.694 105.995C135.952 106.109 136.18 106.265 136.378 106.463C136.576 106.661 136.732 106.892 136.846 107.156C136.96 107.414 137.017 107.687 137.017 107.975C137.017 108.293 136.954 108.584 136.828 108.848C136.708 109.112 136.54 109.34 136.324 109.532C136.108 109.724 135.856 109.874 135.568 109.982C135.28 110.09 134.971 110.144 134.641 110.144C134.227 110.144 133.87 110.063 133.57 109.901C133.27 109.739 132.991 109.502 132.733 109.19L133.453 108.704C133.597 108.878 133.768 109.028 133.966 109.154C134.164 109.274 134.377 109.334 134.605 109.334C134.809 109.334 135.001 109.304 135.181 109.244C135.367 109.184 135.529 109.097 135.667 108.983C135.811 108.869 135.925 108.728 136.009 108.56C136.093 108.386 136.135 108.191 136.135 107.975C136.135 107.777 136.096 107.597 136.018 107.435C135.94 107.267 135.832 107.123 135.694 107.003C135.562 106.883 135.403 106.79 135.217 106.724C135.037 106.658 134.845 106.625 134.641 106.625C134.401 106.625 134.176 106.673 133.966 106.769C133.756 106.859 133.564 106.982 133.39 107.138V103.826H136.648ZM140.002 110.144C139.588 110.144 139.237 110.048 138.949 109.856C138.661 109.658 138.43 109.406 138.256 109.1C138.082 108.788 137.956 108.44 137.878 108.056C137.8 107.666 137.761 107.282 137.761 106.904C137.761 106.676 137.776 106.439 137.806 106.193C137.836 105.947 137.884 105.704 137.95 105.464C138.022 105.224 138.115 104.996 138.229 104.78C138.343 104.564 138.481 104.375 138.643 104.213C138.811 104.051 139.006 103.922 139.228 103.826C139.45 103.73 139.708 103.682 140.002 103.682C140.422 103.682 140.773 103.781 141.055 103.979C141.343 104.177 141.574 104.432 141.748 104.744C141.928 105.056 142.054 105.404 142.126 105.788C142.204 106.172 142.243 106.553 142.243 106.931C142.243 107.273 142.207 107.633 142.135 108.011C142.063 108.383 141.94 108.728 141.766 109.046C141.598 109.364 141.37 109.628 141.082 109.838C140.794 110.042 140.434 110.144 140.002 110.144ZM140.002 109.334C140.452 109.334 140.791 109.127 141.019 108.713C141.247 108.293 141.361 107.693 141.361 106.913C141.361 106.145 141.247 105.551 141.019 105.131C140.797 104.705 140.455 104.492 139.993 104.492C139.573 104.492 139.243 104.693 139.003 105.095C138.763 105.491 138.643 106.097 138.643 106.913C138.643 107.693 138.757 108.293 138.985 108.713C139.213 109.127 139.552 109.334 140.002 109.334Z" fill="black"/>
<path d="M14 120H143" stroke="black" stroke-width="0.5"/>
<path d="M16.517 129.826C16.817 129.826 17.093 129.871 17.345 129.961C17.597 130.045 17.813 130.168 17.993 130.33C18.179 130.492 18.323 130.684 18.425 130.906C18.527 131.128 18.578 131.374 18.578 131.644C18.578 131.926 18.539 132.19 18.461 132.436C18.383 132.676 18.248 132.886 18.056 133.066C17.87 133.246 17.621 133.387 17.309 133.489C16.997 133.591 16.607 133.642 16.139 133.642H15.707V136L14.825 136.108V129.826H16.517ZM16.418 132.832C16.616 132.832 16.793 132.814 16.949 132.778C17.105 132.736 17.237 132.67 17.345 132.58C17.459 132.484 17.546 132.361 17.606 132.211C17.666 132.055 17.696 131.866 17.696 131.644C17.696 131.308 17.579 131.056 17.345 130.888C17.117 130.72 16.808 130.636 16.418 130.636H15.707V132.832H16.418ZM21.539 132.148H21.449C21.245 132.148 21.059 132.19 20.891 132.274C20.723 132.352 20.579 132.466 20.459 132.616C20.345 132.76 20.255 132.934 20.189 133.138C20.129 133.342 20.099 133.567 20.099 133.813V136L19.235 136.144V131.446L20.045 131.302V132.283H20.063C20.219 131.959 20.408 131.713 20.63 131.545C20.852 131.371 21.143 131.284 21.503 131.284H21.899L21.539 132.148ZM22.7361 129.565L23.3121 130.249L22.7541 130.924L22.1781 130.249L22.7361 129.565ZM23.1771 136L22.3131 136.144V131.446L23.1771 131.302V136ZM24.5422 131.311L25.7122 132.967L26.8102 131.302L27.5392 131.581L26.1712 133.552L27.8002 135.721L27.0442 136.108L25.7212 134.191L24.4342 136.108L23.6872 135.757L25.2082 133.561L23.8132 131.617L24.5242 131.302L24.5422 131.311ZM35.3121 136L34.5021 136.108V135.379C34.2801 135.631 34.0311 135.823 33.7551 135.955C33.4851 136.081 33.1791 136.144 32.8371 136.144C32.5131 136.144 32.2101 136.078 31.9281 135.946C31.6461 135.814 31.4001 135.634 31.1901 135.406C30.9801 135.178 30.8151 134.914 30.6951 134.614C30.5751 134.314 30.5151 133.996 30.5151 133.66C30.5151 133.33 30.5751 133.024 30.6951 132.742C30.8151 132.454 30.9771 132.205 31.1811 131.995C31.3911 131.779 31.6371 131.611 31.9191 131.491C32.2071 131.365 32.5131 131.302 32.8371 131.302C33.1551 131.302 33.4521 131.365 33.7281 131.491C34.0041 131.617 34.2441 131.773 34.4481 131.959V129.781L35.3121 129.637V136ZM32.9181 135.334C33.1581 135.334 33.3771 135.295 33.5751 135.217C33.7791 135.139 33.9531 135.031 34.0971 134.893C34.2411 134.749 34.3521 134.578 34.4301 134.38C34.5141 134.182 34.5561 133.966 34.5561 133.732C34.5561 133.492 34.5141 133.273 34.4301 133.075C34.3461 132.877 34.2291 132.706 34.0791 132.562C33.9291 132.418 33.7491 132.307 33.5391 132.229C33.3351 132.151 33.1101 132.112 32.8641 132.112C32.6661 132.112 32.4771 132.154 32.2971 132.238C32.1171 132.322 31.9581 132.439 31.8201 132.589C31.6881 132.733 31.5801 132.904 31.4961 133.102C31.4181 133.3 31.3791 133.51 31.3791 133.732C31.3791 133.942 31.4181 134.143 31.4961 134.335C31.5801 134.527 31.6911 134.698 31.8291 134.848C31.9671 134.992 32.1291 135.109 32.3151 135.199C32.5071 135.289 32.7081 135.334 32.9181 135.334ZM36.7011 129.682C36.9711 129.862 37.1571 130.033 37.2591 130.195C37.3611 130.351 37.4121 130.516 37.4121 130.69C37.4121 130.81 37.3491 130.981 37.2231 131.203C37.0971 131.425 36.8751 131.737 36.5571 132.139L36.0891 131.797C36.1071 131.773 36.1431 131.722 36.1971 131.644C36.2511 131.56 36.3081 131.47 36.3681 131.374C36.4281 131.278 36.4821 131.182 36.5301 131.086C36.5781 130.99 36.6021 130.909 36.6021 130.843C36.6021 130.705 36.5571 130.603 36.4671 130.537C36.3771 130.471 36.2751 130.411 36.1611 130.357L36.7011 129.682ZM39.0922 134.515C39.0922 134.785 39.1792 134.998 39.3532 135.154C39.5272 135.304 39.7762 135.379 40.1002 135.379C40.4782 135.379 40.7872 135.262 41.0272 135.028C41.2672 134.788 41.3872 134.452 41.3872 134.02V131.446L42.2512 131.302V136L41.4052 136.144V135.469H41.3872C41.2492 135.703 41.0542 135.874 40.8022 135.982C40.5502 136.09 40.2892 136.144 40.0192 136.144C39.7492 136.144 39.5032 136.108 39.2812 136.036C39.0652 135.97 38.8762 135.871 38.7142 135.739C38.5582 135.607 38.4382 135.451 38.3542 135.271C38.2702 135.085 38.2282 134.875 38.2282 134.641V131.446L39.0922 131.302V134.515ZM44.0932 131.977H44.1112C44.2432 131.743 44.4322 131.572 44.6782 131.464C44.9302 131.356 45.1912 131.302 45.4612 131.302C46.0072 131.302 46.4422 131.44 46.7662 131.716C47.0902 131.992 47.2522 132.373 47.2522 132.859V136L46.3882 136.144V132.931C46.3882 132.661 46.3012 132.451 46.1272 132.301C45.9532 132.145 45.7042 132.067 45.3802 132.067C44.9962 132.067 44.6842 132.187 44.4442 132.427C44.2102 132.667 44.0932 133 44.0932 133.426V136L43.2292 136.144V131.446L44.0932 131.302V131.977ZM49.1661 134.596C49.3101 134.824 49.4871 135.004 49.6971 135.136C49.9071 135.268 50.1471 135.334 50.4171 135.334C50.5191 135.334 50.6271 135.322 50.7411 135.298C50.8551 135.274 50.9781 135.235 51.1101 135.181C51.2481 135.121 51.3981 135.04 51.5601 134.938C51.7281 134.836 51.9111 134.704 52.1091 134.542L52.2801 135.451C51.9921 135.649 51.7071 135.814 51.4251 135.946C51.1491 136.078 50.8311 136.144 50.4711 136.144C50.1171 136.144 49.7901 136.081 49.4901 135.955C49.1961 135.829 48.9411 135.655 48.7251 135.433C48.5151 135.205 48.3501 134.935 48.2301 134.623C48.1101 134.311 48.0501 133.969 48.0501 133.597C48.0501 133.297 48.1101 133.009 48.2301 132.733C48.3501 132.457 48.5121 132.214 48.7161 132.004C48.9261 131.788 49.1691 131.617 49.4451 131.491C49.7211 131.365 50.0151 131.302 50.3271 131.302C50.8191 131.302 51.2211 131.41 51.5331 131.626C51.8451 131.842 52.1241 132.151 52.3701 132.553L49.1661 134.596ZM51.1821 132.409C51.0801 132.295 50.9601 132.217 50.8221 132.175C50.6901 132.133 50.5431 132.112 50.3811 132.112C50.1711 132.112 49.9761 132.151 49.7961 132.229C49.6161 132.301 49.4601 132.403 49.3281 132.535C49.1961 132.661 49.0911 132.817 49.0131 133.003C48.9411 133.183 48.9051 133.381 48.9051 133.597C48.9051 133.627 48.9051 133.666 48.9051 133.714C48.9051 133.762 48.9081 133.807 48.9141 133.849L51.1821 132.409ZM56.555 131.923H56.573C56.663 131.749 56.807 131.602 57.005 131.482C57.209 131.362 57.449 131.302 57.725 131.302C57.989 131.302 58.223 131.347 58.427 131.437C58.637 131.527 58.799 131.704 58.913 131.968C59.003 131.788 59.171 131.632 59.417 131.5C59.669 131.368 59.951 131.302 60.263 131.302C60.731 131.302 61.1 131.431 61.37 131.689C61.64 131.941 61.775 132.283 61.775 132.715V136L60.911 136.144V132.877C60.911 132.661 60.857 132.472 60.749 132.31C60.641 132.148 60.449 132.067 60.173 132.067C59.891 132.067 59.654 132.151 59.462 132.319C59.276 132.481 59.183 132.697 59.183 132.967V136L58.319 136.144V132.877C58.319 132.661 58.265 132.472 58.157 132.31C58.049 132.148 57.857 132.067 57.581 132.067C57.449 132.067 57.323 132.088 57.203 132.13C57.083 132.172 56.978 132.232 56.888 132.31C56.798 132.388 56.726 132.484 56.672 132.598C56.618 132.706 56.591 132.829 56.591 132.967V136L55.727 136.144V131.446L56.555 131.302V131.923ZM66.2959 136L65.5219 136.144V135.514H65.5039C65.4379 135.64 65.3539 135.745 65.2519 135.829C65.1559 135.913 65.0479 135.976 64.9279 136.018C64.8139 136.066 64.6879 136.099 64.5499 136.117C64.4179 136.135 64.2859 136.144 64.1539 136.144C63.9019 136.144 63.6709 136.099 63.4609 136.009C63.2569 135.925 63.0799 135.805 62.9299 135.649C62.7799 135.487 62.6629 135.298 62.5789 135.082C62.5009 134.866 62.4619 134.629 62.4619 134.371C62.4619 134.137 62.5099 133.921 62.6059 133.723C62.7019 133.525 62.8309 133.354 62.9929 133.21C63.1609 133.066 63.3529 132.955 63.5689 132.877C63.7909 132.799 64.0279 132.76 64.2799 132.76C64.4899 132.76 64.6939 132.793 64.8919 132.859C65.0959 132.925 65.2759 133.039 65.4319 133.201V132.886C65.4319 132.718 65.4109 132.583 65.3689 132.481C65.3269 132.379 65.2609 132.301 65.1709 132.247C65.0869 132.193 64.9759 132.157 64.8379 132.139C64.6999 132.121 64.5349 132.112 64.3429 132.112C64.1569 132.112 63.9499 132.127 63.7219 132.157C63.4939 132.181 63.2599 132.253 63.0199 132.373L63.2539 131.482C63.4699 131.434 63.6859 131.392 63.9019 131.356C64.1179 131.32 64.3189 131.302 64.5049 131.302C65.1469 131.302 65.6059 131.443 65.8819 131.725C66.1579 132.007 66.2959 132.427 66.2959 132.985V136ZM64.3159 135.334C64.6939 135.334 64.9729 135.25 65.1529 135.082C65.3389 134.914 65.4319 134.677 65.4319 134.371C65.4319 134.119 65.3359 133.915 65.1439 133.759C64.9519 133.603 64.6939 133.525 64.3699 133.525C64.0639 133.525 63.8119 133.603 63.6139 133.759C63.4219 133.909 63.3259 134.113 63.3259 134.371C63.3259 134.695 63.4129 134.938 63.5869 135.1C63.7669 135.256 64.0099 135.334 64.3159 135.334ZM67.7449 129.565L68.3209 130.249L67.7629 130.924L67.1869 130.249L67.7449 129.565ZM68.1859 136L67.3219 136.144V131.446L68.1859 131.302V136ZM71.405 132.508C71.369 132.466 71.324 132.421 71.27 132.373C71.216 132.319 71.153 132.271 71.081 132.229C71.009 132.181 70.931 132.142 70.847 132.112C70.763 132.082 70.67 132.067 70.568 132.067C70.4 132.067 70.268 132.088 70.172 132.13C70.076 132.166 70.001 132.211 69.947 132.265C69.899 132.319 69.866 132.379 69.848 132.445C69.836 132.505 69.83 132.562 69.83 132.616C69.83 132.808 69.899 132.952 70.037 133.048C70.175 133.138 70.364 133.213 70.604 133.273C70.784 133.321 70.961 133.372 71.135 133.426C71.309 133.48 71.465 133.558 71.603 133.66C71.741 133.756 71.852 133.888 71.936 134.056C72.026 134.224 72.071 134.443 72.071 134.713C72.071 134.899 72.035 135.079 71.963 135.253C71.891 135.427 71.783 135.58 71.639 135.712C71.501 135.844 71.333 135.949 71.135 136.027C70.937 136.105 70.712 136.144 70.46 136.144C70.148 136.144 69.86 136.084 69.596 135.964C69.338 135.844 69.104 135.649 68.894 135.379L69.488 134.875C69.62 135.031 69.758 135.154 69.902 135.244C70.046 135.334 70.226 135.379 70.442 135.379C70.652 135.379 70.832 135.328 70.982 135.226C71.132 135.124 71.207 134.98 71.207 134.794C71.207 134.566 71.123 134.398 70.955 134.29C70.787 134.176 70.52 134.074 70.154 133.984C69.986 133.942 69.83 133.894 69.686 133.84C69.542 133.78 69.416 133.705 69.308 133.615C69.2 133.519 69.116 133.402 69.056 133.264C68.996 133.12 68.966 132.946 68.966 132.742C68.966 132.532 69.002 132.34 69.074 132.166C69.152 131.986 69.257 131.833 69.389 131.707C69.521 131.581 69.677 131.482 69.857 131.41C70.037 131.338 70.232 131.302 70.442 131.302C70.754 131.302 71.018 131.353 71.234 131.455C71.456 131.551 71.684 131.713 71.918 131.941L71.405 132.508ZM74.993 136.144C74.645 136.144 74.321 136.081 74.021 135.955C73.721 135.829 73.46 135.655 73.238 135.433C73.016 135.211 72.839 134.956 72.707 134.668C72.581 134.374 72.518 134.059 72.518 133.723C72.518 133.387 72.581 133.072 72.707 132.778C72.839 132.484 73.016 132.229 73.238 132.013C73.46 131.791 73.721 131.617 74.021 131.491C74.327 131.365 74.651 131.302 74.993 131.302C75.341 131.302 75.665 131.368 75.965 131.5C76.271 131.626 76.535 131.8 76.757 132.022C76.979 132.238 77.153 132.493 77.279 132.787C77.411 133.081 77.477 133.393 77.477 133.723C77.477 134.053 77.414 134.365 77.288 134.659C77.162 134.953 76.985 135.211 76.757 135.433C76.535 135.649 76.271 135.823 75.965 135.955C75.665 136.081 75.341 136.144 74.993 136.144ZM74.993 135.334C75.221 135.334 75.434 135.292 75.632 135.208C75.83 135.118 76.001 135.001 76.145 134.857C76.289 134.707 76.403 134.536 76.487 134.344C76.571 134.146 76.613 133.939 76.613 133.723C76.613 133.507 76.571 133.303 76.487 133.111C76.409 132.919 76.298 132.748 76.154 132.598C76.01 132.448 75.836 132.331 75.632 132.247C75.434 132.157 75.218 132.112 74.984 132.112C74.762 132.112 74.552 132.154 74.354 132.238C74.162 132.322 73.994 132.439 73.85 132.589C73.706 132.733 73.592 132.904 73.508 133.102C73.424 133.294 73.382 133.501 73.382 133.723C73.382 133.939 73.421 134.146 73.499 134.344C73.583 134.536 73.697 134.707 73.841 134.857C73.985 135.001 74.156 135.118 74.354 135.208C74.552 135.292 74.765 135.334 74.993 135.334ZM79.1 131.977H79.118C79.25 131.743 79.439 131.572 79.685 131.464C79.937 131.356 80.198 131.302 80.468 131.302C81.014 131.302 81.449 131.44 81.773 131.716C82.097 131.992 82.259 132.373 82.259 132.859V136L81.395 136.144V132.931C81.395 132.661 81.308 132.451 81.134 132.301C80.96 132.145 80.711 132.067 80.387 132.067C80.003 132.067 79.691 132.187 79.451 132.427C79.217 132.667 79.1 133 79.1 133.426V136L78.236 136.144V131.446L79.1 131.302V131.977Z" fill="black"/>
<path d="M125.007 130.564C124.905 130.462 124.77 130.378 124.602 130.312C124.44 130.24 124.263 130.204 124.071 130.204C123.873 130.204 123.687 130.249 123.513 130.339C123.339 130.423 123.18 130.546 123.036 130.708C122.892 130.864 122.766 131.056 122.658 131.284C122.55 131.512 122.469 131.764 122.415 132.04H124.278L124.188 132.517H122.334C122.322 132.583 122.316 132.646 122.316 132.706C122.316 132.766 122.316 132.829 122.316 132.895C122.316 132.943 122.316 132.988 122.316 133.03C122.316 133.072 122.319 133.117 122.325 133.165H124.062L123.972 133.642H122.37C122.466 134.26 122.667 134.746 122.973 135.1C123.285 135.448 123.657 135.622 124.089 135.622C124.269 135.622 124.443 135.589 124.611 135.523C124.779 135.451 124.926 135.358 125.052 135.244L124.971 135.91C124.827 136.012 124.671 136.075 124.503 136.099C124.341 136.129 124.206 136.144 124.098 136.144C123.81 136.144 123.537 136.084 123.279 135.964C123.027 135.844 122.799 135.676 122.595 135.46C122.397 135.244 122.229 134.983 122.091 134.677C121.953 134.371 121.854 134.026 121.794 133.642H120.984L121.074 133.165H121.749C121.743 133.117 121.74 133.072 121.74 133.03C121.74 132.982 121.74 132.937 121.74 132.895C121.74 132.829 121.74 132.766 121.74 132.706C121.746 132.646 121.752 132.583 121.758 132.517H120.984L121.074 132.04H121.821C121.887 131.698 121.989 131.383 122.127 131.095C122.271 130.807 122.442 130.558 122.64 130.348C122.838 130.138 123.06 129.976 123.306 129.862C123.558 129.742 123.825 129.682 124.107 129.682C124.257 129.682 124.407 129.7 124.557 129.736C124.713 129.772 124.833 129.829 124.917 129.907L125.007 130.564Z" fill="black"/>
<path d="M130.703 129.682H130.721V136L129.839 136.072V131.221L128.579 132.004L128.264 131.446L130.703 129.682ZM135.002 136.144C134.588 136.144 134.237 136.048 133.949 135.856C133.661 135.658 133.43 135.406 133.256 135.1C133.082 134.788 132.956 134.44 132.878 134.056C132.8 133.666 132.761 133.282 132.761 132.904C132.761 132.676 132.776 132.439 132.806 132.193C132.836 131.947 132.884 131.704 132.95 131.464C133.022 131.224 133.115 130.996 133.229 130.78C133.343 130.564 133.481 130.375 133.643 130.213C133.811 130.051 134.006 129.922 134.228 129.826C134.45 129.73 134.708 129.682 135.002 129.682C135.422 129.682 135.773 129.781 136.055 129.979C136.343 130.177 136.574 130.432 136.748 130.744C136.928 131.056 137.054 131.404 137.126 131.788C137.204 132.172 137.243 132.553 137.243 132.931C137.243 133.273 137.207 133.633 137.135 134.011C137.063 134.383 136.94 134.728 136.766 135.046C136.598 135.364 136.37 135.628 136.082 135.838C135.794 136.042 135.434 136.144 135.002 136.144ZM135.002 135.334C135.452 135.334 135.791 135.127 136.019 134.713C136.247 134.293 136.361 133.693 136.361 132.913C136.361 132.145 136.247 131.551 136.019 131.131C135.797 130.705 135.455 130.492 134.993 130.492C134.573 130.492 134.243 130.693 134.003 131.095C133.763 131.491 133.643 132.097 133.643 132.913C133.643 133.693 133.757 134.293 133.985 134.713C134.213 135.127 134.552 135.334 135.002 135.334ZM140.002 136.144C139.588 136.144 139.237 136.048 138.949 135.856C138.661 135.658 138.43 135.406 138.256 135.1C138.082 134.788 137.956 134.44 137.878 134.056C137.8 133.666 137.761 133.282 137.761 132.904C137.761 132.676 137.776 132.439 137.806 132.193C137.836 131.947 137.884 131.704 137.95 131.464C138.022 131.224 138.115 130.996 138.229 130.78C138.343 130.564 138.481 130.375 138.643 130.213C138.811 130.051 139.006 129.922 139.228 129.826C139.45 129.73 139.708 129.682 140.002 129.682C140.422 129.682 140.773 129.781 141.055 129.979C141.343 130.177 141.574 130.432 141.748 130.744C141.928 131.056 142.054 131.404 142.126 131.788C142.204 132.172 142.243 132.553 142.243 132.931C142.243 133.273 142.207 133.633 142.135 134.011C142.063 134.383 141.94 134.728 141.766 135.046C141.598 135.364 141.37 135.628 141.082 135.838C140.794 136.042 140.434 136.144 140.002 136.144ZM140.002 135.334C140.452 135.334 140.791 135.127 141.019 134.713C141.247 134.293 141.361 133.693 141.361 132.913C141.361 132.145 141.247 131.551 141.019 131.131C140.797 130.705 140.455 130.492 139.993 130.492C139.573 130.492 139.243 130.693 139.003 131.095C138.763 131.491 138.643 132.097 138.643 132.913C138.643 133.693 138.757 134.293 138.985 134.713C139.213 135.127 139.552 135.334 140.002 135.334Z" fill="black"/>
</svg>
