<svg width="244" height="157" viewBox="0 0 244 157" fill="none" xmlns="http://www.w3.org/2000/svg">
<rect width="244" height="157" fill="white"/>
<rect x="9" y="9" width="226" height="139" stroke="black"/>
<path d="M106.19 23.036C105.966 22.876 105.73 22.74 105.482 22.628C105.234 22.508 104.97 22.448 104.69 22.448C104.346 22.448 104.026 22.508 103.73 22.628C103.442 22.74 103.194 22.904 102.986 23.12C102.778 23.328 102.614 23.58 102.494 23.876C102.374 24.172 102.314 24.5 102.314 24.86C102.314 25.228 102.37 25.564 102.482 25.868C102.602 26.164 102.766 26.42 102.974 26.636C103.182 26.852 103.43 27.02 103.718 27.14C104.014 27.26 104.338 27.32 104.69 27.32C104.97 27.32 105.238 27.26 105.494 27.14C105.758 27.012 106.006 26.868 106.238 26.708L105.986 28.892C105.906 28.94 105.802 28.98 105.674 29.012C105.546 29.052 105.41 29.084 105.266 29.108C105.13 29.132 104.994 29.152 104.858 29.168C104.73 29.184 104.626 29.192 104.546 29.192C103.922 29.192 103.346 29.088 102.818 28.88C102.298 28.672 101.846 28.38 101.462 28.004C101.086 27.628 100.794 27.18 100.586 26.66C100.378 26.132 100.274 25.548 100.274 24.908C100.274 24.3 100.378 23.732 100.586 23.204C100.794 22.676 101.086 22.216 101.462 21.824C101.838 21.432 102.286 21.128 102.806 20.912C103.334 20.688 103.91 20.576 104.534 20.576C104.774 20.576 105.006 20.596 105.23 20.636C105.454 20.676 105.67 20.744 105.878 20.84L106.19 23.036ZM109.342 23.768H111.982V20.768L114.022 20.576V28.904L111.982 29.096V25.64H109.342V28.904L107.302 29.096V20.768L109.342 20.576V23.768ZM118.642 20.576H118.666L123.106 28.772L121.03 29.192L120.19 27.428L117.058 27.428L116.23 29.192L114.25 28.772L118.642 20.576ZM117.55 25.904L119.734 25.904L118.642 23.888L117.55 25.904ZM123.274 20.576H123.298L128.686 25.184V20.768L130.726 20.576V29.192H130.702L125.314 24.488V28.904L123.274 29.096V20.576ZM137.526 23.036C137.302 22.876 137.066 22.74 136.818 22.628C136.57 22.508 136.306 22.448 136.026 22.448C135.682 22.448 135.362 22.508 135.066 22.628C134.778 22.74 134.53 22.904 134.322 23.12C134.114 23.328 133.95 23.58 133.83 23.876C133.71 24.172 133.65 24.5 133.65 24.86C133.65 25.228 133.706 25.564 133.818 25.868C133.938 26.164 134.102 26.42 134.31 26.636C134.518 26.852 134.766 27.02 135.054 27.14C135.35 27.26 135.674 27.32 136.026 27.32C136.306 27.32 136.574 27.26 136.83 27.14C137.094 27.012 137.342 26.868 137.574 26.708L137.322 28.892C137.242 28.94 137.138 28.98 137.01 29.012C136.882 29.052 136.746 29.084 136.602 29.108C136.466 29.132 136.33 29.152 136.194 29.168C136.066 29.184 135.962 29.192 135.882 29.192C135.258 29.192 134.682 29.088 134.154 28.88C133.634 28.672 133.182 28.38 132.798 28.004C132.422 27.628 132.13 27.18 131.922 26.66C131.714 26.132 131.61 25.548 131.61 24.908C131.61 24.3 131.714 23.732 131.922 23.204C132.13 22.676 132.422 22.216 132.798 21.824C133.174 21.432 133.622 21.128 134.142 20.912C134.67 20.688 135.246 20.576 135.87 20.576C136.11 20.576 136.342 20.596 136.566 20.636C136.79 20.676 137.006 20.744 137.214 20.84L137.526 23.036ZM143.294 20.768L143.654 22.508H140.678V23.936H142.802V25.676H140.678V27.26H143.906L143.402 29H138.638V20.768H143.294Z" fill="black"/>
<rect width="194" height="95" transform="translate(25 37)" fill="white"/>
<path d="M67.9196 59.182L69.4316 63.466H69.4496L71.0246 59.182L71.9066 59.326L69.4496 65.644H69.4316L67.0466 59.326L67.9196 59.182ZM78.4676 62.413C78.4676 62.863 78.3806 63.286 78.2066 63.682C78.0386 64.072 77.8076 64.414 77.5136 64.708C77.2256 64.996 76.8836 65.224 76.4876 65.392C76.0976 65.56 75.6776 65.644 75.2276 65.644C74.7716 65.644 74.3456 65.56 73.9496 65.392C73.5596 65.224 73.2176 64.993 72.9236 64.699C72.6356 64.405 72.4076 64.063 72.2396 63.673C72.0716 63.277 71.9876 62.857 71.9876 62.413C71.9876 61.963 72.0716 61.543 72.2396 61.153C72.4136 60.757 72.6446 60.415 72.9326 60.127C73.2266 59.833 73.5686 59.602 73.9586 59.434C74.3546 59.266 74.7776 59.182 75.2276 59.182C75.6836 59.182 76.1066 59.269 76.4966 59.443C76.8926 59.611 77.2346 59.842 77.5226 60.136C77.8166 60.424 78.0476 60.766 78.2156 61.162C78.3836 61.552 78.4676 61.969 78.4676 62.413ZM75.2276 64.834C75.5396 64.834 75.8366 64.771 76.1186 64.645C76.4066 64.513 76.6586 64.339 76.8746 64.123C77.0906 63.901 77.2616 63.643 77.3876 63.349C77.5196 63.055 77.5856 62.743 77.5856 62.413C77.5856 62.089 77.5226 61.78 77.3966 61.486C77.2706 61.192 77.0996 60.937 76.8836 60.721C76.6736 60.499 76.4246 60.322 76.1366 60.19C75.8486 60.058 75.5426 59.992 75.2186 59.992C74.9126 59.992 74.6156 60.055 74.3276 60.181C74.0456 60.307 73.7966 60.481 73.5806 60.703C73.3646 60.919 73.1906 61.174 73.0586 61.468C72.9326 61.762 72.8696 62.077 72.8696 62.413C72.8696 62.743 72.9326 63.055 73.0586 63.349C73.1846 63.643 73.3556 63.901 73.5716 64.123C73.7876 64.339 74.0366 64.513 74.3186 64.645C74.6066 64.771 74.9096 64.834 75.2276 64.834ZM80.1804 63.601C80.1804 63.967 80.2824 64.264 80.4864 64.492C80.6964 64.72 81.0084 64.834 81.4224 64.834C81.8724 64.834 82.2114 64.726 82.4394 64.51C82.6674 64.288 82.7814 63.988 82.7814 63.61V59.326L83.6634 59.182V62.809C83.6634 63.031 83.6574 63.256 83.6454 63.484C83.6394 63.712 83.6154 63.931 83.5734 64.141C83.5374 64.351 83.4744 64.549 83.3844 64.735C83.3004 64.915 83.1804 65.074 83.0244 65.212C82.8684 65.344 82.6704 65.449 82.4304 65.527C82.1964 65.605 81.9084 65.644 81.5664 65.644C81.1404 65.644 80.7804 65.602 80.4864 65.518C80.1984 65.434 79.9644 65.296 79.7844 65.104C79.6104 64.906 79.4844 64.651 79.4064 64.339C79.3344 64.021 79.2984 63.631 79.2984 63.169V59.326L80.1804 59.182V63.601ZM87.7164 60.676C87.4764 60.412 87.2634 60.232 87.0774 60.136C86.8914 60.04 86.7084 59.992 86.5284 59.992C86.2404 59.992 86.0064 60.076 85.8264 60.244C85.6464 60.412 85.5564 60.643 85.5564 60.937C85.5564 61.075 85.5864 61.195 85.6464 61.297C85.7124 61.393 85.7994 61.48 85.9074 61.558C86.0214 61.636 86.1564 61.708 86.3124 61.774C86.4684 61.834 86.6394 61.9 86.8254 61.972C87.0474 62.056 87.2514 62.146 87.4374 62.242C87.6294 62.338 87.7944 62.455 87.9324 62.593C88.0704 62.731 88.1784 62.896 88.2564 63.088C88.3404 63.274 88.3824 63.499 88.3824 63.763C88.3824 64.045 88.3314 64.3 88.2294 64.528C88.1274 64.756 87.9894 64.954 87.8154 65.122C87.6414 65.29 87.4374 65.419 87.2034 65.509C86.9754 65.599 86.7294 65.644 86.4654 65.644C86.2914 65.644 86.1264 65.626 85.9704 65.59C85.8144 65.56 85.6584 65.506 85.5024 65.428C85.3524 65.35 85.1964 65.248 85.0344 65.122C84.8784 64.99 84.7164 64.831 84.5484 64.645L85.1964 64.105C85.3224 64.303 85.4874 64.474 85.6914 64.618C85.8954 64.762 86.1234 64.834 86.3754 64.834C86.5314 64.834 86.6754 64.816 86.8074 64.78C86.9454 64.738 87.0654 64.675 87.1674 64.591C87.2694 64.507 87.3504 64.396 87.4104 64.258C87.4704 64.12 87.5004 63.952 87.5004 63.754C87.5004 63.64 87.4584 63.535 87.3744 63.439C87.2904 63.337 87.1854 63.247 87.0594 63.169C86.9394 63.091 86.8134 63.022 86.6814 62.962C86.5494 62.896 86.4354 62.839 86.3394 62.791C86.1414 62.695 85.9434 62.593 85.7454 62.485C85.5474 62.371 85.3674 62.242 85.2054 62.098C85.0494 61.954 84.9204 61.789 84.8184 61.603C84.7224 61.411 84.6744 61.183 84.6744 60.919C84.6744 60.661 84.7194 60.427 84.8094 60.217C84.8994 60.001 85.0254 59.818 85.1874 59.668C85.3554 59.512 85.5564 59.392 85.7904 59.308C86.0244 59.224 86.2854 59.182 86.5734 59.182C86.8794 59.182 87.1884 59.257 87.5004 59.407C87.8124 59.557 88.0824 59.782 88.3104 60.082L87.7164 60.676ZM91.8143 59.182L91.8413 59.191L95.7923 63.502V59.47L96.6743 59.326V65.644L96.6473 65.635L92.6963 61.324V65.5L91.8143 65.608V59.182ZM98.1952 59.182C98.4652 59.362 98.6512 59.533 98.7532 59.695C98.8552 59.851 98.9062 60.016 98.9062 60.19C98.9062 60.31 98.8432 60.481 98.7172 60.703C98.5912 60.925 98.3692 61.237 98.0512 61.639L97.5832 61.297C97.6012 61.273 97.6372 61.222 97.6912 61.144C97.7452 61.06 97.8022 60.97 97.8622 60.874C97.9222 60.778 97.9762 60.682 98.0242 60.586C98.0722 60.49 98.0962 60.409 98.0962 60.343C98.0962 60.205 98.0512 60.103 97.9612 60.037C97.8712 59.971 97.7692 59.911 97.6552 59.857L98.1952 59.182ZM102.242 59.182L105.383 65.464L104.501 65.644L103.448 63.52H100.964L99.9203 65.644L99.0923 65.464L102.224 59.182H102.242ZM101.333 62.71H103.088L102.206 60.937L101.333 62.71ZM105.44 59.182L106.952 63.466H106.97L108.545 59.182L109.427 59.326L106.97 65.644H106.952L104.567 59.326L105.44 59.182ZM113.144 59.326L113.333 60.136H110.732V61.882H112.811V62.692H110.732V64.69H113.531L113.279 65.5H109.85V59.326H113.144ZM118.472 59.326L115.232 64.69H118.634L118.418 65.5H113.873L117.149 60.136H114.008L114.188 59.326H118.472ZM123.521 59.326C123.821 59.326 124.097 59.371 124.349 59.461C124.601 59.545 124.817 59.668 124.997 59.83C125.183 59.992 125.327 60.184 125.429 60.406C125.531 60.628 125.582 60.874 125.582 61.144C125.582 61.426 125.543 61.69 125.465 61.936C125.387 62.176 125.252 62.386 125.06 62.566C124.874 62.746 124.625 62.887 124.313 62.989C124.001 63.091 123.611 63.142 123.143 63.142H122.711V65.5L121.829 65.608V59.326H123.521ZM123.422 62.332C123.62 62.332 123.797 62.314 123.953 62.278C124.109 62.236 124.241 62.17 124.349 62.08C124.463 61.984 124.55 61.861 124.61 61.711C124.67 61.555 124.7 61.366 124.7 61.144C124.7 60.808 124.583 60.556 124.349 60.388C124.121 60.22 123.812 60.136 123.422 60.136H122.711V62.332H123.422ZM127.238 64.69H129.857L129.497 65.5H126.356V59.326L127.238 59.182V64.69ZM131.201 63.601C131.201 63.967 131.303 64.264 131.507 64.492C131.717 64.72 132.029 64.834 132.443 64.834C132.893 64.834 133.232 64.726 133.46 64.51C133.688 64.288 133.802 63.988 133.802 63.61V59.326L134.684 59.182V62.809C134.684 63.031 134.678 63.256 134.666 63.484C134.66 63.712 134.636 63.931 134.594 64.141C134.558 64.351 134.495 64.549 134.405 64.735C134.321 64.915 134.201 65.074 134.045 65.212C133.889 65.344 133.691 65.449 133.451 65.527C133.217 65.605 132.929 65.644 132.587 65.644C132.161 65.644 131.801 65.602 131.507 65.518C131.219 65.434 130.985 65.296 130.805 65.104C130.631 64.906 130.505 64.651 130.427 64.339C130.355 64.021 130.319 63.631 130.319 63.169V59.326L131.201 59.182V63.601ZM138.737 60.676C138.497 60.412 138.284 60.232 138.098 60.136C137.912 60.04 137.729 59.992 137.549 59.992C137.261 59.992 137.027 60.076 136.847 60.244C136.667 60.412 136.577 60.643 136.577 60.937C136.577 61.075 136.607 61.195 136.667 61.297C136.733 61.393 136.82 61.48 136.928 61.558C137.042 61.636 137.177 61.708 137.333 61.774C137.489 61.834 137.66 61.9 137.846 61.972C138.068 62.056 138.272 62.146 138.458 62.242C138.65 62.338 138.815 62.455 138.953 62.593C139.091 62.731 139.199 62.896 139.277 63.088C139.361 63.274 139.403 63.499 139.403 63.763C139.403 64.045 139.352 64.3 139.25 64.528C139.148 64.756 139.01 64.954 138.836 65.122C138.662 65.29 138.458 65.419 138.224 65.509C137.996 65.599 137.75 65.644 137.486 65.644C137.312 65.644 137.147 65.626 136.991 65.59C136.835 65.56 136.679 65.506 136.523 65.428C136.373 65.35 136.217 65.248 136.055 65.122C135.899 64.99 135.737 64.831 135.569 64.645L136.217 64.105C136.343 64.303 136.508 64.474 136.712 64.618C136.916 64.762 137.144 64.834 137.396 64.834C137.552 64.834 137.696 64.816 137.828 64.78C137.966 64.738 138.086 64.675 138.188 64.591C138.29 64.507 138.371 64.396 138.431 64.258C138.491 64.12 138.521 63.952 138.521 63.754C138.521 63.64 138.479 63.535 138.395 63.439C138.311 63.337 138.206 63.247 138.08 63.169C137.96 63.091 137.834 63.022 137.702 62.962C137.57 62.896 137.456 62.839 137.36 62.791C137.162 62.695 136.964 62.593 136.766 62.485C136.568 62.371 136.388 62.242 136.226 62.098C136.07 61.954 135.941 61.789 135.839 61.603C135.743 61.411 135.695 61.183 135.695 60.919C135.695 60.661 135.74 60.427 135.83 60.217C135.92 60.001 136.046 59.818 136.208 59.668C136.376 59.512 136.577 59.392 136.811 59.308C137.045 59.224 137.306 59.182 137.594 59.182C137.9 59.182 138.209 59.257 138.521 59.407C138.833 59.557 139.103 59.782 139.331 60.082L138.737 60.676ZM144.41 59.326C144.854 59.326 145.265 59.41 145.643 59.578C146.021 59.746 146.345 59.971 146.615 60.253C146.891 60.535 147.107 60.862 147.263 61.234C147.419 61.606 147.497 61.999 147.497 62.413C147.497 62.827 147.419 63.22 147.263 63.592C147.107 63.964 146.891 64.294 146.615 64.582C146.339 64.864 146.012 65.089 145.634 65.257C145.262 65.419 144.857 65.5 144.419 65.5H142.844V59.326H144.41ZM144.383 64.69C144.659 64.69 144.929 64.636 145.193 64.528C145.463 64.42 145.703 64.267 145.913 64.069C146.123 63.865 146.291 63.625 146.417 63.349C146.549 63.067 146.615 62.755 146.615 62.413C146.615 62.077 146.549 61.771 146.417 61.495C146.291 61.213 146.123 60.973 145.913 60.775C145.703 60.571 145.463 60.415 145.193 60.307C144.929 60.193 144.656 60.136 144.374 60.136H143.726V64.69H144.383ZM151.658 59.326L151.847 60.136H149.246V61.882H151.325V62.692H149.246V64.69H152.045L151.793 65.5H148.364V59.326H151.658ZM159.194 60.289C159.032 60.175 158.867 60.097 158.699 60.055C158.531 60.013 158.351 59.992 158.159 59.992C157.841 59.992 157.544 60.061 157.268 60.199C156.998 60.331 156.761 60.508 156.557 60.73C156.353 60.946 156.194 61.198 156.08 61.486C155.966 61.774 155.909 62.071 155.909 62.377C155.909 62.701 155.966 63.013 156.08 63.313C156.194 63.607 156.35 63.868 156.548 64.096C156.746 64.318 156.977 64.498 157.241 64.636C157.511 64.768 157.802 64.834 158.114 64.834C158.324 64.834 158.534 64.801 158.744 64.735C158.96 64.663 159.155 64.57 159.329 64.456L159.167 65.419C158.981 65.485 158.801 65.539 158.627 65.581C158.459 65.623 158.282 65.644 158.096 65.644C157.682 65.644 157.289 65.56 156.917 65.392C156.545 65.224 156.218 64.996 155.936 64.708C155.66 64.414 155.438 64.072 155.27 63.682C155.108 63.286 155.027 62.863 155.027 62.413C155.027 62.005 155.111 61.609 155.279 61.225C155.447 60.835 155.666 60.49 155.936 60.19C156.212 59.884 156.524 59.641 156.872 59.461C157.22 59.275 157.577 59.182 157.943 59.182C158.123 59.182 158.3 59.197 158.474 59.227C158.654 59.251 158.831 59.287 159.005 59.335L159.194 60.289ZM162.773 59.182L165.914 65.464L165.032 65.644L163.979 63.52H161.495L160.451 65.644L159.623 65.464L162.755 59.182H162.773ZM161.864 62.71H163.619L162.737 60.937L161.864 62.71ZM169.559 59.326L169.712 60.136H167.255V61.882H169.145V62.692H167.255V65.5L166.373 65.608V59.326H169.559ZM173.666 59.326L173.855 60.136H171.254V61.882H173.333V62.692H171.254V64.69H174.053L173.801 65.5H170.372V59.326H173.666ZM173.36 57.67L172.064 58.966H171.326L172.136 57.67H173.36ZM175.52 64.033L176.105 64.807L175.52 65.581L174.935 64.807L175.52 64.033Z" fill="black"/>
<path d="M38.6447 70.182L41.7857 76.464L40.9037 76.644L39.8507 74.52H37.3667L36.3227 76.644L35.4947 76.464L38.6267 70.182H38.6447ZM37.7357 73.71H39.4907L38.6087 71.937L37.7357 73.71ZM43.1266 75.69H45.7456L45.3856 76.5H42.2446V70.326L43.1266 70.182V75.69ZM47.1256 75.69H49.7446L49.3846 76.5H46.2436V70.326L47.1256 70.182V75.69ZM53.5366 70.326L53.7256 71.136H51.1246V72.882H53.2036V73.692H51.1246V75.69H53.9236L53.6716 76.5H50.2426V70.326H53.5366ZM58.8646 70.326L55.6246 75.69H59.0266L58.8106 76.5H54.2656L57.5416 71.136H54.4006L54.5806 70.326H58.8646ZM63.7965 70.326C64.2405 70.326 64.6515 70.41 65.0295 70.578C65.4075 70.746 65.7315 70.971 66.0015 71.253C66.2775 71.535 66.4935 71.862 66.6495 72.234C66.8055 72.606 66.8835 72.999 66.8835 73.413C66.8835 73.827 66.8055 74.22 66.6495 74.592C66.4935 74.964 66.2775 75.294 66.0015 75.582C65.7255 75.864 65.3985 76.089 65.0205 76.257C64.6485 76.419 64.2435 76.5 63.8055 76.5H62.2305V70.326H63.7965ZM63.7695 75.69C64.0455 75.69 64.3155 75.636 64.5795 75.528C64.8495 75.42 65.0895 75.267 65.2995 75.069C65.5095 74.865 65.6775 74.625 65.8035 74.349C65.9355 74.067 66.0015 73.755 66.0015 73.413C66.0015 73.077 65.9355 72.771 65.8035 72.495C65.6775 72.213 65.5095 71.973 65.2995 71.775C65.0895 71.571 64.8495 71.415 64.5795 71.307C64.3155 71.193 64.0425 71.136 63.7605 71.136H63.1125V75.69H63.7695ZM68.5875 76.5L67.7055 76.572V70.326L68.5875 70.182V76.5ZM71.1676 70.326C71.4436 70.326 71.7046 70.365 71.9506 70.443C72.1966 70.515 72.4126 70.629 72.5986 70.785C72.7846 70.941 72.9316 71.136 73.0396 71.37C73.1476 71.604 73.2016 71.88 73.2016 72.198C73.2016 72.666 73.0786 73.029 72.8326 73.287C72.5866 73.539 72.2536 73.713 71.8336 73.809L73.6966 76.392L72.7066 76.644L70.5556 73.503H70.5376V76.5L69.6556 76.608V70.326H71.1676ZM71.1856 73.305C71.3296 73.305 71.4706 73.278 71.6086 73.224C71.7466 73.17 71.8666 73.095 71.9686 72.999C72.0766 72.903 72.1606 72.789 72.2206 72.657C72.2866 72.519 72.3196 72.366 72.3196 72.198C72.3196 72.012 72.2896 71.853 72.2296 71.721C72.1696 71.583 72.0886 71.472 71.9866 71.388C71.8846 71.304 71.7646 71.241 71.6266 71.199C71.4946 71.157 71.3506 71.136 71.1946 71.136H70.5376V73.305H71.1856ZM77.5396 70.326L77.7286 71.136H75.1276V72.882H77.2066V73.692H75.1276V75.69H77.9266L77.6746 76.5H74.2456V70.326H77.5396ZM82.5706 71.289C82.4086 71.175 82.2436 71.097 82.0756 71.055C81.9076 71.013 81.7276 70.992 81.5356 70.992C81.2176 70.992 80.9206 71.061 80.6446 71.199C80.3746 71.331 80.1376 71.508 79.9336 71.73C79.7296 71.946 79.5706 72.198 79.4566 72.486C79.3426 72.774 79.2856 73.071 79.2856 73.377C79.2856 73.701 79.3426 74.013 79.4566 74.313C79.5706 74.607 79.7266 74.868 79.9246 75.096C80.1226 75.318 80.3536 75.498 80.6176 75.636C80.8876 75.768 81.1786 75.834 81.4906 75.834C81.7006 75.834 81.9106 75.801 82.1206 75.735C82.3366 75.663 82.5316 75.57 82.7056 75.456L82.5436 76.419C82.3576 76.485 82.1776 76.539 82.0036 76.581C81.8356 76.623 81.6586 76.644 81.4726 76.644C81.0586 76.644 80.6656 76.56 80.2936 76.392C79.9216 76.224 79.5946 75.996 79.3126 75.708C79.0366 75.414 78.8146 75.072 78.6466 74.682C78.4846 74.286 78.4036 73.863 78.4036 73.413C78.4036 73.005 78.4876 72.609 78.6556 72.225C78.8236 71.835 79.0426 71.49 79.3126 71.19C79.5886 70.884 79.9006 70.641 80.2486 70.461C80.5966 70.275 80.9536 70.182 81.3196 70.182C81.4996 70.182 81.6766 70.197 81.8506 70.227C82.0306 70.251 82.2076 70.287 82.3816 70.335L82.5706 71.289ZM87.0226 70.326V71.136H85.5826V76.5L84.7006 76.608V71.136H83.0986L83.3776 70.326H87.0226ZM91.0396 70.326L91.2286 71.136H88.6276V72.882H90.7066V73.692H88.6276V75.69H91.4266L91.1746 76.5H87.7456V70.326H91.0396ZM93.0016 70.182H93.0196L95.1526 74.889L97.2586 70.182H97.2766L98.5366 76.5L97.6816 76.608L96.9346 72.702H96.9166L95.1616 76.572H95.1436L93.3436 72.702H93.3256L92.5966 76.608L91.7506 76.5L93.0016 70.182ZM102.544 70.326L102.733 71.136H100.132V72.882H102.211V73.692H100.132V75.69H102.931L102.679 76.5H99.2505V70.326H102.544ZM103.723 70.182L103.75 70.191L107.701 74.502V70.47L108.583 70.326V76.644L108.556 76.635L104.605 72.324V76.5L103.723 76.608V70.182ZM113.029 70.326V71.136H111.589V76.5L110.707 76.608V71.136H109.105L109.384 70.326H113.029ZM118.66 70.182L121.801 76.464L120.919 76.644L119.866 74.52H117.382L116.338 76.644L115.51 76.464L118.642 70.182H118.66ZM117.751 73.71H119.506L118.624 71.937L117.751 73.71ZM118.525 68.67L119.335 69.966H118.597L117.319 68.67H118.525ZM125.647 75.69H128.266L127.906 76.5H124.765V70.326L125.647 70.182V75.69ZM131.167 70.182L134.308 76.464L133.426 76.644L132.373 74.52H129.889L128.845 76.644L128.017 76.464L131.149 70.182H131.167ZM130.258 73.71H132.013L131.131 71.937L130.258 73.71ZM141.097 71.289C140.935 71.175 140.77 71.097 140.602 71.055C140.434 71.013 140.254 70.992 140.062 70.992C139.744 70.992 139.447 71.061 139.171 71.199C138.901 71.331 138.664 71.508 138.46 71.73C138.256 71.946 138.097 72.198 137.983 72.486C137.869 72.774 137.812 73.071 137.812 73.377C137.812 73.701 137.869 74.013 137.983 74.313C138.097 74.607 138.253 74.868 138.451 75.096C138.649 75.318 138.88 75.498 139.144 75.636C139.414 75.768 139.705 75.834 140.017 75.834C140.227 75.834 140.437 75.801 140.647 75.735C140.863 75.663 141.058 75.57 141.232 75.456L141.07 76.419C140.884 76.485 140.704 76.539 140.53 76.581C140.362 76.623 140.185 76.644 139.999 76.644C139.585 76.644 139.192 76.56 138.82 76.392C138.448 76.224 138.121 75.996 137.839 75.708C137.563 75.414 137.341 75.072 137.173 74.682C137.011 74.286 136.93 73.863 136.93 73.413C136.93 73.005 137.014 72.609 137.182 72.225C137.35 71.835 137.569 71.49 137.839 71.19C138.115 70.884 138.427 70.641 138.775 70.461C139.123 70.275 139.48 70.182 139.846 70.182C140.026 70.182 140.203 70.197 140.377 70.227C140.557 70.251 140.734 70.287 140.908 70.335L141.097 71.289ZM144.676 70.182L147.817 76.464L146.935 76.644L145.882 74.52H143.398L142.354 76.644L141.526 76.464L144.658 70.182H144.676ZM143.767 73.71H145.522L144.64 71.937L143.767 73.71ZM151.156 71.676C150.916 71.412 150.703 71.232 150.517 71.136C150.331 71.04 150.148 70.992 149.968 70.992C149.68 70.992 149.446 71.076 149.266 71.244C149.086 71.412 148.996 71.643 148.996 71.937C148.996 72.075 149.026 72.195 149.086 72.297C149.152 72.393 149.239 72.48 149.347 72.558C149.461 72.636 149.596 72.708 149.752 72.774C149.908 72.834 150.079 72.9 150.265 72.972C150.487 73.056 150.691 73.146 150.877 73.242C151.069 73.338 151.234 73.455 151.372 73.593C151.51 73.731 151.618 73.896 151.696 74.088C151.78 74.274 151.822 74.499 151.822 74.763C151.822 75.045 151.771 75.3 151.669 75.528C151.567 75.756 151.429 75.954 151.255 76.122C151.081 76.29 150.877 76.419 150.643 76.509C150.415 76.599 150.169 76.644 149.905 76.644C149.731 76.644 149.566 76.626 149.41 76.59C149.254 76.56 149.098 76.506 148.942 76.428C148.792 76.35 148.636 76.248 148.474 76.122C148.318 75.99 148.156 75.831 147.988 75.645L148.636 75.105C148.762 75.303 148.927 75.474 149.131 75.618C149.335 75.762 149.563 75.834 149.815 75.834C149.971 75.834 150.115 75.816 150.247 75.78C150.385 75.738 150.505 75.675 150.607 75.591C150.709 75.507 150.79 75.396 150.85 75.258C150.91 75.12 150.94 74.952 150.94 74.754C150.94 74.64 150.898 74.535 150.814 74.439C150.73 74.337 150.625 74.247 150.499 74.169C150.379 74.091 150.253 74.022 150.121 73.962C149.989 73.896 149.875 73.839 149.779 73.791C149.581 73.695 149.383 73.593 149.185 73.485C148.987 73.371 148.807 73.242 148.645 73.098C148.489 72.954 148.36 72.789 148.258 72.603C148.162 72.411 148.114 72.183 148.114 71.919C148.114 71.661 148.159 71.427 148.249 71.217C148.339 71.001 148.465 70.818 148.627 70.668C148.795 70.512 148.996 70.392 149.23 70.308C149.464 70.224 149.725 70.182 150.013 70.182C150.319 70.182 150.628 70.257 150.94 70.407C151.252 70.557 151.522 70.782 151.75 71.082L151.156 71.676ZM156.07 70.326L156.259 71.136H153.658V72.882H155.737V73.692H153.658V75.69H156.457L156.205 76.5H152.776V70.326H156.07ZM161.446 70.326C161.746 70.326 162.022 70.371 162.274 70.461C162.526 70.545 162.742 70.668 162.922 70.83C163.108 70.992 163.252 71.184 163.354 71.406C163.456 71.628 163.507 71.874 163.507 72.144C163.507 72.426 163.468 72.69 163.39 72.936C163.312 73.176 163.177 73.386 162.985 73.566C162.799 73.746 162.55 73.887 162.238 73.989C161.926 74.091 161.536 74.142 161.068 74.142H160.636V76.5L159.754 76.608V70.326H161.446ZM161.347 73.332C161.545 73.332 161.722 73.314 161.878 73.278C162.034 73.236 162.166 73.17 162.274 73.08C162.388 72.984 162.475 72.861 162.535 72.711C162.595 72.555 162.625 72.366 162.625 72.144C162.625 71.808 162.508 71.556 162.274 71.388C162.046 71.22 161.737 71.136 161.347 71.136H160.636V73.332H161.347ZM166.35 70.182L169.491 76.464L168.609 76.644L167.556 74.52H165.072L164.028 76.644L163.2 76.464L166.332 70.182H166.35ZM165.441 73.71H167.196L166.314 71.937L165.441 73.71ZM170.796 74.601C170.796 74.967 170.898 75.264 171.102 75.492C171.312 75.72 171.624 75.834 172.038 75.834C172.488 75.834 172.827 75.726 173.055 75.51C173.283 75.288 173.397 74.988 173.397 74.61V70.326L174.279 70.182V73.809C174.279 74.031 174.273 74.256 174.261 74.484C174.255 74.712 174.231 74.931 174.189 75.141C174.153 75.351 174.09 75.549 174 75.735C173.916 75.915 173.796 76.074 173.64 76.212C173.484 76.344 173.286 76.449 173.046 76.527C172.812 76.605 172.524 76.644 172.182 76.644C171.756 76.644 171.396 76.602 171.102 76.518C170.814 76.434 170.58 76.296 170.4 76.104C170.226 75.906 170.1 75.651 170.022 75.339C169.95 75.021 169.914 74.631 169.914 74.169V70.326L170.796 70.182V74.601ZM178.332 71.676C178.092 71.412 177.879 71.232 177.693 71.136C177.507 71.04 177.324 70.992 177.144 70.992C176.856 70.992 176.622 71.076 176.442 71.244C176.262 71.412 176.172 71.643 176.172 71.937C176.172 72.075 176.202 72.195 176.262 72.297C176.328 72.393 176.415 72.48 176.523 72.558C176.637 72.636 176.772 72.708 176.928 72.774C177.084 72.834 177.255 72.9 177.441 72.972C177.663 73.056 177.867 73.146 178.053 73.242C178.245 73.338 178.41 73.455 178.548 73.593C178.686 73.731 178.794 73.896 178.872 74.088C178.956 74.274 178.998 74.499 178.998 74.763C178.998 75.045 178.947 75.3 178.845 75.528C178.743 75.756 178.605 75.954 178.431 76.122C178.257 76.29 178.053 76.419 177.819 76.509C177.591 76.599 177.345 76.644 177.081 76.644C176.907 76.644 176.742 76.626 176.586 76.59C176.43 76.56 176.274 76.506 176.118 76.428C175.968 76.35 175.812 76.248 175.65 76.122C175.494 75.99 175.332 75.831 175.164 75.645L175.812 75.105C175.938 75.303 176.103 75.474 176.307 75.618C176.511 75.762 176.739 75.834 176.991 75.834C177.147 75.834 177.291 75.816 177.423 75.78C177.561 75.738 177.681 75.675 177.783 75.591C177.885 75.507 177.966 75.396 178.026 75.258C178.086 75.12 178.116 74.952 178.116 74.754C178.116 74.64 178.074 74.535 177.99 74.439C177.906 74.337 177.801 74.247 177.675 74.169C177.555 74.091 177.429 74.022 177.297 73.962C177.165 73.896 177.051 73.839 176.955 73.791C176.757 73.695 176.559 73.593 176.361 73.485C176.163 73.371 175.983 73.242 175.821 73.098C175.665 72.954 175.536 72.789 175.434 72.603C175.338 72.411 175.29 72.183 175.29 71.919C175.29 71.661 175.335 71.427 175.425 71.217C175.515 71.001 175.641 70.818 175.803 70.668C175.971 70.512 176.172 70.392 176.406 70.308C176.64 70.224 176.901 70.182 177.189 70.182C177.495 70.182 177.804 70.257 178.116 70.407C178.428 70.557 178.698 70.782 178.926 71.082L178.332 71.676ZM183.246 70.326L183.435 71.136H180.834V72.882H182.913V73.692H180.834V75.69H183.633L183.381 76.5H179.952V70.326H183.246ZM190.782 71.289C190.62 71.175 190.455 71.097 190.287 71.055C190.119 71.013 189.939 70.992 189.747 70.992C189.429 70.992 189.132 71.061 188.856 71.199C188.586 71.331 188.349 71.508 188.145 71.73C187.941 71.946 187.782 72.198 187.668 72.486C187.554 72.774 187.497 73.071 187.497 73.377C187.497 73.701 187.554 74.013 187.668 74.313C187.782 74.607 187.938 74.868 188.136 75.096C188.334 75.318 188.565 75.498 188.829 75.636C189.099 75.768 189.39 75.834 189.702 75.834C189.912 75.834 190.122 75.801 190.332 75.735C190.548 75.663 190.743 75.57 190.917 75.456L190.755 76.419C190.569 76.485 190.389 76.539 190.215 76.581C190.047 76.623 189.87 76.644 189.684 76.644C189.27 76.644 188.877 76.56 188.505 76.392C188.133 76.224 187.806 75.996 187.524 75.708C187.248 75.414 187.026 75.072 186.858 74.682C186.696 74.286 186.615 73.863 186.615 73.413C186.615 73.005 186.699 72.609 186.867 72.225C187.035 71.835 187.254 71.49 187.524 71.19C187.8 70.884 188.112 70.641 188.46 70.461C188.808 70.275 189.165 70.182 189.531 70.182C189.711 70.182 189.888 70.197 190.062 70.227C190.242 70.251 190.419 70.287 190.593 70.335L190.782 71.289ZM194.36 70.182L197.501 76.464L196.619 76.644L195.566 74.52H193.082L192.038 76.644L191.21 76.464L194.342 70.182H194.36ZM193.451 73.71H195.206L194.324 71.937L193.451 73.71ZM201.146 70.326L201.299 71.136H198.842V72.882H200.732V73.692H198.842V76.5L197.96 76.608V70.326H201.146ZM205.253 70.326L205.442 71.136H202.841V72.882H204.92V73.692H202.841V75.69H205.64L205.388 76.5H201.959V70.326H205.253ZM204.947 68.67L203.651 69.966H202.913L203.723 68.67H204.947ZM207.107 75.033L207.692 75.807L207.107 76.581L206.522 75.807L207.107 75.033Z" fill="black"/>
<path d="M69.5494 93.676C69.3094 93.412 69.0964 93.232 68.9104 93.136C68.7244 93.04 68.5414 92.992 68.3614 92.992C68.0734 92.992 67.8394 93.076 67.6594 93.244C67.4794 93.412 67.3894 93.643 67.3894 93.937C67.3894 94.075 67.4194 94.195 67.4794 94.297C67.5454 94.393 67.6324 94.48 67.7404 94.558C67.8544 94.636 67.9894 94.708 68.1454 94.774C68.3014 94.834 68.4724 94.9 68.6584 94.972C68.8804 95.056 69.0844 95.146 69.2704 95.242C69.4624 95.338 69.6274 95.455 69.7654 95.593C69.9034 95.731 70.0114 95.896 70.0894 96.088C70.1734 96.274 70.2154 96.499 70.2154 96.763C70.2154 97.045 70.1644 97.3 70.0624 97.528C69.9604 97.756 69.8224 97.954 69.6484 98.122C69.4744 98.29 69.2704 98.419 69.0364 98.509C68.8084 98.599 68.5624 98.644 68.2984 98.644C68.1244 98.644 67.9594 98.626 67.8034 98.59C67.6474 98.56 67.4914 98.506 67.3354 98.428C67.1854 98.35 67.0294 98.248 66.8674 98.122C66.7114 97.99 66.5494 97.831 66.3814 97.645L67.0294 97.105C67.1554 97.303 67.3204 97.474 67.5244 97.618C67.7284 97.762 67.9564 97.834 68.2084 97.834C68.3644 97.834 68.5084 97.816 68.6404 97.78C68.7784 97.738 68.8984 97.675 69.0004 97.591C69.1024 97.507 69.1834 97.396 69.2434 97.258C69.3034 97.12 69.3334 96.952 69.3334 96.754C69.3334 96.64 69.2914 96.535 69.2074 96.439C69.1234 96.337 69.0184 96.247 68.8924 96.169C68.7724 96.091 68.6464 96.022 68.5144 95.962C68.3824 95.896 68.2684 95.839 68.1724 95.791C67.9744 95.695 67.7764 95.593 67.5784 95.485C67.3804 95.371 67.2004 95.242 67.0384 95.098C66.8824 94.954 66.7534 94.789 66.6514 94.603C66.5554 94.411 66.5074 94.183 66.5074 93.919C66.5074 93.661 66.5524 93.427 66.6424 93.217C66.7324 93.001 66.8584 92.818 67.0204 92.668C67.1884 92.512 67.3894 92.392 67.6234 92.308C67.8574 92.224 68.1184 92.182 68.4064 92.182C68.7124 92.182 69.0214 92.257 69.3334 92.407C69.6454 92.557 69.9154 92.782 70.1434 93.082L69.5494 93.676ZM72.0064 98.5L71.1244 98.572V92.326L72.0064 92.182V98.5ZM75.7594 92.182L77.2714 96.466H77.2894L78.8644 92.182L79.7464 92.326L77.2894 98.644H77.2714L74.8864 92.326L75.7594 92.182ZM86.3074 95.413C86.3074 95.863 86.2204 96.286 86.0464 96.682C85.8784 97.072 85.6474 97.414 85.3534 97.708C85.0654 97.996 84.7234 98.224 84.3274 98.392C83.9374 98.56 83.5174 98.644 83.0674 98.644C82.6114 98.644 82.1854 98.56 81.7894 98.392C81.3994 98.224 81.0574 97.993 80.7634 97.699C80.4754 97.405 80.2474 97.063 80.0794 96.673C79.9114 96.277 79.8274 95.857 79.8274 95.413C79.8274 94.963 79.9114 94.543 80.0794 94.153C80.2534 93.757 80.4844 93.415 80.7724 93.127C81.0664 92.833 81.4084 92.602 81.7984 92.434C82.1944 92.266 82.6174 92.182 83.0674 92.182C83.5234 92.182 83.9464 92.269 84.3364 92.443C84.7324 92.611 85.0744 92.842 85.3624 93.136C85.6564 93.424 85.8874 93.766 86.0554 94.162C86.2234 94.552 86.3074 94.969 86.3074 95.413ZM83.0674 97.834C83.3794 97.834 83.6764 97.771 83.9584 97.645C84.2464 97.513 84.4984 97.339 84.7144 97.123C84.9304 96.901 85.1014 96.643 85.2274 96.349C85.3594 96.055 85.4254 95.743 85.4254 95.413C85.4254 95.089 85.3624 94.78 85.2364 94.486C85.1104 94.192 84.9394 93.937 84.7234 93.721C84.5134 93.499 84.2644 93.322 83.9764 93.19C83.6884 93.058 83.3824 92.992 83.0584 92.992C82.7524 92.992 82.4554 93.055 82.1674 93.181C81.8854 93.307 81.6364 93.481 81.4204 93.703C81.2044 93.919 81.0304 94.174 80.8984 94.468C80.7724 94.762 80.7094 95.077 80.7094 95.413C80.7094 95.743 80.7724 96.055 80.8984 96.349C81.0244 96.643 81.1954 96.901 81.4114 97.123C81.6274 97.339 81.8764 97.513 82.1584 97.645C82.4464 97.771 82.7494 97.834 83.0674 97.834ZM88.0203 96.601C88.0203 96.967 88.1223 97.264 88.3263 97.492C88.5363 97.72 88.8483 97.834 89.2623 97.834C89.7123 97.834 90.0513 97.726 90.2793 97.51C90.5073 97.288 90.6213 96.988 90.6213 96.61V92.326L91.5033 92.182V95.809C91.5033 96.031 91.4973 96.256 91.4853 96.484C91.4793 96.712 91.4553 96.931 91.4133 97.141C91.3773 97.351 91.3143 97.549 91.2243 97.735C91.1403 97.915 91.0203 98.074 90.8643 98.212C90.7083 98.344 90.5103 98.449 90.2703 98.527C90.0363 98.605 89.7483 98.644 89.4063 98.644C88.9803 98.644 88.6203 98.602 88.3263 98.518C88.0383 98.434 87.8043 98.296 87.6243 98.104C87.4503 97.906 87.3243 97.651 87.2463 97.339C87.1743 97.021 87.1383 96.631 87.1383 96.169V92.326L88.0203 92.182V96.601ZM95.5562 93.676C95.3162 93.412 95.1032 93.232 94.9172 93.136C94.7312 93.04 94.5482 92.992 94.3682 92.992C94.0802 92.992 93.8462 93.076 93.6662 93.244C93.4862 93.412 93.3962 93.643 93.3962 93.937C93.3962 94.075 93.4262 94.195 93.4862 94.297C93.5522 94.393 93.6392 94.48 93.7472 94.558C93.8612 94.636 93.9962 94.708 94.1522 94.774C94.3082 94.834 94.4792 94.9 94.6652 94.972C94.8872 95.056 95.0912 95.146 95.2772 95.242C95.4692 95.338 95.6342 95.455 95.7722 95.593C95.9102 95.731 96.0182 95.896 96.0962 96.088C96.1802 96.274 96.2222 96.499 96.2222 96.763C96.2222 97.045 96.1712 97.3 96.0692 97.528C95.9672 97.756 95.8292 97.954 95.6552 98.122C95.4812 98.29 95.2772 98.419 95.0432 98.509C94.8152 98.599 94.5692 98.644 94.3052 98.644C94.1312 98.644 93.9662 98.626 93.8102 98.59C93.6542 98.56 93.4982 98.506 93.3422 98.428C93.1922 98.35 93.0362 98.248 92.8742 98.122C92.7182 97.99 92.5562 97.831 92.3882 97.645L93.0362 97.105C93.1622 97.303 93.3272 97.474 93.5312 97.618C93.7352 97.762 93.9632 97.834 94.2152 97.834C94.3712 97.834 94.5152 97.816 94.6472 97.78C94.7852 97.738 94.9052 97.675 95.0072 97.591C95.1092 97.507 95.1902 97.396 95.2502 97.258C95.3102 97.12 95.3402 96.952 95.3402 96.754C95.3402 96.64 95.2982 96.535 95.2142 96.439C95.1302 96.337 95.0252 96.247 94.8992 96.169C94.7792 96.091 94.6532 96.022 94.5212 95.962C94.3892 95.896 94.2752 95.839 94.1792 95.791C93.9812 95.695 93.7832 95.593 93.5852 95.485C93.3872 95.371 93.2072 95.242 93.0452 95.098C92.8892 94.954 92.7602 94.789 92.6582 94.603C92.5622 94.411 92.5142 94.183 92.5142 93.919C92.5142 93.661 92.5592 93.427 92.6492 93.217C92.7392 93.001 92.8652 92.818 93.0272 92.668C93.1952 92.512 93.3962 92.392 93.6302 92.308C93.8642 92.224 94.1252 92.182 94.4132 92.182C94.7192 92.182 95.0282 92.257 95.3402 92.407C95.6522 92.557 95.9222 92.782 96.1502 93.082L95.5562 93.676ZM101.346 92.326C101.646 92.326 101.922 92.371 102.174 92.461C102.426 92.545 102.642 92.668 102.822 92.83C103.008 92.992 103.152 93.184 103.254 93.406C103.356 93.628 103.407 93.874 103.407 94.144C103.407 94.426 103.368 94.69 103.29 94.936C103.212 95.176 103.077 95.386 102.885 95.566C102.699 95.746 102.45 95.887 102.138 95.989C101.826 96.091 101.436 96.142 100.968 96.142H100.536V98.5L99.6541 98.608V92.326H101.346ZM101.247 95.332C101.445 95.332 101.622 95.314 101.778 95.278C101.934 95.236 102.066 95.17 102.174 95.08C102.288 94.984 102.375 94.861 102.435 94.711C102.495 94.555 102.525 94.366 102.525 94.144C102.525 93.808 102.408 93.556 102.174 93.388C101.946 93.22 101.637 93.136 101.247 93.136H100.536V95.332H101.247ZM106.25 92.182L109.391 98.464L108.509 98.644L107.456 96.52H104.972L103.928 98.644L103.1 98.464L106.232 92.182H106.25ZM105.341 95.71H107.096L106.214 93.937L105.341 95.71ZM112.73 93.676C112.49 93.412 112.277 93.232 112.091 93.136C111.905 93.04 111.722 92.992 111.542 92.992C111.254 92.992 111.02 93.076 110.84 93.244C110.66 93.412 110.57 93.643 110.57 93.937C110.57 94.075 110.6 94.195 110.66 94.297C110.726 94.393 110.813 94.48 110.921 94.558C111.035 94.636 111.17 94.708 111.326 94.774C111.482 94.834 111.653 94.9 111.839 94.972C112.061 95.056 112.265 95.146 112.451 95.242C112.643 95.338 112.808 95.455 112.946 95.593C113.084 95.731 113.192 95.896 113.27 96.088C113.354 96.274 113.396 96.499 113.396 96.763C113.396 97.045 113.345 97.3 113.243 97.528C113.141 97.756 113.003 97.954 112.829 98.122C112.655 98.29 112.451 98.419 112.217 98.509C111.989 98.599 111.743 98.644 111.479 98.644C111.305 98.644 111.14 98.626 110.984 98.59C110.828 98.56 110.672 98.506 110.516 98.428C110.366 98.35 110.21 98.248 110.048 98.122C109.892 97.99 109.73 97.831 109.562 97.645L110.21 97.105C110.336 97.303 110.501 97.474 110.705 97.618C110.909 97.762 111.137 97.834 111.389 97.834C111.545 97.834 111.689 97.816 111.821 97.78C111.959 97.738 112.079 97.675 112.181 97.591C112.283 97.507 112.364 97.396 112.424 97.258C112.484 97.12 112.514 96.952 112.514 96.754C112.514 96.64 112.472 96.535 112.388 96.439C112.304 96.337 112.199 96.247 112.073 96.169C111.953 96.091 111.827 96.022 111.695 95.962C111.563 95.896 111.449 95.839 111.353 95.791C111.155 95.695 110.957 95.593 110.759 95.485C110.561 95.371 110.381 95.242 110.219 95.098C110.063 94.954 109.934 94.789 109.832 94.603C109.736 94.411 109.688 94.183 109.688 93.919C109.688 93.661 109.733 93.427 109.823 93.217C109.913 93.001 110.039 92.818 110.201 92.668C110.369 92.512 110.57 92.392 110.804 92.308C111.038 92.224 111.299 92.182 111.587 92.182C111.893 92.182 112.202 92.257 112.514 92.407C112.826 92.557 113.096 92.782 113.324 93.082L112.73 93.676ZM117.23 93.676C116.99 93.412 116.777 93.232 116.591 93.136C116.405 93.04 116.222 92.992 116.042 92.992C115.754 92.992 115.52 93.076 115.34 93.244C115.16 93.412 115.07 93.643 115.07 93.937C115.07 94.075 115.1 94.195 115.16 94.297C115.226 94.393 115.313 94.48 115.421 94.558C115.535 94.636 115.67 94.708 115.826 94.774C115.982 94.834 116.153 94.9 116.339 94.972C116.561 95.056 116.765 95.146 116.951 95.242C117.143 95.338 117.308 95.455 117.446 95.593C117.584 95.731 117.692 95.896 117.77 96.088C117.854 96.274 117.896 96.499 117.896 96.763C117.896 97.045 117.845 97.3 117.743 97.528C117.641 97.756 117.503 97.954 117.329 98.122C117.155 98.29 116.951 98.419 116.717 98.509C116.489 98.599 116.243 98.644 115.979 98.644C115.805 98.644 115.64 98.626 115.484 98.59C115.328 98.56 115.172 98.506 115.016 98.428C114.866 98.35 114.71 98.248 114.548 98.122C114.392 97.99 114.23 97.831 114.062 97.645L114.71 97.105C114.836 97.303 115.001 97.474 115.205 97.618C115.409 97.762 115.637 97.834 115.889 97.834C116.045 97.834 116.189 97.816 116.321 97.78C116.459 97.738 116.579 97.675 116.681 97.591C116.783 97.507 116.864 97.396 116.924 97.258C116.984 97.12 117.014 96.952 117.014 96.754C117.014 96.64 116.972 96.535 116.888 96.439C116.804 96.337 116.699 96.247 116.573 96.169C116.453 96.091 116.327 96.022 116.195 95.962C116.063 95.896 115.949 95.839 115.853 95.791C115.655 95.695 115.457 95.593 115.259 95.485C115.061 95.371 114.881 95.242 114.719 95.098C114.563 94.954 114.434 94.789 114.332 94.603C114.236 94.411 114.188 94.183 114.188 93.919C114.188 93.661 114.233 93.427 114.323 93.217C114.413 93.001 114.539 92.818 114.701 92.668C114.869 92.512 115.07 92.392 115.304 92.308C115.538 92.224 115.799 92.182 116.087 92.182C116.393 92.182 116.702 92.257 117.014 92.407C117.326 92.557 117.596 92.782 117.824 93.082L117.23 93.676ZM122.144 92.326L122.333 93.136H119.732V94.882H121.811V95.692H119.732V97.69H122.531L122.279 98.5H118.85V92.326H122.144ZM127.472 92.326L124.232 97.69H127.634L127.418 98.5H122.873L126.149 93.136H123.008L123.188 92.326H127.472ZM132.521 92.326C132.821 92.326 133.097 92.371 133.349 92.461C133.601 92.545 133.817 92.668 133.997 92.83C134.183 92.992 134.327 93.184 134.429 93.406C134.531 93.628 134.582 93.874 134.582 94.144C134.582 94.426 134.543 94.69 134.465 94.936C134.387 95.176 134.252 95.386 134.06 95.566C133.874 95.746 133.625 95.887 133.313 95.989C133.001 96.091 132.611 96.142 132.143 96.142H131.711V98.5L130.829 98.608V92.326H132.521ZM132.422 95.332C132.62 95.332 132.797 95.314 132.953 95.278C133.109 95.236 133.241 95.17 133.349 95.08C133.463 94.984 133.55 94.861 133.61 94.711C133.67 94.555 133.7 94.366 133.7 94.144C133.7 93.808 133.583 93.556 133.349 93.388C133.121 93.22 132.812 93.136 132.422 93.136H131.711V95.332H132.422ZM137.425 92.182L140.566 98.464L139.684 98.644L138.631 96.52H136.147L135.103 98.644L134.275 98.464L137.407 92.182H137.425ZM136.516 95.71H138.271L137.389 93.937L136.516 95.71ZM142.447 92.326C142.723 92.326 142.984 92.365 143.23 92.443C143.476 92.515 143.692 92.629 143.878 92.785C144.064 92.941 144.211 93.136 144.319 93.37C144.427 93.604 144.481 93.88 144.481 94.198C144.481 94.666 144.358 95.029 144.112 95.287C143.866 95.539 143.533 95.713 143.113 95.809L144.976 98.392L143.986 98.644L141.835 95.503H141.817V98.5L140.935 98.608V92.326H142.447ZM142.465 95.305C142.609 95.305 142.75 95.278 142.888 95.224C143.026 95.17 143.146 95.095 143.248 94.999C143.356 94.903 143.44 94.789 143.5 94.657C143.566 94.519 143.599 94.366 143.599 94.198C143.599 94.012 143.569 93.853 143.509 93.721C143.449 93.583 143.368 93.472 143.266 93.388C143.164 93.304 143.044 93.241 142.906 93.199C142.774 93.157 142.63 93.136 142.474 93.136H141.817V95.305H142.465ZM149.578 92.326C150.022 92.326 150.433 92.41 150.811 92.578C151.189 92.746 151.513 92.971 151.783 93.253C152.059 93.535 152.275 93.862 152.431 94.234C152.587 94.606 152.665 94.999 152.665 95.413C152.665 95.827 152.587 96.22 152.431 96.592C152.275 96.964 152.059 97.294 151.783 97.582C151.507 97.864 151.18 98.089 150.802 98.257C150.43 98.419 150.025 98.5 149.587 98.5H148.012V92.326H149.578ZM149.551 97.69C149.827 97.69 150.097 97.636 150.361 97.528C150.631 97.42 150.871 97.267 151.081 97.069C151.291 96.865 151.459 96.625 151.585 96.349C151.717 96.067 151.783 95.755 151.783 95.413C151.783 95.077 151.717 94.771 151.585 94.495C151.459 94.213 151.291 93.973 151.081 93.775C150.871 93.571 150.631 93.415 150.361 93.307C150.097 93.193 149.824 93.136 149.542 93.136H148.894V97.69H149.551ZM156.826 92.326L157.015 93.136H154.414V94.882H156.493V95.692H154.414V97.69H157.213L156.961 98.5H153.532V92.326H156.826ZM156.52 90.67L155.224 91.966H154.486L155.296 90.67H156.52ZM159.697 92.326C159.997 92.326 160.273 92.371 160.525 92.461C160.777 92.545 160.993 92.668 161.173 92.83C161.359 92.992 161.503 93.184 161.605 93.406C161.707 93.628 161.758 93.874 161.758 94.144C161.758 94.426 161.719 94.69 161.641 94.936C161.563 95.176 161.428 95.386 161.236 95.566C161.05 95.746 160.801 95.887 160.489 95.989C160.177 96.091 159.787 96.142 159.319 96.142H158.887V98.5L158.005 98.608V92.326H159.697ZM159.598 95.332C159.796 95.332 159.973 95.314 160.129 95.278C160.285 95.236 160.417 95.17 160.525 95.08C160.639 94.984 160.726 94.861 160.786 94.711C160.846 94.555 160.876 94.366 160.876 94.144C160.876 93.808 160.759 93.556 160.525 93.388C160.297 93.22 159.988 93.136 159.598 93.136H158.887V95.332H159.598ZM164.601 92.182L167.742 98.464L166.86 98.644L165.807 96.52H163.323L162.279 98.644L161.451 98.464L164.583 92.182H164.601ZM163.692 95.71H165.447L164.565 93.937L163.692 95.71ZM169.623 92.326C169.899 92.326 170.16 92.365 170.406 92.443C170.652 92.515 170.868 92.629 171.054 92.785C171.24 92.941 171.387 93.136 171.495 93.37C171.603 93.604 171.657 93.88 171.657 94.198C171.657 94.666 171.534 95.029 171.288 95.287C171.042 95.539 170.709 95.713 170.289 95.809L172.152 98.392L171.162 98.644L169.011 95.503L168.993 95.503V98.5L168.111 98.608V92.326L169.623 92.326ZM169.641 95.305C169.785 95.305 169.926 95.278 170.064 95.224C170.202 95.17 170.322 95.095 170.424 94.999C170.532 94.903 170.616 94.789 170.676 94.657C170.742 94.519 170.775 94.366 170.775 94.198C170.775 94.012 170.745 93.853 170.685 93.721C170.625 93.583 170.544 93.472 170.442 93.388C170.34 93.304 170.22 93.241 170.082 93.199C169.95 93.157 169.806 93.136 169.65 93.136L168.993 93.136V95.305L169.641 95.305ZM175.977 92.326V93.136H174.537V98.5L173.655 98.608V93.136H172.053L172.332 92.326H175.977ZM177.472 97.294L176.401 100.21L175.744 100.255L176.554 97.393L177.472 97.294Z" fill="black"/>
<path d="M90.9256 104.289C90.7636 104.175 90.5986 104.097 90.4306 104.055C90.2626 104.013 90.0826 103.992 89.8906 103.992C89.5726 103.992 89.2756 104.061 88.9996 104.199C88.7296 104.331 88.4926 104.508 88.2886 104.73C88.0846 104.946 87.9256 105.198 87.8116 105.486C87.6976 105.774 87.6406 106.071 87.6406 106.377C87.6406 106.701 87.6976 107.013 87.8116 107.313C87.9256 107.607 88.0816 107.868 88.2796 108.096C88.4776 108.318 88.7086 108.498 88.9726 108.636C89.2426 108.768 89.5336 108.834 89.8456 108.834C90.0556 108.834 90.2656 108.801 90.4756 108.735C90.6916 108.663 90.8866 108.57 91.0606 108.456L90.8986 109.419C90.7126 109.485 90.5326 109.539 90.3586 109.581C90.1906 109.623 90.0136 109.644 89.8276 109.644C89.4136 109.644 89.0206 109.56 88.6486 109.392C88.2766 109.224 87.9496 108.996 87.6676 108.708C87.3916 108.414 87.1696 108.072 87.0016 107.682C86.8396 107.286 86.7586 106.863 86.7586 106.413C86.7586 106.005 86.8426 105.609 87.0106 105.225C87.1786 104.835 87.3976 104.49 87.6676 104.19C87.9436 103.884 88.2556 103.641 88.6036 103.461C88.9516 103.275 89.3086 103.182 89.6746 103.182C89.8546 103.182 90.0316 103.197 90.2056 103.227C90.3856 103.251 90.5626 103.287 90.7366 103.335L90.9256 104.289ZM98.2395 106.413C98.2395 106.863 98.1525 107.286 97.9785 107.682C97.8105 108.072 97.5795 108.414 97.2855 108.708C96.9975 108.996 96.6555 109.224 96.2595 109.392C95.8695 109.56 95.4495 109.644 94.9995 109.644C94.5435 109.644 94.1175 109.56 93.7215 109.392C93.3315 109.224 92.9895 108.993 92.6955 108.699C92.4075 108.405 92.1795 108.063 92.0115 107.673C91.8435 107.277 91.7595 106.857 91.7595 106.413C91.7595 105.963 91.8435 105.543 92.0115 105.153C92.1855 104.757 92.4165 104.415 92.7045 104.127C92.9985 103.833 93.3405 103.602 93.7305 103.434C94.1265 103.266 94.5495 103.182 94.9995 103.182C95.4555 103.182 95.8785 103.269 96.2685 103.443C96.6645 103.611 97.0065 103.842 97.2945 104.136C97.5885 104.424 97.8195 104.766 97.9875 105.162C98.1555 105.552 98.2395 105.969 98.2395 106.413ZM94.9995 108.834C95.3115 108.834 95.6085 108.771 95.8905 108.645C96.1785 108.513 96.4305 108.339 96.6465 108.123C96.8625 107.901 97.0335 107.643 97.1595 107.349C97.2915 107.055 97.3575 106.743 97.3575 106.413C97.3575 106.089 97.2945 105.78 97.1685 105.486C97.0425 105.192 96.8715 104.937 96.6555 104.721C96.4455 104.499 96.1965 104.322 95.9085 104.19C95.6205 104.058 95.3145 103.992 94.9905 103.992C94.6845 103.992 94.3875 104.055 94.0995 104.181C93.8175 104.307 93.5685 104.481 93.3525 104.703C93.1365 104.919 92.9625 105.174 92.8305 105.468C92.7045 105.762 92.6415 106.077 92.6415 106.413C92.6415 106.743 92.7045 107.055 92.8305 107.349C92.9565 107.643 93.1275 107.901 93.3435 108.123C93.5595 108.339 93.8085 108.513 94.0905 108.645C94.3785 108.771 94.6815 108.834 94.9995 108.834ZM99.9884 108.69H102.607L102.247 109.5H99.1064V103.326L99.9884 103.182V108.69ZM103.987 108.69H106.606L106.246 109.5H103.105V103.326L103.987 103.182V108.69ZM110.398 103.326L110.587 104.136H107.986V105.882H110.065V106.692H107.986V108.69H110.785L110.533 109.5H107.104V103.326H110.398ZM115.429 104.289C115.267 104.175 115.102 104.097 114.934 104.055C114.766 104.013 114.586 103.992 114.394 103.992C114.076 103.992 113.779 104.061 113.503 104.199C113.233 104.331 112.996 104.508 112.792 104.73C112.588 104.946 112.429 105.198 112.315 105.486C112.201 105.774 112.144 106.071 112.144 106.377C112.144 106.701 112.201 107.013 112.315 107.313C112.429 107.607 112.585 107.868 112.783 108.096C112.981 108.318 113.212 108.498 113.476 108.636C113.746 108.768 114.037 108.834 114.349 108.834C114.559 108.834 114.769 108.801 114.979 108.735C115.195 108.663 115.39 108.57 115.564 108.456L115.402 109.419C115.216 109.485 115.036 109.539 114.862 109.581C114.694 109.623 114.517 109.644 114.331 109.644C113.917 109.644 113.524 109.56 113.152 109.392C112.78 109.224 112.453 108.996 112.171 108.708C111.895 108.414 111.673 108.072 111.505 107.682C111.343 107.286 111.262 106.863 111.262 106.413C111.262 106.005 111.346 105.609 111.514 105.225C111.682 104.835 111.901 104.49 112.171 104.19C112.447 103.884 112.759 103.641 113.107 103.461C113.455 103.275 113.812 103.182 114.178 103.182C114.358 103.182 114.535 103.197 114.709 103.227C114.889 103.251 115.066 103.287 115.24 103.335L115.429 104.289ZM119.881 103.326V104.136H118.441V109.5L117.559 109.608V104.136H115.957L116.236 103.326H119.881ZM123.898 103.326L124.087 104.136H121.486V105.882H123.565V106.692H121.486V108.69H124.285L124.033 109.5H120.604V103.326H123.898ZM129.226 103.326L125.986 108.69H129.388L129.172 109.5H124.627L127.903 104.136H124.762L124.942 103.326H129.226Z" fill="black"/>
<path d="M138.007 104.064C137.905 103.962 137.77 103.878 137.602 103.812C137.44 103.74 137.263 103.704 137.071 103.704C136.873 103.704 136.687 103.749 136.513 103.839C136.339 103.923 136.18 104.046 136.036 104.208C135.892 104.364 135.766 104.556 135.658 104.784C135.55 105.012 135.469 105.264 135.415 105.54H137.278L137.188 106.017H135.334C135.322 106.083 135.316 106.146 135.316 106.206C135.316 106.266 135.316 106.329 135.316 106.395C135.316 106.443 135.316 106.488 135.316 106.53C135.316 106.572 135.319 106.617 135.325 106.665H137.062L136.972 107.142H135.37C135.466 107.76 135.667 108.246 135.973 108.6C136.285 108.948 136.657 109.122 137.089 109.122C137.269 109.122 137.443 109.089 137.611 109.023C137.779 108.951 137.926 108.858 138.052 108.744L137.971 109.41C137.827 109.512 137.671 109.575 137.503 109.599C137.341 109.629 137.206 109.644 137.098 109.644C136.81 109.644 136.537 109.584 136.279 109.464C136.027 109.344 135.799 109.176 135.595 108.96C135.397 108.744 135.229 108.483 135.091 108.177C134.953 107.871 134.854 107.526 134.794 107.142H133.984L134.074 106.665H134.749C134.743 106.617 134.74 106.572 134.74 106.53C134.74 106.482 134.74 106.437 134.74 106.395C134.74 106.329 134.74 106.266 134.74 106.206C134.746 106.146 134.752 106.083 134.758 106.017H133.984L134.074 105.54H134.821C134.887 105.198 134.989 104.883 135.127 104.595C135.271 104.307 135.442 104.058 135.64 103.848C135.838 103.638 136.06 103.476 136.306 103.362C136.558 103.242 136.825 103.182 137.107 103.182C137.257 103.182 137.407 103.2 137.557 103.236C137.713 103.272 137.833 103.329 137.917 103.407L138.007 104.064Z" fill="black"/>
<path d="M144.737 105.108C144.737 105.348 144.692 105.588 144.602 105.828C144.512 106.068 144.398 106.302 144.26 106.53C144.122 106.752 143.969 106.965 143.801 107.169C143.633 107.373 143.471 107.559 143.315 107.727L142.406 108.69H144.836L144.674 109.5H140.633L143.099 106.638C143.189 106.536 143.279 106.422 143.369 106.296C143.459 106.17 143.54 106.041 143.612 105.909C143.684 105.771 143.741 105.636 143.783 105.504C143.831 105.366 143.855 105.234 143.855 105.108C143.855 104.76 143.747 104.487 143.531 104.289C143.315 104.091 143.027 103.992 142.667 103.992C142.493 103.992 142.334 104.022 142.19 104.082C142.046 104.142 141.92 104.226 141.812 104.334C141.704 104.436 141.62 104.556 141.56 104.694C141.5 104.832 141.47 104.979 141.47 105.135C141.47 105.531 141.569 105.843 141.767 106.071C141.971 106.293 142.226 106.419 142.532 106.449L141.974 107.151C141.578 107.025 141.26 106.785 141.02 106.431C140.78 106.077 140.66 105.636 140.66 105.108C140.66 104.826 140.711 104.568 140.813 104.334C140.921 104.1 141.068 103.899 141.254 103.731C141.44 103.557 141.659 103.422 141.911 103.326C142.163 103.23 142.439 103.182 142.739 103.182C143.021 103.182 143.282 103.227 143.522 103.317C143.768 103.407 143.981 103.536 144.161 103.704C144.341 103.872 144.482 104.076 144.584 104.316C144.686 104.55 144.737 104.814 144.737 105.108ZM147.749 109.644C147.335 109.644 146.984 109.548 146.696 109.356C146.408 109.158 146.177 108.906 146.003 108.6C145.829 108.288 145.703 107.94 145.625 107.556C145.547 107.166 145.508 106.782 145.508 106.404C145.508 106.176 145.523 105.939 145.553 105.693C145.583 105.447 145.631 105.204 145.697 104.964C145.769 104.724 145.862 104.496 145.976 104.28C146.09 104.064 146.228 103.875 146.39 103.713C146.558 103.551 146.753 103.422 146.975 103.326C147.197 103.23 147.455 103.182 147.749 103.182C148.169 103.182 148.52 103.281 148.802 103.479C149.09 103.677 149.321 103.932 149.495 104.244C149.675 104.556 149.801 104.904 149.873 105.288C149.951 105.672 149.99 106.053 149.99 106.431C149.99 106.773 149.954 107.133 149.882 107.511C149.81 107.883 149.687 108.228 149.513 108.546C149.345 108.864 149.117 109.128 148.829 109.338C148.541 109.542 148.181 109.644 147.749 109.644ZM147.749 108.834C148.199 108.834 148.538 108.627 148.766 108.213C148.994 107.793 149.108 107.193 149.108 106.413C149.108 105.645 148.994 105.051 148.766 104.631C148.544 104.205 148.202 103.992 147.74 103.992C147.32 103.992 146.99 104.193 146.75 104.595C146.51 104.991 146.39 105.597 146.39 106.413C146.39 107.193 146.504 107.793 146.732 108.213C146.96 108.627 147.299 108.834 147.749 108.834ZM152.75 109.644C152.336 109.644 151.985 109.548 151.697 109.356C151.409 109.158 151.178 108.906 151.004 108.6C150.83 108.288 150.704 107.94 150.626 107.556C150.548 107.166 150.509 106.782 150.509 106.404C150.509 106.176 150.524 105.939 150.554 105.693C150.584 105.447 150.632 105.204 150.698 104.964C150.77 104.724 150.863 104.496 150.977 104.28C151.091 104.064 151.229 103.875 151.391 103.713C151.559 103.551 151.754 103.422 151.976 103.326C152.198 103.23 152.456 103.182 152.75 103.182C153.17 103.182 153.521 103.281 153.803 103.479C154.091 103.677 154.322 103.932 154.496 104.244C154.676 104.556 154.802 104.904 154.874 105.288C154.952 105.672 154.991 106.053 154.991 106.431C154.991 106.773 154.955 107.133 154.883 107.511C154.811 107.883 154.688 108.228 154.514 108.546C154.346 108.864 154.118 109.128 153.83 109.338C153.542 109.542 153.182 109.644 152.75 109.644ZM152.75 108.834C153.2 108.834 153.539 108.627 153.767 108.213C153.995 107.793 154.109 107.193 154.109 106.413C154.109 105.645 153.995 105.051 153.767 104.631C153.545 104.205 153.203 103.992 152.741 103.992C152.321 103.992 151.991 104.193 151.751 104.595C151.511 104.991 151.391 105.597 151.391 106.413C151.391 107.193 151.505 107.793 151.733 108.213C151.961 108.627 152.3 108.834 152.75 108.834ZM156.5 108.033L157.085 108.807L156.5 109.581L155.915 108.807L156.5 108.033Z" fill="black"/>
<rect width="30" height="13" transform="translate(107.5 141)" fill="white"/>
<path d="M111.426 145.198C111.659 145.198 111.874 145.233 112.07 145.303C112.266 145.368 112.434 145.464 112.574 145.59C112.719 145.716 112.831 145.865 112.91 146.038C112.989 146.211 113.029 146.402 113.029 146.612C113.029 146.831 112.999 147.037 112.938 147.228C112.877 147.415 112.772 147.578 112.623 147.718C112.478 147.858 112.285 147.968 112.042 148.047C111.799 148.126 111.496 148.166 111.132 148.166H110.796V150L110.11 150.084V145.198H111.426ZM111.349 147.536C111.503 147.536 111.641 147.522 111.762 147.494C111.883 147.461 111.986 147.41 112.07 147.34C112.159 147.265 112.226 147.17 112.273 147.053C112.32 146.932 112.343 146.785 112.343 146.612C112.343 146.351 112.252 146.155 112.07 146.024C111.893 145.893 111.652 145.828 111.349 145.828H110.796V147.536H111.349ZM118.405 147.599C118.405 147.949 118.337 148.278 118.202 148.586C118.071 148.889 117.892 149.155 117.663 149.384C117.439 149.608 117.173 149.785 116.865 149.916C116.562 150.047 116.235 150.112 115.885 150.112C115.53 150.112 115.199 150.047 114.891 149.916C114.588 149.785 114.322 149.606 114.093 149.377C113.869 149.148 113.692 148.882 113.561 148.579C113.43 148.271 113.365 147.944 113.365 147.599C113.365 147.249 113.43 146.922 113.561 146.619C113.696 146.311 113.876 146.045 114.1 145.821C114.329 145.592 114.595 145.413 114.898 145.282C115.206 145.151 115.535 145.086 115.885 145.086C116.24 145.086 116.569 145.154 116.872 145.289C117.18 145.42 117.446 145.599 117.67 145.828C117.899 146.052 118.078 146.318 118.209 146.626C118.34 146.929 118.405 147.254 118.405 147.599ZM115.885 149.482C116.128 149.482 116.359 149.433 116.578 149.335C116.802 149.232 116.998 149.097 117.166 148.929C117.334 148.756 117.467 148.556 117.565 148.327C117.668 148.098 117.719 147.856 117.719 147.599C117.719 147.347 117.67 147.107 117.572 146.878C117.474 146.649 117.341 146.451 117.173 146.283C117.01 146.11 116.816 145.973 116.592 145.87C116.368 145.767 116.13 145.716 115.878 145.716C115.64 145.716 115.409 145.765 115.185 145.863C114.966 145.961 114.772 146.096 114.604 146.269C114.436 146.437 114.301 146.635 114.198 146.864C114.1 147.093 114.051 147.338 114.051 147.599C114.051 147.856 114.1 148.098 114.198 148.327C114.296 148.556 114.429 148.756 114.597 148.929C114.765 149.097 114.959 149.232 115.178 149.335C115.402 149.433 115.638 149.482 115.885 149.482ZM119.765 149.37H121.802L121.522 150H119.079V145.198L119.765 145.086V149.37ZM121.898 145.086L123.291 147.424L124.299 145.086L124.957 145.289L122.801 150.112L122.129 149.965L122.969 148.152L121.226 145.282L121.898 145.086ZM127.547 146.248C127.36 146.043 127.195 145.903 127.05 145.828C126.905 145.753 126.763 145.716 126.623 145.716C126.399 145.716 126.217 145.781 126.077 145.912C125.937 146.043 125.867 146.222 125.867 146.451C125.867 146.558 125.89 146.652 125.937 146.731C125.988 146.806 126.056 146.873 126.14 146.934C126.229 146.995 126.334 147.051 126.455 147.102C126.576 147.149 126.709 147.2 126.854 147.256C127.027 147.321 127.185 147.391 127.33 147.466C127.479 147.541 127.608 147.632 127.715 147.739C127.822 147.846 127.906 147.975 127.967 148.124C128.032 148.269 128.065 148.444 128.065 148.649C128.065 148.868 128.025 149.067 127.946 149.244C127.867 149.421 127.759 149.575 127.624 149.706C127.489 149.837 127.33 149.937 127.148 150.007C126.971 150.077 126.779 150.112 126.574 150.112C126.439 150.112 126.31 150.098 126.189 150.07C126.068 150.047 125.946 150.005 125.825 149.944C125.708 149.883 125.587 149.804 125.461 149.706C125.34 149.603 125.214 149.48 125.083 149.335L125.587 148.915C125.685 149.069 125.813 149.202 125.972 149.314C126.131 149.426 126.308 149.482 126.504 149.482C126.625 149.482 126.737 149.468 126.84 149.44C126.947 149.407 127.041 149.358 127.12 149.293C127.199 149.228 127.262 149.141 127.309 149.034C127.356 148.927 127.379 148.796 127.379 148.642C127.379 148.553 127.346 148.472 127.281 148.397C127.216 148.318 127.134 148.248 127.036 148.187C126.943 148.126 126.845 148.073 126.742 148.026C126.639 147.975 126.551 147.93 126.476 147.893C126.322 147.818 126.168 147.739 126.014 147.655C125.86 147.566 125.72 147.466 125.594 147.354C125.473 147.242 125.372 147.114 125.293 146.969C125.218 146.82 125.181 146.642 125.181 146.437C125.181 146.236 125.216 146.054 125.286 145.891C125.356 145.723 125.454 145.581 125.58 145.464C125.711 145.343 125.867 145.249 126.049 145.184C126.231 145.119 126.434 145.086 126.658 145.086C126.896 145.086 127.136 145.144 127.379 145.261C127.622 145.378 127.832 145.553 128.009 145.786L127.547 146.248ZM129.458 150L128.772 150.056V145.198L129.458 145.086V150ZM135.133 147.599C135.133 147.949 135.065 148.278 134.93 148.586C134.799 148.889 134.619 149.155 134.391 149.384C134.167 149.608 133.901 149.785 133.593 149.916C133.289 150.047 132.963 150.112 132.613 150.112C132.258 150.112 131.927 150.047 131.619 149.916C131.315 149.785 131.049 149.606 130.821 149.377C130.597 149.148 130.419 148.882 130.289 148.579C130.158 148.271 130.093 147.944 130.093 147.599C130.093 147.249 130.158 146.922 130.289 146.619C130.424 146.311 130.604 146.045 130.828 145.821C131.056 145.592 131.322 145.413 131.626 145.282C131.934 145.151 132.263 145.086 132.613 145.086C132.967 145.086 133.296 145.154 133.6 145.289C133.908 145.42 134.174 145.599 134.398 145.828C134.626 146.052 134.806 146.318 134.937 146.626C135.067 146.929 135.133 147.254 135.133 147.599ZM132.613 149.482C132.855 149.482 133.086 149.433 133.306 149.335C133.53 149.232 133.726 149.097 133.894 148.929C134.062 148.756 134.195 148.556 134.293 148.327C134.395 148.098 134.447 147.856 134.447 147.599C134.447 147.347 134.398 147.107 134.3 146.878C134.202 146.649 134.069 146.451 133.901 146.283C133.737 146.11 133.544 145.973 133.32 145.87C133.096 145.767 132.858 145.716 132.606 145.716C132.368 145.716 132.137 145.765 131.913 145.863C131.693 145.961 131.5 146.096 131.332 146.269C131.164 146.437 131.028 146.635 130.926 146.864C130.828 147.093 130.779 147.338 130.779 147.599C130.779 147.856 130.828 148.098 130.926 148.327C131.024 148.556 131.157 148.756 131.325 148.929C131.493 149.097 131.686 149.232 131.906 149.335C132.13 149.433 132.365 149.482 132.613 149.482Z" fill="black"/>
</svg>
