<svg width="244" height="157" viewBox="0 0 244 157" fill="none" xmlns="http://www.w3.org/2000/svg">
<rect width="244" height="157" fill="white"/>
<rect x="9" y="9" width="226" height="139" stroke="black"/>
<path d="M106.19 23.036C105.966 22.876 105.73 22.74 105.482 22.628C105.234 22.508 104.97 22.448 104.69 22.448C104.346 22.448 104.026 22.508 103.73 22.628C103.442 22.74 103.194 22.904 102.986 23.12C102.778 23.328 102.614 23.58 102.494 23.876C102.374 24.172 102.314 24.5 102.314 24.86C102.314 25.228 102.37 25.564 102.482 25.868C102.602 26.164 102.766 26.42 102.974 26.636C103.182 26.852 103.43 27.02 103.718 27.14C104.014 27.26 104.338 27.32 104.69 27.32C104.97 27.32 105.238 27.26 105.494 27.14C105.758 27.012 106.006 26.868 106.238 26.708L105.986 28.892C105.906 28.94 105.802 28.98 105.674 29.012C105.546 29.052 105.41 29.084 105.266 29.108C105.13 29.132 104.994 29.152 104.858 29.168C104.73 29.184 104.626 29.192 104.546 29.192C103.922 29.192 103.346 29.088 102.818 28.88C102.298 28.672 101.846 28.38 101.462 28.004C101.086 27.628 100.794 27.18 100.586 26.66C100.378 26.132 100.274 25.548 100.274 24.908C100.274 24.3 100.378 23.732 100.586 23.204C100.794 22.676 101.086 22.216 101.462 21.824C101.838 21.432 102.286 21.128 102.806 20.912C103.334 20.688 103.91 20.576 104.534 20.576C104.774 20.576 105.006 20.596 105.23 20.636C105.454 20.676 105.67 20.744 105.878 20.84L106.19 23.036ZM109.342 23.768H111.982V20.768L114.022 20.576V28.904L111.982 29.096V25.64H109.342V28.904L107.302 29.096V20.768L109.342 20.576V23.768ZM118.642 20.576H118.666L123.106 28.772L121.03 29.192L120.19 27.428L117.058 27.428L116.23 29.192L114.25 28.772L118.642 20.576ZM117.55 25.904L119.734 25.904L118.642 23.888L117.55 25.904ZM123.274 20.576H123.298L128.686 25.184V20.768L130.726 20.576V29.192H130.702L125.314 24.488V28.904L123.274 29.096V20.576ZM137.526 23.036C137.302 22.876 137.066 22.74 136.818 22.628C136.57 22.508 136.306 22.448 136.026 22.448C135.682 22.448 135.362 22.508 135.066 22.628C134.778 22.74 134.53 22.904 134.322 23.12C134.114 23.328 133.95 23.58 133.83 23.876C133.71 24.172 133.65 24.5 133.65 24.86C133.65 25.228 133.706 25.564 133.818 25.868C133.938 26.164 134.102 26.42 134.31 26.636C134.518 26.852 134.766 27.02 135.054 27.14C135.35 27.26 135.674 27.32 136.026 27.32C136.306 27.32 136.574 27.26 136.83 27.14C137.094 27.012 137.342 26.868 137.574 26.708L137.322 28.892C137.242 28.94 137.138 28.98 137.01 29.012C136.882 29.052 136.746 29.084 136.602 29.108C136.466 29.132 136.33 29.152 136.194 29.168C136.066 29.184 135.962 29.192 135.882 29.192C135.258 29.192 134.682 29.088 134.154 28.88C133.634 28.672 133.182 28.38 132.798 28.004C132.422 27.628 132.13 27.18 131.922 26.66C131.714 26.132 131.61 25.548 131.61 24.908C131.61 24.3 131.714 23.732 131.922 23.204C132.13 22.676 132.422 22.216 132.798 21.824C133.174 21.432 133.622 21.128 134.142 20.912C134.67 20.688 135.246 20.576 135.87 20.576C136.11 20.576 136.342 20.596 136.566 20.636C136.79 20.676 137.006 20.744 137.214 20.84L137.526 23.036ZM143.294 20.768L143.654 22.508H140.678V23.936H142.802V25.676H140.678V27.26H143.906L143.402 29H138.638V20.768H143.294Z" fill="black"/>
<rect width="194" height="95" transform="translate(25 37)" fill="white"/>
<path d="M58.8449 64.682L60.3569 68.966H60.3749L61.9499 64.682L62.8319 64.826L60.3749 71.144H60.3569L57.9719 64.826L58.8449 64.682ZM69.3929 67.913C69.3929 68.363 69.3059 68.786 69.1319 69.182C68.9639 69.572 68.7329 69.914 68.4389 70.208C68.1509 70.496 67.8089 70.724 67.4129 70.892C67.0229 71.06 66.6029 71.144 66.1529 71.144C65.6969 71.144 65.2709 71.06 64.8749 70.892C64.4849 70.724 64.1429 70.493 63.8489 70.199C63.5609 69.905 63.3329 69.563 63.1649 69.173C62.9969 68.777 62.9129 68.357 62.9129 67.913C62.9129 67.463 62.9969 67.043 63.1649 66.653C63.3389 66.257 63.5699 65.915 63.8579 65.627C64.1519 65.333 64.4939 65.102 64.8839 64.934C65.2799 64.766 65.7029 64.682 66.1529 64.682C66.6089 64.682 67.0319 64.769 67.4219 64.943C67.8179 65.111 68.1599 65.342 68.4479 65.636C68.7419 65.924 68.9729 66.266 69.1409 66.662C69.3089 67.052 69.3929 67.469 69.3929 67.913ZM66.1529 70.334C66.4649 70.334 66.7619 70.271 67.0439 70.145C67.3319 70.013 67.5839 69.839 67.7999 69.623C68.0159 69.401 68.1869 69.143 68.3129 68.849C68.4449 68.555 68.5109 68.243 68.5109 67.913C68.5109 67.589 68.4479 67.28 68.3219 66.986C68.1959 66.692 68.0249 66.437 67.8089 66.221C67.5989 65.999 67.3499 65.822 67.0619 65.69C66.7739 65.558 66.4679 65.492 66.1439 65.492C65.8379 65.492 65.5409 65.555 65.2529 65.681C64.9709 65.807 64.7219 65.981 64.5059 66.203C64.2899 66.419 64.1159 66.674 63.9839 66.968C63.8579 67.262 63.7949 67.577 63.7949 67.913C63.7949 68.243 63.8579 68.555 63.9839 68.849C64.1099 69.143 64.2809 69.401 64.4969 69.623C64.7129 69.839 64.9619 70.013 65.2439 70.145C65.5319 70.271 65.8349 70.334 66.1529 70.334ZM71.1057 69.101C71.1057 69.467 71.2077 69.764 71.4117 69.992C71.6217 70.22 71.9337 70.334 72.3477 70.334C72.7977 70.334 73.1367 70.226 73.3647 70.01C73.5927 69.788 73.7067 69.488 73.7067 69.11V64.826L74.5887 64.682V68.309C74.5887 68.531 74.5827 68.756 74.5707 68.984C74.5647 69.212 74.5407 69.431 74.4987 69.641C74.4627 69.851 74.3997 70.049 74.3097 70.235C74.2257 70.415 74.1057 70.574 73.9497 70.712C73.7937 70.844 73.5957 70.949 73.3557 71.027C73.1217 71.105 72.8337 71.144 72.4917 71.144C72.0657 71.144 71.7057 71.102 71.4117 71.018C71.1237 70.934 70.8897 70.796 70.7097 70.604C70.5357 70.406 70.4097 70.151 70.3317 69.839C70.2597 69.521 70.2237 69.131 70.2237 68.669V64.826L71.1057 64.682V69.101ZM78.6417 66.176C78.4017 65.912 78.1887 65.732 78.0027 65.636C77.8167 65.54 77.6337 65.492 77.4537 65.492C77.1657 65.492 76.9317 65.576 76.7517 65.744C76.5717 65.912 76.4817 66.143 76.4817 66.437C76.4817 66.575 76.5117 66.695 76.5717 66.797C76.6377 66.893 76.7247 66.98 76.8327 67.058C76.9467 67.136 77.0817 67.208 77.2377 67.274C77.3937 67.334 77.5647 67.4 77.7507 67.472C77.9727 67.556 78.1767 67.646 78.3627 67.742C78.5547 67.838 78.7197 67.955 78.8577 68.093C78.9957 68.231 79.1037 68.396 79.1817 68.588C79.2657 68.774 79.3077 68.999 79.3077 69.263C79.3077 69.545 79.2567 69.8 79.1547 70.028C79.0527 70.256 78.9147 70.454 78.7407 70.622C78.5667 70.79 78.3627 70.919 78.1287 71.009C77.9007 71.099 77.6547 71.144 77.3907 71.144C77.2167 71.144 77.0517 71.126 76.8957 71.09C76.7397 71.06 76.5837 71.006 76.4277 70.928C76.2777 70.85 76.1217 70.748 75.9597 70.622C75.8037 70.49 75.6417 70.331 75.4737 70.145L76.1217 69.605C76.2477 69.803 76.4127 69.974 76.6167 70.118C76.8207 70.262 77.0487 70.334 77.3007 70.334C77.4567 70.334 77.6007 70.316 77.7327 70.28C77.8707 70.238 77.9907 70.175 78.0927 70.091C78.1947 70.007 78.2757 69.896 78.3357 69.758C78.3957 69.62 78.4257 69.452 78.4257 69.254C78.4257 69.14 78.3837 69.035 78.2997 68.939C78.2157 68.837 78.1107 68.747 77.9847 68.669C77.8647 68.591 77.7387 68.522 77.6067 68.462C77.4747 68.396 77.3607 68.339 77.2647 68.291C77.0667 68.195 76.8687 68.093 76.6707 67.985C76.4727 67.871 76.2927 67.742 76.1307 67.598C75.9747 67.454 75.8457 67.289 75.7437 67.103C75.6477 66.911 75.5997 66.683 75.5997 66.419C75.5997 66.161 75.6447 65.927 75.7347 65.717C75.8247 65.501 75.9507 65.318 76.1127 65.168C76.2807 65.012 76.4817 64.892 76.7157 64.808C76.9497 64.724 77.2107 64.682 77.4987 64.682C77.8047 64.682 78.1137 64.757 78.4257 64.907C78.7377 65.057 79.0077 65.282 79.2357 65.582L78.6417 66.176ZM85.9526 64.826L86.1056 65.636H83.6486V67.382H85.5386V68.192H83.6486V71L82.7666 71.108V64.826H85.9526ZM88.8346 64.682L91.9756 70.964L91.0936 71.144L90.0406 69.02H87.5566L86.5126 71.144L85.6846 70.964L88.8166 64.682H88.8346ZM87.9256 68.21H89.6806L88.7986 66.437L87.9256 68.21ZM93.2715 71L92.3895 71.072V64.826L93.2715 64.682V71ZM97.7057 64.826V65.636H96.2657V71L95.3837 71.108V65.636H93.7817L94.0607 64.826H97.7057ZM101.723 64.826L101.912 65.636H99.3107V67.382H101.39V68.192H99.3107V70.19H102.11L101.858 71H98.4287V64.826H101.723ZM105.809 66.176C105.569 65.912 105.356 65.732 105.17 65.636C104.984 65.54 104.801 65.492 104.621 65.492C104.333 65.492 104.099 65.576 103.919 65.744C103.739 65.912 103.649 66.143 103.649 66.437C103.649 66.575 103.679 66.695 103.739 66.797C103.805 66.893 103.892 66.98 104 67.058C104.114 67.136 104.249 67.208 104.405 67.274C104.561 67.334 104.732 67.4 104.918 67.472C105.14 67.556 105.344 67.646 105.53 67.742C105.722 67.838 105.887 67.955 106.025 68.093C106.163 68.231 106.271 68.396 106.349 68.588C106.433 68.774 106.475 68.999 106.475 69.263C106.475 69.545 106.424 69.8 106.322 70.028C106.22 70.256 106.082 70.454 105.908 70.622C105.734 70.79 105.53 70.919 105.296 71.009C105.068 71.099 104.822 71.144 104.558 71.144C104.384 71.144 104.219 71.126 104.063 71.09C103.907 71.06 103.751 71.006 103.595 70.928C103.445 70.85 103.289 70.748 103.127 70.622C102.971 70.49 102.809 70.331 102.641 70.145L103.289 69.605C103.415 69.803 103.58 69.974 103.784 70.118C103.988 70.262 104.216 70.334 104.468 70.334C104.624 70.334 104.768 70.316 104.9 70.28C105.038 70.238 105.158 70.175 105.26 70.091C105.362 70.007 105.443 69.896 105.503 69.758C105.563 69.62 105.593 69.452 105.593 69.254C105.593 69.14 105.551 69.035 105.467 68.939C105.383 68.837 105.278 68.747 105.152 68.669C105.032 68.591 104.906 68.522 104.774 68.462C104.642 68.396 104.528 68.339 104.432 68.291C104.234 68.195 104.036 68.093 103.838 67.985C103.64 67.871 103.46 67.742 103.298 67.598C103.142 67.454 103.013 67.289 102.911 67.103C102.815 66.911 102.767 66.683 102.767 66.419C102.767 66.161 102.812 65.927 102.902 65.717C102.992 65.501 103.118 65.318 103.28 65.168C103.448 65.012 103.649 64.892 103.883 64.808C104.117 64.724 104.378 64.682 104.666 64.682C104.972 64.682 105.281 64.757 105.593 64.907C105.905 65.057 106.175 65.282 106.403 65.582L105.809 66.176ZM110.78 69.101C110.78 69.467 110.882 69.764 111.086 69.992C111.296 70.22 111.608 70.334 112.022 70.334C112.472 70.334 112.811 70.226 113.039 70.01C113.267 69.788 113.381 69.488 113.381 69.11V64.826L114.263 64.682V68.309C114.263 68.531 114.257 68.756 114.245 68.984C114.239 69.212 114.215 69.431 114.173 69.641C114.137 69.851 114.074 70.049 113.984 70.235C113.9 70.415 113.78 70.574 113.624 70.712C113.468 70.844 113.27 70.949 113.03 71.027C112.796 71.105 112.508 71.144 112.166 71.144C111.74 71.144 111.38 71.102 111.086 71.018C110.798 70.934 110.564 70.796 110.384 70.604C110.21 70.406 110.084 70.151 110.006 69.839C109.934 69.521 109.898 69.131 109.898 68.669V64.826L110.78 64.682V69.101ZM115.409 64.682L115.436 64.691L119.387 69.002V64.97L120.269 64.826V71.144L120.242 71.135L116.291 66.824V71L115.409 71.108V64.682ZM124.732 64.826L124.921 65.636H122.32V67.382H124.399V68.192H122.32V70.19H125.119L124.867 71H121.438V64.826H124.732ZM129.28 71L128.398 71.072V64.826L129.28 64.682V71ZM130.411 64.682L130.438 64.691L134.389 69.002V64.97L135.271 64.826V71.144L135.244 71.135L131.293 66.824V71L130.411 71.108V64.682ZM138.745 69.2C138.745 69.5 138.7 69.77 138.61 70.01C138.526 70.244 138.403 70.448 138.241 70.622C138.085 70.79 137.893 70.919 137.665 71.009C137.443 71.099 137.194 71.144 136.918 71.144C136.816 71.144 136.708 71.132 136.594 71.108C136.48 71.084 136.369 71.054 136.261 71.018C136.159 70.982 136.066 70.94 135.982 70.892C135.898 70.844 135.832 70.796 135.784 70.748L136.225 69.974C136.471 70.166 136.744 70.262 137.044 70.262C137.32 70.262 137.524 70.172 137.656 69.992C137.794 69.806 137.863 69.542 137.863 69.2V64.826L138.745 64.682V69.2ZM143.233 64.826L143.422 65.636H140.821V67.382H142.9V68.192H140.821V70.19H143.62L143.368 71H139.939V64.826H143.233ZM148.264 65.789C148.102 65.675 147.937 65.597 147.769 65.555C147.601 65.513 147.421 65.492 147.229 65.492C146.911 65.492 146.614 65.561 146.338 65.699C146.068 65.831 145.831 66.008 145.627 66.23C145.423 66.446 145.264 66.698 145.15 66.986C145.036 67.274 144.979 67.571 144.979 67.877C144.979 68.201 145.036 68.513 145.15 68.813C145.264 69.107 145.42 69.368 145.618 69.596C145.816 69.818 146.047 69.998 146.311 70.136C146.581 70.268 146.872 70.334 147.184 70.334C147.394 70.334 147.604 70.301 147.814 70.235C148.03 70.163 148.225 70.07 148.399 69.956L148.237 70.919C148.051 70.985 147.871 71.039 147.697 71.081C147.529 71.123 147.352 71.144 147.166 71.144C146.752 71.144 146.359 71.06 145.987 70.892C145.615 70.724 145.288 70.496 145.006 70.208C144.73 69.914 144.508 69.572 144.34 69.182C144.178 68.786 144.097 68.363 144.097 67.913C144.097 67.505 144.181 67.109 144.349 66.725C144.517 66.335 144.736 65.99 145.006 65.69C145.282 65.384 145.594 65.141 145.942 64.961C146.29 64.775 146.647 64.682 147.013 64.682C147.193 64.682 147.37 64.697 147.544 64.727C147.724 64.751 147.901 64.787 148.075 64.835L148.264 65.789ZM152.716 64.826V65.636H151.276V71L150.394 71.108V65.636H148.792L149.071 64.826H152.716ZM154.276 71L153.394 71.072V64.826L154.276 64.682V71ZM161.573 67.913C161.573 68.363 161.486 68.786 161.312 69.182C161.144 69.572 160.913 69.914 160.619 70.208C160.331 70.496 159.989 70.724 159.593 70.892C159.203 71.06 158.783 71.144 158.333 71.144C157.877 71.144 157.451 71.06 157.055 70.892C156.665 70.724 156.323 70.493 156.029 70.199C155.741 69.905 155.513 69.563 155.345 69.173C155.177 68.777 155.093 68.357 155.093 67.913C155.093 67.463 155.177 67.043 155.345 66.653C155.519 66.257 155.75 65.915 156.038 65.627C156.332 65.333 156.674 65.102 157.064 64.934C157.46 64.766 157.883 64.682 158.333 64.682C158.789 64.682 159.212 64.769 159.602 64.943C159.998 65.111 160.34 65.342 160.628 65.636C160.922 65.924 161.153 66.266 161.321 66.662C161.489 67.052 161.573 67.469 161.573 67.913ZM158.333 70.334C158.645 70.334 158.942 70.271 159.224 70.145C159.512 70.013 159.764 69.839 159.98 69.623C160.196 69.401 160.367 69.143 160.493 68.849C160.625 68.555 160.691 68.243 160.691 67.913C160.691 67.589 160.628 67.28 160.502 66.986C160.376 66.692 160.205 66.437 159.989 66.221C159.779 65.999 159.53 65.822 159.242 65.69C158.954 65.558 158.648 65.492 158.324 65.492C158.018 65.492 157.721 65.555 157.433 65.681C157.151 65.807 156.902 65.981 156.686 66.203C156.47 66.419 156.296 66.674 156.164 66.968C156.038 67.262 155.975 67.577 155.975 67.913C155.975 68.243 156.038 68.555 156.164 68.849C156.29 69.143 156.461 69.401 156.677 69.623C156.893 69.839 157.142 70.013 157.424 70.145C157.712 70.271 158.015 70.334 158.333 70.334ZM162.412 64.682L162.439 64.691L166.39 69.002V64.97L167.272 64.826V71.144L167.245 71.135L163.294 66.824V71L162.412 71.108V64.682ZM173.827 66.176C173.587 65.912 173.374 65.732 173.188 65.636C173.002 65.54 172.819 65.492 172.639 65.492C172.351 65.492 172.117 65.576 171.937 65.744C171.757 65.912 171.667 66.143 171.667 66.437C171.667 66.575 171.697 66.695 171.757 66.797C171.823 66.893 171.91 66.98 172.018 67.058C172.132 67.136 172.267 67.208 172.423 67.274C172.579 67.334 172.75 67.4 172.936 67.472C173.158 67.556 173.362 67.646 173.548 67.742C173.74 67.838 173.905 67.955 174.043 68.093C174.181 68.231 174.289 68.396 174.367 68.588C174.451 68.774 174.493 68.999 174.493 69.263C174.493 69.545 174.442 69.8 174.34 70.028C174.238 70.256 174.1 70.454 173.926 70.622C173.752 70.79 173.548 70.919 173.314 71.009C173.086 71.099 172.84 71.144 172.576 71.144C172.402 71.144 172.237 71.126 172.081 71.09C171.925 71.06 171.769 71.006 171.613 70.928C171.463 70.85 171.307 70.748 171.145 70.622C170.989 70.49 170.827 70.331 170.659 70.145L171.307 69.605C171.433 69.803 171.598 69.974 171.802 70.118C172.006 70.262 172.234 70.334 172.486 70.334C172.642 70.334 172.786 70.316 172.918 70.28C173.056 70.238 173.176 70.175 173.278 70.091C173.38 70.007 173.461 69.896 173.521 69.758C173.581 69.62 173.611 69.452 173.611 69.254C173.611 69.14 173.569 69.035 173.485 68.939C173.401 68.837 173.296 68.747 173.17 68.669C173.05 68.591 172.924 68.522 172.792 68.462C172.66 68.396 172.546 68.339 172.45 68.291C172.252 68.195 172.054 68.093 171.856 67.985C171.658 67.871 171.478 67.742 171.316 67.598C171.16 67.454 171.031 67.289 170.929 67.103C170.833 66.911 170.785 66.683 170.785 66.419C170.785 66.161 170.83 65.927 170.92 65.717C171.01 65.501 171.136 65.318 171.298 65.168C171.466 65.012 171.667 64.892 171.901 64.808C172.135 64.724 172.396 64.682 172.684 64.682C172.99 64.682 173.299 64.757 173.611 64.907C173.923 65.057 174.193 65.282 174.421 65.582L173.827 66.176ZM181.585 67.913C181.585 68.327 181.513 68.714 181.369 69.074C181.231 69.434 181.036 69.758 180.784 70.046L181.774 71.153L181.081 71.603L180.172 70.586C179.914 70.76 179.629 70.898 179.317 71C179.011 71.096 178.687 71.144 178.345 71.144C177.895 71.144 177.472 71.06 177.076 70.892C176.68 70.724 176.335 70.493 176.041 70.199C175.753 69.905 175.525 69.563 175.357 69.173C175.189 68.783 175.105 68.363 175.105 67.913C175.105 67.469 175.189 67.052 175.357 66.662C175.525 66.266 175.753 65.924 176.041 65.636C176.335 65.342 176.677 65.111 177.067 64.943C177.463 64.769 177.889 64.682 178.345 64.682C178.801 64.682 179.227 64.769 179.623 64.943C180.019 65.111 180.361 65.342 180.649 65.636C180.943 65.924 181.171 66.266 181.333 66.662C181.501 67.052 181.585 67.469 181.585 67.913ZM178.345 70.334C178.789 70.334 179.209 70.205 179.605 69.947L178.831 69.083L179.515 68.642L180.19 69.389C180.352 69.179 180.478 68.948 180.568 68.696C180.658 68.444 180.703 68.183 180.703 67.913C180.703 67.589 180.64 67.28 180.514 66.986C180.388 66.692 180.217 66.437 180.001 66.221C179.791 65.999 179.542 65.822 179.254 65.69C178.966 65.558 178.66 65.492 178.336 65.492C178.018 65.492 177.715 65.558 177.427 65.69C177.145 65.822 176.896 65.999 176.68 66.221C176.47 66.437 176.302 66.692 176.176 66.986C176.05 67.28 175.987 67.589 175.987 67.913C175.987 68.243 176.05 68.555 176.176 68.849C176.302 69.143 176.473 69.401 176.689 69.623C176.905 69.839 177.154 70.013 177.436 70.145C177.724 70.271 178.027 70.334 178.345 70.334ZM183.334 70.19H185.953L185.593 71H182.452V64.826L183.334 64.682V70.19ZM94.4708 77.176C94.2308 76.912 94.0178 76.732 93.8318 76.636C93.6458 76.54 93.4628 76.492 93.2828 76.492C92.9948 76.492 92.7608 76.576 92.5808 76.744C92.4008 76.912 92.3108 77.143 92.3108 77.437C92.3108 77.575 92.3408 77.695 92.4008 77.797C92.4668 77.893 92.5538 77.98 92.6618 78.058C92.7758 78.136 92.9108 78.208 93.0668 78.274C93.2228 78.334 93.3938 78.4 93.5798 78.472C93.8018 78.556 94.0058 78.646 94.1918 78.742C94.3838 78.838 94.5488 78.955 94.6868 79.093C94.8248 79.231 94.9328 79.396 95.0108 79.588C95.0948 79.774 95.1368 79.999 95.1368 80.263C95.1368 80.545 95.0858 80.8 94.9838 81.028C94.8818 81.256 94.7438 81.454 94.5698 81.622C94.3958 81.79 94.1918 81.919 93.9578 82.009C93.7298 82.099 93.4838 82.144 93.2198 82.144C93.0458 82.144 92.8808 82.126 92.7248 82.09C92.5688 82.06 92.4128 82.006 92.2568 81.928C92.1068 81.85 91.9508 81.748 91.7888 81.622C91.6328 81.49 91.4708 81.331 91.3028 81.145L91.9508 80.605C92.0768 80.803 92.2418 80.974 92.4458 81.118C92.6498 81.262 92.8778 81.334 93.1298 81.334C93.2858 81.334 93.4298 81.316 93.5618 81.28C93.6998 81.238 93.8198 81.175 93.9218 81.091C94.0238 81.007 94.1048 80.896 94.1648 80.758C94.2248 80.62 94.2548 80.452 94.2548 80.254C94.2548 80.14 94.2128 80.035 94.1288 79.939C94.0448 79.837 93.9398 79.747 93.8138 79.669C93.6938 79.591 93.5678 79.522 93.4358 79.462C93.3038 79.396 93.1898 79.339 93.0938 79.291C92.8958 79.195 92.6978 79.093 92.4998 78.985C92.3018 78.871 92.1218 78.742 91.9598 78.598C91.8038 78.454 91.6748 78.289 91.5728 78.103C91.4768 77.911 91.4288 77.683 91.4288 77.419C91.4288 77.161 91.4738 76.927 91.5638 76.717C91.6538 76.501 91.7798 76.318 91.9418 76.168C92.1098 76.012 92.3108 75.892 92.5448 75.808C92.7788 75.724 93.0398 75.682 93.3278 75.682C93.6338 75.682 93.9428 75.757 94.2548 75.907C94.5668 76.057 94.8368 76.282 95.0648 76.582L94.4708 77.176ZM96.9368 80.101C96.9368 80.467 97.0388 80.764 97.2428 80.992C97.4528 81.22 97.7648 81.334 98.1788 81.334C98.6288 81.334 98.9678 81.226 99.1958 81.01C99.4238 80.788 99.5378 80.488 99.5378 80.11V75.826L100.42 75.682V79.309C100.42 79.531 100.414 79.756 100.402 79.984C100.396 80.212 100.372 80.431 100.33 80.641C100.294 80.851 100.231 81.049 100.141 81.235C100.057 81.415 99.9368 81.574 99.7808 81.712C99.6248 81.844 99.4268 81.949 99.1868 82.027C98.9528 82.105 98.6648 82.144 98.3228 82.144C97.8968 82.144 97.5368 82.102 97.2428 82.018C96.9548 81.934 96.7208 81.796 96.5408 81.604C96.3668 81.406 96.2408 81.151 96.1628 80.839C96.0908 80.521 96.0548 80.131 96.0548 79.669V75.826L96.9368 75.682V80.101ZM103.015 75.826C103.291 75.826 103.552 75.865 103.798 75.943C104.044 76.015 104.26 76.129 104.446 76.285C104.632 76.441 104.779 76.636 104.887 76.87C104.995 77.104 105.049 77.38 105.049 77.698C105.049 78.166 104.926 78.529 104.68 78.787C104.434 79.039 104.101 79.213 103.681 79.309L105.544 81.892L104.554 82.144L102.403 79.003H102.385V82L101.503 82.108V75.826H103.015ZM103.033 78.805C103.177 78.805 103.318 78.778 103.456 78.724C103.594 78.67 103.714 78.595 103.816 78.499C103.924 78.403 104.008 78.289 104.068 78.157C104.134 78.019 104.167 77.866 104.167 77.698C104.167 77.512 104.137 77.353 104.077 77.221C104.017 77.083 103.936 76.972 103.834 76.888C103.732 76.804 103.612 76.741 103.474 76.699C103.342 76.657 103.198 76.636 103.042 76.636H102.385V78.805H103.033ZM109.48 81.19H112.099L111.739 82H108.598V75.826L109.48 75.682V81.19ZM115.891 75.826L116.08 76.636H113.479V78.382H115.558V79.192H113.479V81.19H116.278L116.026 82H112.597V75.826H115.891ZM121.267 75.826C121.567 75.826 121.843 75.871 122.095 75.961C122.347 76.045 122.563 76.168 122.743 76.33C122.929 76.492 123.073 76.684 123.175 76.906C123.277 77.128 123.328 77.374 123.328 77.644C123.328 77.926 123.289 78.19 123.211 78.436C123.133 78.676 122.998 78.886 122.806 79.066C122.62 79.246 122.371 79.387 122.059 79.489C121.747 79.591 121.357 79.642 120.889 79.642H120.457V82L119.575 82.108V75.826H121.267ZM121.168 78.832C121.366 78.832 121.543 78.814 121.699 78.778C121.855 78.736 121.987 78.67 122.095 78.58C122.209 78.484 122.296 78.361 122.356 78.211C122.416 78.055 122.446 77.866 122.446 77.644C122.446 77.308 122.329 77.056 122.095 76.888C121.867 76.72 121.558 76.636 121.168 76.636H120.457V78.832H121.168ZM124.984 81.19H127.603L127.243 82H124.102V75.826L124.984 75.682V81.19ZM130.504 75.682L133.645 81.964L132.763 82.144L131.71 80.02H129.226L128.182 82.144L127.354 81.964L130.486 75.682H130.504ZM129.595 79.21H131.35L130.468 77.437L129.595 79.21ZM136.887 75.826V76.636H135.447V82L134.565 82.108V76.636H132.963L133.242 75.826H136.887ZM140.904 75.826L141.093 76.636H138.492V78.382H140.571V79.192H138.492V81.19H141.291L141.039 82H137.61V75.826H140.904ZM144.513 75.682L147.654 81.964L146.772 82.144L145.719 80.02H143.235L142.191 82.144L141.363 81.964L144.495 75.682H144.513ZM143.604 79.21H145.359L144.477 77.437L143.604 79.21ZM148.959 80.101C148.959 80.467 149.061 80.764 149.265 80.992C149.475 81.22 149.787 81.334 150.201 81.334C150.651 81.334 150.99 81.226 151.218 81.01C151.446 80.788 151.56 80.488 151.56 80.11V75.826L152.442 75.682V79.309C152.442 79.531 152.436 79.756 152.424 79.984C152.418 80.212 152.394 80.431 152.352 80.641C152.316 80.851 152.253 81.049 152.163 81.235C152.079 81.415 151.959 81.574 151.803 81.712C151.647 81.844 151.449 81.949 151.209 82.027C150.975 82.105 150.687 82.144 150.345 82.144C149.919 82.144 149.559 82.102 149.265 82.018C148.977 81.934 148.743 81.796 148.563 81.604C148.389 81.406 148.263 81.151 148.185 80.839C148.113 80.521 148.077 80.131 148.077 79.669V75.826L148.959 75.682V80.101ZM154.263 80.533L154.848 81.307L154.263 82.081L153.678 81.307L154.263 80.533Z" fill="black"/>
<path d="M88.4256 98.789C88.2636 98.675 88.0986 98.597 87.9306 98.555C87.7626 98.513 87.5826 98.492 87.3906 98.492C87.0726 98.492 86.7756 98.561 86.4996 98.699C86.2296 98.831 85.9926 99.008 85.7886 99.23C85.5846 99.446 85.4256 99.698 85.3116 99.986C85.1976 100.274 85.1406 100.571 85.1406 100.877C85.1406 101.201 85.1976 101.513 85.3116 101.813C85.4256 102.107 85.5816 102.368 85.7796 102.596C85.9776 102.818 86.2086 102.998 86.4726 103.136C86.7426 103.268 87.0336 103.334 87.3456 103.334C87.5556 103.334 87.7656 103.301 87.9756 103.235C88.1916 103.163 88.3866 103.07 88.5606 102.956L88.3986 103.919C88.2126 103.985 88.0326 104.039 87.8586 104.081C87.6906 104.123 87.5136 104.144 87.3276 104.144C86.9136 104.144 86.5206 104.06 86.1486 103.892C85.7766 103.724 85.4496 103.496 85.1676 103.208C84.8916 102.914 84.6696 102.572 84.5016 102.182C84.3396 101.786 84.2586 101.363 84.2586 100.913C84.2586 100.505 84.3426 100.109 84.5106 99.725C84.6786 99.335 84.8976 98.99 85.1676 98.69C85.4436 98.384 85.7556 98.141 86.1036 97.961C86.4516 97.775 86.8086 97.682 87.1746 97.682C87.3546 97.682 87.5316 97.697 87.7056 97.727C87.8856 97.751 88.0626 97.787 88.2366 97.835L88.4256 98.789ZM95.7395 100.913C95.7395 101.363 95.6525 101.786 95.4785 102.182C95.3105 102.572 95.0795 102.914 94.7855 103.208C94.4975 103.496 94.1555 103.724 93.7595 103.892C93.3695 104.06 92.9495 104.144 92.4995 104.144C92.0435 104.144 91.6175 104.06 91.2215 103.892C90.8315 103.724 90.4895 103.493 90.1955 103.199C89.9075 102.905 89.6795 102.563 89.5115 102.173C89.3435 101.777 89.2595 101.357 89.2595 100.913C89.2595 100.463 89.3435 100.043 89.5115 99.653C89.6855 99.257 89.9165 98.915 90.2045 98.627C90.4985 98.333 90.8405 98.102 91.2305 97.934C91.6265 97.766 92.0495 97.682 92.4995 97.682C92.9555 97.682 93.3785 97.769 93.7685 97.943C94.1645 98.111 94.5065 98.342 94.7945 98.636C95.0885 98.924 95.3195 99.266 95.4875 99.662C95.6555 100.052 95.7395 100.469 95.7395 100.913ZM92.4995 103.334C92.8115 103.334 93.1085 103.271 93.3905 103.145C93.6785 103.013 93.9305 102.839 94.1465 102.623C94.3625 102.401 94.5335 102.143 94.6595 101.849C94.7915 101.555 94.8575 101.243 94.8575 100.913C94.8575 100.589 94.7945 100.28 94.6685 99.986C94.5425 99.692 94.3715 99.437 94.1555 99.221C93.9455 98.999 93.6965 98.822 93.4085 98.69C93.1205 98.558 92.8145 98.492 92.4905 98.492C92.1845 98.492 91.8875 98.555 91.5995 98.681C91.3175 98.807 91.0685 98.981 90.8525 99.203C90.6365 99.419 90.4625 99.674 90.3305 99.968C90.2045 100.262 90.1415 100.577 90.1415 100.913C90.1415 101.243 90.2045 101.555 90.3305 101.849C90.4565 102.143 90.6275 102.401 90.8435 102.623C91.0595 102.839 91.3085 103.013 91.5905 103.145C91.8785 103.271 92.1815 103.334 92.4995 103.334ZM97.4884 103.19H100.107L99.7474 104H96.6064V97.826L97.4884 97.682V103.19ZM101.487 103.19H104.106L103.746 104H100.605V97.826L101.487 97.682V103.19ZM107.898 97.826L108.087 98.636H105.486V100.382H107.565V101.192H105.486V103.19H108.285L108.033 104H104.604V97.826H107.898ZM112.929 98.789C112.767 98.675 112.602 98.597 112.434 98.555C112.266 98.513 112.086 98.492 111.894 98.492C111.576 98.492 111.279 98.561 111.003 98.699C110.733 98.831 110.496 99.008 110.292 99.23C110.088 99.446 109.929 99.698 109.815 99.986C109.701 100.274 109.644 100.571 109.644 100.877C109.644 101.201 109.701 101.513 109.815 101.813C109.929 102.107 110.085 102.368 110.283 102.596C110.481 102.818 110.712 102.998 110.976 103.136C111.246 103.268 111.537 103.334 111.849 103.334C112.059 103.334 112.269 103.301 112.479 103.235C112.695 103.163 112.89 103.07 113.064 102.956L112.902 103.919C112.716 103.985 112.536 104.039 112.362 104.081C112.194 104.123 112.017 104.144 111.831 104.144C111.417 104.144 111.024 104.06 110.652 103.892C110.28 103.724 109.953 103.496 109.671 103.208C109.395 102.914 109.173 102.572 109.005 102.182C108.843 101.786 108.762 101.363 108.762 100.913C108.762 100.505 108.846 100.109 109.014 99.725C109.182 99.335 109.401 98.99 109.671 98.69C109.947 98.384 110.259 98.141 110.607 97.961C110.955 97.775 111.312 97.682 111.678 97.682C111.858 97.682 112.035 97.697 112.209 97.727C112.389 97.751 112.566 97.787 112.74 97.835L112.929 98.789ZM117.381 97.826V98.636H115.941V104L115.059 104.108V98.636H113.457L113.736 97.826H117.381ZM121.398 97.826L121.587 98.636H118.986V100.382H121.065V101.192H118.986V103.19H121.785L121.533 104H118.104V97.826H121.398ZM126.726 97.826L123.486 103.19H126.888L126.672 104H122.127L125.403 98.636H122.262L122.442 97.826H126.726Z" fill="black"/>
<path d="M135.507 98.564C135.405 98.462 135.27 98.378 135.102 98.312C134.94 98.24 134.763 98.204 134.571 98.204C134.373 98.204 134.187 98.249 134.013 98.339C133.839 98.423 133.68 98.546 133.536 98.708C133.392 98.864 133.266 99.056 133.158 99.284C133.05 99.512 132.969 99.764 132.915 100.04H134.778L134.688 100.517H132.834C132.822 100.583 132.816 100.646 132.816 100.706C132.816 100.766 132.816 100.829 132.816 100.895C132.816 100.943 132.816 100.988 132.816 101.03C132.816 101.072 132.819 101.117 132.825 101.165H134.562L134.472 101.642H132.87C132.966 102.26 133.167 102.746 133.473 103.1C133.785 103.448 134.157 103.622 134.589 103.622C134.769 103.622 134.943 103.589 135.111 103.523C135.279 103.451 135.426 103.358 135.552 103.244L135.471 103.91C135.327 104.012 135.171 104.075 135.003 104.099C134.841 104.129 134.706 104.144 134.598 104.144C134.31 104.144 134.037 104.084 133.779 103.964C133.527 103.844 133.299 103.676 133.095 103.46C132.897 103.244 132.729 102.983 132.591 102.677C132.453 102.371 132.354 102.026 132.294 101.642H131.484L131.574 101.165H132.249C132.243 101.117 132.24 101.072 132.24 101.03C132.24 100.982 132.24 100.937 132.24 100.895C132.24 100.829 132.24 100.766 132.24 100.706C132.246 100.646 132.252 100.583 132.258 100.517H131.484L131.574 100.04H132.321C132.387 99.698 132.489 99.383 132.627 99.095C132.771 98.807 132.942 98.558 133.14 98.348C133.338 98.138 133.56 97.976 133.806 97.862C134.058 97.742 134.325 97.682 134.607 97.682C134.757 97.682 134.907 97.7 135.057 97.736C135.213 97.772 135.333 97.829 135.417 97.907L135.507 98.564Z" fill="black"/>
<path d="M140.95 97.682H140.968V104L140.086 104.072V99.221L138.826 100.004L138.511 99.446L140.95 97.682ZM145.249 104.144C144.835 104.144 144.484 104.048 144.196 103.856C143.908 103.658 143.677 103.406 143.503 103.1C143.329 102.788 143.203 102.44 143.125 102.056C143.047 101.666 143.008 101.282 143.008 100.904C143.008 100.676 143.023 100.439 143.053 100.193C143.083 99.947 143.131 99.704 143.197 99.464C143.269 99.224 143.362 98.996 143.476 98.78C143.59 98.564 143.728 98.375 143.89 98.213C144.058 98.051 144.253 97.922 144.475 97.826C144.697 97.73 144.955 97.682 145.249 97.682C145.669 97.682 146.02 97.781 146.302 97.979C146.59 98.177 146.821 98.432 146.995 98.744C147.175 99.056 147.301 99.404 147.373 99.788C147.451 100.172 147.49 100.553 147.49 100.931C147.49 101.273 147.454 101.633 147.382 102.011C147.31 102.383 147.187 102.728 147.013 103.046C146.845 103.364 146.617 103.628 146.329 103.838C146.041 104.042 145.681 104.144 145.249 104.144ZM145.249 103.334C145.699 103.334 146.038 103.127 146.266 102.713C146.494 102.293 146.608 101.693 146.608 100.913C146.608 100.145 146.494 99.551 146.266 99.131C146.044 98.705 145.702 98.492 145.24 98.492C144.82 98.492 144.49 98.693 144.25 99.095C144.01 99.491 143.89 100.097 143.89 100.913C143.89 101.693 144.004 102.293 144.232 102.713C144.46 103.127 144.799 103.334 145.249 103.334ZM150.25 104.144C149.836 104.144 149.485 104.048 149.197 103.856C148.909 103.658 148.678 103.406 148.504 103.1C148.33 102.788 148.204 102.44 148.126 102.056C148.048 101.666 148.009 101.282 148.009 100.904C148.009 100.676 148.024 100.439 148.054 100.193C148.084 99.947 148.132 99.704 148.198 99.464C148.27 99.224 148.363 98.996 148.477 98.78C148.591 98.564 148.729 98.375 148.891 98.213C149.059 98.051 149.254 97.922 149.476 97.826C149.698 97.73 149.956 97.682 150.25 97.682C150.67 97.682 151.021 97.781 151.303 97.979C151.591 98.177 151.822 98.432 151.996 98.744C152.176 99.056 152.302 99.404 152.374 99.788C152.452 100.172 152.491 100.553 152.491 100.931C152.491 101.273 152.455 101.633 152.383 102.011C152.311 102.383 152.188 102.728 152.014 103.046C151.846 103.364 151.618 103.628 151.33 103.838C151.042 104.042 150.682 104.144 150.25 104.144ZM150.25 103.334C150.7 103.334 151.039 103.127 151.267 102.713C151.495 102.293 151.609 101.693 151.609 100.913C151.609 100.145 151.495 99.551 151.267 99.131C151.045 98.705 150.703 98.492 150.241 98.492C149.821 98.492 149.491 98.693 149.251 99.095C149.011 99.491 148.891 100.097 148.891 100.913C148.891 101.693 149.005 102.293 149.233 102.713C149.461 103.127 149.8 103.334 150.25 103.334ZM155.251 104.144C154.837 104.144 154.486 104.048 154.198 103.856C153.91 103.658 153.679 103.406 153.505 103.1C153.331 102.788 153.205 102.44 153.127 102.056C153.049 101.666 153.01 101.282 153.01 100.904C153.01 100.676 153.025 100.439 153.055 100.193C153.085 99.947 153.133 99.704 153.199 99.464C153.271 99.224 153.364 98.996 153.478 98.78C153.592 98.564 153.73 98.375 153.892 98.213C154.06 98.051 154.255 97.922 154.477 97.826C154.699 97.73 154.957 97.682 155.251 97.682C155.671 97.682 156.022 97.781 156.304 97.979C156.592 98.177 156.823 98.432 156.997 98.744C157.177 99.056 157.303 99.404 157.375 99.788C157.453 100.172 157.492 100.553 157.492 100.931C157.492 101.273 157.456 101.633 157.384 102.011C157.312 102.383 157.189 102.728 157.015 103.046C156.847 103.364 156.619 103.628 156.331 103.838C156.043 104.042 155.683 104.144 155.251 104.144ZM155.251 103.334C155.701 103.334 156.04 103.127 156.268 102.713C156.496 102.293 156.61 101.693 156.61 100.913C156.61 100.145 156.496 99.551 156.268 99.131C156.046 98.705 155.704 98.492 155.242 98.492C154.822 98.492 154.492 98.693 154.252 99.095C154.012 99.491 153.892 100.097 153.892 100.913C153.892 101.693 154.006 102.293 154.234 102.713C154.462 103.127 154.801 103.334 155.251 103.334ZM159.001 102.533L159.586 103.307L159.001 104.081L158.416 103.307L159.001 102.533Z" fill="black"/>
<rect width="30" height="13" transform="translate(107.5 141)" fill="white"/>
<path d="M111.426 145.198C111.659 145.198 111.874 145.233 112.07 145.303C112.266 145.368 112.434 145.464 112.574 145.59C112.719 145.716 112.831 145.865 112.91 146.038C112.989 146.211 113.029 146.402 113.029 146.612C113.029 146.831 112.999 147.037 112.938 147.228C112.877 147.415 112.772 147.578 112.623 147.718C112.478 147.858 112.285 147.968 112.042 148.047C111.799 148.126 111.496 148.166 111.132 148.166H110.796V150L110.11 150.084V145.198H111.426ZM111.349 147.536C111.503 147.536 111.641 147.522 111.762 147.494C111.883 147.461 111.986 147.41 112.07 147.34C112.159 147.265 112.226 147.17 112.273 147.053C112.32 146.932 112.343 146.785 112.343 146.612C112.343 146.351 112.252 146.155 112.07 146.024C111.893 145.893 111.652 145.828 111.349 145.828H110.796V147.536H111.349ZM118.405 147.599C118.405 147.949 118.337 148.278 118.202 148.586C118.071 148.889 117.892 149.155 117.663 149.384C117.439 149.608 117.173 149.785 116.865 149.916C116.562 150.047 116.235 150.112 115.885 150.112C115.53 150.112 115.199 150.047 114.891 149.916C114.588 149.785 114.322 149.606 114.093 149.377C113.869 149.148 113.692 148.882 113.561 148.579C113.43 148.271 113.365 147.944 113.365 147.599C113.365 147.249 113.43 146.922 113.561 146.619C113.696 146.311 113.876 146.045 114.1 145.821C114.329 145.592 114.595 145.413 114.898 145.282C115.206 145.151 115.535 145.086 115.885 145.086C116.24 145.086 116.569 145.154 116.872 145.289C117.18 145.42 117.446 145.599 117.67 145.828C117.899 146.052 118.078 146.318 118.209 146.626C118.34 146.929 118.405 147.254 118.405 147.599ZM115.885 149.482C116.128 149.482 116.359 149.433 116.578 149.335C116.802 149.232 116.998 149.097 117.166 148.929C117.334 148.756 117.467 148.556 117.565 148.327C117.668 148.098 117.719 147.856 117.719 147.599C117.719 147.347 117.67 147.107 117.572 146.878C117.474 146.649 117.341 146.451 117.173 146.283C117.01 146.11 116.816 145.973 116.592 145.87C116.368 145.767 116.13 145.716 115.878 145.716C115.64 145.716 115.409 145.765 115.185 145.863C114.966 145.961 114.772 146.096 114.604 146.269C114.436 146.437 114.301 146.635 114.198 146.864C114.1 147.093 114.051 147.338 114.051 147.599C114.051 147.856 114.1 148.098 114.198 148.327C114.296 148.556 114.429 148.756 114.597 148.929C114.765 149.097 114.959 149.232 115.178 149.335C115.402 149.433 115.638 149.482 115.885 149.482ZM119.765 149.37H121.802L121.522 150H119.079V145.198L119.765 145.086V149.37ZM121.898 145.086L123.291 147.424L124.299 145.086L124.957 145.289L122.801 150.112L122.129 149.965L122.969 148.152L121.226 145.282L121.898 145.086ZM127.547 146.248C127.36 146.043 127.195 145.903 127.05 145.828C126.905 145.753 126.763 145.716 126.623 145.716C126.399 145.716 126.217 145.781 126.077 145.912C125.937 146.043 125.867 146.222 125.867 146.451C125.867 146.558 125.89 146.652 125.937 146.731C125.988 146.806 126.056 146.873 126.14 146.934C126.229 146.995 126.334 147.051 126.455 147.102C126.576 147.149 126.709 147.2 126.854 147.256C127.027 147.321 127.185 147.391 127.33 147.466C127.479 147.541 127.608 147.632 127.715 147.739C127.822 147.846 127.906 147.975 127.967 148.124C128.032 148.269 128.065 148.444 128.065 148.649C128.065 148.868 128.025 149.067 127.946 149.244C127.867 149.421 127.759 149.575 127.624 149.706C127.489 149.837 127.33 149.937 127.148 150.007C126.971 150.077 126.779 150.112 126.574 150.112C126.439 150.112 126.31 150.098 126.189 150.07C126.068 150.047 125.946 150.005 125.825 149.944C125.708 149.883 125.587 149.804 125.461 149.706C125.34 149.603 125.214 149.48 125.083 149.335L125.587 148.915C125.685 149.069 125.813 149.202 125.972 149.314C126.131 149.426 126.308 149.482 126.504 149.482C126.625 149.482 126.737 149.468 126.84 149.44C126.947 149.407 127.041 149.358 127.12 149.293C127.199 149.228 127.262 149.141 127.309 149.034C127.356 148.927 127.379 148.796 127.379 148.642C127.379 148.553 127.346 148.472 127.281 148.397C127.216 148.318 127.134 148.248 127.036 148.187C126.943 148.126 126.845 148.073 126.742 148.026C126.639 147.975 126.551 147.93 126.476 147.893C126.322 147.818 126.168 147.739 126.014 147.655C125.86 147.566 125.72 147.466 125.594 147.354C125.473 147.242 125.372 147.114 125.293 146.969C125.218 146.82 125.181 146.642 125.181 146.437C125.181 146.236 125.216 146.054 125.286 145.891C125.356 145.723 125.454 145.581 125.58 145.464C125.711 145.343 125.867 145.249 126.049 145.184C126.231 145.119 126.434 145.086 126.658 145.086C126.896 145.086 127.136 145.144 127.379 145.261C127.622 145.378 127.832 145.553 128.009 145.786L127.547 146.248ZM129.458 150L128.772 150.056V145.198L129.458 145.086V150ZM135.133 147.599C135.133 147.949 135.065 148.278 134.93 148.586C134.799 148.889 134.619 149.155 134.391 149.384C134.167 149.608 133.901 149.785 133.593 149.916C133.289 150.047 132.963 150.112 132.613 150.112C132.258 150.112 131.927 150.047 131.619 149.916C131.315 149.785 131.049 149.606 130.821 149.377C130.597 149.148 130.419 148.882 130.289 148.579C130.158 148.271 130.093 147.944 130.093 147.599C130.093 147.249 130.158 146.922 130.289 146.619C130.424 146.311 130.604 146.045 130.828 145.821C131.056 145.592 131.322 145.413 131.626 145.282C131.934 145.151 132.263 145.086 132.613 145.086C132.967 145.086 133.296 145.154 133.6 145.289C133.908 145.42 134.174 145.599 134.398 145.828C134.626 146.052 134.806 146.318 134.937 146.626C135.067 146.929 135.133 147.254 135.133 147.599ZM132.613 149.482C132.855 149.482 133.086 149.433 133.306 149.335C133.53 149.232 133.726 149.097 133.894 148.929C134.062 148.756 134.195 148.556 134.293 148.327C134.395 148.098 134.447 147.856 134.447 147.599C134.447 147.347 134.398 147.107 134.3 146.878C134.202 146.649 134.069 146.451 133.901 146.283C133.737 146.11 133.544 145.973 133.32 145.87C133.096 145.767 132.858 145.716 132.606 145.716C132.368 145.716 132.137 145.765 131.913 145.863C131.693 145.961 131.5 146.096 131.332 146.269C131.164 146.437 131.028 146.635 130.926 146.864C130.828 147.093 130.779 147.338 130.779 147.599C130.779 147.856 130.828 148.098 130.926 148.327C131.024 148.556 131.157 148.756 131.325 148.929C131.493 149.097 131.686 149.232 131.906 149.335C132.13 149.433 132.365 149.482 132.613 149.482Z" fill="black"/>
</svg>
