<svg width="244" height="157" viewBox="0 0 244 157" fill="none" xmlns="http://www.w3.org/2000/svg">
<rect width="244" height="157" fill="white"/>
<rect x="9" y="9" width="226" height="139" stroke="black"/>
<path d="M106.19 23.036C105.966 22.876 105.73 22.74 105.482 22.628C105.234 22.508 104.97 22.448 104.69 22.448C104.346 22.448 104.026 22.508 103.73 22.628C103.442 22.74 103.194 22.904 102.986 23.12C102.778 23.328 102.614 23.58 102.494 23.876C102.374 24.172 102.314 24.5 102.314 24.86C102.314 25.228 102.37 25.564 102.482 25.868C102.602 26.164 102.766 26.42 102.974 26.636C103.182 26.852 103.43 27.02 103.718 27.14C104.014 27.26 104.338 27.32 104.69 27.32C104.97 27.32 105.238 27.26 105.494 27.14C105.758 27.012 106.006 26.868 106.238 26.708L105.986 28.892C105.906 28.94 105.802 28.98 105.674 29.012C105.546 29.052 105.41 29.084 105.266 29.108C105.13 29.132 104.994 29.152 104.858 29.168C104.73 29.184 104.626 29.192 104.546 29.192C103.922 29.192 103.346 29.088 102.818 28.88C102.298 28.672 101.846 28.38 101.462 28.004C101.086 27.628 100.794 27.18 100.586 26.66C100.378 26.132 100.274 25.548 100.274 24.908C100.274 24.3 100.378 23.732 100.586 23.204C100.794 22.676 101.086 22.216 101.462 21.824C101.838 21.432 102.286 21.128 102.806 20.912C103.334 20.688 103.91 20.576 104.534 20.576C104.774 20.576 105.006 20.596 105.23 20.636C105.454 20.676 105.67 20.744 105.878 20.84L106.19 23.036ZM109.342 23.768H111.982V20.768L114.022 20.576V28.904L111.982 29.096V25.64H109.342V28.904L107.302 29.096V20.768L109.342 20.576V23.768ZM118.642 20.576H118.666L123.106 28.772L121.03 29.192L120.19 27.428L117.058 27.428L116.23 29.192L114.25 28.772L118.642 20.576ZM117.55 25.904L119.734 25.904L118.642 23.888L117.55 25.904ZM123.274 20.576H123.298L128.686 25.184V20.768L130.726 20.576V29.192H130.702L125.314 24.488V28.904L123.274 29.096V20.576ZM137.526 23.036C137.302 22.876 137.066 22.74 136.818 22.628C136.57 22.508 136.306 22.448 136.026 22.448C135.682 22.448 135.362 22.508 135.066 22.628C134.778 22.74 134.53 22.904 134.322 23.12C134.114 23.328 133.95 23.58 133.83 23.876C133.71 24.172 133.65 24.5 133.65 24.86C133.65 25.228 133.706 25.564 133.818 25.868C133.938 26.164 134.102 26.42 134.31 26.636C134.518 26.852 134.766 27.02 135.054 27.14C135.35 27.26 135.674 27.32 136.026 27.32C136.306 27.32 136.574 27.26 136.83 27.14C137.094 27.012 137.342 26.868 137.574 26.708L137.322 28.892C137.242 28.94 137.138 28.98 137.01 29.012C136.882 29.052 136.746 29.084 136.602 29.108C136.466 29.132 136.33 29.152 136.194 29.168C136.066 29.184 135.962 29.192 135.882 29.192C135.258 29.192 134.682 29.088 134.154 28.88C133.634 28.672 133.182 28.38 132.798 28.004C132.422 27.628 132.13 27.18 131.922 26.66C131.714 26.132 131.61 25.548 131.61 24.908C131.61 24.3 131.714 23.732 131.922 23.204C132.13 22.676 132.422 22.216 132.798 21.824C133.174 21.432 133.622 21.128 134.142 20.912C134.67 20.688 135.246 20.576 135.87 20.576C136.11 20.576 136.342 20.596 136.566 20.636C136.79 20.676 137.006 20.744 137.214 20.84L137.526 23.036ZM143.294 20.768L143.654 22.508H140.678V23.936H142.802V25.676H140.678V27.26H143.906L143.402 29H138.638V20.768H143.294Z" fill="black"/>
<rect width="194" height="95" transform="translate(25 37)" fill="white"/>
<path d="M45.1735 66.182L46.6855 70.466H46.7035L48.2785 66.182L49.1605 66.326L46.7035 72.644H46.6855L44.3005 66.326L45.1735 66.182ZM55.7215 69.413C55.7215 69.863 55.6345 70.286 55.4605 70.682C55.2925 71.072 55.0615 71.414 54.7675 71.708C54.4795 71.996 54.1375 72.224 53.7415 72.392C53.3515 72.56 52.9315 72.644 52.4815 72.644C52.0255 72.644 51.5995 72.56 51.2035 72.392C50.8135 72.224 50.4715 71.993 50.1775 71.699C49.8895 71.405 49.6615 71.063 49.4935 70.673C49.3255 70.277 49.2415 69.857 49.2415 69.413C49.2415 68.963 49.3255 68.543 49.4935 68.153C49.6675 67.757 49.8985 67.415 50.1865 67.127C50.4805 66.833 50.8225 66.602 51.2125 66.434C51.6085 66.266 52.0315 66.182 52.4815 66.182C52.9375 66.182 53.3605 66.269 53.7505 66.443C54.1465 66.611 54.4885 66.842 54.7765 67.136C55.0705 67.424 55.3015 67.766 55.4695 68.162C55.6375 68.552 55.7215 68.969 55.7215 69.413ZM52.4815 71.834C52.7935 71.834 53.0905 71.771 53.3725 71.645C53.6605 71.513 53.9125 71.339 54.1285 71.123C54.3445 70.901 54.5155 70.643 54.6415 70.349C54.7735 70.055 54.8395 69.743 54.8395 69.413C54.8395 69.089 54.7765 68.78 54.6505 68.486C54.5245 68.192 54.3535 67.937 54.1375 67.721C53.9275 67.499 53.6785 67.322 53.3905 67.19C53.1025 67.058 52.7965 66.992 52.4725 66.992C52.1665 66.992 51.8695 67.055 51.5815 67.181C51.2995 67.307 51.0505 67.481 50.8345 67.703C50.6185 67.919 50.4445 68.174 50.3125 68.468C50.1865 68.762 50.1235 69.077 50.1235 69.413C50.1235 69.743 50.1865 70.055 50.3125 70.349C50.4385 70.643 50.6095 70.901 50.8255 71.123C51.0415 71.339 51.2905 71.513 51.5725 71.645C51.8605 71.771 52.1635 71.834 52.4815 71.834ZM57.4344 70.601C57.4344 70.967 57.5364 71.264 57.7404 71.492C57.9504 71.72 58.2624 71.834 58.6764 71.834C59.1264 71.834 59.4654 71.726 59.6934 71.51C59.9214 71.288 60.0354 70.988 60.0354 70.61V66.326L60.9174 66.182V69.809C60.9174 70.031 60.9114 70.256 60.8994 70.484C60.8934 70.712 60.8694 70.931 60.8274 71.141C60.7914 71.351 60.7284 71.549 60.6384 71.735C60.5544 71.915 60.4344 72.074 60.2784 72.212C60.1224 72.344 59.9244 72.449 59.6844 72.527C59.4504 72.605 59.1624 72.644 58.8204 72.644C58.3944 72.644 58.0344 72.602 57.7404 72.518C57.4524 72.434 57.2184 72.296 57.0384 72.104C56.8644 71.906 56.7384 71.651 56.6604 71.339C56.5884 71.021 56.5524 70.631 56.5524 70.169V66.326L57.4344 66.182V70.601ZM64.9703 67.676C64.7303 67.412 64.5173 67.232 64.3313 67.136C64.1453 67.04 63.9623 66.992 63.7823 66.992C63.4943 66.992 63.2603 67.076 63.0803 67.244C62.9003 67.412 62.8103 67.643 62.8103 67.937C62.8103 68.075 62.8403 68.195 62.9003 68.297C62.9663 68.393 63.0533 68.48 63.1613 68.558C63.2753 68.636 63.4103 68.708 63.5663 68.774C63.7223 68.834 63.8933 68.9 64.0793 68.972C64.3013 69.056 64.5053 69.146 64.6913 69.242C64.8833 69.338 65.0483 69.455 65.1863 69.593C65.3243 69.731 65.4323 69.896 65.5103 70.088C65.5943 70.274 65.6363 70.499 65.6363 70.763C65.6363 71.045 65.5853 71.3 65.4833 71.528C65.3813 71.756 65.2433 71.954 65.0693 72.122C64.8953 72.29 64.6913 72.419 64.4573 72.509C64.2293 72.599 63.9833 72.644 63.7193 72.644C63.5453 72.644 63.3803 72.626 63.2243 72.59C63.0683 72.56 62.9123 72.506 62.7563 72.428C62.6063 72.35 62.4503 72.248 62.2883 72.122C62.1323 71.99 61.9703 71.831 61.8023 71.645L62.4503 71.105C62.5763 71.303 62.7413 71.474 62.9453 71.618C63.1493 71.762 63.3773 71.834 63.6293 71.834C63.7853 71.834 63.9293 71.816 64.0613 71.78C64.1993 71.738 64.3193 71.675 64.4213 71.591C64.5233 71.507 64.6043 71.396 64.6643 71.258C64.7243 71.12 64.7543 70.952 64.7543 70.754C64.7543 70.64 64.7123 70.535 64.6283 70.439C64.5443 70.337 64.4393 70.247 64.3133 70.169C64.1933 70.091 64.0673 70.022 63.9353 69.962C63.8033 69.896 63.6893 69.839 63.5933 69.791C63.3953 69.695 63.1973 69.593 62.9993 69.485C62.8013 69.371 62.6213 69.242 62.4593 69.098C62.3033 68.954 62.1743 68.789 62.0723 68.603C61.9763 68.411 61.9283 68.183 61.9283 67.919C61.9283 67.661 61.9733 67.427 62.0633 67.217C62.1533 67.001 62.2793 66.818 62.4413 66.668C62.6093 66.512 62.8103 66.392 63.0443 66.308C63.2783 66.224 63.5393 66.182 63.8273 66.182C64.1333 66.182 64.4423 66.257 64.7543 66.407C65.0663 66.557 65.3363 66.782 65.5643 67.082L64.9703 67.676ZM70.6432 66.326C71.0872 66.326 71.4982 66.41 71.8762 66.578C72.2542 66.746 72.5782 66.971 72.8482 67.253C73.1242 67.535 73.3402 67.862 73.4962 68.234C73.6522 68.606 73.7302 68.999 73.7302 69.413C73.7302 69.827 73.6522 70.22 73.4962 70.592C73.3402 70.964 73.1242 71.294 72.8482 71.582C72.5722 71.864 72.2452 72.089 71.8672 72.257C71.4952 72.419 71.0902 72.5 70.6522 72.5H69.0772V66.326H70.6432ZM70.6162 71.69C70.8922 71.69 71.1622 71.636 71.4262 71.528C71.6962 71.42 71.9362 71.267 72.1462 71.069C72.3562 70.865 72.5242 70.625 72.6502 70.349C72.7822 70.067 72.8482 69.755 72.8482 69.413C72.8482 69.077 72.7822 68.771 72.6502 68.495C72.5242 68.213 72.3562 67.973 72.1462 67.775C71.9362 67.571 71.6962 67.415 71.4262 67.307C71.1622 67.193 70.8892 67.136 70.6072 67.136H69.9592V71.69H70.6162ZM77.8911 66.326L78.0801 67.136H75.4791V68.882H77.5581V69.692H75.4791V71.69H78.2781L78.0261 72.5H74.5971V66.326H77.8911ZM77.5851 64.67L76.2891 65.966H75.5511L76.3611 64.67H77.5851ZM79.1871 66.182L80.6991 70.466H80.7171L82.2921 66.182L83.1741 66.326L80.7171 72.644H80.6991L78.3141 66.326L79.1871 66.182ZM86.8911 66.326L87.0801 67.136H84.4791V68.882H86.5581V69.692H84.4791V71.69H87.2781L87.0261 72.5H83.5971V66.326H86.8911ZM88.9791 71.69H91.5981L91.2381 72.5H88.0971V66.326L88.9791 66.182V71.69ZM98.2342 69.413C98.2342 69.863 98.1472 70.286 97.9732 70.682C97.8052 71.072 97.5742 71.414 97.2802 71.708C96.9922 71.996 96.6502 72.224 96.2542 72.392C95.8642 72.56 95.4442 72.644 94.9942 72.644C94.5382 72.644 94.1122 72.56 93.7162 72.392C93.3262 72.224 92.9842 71.993 92.6902 71.699C92.4022 71.405 92.1742 71.063 92.0062 70.673C91.8382 70.277 91.7542 69.857 91.7542 69.413C91.7542 68.963 91.8382 68.543 92.0062 68.153C92.1802 67.757 92.4112 67.415 92.6992 67.127C92.9932 66.833 93.3352 66.602 93.7252 66.434C94.1212 66.266 94.5442 66.182 94.9942 66.182C95.4502 66.182 95.8732 66.269 96.2632 66.443C96.6592 66.611 97.0012 66.842 97.2892 67.136C97.5832 67.424 97.8142 67.766 97.9822 68.162C98.1502 68.552 98.2342 68.969 98.2342 69.413ZM94.9942 71.834C95.3062 71.834 95.6032 71.771 95.8852 71.645C96.1732 71.513 96.4252 71.339 96.6412 71.123C96.8572 70.901 97.0282 70.643 97.1542 70.349C97.2862 70.055 97.3522 69.743 97.3522 69.413C97.3522 69.089 97.2892 68.78 97.1632 68.486C97.0372 68.192 96.8662 67.937 96.6502 67.721C96.4402 67.499 96.1912 67.322 95.9032 67.19C95.6152 67.058 95.3092 66.992 94.9852 66.992C94.6792 66.992 94.3822 67.055 94.0942 67.181C93.8122 67.307 93.5632 67.481 93.3472 67.703C93.1312 67.919 92.9572 68.174 92.8252 68.468C92.6992 68.762 92.6362 69.077 92.6362 69.413C92.6362 69.743 92.6992 70.055 92.8252 70.349C92.9512 70.643 93.1222 70.901 93.3382 71.123C93.5542 71.339 93.8032 71.513 94.0852 71.645C94.3732 71.771 94.6762 71.834 94.9942 71.834ZM100.766 66.326C101.066 66.326 101.342 66.371 101.594 66.461C101.846 66.545 102.062 66.668 102.242 66.83C102.428 66.992 102.572 67.184 102.674 67.406C102.776 67.628 102.827 67.874 102.827 68.144C102.827 68.426 102.788 68.69 102.71 68.936C102.632 69.176 102.497 69.386 102.305 69.566C102.119 69.746 101.87 69.887 101.558 69.989C101.246 70.091 100.856 70.142 100.388 70.142H99.956V72.5L99.074 72.608V66.326H100.766ZM100.667 69.332C100.865 69.332 101.042 69.314 101.198 69.278C101.354 69.236 101.486 69.17 101.594 69.08C101.708 68.984 101.795 68.861 101.855 68.711C101.915 68.555 101.945 68.366 101.945 68.144C101.945 67.808 101.828 67.556 101.594 67.388C101.366 67.22 101.057 67.136 100.667 67.136H99.956V69.332H100.667ZM105.266 66.326C105.566 66.326 105.842 66.371 106.094 66.461C106.346 66.545 106.562 66.668 106.742 66.83C106.928 66.992 107.072 67.184 107.174 67.406C107.276 67.628 107.327 67.874 107.327 68.144C107.327 68.426 107.288 68.69 107.21 68.936C107.132 69.176 106.997 69.386 106.805 69.566C106.619 69.746 106.37 69.887 106.058 69.989C105.746 70.091 105.356 70.142 104.888 70.142H104.456V72.5L103.574 72.608V66.326H105.266ZM105.167 69.332C105.365 69.332 105.542 69.314 105.698 69.278C105.854 69.236 105.986 69.17 106.094 69.08C106.208 68.984 106.295 68.861 106.355 68.711C106.415 68.555 106.445 68.366 106.445 68.144C106.445 67.808 106.328 67.556 106.094 67.388C105.866 67.22 105.557 67.136 105.167 67.136H104.456V69.332H105.167ZM111.395 66.326L111.584 67.136H108.983V68.882H111.062V69.692H108.983V71.69H111.782L111.53 72.5H108.101V66.326H111.395ZM116.723 66.326L113.483 71.69H116.885L116.669 72.5H112.124L115.4 67.136H112.259L112.439 66.326H116.723ZM120.953 70.601C120.953 70.967 121.055 71.264 121.259 71.492C121.469 71.72 121.781 71.834 122.195 71.834C122.645 71.834 122.984 71.726 123.212 71.51C123.44 71.288 123.554 70.988 123.554 70.61V66.326L124.436 66.182V69.809C124.436 70.031 124.43 70.256 124.418 70.484C124.412 70.712 124.388 70.931 124.346 71.141C124.31 71.351 124.247 71.549 124.157 71.735C124.073 71.915 123.953 72.074 123.797 72.212C123.641 72.344 123.443 72.449 123.203 72.527C122.969 72.605 122.681 72.644 122.339 72.644C121.913 72.644 121.553 72.602 121.259 72.518C120.971 72.434 120.737 72.296 120.557 72.104C120.383 71.906 120.257 71.651 120.179 71.339C120.107 71.021 120.071 70.631 120.071 70.169V66.326L120.953 66.182V70.601ZM125.582 66.182L125.609 66.191L129.56 70.502V66.47L130.442 66.326V72.644L130.415 72.635L126.464 68.324V72.5L125.582 72.608V66.182ZM136.997 67.676C136.757 67.412 136.544 67.232 136.358 67.136C136.172 67.04 135.989 66.992 135.809 66.992C135.521 66.992 135.287 67.076 135.107 67.244C134.927 67.412 134.837 67.643 134.837 67.937C134.837 68.075 134.867 68.195 134.927 68.297C134.993 68.393 135.08 68.48 135.188 68.558C135.302 68.636 135.437 68.708 135.593 68.774C135.749 68.834 135.92 68.9 136.106 68.972C136.328 69.056 136.532 69.146 136.718 69.242C136.91 69.338 137.075 69.455 137.213 69.593C137.351 69.731 137.459 69.896 137.537 70.088C137.621 70.274 137.663 70.499 137.663 70.763C137.663 71.045 137.612 71.3 137.51 71.528C137.408 71.756 137.27 71.954 137.096 72.122C136.922 72.29 136.718 72.419 136.484 72.509C136.256 72.599 136.01 72.644 135.746 72.644C135.572 72.644 135.407 72.626 135.251 72.59C135.095 72.56 134.939 72.506 134.783 72.428C134.633 72.35 134.477 72.248 134.315 72.122C134.159 71.99 133.997 71.831 133.829 71.645L134.477 71.105C134.603 71.303 134.768 71.474 134.972 71.618C135.176 71.762 135.404 71.834 135.656 71.834C135.812 71.834 135.956 71.816 136.088 71.78C136.226 71.738 136.346 71.675 136.448 71.591C136.55 71.507 136.631 71.396 136.691 71.258C136.751 71.12 136.781 70.952 136.781 70.754C136.781 70.64 136.739 70.535 136.655 70.439C136.571 70.337 136.466 70.247 136.34 70.169C136.22 70.091 136.094 70.022 135.962 69.962C135.83 69.896 135.716 69.839 135.62 69.791C135.422 69.695 135.224 69.593 135.026 69.485C134.828 69.371 134.648 69.242 134.486 69.098C134.33 68.954 134.201 68.789 134.099 68.603C134.003 68.411 133.955 68.183 133.955 67.919C133.955 67.661 134 67.427 134.09 67.217C134.18 67.001 134.306 66.818 134.468 66.668C134.636 66.512 134.837 66.392 135.071 66.308C135.305 66.224 135.566 66.182 135.854 66.182C136.16 66.182 136.469 66.257 136.781 66.407C137.093 66.557 137.363 66.782 137.591 67.082L136.997 67.676ZM139.463 70.601C139.463 70.967 139.565 71.264 139.769 71.492C139.979 71.72 140.291 71.834 140.705 71.834C141.155 71.834 141.494 71.726 141.722 71.51C141.95 71.288 142.064 70.988 142.064 70.61V66.326L142.946 66.182V69.809C142.946 70.031 142.94 70.256 142.928 70.484C142.922 70.712 142.898 70.931 142.856 71.141C142.82 71.351 142.757 71.549 142.667 71.735C142.583 71.915 142.463 72.074 142.307 72.212C142.151 72.344 141.953 72.449 141.713 72.527C141.479 72.605 141.191 72.644 140.849 72.644C140.423 72.644 140.063 72.602 139.769 72.518C139.481 72.434 139.247 72.296 139.067 72.104C138.893 71.906 138.767 71.651 138.689 71.339C138.617 71.021 138.581 70.631 138.581 70.169V66.326L139.463 66.182V70.601ZM145.784 66.326C146.084 66.326 146.36 66.371 146.612 66.461C146.864 66.545 147.08 66.668 147.26 66.83C147.446 66.992 147.59 67.184 147.692 67.406C147.794 67.628 147.845 67.874 147.845 68.144C147.845 68.426 147.806 68.69 147.728 68.936C147.65 69.176 147.515 69.386 147.323 69.566C147.137 69.746 146.888 69.887 146.576 69.989C146.264 70.091 145.874 70.142 145.406 70.142H144.974V72.5L144.092 72.608V66.326H145.784ZM145.685 69.332C145.883 69.332 146.06 69.314 146.216 69.278C146.372 69.236 146.504 69.17 146.612 69.08C146.726 68.984 146.813 68.861 146.873 68.711C146.933 68.555 146.963 68.366 146.963 68.144C146.963 67.808 146.846 67.556 146.612 67.388C146.384 67.22 146.075 67.136 145.685 67.136H144.974V69.332H145.685ZM151.913 66.326L152.102 67.136H149.501V68.882H151.58V69.692H149.501V71.69H152.3L152.048 72.5H148.619V66.326H151.913ZM154.541 66.326C154.817 66.326 155.078 66.365 155.324 66.443C155.57 66.515 155.786 66.629 155.972 66.785C156.158 66.941 156.305 67.136 156.413 67.37C156.521 67.604 156.575 67.88 156.575 68.198C156.575 68.666 156.452 69.029 156.206 69.287C155.96 69.539 155.627 69.713 155.207 69.809L157.07 72.392L156.08 72.644L153.929 69.503H153.911V72.5L153.029 72.608V66.326L154.541 66.326ZM154.559 69.305C154.703 69.305 154.844 69.278 154.982 69.224C155.12 69.17 155.24 69.095 155.342 68.999C155.45 68.903 155.534 68.789 155.594 68.657C155.66 68.519 155.693 68.366 155.693 68.198C155.693 68.012 155.663 67.853 155.603 67.721C155.543 67.583 155.462 67.472 155.36 67.388C155.258 67.304 155.138 67.241 155 67.199C154.868 67.157 154.724 67.136 154.568 67.136L153.911 67.136V69.305H154.559ZM161.006 71.69H163.625L163.265 72.5L160.124 72.5V66.326L161.006 66.182V71.69ZM170.261 69.413C170.261 69.863 170.174 70.286 170 70.682C169.832 71.072 169.601 71.414 169.307 71.708C169.019 71.996 168.677 72.224 168.281 72.392C167.891 72.56 167.471 72.644 167.021 72.644C166.565 72.644 166.139 72.56 165.743 72.392C165.353 72.224 165.011 71.993 164.717 71.699C164.429 71.405 164.201 71.063 164.033 70.673C163.865 70.277 163.781 69.857 163.781 69.413C163.781 68.963 163.865 68.543 164.033 68.153C164.207 67.757 164.438 67.415 164.726 67.127C165.02 66.833 165.362 66.602 165.752 66.434C166.148 66.266 166.571 66.182 167.021 66.182C167.477 66.182 167.9 66.269 168.29 66.443C168.686 66.611 169.028 66.842 169.316 67.136C169.61 67.424 169.841 67.766 170.009 68.162C170.177 68.552 170.261 68.969 170.261 69.413ZM167.021 71.834C167.333 71.834 167.63 71.771 167.912 71.645C168.2 71.513 168.452 71.339 168.668 71.123C168.884 70.901 169.055 70.643 169.181 70.349C169.313 70.055 169.379 69.743 169.379 69.413C169.379 69.089 169.316 68.78 169.19 68.486C169.064 68.192 168.893 67.937 168.677 67.721C168.467 67.499 168.218 67.322 167.93 67.19C167.642 67.058 167.336 66.992 167.012 66.992C166.706 66.992 166.409 67.055 166.121 67.181C165.839 67.307 165.59 67.481 165.374 67.703C165.158 67.919 164.984 68.174 164.852 68.468C164.726 68.762 164.663 69.077 164.663 69.413C164.663 69.743 164.726 70.055 164.852 70.349C164.978 70.643 165.149 70.901 165.365 71.123C165.581 71.339 165.83 71.513 166.112 71.645C166.4 71.771 166.703 71.834 167.021 71.834ZM175.717 67.631C175.597 67.547 175.477 67.466 175.357 67.388C175.237 67.31 175.108 67.244 174.97 67.19C174.838 67.13 174.694 67.082 174.538 67.046C174.382 67.01 174.211 66.992 174.025 66.992C173.707 66.992 173.404 67.058 173.116 67.19C172.834 67.316 172.585 67.493 172.369 67.721C172.153 67.943 171.982 68.204 171.856 68.504C171.73 68.804 171.667 69.128 171.667 69.476C171.667 69.758 171.724 70.04 171.838 70.322C171.952 70.604 172.108 70.859 172.306 71.087C172.504 71.309 172.735 71.489 172.999 71.627C173.269 71.765 173.557 71.834 173.863 71.834C174.139 71.834 174.418 71.795 174.7 71.717C174.988 71.633 175.234 71.489 175.438 71.285V69.818H173.593L173.899 69.008H176.32V71.744C176.206 71.882 176.059 72.008 175.879 72.122C175.699 72.23 175.501 72.323 175.285 72.401C175.069 72.479 174.841 72.539 174.601 72.581C174.361 72.623 174.124 72.644 173.89 72.644C173.482 72.644 173.092 72.56 172.72 72.392C172.348 72.218 172.018 71.987 171.73 71.699C171.442 71.411 171.211 71.078 171.037 70.7C170.869 70.316 170.785 69.914 170.785 69.494C170.785 69.044 170.866 68.618 171.028 68.216C171.19 67.814 171.412 67.463 171.694 67.163C171.982 66.857 172.321 66.617 172.711 66.443C173.101 66.269 173.527 66.182 173.989 66.182C174.421 66.182 174.835 66.254 175.231 66.398C175.627 66.536 175.963 66.746 176.239 67.028L175.717 67.631ZM178.46 72.5L177.578 72.572V66.326L178.46 66.182V72.5ZM183.443 67.289C183.281 67.175 183.116 67.097 182.948 67.055C182.78 67.013 182.6 66.992 182.408 66.992C182.09 66.992 181.793 67.061 181.517 67.199C181.247 67.331 181.01 67.508 180.806 67.73C180.602 67.946 180.443 68.198 180.329 68.486C180.215 68.774 180.158 69.071 180.158 69.377C180.158 69.701 180.215 70.013 180.329 70.313C180.443 70.607 180.599 70.868 180.797 71.096C180.995 71.318 181.226 71.498 181.49 71.636C181.76 71.768 182.051 71.834 182.363 71.834C182.573 71.834 182.783 71.801 182.993 71.735C183.209 71.663 183.404 71.57 183.578 71.456L183.416 72.419C183.23 72.485 183.05 72.539 182.876 72.581C182.708 72.623 182.531 72.644 182.345 72.644C181.931 72.644 181.538 72.56 181.166 72.392C180.794 72.224 180.467 71.996 180.185 71.708C179.909 71.414 179.687 71.072 179.519 70.682C179.357 70.286 179.276 69.863 179.276 69.413C179.276 69.005 179.36 68.609 179.528 68.225C179.696 67.835 179.915 67.49 180.185 67.19C180.461 66.884 180.773 66.641 181.121 66.461C181.469 66.275 181.826 66.182 182.192 66.182C182.372 66.182 182.549 66.197 182.723 66.227C182.903 66.251 183.08 66.287 183.254 66.335L183.443 67.289ZM185.456 72.5L184.574 72.572V66.326L185.456 66.182V72.5ZM189.908 66.326L190.097 67.136H187.496V68.882H189.575V69.692H187.496V71.69H190.295L190.043 72.5H186.614V66.326H189.908ZM191.996 71.69H194.615L194.255 72.5H191.114V66.326L191.996 66.182V71.69ZM198.725 70.412L198.023 70.556L197.942 66.326L198.86 66.182L198.725 70.412ZM198.329 71.033L198.914 71.807L198.329 72.581L197.744 71.807L198.329 71.033Z" fill="black"/>
<path d="M63.5621 93.69H66.1811L65.8211 94.5H62.6801V88.326L63.5621 88.182V93.69ZM66.204 88.182C66.474 88.362 66.66 88.533 66.762 88.695C66.864 88.851 66.915 89.016 66.915 89.19C66.915 89.31 66.852 89.481 66.726 89.703C66.6 89.925 66.378 90.237 66.06 90.639L65.592 90.297C65.61 90.273 65.646 90.222 65.7 90.144C65.754 90.06 65.811 89.97 65.871 89.874C65.931 89.778 65.985 89.682 66.033 89.586C66.081 89.49 66.105 89.409 66.105 89.343C66.105 89.205 66.06 89.103 65.97 89.037C65.88 88.971 65.778 88.911 65.664 88.857L66.204 88.182ZM71.1421 88.326L71.3311 89.136H68.7301V90.882H70.8091V91.692H68.7301V93.69H71.5291L71.2771 94.5H67.8481V88.326H71.1421ZM72.3211 88.182L72.3481 88.191L76.2991 92.502V88.47L77.1811 88.326V94.644L77.1541 94.635L73.2031 90.324V94.5L72.3211 94.608V88.182ZM81.627 88.326V89.136H80.187V94.5L79.305 94.608V89.136H77.703L77.982 88.326H81.627ZM83.7721 88.326C84.0481 88.326 84.3091 88.365 84.5551 88.443C84.8011 88.515 85.0171 88.629 85.2031 88.785C85.3891 88.941 85.5361 89.136 85.6441 89.37C85.7521 89.604 85.8061 89.88 85.8061 90.198C85.8061 90.666 85.6831 91.029 85.4371 91.287C85.1911 91.539 84.8581 91.713 84.4381 91.809L86.3011 94.392L85.3111 94.644L83.1601 91.503H83.1421V94.5L82.2601 94.608V88.326H83.7721ZM83.7901 91.305C83.9341 91.305 84.0751 91.278 84.2131 91.224C84.3511 91.17 84.4711 91.095 84.5731 90.999C84.6811 90.903 84.7651 90.789 84.8251 90.657C84.8911 90.519 84.9241 90.366 84.9241 90.198C84.9241 90.012 84.8941 89.853 84.8341 89.721C84.7741 89.583 84.6931 89.472 84.5911 89.388C84.4891 89.304 84.3691 89.241 84.2311 89.199C84.0991 89.157 83.9551 89.136 83.7991 89.136H83.1421V91.305H83.7901ZM90.1441 88.326L90.3331 89.136H87.7321V90.882H89.8111V91.692H87.7321V93.69H90.5311L90.2791 94.5H86.8501V88.326H90.1441ZM93.0151 88.326C93.3151 88.326 93.5911 88.371 93.8431 88.461C94.0951 88.545 94.3111 88.668 94.4911 88.83C94.6771 88.992 94.8211 89.184 94.9231 89.406C95.0251 89.628 95.0761 89.874 95.0761 90.144C95.0761 90.426 95.0371 90.69 94.9591 90.936C94.8811 91.176 94.7461 91.386 94.5541 91.566C94.3681 91.746 94.1191 91.887 93.8071 91.989C93.4951 92.091 93.1051 92.142 92.6371 92.142H92.2051V94.5L91.3231 94.608V88.326H93.0151ZM92.9161 91.332C93.1141 91.332 93.2911 91.314 93.4471 91.278C93.6031 91.236 93.7351 91.17 93.8431 91.08C93.9571 90.984 94.0441 90.861 94.1041 90.711C94.1641 90.555 94.1941 90.366 94.1941 90.144C94.1941 89.808 94.0771 89.556 93.8431 89.388C93.6151 89.22 93.3061 89.136 92.9161 89.136H92.2051V91.332H92.9161ZM97.2721 88.326C97.5481 88.326 97.8091 88.365 98.0551 88.443C98.3011 88.515 98.5171 88.629 98.7031 88.785C98.8891 88.941 99.0361 89.136 99.1441 89.37C99.2521 89.604 99.3061 89.88 99.3061 90.198C99.3061 90.666 99.1831 91.029 98.9371 91.287C98.6911 91.539 98.3581 91.713 97.9381 91.809L99.8011 94.392L98.8111 94.644L96.6601 91.503H96.6421V94.5L95.7601 94.608V88.326H97.2721ZM97.2901 91.305C97.4341 91.305 97.5751 91.278 97.7131 91.224C97.8511 91.17 97.9711 91.095 98.0731 90.999C98.1811 90.903 98.2651 90.789 98.3251 90.657C98.3911 90.519 98.4241 90.366 98.4241 90.198C98.4241 90.012 98.3941 89.853 98.3341 89.721C98.2741 89.583 98.1931 89.472 98.0911 89.388C97.9891 89.304 97.8691 89.241 97.7311 89.199C97.5991 89.157 97.4551 89.136 97.2991 89.136H96.6421V91.305H97.2901ZM101.187 94.5L100.305 94.572V88.326L101.187 88.182V94.5ZM105.225 89.676C104.985 89.412 104.772 89.232 104.586 89.136C104.4 89.04 104.217 88.992 104.037 88.992C103.749 88.992 103.515 89.076 103.335 89.244C103.155 89.412 103.065 89.643 103.065 89.937C103.065 90.075 103.095 90.195 103.155 90.297C103.221 90.393 103.308 90.48 103.416 90.558C103.53 90.636 103.665 90.708 103.821 90.774C103.977 90.834 104.148 90.9 104.334 90.972C104.556 91.056 104.76 91.146 104.946 91.242C105.138 91.338 105.303 91.455 105.441 91.593C105.579 91.731 105.687 91.896 105.765 92.088C105.849 92.274 105.891 92.499 105.891 92.763C105.891 93.045 105.84 93.3 105.738 93.528C105.636 93.756 105.498 93.954 105.324 94.122C105.15 94.29 104.946 94.419 104.712 94.509C104.484 94.599 104.238 94.644 103.974 94.644C103.8 94.644 103.635 94.626 103.479 94.59C103.323 94.56 103.167 94.506 103.011 94.428C102.861 94.35 102.705 94.248 102.543 94.122C102.387 93.99 102.225 93.831 102.057 93.645L102.705 93.105C102.831 93.303 102.996 93.474 103.2 93.618C103.404 93.762 103.632 93.834 103.884 93.834C104.04 93.834 104.184 93.816 104.316 93.78C104.454 93.738 104.574 93.675 104.676 93.591C104.778 93.507 104.859 93.396 104.919 93.258C104.979 93.12 105.009 92.952 105.009 92.754C105.009 92.64 104.967 92.535 104.883 92.439C104.799 92.337 104.694 92.247 104.568 92.169C104.448 92.091 104.322 92.022 104.19 91.962C104.058 91.896 103.944 91.839 103.848 91.791C103.65 91.695 103.452 91.593 103.254 91.485C103.056 91.371 102.876 91.242 102.714 91.098C102.558 90.954 102.429 90.789 102.327 90.603C102.231 90.411 102.183 90.183 102.183 89.919C102.183 89.661 102.228 89.427 102.318 89.217C102.408 89.001 102.534 88.818 102.696 88.668C102.864 88.512 103.065 88.392 103.299 88.308C103.533 88.224 103.794 88.182 104.082 88.182C104.388 88.182 104.697 88.257 105.009 88.407C105.321 88.557 105.591 88.782 105.819 89.082L105.225 89.676ZM110.139 88.326L110.328 89.136H107.727V90.882H109.806V91.692H107.727V93.69H110.526L110.274 94.5H106.845V88.326H110.139ZM113.94 88.182L115.452 92.466H115.47L117.045 88.182L117.927 88.326L115.47 94.644H115.452L113.067 88.326L113.94 88.182ZM124.488 91.413C124.488 91.863 124.401 92.286 124.227 92.682C124.059 93.072 123.828 93.414 123.534 93.708C123.246 93.996 122.904 94.224 122.508 94.392C122.118 94.56 121.698 94.644 121.248 94.644C120.792 94.644 120.366 94.56 119.97 94.392C119.58 94.224 119.238 93.993 118.944 93.699C118.656 93.405 118.428 93.063 118.26 92.673C118.092 92.277 118.008 91.857 118.008 91.413C118.008 90.963 118.092 90.543 118.26 90.153C118.434 89.757 118.665 89.415 118.953 89.127C119.247 88.833 119.589 88.602 119.979 88.434C120.375 88.266 120.798 88.182 121.248 88.182C121.704 88.182 122.127 88.269 122.517 88.443C122.913 88.611 123.255 88.842 123.543 89.136C123.837 89.424 124.068 89.766 124.236 90.162C124.404 90.552 124.488 90.969 124.488 91.413ZM121.248 93.834C121.56 93.834 121.857 93.771 122.139 93.645C122.427 93.513 122.679 93.339 122.895 93.123C123.111 92.901 123.282 92.643 123.408 92.349C123.54 92.055 123.606 91.743 123.606 91.413C123.606 91.089 123.543 90.78 123.417 90.486C123.291 90.192 123.12 89.937 122.904 89.721C122.694 89.499 122.445 89.322 122.157 89.19C121.869 89.058 121.563 88.992 121.239 88.992C120.933 88.992 120.636 89.055 120.348 89.181C120.066 89.307 119.817 89.481 119.601 89.703C119.385 89.919 119.211 90.174 119.079 90.468C118.953 90.762 118.89 91.077 118.89 91.413C118.89 91.743 118.953 92.055 119.079 92.349C119.205 92.643 119.376 92.901 119.592 93.123C119.808 93.339 120.057 93.513 120.339 93.645C120.627 93.771 120.93 93.834 121.248 93.834ZM126.201 92.601C126.201 92.967 126.303 93.264 126.507 93.492C126.717 93.72 127.029 93.834 127.443 93.834C127.893 93.834 128.232 93.726 128.46 93.51C128.688 93.288 128.802 92.988 128.802 92.61V88.326L129.684 88.182V91.809C129.684 92.031 129.678 92.256 129.666 92.484C129.66 92.712 129.636 92.931 129.594 93.141C129.558 93.351 129.495 93.549 129.405 93.735C129.321 93.915 129.201 94.074 129.045 94.212C128.889 94.344 128.691 94.449 128.451 94.527C128.217 94.605 127.929 94.644 127.587 94.644C127.161 94.644 126.801 94.602 126.507 94.518C126.219 94.434 125.985 94.296 125.805 94.104C125.631 93.906 125.505 93.651 125.427 93.339C125.355 93.021 125.319 92.631 125.319 92.169V88.326L126.201 88.182V92.601ZM133.737 89.676C133.497 89.412 133.284 89.232 133.098 89.136C132.912 89.04 132.729 88.992 132.549 88.992C132.261 88.992 132.027 89.076 131.847 89.244C131.667 89.412 131.577 89.643 131.577 89.937C131.577 90.075 131.607 90.195 131.667 90.297C131.733 90.393 131.82 90.48 131.928 90.558C132.042 90.636 132.177 90.708 132.333 90.774C132.489 90.834 132.66 90.9 132.846 90.972C133.068 91.056 133.272 91.146 133.458 91.242C133.65 91.338 133.815 91.455 133.953 91.593C134.091 91.731 134.199 91.896 134.277 92.088C134.361 92.274 134.403 92.499 134.403 92.763C134.403 93.045 134.352 93.3 134.25 93.528C134.148 93.756 134.01 93.954 133.836 94.122C133.662 94.29 133.458 94.419 133.224 94.509C132.996 94.599 132.75 94.644 132.486 94.644C132.312 94.644 132.147 94.626 131.991 94.59C131.835 94.56 131.679 94.506 131.523 94.428C131.373 94.35 131.217 94.248 131.055 94.122C130.899 93.99 130.737 93.831 130.569 93.645L131.217 93.105C131.343 93.303 131.508 93.474 131.712 93.618C131.916 93.762 132.144 93.834 132.396 93.834C132.552 93.834 132.696 93.816 132.828 93.78C132.966 93.738 133.086 93.675 133.188 93.591C133.29 93.507 133.371 93.396 133.431 93.258C133.491 93.12 133.521 92.952 133.521 92.754C133.521 92.64 133.479 92.535 133.395 92.439C133.311 92.337 133.206 92.247 133.08 92.169C132.96 92.091 132.834 92.022 132.702 91.962C132.57 91.896 132.456 91.839 132.36 91.791C132.162 91.695 131.964 91.593 131.766 91.485C131.568 91.371 131.388 91.242 131.226 91.098C131.07 90.954 130.941 90.789 130.839 90.603C130.743 90.411 130.695 90.183 130.695 89.919C130.695 89.661 130.74 89.427 130.83 89.217C130.92 89.001 131.046 88.818 131.208 88.668C131.376 88.512 131.577 88.392 131.811 88.308C132.045 88.224 132.306 88.182 132.594 88.182C132.9 88.182 133.209 88.257 133.521 88.407C133.833 88.557 134.103 88.782 134.331 89.082L133.737 89.676ZM139.527 88.326C139.827 88.326 140.103 88.371 140.355 88.461C140.607 88.545 140.823 88.668 141.003 88.83C141.189 88.992 141.333 89.184 141.435 89.406C141.537 89.628 141.588 89.874 141.588 90.144C141.588 90.426 141.549 90.69 141.471 90.936C141.393 91.176 141.258 91.386 141.066 91.566C140.88 91.746 140.631 91.887 140.319 91.989C140.007 92.091 139.617 92.142 139.149 92.142H138.717V94.5L137.835 94.608V88.326H139.527ZM139.428 91.332C139.626 91.332 139.803 91.314 139.959 91.278C140.115 91.236 140.247 91.17 140.355 91.08C140.469 90.984 140.556 90.861 140.616 90.711C140.676 90.555 140.706 90.366 140.706 90.144C140.706 89.808 140.589 89.556 140.355 89.388C140.127 89.22 139.818 89.136 139.428 89.136H138.717V91.332H139.428ZM144.431 88.182L147.572 94.464L146.69 94.644L145.637 92.52H143.153L142.109 94.644L141.281 94.464L144.413 88.182H144.431ZM143.522 91.71H145.277L144.395 89.937L143.522 91.71ZM148.868 94.5L147.986 94.572V88.326L148.868 88.182V94.5ZM153.32 88.326L153.509 89.136H150.908V90.882H152.987V91.692H150.908V93.69H153.707L153.455 94.5H150.026V88.326H153.32Z" fill="black"/>
<path d="M162.007 89.064C161.905 88.962 161.77 88.878 161.602 88.812C161.44 88.74 161.263 88.704 161.071 88.704C160.873 88.704 160.687 88.749 160.513 88.839C160.339 88.923 160.18 89.046 160.036 89.208C159.892 89.364 159.766 89.556 159.658 89.784C159.55 90.012 159.469 90.264 159.415 90.54H161.278L161.188 91.017H159.334C159.322 91.083 159.316 91.146 159.316 91.206C159.316 91.266 159.316 91.329 159.316 91.395C159.316 91.443 159.316 91.488 159.316 91.53C159.316 91.572 159.319 91.617 159.325 91.665H161.062L160.972 92.142H159.37C159.466 92.76 159.667 93.246 159.973 93.6C160.285 93.948 160.657 94.122 161.089 94.122C161.269 94.122 161.443 94.089 161.611 94.023C161.779 93.951 161.926 93.858 162.052 93.744L161.971 94.41C161.827 94.512 161.671 94.575 161.503 94.599C161.341 94.629 161.206 94.644 161.098 94.644C160.81 94.644 160.537 94.584 160.279 94.464C160.027 94.344 159.799 94.176 159.595 93.96C159.397 93.744 159.229 93.483 159.091 93.177C158.953 92.871 158.854 92.526 158.794 92.142H157.984L158.074 91.665H158.749C158.743 91.617 158.74 91.572 158.74 91.53C158.74 91.482 158.74 91.437 158.74 91.395C158.74 91.329 158.74 91.266 158.74 91.206C158.746 91.146 158.752 91.083 158.758 91.017H157.984L158.074 90.54H158.821C158.887 90.198 158.989 89.883 159.127 89.595C159.271 89.307 159.442 89.058 159.64 88.848C159.838 88.638 160.06 88.476 160.306 88.362C160.558 88.242 160.825 88.182 161.107 88.182C161.257 88.182 161.407 88.2 161.557 88.236C161.713 88.272 161.833 88.329 161.917 88.407L162.007 89.064Z" fill="black"/>
<path d="M168.503 89.865C168.503 90.207 168.425 90.483 168.269 90.693C168.119 90.897 167.915 91.062 167.657 91.188C167.981 91.326 168.233 91.536 168.413 91.818C168.599 92.094 168.692 92.406 168.692 92.754C168.692 93.036 168.638 93.294 168.53 93.528C168.428 93.756 168.284 93.954 168.098 94.122C167.918 94.29 167.702 94.419 167.45 94.509C167.204 94.599 166.937 94.644 166.649 94.644C166.181 94.644 165.776 94.56 165.434 94.392C165.092 94.224 164.786 93.939 164.516 93.537L165.173 93.033C165.347 93.285 165.542 93.483 165.758 93.627C165.98 93.765 166.244 93.834 166.55 93.834C166.928 93.834 167.231 93.735 167.459 93.537C167.693 93.339 167.81 93.063 167.81 92.709C167.81 92.547 167.777 92.4 167.711 92.268C167.651 92.136 167.561 92.022 167.441 91.926C167.327 91.83 167.189 91.755 167.027 91.701C166.871 91.647 166.7 91.62 166.514 91.62H165.866V90.855H166.172C166.688 90.855 167.057 90.792 167.279 90.666C167.507 90.534 167.621 90.291 167.621 89.937C167.621 89.631 167.516 89.397 167.306 89.235C167.102 89.073 166.838 88.992 166.514 88.992C165.998 88.992 165.605 89.214 165.335 89.658L164.651 89.118C165.137 88.494 165.758 88.182 166.514 88.182C166.754 88.182 166.994 88.221 167.234 88.299C167.474 88.371 167.687 88.479 167.873 88.623C168.059 88.767 168.209 88.944 168.323 89.154C168.443 89.364 168.503 89.601 168.503 89.865ZM171.749 94.644C171.335 94.644 170.984 94.548 170.696 94.356C170.408 94.158 170.177 93.906 170.003 93.6C169.829 93.288 169.703 92.94 169.625 92.556C169.547 92.166 169.508 91.782 169.508 91.404C169.508 91.176 169.523 90.939 169.553 90.693C169.583 90.447 169.631 90.204 169.697 89.964C169.769 89.724 169.862 89.496 169.976 89.28C170.09 89.064 170.228 88.875 170.39 88.713C170.558 88.551 170.753 88.422 170.975 88.326C171.197 88.23 171.455 88.182 171.749 88.182C172.169 88.182 172.52 88.281 172.802 88.479C173.09 88.677 173.321 88.932 173.495 89.244C173.675 89.556 173.801 89.904 173.873 90.288C173.951 90.672 173.99 91.053 173.99 91.431C173.99 91.773 173.954 92.133 173.882 92.511C173.81 92.883 173.687 93.228 173.513 93.546C173.345 93.864 173.117 94.128 172.829 94.338C172.541 94.542 172.181 94.644 171.749 94.644ZM171.749 93.834C172.199 93.834 172.538 93.627 172.766 93.213C172.994 92.793 173.108 92.193 173.108 91.413C173.108 90.645 172.994 90.051 172.766 89.631C172.544 89.205 172.202 88.992 171.74 88.992C171.32 88.992 170.99 89.193 170.75 89.595C170.51 89.991 170.39 90.597 170.39 91.413C170.39 92.193 170.504 92.793 170.732 93.213C170.96 93.627 171.299 93.834 171.749 93.834ZM176.75 94.644C176.336 94.644 175.985 94.548 175.697 94.356C175.409 94.158 175.178 93.906 175.004 93.6C174.83 93.288 174.704 92.94 174.626 92.556C174.548 92.166 174.509 91.782 174.509 91.404C174.509 91.176 174.524 90.939 174.554 90.693C174.584 90.447 174.632 90.204 174.698 89.964C174.77 89.724 174.863 89.496 174.977 89.28C175.091 89.064 175.229 88.875 175.391 88.713C175.559 88.551 175.754 88.422 175.976 88.326C176.198 88.23 176.456 88.182 176.75 88.182C177.17 88.182 177.521 88.281 177.803 88.479C178.091 88.677 178.322 88.932 178.496 89.244C178.676 89.556 178.802 89.904 178.874 90.288C178.952 90.672 178.991 91.053 178.991 91.431C178.991 91.773 178.955 92.133 178.883 92.511C178.811 92.883 178.688 93.228 178.514 93.546C178.346 93.864 178.118 94.128 177.83 94.338C177.542 94.542 177.182 94.644 176.75 94.644ZM176.75 93.834C177.2 93.834 177.539 93.627 177.767 93.213C177.995 92.793 178.109 92.193 178.109 91.413C178.109 90.645 177.995 90.051 177.767 89.631C177.545 89.205 177.203 88.992 176.741 88.992C176.321 88.992 175.991 89.193 175.751 89.595C175.511 89.991 175.391 90.597 175.391 91.413C175.391 92.193 175.505 92.793 175.733 93.213C175.961 93.627 176.3 93.834 176.75 93.834ZM180.5 93.033L181.085 93.807L180.5 94.581L179.915 93.807L180.5 93.033Z" fill="black"/>
<rect width="30" height="13" transform="translate(107.5 141)" fill="white"/>
<path d="M111.426 145.198C111.659 145.198 111.874 145.233 112.07 145.303C112.266 145.368 112.434 145.464 112.574 145.59C112.719 145.716 112.831 145.865 112.91 146.038C112.989 146.211 113.029 146.402 113.029 146.612C113.029 146.831 112.999 147.037 112.938 147.228C112.877 147.415 112.772 147.578 112.623 147.718C112.478 147.858 112.285 147.968 112.042 148.047C111.799 148.126 111.496 148.166 111.132 148.166H110.796V150L110.11 150.084V145.198H111.426ZM111.349 147.536C111.503 147.536 111.641 147.522 111.762 147.494C111.883 147.461 111.986 147.41 112.07 147.34C112.159 147.265 112.226 147.17 112.273 147.053C112.32 146.932 112.343 146.785 112.343 146.612C112.343 146.351 112.252 146.155 112.07 146.024C111.893 145.893 111.652 145.828 111.349 145.828H110.796V147.536H111.349ZM118.405 147.599C118.405 147.949 118.337 148.278 118.202 148.586C118.071 148.889 117.892 149.155 117.663 149.384C117.439 149.608 117.173 149.785 116.865 149.916C116.562 150.047 116.235 150.112 115.885 150.112C115.53 150.112 115.199 150.047 114.891 149.916C114.588 149.785 114.322 149.606 114.093 149.377C113.869 149.148 113.692 148.882 113.561 148.579C113.43 148.271 113.365 147.944 113.365 147.599C113.365 147.249 113.43 146.922 113.561 146.619C113.696 146.311 113.876 146.045 114.1 145.821C114.329 145.592 114.595 145.413 114.898 145.282C115.206 145.151 115.535 145.086 115.885 145.086C116.24 145.086 116.569 145.154 116.872 145.289C117.18 145.42 117.446 145.599 117.67 145.828C117.899 146.052 118.078 146.318 118.209 146.626C118.34 146.929 118.405 147.254 118.405 147.599ZM115.885 149.482C116.128 149.482 116.359 149.433 116.578 149.335C116.802 149.232 116.998 149.097 117.166 148.929C117.334 148.756 117.467 148.556 117.565 148.327C117.668 148.098 117.719 147.856 117.719 147.599C117.719 147.347 117.67 147.107 117.572 146.878C117.474 146.649 117.341 146.451 117.173 146.283C117.01 146.11 116.816 145.973 116.592 145.87C116.368 145.767 116.13 145.716 115.878 145.716C115.64 145.716 115.409 145.765 115.185 145.863C114.966 145.961 114.772 146.096 114.604 146.269C114.436 146.437 114.301 146.635 114.198 146.864C114.1 147.093 114.051 147.338 114.051 147.599C114.051 147.856 114.1 148.098 114.198 148.327C114.296 148.556 114.429 148.756 114.597 148.929C114.765 149.097 114.959 149.232 115.178 149.335C115.402 149.433 115.638 149.482 115.885 149.482ZM119.765 149.37H121.802L121.522 150H119.079V145.198L119.765 145.086V149.37ZM121.898 145.086L123.291 147.424L124.299 145.086L124.957 145.289L122.801 150.112L122.129 149.965L122.969 148.152L121.226 145.282L121.898 145.086ZM127.547 146.248C127.36 146.043 127.195 145.903 127.05 145.828C126.905 145.753 126.763 145.716 126.623 145.716C126.399 145.716 126.217 145.781 126.077 145.912C125.937 146.043 125.867 146.222 125.867 146.451C125.867 146.558 125.89 146.652 125.937 146.731C125.988 146.806 126.056 146.873 126.14 146.934C126.229 146.995 126.334 147.051 126.455 147.102C126.576 147.149 126.709 147.2 126.854 147.256C127.027 147.321 127.185 147.391 127.33 147.466C127.479 147.541 127.608 147.632 127.715 147.739C127.822 147.846 127.906 147.975 127.967 148.124C128.032 148.269 128.065 148.444 128.065 148.649C128.065 148.868 128.025 149.067 127.946 149.244C127.867 149.421 127.759 149.575 127.624 149.706C127.489 149.837 127.33 149.937 127.148 150.007C126.971 150.077 126.779 150.112 126.574 150.112C126.439 150.112 126.31 150.098 126.189 150.07C126.068 150.047 125.946 150.005 125.825 149.944C125.708 149.883 125.587 149.804 125.461 149.706C125.34 149.603 125.214 149.48 125.083 149.335L125.587 148.915C125.685 149.069 125.813 149.202 125.972 149.314C126.131 149.426 126.308 149.482 126.504 149.482C126.625 149.482 126.737 149.468 126.84 149.44C126.947 149.407 127.041 149.358 127.12 149.293C127.199 149.228 127.262 149.141 127.309 149.034C127.356 148.927 127.379 148.796 127.379 148.642C127.379 148.553 127.346 148.472 127.281 148.397C127.216 148.318 127.134 148.248 127.036 148.187C126.943 148.126 126.845 148.073 126.742 148.026C126.639 147.975 126.551 147.93 126.476 147.893C126.322 147.818 126.168 147.739 126.014 147.655C125.86 147.566 125.72 147.466 125.594 147.354C125.473 147.242 125.372 147.114 125.293 146.969C125.218 146.82 125.181 146.642 125.181 146.437C125.181 146.236 125.216 146.054 125.286 145.891C125.356 145.723 125.454 145.581 125.58 145.464C125.711 145.343 125.867 145.249 126.049 145.184C126.231 145.119 126.434 145.086 126.658 145.086C126.896 145.086 127.136 145.144 127.379 145.261C127.622 145.378 127.832 145.553 128.009 145.786L127.547 146.248ZM129.458 150L128.772 150.056V145.198L129.458 145.086V150ZM135.133 147.599C135.133 147.949 135.065 148.278 134.93 148.586C134.799 148.889 134.619 149.155 134.391 149.384C134.167 149.608 133.901 149.785 133.593 149.916C133.289 150.047 132.963 150.112 132.613 150.112C132.258 150.112 131.927 150.047 131.619 149.916C131.315 149.785 131.049 149.606 130.821 149.377C130.597 149.148 130.419 148.882 130.289 148.579C130.158 148.271 130.093 147.944 130.093 147.599C130.093 147.249 130.158 146.922 130.289 146.619C130.424 146.311 130.604 146.045 130.828 145.821C131.056 145.592 131.322 145.413 131.626 145.282C131.934 145.151 132.263 145.086 132.613 145.086C132.967 145.086 133.296 145.154 133.6 145.289C133.908 145.42 134.174 145.599 134.398 145.828C134.626 146.052 134.806 146.318 134.937 146.626C135.067 146.929 135.133 147.254 135.133 147.599ZM132.613 149.482C132.855 149.482 133.086 149.433 133.306 149.335C133.53 149.232 133.726 149.097 133.894 148.929C134.062 148.756 134.195 148.556 134.293 148.327C134.395 148.098 134.447 147.856 134.447 147.599C134.447 147.347 134.398 147.107 134.3 146.878C134.202 146.649 134.069 146.451 133.901 146.283C133.737 146.11 133.544 145.973 133.32 145.87C133.096 145.767 132.858 145.716 132.606 145.716C132.368 145.716 132.137 145.765 131.913 145.863C131.693 145.961 131.5 146.096 131.332 146.269C131.164 146.437 131.028 146.635 130.926 146.864C130.828 147.093 130.779 147.338 130.779 147.599C130.779 147.856 130.828 148.098 130.926 148.327C131.024 148.556 131.157 148.756 131.325 148.929C131.493 149.097 131.686 149.232 131.906 149.335C132.13 149.433 132.365 149.482 132.613 149.482Z" fill="black"/>
</svg>
