<svg width="244" height="157" viewBox="0 0 244 157" fill="none" xmlns="http://www.w3.org/2000/svg">
<rect width="244" height="157" fill="white"/>
<rect x="9" y="9" width="226" height="139" stroke="black"/>
<path d="M106.19 23.036C105.966 22.876 105.73 22.74 105.482 22.628C105.234 22.508 104.97 22.448 104.69 22.448C104.346 22.448 104.026 22.508 103.73 22.628C103.442 22.74 103.194 22.904 102.986 23.12C102.778 23.328 102.614 23.58 102.494 23.876C102.374 24.172 102.314 24.5 102.314 24.86C102.314 25.228 102.37 25.564 102.482 25.868C102.602 26.164 102.766 26.42 102.974 26.636C103.182 26.852 103.43 27.02 103.718 27.14C104.014 27.26 104.338 27.32 104.69 27.32C104.97 27.32 105.238 27.26 105.494 27.14C105.758 27.012 106.006 26.868 106.238 26.708L105.986 28.892C105.906 28.94 105.802 28.98 105.674 29.012C105.546 29.052 105.41 29.084 105.266 29.108C105.13 29.132 104.994 29.152 104.858 29.168C104.73 29.184 104.626 29.192 104.546 29.192C103.922 29.192 103.346 29.088 102.818 28.88C102.298 28.672 101.846 28.38 101.462 28.004C101.086 27.628 100.794 27.18 100.586 26.66C100.378 26.132 100.274 25.548 100.274 24.908C100.274 24.3 100.378 23.732 100.586 23.204C100.794 22.676 101.086 22.216 101.462 21.824C101.838 21.432 102.286 21.128 102.806 20.912C103.334 20.688 103.91 20.576 104.534 20.576C104.774 20.576 105.006 20.596 105.23 20.636C105.454 20.676 105.67 20.744 105.878 20.84L106.19 23.036ZM109.342 23.768H111.982V20.768L114.022 20.576V28.904L111.982 29.096V25.64H109.342V28.904L107.302 29.096V20.768L109.342 20.576V23.768ZM118.642 20.576H118.666L123.106 28.772L121.03 29.192L120.19 27.428L117.058 27.428L116.23 29.192L114.25 28.772L118.642 20.576ZM117.55 25.904L119.734 25.904L118.642 23.888L117.55 25.904ZM123.274 20.576H123.298L128.686 25.184V20.768L130.726 20.576V29.192H130.702L125.314 24.488V28.904L123.274 29.096V20.576ZM137.526 23.036C137.302 22.876 137.066 22.74 136.818 22.628C136.57 22.508 136.306 22.448 136.026 22.448C135.682 22.448 135.362 22.508 135.066 22.628C134.778 22.74 134.53 22.904 134.322 23.12C134.114 23.328 133.95 23.58 133.83 23.876C133.71 24.172 133.65 24.5 133.65 24.86C133.65 25.228 133.706 25.564 133.818 25.868C133.938 26.164 134.102 26.42 134.31 26.636C134.518 26.852 134.766 27.02 135.054 27.14C135.35 27.26 135.674 27.32 136.026 27.32C136.306 27.32 136.574 27.26 136.83 27.14C137.094 27.012 137.342 26.868 137.574 26.708L137.322 28.892C137.242 28.94 137.138 28.98 137.01 29.012C136.882 29.052 136.746 29.084 136.602 29.108C136.466 29.132 136.33 29.152 136.194 29.168C136.066 29.184 135.962 29.192 135.882 29.192C135.258 29.192 134.682 29.088 134.154 28.88C133.634 28.672 133.182 28.38 132.798 28.004C132.422 27.628 132.13 27.18 131.922 26.66C131.714 26.132 131.61 25.548 131.61 24.908C131.61 24.3 131.714 23.732 131.922 23.204C132.13 22.676 132.422 22.216 132.798 21.824C133.174 21.432 133.622 21.128 134.142 20.912C134.67 20.688 135.246 20.576 135.87 20.576C136.11 20.576 136.342 20.596 136.566 20.636C136.79 20.676 137.006 20.744 137.214 20.84L137.526 23.036ZM143.294 20.768L143.654 22.508H140.678V23.936H142.802V25.676H140.678V27.26H143.906L143.402 29H138.638V20.768H143.294Z" fill="black"/>
<rect width="194" height="95" transform="translate(25 37)" fill="white"/>
<path d="M33.9192 69.101C33.9192 69.467 34.0212 69.764 34.2252 69.992C34.4352 70.22 34.7472 70.334 35.1612 70.334C35.6112 70.334 35.9502 70.226 36.1782 70.01C36.4062 69.788 36.5202 69.488 36.5202 69.11V64.826L37.4022 64.682V68.309C37.4022 68.531 37.3962 68.756 37.3842 68.984C37.3782 69.212 37.3542 69.431 37.3122 69.641C37.2762 69.851 37.2132 70.049 37.1232 70.235C37.0392 70.415 36.9192 70.574 36.7632 70.712C36.6072 70.844 36.4092 70.949 36.1692 71.027C35.9352 71.105 35.6472 71.144 35.3052 71.144C34.8792 71.144 34.5192 71.102 34.2252 71.018C33.9372 70.934 33.7032 70.796 33.5232 70.604C33.3492 70.406 33.2232 70.151 33.1452 69.839C33.0732 69.521 33.0372 69.131 33.0372 68.669V64.826L33.9192 64.682V69.101ZM38.5482 64.682L38.5752 64.691L42.5262 69.002V64.97L43.4082 64.826V71.144L43.3812 71.135L39.4302 66.824V71L38.5482 71.108V64.682ZM48.838 64.826C49.06 64.826 49.27 64.868 49.468 64.952C49.672 65.036 49.849 65.15 49.999 65.294C50.155 65.438 50.278 65.609 50.368 65.807C50.458 66.005 50.503 66.221 50.503 66.455C50.503 66.749 50.428 67.004 50.278 67.22C50.128 67.436 49.933 67.622 49.693 67.778C49.855 67.826 49.999 67.901 50.125 68.003C50.251 68.105 50.359 68.225 50.449 68.363C50.539 68.495 50.605 68.642 50.647 68.804C50.695 68.96 50.719 69.122 50.719 69.29C50.719 69.854 50.542 70.28 50.188 70.568C49.834 70.856 49.357 71 48.757 71H46.957V64.826H48.838ZM48.667 67.472C48.919 67.472 49.141 67.385 49.333 67.211C49.525 67.031 49.621 66.779 49.621 66.455C49.621 66.167 49.534 65.954 49.36 65.816C49.192 65.672 48.964 65.6 48.676 65.6H47.839V67.472H48.667ZM48.685 70.226C49.021 70.226 49.297 70.157 49.513 70.019C49.729 69.875 49.837 69.632 49.837 69.29C49.837 68.9 49.726 68.624 49.504 68.462C49.288 68.294 49.009 68.21 48.667 68.21H47.839V70.226H48.685ZM52.465 70.19H55.084L54.724 71H51.583V64.826L52.465 64.682V70.19ZM56.428 69.101C56.428 69.467 56.53 69.764 56.734 69.992C56.944 70.22 57.256 70.334 57.67 70.334C58.12 70.334 58.459 70.226 58.687 70.01C58.915 69.788 59.029 69.488 59.029 69.11V64.826L59.911 64.682V68.309C59.911 68.531 59.905 68.756 59.893 68.984C59.887 69.212 59.863 69.431 59.821 69.641C59.785 69.851 59.722 70.049 59.632 70.235C59.548 70.415 59.428 70.574 59.272 70.712C59.116 70.844 58.918 70.949 58.678 71.027C58.444 71.105 58.156 71.144 57.814 71.144C57.388 71.144 57.028 71.102 56.734 71.018C56.446 70.934 56.212 70.796 56.032 70.604C55.858 70.406 55.732 70.151 55.654 69.839C55.582 69.521 55.546 69.131 55.546 68.669V64.826L56.428 64.682V69.101ZM64.378 64.826L64.567 65.636H61.966V67.382H64.045V68.192H61.966V70.19H64.765L64.513 71H61.084V64.826H64.378ZM70.9688 66.176C70.7288 65.912 70.5158 65.732 70.3298 65.636C70.1438 65.54 69.9608 65.492 69.7808 65.492C69.4928 65.492 69.2588 65.576 69.0788 65.744C68.8988 65.912 68.8088 66.143 68.8088 66.437C68.8088 66.575 68.8388 66.695 68.8988 66.797C68.9648 66.893 69.0518 66.98 69.1598 67.058C69.2738 67.136 69.4088 67.208 69.5648 67.274C69.7208 67.334 69.8918 67.4 70.0778 67.472C70.2998 67.556 70.5038 67.646 70.6898 67.742C70.8818 67.838 71.0468 67.955 71.1848 68.093C71.3228 68.231 71.4308 68.396 71.5088 68.588C71.5928 68.774 71.6348 68.999 71.6348 69.263C71.6348 69.545 71.5838 69.8 71.4818 70.028C71.3798 70.256 71.2418 70.454 71.0678 70.622C70.8938 70.79 70.6898 70.919 70.4558 71.009C70.2278 71.099 69.9818 71.144 69.7178 71.144C69.5438 71.144 69.3788 71.126 69.2228 71.09C69.0668 71.06 68.9108 71.006 68.7548 70.928C68.6048 70.85 68.4488 70.748 68.2868 70.622C68.1308 70.49 67.9688 70.331 67.8008 70.145L68.4488 69.605C68.5748 69.803 68.7398 69.974 68.9438 70.118C69.1478 70.262 69.3758 70.334 69.6278 70.334C69.7838 70.334 69.9278 70.316 70.0598 70.28C70.1978 70.238 70.3178 70.175 70.4198 70.091C70.5218 70.007 70.6028 69.896 70.6628 69.758C70.7228 69.62 70.7528 69.452 70.7528 69.254C70.7528 69.14 70.7108 69.035 70.6268 68.939C70.5428 68.837 70.4378 68.747 70.3118 68.669C70.1918 68.591 70.0658 68.522 69.9338 68.462C69.8018 68.396 69.6878 68.339 69.5918 68.291C69.3938 68.195 69.1958 68.093 68.9978 67.985C68.7998 67.871 68.6198 67.742 68.4578 67.598C68.3018 67.454 68.1728 67.289 68.0708 67.103C67.9748 66.911 67.9268 66.683 67.9268 66.419C67.9268 66.161 67.9718 65.927 68.0618 65.717C68.1518 65.501 68.2778 65.318 68.4398 65.168C68.6078 65.012 68.8088 64.892 69.0428 64.808C69.2768 64.724 69.5378 64.682 69.8258 64.682C70.1318 64.682 70.4408 64.757 70.7528 64.907C71.0648 65.057 71.3348 65.282 71.5628 65.582L70.9688 66.176ZM76.4138 65.789C76.2518 65.675 76.0868 65.597 75.9188 65.555C75.7508 65.513 75.5708 65.492 75.3788 65.492C75.0608 65.492 74.7638 65.561 74.4878 65.699C74.2178 65.831 73.9808 66.008 73.7768 66.23C73.5728 66.446 73.4138 66.698 73.2998 66.986C73.1858 67.274 73.1288 67.571 73.1288 67.877C73.1288 68.201 73.1858 68.513 73.2998 68.813C73.4138 69.107 73.5698 69.368 73.7678 69.596C73.9658 69.818 74.1968 69.998 74.4608 70.136C74.7308 70.268 75.0218 70.334 75.3338 70.334C75.5438 70.334 75.7538 70.301 75.9638 70.235C76.1798 70.163 76.3748 70.07 76.5488 69.956L76.3868 70.919C76.2008 70.985 76.0208 71.039 75.8468 71.081C75.6788 71.123 75.5018 71.144 75.3158 71.144C74.9018 71.144 74.5088 71.06 74.1368 70.892C73.7648 70.724 73.4378 70.496 73.1558 70.208C72.8798 69.914 72.6578 69.572 72.4898 69.182C72.3278 68.786 72.2468 68.363 72.2468 67.913C72.2468 67.505 72.3308 67.109 72.4988 66.725C72.6668 66.335 72.8858 65.99 73.1558 65.69C73.4318 65.384 73.7438 65.141 74.0918 64.961C74.4398 64.775 74.7968 64.682 75.1628 64.682C75.3428 64.682 75.5198 64.697 75.6938 64.727C75.8738 64.751 76.0508 64.787 76.2248 64.835L76.4138 65.789ZM79.0118 64.826C79.2878 64.826 79.5488 64.865 79.7948 64.943C80.0408 65.015 80.2568 65.129 80.4428 65.285C80.6288 65.441 80.7758 65.636 80.8838 65.87C80.9918 66.104 81.0458 66.38 81.0458 66.698C81.0458 67.166 80.9228 67.529 80.6768 67.787C80.4308 68.039 80.0978 68.213 79.6778 68.309L81.5408 70.892L80.5508 71.144L78.3998 68.003H78.3818V71L77.4998 71.108V64.826H79.0118ZM79.0298 67.805C79.1738 67.805 79.3148 67.778 79.4528 67.724C79.5908 67.67 79.7108 67.595 79.8128 67.499C79.9208 67.403 80.0048 67.289 80.0648 67.157C80.1308 67.019 80.1638 66.866 80.1638 66.698C80.1638 66.512 80.1338 66.353 80.0738 66.221C80.0138 66.083 79.9328 65.972 79.8308 65.888C79.7288 65.804 79.6088 65.741 79.4708 65.699C79.3388 65.657 79.1948 65.636 79.0388 65.636H78.3818V67.805H79.0298ZM85.3838 64.826L85.5728 65.636H82.9718V67.382H85.0508V68.192H82.9718V70.19H85.7708L85.5188 71H82.0898V64.826H85.3838ZM89.8838 64.826L90.0728 65.636H87.4718V67.382H89.5508V68.192H87.4718V70.19H90.2708L90.0188 71H86.5898V64.826H89.8838ZM91.0628 64.682L91.0898 64.691L95.0408 69.002V64.97L95.9228 64.826V71.144L95.8958 71.135L91.9448 66.824V71L91.0628 71.108V64.682ZM102.001 64.682L105.142 70.964L104.26 71.144L103.207 69.02H100.723L99.6786 71.144L98.8506 70.964L101.983 64.682H102.001ZM101.092 68.21H102.847L101.965 66.437L101.092 68.21ZM107.266 64.826C107.566 64.826 107.842 64.871 108.094 64.961C108.346 65.045 108.562 65.168 108.742 65.33C108.928 65.492 109.072 65.684 109.174 65.906C109.276 66.128 109.327 66.374 109.327 66.644C109.327 66.926 109.288 67.19 109.21 67.436C109.132 67.676 108.997 67.886 108.805 68.066C108.619 68.246 108.37 68.387 108.058 68.489C107.746 68.591 107.356 68.642 106.888 68.642H106.456V71L105.574 71.108V64.826H107.266ZM107.167 67.832C107.365 67.832 107.542 67.814 107.698 67.778C107.854 67.736 107.986 67.67 108.094 67.58C108.208 67.484 108.295 67.361 108.355 67.211C108.415 67.055 108.445 66.866 108.445 66.644C108.445 66.308 108.328 66.056 108.094 65.888C107.866 65.72 107.557 65.636 107.167 65.636H106.456V67.832H107.167ZM111.766 64.826C112.066 64.826 112.342 64.871 112.594 64.961C112.846 65.045 113.062 65.168 113.242 65.33C113.428 65.492 113.572 65.684 113.674 65.906C113.776 66.128 113.827 66.374 113.827 66.644C113.827 66.926 113.788 67.19 113.71 67.436C113.632 67.676 113.497 67.886 113.305 68.066C113.119 68.246 112.87 68.387 112.558 68.489C112.246 68.591 111.856 68.642 111.388 68.642H110.956V71L110.074 71.108V64.826H111.766ZM111.667 67.832C111.865 67.832 112.042 67.814 112.198 67.778C112.354 67.736 112.486 67.67 112.594 67.58C112.708 67.484 112.795 67.361 112.855 67.211C112.915 67.055 112.945 66.866 112.945 66.644C112.945 66.308 112.828 66.056 112.594 65.888C112.366 65.72 112.057 65.636 111.667 65.636H110.956V67.832H111.667ZM116.67 64.682L119.811 70.964L118.929 71.144L117.876 69.02H115.392L114.348 71.144L113.52 70.964L116.652 64.682H116.67ZM115.761 68.21H117.516L116.634 66.437L115.761 68.21ZM121.692 64.826C121.968 64.826 122.229 64.865 122.475 64.943C122.721 65.015 122.937 65.129 123.123 65.285C123.309 65.441 123.456 65.636 123.564 65.87C123.672 66.104 123.726 66.38 123.726 66.698C123.726 67.166 123.603 67.529 123.357 67.787C123.111 68.039 122.778 68.213 122.358 68.309L124.221 70.892L123.231 71.144L121.08 68.003H121.062V71L120.18 71.108V64.826H121.692ZM121.71 67.805C121.854 67.805 121.995 67.778 122.133 67.724C122.271 67.67 122.391 67.595 122.493 67.499C122.601 67.403 122.685 67.289 122.745 67.157C122.811 67.019 122.844 66.866 122.844 66.698C122.844 66.512 122.814 66.353 122.754 66.221C122.694 66.083 122.613 65.972 122.511 65.888C122.409 65.804 122.289 65.741 122.151 65.699C122.019 65.657 121.875 65.636 121.719 65.636H121.062V67.805H121.71ZM127.173 64.682L130.314 70.964L129.432 71.144L128.379 69.02H125.895L124.851 71.144L124.023 70.964L127.155 64.682H127.173ZM126.264 68.21H128.019L127.137 66.437L126.264 68.21ZM131.609 71L130.727 71.072V64.826L131.609 64.682V71ZM131.636 63.17L132.599 64.466H131.771L131.132 63.665L130.502 64.466H129.674L130.637 63.17H131.636ZM136.044 64.826V65.636H134.604V71L133.722 71.108V65.636H132.12L132.399 64.826H136.044ZM137.539 69.794L136.468 72.71L135.811 72.755L136.621 69.893L137.539 69.794ZM141.198 64.682L142.71 68.966H142.728L144.303 64.682L145.185 64.826L142.728 71.144H142.71L140.325 64.826L141.198 64.682ZM151.746 67.913C151.746 68.363 151.659 68.786 151.485 69.182C151.317 69.572 151.086 69.914 150.792 70.208C150.504 70.496 150.162 70.724 149.766 70.892C149.376 71.06 148.956 71.144 148.506 71.144C148.05 71.144 147.624 71.06 147.228 70.892C146.838 70.724 146.496 70.493 146.202 70.199C145.914 69.905 145.686 69.563 145.518 69.173C145.35 68.777 145.266 68.357 145.266 67.913C145.266 67.463 145.35 67.043 145.518 66.653C145.692 66.257 145.923 65.915 146.211 65.627C146.505 65.333 146.847 65.102 147.237 64.934C147.633 64.766 148.056 64.682 148.506 64.682C148.962 64.682 149.385 64.769 149.775 64.943C150.171 65.111 150.513 65.342 150.801 65.636C151.095 65.924 151.326 66.266 151.494 66.662C151.662 67.052 151.746 67.469 151.746 67.913ZM148.506 70.334C148.818 70.334 149.115 70.271 149.397 70.145C149.685 70.013 149.937 69.839 150.153 69.623C150.369 69.401 150.54 69.143 150.666 68.849C150.798 68.555 150.864 68.243 150.864 67.913C150.864 67.589 150.801 67.28 150.675 66.986C150.549 66.692 150.378 66.437 150.162 66.221C149.952 65.999 149.703 65.822 149.415 65.69C149.127 65.558 148.821 65.492 148.497 65.492C148.191 65.492 147.894 65.555 147.606 65.681C147.324 65.807 147.075 65.981 146.859 66.203C146.643 66.419 146.469 66.674 146.337 66.968C146.211 67.262 146.148 67.577 146.148 67.913C146.148 68.243 146.211 68.555 146.337 68.849C146.463 69.143 146.634 69.401 146.85 69.623C147.066 69.839 147.315 70.013 147.597 70.145C147.885 70.271 148.188 70.334 148.506 70.334ZM153.459 69.101C153.459 69.467 153.561 69.764 153.765 69.992C153.975 70.22 154.287 70.334 154.701 70.334C155.151 70.334 155.49 70.226 155.718 70.01C155.946 69.788 156.06 69.488 156.06 69.11V64.826L156.942 64.682V68.309C156.942 68.531 156.936 68.756 156.924 68.984C156.918 69.212 156.894 69.431 156.852 69.641C156.816 69.851 156.753 70.049 156.663 70.235C156.579 70.415 156.459 70.574 156.303 70.712C156.147 70.844 155.949 70.949 155.709 71.027C155.475 71.105 155.187 71.144 154.845 71.144C154.419 71.144 154.059 71.102 153.765 71.018C153.477 70.934 153.243 70.796 153.063 70.604C152.889 70.406 152.763 70.151 152.685 69.839C152.613 69.521 152.577 69.131 152.577 68.669V64.826L153.459 64.682V69.101ZM160.995 66.176C160.755 65.912 160.542 65.732 160.356 65.636C160.17 65.54 159.987 65.492 159.807 65.492C159.519 65.492 159.285 65.576 159.105 65.744C158.925 65.912 158.835 66.143 158.835 66.437C158.835 66.575 158.865 66.695 158.925 66.797C158.991 66.893 159.078 66.98 159.186 67.058C159.3 67.136 159.435 67.208 159.591 67.274C159.747 67.334 159.918 67.4 160.104 67.472C160.326 67.556 160.53 67.646 160.716 67.742C160.908 67.838 161.073 67.955 161.211 68.093C161.349 68.231 161.457 68.396 161.535 68.588C161.619 68.774 161.661 68.999 161.661 69.263C161.661 69.545 161.61 69.8 161.508 70.028C161.406 70.256 161.268 70.454 161.094 70.622C160.92 70.79 160.716 70.919 160.482 71.009C160.254 71.099 160.008 71.144 159.744 71.144C159.57 71.144 159.405 71.126 159.249 71.09C159.093 71.06 158.937 71.006 158.781 70.928C158.631 70.85 158.475 70.748 158.313 70.622C158.157 70.49 157.995 70.331 157.827 70.145L158.475 69.605C158.601 69.803 158.766 69.974 158.97 70.118C159.174 70.262 159.402 70.334 159.654 70.334C159.81 70.334 159.954 70.316 160.086 70.28C160.224 70.238 160.344 70.175 160.446 70.091C160.548 70.007 160.629 69.896 160.689 69.758C160.749 69.62 160.779 69.452 160.779 69.254C160.779 69.14 160.737 69.035 160.653 68.939C160.569 68.837 160.464 68.747 160.338 68.669C160.218 68.591 160.092 68.522 159.96 68.462C159.828 68.396 159.714 68.339 159.618 68.291C159.42 68.195 159.222 68.093 159.024 67.985C158.826 67.871 158.646 67.742 158.484 67.598C158.328 67.454 158.199 67.289 158.097 67.103C158.001 66.911 157.953 66.683 157.953 66.419C157.953 66.161 157.998 65.927 158.088 65.717C158.178 65.501 158.304 65.318 158.466 65.168C158.634 65.012 158.835 64.892 159.069 64.808C159.303 64.724 159.564 64.682 159.852 64.682C160.158 64.682 160.467 64.757 160.779 64.907C161.091 65.057 161.361 65.282 161.589 65.582L160.995 66.176ZM166.785 64.826C167.085 64.826 167.361 64.871 167.613 64.961C167.865 65.045 168.081 65.168 168.261 65.33C168.447 65.492 168.591 65.684 168.693 65.906C168.795 66.128 168.846 66.374 168.846 66.644C168.846 66.926 168.807 67.19 168.729 67.436C168.651 67.676 168.516 67.886 168.324 68.066C168.138 68.246 167.889 68.387 167.577 68.489C167.265 68.591 166.875 68.642 166.407 68.642H165.975V71L165.093 71.108V64.826H166.785ZM166.686 67.832C166.884 67.832 167.061 67.814 167.217 67.778C167.373 67.736 167.505 67.67 167.613 67.58C167.727 67.484 167.814 67.361 167.874 67.211C167.934 67.055 167.964 66.866 167.964 66.644C167.964 66.308 167.847 66.056 167.613 65.888C167.385 65.72 167.076 65.636 166.686 65.636H165.975V67.832H166.686ZM172.914 64.826L173.103 65.636H170.502V67.382H172.581V68.192H170.502V70.19H173.301L173.049 71H169.62V64.826H172.914ZM175.542 64.826C175.818 64.826 176.079 64.865 176.325 64.943C176.571 65.015 176.787 65.129 176.973 65.285C177.159 65.441 177.306 65.636 177.414 65.87C177.522 66.104 177.576 66.38 177.576 66.698C177.576 67.166 177.453 67.529 177.207 67.787C176.961 68.039 176.628 68.213 176.208 68.309L178.071 70.892L177.081 71.144L174.93 68.003H174.912V71L174.03 71.108V64.826H175.542ZM175.56 67.805C175.704 67.805 175.845 67.778 175.983 67.724C176.121 67.67 176.241 67.595 176.343 67.499C176.451 67.403 176.535 67.289 176.595 67.157C176.661 67.019 176.694 66.866 176.694 66.698C176.694 66.512 176.664 66.353 176.604 66.221C176.544 66.083 176.463 65.972 176.361 65.888C176.259 65.804 176.139 65.741 176.001 65.699C175.869 65.657 175.725 65.636 175.569 65.636H174.912V67.805H175.56ZM180.168 64.826C180.612 64.826 181.023 64.91 181.401 65.078C181.779 65.246 182.103 65.471 182.373 65.753C182.649 66.035 182.865 66.362 183.021 66.734C183.177 67.106 183.255 67.499 183.255 67.913C183.255 68.327 183.177 68.72 183.021 69.092C182.865 69.464 182.649 69.794 182.373 70.082C182.097 70.364 181.77 70.589 181.392 70.757C181.02 70.919 180.615 71 180.177 71H178.602V64.826H180.168ZM180.141 70.19C180.417 70.19 180.687 70.136 180.951 70.028C181.221 69.92 181.461 69.767 181.671 69.569C181.881 69.365 182.049 69.125 182.175 68.849C182.307 68.567 182.373 68.255 182.373 67.913C182.373 67.577 182.307 67.271 182.175 66.995C182.049 66.713 181.881 66.473 181.671 66.275C181.461 66.071 181.221 65.915 180.951 65.807C180.687 65.693 180.414 65.636 180.132 65.636H179.484V70.19H180.141ZM187.416 64.826L187.605 65.636H185.004V67.382H187.083V68.192H185.004V70.19H187.803L187.551 71H184.122V64.826H187.416ZM192.744 64.826L189.504 70.19H192.906L192.69 71H188.145L191.421 65.636H188.28L188.46 64.826H192.744ZM196.218 64.682L197.73 68.966H197.748L199.323 64.682L200.205 64.826L197.748 71.144H197.73L195.345 64.826L196.218 64.682ZM206.766 67.913C206.766 68.363 206.679 68.786 206.505 69.182C206.337 69.572 206.106 69.914 205.812 70.208C205.524 70.496 205.182 70.724 204.786 70.892C204.396 71.06 203.976 71.144 203.526 71.144C203.07 71.144 202.644 71.06 202.248 70.892C201.858 70.724 201.516 70.493 201.222 70.199C200.934 69.905 200.706 69.563 200.538 69.173C200.37 68.777 200.286 68.357 200.286 67.913C200.286 67.463 200.37 67.043 200.538 66.653C200.712 66.257 200.943 65.915 201.231 65.627C201.525 65.333 201.867 65.102 202.257 64.934C202.653 64.766 203.076 64.682 203.526 64.682C203.982 64.682 204.405 64.769 204.795 64.943C205.191 65.111 205.533 65.342 205.821 65.636C206.115 65.924 206.346 66.266 206.514 66.662C206.682 67.052 206.766 67.469 206.766 67.913ZM203.526 70.334C203.838 70.334 204.135 70.271 204.417 70.145C204.705 70.013 204.957 69.839 205.173 69.623C205.389 69.401 205.56 69.143 205.686 68.849C205.818 68.555 205.884 68.243 205.884 67.913C205.884 67.589 205.821 67.28 205.695 66.986C205.569 66.692 205.398 66.437 205.182 66.221C204.972 65.999 204.723 65.822 204.435 65.69C204.147 65.558 203.841 65.492 203.517 65.492C203.211 65.492 202.914 65.555 202.626 65.681C202.344 65.807 202.095 65.981 201.879 66.203C201.663 66.419 201.489 66.674 201.357 66.968C201.231 67.262 201.168 67.577 201.168 67.913C201.168 68.243 201.231 68.555 201.357 68.849C201.483 69.143 201.654 69.401 201.87 69.623C202.086 69.839 202.335 70.013 202.617 70.145C202.905 70.271 203.208 70.334 203.526 70.334ZM210.513 66.176C210.273 65.912 210.06 65.732 209.874 65.636C209.688 65.54 209.505 65.492 209.325 65.492C209.037 65.492 208.803 65.576 208.623 65.744C208.443 65.912 208.353 66.143 208.353 66.437C208.353 66.575 208.383 66.695 208.443 66.797C208.509 66.893 208.596 66.98 208.704 67.058C208.818 67.136 208.953 67.208 209.109 67.274C209.265 67.334 209.436 67.4 209.622 67.472C209.844 67.556 210.048 67.646 210.234 67.742C210.426 67.838 210.591 67.955 210.729 68.093C210.867 68.231 210.975 68.396 211.053 68.588C211.137 68.774 211.179 68.999 211.179 69.263C211.179 69.545 211.128 69.8 211.026 70.028C210.924 70.256 210.786 70.454 210.612 70.622C210.438 70.79 210.234 70.919 210 71.009C209.772 71.099 209.526 71.144 209.262 71.144C209.088 71.144 208.923 71.126 208.767 71.09C208.611 71.06 208.455 71.006 208.299 70.928C208.149 70.85 207.993 70.748 207.831 70.622C207.675 70.49 207.513 70.331 207.345 70.145L207.993 69.605C208.119 69.803 208.284 69.974 208.488 70.118C208.692 70.262 208.92 70.334 209.172 70.334C209.328 70.334 209.472 70.316 209.604 70.28C209.742 70.238 209.862 70.175 209.964 70.091C210.066 70.007 210.147 69.896 210.207 69.758C210.267 69.62 210.297 69.452 210.297 69.254C210.297 69.14 210.255 69.035 210.171 68.939C210.087 68.837 209.982 68.747 209.856 68.669C209.736 68.591 209.61 68.522 209.478 68.462C209.346 68.396 209.232 68.339 209.136 68.291C208.938 68.195 208.74 68.093 208.542 67.985C208.344 67.871 208.164 67.742 208.002 67.598C207.846 67.454 207.717 67.289 207.615 67.103C207.519 66.911 207.471 66.683 207.471 66.419C207.471 66.161 207.516 65.927 207.606 65.717C207.696 65.501 207.822 65.318 207.984 65.168C208.152 65.012 208.353 64.892 208.587 64.808C208.821 64.724 209.082 64.682 209.37 64.682C209.676 64.682 209.985 64.757 210.297 64.907C210.609 65.057 210.879 65.282 211.107 65.582L210.513 66.176ZM68.0273 75.826L68.1803 76.636H65.7233V78.382H67.6133V79.192H65.7233V82L64.8413 82.108V75.826H68.0273ZM69.6773 82L68.7953 82.072V75.826L69.6773 75.682V82ZM74.6604 76.789C74.4984 76.675 74.3334 76.597 74.1654 76.555C73.9974 76.513 73.8174 76.492 73.6254 76.492C73.3074 76.492 73.0104 76.561 72.7344 76.699C72.4644 76.831 72.2274 77.008 72.0234 77.23C71.8194 77.446 71.6604 77.698 71.5464 77.986C71.4324 78.274 71.3754 78.571 71.3754 78.877C71.3754 79.201 71.4324 79.513 71.5464 79.813C71.6604 80.107 71.8164 80.368 72.0144 80.596C72.2124 80.818 72.4434 80.998 72.7074 81.136C72.9774 81.268 73.2684 81.334 73.5804 81.334C73.7904 81.334 74.0004 81.301 74.2104 81.235C74.4264 81.163 74.6214 81.07 74.7954 80.956L74.6334 81.919C74.4474 81.985 74.2674 82.039 74.0934 82.081C73.9254 82.123 73.7484 82.144 73.5624 82.144C73.1484 82.144 72.7554 82.06 72.3834 81.892C72.0114 81.724 71.6844 81.496 71.4024 81.208C71.1264 80.914 70.9044 80.572 70.7364 80.182C70.5744 79.786 70.4934 79.363 70.4934 78.913C70.4934 78.505 70.5774 78.109 70.7454 77.725C70.9134 77.335 71.1324 76.99 71.4024 76.69C71.6784 76.384 71.9904 76.141 72.3384 75.961C72.6864 75.775 73.0434 75.682 73.4094 75.682C73.5894 75.682 73.7664 75.697 73.9404 75.727C74.1204 75.751 74.2974 75.787 74.4714 75.835L74.6604 76.789ZM76.7184 78.382H79.7604V75.826L80.6424 75.682V82L79.7604 82.108V79.192H76.7184V82L75.8364 82.108V75.826L76.7184 75.682V78.382ZM82.6763 82L81.7943 82.072V75.826L82.6763 75.682V82ZM87.1284 75.826L87.3174 76.636H84.7164V78.382H86.7954V79.192H84.7164V81.19H87.5154L87.2634 82H83.8344V75.826H87.1284ZM89.7564 75.826C90.0324 75.826 90.2934 75.865 90.5394 75.943C90.7854 76.015 91.0014 76.129 91.1874 76.285C91.3734 76.441 91.5204 76.636 91.6284 76.87C91.7364 77.104 91.7904 77.38 91.7904 77.698C91.7904 78.166 91.6674 78.529 91.4214 78.787C91.1754 79.039 90.8424 79.213 90.4224 79.309L92.2854 81.892L91.2954 82.144L89.1444 79.003H89.1264V82L88.2444 82.108V75.826H89.7564ZM89.7744 78.805C89.9184 78.805 90.0594 78.778 90.1974 78.724C90.3354 78.67 90.4554 78.595 90.5574 78.499C90.6654 78.403 90.7494 78.289 90.8094 78.157C90.8754 78.019 90.9084 77.866 90.9084 77.698C90.9084 77.512 90.8784 77.353 90.8184 77.221C90.7584 77.083 90.6774 76.972 90.5754 76.888C90.4734 76.804 90.3534 76.741 90.2154 76.699C90.0834 76.657 89.9394 76.636 89.7834 76.636H89.1264V78.805H89.7744ZM95.7144 77.176C95.4744 76.912 95.2614 76.732 95.0754 76.636C94.8894 76.54 94.7064 76.492 94.5264 76.492C94.2384 76.492 94.0044 76.576 93.8244 76.744C93.6444 76.912 93.5544 77.143 93.5544 77.437C93.5544 77.575 93.5844 77.695 93.6444 77.797C93.7104 77.893 93.7974 77.98 93.9054 78.058C94.0194 78.136 94.1544 78.208 94.3104 78.274C94.4664 78.334 94.6374 78.4 94.8234 78.472C95.0454 78.556 95.2494 78.646 95.4354 78.742C95.6274 78.838 95.7924 78.955 95.9304 79.093C96.0684 79.231 96.1764 79.396 96.2544 79.588C96.3384 79.774 96.3804 79.999 96.3804 80.263C96.3804 80.545 96.3294 80.8 96.2274 81.028C96.1254 81.256 95.9874 81.454 95.8134 81.622C95.6394 81.79 95.4354 81.919 95.2014 82.009C94.9734 82.099 94.7274 82.144 94.4634 82.144C94.2894 82.144 94.1244 82.126 93.9684 82.09C93.8124 82.06 93.6564 82.006 93.5004 81.928C93.3504 81.85 93.1944 81.748 93.0324 81.622C92.8764 81.49 92.7144 81.331 92.5464 81.145L93.1944 80.605C93.3204 80.803 93.4854 80.974 93.6894 81.118C93.8934 81.262 94.1214 81.334 94.3734 81.334C94.5294 81.334 94.6734 81.316 94.8054 81.28C94.9434 81.238 95.0634 81.175 95.1654 81.091C95.2674 81.007 95.3484 80.896 95.4084 80.758C95.4684 80.62 95.4984 80.452 95.4984 80.254C95.4984 80.14 95.4564 80.035 95.3724 79.939C95.2884 79.837 95.1834 79.747 95.0574 79.669C94.9374 79.591 94.8114 79.522 94.6794 79.462C94.5474 79.396 94.4334 79.339 94.3374 79.291C94.1394 79.195 93.9414 79.093 93.7434 78.985C93.5454 78.871 93.3654 78.742 93.2034 78.598C93.0474 78.454 92.9184 78.289 92.8164 78.103C92.7204 77.911 92.6724 77.683 92.6724 77.419C92.6724 77.161 92.7174 76.927 92.8074 76.717C92.8974 76.501 93.0234 76.318 93.1854 76.168C93.3534 76.012 93.5544 75.892 93.7884 75.808C94.0224 75.724 94.2834 75.682 94.5714 75.682C94.8774 75.682 95.1864 75.757 95.4984 75.907C95.8104 76.057 96.0804 76.282 96.3084 76.582L95.7144 77.176ZM99.8123 75.682L99.8393 75.691L103.79 80.002V75.97L104.672 75.826V82.144L104.645 82.135L100.694 77.824V82L99.8123 82.108V75.682ZM111.98 78.913C111.98 79.363 111.893 79.786 111.719 80.182C111.551 80.572 111.32 80.914 111.026 81.208C110.738 81.496 110.396 81.724 110 81.892C109.61 82.06 109.19 82.144 108.74 82.144C108.284 82.144 107.858 82.06 107.462 81.892C107.072 81.724 106.73 81.493 106.436 81.199C106.148 80.905 105.92 80.563 105.752 80.173C105.584 79.777 105.5 79.357 105.5 78.913C105.5 78.463 105.584 78.043 105.752 77.653C105.926 77.257 106.157 76.915 106.445 76.627C106.739 76.333 107.081 76.102 107.471 75.934C107.867 75.766 108.29 75.682 108.74 75.682C109.196 75.682 109.619 75.769 110.009 75.943C110.405 76.111 110.747 76.342 111.035 76.636C111.329 76.924 111.56 77.266 111.728 77.662C111.896 78.052 111.98 78.469 111.98 78.913ZM108.74 81.334C109.052 81.334 109.349 81.271 109.631 81.145C109.919 81.013 110.171 80.839 110.387 80.623C110.603 80.401 110.774 80.143 110.9 79.849C111.032 79.555 111.098 79.243 111.098 78.913C111.098 78.589 111.035 78.28 110.909 77.986C110.783 77.692 110.612 77.437 110.396 77.221C110.186 76.999 109.937 76.822 109.649 76.69C109.361 76.558 109.055 76.492 108.731 76.492C108.425 76.492 108.128 76.555 107.84 76.681C107.558 76.807 107.309 76.981 107.093 77.203C106.877 77.419 106.703 77.674 106.571 77.968C106.445 78.262 106.382 78.577 106.382 78.913C106.382 79.243 106.445 79.555 106.571 79.849C106.697 80.143 106.868 80.401 107.084 80.623C107.3 80.839 107.549 81.013 107.831 81.145C108.119 81.271 108.422 81.334 108.74 81.334ZM112.82 75.682L112.847 75.691L116.798 80.002V75.97L117.68 75.826V82.144L117.653 82.135L113.702 77.824V82L112.82 82.108V75.682ZM124.235 77.176C123.995 76.912 123.782 76.732 123.596 76.636C123.41 76.54 123.227 76.492 123.047 76.492C122.759 76.492 122.525 76.576 122.345 76.744C122.165 76.912 122.075 77.143 122.075 77.437C122.075 77.575 122.105 77.695 122.165 77.797C122.231 77.893 122.318 77.98 122.426 78.058C122.54 78.136 122.675 78.208 122.831 78.274C122.987 78.334 123.158 78.4 123.344 78.472C123.566 78.556 123.77 78.646 123.956 78.742C124.148 78.838 124.313 78.955 124.451 79.093C124.589 79.231 124.697 79.396 124.775 79.588C124.859 79.774 124.901 79.999 124.901 80.263C124.901 80.545 124.85 80.8 124.748 81.028C124.646 81.256 124.508 81.454 124.334 81.622C124.16 81.79 123.956 81.919 123.722 82.009C123.494 82.099 123.248 82.144 122.984 82.144C122.81 82.144 122.645 82.126 122.489 82.09C122.333 82.06 122.177 82.006 122.021 81.928C121.871 81.85 121.715 81.748 121.553 81.622C121.397 81.49 121.235 81.331 121.067 81.145L121.715 80.605C121.841 80.803 122.006 80.974 122.21 81.118C122.414 81.262 122.642 81.334 122.894 81.334C123.05 81.334 123.194 81.316 123.326 81.28C123.464 81.238 123.584 81.175 123.686 81.091C123.788 81.007 123.869 80.896 123.929 80.758C123.989 80.62 124.019 80.452 124.019 80.254C124.019 80.14 123.977 80.035 123.893 79.939C123.809 79.837 123.704 79.747 123.578 79.669C123.458 79.591 123.332 79.522 123.2 79.462C123.068 79.396 122.954 79.339 122.858 79.291C122.66 79.195 122.462 79.093 122.264 78.985C122.066 78.871 121.886 78.742 121.724 78.598C121.568 78.454 121.439 78.289 121.337 78.103C121.241 77.911 121.193 77.683 121.193 77.419C121.193 77.161 121.238 76.927 121.328 76.717C121.418 76.501 121.544 76.318 121.706 76.168C121.874 76.012 122.075 75.892 122.309 75.808C122.543 75.724 122.804 75.682 123.092 75.682C123.398 75.682 123.707 75.757 124.019 75.907C124.331 76.057 124.601 76.282 124.829 76.582L124.235 77.176ZM128.258 75.682L131.399 81.964L130.517 82.144L129.464 80.02H126.98L125.936 82.144L125.108 81.964L128.24 75.682H128.258ZM127.349 79.21H129.104L128.222 77.437L127.349 79.21ZM132.704 80.101C132.704 80.467 132.806 80.764 133.01 80.992C133.22 81.22 133.532 81.334 133.946 81.334C134.396 81.334 134.735 81.226 134.963 81.01C135.191 80.788 135.305 80.488 135.305 80.11V75.826L136.187 75.682V79.309C136.187 79.531 136.181 79.756 136.169 79.984C136.163 80.212 136.139 80.431 136.097 80.641C136.061 80.851 135.998 81.049 135.908 81.235C135.824 81.415 135.704 81.574 135.548 81.712C135.392 81.844 135.194 81.949 134.954 82.027C134.72 82.105 134.432 82.144 134.09 82.144C133.664 82.144 133.304 82.102 133.01 82.018C132.722 81.934 132.488 81.796 132.308 81.604C132.134 81.406 132.008 81.151 131.93 80.839C131.858 80.521 131.822 80.131 131.822 79.669V75.826L132.704 75.682V80.101ZM137.45 75.682L138.962 79.966H138.98L140.555 75.682L141.437 75.826L138.98 82.144H138.962L136.577 75.826L137.45 75.682ZM145.154 75.826L145.343 76.636H142.742V78.382H144.821V79.192H142.742V81.19H145.541L145.289 82H141.86V75.826H145.154ZM150.95 77.131C150.83 77.047 150.71 76.966 150.59 76.888C150.47 76.81 150.341 76.744 150.203 76.69C150.071 76.63 149.927 76.582 149.771 76.546C149.615 76.51 149.444 76.492 149.258 76.492C148.94 76.492 148.637 76.558 148.349 76.69C148.067 76.816 147.818 76.993 147.602 77.221C147.386 77.443 147.215 77.704 147.089 78.004C146.963 78.304 146.9 78.628 146.9 78.976C146.9 79.258 146.957 79.54 147.071 79.822C147.185 80.104 147.341 80.359 147.539 80.587C147.737 80.809 147.968 80.989 148.232 81.127C148.502 81.265 148.79 81.334 149.096 81.334C149.372 81.334 149.651 81.295 149.933 81.217C150.221 81.133 150.467 80.989 150.671 80.785V79.318H148.826L149.132 78.508H151.553V81.244C151.439 81.382 151.292 81.508 151.112 81.622C150.932 81.73 150.734 81.823 150.518 81.901C150.302 81.979 150.074 82.039 149.834 82.081C149.594 82.123 149.357 82.144 149.123 82.144C148.715 82.144 148.325 82.06 147.953 81.892C147.581 81.718 147.251 81.487 146.963 81.199C146.675 80.911 146.444 80.578 146.27 80.2C146.102 79.816 146.018 79.414 146.018 78.994C146.018 78.544 146.099 78.118 146.261 77.716C146.423 77.314 146.645 76.963 146.927 76.663C147.215 76.357 147.554 76.117 147.944 75.943C148.334 75.769 148.76 75.682 149.222 75.682C149.654 75.682 150.068 75.754 150.464 75.898C150.86 76.036 151.196 76.246 151.472 76.528L150.95 77.131ZM155.258 75.682L158.399 81.964L157.517 82.144L156.464 80.02H153.98L152.936 82.144L152.108 81.964L155.24 75.682H155.258ZM154.349 79.21H156.104L155.222 77.437L154.349 79.21ZM160.28 75.826C160.556 75.826 160.817 75.865 161.063 75.943C161.309 76.015 161.525 76.129 161.711 76.285C161.897 76.441 162.044 76.636 162.152 76.87C162.26 77.104 162.314 77.38 162.314 77.698C162.314 78.166 162.191 78.529 161.945 78.787C161.699 79.039 161.366 79.213 160.946 79.309L162.809 81.892L161.819 82.144L159.668 79.003H159.65V82L158.768 82.108V75.826H160.28ZM160.298 78.805C160.442 78.805 160.583 78.778 160.721 78.724C160.859 78.67 160.979 78.595 161.081 78.499C161.189 78.403 161.273 78.289 161.333 78.157C161.399 78.019 161.432 77.866 161.432 77.698C161.432 77.512 161.402 77.353 161.342 77.221C161.282 77.083 161.201 76.972 161.099 76.888C160.997 76.804 160.877 76.741 160.739 76.699C160.607 76.657 160.463 76.636 160.307 76.636H159.65V78.805H160.298ZM164.906 75.826C165.35 75.826 165.761 75.91 166.139 76.078C166.517 76.246 166.841 76.471 167.111 76.753C167.387 77.035 167.603 77.362 167.759 77.734C167.915 78.106 167.993 78.499 167.993 78.913C167.993 79.327 167.915 79.72 167.759 80.092C167.603 80.464 167.387 80.794 167.111 81.082C166.835 81.364 166.508 81.589 166.13 81.757C165.758 81.919 165.353 82 164.915 82H163.34V75.826H164.906ZM164.879 81.19C165.155 81.19 165.425 81.136 165.689 81.028C165.959 80.92 166.199 80.767 166.409 80.569C166.619 80.365 166.787 80.125 166.913 79.849C167.045 79.567 167.111 79.255 167.111 78.913C167.111 78.577 167.045 78.271 166.913 77.995C166.787 77.713 166.619 77.473 166.409 77.275C166.199 77.071 165.959 76.915 165.689 76.807C165.425 76.693 165.152 76.636 164.87 76.636H164.222V81.19H164.879ZM172.154 75.826L172.343 76.636H169.742V78.382H171.821V79.192H169.742V81.19H172.541L172.289 82H168.86V75.826L172.154 75.826ZM171.848 74.17L170.552 75.466H169.814L170.624 74.17H171.848ZM176.24 77.176C176 76.912 175.787 76.732 175.601 76.636C175.415 76.54 175.232 76.492 175.052 76.492C174.764 76.492 174.53 76.576 174.35 76.744C174.17 76.912 174.08 77.143 174.08 77.437C174.08 77.575 174.11 77.695 174.17 77.797C174.236 77.893 174.323 77.98 174.431 78.058C174.545 78.136 174.68 78.208 174.836 78.274C174.992 78.334 175.163 78.4 175.349 78.472C175.571 78.556 175.775 78.646 175.961 78.742C176.153 78.838 176.318 78.955 176.456 79.093C176.594 79.231 176.702 79.396 176.78 79.588C176.864 79.774 176.906 79.999 176.906 80.263C176.906 80.545 176.855 80.8 176.753 81.028C176.651 81.256 176.513 81.454 176.339 81.622C176.165 81.79 175.961 81.919 175.727 82.009C175.499 82.099 175.253 82.144 174.989 82.144C174.815 82.144 174.65 82.126 174.494 82.09C174.338 82.06 174.182 82.006 174.026 81.928C173.876 81.85 173.72 81.748 173.558 81.622C173.402 81.49 173.24 81.331 173.072 81.145L173.72 80.605C173.846 80.803 174.011 80.974 174.215 81.118C174.419 81.262 174.647 81.334 174.899 81.334C175.055 81.334 175.199 81.316 175.331 81.28C175.469 81.238 175.589 81.175 175.691 81.091C175.793 81.007 175.874 80.896 175.934 80.758C175.994 80.62 176.024 80.452 176.024 80.254C176.024 80.14 175.982 80.035 175.898 79.939C175.814 79.837 175.709 79.747 175.583 79.669C175.463 79.591 175.337 79.522 175.205 79.462C175.073 79.396 174.959 79.339 174.863 79.291C174.665 79.195 174.467 79.093 174.269 78.985C174.071 78.871 173.891 78.742 173.729 78.598C173.573 78.454 173.444 78.289 173.342 78.103C173.246 77.911 173.198 77.683 173.198 77.419C173.198 77.161 173.243 76.927 173.333 76.717C173.423 76.501 173.549 76.318 173.711 76.168C173.879 76.012 174.08 75.892 174.314 75.808C174.548 75.724 174.809 75.682 175.097 75.682C175.403 75.682 175.712 75.757 176.024 75.907C176.336 76.057 176.606 76.282 176.834 76.582L176.24 77.176ZM178.508 80.533L179.093 81.307L178.508 82.081L177.923 81.307L178.508 80.533Z" fill="black"/>
<path d="M87.2692 97.682L88.7812 101.966H88.7992L90.3742 97.682L91.2562 97.826L88.7992 104.144H88.7812L86.3962 97.826L87.2692 97.682ZM97.8172 100.913C97.8172 101.363 97.7302 101.786 97.5562 102.182C97.3882 102.572 97.1572 102.914 96.8632 103.208C96.5752 103.496 96.2332 103.724 95.8372 103.892C95.4472 104.06 95.0272 104.144 94.5772 104.144C94.1212 104.144 93.6952 104.06 93.2992 103.892C92.9092 103.724 92.5672 103.493 92.2732 103.199C91.9852 102.905 91.7572 102.563 91.5892 102.173C91.4212 101.777 91.3372 101.357 91.3372 100.913C91.3372 100.463 91.4212 100.043 91.5892 99.653C91.7632 99.257 91.9942 98.915 92.2822 98.627C92.5762 98.333 92.9182 98.102 93.3082 97.934C93.7042 97.766 94.1272 97.682 94.5772 97.682C95.0332 97.682 95.4562 97.769 95.8462 97.943C96.2422 98.111 96.5842 98.342 96.8722 98.636C97.1662 98.924 97.3972 99.266 97.5652 99.662C97.7332 100.052 97.8172 100.469 97.8172 100.913ZM94.5772 103.334C94.8892 103.334 95.1862 103.271 95.4682 103.145C95.7562 103.013 96.0082 102.839 96.2242 102.623C96.4402 102.401 96.6112 102.143 96.7372 101.849C96.8692 101.555 96.9352 101.243 96.9352 100.913C96.9352 100.589 96.8722 100.28 96.7462 99.986C96.6202 99.692 96.4492 99.437 96.2332 99.221C96.0232 98.999 95.7742 98.822 95.4862 98.69C95.1982 98.558 94.8922 98.492 94.5682 98.492C94.2622 98.492 93.9652 98.555 93.6772 98.681C93.3952 98.807 93.1462 98.981 92.9302 99.203C92.7142 99.419 92.5402 99.674 92.4082 99.968C92.2822 100.262 92.2192 100.577 92.2192 100.913C92.2192 101.243 92.2822 101.555 92.4082 101.849C92.5342 102.143 92.7052 102.401 92.9212 102.623C93.1372 102.839 93.3862 103.013 93.6682 103.145C93.9562 103.271 94.2592 103.334 94.5772 103.334ZM99.5301 102.101C99.5301 102.467 99.6321 102.764 99.8361 102.992C100.046 103.22 100.358 103.334 100.772 103.334C101.222 103.334 101.561 103.226 101.789 103.01C102.017 102.788 102.131 102.488 102.131 102.11V97.826L103.013 97.682V101.309C103.013 101.531 103.007 101.756 102.995 101.984C102.989 102.212 102.965 102.431 102.923 102.641C102.887 102.851 102.824 103.049 102.734 103.235C102.65 103.415 102.53 103.574 102.374 103.712C102.218 103.844 102.02 103.949 101.78 104.027C101.546 104.105 101.258 104.144 100.916 104.144C100.49 104.144 100.13 104.102 99.8361 104.018C99.5481 103.934 99.3141 103.796 99.1341 103.604C98.9601 103.406 98.8341 103.151 98.7561 102.839C98.6841 102.521 98.6481 102.131 98.6481 101.669V97.826L99.5301 97.682V102.101ZM107.066 99.176C106.826 98.912 106.613 98.732 106.427 98.636C106.241 98.54 106.058 98.492 105.878 98.492C105.59 98.492 105.356 98.576 105.176 98.744C104.996 98.912 104.906 99.143 104.906 99.437C104.906 99.575 104.936 99.695 104.996 99.797C105.062 99.893 105.149 99.98 105.257 100.058C105.371 100.136 105.506 100.208 105.662 100.274C105.818 100.334 105.989 100.4 106.175 100.472C106.397 100.556 106.601 100.646 106.787 100.742C106.979 100.838 107.144 100.955 107.282 101.093C107.42 101.231 107.528 101.396 107.606 101.588C107.69 101.774 107.732 101.999 107.732 102.263C107.732 102.545 107.681 102.8 107.579 103.028C107.477 103.256 107.339 103.454 107.165 103.622C106.991 103.79 106.787 103.919 106.553 104.009C106.325 104.099 106.079 104.144 105.815 104.144C105.641 104.144 105.476 104.126 105.32 104.09C105.164 104.06 105.008 104.006 104.852 103.928C104.702 103.85 104.546 103.748 104.384 103.622C104.228 103.49 104.066 103.331 103.898 103.145L104.546 102.605C104.672 102.803 104.837 102.974 105.041 103.118C105.245 103.262 105.473 103.334 105.725 103.334C105.881 103.334 106.025 103.316 106.157 103.28C106.295 103.238 106.415 103.175 106.517 103.091C106.619 103.007 106.7 102.896 106.76 102.758C106.82 102.62 106.85 102.452 106.85 102.254C106.85 102.14 106.808 102.035 106.724 101.939C106.64 101.837 106.535 101.747 106.409 101.669C106.289 101.591 106.163 101.522 106.031 101.462C105.899 101.396 105.785 101.339 105.689 101.291C105.491 101.195 105.293 101.093 105.095 100.985C104.897 100.871 104.717 100.742 104.555 100.598C104.399 100.454 104.27 100.289 104.168 100.103C104.072 99.911 104.024 99.683 104.024 99.419C104.024 99.161 104.069 98.927 104.159 98.717C104.249 98.501 104.375 98.318 104.537 98.168C104.705 98.012 104.906 97.892 105.14 97.808C105.374 97.724 105.635 97.682 105.923 97.682C106.229 97.682 106.538 97.757 106.85 97.907C107.162 98.057 107.432 98.282 107.66 98.582L107.066 99.176ZM112.856 97.826C113.156 97.826 113.432 97.871 113.684 97.961C113.936 98.045 114.152 98.168 114.332 98.33C114.518 98.492 114.662 98.684 114.764 98.906C114.866 99.128 114.917 99.374 114.917 99.644C114.917 99.926 114.878 100.19 114.8 100.436C114.722 100.676 114.587 100.886 114.395 101.066C114.209 101.246 113.96 101.387 113.648 101.489C113.336 101.591 112.946 101.642 112.478 101.642H112.046V104L111.164 104.108V97.826H112.856ZM112.757 100.832C112.955 100.832 113.132 100.814 113.288 100.778C113.444 100.736 113.576 100.67 113.684 100.58C113.798 100.484 113.885 100.361 113.945 100.211C114.005 100.055 114.035 99.866 114.035 99.644C114.035 99.308 113.918 99.056 113.684 98.888C113.456 98.72 113.147 98.636 112.757 98.636H112.046V100.832H112.757ZM117.76 97.682L120.901 103.964L120.019 104.144L118.966 102.02H116.482L115.438 104.144L114.61 103.964L117.742 97.682H117.76ZM116.851 101.21H118.606L117.724 99.437L116.851 101.21ZM121.143 97.682L122.934 100.688L124.23 97.682L125.076 97.943L122.304 104.144L121.44 103.955L122.52 101.624L120.279 97.934L121.143 97.682ZM128.82 97.826L129.009 98.636H126.408V100.382H128.487V101.192H126.408V103.19H129.207L128.955 104H125.526V97.826H128.82ZM134.148 97.826L130.908 103.19H134.31L134.094 104H129.549L132.825 98.636H129.684L129.864 97.826H134.148Z" fill="black"/>
<path d="M142.507 98.564C142.405 98.462 142.27 98.378 142.102 98.312C141.94 98.24 141.763 98.204 141.571 98.204C141.373 98.204 141.187 98.249 141.013 98.339C140.839 98.423 140.68 98.546 140.536 98.708C140.392 98.864 140.266 99.056 140.158 99.284C140.05 99.512 139.969 99.764 139.915 100.04H141.778L141.688 100.517H139.834C139.822 100.583 139.816 100.646 139.816 100.706C139.816 100.766 139.816 100.829 139.816 100.895C139.816 100.943 139.816 100.988 139.816 101.03C139.816 101.072 139.819 101.117 139.825 101.165H141.562L141.472 101.642H139.87C139.966 102.26 140.167 102.746 140.473 103.1C140.785 103.448 141.157 103.622 141.589 103.622C141.769 103.622 141.943 103.589 142.111 103.523C142.279 103.451 142.426 103.358 142.552 103.244L142.471 103.91C142.327 104.012 142.171 104.075 142.003 104.099C141.841 104.129 141.706 104.144 141.598 104.144C141.31 104.144 141.037 104.084 140.779 103.964C140.527 103.844 140.299 103.676 140.095 103.46C139.897 103.244 139.729 102.983 139.591 102.677C139.453 102.371 139.354 102.026 139.294 101.642H138.484L138.574 101.165H139.249C139.243 101.117 139.24 101.072 139.24 101.03C139.24 100.982 139.24 100.937 139.24 100.895C139.24 100.829 139.24 100.766 139.24 100.706C139.246 100.646 139.252 100.583 139.258 100.517H138.484L138.574 100.04H139.321C139.387 99.698 139.489 99.383 139.627 99.095C139.771 98.807 139.942 98.558 140.14 98.348C140.338 98.138 140.56 97.976 140.806 97.862C141.058 97.742 141.325 97.682 141.607 97.682C141.757 97.682 141.907 97.7 142.057 97.736C142.213 97.772 142.333 97.829 142.417 97.907L142.507 98.564Z" fill="black"/>
<path d="M148.896 97.826L148.68 98.636H146.52V99.905C146.718 99.845 146.919 99.815 147.123 99.815C147.411 99.815 147.684 99.875 147.942 99.995C148.2 100.109 148.428 100.265 148.626 100.463C148.824 100.661 148.98 100.892 149.094 101.156C149.208 101.414 149.265 101.687 149.265 101.975C149.265 102.293 149.202 102.584 149.076 102.848C148.956 103.112 148.788 103.34 148.572 103.532C148.356 103.724 148.104 103.874 147.816 103.982C147.528 104.09 147.219 104.144 146.889 104.144C146.475 104.144 146.118 104.063 145.818 103.901C145.518 103.739 145.239 103.502 144.981 103.19L145.701 102.704C145.845 102.878 146.016 103.028 146.214 103.154C146.412 103.274 146.625 103.334 146.853 103.334C147.057 103.334 147.249 103.304 147.429 103.244C147.615 103.184 147.777 103.097 147.915 102.983C148.059 102.869 148.173 102.728 148.257 102.56C148.341 102.386 148.383 102.191 148.383 101.975C148.383 101.777 148.344 101.597 148.266 101.435C148.188 101.267 148.08 101.123 147.942 101.003C147.81 100.883 147.651 100.79 147.465 100.724C147.285 100.658 147.093 100.625 146.889 100.625C146.649 100.625 146.424 100.673 146.214 100.769C146.004 100.859 145.812 100.982 145.638 101.138V97.826H148.896ZM152.25 104.144C151.836 104.144 151.485 104.048 151.197 103.856C150.909 103.658 150.678 103.406 150.504 103.1C150.33 102.788 150.204 102.44 150.126 102.056C150.048 101.666 150.009 101.282 150.009 100.904C150.009 100.676 150.024 100.439 150.054 100.193C150.084 99.947 150.132 99.704 150.198 99.464C150.27 99.224 150.363 98.996 150.477 98.78C150.591 98.564 150.729 98.375 150.891 98.213C151.059 98.051 151.254 97.922 151.476 97.826C151.698 97.73 151.956 97.682 152.25 97.682C152.67 97.682 153.021 97.781 153.303 97.979C153.591 98.177 153.822 98.432 153.996 98.744C154.176 99.056 154.302 99.404 154.374 99.788C154.452 100.172 154.491 100.553 154.491 100.931C154.491 101.273 154.455 101.633 154.383 102.011C154.311 102.383 154.188 102.728 154.014 103.046C153.846 103.364 153.618 103.628 153.33 103.838C153.042 104.042 152.682 104.144 152.25 104.144ZM152.25 103.334C152.7 103.334 153.039 103.127 153.267 102.713C153.495 102.293 153.609 101.693 153.609 100.913C153.609 100.145 153.495 99.551 153.267 99.131C153.045 98.705 152.703 98.492 152.241 98.492C151.821 98.492 151.491 98.693 151.251 99.095C151.011 99.491 150.891 100.097 150.891 100.913C150.891 101.693 151.005 102.293 151.233 102.713C151.461 103.127 151.8 103.334 152.25 103.334ZM156 102.533L156.585 103.307L156 104.081L155.415 103.307L156 102.533Z" fill="black"/>
<rect width="30" height="13" transform="translate(107.5 141)" fill="white"/>
<path d="M111.426 145.198C111.659 145.198 111.874 145.233 112.07 145.303C112.266 145.368 112.434 145.464 112.574 145.59C112.719 145.716 112.831 145.865 112.91 146.038C112.989 146.211 113.029 146.402 113.029 146.612C113.029 146.831 112.999 147.037 112.938 147.228C112.877 147.415 112.772 147.578 112.623 147.718C112.478 147.858 112.285 147.968 112.042 148.047C111.799 148.126 111.496 148.166 111.132 148.166H110.796V150L110.11 150.084V145.198H111.426ZM111.349 147.536C111.503 147.536 111.641 147.522 111.762 147.494C111.883 147.461 111.986 147.41 112.07 147.34C112.159 147.265 112.226 147.17 112.273 147.053C112.32 146.932 112.343 146.785 112.343 146.612C112.343 146.351 112.252 146.155 112.07 146.024C111.893 145.893 111.652 145.828 111.349 145.828H110.796V147.536H111.349ZM118.405 147.599C118.405 147.949 118.337 148.278 118.202 148.586C118.071 148.889 117.892 149.155 117.663 149.384C117.439 149.608 117.173 149.785 116.865 149.916C116.562 150.047 116.235 150.112 115.885 150.112C115.53 150.112 115.199 150.047 114.891 149.916C114.588 149.785 114.322 149.606 114.093 149.377C113.869 149.148 113.692 148.882 113.561 148.579C113.43 148.271 113.365 147.944 113.365 147.599C113.365 147.249 113.43 146.922 113.561 146.619C113.696 146.311 113.876 146.045 114.1 145.821C114.329 145.592 114.595 145.413 114.898 145.282C115.206 145.151 115.535 145.086 115.885 145.086C116.24 145.086 116.569 145.154 116.872 145.289C117.18 145.42 117.446 145.599 117.67 145.828C117.899 146.052 118.078 146.318 118.209 146.626C118.34 146.929 118.405 147.254 118.405 147.599ZM115.885 149.482C116.128 149.482 116.359 149.433 116.578 149.335C116.802 149.232 116.998 149.097 117.166 148.929C117.334 148.756 117.467 148.556 117.565 148.327C117.668 148.098 117.719 147.856 117.719 147.599C117.719 147.347 117.67 147.107 117.572 146.878C117.474 146.649 117.341 146.451 117.173 146.283C117.01 146.11 116.816 145.973 116.592 145.87C116.368 145.767 116.13 145.716 115.878 145.716C115.64 145.716 115.409 145.765 115.185 145.863C114.966 145.961 114.772 146.096 114.604 146.269C114.436 146.437 114.301 146.635 114.198 146.864C114.1 147.093 114.051 147.338 114.051 147.599C114.051 147.856 114.1 148.098 114.198 148.327C114.296 148.556 114.429 148.756 114.597 148.929C114.765 149.097 114.959 149.232 115.178 149.335C115.402 149.433 115.638 149.482 115.885 149.482ZM119.765 149.37H121.802L121.522 150H119.079V145.198L119.765 145.086V149.37ZM121.898 145.086L123.291 147.424L124.299 145.086L124.957 145.289L122.801 150.112L122.129 149.965L122.969 148.152L121.226 145.282L121.898 145.086ZM127.547 146.248C127.36 146.043 127.195 145.903 127.05 145.828C126.905 145.753 126.763 145.716 126.623 145.716C126.399 145.716 126.217 145.781 126.077 145.912C125.937 146.043 125.867 146.222 125.867 146.451C125.867 146.558 125.89 146.652 125.937 146.731C125.988 146.806 126.056 146.873 126.14 146.934C126.229 146.995 126.334 147.051 126.455 147.102C126.576 147.149 126.709 147.2 126.854 147.256C127.027 147.321 127.185 147.391 127.33 147.466C127.479 147.541 127.608 147.632 127.715 147.739C127.822 147.846 127.906 147.975 127.967 148.124C128.032 148.269 128.065 148.444 128.065 148.649C128.065 148.868 128.025 149.067 127.946 149.244C127.867 149.421 127.759 149.575 127.624 149.706C127.489 149.837 127.33 149.937 127.148 150.007C126.971 150.077 126.779 150.112 126.574 150.112C126.439 150.112 126.31 150.098 126.189 150.07C126.068 150.047 125.946 150.005 125.825 149.944C125.708 149.883 125.587 149.804 125.461 149.706C125.34 149.603 125.214 149.48 125.083 149.335L125.587 148.915C125.685 149.069 125.813 149.202 125.972 149.314C126.131 149.426 126.308 149.482 126.504 149.482C126.625 149.482 126.737 149.468 126.84 149.44C126.947 149.407 127.041 149.358 127.12 149.293C127.199 149.228 127.262 149.141 127.309 149.034C127.356 148.927 127.379 148.796 127.379 148.642C127.379 148.553 127.346 148.472 127.281 148.397C127.216 148.318 127.134 148.248 127.036 148.187C126.943 148.126 126.845 148.073 126.742 148.026C126.639 147.975 126.551 147.93 126.476 147.893C126.322 147.818 126.168 147.739 126.014 147.655C125.86 147.566 125.72 147.466 125.594 147.354C125.473 147.242 125.372 147.114 125.293 146.969C125.218 146.82 125.181 146.642 125.181 146.437C125.181 146.236 125.216 146.054 125.286 145.891C125.356 145.723 125.454 145.581 125.58 145.464C125.711 145.343 125.867 145.249 126.049 145.184C126.231 145.119 126.434 145.086 126.658 145.086C126.896 145.086 127.136 145.144 127.379 145.261C127.622 145.378 127.832 145.553 128.009 145.786L127.547 146.248ZM129.458 150L128.772 150.056V145.198L129.458 145.086V150ZM135.133 147.599C135.133 147.949 135.065 148.278 134.93 148.586C134.799 148.889 134.619 149.155 134.391 149.384C134.167 149.608 133.901 149.785 133.593 149.916C133.289 150.047 132.963 150.112 132.613 150.112C132.258 150.112 131.927 150.047 131.619 149.916C131.315 149.785 131.049 149.606 130.821 149.377C130.597 149.148 130.419 148.882 130.289 148.579C130.158 148.271 130.093 147.944 130.093 147.599C130.093 147.249 130.158 146.922 130.289 146.619C130.424 146.311 130.604 146.045 130.828 145.821C131.056 145.592 131.322 145.413 131.626 145.282C131.934 145.151 132.263 145.086 132.613 145.086C132.967 145.086 133.296 145.154 133.6 145.289C133.908 145.42 134.174 145.599 134.398 145.828C134.626 146.052 134.806 146.318 134.937 146.626C135.067 146.929 135.133 147.254 135.133 147.599ZM132.613 149.482C132.855 149.482 133.086 149.433 133.306 149.335C133.53 149.232 133.726 149.097 133.894 148.929C134.062 148.756 134.195 148.556 134.293 148.327C134.395 148.098 134.447 147.856 134.447 147.599C134.447 147.347 134.398 147.107 134.3 146.878C134.202 146.649 134.069 146.451 133.901 146.283C133.737 146.11 133.544 145.973 133.32 145.87C133.096 145.767 132.858 145.716 132.606 145.716C132.368 145.716 132.137 145.765 131.913 145.863C131.693 145.961 131.5 146.096 131.332 146.269C131.164 146.437 131.028 146.635 130.926 146.864C130.828 147.093 130.779 147.338 130.779 147.599C130.779 147.856 130.828 148.098 130.926 148.327C131.024 148.556 131.157 148.756 131.325 148.929C131.493 149.097 131.686 149.232 131.906 149.335C132.13 149.433 132.365 149.482 132.613 149.482Z" fill="black"/>
</svg>
