<svg width="244" height="157" viewBox="0 0 244 157" fill="none" xmlns="http://www.w3.org/2000/svg">
<rect width="244" height="157" fill="white"/>
<rect x="9" y="9" width="226" height="139" stroke="black"/>
<path d="M106.19 23.036C105.966 22.876 105.73 22.74 105.482 22.628C105.234 22.508 104.97 22.448 104.69 22.448C104.346 22.448 104.026 22.508 103.73 22.628C103.442 22.74 103.194 22.904 102.986 23.12C102.778 23.328 102.614 23.58 102.494 23.876C102.374 24.172 102.314 24.5 102.314 24.86C102.314 25.228 102.37 25.564 102.482 25.868C102.602 26.164 102.766 26.42 102.974 26.636C103.182 26.852 103.43 27.02 103.718 27.14C104.014 27.26 104.338 27.32 104.69 27.32C104.97 27.32 105.238 27.26 105.494 27.14C105.758 27.012 106.006 26.868 106.238 26.708L105.986 28.892C105.906 28.94 105.802 28.98 105.674 29.012C105.546 29.052 105.41 29.084 105.266 29.108C105.13 29.132 104.994 29.152 104.858 29.168C104.73 29.184 104.626 29.192 104.546 29.192C103.922 29.192 103.346 29.088 102.818 28.88C102.298 28.672 101.846 28.38 101.462 28.004C101.086 27.628 100.794 27.18 100.586 26.66C100.378 26.132 100.274 25.548 100.274 24.908C100.274 24.3 100.378 23.732 100.586 23.204C100.794 22.676 101.086 22.216 101.462 21.824C101.838 21.432 102.286 21.128 102.806 20.912C103.334 20.688 103.91 20.576 104.534 20.576C104.774 20.576 105.006 20.596 105.23 20.636C105.454 20.676 105.67 20.744 105.878 20.84L106.19 23.036ZM109.342 23.768H111.982V20.768L114.022 20.576V28.904L111.982 29.096V25.64H109.342V28.904L107.302 29.096V20.768L109.342 20.576V23.768ZM118.642 20.576H118.666L123.106 28.772L121.03 29.192L120.19 27.428L117.058 27.428L116.23 29.192L114.25 28.772L118.642 20.576ZM117.55 25.904L119.734 25.904L118.642 23.888L117.55 25.904ZM123.274 20.576H123.298L128.686 25.184V20.768L130.726 20.576V29.192H130.702L125.314 24.488V28.904L123.274 29.096V20.576ZM137.526 23.036C137.302 22.876 137.066 22.74 136.818 22.628C136.57 22.508 136.306 22.448 136.026 22.448C135.682 22.448 135.362 22.508 135.066 22.628C134.778 22.74 134.53 22.904 134.322 23.12C134.114 23.328 133.95 23.58 133.83 23.876C133.71 24.172 133.65 24.5 133.65 24.86C133.65 25.228 133.706 25.564 133.818 25.868C133.938 26.164 134.102 26.42 134.31 26.636C134.518 26.852 134.766 27.02 135.054 27.14C135.35 27.26 135.674 27.32 136.026 27.32C136.306 27.32 136.574 27.26 136.83 27.14C137.094 27.012 137.342 26.868 137.574 26.708L137.322 28.892C137.242 28.94 137.138 28.98 137.01 29.012C136.882 29.052 136.746 29.084 136.602 29.108C136.466 29.132 136.33 29.152 136.194 29.168C136.066 29.184 135.962 29.192 135.882 29.192C135.258 29.192 134.682 29.088 134.154 28.88C133.634 28.672 133.182 28.38 132.798 28.004C132.422 27.628 132.13 27.18 131.922 26.66C131.714 26.132 131.61 25.548 131.61 24.908C131.61 24.3 131.714 23.732 131.922 23.204C132.13 22.676 132.422 22.216 132.798 21.824C133.174 21.432 133.622 21.128 134.142 20.912C134.67 20.688 135.246 20.576 135.87 20.576C136.11 20.576 136.342 20.596 136.566 20.636C136.79 20.676 137.006 20.744 137.214 20.84L137.526 23.036ZM143.294 20.768L143.654 22.508H140.678V23.936H142.802V25.676H140.678V27.26H143.906L143.402 29H138.638V20.768H143.294Z" fill="black"/>
<rect width="194" height="95" transform="translate(25 37)" fill="white"/>
<path d="M56.4235 75.682L57.9355 79.966H57.9535L59.5285 75.682L60.4105 75.826L57.9535 82.144H57.9355L55.5505 75.826L56.4235 75.682ZM66.9715 78.913C66.9715 79.363 66.8845 79.786 66.7105 80.182C66.5425 80.572 66.3115 80.914 66.0175 81.208C65.7295 81.496 65.3875 81.724 64.9915 81.892C64.6015 82.06 64.1815 82.144 63.7315 82.144C63.2755 82.144 62.8495 82.06 62.4535 81.892C62.0635 81.724 61.7215 81.493 61.4275 81.199C61.1395 80.905 60.9115 80.563 60.7435 80.173C60.5755 79.777 60.4915 79.357 60.4915 78.913C60.4915 78.463 60.5755 78.043 60.7435 77.653C60.9175 77.257 61.1485 76.915 61.4365 76.627C61.7305 76.333 62.0725 76.102 62.4625 75.934C62.8585 75.766 63.2815 75.682 63.7315 75.682C64.1875 75.682 64.6105 75.769 65.0005 75.943C65.3965 76.111 65.7385 76.342 66.0265 76.636C66.3205 76.924 66.5515 77.266 66.7195 77.662C66.8875 78.052 66.9715 78.469 66.9715 78.913ZM63.7315 81.334C64.0435 81.334 64.3405 81.271 64.6225 81.145C64.9105 81.013 65.1625 80.839 65.3785 80.623C65.5945 80.401 65.7655 80.143 65.8915 79.849C66.0235 79.555 66.0895 79.243 66.0895 78.913C66.0895 78.589 66.0265 78.28 65.9005 77.986C65.7745 77.692 65.6035 77.437 65.3875 77.221C65.1775 76.999 64.9285 76.822 64.6405 76.69C64.3525 76.558 64.0465 76.492 63.7225 76.492C63.4165 76.492 63.1195 76.555 62.8315 76.681C62.5495 76.807 62.3005 76.981 62.0845 77.203C61.8685 77.419 61.6945 77.674 61.5625 77.968C61.4365 78.262 61.3735 78.577 61.3735 78.913C61.3735 79.243 61.4365 79.555 61.5625 79.849C61.6885 80.143 61.8595 80.401 62.0755 80.623C62.2915 80.839 62.5405 81.013 62.8225 81.145C63.1105 81.271 63.4135 81.334 63.7315 81.334ZM68.6844 80.101C68.6844 80.467 68.7864 80.764 68.9904 80.992C69.2004 81.22 69.5124 81.334 69.9264 81.334C70.3764 81.334 70.7154 81.226 70.9434 81.01C71.1714 80.788 71.2854 80.488 71.2854 80.11V75.826L72.1674 75.682V79.309C72.1674 79.531 72.1614 79.756 72.1494 79.984C72.1434 80.212 72.1194 80.431 72.0774 80.641C72.0414 80.851 71.9784 81.049 71.8884 81.235C71.8044 81.415 71.6844 81.574 71.5284 81.712C71.3724 81.844 71.1744 81.949 70.9344 82.027C70.7004 82.105 70.4124 82.144 70.0704 82.144C69.6444 82.144 69.2844 82.102 68.9904 82.018C68.7024 81.934 68.4684 81.796 68.2884 81.604C68.1144 81.406 67.9884 81.151 67.9104 80.839C67.8384 80.521 67.8024 80.131 67.8024 79.669V75.826L68.6844 75.682V80.101ZM76.2203 77.176C75.9803 76.912 75.7673 76.732 75.5813 76.636C75.3953 76.54 75.2123 76.492 75.0323 76.492C74.7443 76.492 74.5103 76.576 74.3303 76.744C74.1503 76.912 74.0603 77.143 74.0603 77.437C74.0603 77.575 74.0903 77.695 74.1503 77.797C74.2163 77.893 74.3033 77.98 74.4113 78.058C74.5253 78.136 74.6603 78.208 74.8163 78.274C74.9723 78.334 75.1433 78.4 75.3293 78.472C75.5513 78.556 75.7553 78.646 75.9413 78.742C76.1333 78.838 76.2983 78.955 76.4363 79.093C76.5743 79.231 76.6823 79.396 76.7603 79.588C76.8443 79.774 76.8863 79.999 76.8863 80.263C76.8863 80.545 76.8353 80.8 76.7333 81.028C76.6313 81.256 76.4933 81.454 76.3193 81.622C76.1453 81.79 75.9413 81.919 75.7073 82.009C75.4793 82.099 75.2333 82.144 74.9693 82.144C74.7953 82.144 74.6303 82.126 74.4743 82.09C74.3183 82.06 74.1623 82.006 74.0063 81.928C73.8563 81.85 73.7003 81.748 73.5383 81.622C73.3823 81.49 73.2203 81.331 73.0523 81.145L73.7003 80.605C73.8263 80.803 73.9913 80.974 74.1953 81.118C74.3993 81.262 74.6273 81.334 74.8793 81.334C75.0353 81.334 75.1793 81.316 75.3113 81.28C75.4493 81.238 75.5693 81.175 75.6713 81.091C75.7733 81.007 75.8543 80.896 75.9143 80.758C75.9743 80.62 76.0043 80.452 76.0043 80.254C76.0043 80.14 75.9623 80.035 75.8783 79.939C75.7943 79.837 75.6893 79.747 75.5633 79.669C75.4433 79.591 75.3173 79.522 75.1853 79.462C75.0533 79.396 74.9393 79.339 74.8433 79.291C74.6453 79.195 74.4473 79.093 74.2493 78.985C74.0513 78.871 73.8713 78.742 73.7093 78.598C73.5533 78.454 73.4243 78.289 73.3223 78.103C73.2263 77.911 73.1783 77.683 73.1783 77.419C73.1783 77.161 73.2233 76.927 73.3133 76.717C73.4033 76.501 73.5293 76.318 73.6913 76.168C73.8593 76.012 74.0603 75.892 74.2943 75.808C74.5283 75.724 74.7893 75.682 75.0773 75.682C75.3833 75.682 75.6923 75.757 76.0043 75.907C76.3163 76.057 76.5863 76.282 76.8143 76.582L76.2203 77.176ZM82.7482 75.682L85.8892 81.964L85.0072 82.144L83.9542 80.02H81.4702L80.4262 82.144L79.5982 81.964L82.7302 75.682H82.7482ZM81.8392 79.21H83.5942L82.7122 77.437L81.8392 79.21ZM88.0131 75.826C88.3131 75.826 88.5891 75.871 88.8411 75.961C89.0931 76.045 89.3091 76.168 89.4891 76.33C89.6751 76.492 89.8191 76.684 89.9211 76.906C90.0231 77.128 90.0741 77.374 90.0741 77.644C90.0741 77.926 90.0351 78.19 89.9571 78.436C89.8791 78.676 89.7441 78.886 89.5521 79.066C89.3661 79.246 89.1171 79.387 88.8051 79.489C88.4931 79.591 88.1031 79.642 87.6351 79.642H87.2031V82L86.3211 82.108V75.826H88.0131ZM87.9141 78.832C88.1121 78.832 88.2891 78.814 88.4451 78.778C88.6011 78.736 88.7331 78.67 88.8411 78.58C88.9551 78.484 89.0421 78.361 89.1021 78.211C89.1621 78.055 89.1921 77.866 89.1921 77.644C89.1921 77.308 89.0751 77.056 88.8411 76.888C88.6131 76.72 88.3041 76.636 87.9141 76.636H87.2031V78.832H87.9141ZM92.5131 75.826C92.8131 75.826 93.0891 75.871 93.3411 75.961C93.5931 76.045 93.8091 76.168 93.9891 76.33C94.1751 76.492 94.3191 76.684 94.4211 76.906C94.5231 77.128 94.5741 77.374 94.5741 77.644C94.5741 77.926 94.5351 78.19 94.4571 78.436C94.3791 78.676 94.2441 78.886 94.0521 79.066C93.8661 79.246 93.6171 79.387 93.3051 79.489C92.9931 79.591 92.6031 79.642 92.1351 79.642H91.7031V82L90.8211 82.108V75.826H92.5131ZM92.4141 78.832C92.6121 78.832 92.7891 78.814 92.9451 78.778C93.1011 78.736 93.2331 78.67 93.3411 78.58C93.4551 78.484 93.5421 78.361 93.6021 78.211C93.6621 78.055 93.6921 77.866 93.6921 77.644C93.6921 77.308 93.5751 77.056 93.3411 76.888C93.1131 76.72 92.8041 76.636 92.4141 76.636H91.7031V78.832H92.4141ZM101.486 78.913C101.486 79.363 101.399 79.786 101.225 80.182C101.057 80.572 100.826 80.914 100.532 81.208C100.244 81.496 99.9021 81.724 99.5061 81.892C99.1161 82.06 98.6961 82.144 98.2461 82.144C97.7901 82.144 97.3641 82.06 96.9681 81.892C96.5781 81.724 96.2361 81.493 95.9421 81.199C95.6541 80.905 95.4261 80.563 95.2581 80.173C95.0901 79.777 95.0061 79.357 95.0061 78.913C95.0061 78.463 95.0901 78.043 95.2581 77.653C95.4321 77.257 95.6631 76.915 95.9511 76.627C96.2451 76.333 96.5871 76.102 96.9771 75.934C97.3731 75.766 97.7961 75.682 98.2461 75.682C98.7021 75.682 99.1251 75.769 99.5151 75.943C99.9111 76.111 100.253 76.342 100.541 76.636C100.835 76.924 101.066 77.266 101.234 77.662C101.402 78.052 101.486 78.469 101.486 78.913ZM98.2461 81.334C98.5581 81.334 98.8551 81.271 99.1371 81.145C99.4251 81.013 99.6771 80.839 99.8931 80.623C100.109 80.401 100.28 80.143 100.406 79.849C100.538 79.555 100.604 79.243 100.604 78.913C100.604 78.589 100.541 78.28 100.415 77.986C100.289 77.692 100.118 77.437 99.9021 77.221C99.6921 76.999 99.4431 76.822 99.1551 76.69C98.8671 76.558 98.5611 76.492 98.2371 76.492C97.9311 76.492 97.6341 76.555 97.3461 76.681C97.0641 76.807 96.8151 76.981 96.5991 77.203C96.3831 77.419 96.2091 77.674 96.0771 77.968C95.9511 78.262 95.8881 78.577 95.8881 78.913C95.8881 79.243 95.9511 79.555 96.0771 79.849C96.2031 80.143 96.3741 80.401 96.5901 80.623C96.8061 80.839 97.0551 81.013 97.3371 81.145C97.6251 81.271 97.9281 81.334 98.2461 81.334ZM103.775 75.826C104.051 75.826 104.312 75.865 104.558 75.943C104.804 76.015 105.02 76.129 105.206 76.285C105.392 76.441 105.539 76.636 105.647 76.87C105.755 77.104 105.809 77.38 105.809 77.698C105.809 78.166 105.686 78.529 105.44 78.787C105.194 79.039 104.861 79.213 104.441 79.309L106.304 81.892L105.314 82.144L103.163 79.003H103.145V82L102.263 82.108V75.826H103.775ZM103.793 78.805C103.937 78.805 104.078 78.778 104.216 78.724C104.354 78.67 104.474 78.595 104.576 78.499C104.684 78.403 104.768 78.289 104.828 78.157C104.894 78.019 104.927 77.866 104.927 77.698C104.927 77.512 104.897 77.353 104.837 77.221C104.777 77.083 104.696 76.972 104.594 76.888C104.492 76.804 104.372 76.741 104.234 76.699C104.102 76.657 103.958 76.636 103.802 76.636H103.145V78.805H103.793ZM110.129 75.826V76.636H108.689V82L107.807 82.108V76.636H106.205L106.484 75.826H110.129ZM114.146 75.826L114.335 76.636H111.734V78.382H113.813V79.192H111.734V81.19H114.533L114.281 82H110.852V75.826H114.146ZM119.474 75.826L116.234 81.19H119.636L119.42 82H114.875L118.151 76.636H115.01L115.19 75.826H119.474ZM123.74 81.19H126.359L125.999 82H122.858V75.826L123.74 75.682V81.19ZM130.151 75.826L130.34 76.636H127.739V78.382H129.818V79.192H127.739V81.19H130.538L130.286 82H126.857V75.826H130.151ZM134.237 77.176C133.997 76.912 133.784 76.732 133.598 76.636C133.412 76.54 133.229 76.492 133.049 76.492C132.761 76.492 132.527 76.576 132.347 76.744C132.167 76.912 132.077 77.143 132.077 77.437C132.077 77.575 132.107 77.695 132.167 77.797C132.233 77.893 132.32 77.98 132.428 78.058C132.542 78.136 132.677 78.208 132.833 78.274C132.989 78.334 133.16 78.4 133.346 78.472C133.568 78.556 133.772 78.646 133.958 78.742C134.15 78.838 134.315 78.955 134.453 79.093C134.591 79.231 134.699 79.396 134.777 79.588C134.861 79.774 134.903 79.999 134.903 80.263C134.903 80.545 134.852 80.8 134.75 81.028C134.648 81.256 134.51 81.454 134.336 81.622C134.162 81.79 133.958 81.919 133.724 82.009C133.496 82.099 133.25 82.144 132.986 82.144C132.812 82.144 132.647 82.126 132.491 82.09C132.335 82.06 132.179 82.006 132.023 81.928C131.873 81.85 131.717 81.748 131.555 81.622C131.399 81.49 131.237 81.331 131.069 81.145L131.717 80.605C131.843 80.803 132.008 80.974 132.212 81.118C132.416 81.262 132.644 81.334 132.896 81.334C133.052 81.334 133.196 81.316 133.328 81.28C133.466 81.238 133.586 81.175 133.688 81.091C133.79 81.007 133.871 80.896 133.931 80.758C133.991 80.62 134.021 80.452 134.021 80.254C134.021 80.14 133.979 80.035 133.895 79.939C133.811 79.837 133.706 79.747 133.58 79.669C133.46 79.591 133.334 79.522 133.202 79.462C133.07 79.396 132.956 79.339 132.86 79.291C132.662 79.195 132.464 79.093 132.266 78.985C132.068 78.871 131.888 78.742 131.726 78.598C131.57 78.454 131.441 78.289 131.339 78.103C131.243 77.911 131.195 77.683 131.195 77.419C131.195 77.161 131.24 76.927 131.33 76.717C131.42 76.501 131.546 76.318 131.708 76.168C131.876 76.012 132.077 75.892 132.311 75.808C132.545 75.724 132.806 75.682 133.094 75.682C133.4 75.682 133.709 75.757 134.021 75.907C134.333 76.057 134.603 76.282 134.831 76.582L134.237 77.176ZM142.187 76.789C142.025 76.675 141.86 76.597 141.692 76.555C141.524 76.513 141.344 76.492 141.152 76.492C140.834 76.492 140.537 76.561 140.261 76.699C139.991 76.831 139.754 77.008 139.55 77.23C139.346 77.446 139.187 77.698 139.073 77.986C138.959 78.274 138.902 78.571 138.902 78.877C138.902 79.201 138.959 79.513 139.073 79.813C139.187 80.107 139.343 80.368 139.541 80.596C139.739 80.818 139.97 80.998 140.234 81.136C140.504 81.268 140.795 81.334 141.107 81.334C141.317 81.334 141.527 81.301 141.737 81.235C141.953 81.163 142.148 81.07 142.322 80.956L142.16 81.919C141.974 81.985 141.794 82.039 141.62 82.081C141.452 82.123 141.275 82.144 141.089 82.144C140.675 82.144 140.282 82.06 139.91 81.892C139.538 81.724 139.211 81.496 138.929 81.208C138.653 80.914 138.431 80.572 138.263 80.182C138.101 79.786 138.02 79.363 138.02 78.913C138.02 78.505 138.104 78.109 138.272 77.725C138.44 77.335 138.659 76.99 138.929 76.69C139.205 76.384 139.517 76.141 139.865 75.961C140.213 75.775 140.57 75.682 140.936 75.682C141.116 75.682 141.293 75.697 141.467 75.727C141.647 75.751 141.824 75.787 141.998 75.835L142.187 76.789ZM144.785 75.826C145.061 75.826 145.322 75.865 145.568 75.943C145.814 76.015 146.03 76.129 146.216 76.285C146.402 76.441 146.549 76.636 146.657 76.87C146.765 77.104 146.819 77.38 146.819 77.698C146.819 78.166 146.696 78.529 146.45 78.787C146.204 79.039 145.871 79.213 145.451 79.309L147.314 81.892L146.324 82.144L144.173 79.003H144.155V82L143.273 82.108V75.826H144.785ZM144.803 78.805C144.947 78.805 145.088 78.778 145.226 78.724C145.364 78.67 145.484 78.595 145.586 78.499C145.694 78.403 145.778 78.289 145.838 78.157C145.904 78.019 145.937 77.866 145.937 77.698C145.937 77.512 145.907 77.353 145.847 77.221C145.787 77.083 145.706 76.972 145.604 76.888C145.502 76.804 145.382 76.741 145.244 76.699C145.112 76.657 144.968 76.636 144.812 76.636H144.155V78.805H144.803ZM154.001 78.913C154.001 79.363 153.914 79.786 153.74 80.182C153.572 80.572 153.341 80.914 153.047 81.208C152.759 81.496 152.417 81.724 152.021 81.892C151.631 82.06 151.211 82.144 150.761 82.144C150.305 82.144 149.879 82.06 149.483 81.892C149.093 81.724 148.751 81.493 148.457 81.199C148.169 80.905 147.941 80.563 147.773 80.173C147.605 79.777 147.521 79.357 147.521 78.913C147.521 78.463 147.605 78.043 147.773 77.653C147.947 77.257 148.178 76.915 148.466 76.627C148.76 76.333 149.102 76.102 149.492 75.934C149.888 75.766 150.311 75.682 150.761 75.682C151.217 75.682 151.64 75.769 152.03 75.943C152.426 76.111 152.768 76.342 153.056 76.636C153.35 76.924 153.581 77.266 153.749 77.662C153.917 78.052 154.001 78.469 154.001 78.913ZM150.761 81.334C151.073 81.334 151.37 81.271 151.652 81.145C151.94 81.013 152.192 80.839 152.408 80.623C152.624 80.401 152.795 80.143 152.921 79.849C153.053 79.555 153.119 79.243 153.119 78.913C153.119 78.589 153.056 78.28 152.93 77.986C152.804 77.692 152.633 77.437 152.417 77.221C152.207 76.999 151.958 76.822 151.67 76.69C151.382 76.558 151.076 76.492 150.752 76.492C150.446 76.492 150.149 76.555 149.861 76.681C149.579 76.807 149.33 76.981 149.114 77.203C148.898 77.419 148.724 77.674 148.592 77.968C148.466 78.262 148.403 78.577 148.403 78.913C148.403 79.243 148.466 79.555 148.592 79.849C148.718 80.143 148.889 80.401 149.105 80.623C149.321 80.839 149.57 81.013 149.852 81.145C150.14 81.271 150.443 81.334 150.761 81.334ZM155.705 82L154.823 82.072V75.826L155.705 75.682V82ZM159.743 77.176C159.503 76.912 159.29 76.732 159.104 76.636C158.918 76.54 158.735 76.492 158.555 76.492C158.267 76.492 158.033 76.576 157.853 76.744C157.673 76.912 157.583 77.143 157.583 77.437C157.583 77.575 157.613 77.695 157.673 77.797C157.739 77.893 157.826 77.98 157.934 78.058C158.048 78.136 158.183 78.208 158.339 78.274C158.495 78.334 158.666 78.4 158.852 78.472C159.074 78.556 159.278 78.646 159.464 78.742C159.656 78.838 159.821 78.955 159.959 79.093C160.097 79.231 160.205 79.396 160.283 79.588C160.367 79.774 160.409 79.999 160.409 80.263C160.409 80.545 160.358 80.8 160.256 81.028C160.154 81.256 160.016 81.454 159.842 81.622C159.668 81.79 159.464 81.919 159.23 82.009C159.002 82.099 158.756 82.144 158.492 82.144C158.318 82.144 158.153 82.126 157.997 82.09C157.841 82.06 157.685 82.006 157.529 81.928C157.379 81.85 157.223 81.748 157.061 81.622C156.905 81.49 156.743 81.331 156.575 81.145L157.223 80.605C157.349 80.803 157.514 80.974 157.718 81.118C157.922 81.262 158.15 81.334 158.402 81.334C158.558 81.334 158.702 81.316 158.834 81.28C158.972 81.238 159.092 81.175 159.194 81.091C159.296 81.007 159.377 80.896 159.437 80.758C159.497 80.62 159.527 80.452 159.527 80.254C159.527 80.14 159.485 80.035 159.401 79.939C159.317 79.837 159.212 79.747 159.086 79.669C158.966 79.591 158.84 79.522 158.708 79.462C158.576 79.396 158.462 79.339 158.366 79.291C158.168 79.195 157.97 79.093 157.772 78.985C157.574 78.871 157.394 78.742 157.232 78.598C157.076 78.454 156.947 78.289 156.845 78.103C156.749 77.911 156.701 77.683 156.701 77.419C156.701 77.161 156.746 76.927 156.836 76.717C156.926 76.501 157.052 76.318 157.214 76.168C157.382 76.012 157.583 75.892 157.817 75.808C158.051 75.724 158.312 75.682 158.6 75.682C158.906 75.682 159.215 75.757 159.527 75.907C159.839 76.057 160.109 76.282 160.337 76.582L159.743 77.176ZM164.243 77.176C164.003 76.912 163.79 76.732 163.604 76.636C163.418 76.54 163.235 76.492 163.055 76.492C162.767 76.492 162.533 76.576 162.353 76.744C162.173 76.912 162.083 77.143 162.083 77.437C162.083 77.575 162.113 77.695 162.173 77.797C162.239 77.893 162.326 77.98 162.434 78.058C162.548 78.136 162.683 78.208 162.839 78.274C162.995 78.334 163.166 78.4 163.352 78.472C163.574 78.556 163.778 78.646 163.964 78.742C164.156 78.838 164.321 78.955 164.459 79.093C164.597 79.231 164.705 79.396 164.783 79.588C164.867 79.774 164.909 79.999 164.909 80.263C164.909 80.545 164.858 80.8 164.756 81.028C164.654 81.256 164.516 81.454 164.342 81.622C164.168 81.79 163.964 81.919 163.73 82.009C163.502 82.099 163.256 82.144 162.992 82.144C162.818 82.144 162.653 82.126 162.497 82.09C162.341 82.06 162.185 82.006 162.029 81.928C161.879 81.85 161.723 81.748 161.561 81.622C161.405 81.49 161.243 81.331 161.075 81.145L161.723 80.605C161.849 80.803 162.014 80.974 162.218 81.118C162.422 81.262 162.65 81.334 162.902 81.334C163.058 81.334 163.202 81.316 163.334 81.28C163.472 81.238 163.592 81.175 163.694 81.091C163.796 81.007 163.877 80.896 163.937 80.758C163.997 80.62 164.027 80.452 164.027 80.254C164.027 80.14 163.985 80.035 163.901 79.939C163.817 79.837 163.712 79.747 163.586 79.669C163.466 79.591 163.34 79.522 163.208 79.462C163.076 79.396 162.962 79.339 162.866 79.291C162.668 79.195 162.47 79.093 162.272 78.985C162.074 78.871 161.894 78.742 161.732 78.598C161.576 78.454 161.447 78.289 161.345 78.103C161.249 77.911 161.201 77.683 161.201 77.419C161.201 77.161 161.246 76.927 161.336 76.717C161.426 76.501 161.552 76.318 161.714 76.168C161.882 76.012 162.083 75.892 162.317 75.808C162.551 75.724 162.812 75.682 163.1 75.682C163.406 75.682 163.715 75.757 164.027 75.907C164.339 76.057 164.609 76.282 164.837 76.582L164.243 77.176ZM168.266 75.682L171.407 81.964L170.525 82.144L169.472 80.02H166.988L165.944 82.144L165.116 81.964L168.248 75.682H168.266ZM167.357 79.21H169.112L168.23 77.437L167.357 79.21ZM171.839 75.682L171.866 75.691L175.817 80.002V75.97L176.699 75.826V82.144L176.672 82.135L172.721 77.824V82L171.839 82.108V75.682ZM181.145 75.826V76.636H179.705V82L178.823 82.108V76.636H177.221L177.5 75.826H181.145ZM184.748 77.176C184.508 76.912 184.295 76.732 184.109 76.636C183.923 76.54 183.74 76.492 183.56 76.492C183.272 76.492 183.038 76.576 182.858 76.744C182.678 76.912 182.588 77.143 182.588 77.437C182.588 77.575 182.618 77.695 182.678 77.797C182.744 77.893 182.831 77.98 182.939 78.058C183.053 78.136 183.188 78.208 183.344 78.274C183.5 78.334 183.671 78.4 183.857 78.472C184.079 78.556 184.283 78.646 184.469 78.742C184.661 78.838 184.826 78.955 184.964 79.093C185.102 79.231 185.21 79.396 185.288 79.588C185.372 79.774 185.414 79.999 185.414 80.263C185.414 80.545 185.363 80.8 185.261 81.028C185.159 81.256 185.021 81.454 184.847 81.622C184.673 81.79 184.469 81.919 184.235 82.009C184.007 82.099 183.761 82.144 183.497 82.144C183.323 82.144 183.158 82.126 183.002 82.09C182.846 82.06 182.69 82.006 182.534 81.928C182.384 81.85 182.228 81.748 182.066 81.622C181.91 81.49 181.748 81.331 181.58 81.145L182.228 80.605C182.354 80.803 182.519 80.974 182.723 81.118C182.927 81.262 183.155 81.334 183.407 81.334C183.563 81.334 183.707 81.316 183.839 81.28C183.977 81.238 184.097 81.175 184.199 81.091C184.301 81.007 184.382 80.896 184.442 80.758C184.502 80.62 184.532 80.452 184.532 80.254C184.532 80.14 184.49 80.035 184.406 79.939C184.322 79.837 184.217 79.747 184.091 79.669C183.971 79.591 183.845 79.522 183.713 79.462C183.581 79.396 183.467 79.339 183.371 79.291C183.173 79.195 182.975 79.093 182.777 78.985C182.579 78.871 182.399 78.742 182.237 78.598C182.081 78.454 181.952 78.289 181.85 78.103C181.754 77.911 181.706 77.683 181.706 77.419C181.706 77.161 181.751 76.927 181.841 76.717C181.931 76.501 182.057 76.318 182.219 76.168C182.387 76.012 182.588 75.892 182.822 75.808C183.056 75.724 183.317 75.682 183.605 75.682C183.911 75.682 184.22 75.757 184.532 75.907C184.844 76.057 185.114 76.282 185.342 76.582L184.748 77.176ZM187.016 80.533L187.601 81.307L187.016 82.081L186.431 81.307L187.016 80.533Z" fill="black"/>
<path d="M51.1507 87.789C50.9887 87.675 50.8237 87.597 50.6557 87.555C50.4877 87.513 50.3077 87.492 50.1157 87.492C49.7977 87.492 49.5007 87.561 49.2247 87.699C48.9547 87.831 48.7177 88.008 48.5137 88.23C48.3097 88.446 48.1507 88.698 48.0367 88.986C47.9227 89.274 47.8657 89.571 47.8657 89.877C47.8657 90.201 47.9227 90.513 48.0367 90.813C48.1507 91.107 48.3067 91.368 48.5047 91.596C48.7027 91.818 48.9337 91.998 49.1977 92.136C49.4677 92.268 49.7587 92.334 50.0707 92.334C50.2807 92.334 50.4907 92.301 50.7007 92.235C50.9167 92.163 51.1117 92.07 51.2857 91.956L51.1237 92.919C50.9377 92.985 50.7577 93.039 50.5837 93.081C50.4157 93.123 50.2387 93.144 50.0527 93.144C49.6387 93.144 49.2457 93.06 48.8737 92.892C48.5017 92.724 48.1747 92.496 47.8927 92.208C47.6167 91.914 47.3947 91.572 47.2267 91.182C47.0647 90.786 46.9837 90.363 46.9837 89.913C46.9837 89.505 47.0677 89.109 47.2357 88.725C47.4037 88.335 47.6227 87.99 47.8927 87.69C48.1687 87.384 48.4807 87.141 48.8287 86.961C49.1767 86.775 49.5337 86.682 49.8997 86.682C50.0797 86.682 50.2567 86.697 50.4307 86.727C50.6107 86.751 50.7877 86.787 50.9617 86.835L51.1507 87.789ZM53.2086 89.382H56.2506V86.826L57.1326 86.682V93L56.2506 93.108V90.192H53.2086V93L52.3266 93.108V86.826L53.2086 86.682V89.382ZM60.7326 86.682L63.8736 92.964L62.9916 93.144L61.9386 91.02H59.4546L58.4106 93.144L57.5826 92.964L60.7146 86.682H60.7326ZM59.8236 90.21H61.5786L60.6966 88.437L59.8236 90.21ZM70.4705 89.913C70.4705 90.327 70.3985 90.714 70.2545 91.074C70.1165 91.434 69.9215 91.758 69.6695 92.046L70.6595 93.153L69.9665 93.603L69.0575 92.586C68.7995 92.76 68.5145 92.898 68.2025 93C67.8965 93.096 67.5725 93.144 67.2305 93.144C66.7805 93.144 66.3575 93.06 65.9615 92.892C65.5655 92.724 65.2205 92.493 64.9265 92.199C64.6385 91.905 64.4105 91.563 64.2425 91.173C64.0745 90.783 63.9905 90.363 63.9905 89.913C63.9905 89.469 64.0745 89.052 64.2425 88.662C64.4105 88.266 64.6385 87.924 64.9265 87.636C65.2205 87.342 65.5625 87.111 65.9525 86.943C66.3485 86.769 66.7745 86.682 67.2305 86.682C67.6865 86.682 68.1125 86.769 68.5085 86.943C68.9045 87.111 69.2465 87.342 69.5345 87.636C69.8285 87.924 70.0565 88.266 70.2185 88.662C70.3865 89.052 70.4705 89.469 70.4705 89.913ZM67.2305 92.334C67.6745 92.334 68.0945 92.205 68.4905 91.947L67.7165 91.083L68.4005 90.642L69.0755 91.389C69.2375 91.179 69.3635 90.948 69.4535 90.696C69.5435 90.444 69.5885 90.183 69.5885 89.913C69.5885 89.589 69.5255 89.28 69.3995 88.986C69.2735 88.692 69.1025 88.437 68.8865 88.221C68.6765 87.999 68.4275 87.822 68.1395 87.69C67.8515 87.558 67.5455 87.492 67.2215 87.492C66.9035 87.492 66.6005 87.558 66.3125 87.69C66.0305 87.822 65.7815 87.999 65.5655 88.221C65.3555 88.437 65.1875 88.692 65.0615 88.986C64.9355 89.28 64.8725 89.589 64.8725 89.913C64.8725 90.243 64.9355 90.555 65.0615 90.849C65.1875 91.143 65.3585 91.401 65.5745 91.623C65.7905 91.839 66.0395 92.013 66.3215 92.145C66.6095 92.271 66.9125 92.334 67.2305 92.334ZM72.1834 91.101C72.1834 91.467 72.2854 91.764 72.4894 91.992C72.6994 92.22 73.0114 92.334 73.4254 92.334C73.8754 92.334 74.2144 92.226 74.4424 92.01C74.6704 91.788 74.7844 91.488 74.7844 91.11V86.826L75.6664 86.682V90.309C75.6664 90.531 75.6604 90.756 75.6484 90.984C75.6424 91.212 75.6184 91.431 75.5764 91.641C75.5404 91.851 75.4774 92.049 75.3874 92.235C75.3034 92.415 75.1834 92.574 75.0274 92.712C74.8714 92.844 74.6734 92.949 74.4334 93.027C74.1994 93.105 73.9114 93.144 73.5694 93.144C73.1434 93.144 72.7834 93.102 72.4894 93.018C72.2014 92.934 71.9674 92.796 71.7874 92.604C71.6134 92.406 71.4874 92.151 71.4094 91.839C71.3374 91.521 71.3014 91.131 71.3014 90.669V86.826L72.1834 86.682V91.101ZM80.1333 86.826L80.3223 87.636H77.7213V89.382H79.8003V90.192H77.7213V92.19H80.5203L80.2683 93H76.8393V86.826H80.1333ZM86.1482 91.2C86.1482 91.5 86.1032 91.77 86.0132 92.01C85.9292 92.244 85.8062 92.448 85.6442 92.622C85.4882 92.79 85.2962 92.919 85.0682 93.009C84.8462 93.099 84.5972 93.144 84.3212 93.144C84.2192 93.144 84.1112 93.132 83.9972 93.108C83.8832 93.084 83.7722 93.054 83.6642 93.018C83.5622 92.982 83.4692 92.94 83.3852 92.892C83.3012 92.844 83.2352 92.796 83.1872 92.748L83.6282 91.974C83.8742 92.166 84.1472 92.262 84.4472 92.262C84.7232 92.262 84.9272 92.172 85.0592 91.992C85.1972 91.806 85.2662 91.542 85.2662 91.2V86.826L86.1482 86.682V91.2ZM93.4803 89.913C93.4803 90.363 93.3933 90.786 93.2193 91.182C93.0513 91.572 92.8203 91.914 92.5263 92.208C92.2383 92.496 91.8963 92.724 91.5003 92.892C91.1103 93.06 90.6903 93.144 90.2403 93.144C89.7843 93.144 89.3583 93.06 88.9623 92.892C88.5723 92.724 88.2303 92.493 87.9363 92.199C87.6483 91.905 87.4203 91.563 87.2523 91.173C87.0843 90.777 87.0003 90.357 87.0003 89.913C87.0003 89.463 87.0843 89.043 87.2523 88.653C87.4263 88.257 87.6573 87.915 87.9453 87.627C88.2393 87.333 88.5813 87.102 88.9713 86.934C89.3673 86.766 89.7903 86.682 90.2403 86.682C90.6963 86.682 91.1193 86.769 91.5093 86.943C91.9053 87.111 92.2473 87.342 92.5353 87.636C92.8293 87.924 93.0603 88.266 93.2283 88.662C93.3963 89.052 93.4803 89.469 93.4803 89.913ZM90.2403 92.334C90.5523 92.334 90.8493 92.271 91.1313 92.145C91.4193 92.013 91.6713 91.839 91.8873 91.623C92.1033 91.401 92.2743 91.143 92.4003 90.849C92.5323 90.555 92.5983 90.243 92.5983 89.913C92.5983 89.589 92.5353 89.28 92.4093 88.986C92.2833 88.692 92.1123 88.437 91.8963 88.221C91.6863 87.999 91.4373 87.822 91.1493 87.69C90.8613 87.558 90.5553 87.492 90.2313 87.492C89.9253 87.492 89.6283 87.555 89.3403 87.681C89.0583 87.807 88.8093 87.981 88.5933 88.203C88.3773 88.419 88.2033 88.674 88.0713 88.968C87.9453 89.262 87.8823 89.577 87.8823 89.913C87.8823 90.243 87.9453 90.555 88.0713 90.849C88.1973 91.143 88.3683 91.401 88.5843 91.623C88.8003 91.839 89.0493 92.013 89.3313 92.145C89.6193 92.271 89.9223 92.334 90.2403 92.334ZM95.1931 91.101C95.1931 91.467 95.2951 91.764 95.4991 91.992C95.7091 92.22 96.0211 92.334 96.4351 92.334C96.8851 92.334 97.2241 92.226 97.4521 92.01C97.6801 91.788 97.7941 91.488 97.7941 91.11V86.826L98.6761 86.682V90.309C98.6761 90.531 98.6701 90.756 98.6581 90.984C98.6521 91.212 98.6281 91.431 98.5861 91.641C98.5501 91.851 98.4871 92.049 98.3971 92.235C98.3131 92.415 98.1931 92.574 98.0371 92.712C97.8811 92.844 97.6831 92.949 97.4431 93.027C97.2091 93.105 96.9211 93.144 96.5791 93.144C96.1531 93.144 95.7931 93.102 95.4991 93.018C95.2111 92.934 94.9771 92.796 94.7971 92.604C94.6231 92.406 94.4971 92.151 94.4191 91.839C94.3471 91.521 94.3111 91.131 94.3111 90.669V86.826L95.1931 86.682V91.101ZM103.143 86.826L103.332 87.636H100.731V89.382H102.81V90.192H100.731V92.19H103.53L103.278 93H99.8491V86.826H103.143ZM105.195 91.101C105.195 91.467 105.297 91.764 105.501 91.992C105.711 92.22 106.023 92.334 106.437 92.334C106.887 92.334 107.226 92.226 107.454 92.01C107.682 91.788 107.796 91.488 107.796 91.11V86.826L108.678 86.682V90.309C108.678 90.531 108.672 90.756 108.66 90.984C108.654 91.212 108.63 91.431 108.588 91.641C108.552 91.851 108.489 92.049 108.399 92.235C108.315 92.415 108.195 92.574 108.039 92.712C107.883 92.844 107.685 92.949 107.445 93.027C107.211 93.105 106.923 93.144 106.581 93.144C106.155 93.144 105.795 93.102 105.501 93.018C105.213 92.934 104.979 92.796 104.799 92.604C104.625 92.406 104.499 92.151 104.421 91.839C104.349 91.521 104.313 91.131 104.313 90.669V86.826L105.195 86.682V91.101ZM111.273 86.826C111.549 86.826 111.81 86.865 112.056 86.943C112.302 87.015 112.518 87.129 112.704 87.285C112.89 87.441 113.037 87.636 113.145 87.87C113.253 88.104 113.307 88.38 113.307 88.698C113.307 89.166 113.184 89.529 112.938 89.787C112.692 90.039 112.359 90.213 111.939 90.309L113.802 92.892L112.812 93.144L110.661 90.003H110.643V93L109.761 93.108V86.826H111.273ZM111.291 89.805C111.435 89.805 111.576 89.778 111.714 89.724C111.852 89.67 111.972 89.595 112.074 89.499C112.182 89.403 112.266 89.289 112.326 89.157C112.392 89.019 112.425 88.866 112.425 88.698C112.425 88.512 112.395 88.353 112.335 88.221C112.275 88.083 112.194 87.972 112.092 87.888C111.99 87.804 111.87 87.741 111.732 87.699C111.6 87.657 111.456 87.636 111.3 87.636H110.643V89.805H111.291ZM116.946 86.682L118.458 90.966H118.476L120.051 86.682L120.933 86.826L118.476 93.144H118.458L116.073 86.826L116.946 86.682ZM127.494 89.913C127.494 90.363 127.407 90.786 127.233 91.182C127.065 91.572 126.834 91.914 126.54 92.208C126.252 92.496 125.91 92.724 125.514 92.892C125.124 93.06 124.704 93.144 124.254 93.144C123.798 93.144 123.372 93.06 122.976 92.892C122.586 92.724 122.244 92.493 121.95 92.199C121.662 91.905 121.434 91.563 121.266 91.173C121.098 90.777 121.014 90.357 121.014 89.913C121.014 89.463 121.098 89.043 121.266 88.653C121.44 88.257 121.671 87.915 121.959 87.627C122.253 87.333 122.595 87.102 122.985 86.934C123.381 86.766 123.804 86.682 124.254 86.682C124.71 86.682 125.133 86.769 125.523 86.943C125.919 87.111 126.261 87.342 126.549 87.636C126.843 87.924 127.074 88.266 127.242 88.662C127.41 89.052 127.494 89.469 127.494 89.913ZM124.254 92.334C124.566 92.334 124.863 92.271 125.145 92.145C125.433 92.013 125.685 91.839 125.901 91.623C126.117 91.401 126.288 91.143 126.414 90.849C126.546 90.555 126.612 90.243 126.612 89.913C126.612 89.589 126.549 89.28 126.423 88.986C126.297 88.692 126.126 88.437 125.91 88.221C125.7 87.999 125.451 87.822 125.163 87.69C124.875 87.558 124.569 87.492 124.245 87.492C123.939 87.492 123.642 87.555 123.354 87.681C123.072 87.807 122.823 87.981 122.607 88.203C122.391 88.419 122.217 88.674 122.085 88.968C121.959 89.262 121.896 89.577 121.896 89.913C121.896 90.243 121.959 90.555 122.085 90.849C122.211 91.143 122.382 91.401 122.598 91.623C122.814 91.839 123.063 92.013 123.345 92.145C123.633 92.271 123.936 92.334 124.254 92.334ZM129.207 91.101C129.207 91.467 129.309 91.764 129.513 91.992C129.723 92.22 130.035 92.334 130.449 92.334C130.899 92.334 131.238 92.226 131.466 92.01C131.694 91.788 131.808 91.488 131.808 91.11V86.826L132.69 86.682V90.309C132.69 90.531 132.684 90.756 132.672 90.984C132.666 91.212 132.642 91.431 132.6 91.641C132.564 91.851 132.501 92.049 132.411 92.235C132.327 92.415 132.207 92.574 132.051 92.712C131.895 92.844 131.697 92.949 131.457 93.027C131.223 93.105 130.935 93.144 130.593 93.144C130.167 93.144 129.807 93.102 129.513 93.018C129.225 92.934 128.991 92.796 128.811 92.604C128.637 92.406 128.511 92.151 128.433 91.839C128.361 91.521 128.325 91.131 128.325 90.669V86.826L129.207 86.682V91.101ZM136.743 88.176C136.503 87.912 136.29 87.732 136.104 87.636C135.918 87.54 135.735 87.492 135.555 87.492C135.267 87.492 135.033 87.576 134.853 87.744C134.673 87.912 134.583 88.143 134.583 88.437C134.583 88.575 134.613 88.695 134.673 88.797C134.739 88.893 134.826 88.98 134.934 89.058C135.048 89.136 135.183 89.208 135.339 89.274C135.495 89.334 135.666 89.4 135.852 89.472C136.074 89.556 136.278 89.646 136.464 89.742C136.656 89.838 136.821 89.955 136.959 90.093C137.097 90.231 137.205 90.396 137.283 90.588C137.367 90.774 137.409 90.999 137.409 91.263C137.409 91.545 137.358 91.8 137.256 92.028C137.154 92.256 137.016 92.454 136.842 92.622C136.668 92.79 136.464 92.919 136.23 93.009C136.002 93.099 135.756 93.144 135.492 93.144C135.318 93.144 135.153 93.126 134.997 93.09C134.841 93.06 134.685 93.006 134.529 92.928C134.379 92.85 134.223 92.748 134.061 92.622C133.905 92.49 133.743 92.331 133.575 92.145L134.223 91.605C134.349 91.803 134.514 91.974 134.718 92.118C134.922 92.262 135.15 92.334 135.402 92.334C135.558 92.334 135.702 92.316 135.834 92.28C135.972 92.238 136.092 92.175 136.194 92.091C136.296 92.007 136.377 91.896 136.437 91.758C136.497 91.62 136.527 91.452 136.527 91.254C136.527 91.14 136.485 91.035 136.401 90.939C136.317 90.837 136.212 90.747 136.086 90.669C135.966 90.591 135.84 90.522 135.708 90.462C135.576 90.396 135.462 90.339 135.366 90.291C135.168 90.195 134.97 90.093 134.772 89.985C134.574 89.871 134.394 89.742 134.232 89.598C134.076 89.454 133.947 89.289 133.845 89.103C133.749 88.911 133.701 88.683 133.701 88.419C133.701 88.161 133.746 87.927 133.836 87.717C133.926 87.501 134.052 87.318 134.214 87.168C134.382 87.012 134.583 86.892 134.817 86.808C135.051 86.724 135.312 86.682 135.6 86.682C135.906 86.682 136.215 86.757 136.527 86.907C136.839 87.057 137.109 87.282 137.337 87.582L136.743 88.176ZM142.416 86.826C142.86 86.826 143.271 86.91 143.649 87.078C144.027 87.246 144.351 87.471 144.621 87.753C144.897 88.035 145.113 88.362 145.269 88.734C145.425 89.106 145.503 89.499 145.503 89.913C145.503 90.327 145.425 90.72 145.269 91.092C145.113 91.464 144.897 91.794 144.621 92.082C144.345 92.364 144.018 92.589 143.64 92.757C143.268 92.919 142.863 93 142.425 93H140.85V86.826H142.416ZM142.389 92.19C142.665 92.19 142.935 92.136 143.199 92.028C143.469 91.92 143.709 91.767 143.919 91.569C144.129 91.365 144.297 91.125 144.423 90.849C144.555 90.567 144.621 90.255 144.621 89.913C144.621 89.577 144.555 89.271 144.423 88.995C144.297 88.713 144.129 88.473 143.919 88.275C143.709 88.071 143.469 87.915 143.199 87.807C142.935 87.693 142.662 87.636 142.38 87.636H141.732V92.19H142.389ZM152.508 89.913C152.508 90.363 152.421 90.786 152.247 91.182C152.079 91.572 151.848 91.914 151.554 92.208C151.266 92.496 150.924 92.724 150.528 92.892C150.138 93.06 149.718 93.144 149.268 93.144C148.812 93.144 148.386 93.06 147.99 92.892C147.6 92.724 147.258 92.493 146.964 92.199C146.676 91.905 146.448 91.563 146.28 91.173C146.112 90.777 146.028 90.357 146.028 89.913C146.028 89.463 146.112 89.043 146.28 88.653C146.454 88.257 146.685 87.915 146.973 87.627C147.267 87.333 147.609 87.102 147.999 86.934C148.395 86.766 148.818 86.682 149.268 86.682C149.724 86.682 150.147 86.769 150.537 86.943C150.933 87.111 151.275 87.342 151.563 87.636C151.857 87.924 152.088 88.266 152.256 88.662C152.424 89.052 152.508 89.469 152.508 89.913ZM149.268 92.334C149.58 92.334 149.877 92.271 150.159 92.145C150.447 92.013 150.699 91.839 150.915 91.623C151.131 91.401 151.302 91.143 151.428 90.849C151.56 90.555 151.626 90.243 151.626 89.913C151.626 89.589 151.563 89.28 151.437 88.986C151.311 88.692 151.14 88.437 150.924 88.221C150.714 87.999 150.465 87.822 150.177 87.69C149.889 87.558 149.583 87.492 149.259 87.492C148.953 87.492 148.656 87.555 148.368 87.681C148.086 87.807 147.837 87.981 147.621 88.203C147.405 88.419 147.231 88.674 147.099 88.968C146.973 89.262 146.91 89.577 146.91 89.913C146.91 90.243 146.973 90.555 147.099 90.849C147.225 91.143 147.396 91.401 147.612 91.623C147.828 91.839 148.077 92.013 148.359 92.145C148.647 92.271 148.95 92.334 149.268 92.334ZM153.347 86.682L153.374 86.691L157.325 91.002V86.97L158.207 86.826V93.144L158.18 93.135L154.229 88.824V93L153.347 93.108V86.682ZM159.35 86.682L159.377 86.691L163.328 91.002V86.97L164.21 86.826V93.144L164.183 93.135L160.232 88.824V93L159.35 93.108V86.682ZM168.674 86.826L168.863 87.636H166.262V89.382H168.341V90.192H166.262V92.19H169.061L168.809 93H165.38V86.826H168.674Z" fill="black"/>
<path d="M177.507 87.564C177.405 87.462 177.27 87.378 177.102 87.312C176.94 87.24 176.763 87.204 176.571 87.204C176.373 87.204 176.187 87.249 176.013 87.339C175.839 87.423 175.68 87.546 175.536 87.708C175.392 87.864 175.266 88.056 175.158 88.284C175.05 88.512 174.969 88.764 174.915 89.04H176.778L176.688 89.517H174.834C174.822 89.583 174.816 89.646 174.816 89.706C174.816 89.766 174.816 89.829 174.816 89.895C174.816 89.943 174.816 89.988 174.816 90.03C174.816 90.072 174.819 90.117 174.825 90.165H176.562L176.472 90.642H174.87C174.966 91.26 175.167 91.746 175.473 92.1C175.785 92.448 176.157 92.622 176.589 92.622C176.769 92.622 176.943 92.589 177.111 92.523C177.279 92.451 177.426 92.358 177.552 92.244L177.471 92.91C177.327 93.012 177.171 93.075 177.003 93.099C176.841 93.129 176.706 93.144 176.598 93.144C176.31 93.144 176.037 93.084 175.779 92.964C175.527 92.844 175.299 92.676 175.095 92.46C174.897 92.244 174.729 91.983 174.591 91.677C174.453 91.371 174.354 91.026 174.294 90.642H173.484L173.574 90.165H174.249C174.243 90.117 174.24 90.072 174.24 90.03C174.24 89.982 174.24 89.937 174.24 89.895C174.24 89.829 174.24 89.766 174.24 89.706C174.246 89.646 174.252 89.583 174.258 89.517H173.484L173.574 89.04H174.321C174.387 88.698 174.489 88.383 174.627 88.095C174.771 87.807 174.942 87.558 175.14 87.348C175.338 87.138 175.56 86.976 175.806 86.862C176.058 86.742 176.325 86.682 176.607 86.682C176.757 86.682 176.907 86.7 177.057 86.736C177.213 86.772 177.333 86.829 177.417 86.907L177.507 87.564Z" fill="black"/>
<path d="M182.95 86.682H182.968V93L182.086 93.072V88.221L180.826 89.004L180.511 88.446L182.95 86.682ZM187.249 93.144C186.835 93.144 186.484 93.048 186.196 92.856C185.908 92.658 185.677 92.406 185.503 92.1C185.329 91.788 185.203 91.44 185.125 91.056C185.047 90.666 185.008 90.282 185.008 89.904C185.008 89.676 185.023 89.439 185.053 89.193C185.083 88.947 185.131 88.704 185.197 88.464C185.269 88.224 185.362 87.996 185.476 87.78C185.59 87.564 185.728 87.375 185.89 87.213C186.058 87.051 186.253 86.922 186.475 86.826C186.697 86.73 186.955 86.682 187.249 86.682C187.669 86.682 188.02 86.781 188.302 86.979C188.59 87.177 188.821 87.432 188.995 87.744C189.175 88.056 189.301 88.404 189.373 88.788C189.451 89.172 189.49 89.553 189.49 89.931C189.49 90.273 189.454 90.633 189.382 91.011C189.31 91.383 189.187 91.728 189.013 92.046C188.845 92.364 188.617 92.628 188.329 92.838C188.041 93.042 187.681 93.144 187.249 93.144ZM187.249 92.334C187.699 92.334 188.038 92.127 188.266 91.713C188.494 91.293 188.608 90.693 188.608 89.913C188.608 89.145 188.494 88.551 188.266 88.131C188.044 87.705 187.702 87.492 187.24 87.492C186.82 87.492 186.49 87.693 186.25 88.095C186.01 88.491 185.89 89.097 185.89 89.913C185.89 90.693 186.004 91.293 186.232 91.713C186.46 92.127 186.799 92.334 187.249 92.334ZM192.25 93.144C191.836 93.144 191.485 93.048 191.197 92.856C190.909 92.658 190.678 92.406 190.504 92.1C190.33 91.788 190.204 91.44 190.126 91.056C190.048 90.666 190.009 90.282 190.009 89.904C190.009 89.676 190.024 89.439 190.054 89.193C190.084 88.947 190.132 88.704 190.198 88.464C190.27 88.224 190.363 87.996 190.477 87.78C190.591 87.564 190.729 87.375 190.891 87.213C191.059 87.051 191.254 86.922 191.476 86.826C191.698 86.73 191.956 86.682 192.25 86.682C192.67 86.682 193.021 86.781 193.303 86.979C193.591 87.177 193.822 87.432 193.996 87.744C194.176 88.056 194.302 88.404 194.374 88.788C194.452 89.172 194.491 89.553 194.491 89.931C194.491 90.273 194.455 90.633 194.383 91.011C194.311 91.383 194.188 91.728 194.014 92.046C193.846 92.364 193.618 92.628 193.33 92.838C193.042 93.042 192.682 93.144 192.25 93.144ZM192.25 92.334C192.7 92.334 193.039 92.127 193.267 91.713C193.495 91.293 193.609 90.693 193.609 89.913C193.609 89.145 193.495 88.551 193.267 88.131C193.045 87.705 192.703 87.492 192.241 87.492C191.821 87.492 191.491 87.693 191.251 88.095C191.011 88.491 190.891 89.097 190.891 89.913C190.891 90.693 191.005 91.293 191.233 91.713C191.461 92.127 191.8 92.334 192.25 92.334ZM196 91.533L196.585 92.307L196 93.081L195.415 92.307L196 91.533Z" fill="black"/>
<rect width="30" height="13" transform="translate(107.5 141)" fill="white"/>
<path d="M111.426 145.198C111.659 145.198 111.874 145.233 112.07 145.303C112.266 145.368 112.434 145.464 112.574 145.59C112.719 145.716 112.831 145.865 112.91 146.038C112.989 146.211 113.029 146.402 113.029 146.612C113.029 146.831 112.999 147.037 112.938 147.228C112.877 147.415 112.772 147.578 112.623 147.718C112.478 147.858 112.285 147.968 112.042 148.047C111.799 148.126 111.496 148.166 111.132 148.166H110.796V150L110.11 150.084V145.198H111.426ZM111.349 147.536C111.503 147.536 111.641 147.522 111.762 147.494C111.883 147.461 111.986 147.41 112.07 147.34C112.159 147.265 112.226 147.17 112.273 147.053C112.32 146.932 112.343 146.785 112.343 146.612C112.343 146.351 112.252 146.155 112.07 146.024C111.893 145.893 111.652 145.828 111.349 145.828H110.796V147.536H111.349ZM118.405 147.599C118.405 147.949 118.337 148.278 118.202 148.586C118.071 148.889 117.892 149.155 117.663 149.384C117.439 149.608 117.173 149.785 116.865 149.916C116.562 150.047 116.235 150.112 115.885 150.112C115.53 150.112 115.199 150.047 114.891 149.916C114.588 149.785 114.322 149.606 114.093 149.377C113.869 149.148 113.692 148.882 113.561 148.579C113.43 148.271 113.365 147.944 113.365 147.599C113.365 147.249 113.43 146.922 113.561 146.619C113.696 146.311 113.876 146.045 114.1 145.821C114.329 145.592 114.595 145.413 114.898 145.282C115.206 145.151 115.535 145.086 115.885 145.086C116.24 145.086 116.569 145.154 116.872 145.289C117.18 145.42 117.446 145.599 117.67 145.828C117.899 146.052 118.078 146.318 118.209 146.626C118.34 146.929 118.405 147.254 118.405 147.599ZM115.885 149.482C116.128 149.482 116.359 149.433 116.578 149.335C116.802 149.232 116.998 149.097 117.166 148.929C117.334 148.756 117.467 148.556 117.565 148.327C117.668 148.098 117.719 147.856 117.719 147.599C117.719 147.347 117.67 147.107 117.572 146.878C117.474 146.649 117.341 146.451 117.173 146.283C117.01 146.11 116.816 145.973 116.592 145.87C116.368 145.767 116.13 145.716 115.878 145.716C115.64 145.716 115.409 145.765 115.185 145.863C114.966 145.961 114.772 146.096 114.604 146.269C114.436 146.437 114.301 146.635 114.198 146.864C114.1 147.093 114.051 147.338 114.051 147.599C114.051 147.856 114.1 148.098 114.198 148.327C114.296 148.556 114.429 148.756 114.597 148.929C114.765 149.097 114.959 149.232 115.178 149.335C115.402 149.433 115.638 149.482 115.885 149.482ZM119.765 149.37H121.802L121.522 150H119.079V145.198L119.765 145.086V149.37ZM121.898 145.086L123.291 147.424L124.299 145.086L124.957 145.289L122.801 150.112L122.129 149.965L122.969 148.152L121.226 145.282L121.898 145.086ZM127.547 146.248C127.36 146.043 127.195 145.903 127.05 145.828C126.905 145.753 126.763 145.716 126.623 145.716C126.399 145.716 126.217 145.781 126.077 145.912C125.937 146.043 125.867 146.222 125.867 146.451C125.867 146.558 125.89 146.652 125.937 146.731C125.988 146.806 126.056 146.873 126.14 146.934C126.229 146.995 126.334 147.051 126.455 147.102C126.576 147.149 126.709 147.2 126.854 147.256C127.027 147.321 127.185 147.391 127.33 147.466C127.479 147.541 127.608 147.632 127.715 147.739C127.822 147.846 127.906 147.975 127.967 148.124C128.032 148.269 128.065 148.444 128.065 148.649C128.065 148.868 128.025 149.067 127.946 149.244C127.867 149.421 127.759 149.575 127.624 149.706C127.489 149.837 127.33 149.937 127.148 150.007C126.971 150.077 126.779 150.112 126.574 150.112C126.439 150.112 126.31 150.098 126.189 150.07C126.068 150.047 125.946 150.005 125.825 149.944C125.708 149.883 125.587 149.804 125.461 149.706C125.34 149.603 125.214 149.48 125.083 149.335L125.587 148.915C125.685 149.069 125.813 149.202 125.972 149.314C126.131 149.426 126.308 149.482 126.504 149.482C126.625 149.482 126.737 149.468 126.84 149.44C126.947 149.407 127.041 149.358 127.12 149.293C127.199 149.228 127.262 149.141 127.309 149.034C127.356 148.927 127.379 148.796 127.379 148.642C127.379 148.553 127.346 148.472 127.281 148.397C127.216 148.318 127.134 148.248 127.036 148.187C126.943 148.126 126.845 148.073 126.742 148.026C126.639 147.975 126.551 147.93 126.476 147.893C126.322 147.818 126.168 147.739 126.014 147.655C125.86 147.566 125.72 147.466 125.594 147.354C125.473 147.242 125.372 147.114 125.293 146.969C125.218 146.82 125.181 146.642 125.181 146.437C125.181 146.236 125.216 146.054 125.286 145.891C125.356 145.723 125.454 145.581 125.58 145.464C125.711 145.343 125.867 145.249 126.049 145.184C126.231 145.119 126.434 145.086 126.658 145.086C126.896 145.086 127.136 145.144 127.379 145.261C127.622 145.378 127.832 145.553 128.009 145.786L127.547 146.248ZM129.458 150L128.772 150.056V145.198L129.458 145.086V150ZM135.133 147.599C135.133 147.949 135.065 148.278 134.93 148.586C134.799 148.889 134.619 149.155 134.391 149.384C134.167 149.608 133.901 149.785 133.593 149.916C133.289 150.047 132.963 150.112 132.613 150.112C132.258 150.112 131.927 150.047 131.619 149.916C131.315 149.785 131.049 149.606 130.821 149.377C130.597 149.148 130.419 148.882 130.289 148.579C130.158 148.271 130.093 147.944 130.093 147.599C130.093 147.249 130.158 146.922 130.289 146.619C130.424 146.311 130.604 146.045 130.828 145.821C131.056 145.592 131.322 145.413 131.626 145.282C131.934 145.151 132.263 145.086 132.613 145.086C132.967 145.086 133.296 145.154 133.6 145.289C133.908 145.42 134.174 145.599 134.398 145.828C134.626 146.052 134.806 146.318 134.937 146.626C135.067 146.929 135.133 147.254 135.133 147.599ZM132.613 149.482C132.855 149.482 133.086 149.433 133.306 149.335C133.53 149.232 133.726 149.097 133.894 148.929C134.062 148.756 134.195 148.556 134.293 148.327C134.395 148.098 134.447 147.856 134.447 147.599C134.447 147.347 134.398 147.107 134.3 146.878C134.202 146.649 134.069 146.451 133.901 146.283C133.737 146.11 133.544 145.973 133.32 145.87C133.096 145.767 132.858 145.716 132.606 145.716C132.368 145.716 132.137 145.765 131.913 145.863C131.693 145.961 131.5 146.096 131.332 146.269C131.164 146.437 131.028 146.635 130.926 146.864C130.828 147.093 130.779 147.338 130.779 147.599C130.779 147.856 130.828 148.098 130.926 148.327C131.024 148.556 131.157 148.756 131.325 148.929C131.493 149.097 131.686 149.232 131.906 149.335C132.13 149.433 132.365 149.482 132.613 149.482Z" fill="black"/>
</svg>
