<svg width="244" height="157" viewBox="0 0 244 157" fill="none" xmlns="http://www.w3.org/2000/svg">
<rect width="244" height="157" fill="white"/>
<rect x="9" y="9" width="226" height="139" stroke="black"/>
<path d="M106.19 23.036C105.966 22.876 105.73 22.74 105.482 22.628C105.234 22.508 104.97 22.448 104.69 22.448C104.346 22.448 104.026 22.508 103.73 22.628C103.442 22.74 103.194 22.904 102.986 23.12C102.778 23.328 102.614 23.58 102.494 23.876C102.374 24.172 102.314 24.5 102.314 24.86C102.314 25.228 102.37 25.564 102.482 25.868C102.602 26.164 102.766 26.42 102.974 26.636C103.182 26.852 103.43 27.02 103.718 27.14C104.014 27.26 104.338 27.32 104.69 27.32C104.97 27.32 105.238 27.26 105.494 27.14C105.758 27.012 106.006 26.868 106.238 26.708L105.986 28.892C105.906 28.94 105.802 28.98 105.674 29.012C105.546 29.052 105.41 29.084 105.266 29.108C105.13 29.132 104.994 29.152 104.858 29.168C104.73 29.184 104.626 29.192 104.546 29.192C103.922 29.192 103.346 29.088 102.818 28.88C102.298 28.672 101.846 28.38 101.462 28.004C101.086 27.628 100.794 27.18 100.586 26.66C100.378 26.132 100.274 25.548 100.274 24.908C100.274 24.3 100.378 23.732 100.586 23.204C100.794 22.676 101.086 22.216 101.462 21.824C101.838 21.432 102.286 21.128 102.806 20.912C103.334 20.688 103.91 20.576 104.534 20.576C104.774 20.576 105.006 20.596 105.23 20.636C105.454 20.676 105.67 20.744 105.878 20.84L106.19 23.036ZM109.342 23.768H111.982V20.768L114.022 20.576V28.904L111.982 29.096V25.64H109.342V28.904L107.302 29.096V20.768L109.342 20.576V23.768ZM118.642 20.576H118.666L123.106 28.772L121.03 29.192L120.19 27.428L117.058 27.428L116.23 29.192L114.25 28.772L118.642 20.576ZM117.55 25.904L119.734 25.904L118.642 23.888L117.55 25.904ZM123.274 20.576H123.298L128.686 25.184V20.768L130.726 20.576V29.192H130.702L125.314 24.488V28.904L123.274 29.096V20.576ZM137.526 23.036C137.302 22.876 137.066 22.74 136.818 22.628C136.57 22.508 136.306 22.448 136.026 22.448C135.682 22.448 135.362 22.508 135.066 22.628C134.778 22.74 134.53 22.904 134.322 23.12C134.114 23.328 133.95 23.58 133.83 23.876C133.71 24.172 133.65 24.5 133.65 24.86C133.65 25.228 133.706 25.564 133.818 25.868C133.938 26.164 134.102 26.42 134.31 26.636C134.518 26.852 134.766 27.02 135.054 27.14C135.35 27.26 135.674 27.32 136.026 27.32C136.306 27.32 136.574 27.26 136.83 27.14C137.094 27.012 137.342 26.868 137.574 26.708L137.322 28.892C137.242 28.94 137.138 28.98 137.01 29.012C136.882 29.052 136.746 29.084 136.602 29.108C136.466 29.132 136.33 29.152 136.194 29.168C136.066 29.184 135.962 29.192 135.882 29.192C135.258 29.192 134.682 29.088 134.154 28.88C133.634 28.672 133.182 28.38 132.798 28.004C132.422 27.628 132.13 27.18 131.922 26.66C131.714 26.132 131.61 25.548 131.61 24.908C131.61 24.3 131.714 23.732 131.922 23.204C132.13 22.676 132.422 22.216 132.798 21.824C133.174 21.432 133.622 21.128 134.142 20.912C134.67 20.688 135.246 20.576 135.87 20.576C136.11 20.576 136.342 20.596 136.566 20.636C136.79 20.676 137.006 20.744 137.214 20.84L137.526 23.036ZM143.294 20.768L143.654 22.508H140.678V23.936H142.802V25.676H140.678V27.26H143.906L143.402 29H138.638V20.768H143.294Z" fill="black"/>
<rect width="194" height="95" transform="translate(25 37)" fill="white"/>
<path d="M76.924 64.682L78.436 68.966H78.454L80.029 64.682L80.911 64.826L78.454 71.144H78.436L76.051 64.826L76.924 64.682ZM87.472 67.913C87.472 68.363 87.385 68.786 87.211 69.182C87.043 69.572 86.812 69.914 86.518 70.208C86.23 70.496 85.888 70.724 85.492 70.892C85.102 71.06 84.682 71.144 84.232 71.144C83.776 71.144 83.35 71.06 82.954 70.892C82.564 70.724 82.222 70.493 81.928 70.199C81.64 69.905 81.412 69.563 81.244 69.173C81.076 68.777 80.992 68.357 80.992 67.913C80.992 67.463 81.076 67.043 81.244 66.653C81.418 66.257 81.649 65.915 81.937 65.627C82.231 65.333 82.573 65.102 82.963 64.934C83.359 64.766 83.782 64.682 84.232 64.682C84.688 64.682 85.111 64.769 85.501 64.943C85.897 65.111 86.239 65.342 86.527 65.636C86.821 65.924 87.052 66.266 87.22 66.662C87.388 67.052 87.472 67.469 87.472 67.913ZM84.232 70.334C84.544 70.334 84.841 70.271 85.123 70.145C85.411 70.013 85.663 69.839 85.879 69.623C86.095 69.401 86.266 69.143 86.392 68.849C86.524 68.555 86.59 68.243 86.59 67.913C86.59 67.589 86.527 67.28 86.401 66.986C86.275 66.692 86.104 66.437 85.888 66.221C85.678 65.999 85.429 65.822 85.141 65.69C84.853 65.558 84.547 65.492 84.223 65.492C83.917 65.492 83.62 65.555 83.332 65.681C83.05 65.807 82.801 65.981 82.585 66.203C82.369 66.419 82.195 66.674 82.063 66.968C81.937 67.262 81.874 67.577 81.874 67.913C81.874 68.243 81.937 68.555 82.063 68.849C82.189 69.143 82.36 69.401 82.576 69.623C82.792 69.839 83.041 70.013 83.323 70.145C83.611 70.271 83.914 70.334 84.232 70.334ZM89.1848 69.101C89.1848 69.467 89.2868 69.764 89.4908 69.992C89.7008 70.22 90.0128 70.334 90.4268 70.334C90.8768 70.334 91.2158 70.226 91.4438 70.01C91.6718 69.788 91.7858 69.488 91.7858 69.11V64.826L92.6678 64.682V68.309C92.6678 68.531 92.6618 68.756 92.6498 68.984C92.6438 69.212 92.6198 69.431 92.5778 69.641C92.5418 69.851 92.4788 70.049 92.3888 70.235C92.3048 70.415 92.1848 70.574 92.0288 70.712C91.8728 70.844 91.6748 70.949 91.4348 71.027C91.2008 71.105 90.9128 71.144 90.5708 71.144C90.1448 71.144 89.7848 71.102 89.4908 71.018C89.2028 70.934 88.9688 70.796 88.7888 70.604C88.6148 70.406 88.4888 70.151 88.4108 69.839C88.3388 69.521 88.3028 69.131 88.3028 68.669V64.826L89.1848 64.682V69.101ZM96.7208 66.176C96.4808 65.912 96.2678 65.732 96.0818 65.636C95.8958 65.54 95.7128 65.492 95.5328 65.492C95.2448 65.492 95.0108 65.576 94.8308 65.744C94.6508 65.912 94.5608 66.143 94.5608 66.437C94.5608 66.575 94.5908 66.695 94.6508 66.797C94.7168 66.893 94.8038 66.98 94.9118 67.058C95.0258 67.136 95.1608 67.208 95.3168 67.274C95.4728 67.334 95.6438 67.4 95.8298 67.472C96.0518 67.556 96.2558 67.646 96.4418 67.742C96.6338 67.838 96.7988 67.955 96.9368 68.093C97.0748 68.231 97.1828 68.396 97.2608 68.588C97.3448 68.774 97.3868 68.999 97.3868 69.263C97.3868 69.545 97.3358 69.8 97.2338 70.028C97.1318 70.256 96.9938 70.454 96.8198 70.622C96.6458 70.79 96.4418 70.919 96.2078 71.009C95.9798 71.099 95.7338 71.144 95.4698 71.144C95.2958 71.144 95.1308 71.126 94.9748 71.09C94.8188 71.06 94.6628 71.006 94.5068 70.928C94.3568 70.85 94.2008 70.748 94.0388 70.622C93.8828 70.49 93.7208 70.331 93.5528 70.145L94.2008 69.605C94.3268 69.803 94.4918 69.974 94.6958 70.118C94.8998 70.262 95.1278 70.334 95.3798 70.334C95.5358 70.334 95.6798 70.316 95.8118 70.28C95.9498 70.238 96.0698 70.175 96.1718 70.091C96.2738 70.007 96.3548 69.896 96.4148 69.758C96.4748 69.62 96.5048 69.452 96.5048 69.254C96.5048 69.14 96.4628 69.035 96.3788 68.939C96.2948 68.837 96.1898 68.747 96.0638 68.669C95.9438 68.591 95.8178 68.522 95.6858 68.462C95.5538 68.396 95.4398 68.339 95.3438 68.291C95.1458 68.195 94.9478 68.093 94.7498 67.985C94.5518 67.871 94.3718 67.742 94.2098 67.598C94.0538 67.454 93.9248 67.289 93.8228 67.103C93.7268 66.911 93.6788 66.683 93.6788 66.419C93.6788 66.161 93.7238 65.927 93.8138 65.717C93.9038 65.501 94.0298 65.318 94.1918 65.168C94.3598 65.012 94.5608 64.892 94.7948 64.808C95.0288 64.724 95.2898 64.682 95.5778 64.682C95.8838 64.682 96.1928 64.757 96.5048 64.907C96.8168 65.057 97.0868 65.282 97.3148 65.582L96.7208 66.176ZM104.122 64.826V65.636H102.682V71L101.8 71.108V65.636H100.198L100.477 64.826H104.122ZM110.983 67.913C110.983 68.363 110.896 68.786 110.722 69.182C110.554 69.572 110.323 69.914 110.029 70.208C109.741 70.496 109.399 70.724 109.003 70.892C108.613 71.06 108.193 71.144 107.743 71.144C107.287 71.144 106.861 71.06 106.465 70.892C106.075 70.724 105.733 70.493 105.439 70.199C105.151 69.905 104.923 69.563 104.755 69.173C104.587 68.777 104.503 68.357 104.503 67.913C104.503 67.463 104.587 67.043 104.755 66.653C104.929 66.257 105.16 65.915 105.448 65.627C105.742 65.333 106.084 65.102 106.474 64.934C106.87 64.766 107.293 64.682 107.743 64.682C108.199 64.682 108.622 64.769 109.012 64.943C109.408 65.111 109.75 65.342 110.038 65.636C110.332 65.924 110.563 66.266 110.731 66.662C110.899 67.052 110.983 67.469 110.983 67.913ZM107.743 70.334C108.055 70.334 108.352 70.271 108.634 70.145C108.922 70.013 109.174 69.839 109.39 69.623C109.606 69.401 109.777 69.143 109.903 68.849C110.035 68.555 110.101 68.243 110.101 67.913C110.101 67.589 110.038 67.28 109.912 66.986C109.786 66.692 109.615 66.437 109.399 66.221C109.189 65.999 108.94 65.822 108.652 65.69C108.364 65.558 108.058 65.492 107.734 65.492C107.428 65.492 107.131 65.555 106.843 65.681C106.561 65.807 106.312 65.981 106.096 66.203C105.88 66.419 105.706 66.674 105.574 66.968C105.448 67.262 105.385 67.577 105.385 67.913C105.385 68.243 105.448 68.555 105.574 68.849C105.7 69.143 105.871 69.401 106.087 69.623C106.303 69.839 106.552 70.013 106.834 70.145C107.122 70.271 107.425 70.334 107.743 70.334ZM112.606 64.682H112.624L114.757 69.389L116.863 64.682H116.881L118.141 71L117.286 71.108L116.539 67.202H116.521L114.766 71.072H114.748L112.948 67.202H112.93L112.201 71.108L111.355 71L112.606 64.682ZM120.609 64.826C120.831 64.826 121.041 64.868 121.239 64.952C121.443 65.036 121.62 65.15 121.77 65.294C121.926 65.438 122.049 65.609 122.139 65.807C122.229 66.005 122.274 66.221 122.274 66.455C122.274 66.749 122.199 67.004 122.049 67.22C121.899 67.436 121.704 67.622 121.464 67.778C121.626 67.826 121.77 67.901 121.896 68.003C122.022 68.105 122.13 68.225 122.22 68.363C122.31 68.495 122.376 68.642 122.418 68.804C122.466 68.96 122.49 69.122 122.49 69.29C122.49 69.854 122.313 70.28 121.959 70.568C121.605 70.856 121.128 71 120.528 71H118.728V64.826H120.609ZM120.438 67.472C120.69 67.472 120.912 67.385 121.104 67.211C121.296 67.031 121.392 66.779 121.392 66.455C121.392 66.167 121.305 65.954 121.131 65.816C120.963 65.672 120.735 65.6 120.447 65.6H119.61V67.472H120.438ZM120.456 70.226C120.792 70.226 121.068 70.157 121.284 70.019C121.5 69.875 121.608 69.632 121.608 69.29C121.608 68.9 121.497 68.624 121.275 68.462C121.059 68.294 120.78 68.21 120.438 68.21H119.61V70.226H120.456ZM126.648 64.826L126.837 65.636H124.236V67.382H126.315V68.192H124.236V70.19H127.035L126.783 71H123.354V64.826H126.648ZM131.976 64.826L128.736 70.19H132.138L131.922 71H127.377L130.653 65.636H127.512L127.692 64.826H131.976ZM136.116 64.682H136.134L138.267 69.389L140.373 64.682H140.391L141.651 71L140.796 71.108L140.049 67.202H140.031L138.276 71.072H138.258L136.458 67.202H136.44L135.711 71.108L134.865 71L136.116 64.682ZM144.768 64.682L147.909 70.964L147.027 71.144L145.974 69.02H143.49L142.446 71.144L141.618 70.964L144.75 64.682H144.768ZM143.859 68.21H145.614L144.732 66.437L143.859 68.21ZM149.25 70.19H151.869L151.509 71H148.368V64.826L149.25 64.682V70.19ZM154.77 64.682L157.911 70.964L157.029 71.144L155.976 69.02H153.492L152.448 71.144L151.62 70.964L154.752 64.682H154.77ZM153.861 68.21H155.616L154.734 66.437L153.861 68.21ZM159.918 64.826C160.362 64.826 160.773 64.91 161.151 65.078C161.529 65.246 161.853 65.471 162.123 65.753C162.399 66.035 162.615 66.362 162.771 66.734C162.927 67.106 163.005 67.499 163.005 67.913C163.005 68.327 162.927 68.72 162.771 69.092C162.615 69.464 162.399 69.794 162.123 70.082C161.847 70.364 161.52 70.589 161.142 70.757C160.77 70.919 160.365 71 159.927 71H158.352V64.826H159.918ZM159.891 70.19C160.167 70.19 160.437 70.136 160.701 70.028C160.971 69.92 161.211 69.767 161.421 69.569C161.631 69.365 161.799 69.125 161.925 68.849C162.057 68.567 162.123 68.255 162.123 67.913C162.123 67.577 162.057 67.271 161.925 66.995C161.799 66.713 161.631 66.473 161.421 66.275C161.211 66.071 160.971 65.915 160.701 65.807C160.437 65.693 160.164 65.636 159.882 65.636H159.234V70.19H159.891ZM167.166 64.826L167.355 65.636H164.754V67.382H166.833V68.192H164.754V70.19H167.553L167.301 71H163.872V64.826H167.166ZM64.044 75.826L64.233 76.636H61.632V78.382H63.711V79.192H61.632V81.19H64.431L64.179 82H60.75V75.826H64.044ZM68.526 75.826V76.636H67.086V82L66.204 82.108V76.636H64.602L64.881 75.826H68.526ZM75.0479 75.826L75.2369 76.636H72.6359V78.382H74.7149V79.192H72.6359V81.19H75.4349L75.1829 82H71.7539V75.826H75.0479ZM74.7419 74.17L73.4459 75.466H72.7079L73.5179 74.17H74.7419ZM76.3439 75.682L77.8559 79.966H77.8739L79.4489 75.682L80.3309 75.826L77.8739 82.144H77.8559L75.4709 75.826L76.3439 75.682ZM81.5909 82L80.7089 82.072V75.826L81.5909 75.682V82ZM86.025 75.826V76.636H84.585V82L83.703 82.108V76.636H82.101L82.38 75.826H86.025ZM90.042 75.826L90.231 76.636H87.63V78.382H89.709V79.192H87.63V81.19H90.429L90.177 82H86.748V75.826H90.042ZM95.37 75.826L92.13 81.19H95.532L95.316 82H90.771L94.047 76.636H90.906L91.086 75.826H95.37ZM99.5999 80.101C99.5999 80.467 99.7019 80.764 99.9059 80.992C100.116 81.22 100.428 81.334 100.842 81.334C101.292 81.334 101.631 81.226 101.859 81.01C102.087 80.788 102.201 80.488 102.201 80.11V75.826L103.083 75.682V79.309C103.083 79.531 103.077 79.756 103.065 79.984C103.059 80.212 103.035 80.431 102.993 80.641C102.957 80.851 102.894 81.049 102.804 81.235C102.72 81.415 102.6 81.574 102.444 81.712C102.288 81.844 102.09 81.949 101.85 82.027C101.616 82.105 101.328 82.144 100.986 82.144C100.56 82.144 100.2 82.102 99.9059 82.018C99.6179 81.934 99.3839 81.796 99.2039 81.604C99.0299 81.406 98.9039 81.151 98.8259 80.839C98.7539 80.521 98.7179 80.131 98.7179 79.669V75.826L99.5999 75.682V80.101ZM104.229 75.682L104.256 75.691L108.207 80.002V75.97L109.089 75.826V82.144L109.062 82.135L105.111 77.824V82L104.229 82.108V75.682ZM114.312 75.826C114.756 75.826 115.167 75.91 115.545 76.078C115.923 76.246 116.247 76.471 116.517 76.753C116.793 77.035 117.009 77.362 117.165 77.734C117.321 78.106 117.399 78.499 117.399 78.913C117.399 79.327 117.321 79.72 117.165 80.092C117.009 80.464 116.793 80.794 116.517 81.082C116.241 81.364 115.914 81.589 115.536 81.757C115.164 81.919 114.759 82 114.321 82H112.746V75.826H114.312ZM114.285 81.19C114.561 81.19 114.831 81.136 115.095 81.028C115.365 80.92 115.605 80.767 115.815 80.569C116.025 80.365 116.193 80.125 116.319 79.849C116.451 79.567 116.517 79.255 116.517 78.913C116.517 78.577 116.451 78.271 116.319 77.995C116.193 77.713 116.025 77.473 115.815 77.275C115.605 77.071 115.365 76.915 115.095 76.807C114.831 76.693 114.558 76.636 114.276 76.636H113.628V81.19H114.285ZM121.56 75.826L121.749 76.636H119.148V78.382H121.227V79.192H119.148V81.19H121.947L121.695 82H118.266V75.826H121.56ZM121.254 74.17L119.958 75.466H119.22L120.03 74.17H121.254ZM124.431 75.826C124.731 75.826 125.007 75.871 125.259 75.961C125.511 76.045 125.727 76.168 125.907 76.33C126.093 76.492 126.237 76.684 126.339 76.906C126.441 77.128 126.492 77.374 126.492 77.644C126.492 77.926 126.453 78.19 126.375 78.436C126.297 78.676 126.162 78.886 125.97 79.066C125.784 79.246 125.535 79.387 125.223 79.489C124.911 79.591 124.521 79.642 124.053 79.642H123.621V82L122.739 82.108V75.826H124.431ZM124.332 78.832C124.53 78.832 124.707 78.814 124.863 78.778C125.019 78.736 125.151 78.67 125.259 78.58C125.373 78.484 125.46 78.361 125.52 78.211C125.58 78.055 125.61 77.866 125.61 77.644C125.61 77.308 125.493 77.056 125.259 76.888C125.031 76.72 124.722 76.636 124.332 76.636H123.621V78.832H124.332ZM129.335 75.682L132.476 81.964L131.594 82.144L130.541 80.02H128.057L127.013 82.144L126.185 81.964L129.317 75.682H129.335ZM128.426 79.21H130.181L129.299 77.437L128.426 79.21ZM134.357 75.826C134.633 75.826 134.894 75.865 135.14 75.943C135.386 76.015 135.602 76.129 135.788 76.285C135.974 76.441 136.121 76.636 136.229 76.87C136.337 77.104 136.391 77.38 136.391 77.698C136.391 78.166 136.268 78.529 136.022 78.787C135.776 79.039 135.443 79.213 135.023 79.309L136.886 81.892L135.896 82.144L133.745 79.003H133.727V82L132.845 82.108V75.826H134.357ZM134.375 78.805C134.519 78.805 134.66 78.778 134.798 78.724C134.936 78.67 135.056 78.595 135.158 78.499C135.266 78.403 135.35 78.289 135.41 78.157C135.476 78.019 135.509 77.866 135.509 77.698C135.509 77.512 135.479 77.353 135.419 77.221C135.359 77.083 135.278 76.972 135.176 76.888C135.074 76.804 134.954 76.741 134.816 76.699C134.684 76.657 134.54 76.636 134.384 76.636H133.727V78.805H134.375ZM140.711 75.826V76.636H139.271V82L138.389 82.108V76.636H136.787L137.066 75.826H140.711ZM147.232 75.826L147.421 76.636H144.82V78.382H146.899V79.192H144.82V81.19H147.619L147.367 82H143.938V75.826H147.232ZM148.411 75.682L148.438 75.691L152.389 80.002V75.97L153.271 75.826V82.144L153.244 82.135L149.293 77.824V82L148.411 82.108V75.682ZM159.826 77.176C159.586 76.912 159.373 76.732 159.187 76.636C159.001 76.54 158.818 76.492 158.638 76.492C158.35 76.492 158.116 76.576 157.936 76.744C157.756 76.912 157.666 77.143 157.666 77.437C157.666 77.575 157.696 77.695 157.756 77.797C157.822 77.893 157.909 77.98 158.017 78.058C158.131 78.136 158.266 78.208 158.422 78.274C158.578 78.334 158.749 78.4 158.935 78.472C159.157 78.556 159.361 78.646 159.547 78.742C159.739 78.838 159.904 78.955 160.042 79.093C160.18 79.231 160.288 79.396 160.366 79.588C160.45 79.774 160.492 79.999 160.492 80.263C160.492 80.545 160.441 80.8 160.339 81.028C160.237 81.256 160.099 81.454 159.925 81.622C159.751 81.79 159.547 81.919 159.313 82.009C159.085 82.099 158.839 82.144 158.575 82.144C158.401 82.144 158.236 82.126 158.08 82.09C157.924 82.06 157.768 82.006 157.612 81.928C157.462 81.85 157.306 81.748 157.144 81.622C156.988 81.49 156.826 81.331 156.658 81.145L157.306 80.605C157.432 80.803 157.597 80.974 157.801 81.118C158.005 81.262 158.233 81.334 158.485 81.334C158.641 81.334 158.785 81.316 158.917 81.28C159.055 81.238 159.175 81.175 159.277 81.091C159.379 81.007 159.46 80.896 159.52 80.758C159.58 80.62 159.61 80.452 159.61 80.254C159.61 80.14 159.568 80.035 159.484 79.939C159.4 79.837 159.295 79.747 159.169 79.669C159.049 79.591 158.923 79.522 158.791 79.462C158.659 79.396 158.545 79.339 158.449 79.291C158.251 79.195 158.053 79.093 157.855 78.985C157.657 78.871 157.477 78.742 157.315 78.598C157.159 78.454 157.03 78.289 156.928 78.103C156.832 77.911 156.784 77.683 156.784 77.419C156.784 77.161 156.829 76.927 156.919 76.717C157.009 76.501 157.135 76.318 157.297 76.168C157.465 76.012 157.666 75.892 157.9 75.808C158.134 75.724 158.395 75.682 158.683 75.682C158.989 75.682 159.298 75.757 159.61 75.907C159.922 76.057 160.192 76.282 160.42 76.582L159.826 77.176ZM164.722 75.826V76.636H163.282V82L162.4 82.108V76.636H160.798L161.077 75.826H164.722ZM167.356 75.682L170.497 81.964L169.615 82.144L168.562 80.02H166.078L165.034 82.144L164.206 81.964L167.338 75.682H167.356ZM166.447 79.21H168.202L167.32 77.437L166.447 79.21ZM175.546 77.131C175.426 77.047 175.306 76.966 175.186 76.888C175.066 76.81 174.937 76.744 174.799 76.69C174.667 76.63 174.523 76.582 174.367 76.546C174.211 76.51 174.04 76.492 173.854 76.492C173.536 76.492 173.233 76.558 172.945 76.69C172.663 76.816 172.414 76.993 172.198 77.221C171.982 77.443 171.811 77.704 171.685 78.004C171.559 78.304 171.496 78.628 171.496 78.976C171.496 79.258 171.553 79.54 171.667 79.822C171.781 80.104 171.937 80.359 172.135 80.587C172.333 80.809 172.564 80.989 172.828 81.127C173.098 81.265 173.386 81.334 173.692 81.334C173.968 81.334 174.247 81.295 174.529 81.217C174.817 81.133 175.063 80.989 175.267 80.785V79.318H173.422L173.728 78.508H176.149V81.244C176.035 81.382 175.888 81.508 175.708 81.622C175.528 81.73 175.33 81.823 175.114 81.901C174.898 81.979 174.67 82.039 174.43 82.081C174.19 82.123 173.953 82.144 173.719 82.144C173.311 82.144 172.921 82.06 172.549 81.892C172.177 81.718 171.847 81.487 171.559 81.199C171.271 80.911 171.04 80.578 170.866 80.2C170.698 79.816 170.614 79.414 170.614 78.994C170.614 78.544 170.695 78.118 170.857 77.716C171.019 77.314 171.241 76.963 171.523 76.663C171.811 76.357 172.15 76.117 172.54 75.943C172.93 75.769 173.356 75.682 173.818 75.682C174.25 75.682 174.664 75.754 175.06 75.898C175.456 76.036 175.792 76.246 176.068 76.528L175.546 77.131ZM180.745 75.826L180.934 76.636H178.333V78.382H180.412V79.192H178.333V81.19H181.132L180.88 82H177.451V75.826H180.745ZM182.599 80.533L183.184 81.307L182.599 82.081L182.014 81.307L182.599 80.533Z" fill="black"/>
<path d="M25.4285 98.789C25.2665 98.675 25.1015 98.597 24.9335 98.555C24.7655 98.513 24.5855 98.492 24.3935 98.492C24.0755 98.492 23.7785 98.561 23.5025 98.699C23.2325 98.831 22.9955 99.008 22.7915 99.23C22.5875 99.446 22.4285 99.698 22.3145 99.986C22.2005 100.274 22.1435 100.571 22.1435 100.877C22.1435 101.201 22.2005 101.513 22.3145 101.813C22.4285 102.107 22.5845 102.368 22.7825 102.596C22.9805 102.818 23.2115 102.998 23.4755 103.136C23.7455 103.268 24.0365 103.334 24.3485 103.334C24.5585 103.334 24.7685 103.301 24.9785 103.235C25.1945 103.163 25.3895 103.07 25.5635 102.956L25.4015 103.919C25.2155 103.985 25.0355 104.039 24.8615 104.081C24.6935 104.123 24.5165 104.144 24.3305 104.144C23.9165 104.144 23.5235 104.06 23.1515 103.892C22.7795 103.724 22.4525 103.496 22.1705 103.208C21.8945 102.914 21.6725 102.572 21.5045 102.182C21.3425 101.786 21.2615 101.363 21.2615 100.913C21.2615 100.505 21.3455 100.109 21.5135 99.725C21.6815 99.335 21.9005 98.99 22.1705 98.69C22.4465 98.384 22.7585 98.141 23.1065 97.961C23.4545 97.775 23.8115 97.682 24.1775 97.682C24.3575 97.682 24.5345 97.697 24.7085 97.727C24.8885 97.751 25.0655 97.787 25.2395 97.835L25.4285 98.789ZM27.4235 102.596C27.5675 102.824 27.7445 103.004 27.9545 103.136C28.1645 103.268 28.4045 103.334 28.6745 103.334C28.7765 103.334 28.8845 103.322 28.9985 103.298C29.1125 103.274 29.2355 103.235 29.3675 103.181C29.5055 103.121 29.6555 103.04 29.8175 102.938C29.9855 102.836 30.1685 102.704 30.3665 102.542L30.5375 103.451C30.2495 103.649 29.9645 103.814 29.6825 103.946C29.4065 104.078 29.0885 104.144 28.7285 104.144C28.3745 104.144 28.0475 104.081 27.7475 103.955C27.4535 103.829 27.1985 103.655 26.9825 103.433C26.7725 103.205 26.6075 102.935 26.4875 102.623C26.3675 102.311 26.3075 101.969 26.3075 101.597C26.3075 101.297 26.3675 101.009 26.4875 100.733C26.6075 100.457 26.7695 100.214 26.9735 100.004C27.1835 99.788 27.4265 99.617 27.7025 99.491C27.9785 99.365 28.2725 99.302 28.5845 99.302C29.0765 99.302 29.4785 99.41 29.7905 99.626C30.1025 99.842 30.3815 100.151 30.6275 100.553L27.4235 102.596ZM29.4395 100.409C29.3375 100.295 29.2175 100.217 29.0795 100.175C28.9475 100.133 28.8005 100.112 28.6385 100.112C28.4285 100.112 28.2335 100.151 28.0535 100.229C27.8735 100.301 27.7175 100.403 27.5855 100.535C27.4535 100.661 27.3485 100.817 27.2705 101.003C27.1985 101.183 27.1625 101.381 27.1625 101.597C27.1625 101.627 27.1625 101.666 27.1625 101.714C27.1625 101.762 27.1655 101.807 27.1715 101.849L29.4395 100.409ZM32.6314 99.446H33.8464V100.211H32.6314V102.659C32.6314 102.785 32.6434 102.893 32.6674 102.983C32.6914 103.073 32.7334 103.148 32.7934 103.208C32.8534 103.268 32.9344 103.313 33.0364 103.343C33.1444 103.367 33.2794 103.379 33.4414 103.379C33.5434 103.379 33.6394 103.373 33.7294 103.361C33.8194 103.349 33.9154 103.337 34.0174 103.325L33.8644 104.108C33.8344 104.108 33.7654 104.114 33.6574 104.126C33.5554 104.138 33.4024 104.144 33.1984 104.144C32.9644 104.144 32.7574 104.105 32.5774 104.027C32.4034 103.949 32.2564 103.847 32.1364 103.721C32.0164 103.595 31.9234 103.451 31.8574 103.289C31.7974 103.121 31.7674 102.95 31.7674 102.776V100.211H31.0564L31.3624 99.446H31.7674V98.33L32.6314 98.123V99.446ZM35.6285 99.446H36.8435V100.211H35.6285V102.659C35.6285 102.785 35.6405 102.893 35.6645 102.983C35.6885 103.073 35.7305 103.148 35.7905 103.208C35.8505 103.268 35.9315 103.313 36.0335 103.343C36.1415 103.367 36.2765 103.379 36.4385 103.379C36.5405 103.379 36.6365 103.373 36.7265 103.361C36.8165 103.349 36.9125 103.337 37.0145 103.325L36.8615 104.108C36.8315 104.108 36.7625 104.114 36.6545 104.126C36.5525 104.138 36.3995 104.144 36.1955 104.144C35.9615 104.144 35.7545 104.105 35.5745 104.027C35.4005 103.949 35.2535 103.847 35.1335 103.721C35.0135 103.595 34.9205 103.451 34.8545 103.289C34.7945 103.121 34.7645 102.95 34.7645 102.776V100.211H34.0535L34.3595 99.446H34.7645V98.33L35.6285 98.123V99.446ZM38.4186 102.596C38.5626 102.824 38.7396 103.004 38.9496 103.136C39.1596 103.268 39.3996 103.334 39.6696 103.334C39.7716 103.334 39.8796 103.322 39.9936 103.298C40.1076 103.274 40.2306 103.235 40.3626 103.181C40.5006 103.121 40.6506 103.04 40.8126 102.938C40.9806 102.836 41.1636 102.704 41.3616 102.542L41.5326 103.451C41.2446 103.649 40.9596 103.814 40.6776 103.946C40.4016 104.078 40.0836 104.144 39.7236 104.144C39.3696 104.144 39.0426 104.081 38.7426 103.955C38.4486 103.829 38.1936 103.655 37.9776 103.433C37.7676 103.205 37.6026 102.935 37.4826 102.623C37.3626 102.311 37.3026 101.969 37.3026 101.597C37.3026 101.297 37.3626 101.009 37.4826 100.733C37.6026 100.457 37.7646 100.214 37.9686 100.004C38.1786 99.788 38.4216 99.617 38.6976 99.491C38.9736 99.365 39.2676 99.302 39.5796 99.302C40.0716 99.302 40.4736 99.41 40.7856 99.626C41.0976 99.842 41.3766 100.151 41.6226 100.553L38.4186 102.596ZM40.4346 100.409C40.3326 100.295 40.2126 100.217 40.0746 100.175C39.9426 100.133 39.7956 100.112 39.6336 100.112C39.4236 100.112 39.2286 100.151 39.0486 100.229C38.8686 100.301 38.7126 100.403 38.5806 100.535C38.4486 100.661 38.3436 100.817 38.2656 101.003C38.1936 101.183 38.1576 101.381 38.1576 101.597C38.1576 101.627 38.1576 101.666 38.1576 101.714C38.1576 101.762 38.1606 101.807 38.1666 101.849L40.4346 100.409ZM48.2554 100.535C48.0334 100.367 47.8384 100.256 47.6704 100.202C47.5024 100.142 47.3134 100.112 47.1034 100.112C46.8874 100.112 46.6894 100.157 46.5094 100.247C46.3294 100.337 46.1734 100.457 46.0414 100.607C45.9154 100.757 45.8164 100.931 45.7444 101.129C45.6724 101.321 45.6364 101.522 45.6364 101.732C45.6364 101.93 45.6754 102.125 45.7534 102.317C45.8374 102.509 45.9454 102.68 46.0774 102.83C46.2154 102.98 46.3744 103.103 46.5544 103.199C46.7344 103.289 46.9234 103.334 47.1214 103.334C47.3674 103.334 47.5774 103.283 47.7514 103.181C47.9254 103.079 48.0904 102.95 48.2464 102.794L48.8044 103.361C48.5764 103.601 48.3184 103.793 48.0304 103.937C47.7484 104.075 47.4364 104.144 47.0944 104.144C46.7884 104.144 46.4944 104.084 46.2124 103.964C45.9364 103.838 45.6904 103.667 45.4744 103.451C45.2644 103.235 45.0934 102.983 44.9614 102.695C44.8354 102.401 44.7724 102.089 44.7724 101.759C44.7724 101.417 44.8294 101.096 44.9434 100.796C45.0634 100.496 45.2254 100.238 45.4294 100.022C45.6394 99.8 45.8854 99.626 46.1674 99.5C46.4494 99.368 46.7584 99.302 47.0944 99.302C47.3044 99.302 47.4964 99.326 47.6704 99.374C47.8504 99.416 48.0094 99.47 48.1474 99.536C48.2914 99.602 48.4144 99.671 48.5164 99.743C48.6244 99.815 48.7114 99.881 48.7774 99.941L48.2554 100.535ZM53.0434 104L52.2694 104.144V103.514H52.2514C52.1854 103.64 52.1014 103.745 51.9994 103.829C51.9034 103.913 51.7954 103.976 51.6754 104.018C51.5614 104.066 51.4354 104.099 51.2974 104.117C51.1654 104.135 51.0334 104.144 50.9014 104.144C50.6494 104.144 50.4184 104.099 50.2084 104.009C50.0044 103.925 49.8274 103.805 49.6774 103.649C49.5274 103.487 49.4104 103.298 49.3264 103.082C49.2484 102.866 49.2094 102.629 49.2094 102.371C49.2094 102.137 49.2574 101.921 49.3534 101.723C49.4494 101.525 49.5784 101.354 49.7404 101.21C49.9084 101.066 50.1004 100.955 50.3164 100.877C50.5384 100.799 50.7754 100.76 51.0274 100.76C51.2374 100.76 51.4414 100.793 51.6394 100.859C51.8434 100.925 52.0234 101.039 52.1794 101.201V100.886C52.1794 100.718 52.1584 100.583 52.1164 100.481C52.0744 100.379 52.0084 100.301 51.9184 100.247C51.8344 100.193 51.7234 100.157 51.5854 100.139C51.4474 100.121 51.2824 100.112 51.0904 100.112C50.9044 100.112 50.6974 100.127 50.4694 100.157C50.2414 100.181 50.0074 100.253 49.7674 100.373L50.0014 99.482C50.2174 99.434 50.4334 99.392 50.6494 99.356C50.8654 99.32 51.0664 99.302 51.2524 99.302C51.8944 99.302 52.3534 99.443 52.6294 99.725C52.9054 100.007 53.0434 100.427 53.0434 100.985V104ZM51.0634 103.334C51.4414 103.334 51.7204 103.25 51.9004 103.082C52.0864 102.914 52.1794 102.677 52.1794 102.371C52.1794 102.119 52.0834 101.915 51.8914 101.759C51.6994 101.603 51.4414 101.525 51.1174 101.525C50.8114 101.525 50.5594 101.603 50.3614 101.759C50.1694 101.909 50.0734 102.113 50.0734 102.371C50.0734 102.695 50.1604 102.938 50.3344 103.1C50.5144 103.256 50.7574 103.334 51.0634 103.334ZM56.2924 100.148H56.2024C55.9984 100.148 55.8124 100.19 55.6444 100.274C55.4764 100.352 55.3324 100.466 55.2124 100.616C55.0984 100.76 55.0084 100.934 54.9424 101.138C54.8824 101.342 54.8524 101.567 54.8524 101.813V104L53.9884 104.144V99.446L54.7984 99.302V100.283H54.8164C54.9724 99.959 55.1614 99.713 55.3834 99.545C55.6054 99.371 55.8964 99.284 56.2564 99.284H56.6524L56.2924 100.148ZM58.1285 99.446H59.3435V100.211H58.1285V102.659C58.1285 102.785 58.1405 102.893 58.1645 102.983C58.1885 103.073 58.2305 103.148 58.2905 103.208C58.3505 103.268 58.4315 103.313 58.5335 103.343C58.6415 103.367 58.7765 103.379 58.9385 103.379C59.0405 103.379 59.1365 103.373 59.2265 103.361C59.3165 103.349 59.4125 103.337 59.5145 103.325L59.3615 104.108C59.3315 104.108 59.2625 104.114 59.1545 104.126C59.0525 104.138 58.8995 104.144 58.6955 104.144C58.4615 104.144 58.2545 104.105 58.0745 104.027C57.9005 103.949 57.7535 103.847 57.6335 103.721C57.5135 103.595 57.4205 103.451 57.3545 103.289C57.2945 103.121 57.2645 102.95 57.2645 102.776V100.211H56.5535L56.8595 99.446H57.2645V98.33L58.1285 98.123V99.446ZM60.9186 102.596C61.0626 102.824 61.2396 103.004 61.4496 103.136C61.6596 103.268 61.8996 103.334 62.1696 103.334C62.2716 103.334 62.3796 103.322 62.4936 103.298C62.6076 103.274 62.7306 103.235 62.8626 103.181C63.0006 103.121 63.1506 103.04 63.3126 102.938C63.4806 102.836 63.6636 102.704 63.8616 102.542L64.0326 103.451C63.7446 103.649 63.4596 103.814 63.1776 103.946C62.9016 104.078 62.5836 104.144 62.2236 104.144C61.8696 104.144 61.5426 104.081 61.2426 103.955C60.9486 103.829 60.6936 103.655 60.4776 103.433C60.2676 103.205 60.1026 102.935 59.9826 102.623C59.8626 102.311 59.8026 101.969 59.8026 101.597C59.8026 101.297 59.8626 101.009 59.9826 100.733C60.1026 100.457 60.2646 100.214 60.4686 100.004C60.6786 99.788 60.9216 99.617 61.1976 99.491C61.4736 99.365 61.7676 99.302 62.0796 99.302C62.5716 99.302 62.9736 99.41 63.2856 99.626C63.5976 99.842 63.8766 100.151 64.1226 100.553L60.9186 102.596ZM62.9346 100.409C62.8326 100.295 62.7126 100.217 62.5746 100.175C62.4426 100.133 62.2956 100.112 62.1336 100.112C61.9236 100.112 61.7286 100.151 61.5486 100.229C61.3686 100.301 61.2126 100.403 61.0806 100.535C60.9486 100.661 60.8436 100.817 60.7656 101.003C60.6936 101.183 60.6576 101.381 60.6576 101.597C60.6576 101.627 60.6576 101.666 60.6576 101.714C60.6576 101.762 60.6606 101.807 60.6666 101.849L62.9346 100.409ZM68.2444 100.067C68.4604 99.815 68.7034 99.626 68.9734 99.5C69.2494 99.368 69.5584 99.302 69.9004 99.302C70.2124 99.302 70.5094 99.365 70.7914 99.491C71.0734 99.617 71.3194 99.791 71.5294 100.013C71.7454 100.229 71.9164 100.487 72.0424 100.787C72.1684 101.081 72.2314 101.399 72.2314 101.741C72.2314 102.089 72.1714 102.41 72.0514 102.704C71.9314 102.998 71.7664 103.253 71.5564 103.469C71.3464 103.679 71.1004 103.844 70.8184 103.964C70.5364 104.084 70.2304 104.144 69.9004 104.144C69.5584 104.144 69.2464 104.081 68.9644 103.955C68.6824 103.829 68.4604 103.673 68.2984 103.487V105.548L67.4344 105.656V99.446L68.2444 99.302V100.067ZM69.7294 103.334C69.9694 103.334 70.1884 103.295 70.3864 103.217C70.5904 103.139 70.7644 103.031 70.9084 102.893C71.0524 102.749 71.1634 102.578 71.2414 102.38C71.3254 102.182 71.3674 101.966 71.3674 101.732C71.3674 101.504 71.3284 101.291 71.2504 101.093C71.1724 100.895 71.0614 100.724 70.9174 100.58C70.7794 100.436 70.6144 100.322 70.4224 100.238C70.2304 100.154 70.0204 100.112 69.7924 100.112C69.5644 100.112 69.3514 100.154 69.1534 100.238C68.9614 100.322 68.7934 100.439 68.6494 100.589C68.5054 100.733 68.3914 100.904 68.3074 101.102C68.2294 101.3 68.1904 101.51 68.1904 101.732C68.1904 101.942 68.2294 102.143 68.3074 102.335C68.3914 102.527 68.5024 102.698 68.6404 102.848C68.7784 102.992 68.9404 103.109 69.1264 103.199C69.3184 103.289 69.5194 103.334 69.7294 103.334ZM73.9264 102.596C74.0704 102.824 74.2474 103.004 74.4574 103.136C74.6674 103.268 74.9074 103.334 75.1774 103.334C75.2794 103.334 75.3874 103.322 75.5014 103.298C75.6154 103.274 75.7384 103.235 75.8704 103.181C76.0084 103.121 76.1584 103.04 76.3204 102.938C76.4884 102.836 76.6714 102.704 76.8694 102.542L77.0404 103.451C76.7524 103.649 76.4674 103.814 76.1854 103.946C75.9094 104.078 75.5914 104.144 75.2314 104.144C74.8774 104.144 74.5504 104.081 74.2504 103.955C73.9564 103.829 73.7014 103.655 73.4854 103.433C73.2754 103.205 73.1104 102.935 72.9904 102.623C72.8704 102.311 72.8104 101.969 72.8104 101.597C72.8104 101.297 72.8704 101.009 72.9904 100.733C73.1104 100.457 73.2724 100.214 73.4764 100.004C73.6864 99.788 73.9294 99.617 74.2054 99.491C74.4814 99.365 74.7754 99.302 75.0874 99.302C75.5794 99.302 75.9814 99.41 76.2934 99.626C76.6054 99.842 76.8844 100.151 77.1304 100.553L73.9264 102.596ZM75.9424 100.409C75.8404 100.295 75.7204 100.217 75.5824 100.175C75.4504 100.133 75.3034 100.112 75.1414 100.112C74.9314 100.112 74.7364 100.151 74.5564 100.229C74.3764 100.301 74.2204 100.403 74.0884 100.535C73.9564 100.661 73.8514 100.817 73.7734 101.003C73.7014 101.183 73.6654 101.381 73.6654 101.597C73.6654 101.627 73.6654 101.666 73.6654 101.714C73.6654 101.762 73.6684 101.807 73.6744 101.849L75.9424 100.409ZM78.8554 102.515C78.8554 102.785 78.9424 102.998 79.1164 103.154C79.2904 103.304 79.5394 103.379 79.8634 103.379C80.2414 103.379 80.5504 103.262 80.7904 103.028C81.0304 102.788 81.1504 102.452 81.1504 102.02V99.446L82.0144 99.302V104L81.1684 104.144V103.469H81.1504C81.0124 103.703 80.8174 103.874 80.5654 103.982C80.3134 104.09 80.0524 104.144 79.7824 104.144C79.5124 104.144 79.2664 104.108 79.0444 104.036C78.8284 103.97 78.6394 103.871 78.4774 103.739C78.3214 103.607 78.2014 103.451 78.1174 103.271C78.0334 103.085 77.9914 102.875 77.9914 102.641V99.446L78.8554 99.302V102.515ZM84.1353 99.446H85.3503V100.211H84.1353V102.659C84.1353 102.785 84.1473 102.893 84.1713 102.983C84.1953 103.073 84.2373 103.148 84.2973 103.208C84.3573 103.268 84.4383 103.313 84.5403 103.343C84.6483 103.367 84.7833 103.379 84.9453 103.379C85.0473 103.379 85.1433 103.373 85.2333 103.361C85.3233 103.349 85.4193 103.337 85.5213 103.325L85.3683 104.108C85.3383 104.108 85.2693 104.114 85.1613 104.126C85.0593 104.138 84.9063 104.144 84.7023 104.144C84.4683 104.144 84.2613 104.105 84.0813 104.027C83.9073 103.949 83.7603 103.847 83.6403 103.721C83.5203 103.595 83.4273 103.451 83.3613 103.289C83.3013 103.121 83.2713 102.95 83.2713 102.776V100.211H82.5603L82.8663 99.446H83.2713V98.33L84.1353 98.123V99.446ZM89.4303 102.596C89.5743 102.824 89.7513 103.004 89.9613 103.136C90.1713 103.268 90.4113 103.334 90.6813 103.334C90.7833 103.334 90.8913 103.322 91.0053 103.298C91.1193 103.274 91.2423 103.235 91.3743 103.181C91.5123 103.121 91.6623 103.04 91.8243 102.938C91.9923 102.836 92.1753 102.704 92.3733 102.542L92.5443 103.451C92.2563 103.649 91.9713 103.814 91.6893 103.946C91.4133 104.078 91.0953 104.144 90.7353 104.144C90.3813 104.144 90.0543 104.081 89.7543 103.955C89.4603 103.829 89.2053 103.655 88.9893 103.433C88.7793 103.205 88.6143 102.935 88.4943 102.623C88.3743 102.311 88.3143 101.969 88.3143 101.597C88.3143 101.297 88.3743 101.009 88.4943 100.733C88.6143 100.457 88.7763 100.214 88.9803 100.004C89.1903 99.788 89.4333 99.617 89.7093 99.491C89.9853 99.365 90.2793 99.302 90.5913 99.302C91.0833 99.302 91.4853 99.41 91.7973 99.626C92.1093 99.842 92.3883 100.151 92.6343 100.553L89.4303 102.596ZM91.4463 100.409C91.3443 100.295 91.2243 100.217 91.0863 100.175C90.9543 100.133 90.8073 100.112 90.6453 100.112C90.4353 100.112 90.2403 100.151 90.0603 100.229C89.8803 100.301 89.7243 100.403 89.5923 100.535C89.4603 100.661 89.3553 100.817 89.2773 101.003C89.2053 101.183 89.1693 101.381 89.1693 101.597C89.1693 101.627 89.1693 101.666 89.1693 101.714C89.1693 101.762 89.1723 101.807 89.1783 101.849L91.4463 100.409ZM91.0953 97.475L92.0583 98.771H91.2303L90.5913 97.97L89.9613 98.771H89.1333L90.0963 97.475H91.0953ZM94.6383 99.446H95.8533V100.211H94.6383V102.659C94.6383 102.785 94.6503 102.893 94.6743 102.983C94.6983 103.073 94.7403 103.148 94.8003 103.208C94.8603 103.268 94.9413 103.313 95.0433 103.343C95.1513 103.367 95.2863 103.379 95.4483 103.379C95.5503 103.379 95.6463 103.373 95.7363 103.361C95.8263 103.349 95.9223 103.337 96.0243 103.325L95.8713 104.108C95.8413 104.108 95.7723 104.114 95.6643 104.126C95.5623 104.138 95.4093 104.144 95.2053 104.144C94.9713 104.144 94.7643 104.105 94.5843 104.027C94.4103 103.949 94.2633 103.847 94.1433 103.721C94.0233 103.595 93.9303 103.451 93.8643 103.289C93.8043 103.121 93.7743 102.95 93.7743 102.776V100.211H93.0633L93.3693 99.446H93.7743V98.33L94.6383 98.123V99.446ZM98.7963 100.148H98.7063C98.5023 100.148 98.3163 100.19 98.1483 100.274C97.9803 100.352 97.8363 100.466 97.7163 100.616C97.6023 100.76 97.5123 100.934 97.4463 101.138C97.3863 101.342 97.3563 101.567 97.3563 101.813V104L96.4923 104.144V99.446L97.3023 99.302V100.283H97.3203C97.4763 99.959 97.6653 99.713 97.8873 99.545C98.1093 99.371 98.4003 99.284 98.7603 99.284H99.1563L98.7963 100.148ZM100.425 102.596C100.569 102.824 100.746 103.004 100.956 103.136C101.166 103.268 101.406 103.334 101.676 103.334C101.778 103.334 101.886 103.322 102 103.298C102.114 103.274 102.237 103.235 102.369 103.181C102.507 103.121 102.657 103.04 102.819 102.938C102.987 102.836 103.17 102.704 103.368 102.542L103.539 103.451C103.251 103.649 102.966 103.814 102.684 103.946C102.408 104.078 102.09 104.144 101.73 104.144C101.376 104.144 101.049 104.081 100.749 103.955C100.455 103.829 100.2 103.655 99.9844 103.433C99.7744 103.205 99.6094 102.935 99.4894 102.623C99.3694 102.311 99.3094 101.969 99.3094 101.597C99.3094 101.297 99.3694 101.009 99.4894 100.733C99.6094 100.457 99.7714 100.214 99.9754 100.004C100.185 99.788 100.428 99.617 100.704 99.491C100.98 99.365 101.274 99.302 101.586 99.302C102.078 99.302 102.48 99.41 102.792 99.626C103.104 99.842 103.383 100.151 103.629 100.553L100.425 102.596ZM102.441 100.409C102.339 100.295 102.219 100.217 102.081 100.175C101.949 100.133 101.802 100.112 101.64 100.112C101.43 100.112 101.235 100.151 101.055 100.229C100.875 100.301 100.719 100.403 100.587 100.535C100.455 100.661 100.35 100.817 100.272 101.003C100.2 101.183 100.164 101.381 100.164 101.597C100.164 101.627 100.164 101.666 100.164 101.714C100.164 101.762 100.167 101.807 100.173 101.849L102.441 100.409ZM110.568 99.743L110.028 99.878C110.412 100.118 110.604 100.484 110.604 100.976C110.604 101.288 110.523 101.561 110.361 101.795C110.199 102.029 109.965 102.197 109.659 102.299V102.317C110.007 102.437 110.28 102.629 110.478 102.893C110.676 103.151 110.775 103.469 110.775 103.847C110.775 104.123 110.721 104.372 110.613 104.594C110.511 104.816 110.364 105.005 110.172 105.161C109.986 105.323 109.764 105.446 109.506 105.53C109.254 105.614 108.981 105.656 108.687 105.656C108.237 105.656 107.862 105.56 107.562 105.368C107.262 105.182 106.986 104.918 106.734 104.576L107.373 104.072C107.535 104.33 107.715 104.531 107.913 104.675C108.117 104.819 108.378 104.891 108.696 104.891C108.87 104.891 109.029 104.867 109.173 104.819C109.323 104.771 109.452 104.702 109.56 104.612C109.668 104.522 109.752 104.414 109.812 104.288C109.878 104.162 109.911 104.024 109.911 103.874C109.911 103.514 109.797 103.232 109.569 103.028C109.341 102.824 109.047 102.722 108.687 102.722C108.465 102.722 108.267 102.752 108.093 102.812C107.919 102.872 107.751 102.953 107.589 103.055L107.751 102.416C107.409 102.302 107.157 102.116 106.995 101.858C106.839 101.6 106.761 101.297 106.761 100.949C106.761 100.679 106.809 100.445 106.905 100.247C107.007 100.043 107.136 99.875 107.292 99.743C107.454 99.605 107.637 99.5 107.841 99.428C108.045 99.356 108.252 99.314 108.462 99.302C108.504 99.302 108.564 99.299 108.642 99.293C108.726 99.287 108.813 99.284 108.903 99.284C108.993 99.278 109.08 99.272 109.164 99.266C109.248 99.26 109.314 99.254 109.362 99.248C109.632 99.224 109.869 99.185 110.073 99.131C110.277 99.071 110.508 98.993 110.766 98.897L110.568 99.743ZM108.696 101.993C109.002 101.993 109.251 101.897 109.443 101.705C109.641 101.513 109.74 101.27 109.74 100.976C109.74 100.67 109.641 100.436 109.443 100.274C109.245 100.112 108.993 100.031 108.687 100.031C108.381 100.031 108.126 100.118 107.922 100.292C107.724 100.46 107.625 100.688 107.625 100.976C107.625 101.282 107.718 101.528 107.904 101.714C108.09 101.9 108.354 101.993 108.696 101.993ZM115.05 104L114.276 104.144V103.514H114.258C114.192 103.64 114.108 103.745 114.006 103.829C113.91 103.913 113.802 103.976 113.682 104.018C113.568 104.066 113.442 104.099 113.304 104.117C113.172 104.135 113.04 104.144 112.908 104.144C112.656 104.144 112.425 104.099 112.215 104.009C112.011 103.925 111.834 103.805 111.684 103.649C111.534 103.487 111.417 103.298 111.333 103.082C111.255 102.866 111.216 102.629 111.216 102.371C111.216 102.137 111.264 101.921 111.36 101.723C111.456 101.525 111.585 101.354 111.747 101.21C111.915 101.066 112.107 100.955 112.323 100.877C112.545 100.799 112.782 100.76 113.034 100.76C113.244 100.76 113.448 100.793 113.646 100.859C113.85 100.925 114.03 101.039 114.186 101.201V100.886C114.186 100.718 114.165 100.583 114.123 100.481C114.081 100.379 114.015 100.301 113.925 100.247C113.841 100.193 113.73 100.157 113.592 100.139C113.454 100.121 113.289 100.112 113.097 100.112C112.911 100.112 112.704 100.127 112.476 100.157C112.248 100.181 112.014 100.253 111.774 100.373L112.008 99.482C112.224 99.434 112.44 99.392 112.656 99.356C112.872 99.32 113.073 99.302 113.259 99.302C113.901 99.302 114.36 99.443 114.636 99.725C114.912 100.007 115.05 100.427 115.05 100.985V104ZM113.07 103.334C113.448 103.334 113.727 103.25 113.907 103.082C114.093 102.914 114.186 102.677 114.186 102.371C114.186 102.119 114.09 101.915 113.898 101.759C113.706 101.603 113.448 101.525 113.124 101.525C112.818 101.525 112.566 101.603 112.368 101.759C112.176 101.909 112.08 102.113 112.08 102.371C112.08 102.695 112.167 102.938 112.341 103.1C112.521 103.256 112.764 103.334 113.07 103.334ZM118.299 100.148H118.209C118.005 100.148 117.819 100.19 117.651 100.274C117.483 100.352 117.339 100.466 117.219 100.616C117.105 100.76 117.015 100.934 116.949 101.138C116.889 101.342 116.859 101.567 116.859 101.813V104L115.995 104.144V99.446L116.805 99.302V100.283H116.823C116.979 99.959 117.168 99.713 117.39 99.545C117.612 99.371 117.903 99.284 118.263 99.284H118.659L118.299 100.148ZM123.573 104L122.763 104.108V103.379C122.541 103.631 122.292 103.823 122.016 103.955C121.746 104.081 121.44 104.144 121.098 104.144C120.774 104.144 120.471 104.078 120.189 103.946C119.907 103.814 119.661 103.634 119.451 103.406C119.241 103.178 119.076 102.914 118.956 102.614C118.836 102.314 118.776 101.996 118.776 101.66C118.776 101.33 118.836 101.024 118.956 100.742C119.076 100.454 119.238 100.205 119.442 99.995C119.652 99.779 119.898 99.611 120.18 99.491C120.468 99.365 120.774 99.302 121.098 99.302C121.416 99.302 121.713 99.365 121.989 99.491C122.265 99.617 122.505 99.773 122.709 99.959V97.781L123.573 97.637V104ZM121.179 103.334C121.419 103.334 121.638 103.295 121.836 103.217C122.04 103.139 122.214 103.031 122.358 102.893C122.502 102.749 122.613 102.578 122.691 102.38C122.775 102.182 122.817 101.966 122.817 101.732C122.817 101.492 122.775 101.273 122.691 101.075C122.607 100.877 122.49 100.706 122.34 100.562C122.19 100.418 122.01 100.307 121.8 100.229C121.596 100.151 121.371 100.112 121.125 100.112C120.927 100.112 120.738 100.154 120.558 100.238C120.378 100.322 120.219 100.439 120.081 100.589C119.949 100.733 119.841 100.904 119.757 101.102C119.679 101.3 119.64 101.51 119.64 101.732C119.64 101.942 119.679 102.143 119.757 102.335C119.841 102.527 119.952 102.698 120.09 102.848C120.228 102.992 120.39 103.109 120.576 103.199C120.768 103.289 120.969 103.334 121.179 103.334ZM125.43 102.596C125.574 102.824 125.751 103.004 125.961 103.136C126.171 103.268 126.411 103.334 126.681 103.334C126.783 103.334 126.891 103.322 127.005 103.298C127.119 103.274 127.242 103.235 127.374 103.181C127.512 103.121 127.662 103.04 127.824 102.938C127.992 102.836 128.175 102.704 128.373 102.542L128.544 103.451C128.256 103.649 127.971 103.814 127.689 103.946C127.413 104.078 127.095 104.144 126.735 104.144C126.381 104.144 126.054 104.081 125.754 103.955C125.46 103.829 125.205 103.655 124.989 103.433C124.779 103.205 124.614 102.935 124.494 102.623C124.374 102.311 124.314 101.969 124.314 101.597C124.314 101.297 124.374 101.009 124.494 100.733C124.614 100.457 124.776 100.214 124.98 100.004C125.19 99.788 125.433 99.617 125.709 99.491C125.985 99.365 126.279 99.302 126.591 99.302C127.083 99.302 127.485 99.41 127.797 99.626C128.109 99.842 128.388 100.151 128.634 100.553L125.43 102.596ZM127.446 100.409C127.344 100.295 127.224 100.217 127.086 100.175C126.954 100.133 126.807 100.112 126.645 100.112C126.435 100.112 126.24 100.151 126.06 100.229C125.88 100.301 125.724 100.403 125.592 100.535C125.46 100.661 125.355 100.817 125.277 101.003C125.205 101.183 125.169 101.381 125.169 101.597C125.169 101.627 125.169 101.666 125.169 101.714C125.169 101.762 125.172 101.807 125.178 101.849L127.446 100.409ZM127.932 97.475L126.636 98.771H125.898L126.708 97.475H127.932ZM130.431 102.596C130.575 102.824 130.752 103.004 130.962 103.136C131.172 103.268 131.412 103.334 131.682 103.334C131.784 103.334 131.892 103.322 132.006 103.298C132.12 103.274 132.243 103.235 132.375 103.181C132.513 103.121 132.663 103.04 132.825 102.938C132.993 102.836 133.176 102.704 133.374 102.542L133.545 103.451C133.257 103.649 132.972 103.814 132.69 103.946C132.414 104.078 132.096 104.144 131.736 104.144C131.382 104.144 131.055 104.081 130.755 103.955C130.461 103.829 130.206 103.655 129.99 103.433C129.78 103.205 129.615 102.935 129.495 102.623C129.375 102.311 129.315 101.969 129.315 101.597C129.315 101.297 129.375 101.009 129.495 100.733C129.615 100.457 129.777 100.214 129.981 100.004C130.191 99.788 130.434 99.617 130.71 99.491C130.986 99.365 131.28 99.302 131.592 99.302C132.084 99.302 132.486 99.41 132.798 99.626C133.11 99.842 133.389 100.151 133.635 100.553L130.431 102.596ZM132.447 100.409C132.345 100.295 132.225 100.217 132.087 100.175C131.955 100.133 131.808 100.112 131.646 100.112C131.436 100.112 131.241 100.151 131.061 100.229C130.881 100.301 130.725 100.403 130.593 100.535C130.461 100.661 130.356 100.817 130.278 101.003C130.206 101.183 130.17 101.381 130.17 101.597C130.17 101.627 130.17 101.666 130.17 101.714C130.17 101.762 130.173 101.807 130.179 101.849L132.447 100.409ZM137.496 97.565L138.081 98.222L137.541 98.924L136.947 98.222L137.496 97.565ZM137.946 104.27C137.946 104.486 137.904 104.678 137.82 104.846C137.742 105.02 137.631 105.167 137.487 105.287C137.349 105.407 137.187 105.497 137.001 105.557C136.815 105.623 136.617 105.656 136.407 105.656C136.317 105.656 136.209 105.647 136.083 105.629L135.777 104.846H136.029C136.425 104.846 136.698 104.783 136.848 104.657C137.004 104.531 137.082 104.363 137.082 104.153V99.446L137.946 99.302V104.27ZM139.86 102.515C139.86 102.785 139.947 102.998 140.121 103.154C140.295 103.304 140.544 103.379 140.868 103.379C141.246 103.379 141.555 103.262 141.795 103.028C142.035 102.788 142.155 102.452 142.155 102.02V99.446L143.019 99.302V104L142.173 104.144V103.469H142.155C142.017 103.703 141.822 103.874 141.57 103.982C141.318 104.09 141.057 104.144 140.787 104.144C140.517 104.144 140.271 104.108 140.049 104.036C139.833 103.97 139.644 103.871 139.482 103.739C139.326 103.607 139.206 103.451 139.122 103.271C139.038 103.085 138.996 102.875 138.996 102.641V99.446L139.86 99.302V102.515ZM146.166 100.508C146.13 100.466 146.085 100.421 146.031 100.373C145.977 100.319 145.914 100.271 145.842 100.229C145.77 100.181 145.692 100.142 145.608 100.112C145.524 100.082 145.431 100.067 145.329 100.067C145.161 100.067 145.029 100.088 144.933 100.13C144.837 100.166 144.762 100.211 144.708 100.265C144.66 100.319 144.627 100.379 144.609 100.445C144.597 100.505 144.591 100.562 144.591 100.616C144.591 100.808 144.66 100.952 144.798 101.048C144.936 101.138 145.125 101.213 145.365 101.273C145.545 101.321 145.722 101.372 145.896 101.426C146.07 101.48 146.226 101.558 146.364 101.66C146.502 101.756 146.613 101.888 146.697 102.056C146.787 102.224 146.832 102.443 146.832 102.713C146.832 102.899 146.796 103.079 146.724 103.253C146.652 103.427 146.544 103.58 146.4 103.712C146.262 103.844 146.094 103.949 145.896 104.027C145.698 104.105 145.473 104.144 145.221 104.144C144.909 104.144 144.621 104.084 144.357 103.964C144.099 103.844 143.865 103.649 143.655 103.379L144.249 102.875C144.381 103.031 144.519 103.154 144.663 103.244C144.807 103.334 144.987 103.379 145.203 103.379C145.413 103.379 145.593 103.328 145.743 103.226C145.893 103.124 145.968 102.98 145.968 102.794C145.968 102.566 145.884 102.398 145.716 102.29C145.548 102.176 145.281 102.074 144.915 101.984C144.747 101.942 144.591 101.894 144.447 101.84C144.303 101.78 144.177 101.705 144.069 101.615C143.961 101.519 143.877 101.402 143.817 101.264C143.757 101.12 143.727 100.946 143.727 100.742C143.727 100.532 143.763 100.34 143.835 100.166C143.913 99.986 144.018 99.833 144.15 99.707C144.282 99.581 144.438 99.482 144.618 99.41C144.798 99.338 144.993 99.302 145.203 99.302C145.515 99.302 145.779 99.353 145.995 99.455C146.217 99.551 146.445 99.713 146.679 99.941L146.166 100.508ZM151.284 99.446L152.103 99.302V105.548L151.239 105.656V103.487C151.017 103.691 150.765 103.853 150.483 103.973C150.207 104.087 149.913 104.144 149.601 104.144C149.343 104.144 149.076 104.096 148.8 104C148.524 103.898 148.272 103.748 148.044 103.55C147.822 103.346 147.639 103.094 147.495 102.794C147.351 102.488 147.279 102.134 147.279 101.732C147.279 101.396 147.342 101.081 147.468 100.787C147.594 100.487 147.765 100.229 147.981 100.013C148.197 99.791 148.446 99.617 148.728 99.491C149.016 99.365 149.316 99.302 149.628 99.302C149.97 99.302 150.279 99.368 150.555 99.5C150.831 99.626 151.074 99.815 151.284 100.067V99.446ZM149.673 103.334C149.913 103.334 150.135 103.295 150.339 103.217C150.543 103.139 150.717 103.031 150.861 102.893C151.005 102.749 151.116 102.581 151.194 102.389C151.278 102.191 151.32 101.972 151.32 101.732C151.32 101.492 151.278 101.273 151.194 101.075C151.11 100.877 150.993 100.706 150.843 100.562C150.693 100.418 150.513 100.307 150.303 100.229C150.099 100.151 149.874 100.112 149.628 100.112C149.43 100.112 149.241 100.154 149.061 100.238C148.881 100.322 148.722 100.439 148.584 100.589C148.452 100.733 148.344 100.904 148.26 101.102C148.182 101.3 148.143 101.51 148.143 101.732C148.143 101.942 148.182 102.143 148.26 102.335C148.344 102.527 148.455 102.698 148.593 102.848C148.737 102.992 148.899 103.109 149.079 103.199C149.265 103.289 149.463 103.334 149.673 103.334ZM153.861 102.515C153.861 102.785 153.948 102.998 154.122 103.154C154.296 103.304 154.545 103.379 154.869 103.379C155.247 103.379 155.556 103.262 155.796 103.028C156.036 102.788 156.156 102.452 156.156 102.02V99.446L157.02 99.302V104L156.174 104.144V103.469H156.156C156.018 103.703 155.823 103.874 155.571 103.982C155.319 104.09 155.058 104.144 154.788 104.144C154.518 104.144 154.272 104.108 154.05 104.036C153.834 103.97 153.645 103.871 153.483 103.739C153.327 103.607 153.207 103.451 153.123 103.271C153.039 103.085 152.997 102.875 152.997 102.641V99.446L153.861 99.302V102.515ZM158.466 97.682C158.736 97.862 158.922 98.033 159.024 98.195C159.126 98.351 159.177 98.516 159.177 98.69C159.177 98.81 159.114 98.981 158.988 99.203C158.862 99.425 158.64 99.737 158.322 100.139L157.854 99.797C157.872 99.773 157.908 99.722 157.962 99.644C158.016 99.56 158.073 99.47 158.133 99.374C158.193 99.278 158.247 99.182 158.295 99.086C158.343 98.99 158.367 98.909 158.367 98.843C158.367 98.705 158.322 98.603 158.232 98.537C158.142 98.471 158.04 98.411 157.926 98.357L158.466 97.682ZM163.548 104L162.774 104.144V103.514H162.756C162.69 103.64 162.606 103.745 162.504 103.829C162.408 103.913 162.3 103.976 162.18 104.018C162.066 104.066 161.94 104.099 161.802 104.117C161.67 104.135 161.538 104.144 161.406 104.144C161.154 104.144 160.923 104.099 160.713 104.009C160.509 103.925 160.332 103.805 160.182 103.649C160.032 103.487 159.915 103.298 159.831 103.082C159.753 102.866 159.714 102.629 159.714 102.371C159.714 102.137 159.762 101.921 159.858 101.723C159.954 101.525 160.083 101.354 160.245 101.21C160.413 101.066 160.605 100.955 160.821 100.877C161.043 100.799 161.28 100.76 161.532 100.76C161.742 100.76 161.946 100.793 162.144 100.859C162.348 100.925 162.528 101.039 162.684 101.201V100.886C162.684 100.718 162.663 100.583 162.621 100.481C162.579 100.379 162.513 100.301 162.423 100.247C162.339 100.193 162.228 100.157 162.09 100.139C161.952 100.121 161.787 100.112 161.595 100.112C161.409 100.112 161.202 100.127 160.974 100.157C160.746 100.181 160.512 100.253 160.272 100.373L160.506 99.482C160.722 99.434 160.938 99.392 161.154 99.356C161.37 99.32 161.571 99.302 161.757 99.302C162.399 99.302 162.858 99.443 163.134 99.725C163.41 100.007 163.548 100.427 163.548 100.985V104ZM161.568 103.334C161.946 103.334 162.225 103.25 162.405 103.082C162.591 102.914 162.684 102.677 162.684 102.371C162.684 102.119 162.588 101.915 162.396 101.759C162.204 101.603 161.946 101.525 161.622 101.525C161.316 101.525 161.064 101.603 160.866 101.759C160.674 101.909 160.578 102.113 160.578 102.371C160.578 102.695 160.665 102.938 160.839 103.1C161.019 103.256 161.262 103.334 161.568 103.334ZM161.703 97.475L162.513 98.771H161.775L160.497 97.475H161.703ZM169.167 100.508C169.131 100.466 169.086 100.421 169.032 100.373C168.978 100.319 168.915 100.271 168.843 100.229C168.771 100.181 168.693 100.142 168.609 100.112C168.525 100.082 168.432 100.067 168.33 100.067C168.162 100.067 168.03 100.088 167.934 100.13C167.838 100.166 167.763 100.211 167.709 100.265C167.661 100.319 167.628 100.379 167.61 100.445C167.598 100.505 167.592 100.562 167.592 100.616C167.592 100.808 167.661 100.952 167.799 101.048C167.937 101.138 168.126 101.213 168.366 101.273C168.546 101.321 168.723 101.372 168.897 101.426C169.071 101.48 169.227 101.558 169.365 101.66C169.503 101.756 169.614 101.888 169.698 102.056C169.788 102.224 169.833 102.443 169.833 102.713C169.833 102.899 169.797 103.079 169.725 103.253C169.653 103.427 169.545 103.58 169.401 103.712C169.263 103.844 169.095 103.949 168.897 104.027C168.699 104.105 168.474 104.144 168.222 104.144C167.91 104.144 167.622 104.084 167.358 103.964C167.1 103.844 166.866 103.649 166.656 103.379L167.25 102.875C167.382 103.031 167.52 103.154 167.664 103.244C167.808 103.334 167.988 103.379 168.204 103.379C168.414 103.379 168.594 103.328 168.744 103.226C168.894 103.124 168.969 102.98 168.969 102.794C168.969 102.566 168.885 102.398 168.717 102.29C168.549 102.176 168.282 102.074 167.916 101.984C167.748 101.942 167.592 101.894 167.448 101.84C167.304 101.78 167.178 101.705 167.07 101.615C166.962 101.519 166.878 101.402 166.818 101.264C166.758 101.12 166.728 100.946 166.728 100.742C166.728 100.532 166.764 100.34 166.836 100.166C166.914 99.986 167.019 99.833 167.151 99.707C167.283 99.581 167.439 99.482 167.619 99.41C167.799 99.338 167.994 99.302 168.204 99.302C168.516 99.302 168.78 99.353 168.996 99.455C169.218 99.551 169.446 99.713 169.68 99.941L169.167 100.508ZM172.755 104.144C172.407 104.144 172.083 104.081 171.783 103.955C171.483 103.829 171.222 103.655 171 103.433C170.778 103.211 170.601 102.956 170.469 102.668C170.343 102.374 170.28 102.059 170.28 101.723C170.28 101.387 170.343 101.072 170.469 100.778C170.601 100.484 170.778 100.229 171 100.013C171.222 99.791 171.483 99.617 171.783 99.491C172.089 99.365 172.413 99.302 172.755 99.302C173.103 99.302 173.427 99.368 173.727 99.5C174.033 99.626 174.297 99.8 174.519 100.022C174.741 100.238 174.915 100.493 175.041 100.787C175.173 101.081 175.239 101.393 175.239 101.723C175.239 102.053 175.176 102.365 175.05 102.659C174.924 102.953 174.747 103.211 174.519 103.433C174.297 103.649 174.033 103.823 173.727 103.955C173.427 104.081 173.103 104.144 172.755 104.144ZM172.755 103.334C172.983 103.334 173.196 103.292 173.394 103.208C173.592 103.118 173.763 103.001 173.907 102.857C174.051 102.707 174.165 102.536 174.249 102.344C174.333 102.146 174.375 101.939 174.375 101.723C174.375 101.507 174.333 101.303 174.249 101.111C174.171 100.919 174.06 100.748 173.916 100.598C173.772 100.448 173.598 100.331 173.394 100.247C173.196 100.157 172.98 100.112 172.746 100.112C172.524 100.112 172.314 100.154 172.116 100.238C171.924 100.322 171.756 100.439 171.612 100.589C171.468 100.733 171.354 100.904 171.27 101.102C171.186 101.294 171.144 101.501 171.144 101.723C171.144 101.939 171.183 102.146 171.261 102.344C171.345 102.536 171.459 102.707 171.603 102.857C171.747 103.001 171.918 103.118 172.116 103.208C172.314 103.292 172.527 103.334 172.755 103.334ZM176.862 99.977H176.88C177.012 99.743 177.201 99.572 177.447 99.464C177.699 99.356 177.96 99.302 178.23 99.302C178.776 99.302 179.211 99.44 179.535 99.716C179.859 99.992 180.021 100.373 180.021 100.859V104L179.157 104.144V100.931C179.157 100.661 179.07 100.451 178.896 100.301C178.722 100.145 178.473 100.067 178.149 100.067C177.765 100.067 177.453 100.187 177.213 100.427C176.979 100.667 176.862 101 176.862 101.426V104L175.998 104.144V99.446L176.862 99.302V99.977ZM184.368 102.515C184.368 102.785 184.455 102.998 184.629 103.154C184.803 103.304 185.052 103.379 185.376 103.379C185.754 103.379 186.063 103.262 186.303 103.028C186.543 102.788 186.663 102.452 186.663 102.02V99.446L187.527 99.302V104L186.681 104.144V103.469H186.663C186.525 103.703 186.33 103.874 186.078 103.982C185.826 104.09 185.565 104.144 185.295 104.144C185.025 104.144 184.779 104.108 184.557 104.036C184.341 103.97 184.152 103.871 183.99 103.739C183.834 103.607 183.714 103.451 183.63 103.271C183.546 103.085 183.504 102.875 183.504 102.641V99.446L184.368 99.302V102.515ZM189.648 99.446H190.863V100.211H189.648V102.659C189.648 102.785 189.66 102.893 189.684 102.983C189.708 103.073 189.75 103.148 189.81 103.208C189.87 103.268 189.951 103.313 190.053 103.343C190.161 103.367 190.296 103.379 190.458 103.379C190.56 103.379 190.656 103.373 190.746 103.361C190.836 103.349 190.932 103.337 191.034 103.325L190.881 104.108C190.851 104.108 190.782 104.114 190.674 104.126C190.572 104.138 190.419 104.144 190.215 104.144C189.981 104.144 189.774 104.105 189.594 104.027C189.42 103.949 189.273 103.847 189.153 103.721C189.033 103.595 188.94 103.451 188.874 103.289C188.814 103.121 188.784 102.95 188.784 102.776V100.211H188.073L188.379 99.446H188.784V98.33L189.648 98.123V99.446ZM192.006 97.565L192.582 98.249L192.024 98.924L191.448 98.249L192.006 97.565ZM192.447 104L191.583 104.144V99.446L192.447 99.302V104ZM194.442 104L193.578 104.108V97.781L194.442 97.637V104ZM195.996 97.565L196.572 98.249L196.014 98.924L195.438 98.249L195.996 97.565ZM196.437 104L195.573 104.144V99.446L196.437 99.302V104ZM199.656 100.508C199.62 100.466 199.575 100.421 199.521 100.373C199.467 100.319 199.404 100.271 199.332 100.229C199.26 100.181 199.182 100.142 199.098 100.112C199.014 100.082 198.921 100.067 198.819 100.067C198.651 100.067 198.519 100.088 198.423 100.13C198.327 100.166 198.252 100.211 198.198 100.265C198.15 100.319 198.117 100.379 198.099 100.445C198.087 100.505 198.081 100.562 198.081 100.616C198.081 100.808 198.15 100.952 198.288 101.048C198.426 101.138 198.615 101.213 198.855 101.273C199.035 101.321 199.212 101.372 199.386 101.426C199.56 101.48 199.716 101.558 199.854 101.66C199.992 101.756 200.103 101.888 200.187 102.056C200.277 102.224 200.322 102.443 200.322 102.713C200.322 102.899 200.286 103.079 200.214 103.253C200.142 103.427 200.034 103.58 199.89 103.712C199.752 103.844 199.584 103.949 199.386 104.027C199.188 104.105 198.963 104.144 198.711 104.144C198.399 104.144 198.111 104.084 197.847 103.964C197.589 103.844 197.355 103.649 197.145 103.379L197.739 102.875C197.871 103.031 198.009 103.154 198.153 103.244C198.297 103.334 198.477 103.379 198.693 103.379C198.903 103.379 199.083 103.328 199.233 103.226C199.383 103.124 199.458 102.98 199.458 102.794C199.458 102.566 199.374 102.398 199.206 102.29C199.038 102.176 198.771 102.074 198.405 101.984C198.237 101.942 198.081 101.894 197.937 101.84C197.793 101.78 197.667 101.705 197.559 101.615C197.451 101.519 197.367 101.402 197.307 101.264C197.247 101.12 197.217 100.946 197.217 100.742C197.217 100.532 197.253 100.34 197.325 100.166C197.403 99.986 197.508 99.833 197.64 99.707C197.772 99.581 197.928 99.482 198.108 99.41C198.288 99.338 198.483 99.302 198.693 99.302C199.005 99.302 199.269 99.353 199.485 99.455C199.707 99.551 199.935 99.713 200.169 99.941L199.656 100.508ZM204.541 104L203.767 104.144V103.514H203.749C203.683 103.64 203.599 103.745 203.497 103.829C203.401 103.913 203.293 103.976 203.173 104.018C203.059 104.066 202.933 104.099 202.795 104.117C202.663 104.135 202.531 104.144 202.399 104.144C202.147 104.144 201.916 104.099 201.706 104.009C201.502 103.925 201.325 103.805 201.175 103.649C201.025 103.487 200.908 103.298 200.824 103.082C200.746 102.866 200.707 102.629 200.707 102.371C200.707 102.137 200.755 101.921 200.851 101.723C200.947 101.525 201.076 101.354 201.238 101.21C201.406 101.066 201.598 100.955 201.814 100.877C202.036 100.799 202.273 100.76 202.525 100.76C202.735 100.76 202.939 100.793 203.137 100.859C203.341 100.925 203.521 101.039 203.677 101.201V100.886C203.677 100.718 203.656 100.583 203.614 100.481C203.572 100.379 203.506 100.301 203.416 100.247C203.332 100.193 203.221 100.157 203.083 100.139C202.945 100.121 202.78 100.112 202.588 100.112C202.402 100.112 202.195 100.127 201.967 100.157C201.739 100.181 201.505 100.253 201.265 100.373L201.499 99.482C201.715 99.434 201.931 99.392 202.147 99.356C202.363 99.32 202.564 99.302 202.75 99.302C203.392 99.302 203.851 99.443 204.127 99.725C204.403 100.007 204.541 100.427 204.541 100.985V104ZM202.561 103.334C202.939 103.334 203.218 103.25 203.398 103.082C203.584 102.914 203.677 102.677 203.677 102.371C203.677 102.119 203.581 101.915 203.389 101.759C203.197 101.603 202.939 101.525 202.615 101.525C202.309 101.525 202.057 101.603 201.859 101.759C201.667 101.909 201.571 102.113 201.571 102.371C201.571 102.695 201.658 102.938 201.832 103.1C202.012 103.256 202.255 103.334 202.561 103.334ZM206.629 99.446H207.844V100.211H206.629V102.659C206.629 102.785 206.641 102.893 206.665 102.983C206.689 103.073 206.731 103.148 206.791 103.208C206.851 103.268 206.932 103.313 207.034 103.343C207.142 103.367 207.277 103.379 207.439 103.379C207.541 103.379 207.637 103.373 207.727 103.361C207.817 103.349 207.913 103.337 208.015 103.325L207.862 104.108C207.832 104.108 207.763 104.114 207.655 104.126C207.553 104.138 207.4 104.144 207.196 104.144C206.962 104.144 206.755 104.105 206.575 104.027C206.401 103.949 206.254 103.847 206.134 103.721C206.014 103.595 205.921 103.451 205.855 103.289C205.795 103.121 205.765 102.95 205.765 102.776V100.211H205.054L205.36 99.446H205.765V98.33L206.629 98.123V99.446ZM208.987 97.565L209.563 98.249L209.005 98.924L208.429 98.249L208.987 97.565ZM209.428 104L208.564 104.144V99.446L209.428 99.302V104ZM212.737 104.144C212.389 104.144 212.065 104.081 211.765 103.955C211.465 103.829 211.204 103.655 210.982 103.433C210.76 103.211 210.583 102.956 210.451 102.668C210.325 102.374 210.262 102.059 210.262 101.723C210.262 101.387 210.325 101.072 210.451 100.778C210.583 100.484 210.76 100.229 210.982 100.013C211.204 99.791 211.465 99.617 211.765 99.491C212.071 99.365 212.395 99.302 212.737 99.302C213.085 99.302 213.409 99.368 213.709 99.5C214.015 99.626 214.279 99.8 214.501 100.022C214.723 100.238 214.897 100.493 215.023 100.787C215.155 101.081 215.221 101.393 215.221 101.723C215.221 102.053 215.158 102.365 215.032 102.659C214.906 102.953 214.729 103.211 214.501 103.433C214.279 103.649 214.015 103.823 213.709 103.955C213.409 104.081 213.085 104.144 212.737 104.144ZM212.737 103.334C212.965 103.334 213.178 103.292 213.376 103.208C213.574 103.118 213.745 103.001 213.889 102.857C214.033 102.707 214.147 102.536 214.231 102.344C214.315 102.146 214.357 101.939 214.357 101.723C214.357 101.507 214.315 101.303 214.231 101.111C214.153 100.919 214.042 100.748 213.898 100.598C213.754 100.448 213.58 100.331 213.376 100.247C213.178 100.157 212.962 100.112 212.728 100.112C212.506 100.112 212.296 100.154 212.098 100.238C211.906 100.322 211.738 100.439 211.594 100.589C211.45 100.733 211.336 100.904 211.252 101.102C211.168 101.294 211.126 101.501 211.126 101.723C211.126 101.939 211.165 102.146 211.243 102.344C211.327 102.536 211.441 102.707 211.585 102.857C211.729 103.001 211.9 103.118 212.098 103.208C212.296 103.292 212.509 103.334 212.737 103.334ZM216.844 99.977H216.862C216.994 99.743 217.183 99.572 217.429 99.464C217.681 99.356 217.942 99.302 218.212 99.302C218.758 99.302 219.193 99.44 219.517 99.716C219.841 99.992 220.003 100.373 220.003 100.859V104L219.139 104.144V100.931C219.139 100.661 219.052 100.451 218.878 100.301C218.704 100.145 218.455 100.067 218.131 100.067C217.747 100.067 217.435 100.187 217.195 100.427C216.961 100.667 216.844 101 216.844 101.426V104L215.98 104.144V99.446L216.844 99.302V99.977ZM221.746 102.533L222.331 103.307L221.746 104.081L221.161 103.307L221.746 102.533Z" fill="black"/>
<rect width="41" height="13" transform="translate(102 141)" fill="white"/>
<path d="M105.462 145.086H105.476L107.135 148.747L108.773 145.086H108.787L109.767 150L109.102 150.084L108.521 147.046H108.507L107.142 150.056H107.128L105.728 147.046H105.714L105.147 150.084L104.489 150L105.462 145.086ZM115.097 147.599C115.097 147.949 115.029 148.278 114.894 148.586C114.763 148.889 114.583 149.155 114.355 149.384C114.131 149.608 113.865 149.785 113.557 149.916C113.253 150.047 112.927 150.112 112.577 150.112C112.222 150.112 111.891 150.047 111.583 149.916C111.279 149.785 111.013 149.606 110.785 149.377C110.561 149.148 110.383 148.882 110.253 148.579C110.122 148.271 110.057 147.944 110.057 147.599C110.057 147.249 110.122 146.922 110.253 146.619C110.388 146.311 110.568 146.045 110.792 145.821C111.02 145.592 111.286 145.413 111.59 145.282C111.898 145.151 112.227 145.086 112.577 145.086C112.931 145.086 113.26 145.154 113.564 145.289C113.872 145.42 114.138 145.599 114.362 145.828C114.59 146.052 114.77 146.318 114.901 146.626C115.031 146.929 115.097 147.254 115.097 147.599ZM112.577 149.482C112.819 149.482 113.05 149.433 113.27 149.335C113.494 149.232 113.69 149.097 113.858 148.929C114.026 148.756 114.159 148.556 114.257 148.327C114.359 148.098 114.411 147.856 114.411 147.599C114.411 147.347 114.362 147.107 114.264 146.878C114.166 146.649 114.033 146.451 113.865 146.283C113.701 146.11 113.508 145.973 113.284 145.87C113.06 145.767 112.822 145.716 112.57 145.716C112.332 145.716 112.101 145.765 111.877 145.863C111.657 145.961 111.464 146.096 111.296 146.269C111.128 146.437 110.992 146.635 110.89 146.864C110.792 147.093 110.743 147.338 110.743 147.599C110.743 147.856 110.792 148.098 110.89 148.327C110.988 148.556 111.121 148.756 111.289 148.929C111.457 149.097 111.65 149.232 111.87 149.335C112.094 149.433 112.329 149.482 112.577 149.482ZM115.75 145.086L115.771 145.093L118.844 148.446V145.31L119.53 145.198V150.112L119.509 150.105L116.436 146.752V150L115.75 150.084V145.086ZM125.214 147.599C125.214 147.949 125.146 148.278 125.011 148.586C124.88 148.889 124.7 149.155 124.472 149.384C124.248 149.608 123.982 149.785 123.674 149.916C123.37 150.047 123.044 150.112 122.694 150.112C122.339 150.112 122.008 150.047 121.7 149.916C121.396 149.785 121.13 149.606 120.902 149.377C120.678 149.148 120.5 148.882 120.37 148.579C120.239 148.271 120.174 147.944 120.174 147.599C120.174 147.249 120.239 146.922 120.37 146.619C120.505 146.311 120.685 146.045 120.909 145.821C121.137 145.592 121.403 145.413 121.707 145.282C122.015 145.151 122.344 145.086 122.694 145.086C123.048 145.086 123.377 145.154 123.681 145.289C123.989 145.42 124.255 145.599 124.479 145.828C124.707 146.052 124.887 146.318 125.018 146.626C125.148 146.929 125.214 147.254 125.214 147.599ZM122.694 149.482C122.936 149.482 123.167 149.433 123.387 149.335C123.611 149.232 123.807 149.097 123.975 148.929C124.143 148.756 124.276 148.556 124.374 148.327C124.476 148.098 124.528 147.856 124.528 147.599C124.528 147.347 124.479 147.107 124.381 146.878C124.283 146.649 124.15 146.451 123.982 146.283C123.818 146.11 123.625 145.973 123.401 145.87C123.177 145.767 122.939 145.716 122.687 145.716C122.449 145.716 122.218 145.765 121.994 145.863C121.774 145.961 121.581 146.096 121.413 146.269C121.245 146.437 121.109 146.635 121.007 146.864C120.909 147.093 120.86 147.338 120.86 147.599C120.86 147.856 120.909 148.098 121.007 148.327C121.105 148.556 121.238 148.756 121.406 148.929C121.574 149.097 121.767 149.232 121.987 149.335C122.211 149.433 122.446 149.482 122.694 149.482ZM127.183 145.198C127.416 145.198 127.631 145.233 127.827 145.303C128.023 145.368 128.191 145.464 128.331 145.59C128.476 145.716 128.588 145.865 128.667 146.038C128.746 146.211 128.786 146.402 128.786 146.612C128.786 146.831 128.756 147.037 128.695 147.228C128.634 147.415 128.529 147.578 128.38 147.718C128.235 147.858 128.042 147.968 127.799 148.047C127.556 148.126 127.253 148.166 126.889 148.166H126.553V150L125.867 150.084V145.198H127.183ZM127.106 147.536C127.26 147.536 127.398 147.522 127.519 147.494C127.64 147.461 127.743 147.41 127.827 147.34C127.916 147.265 127.983 147.17 128.03 147.053C128.077 146.932 128.1 146.785 128.1 146.612C128.1 146.351 128.009 146.155 127.827 146.024C127.65 145.893 127.409 145.828 127.106 145.828H126.553V147.536H127.106ZM134.162 147.599C134.162 147.949 134.094 148.278 133.959 148.586C133.828 148.889 133.649 149.155 133.42 149.384C133.196 149.608 132.93 149.785 132.622 149.916C132.319 150.047 131.992 150.112 131.642 150.112C131.287 150.112 130.956 150.047 130.648 149.916C130.345 149.785 130.079 149.606 129.85 149.377C129.626 149.148 129.449 148.882 129.318 148.579C129.187 148.271 129.122 147.944 129.122 147.599C129.122 147.249 129.187 146.922 129.318 146.619C129.453 146.311 129.633 146.045 129.857 145.821C130.086 145.592 130.352 145.413 130.655 145.282C130.963 145.151 131.292 145.086 131.642 145.086C131.997 145.086 132.326 145.154 132.629 145.289C132.937 145.42 133.203 145.599 133.427 145.828C133.656 146.052 133.835 146.318 133.966 146.626C134.097 146.929 134.162 147.254 134.162 147.599ZM131.642 149.482C131.885 149.482 132.116 149.433 132.335 149.335C132.559 149.232 132.755 149.097 132.923 148.929C133.091 148.756 133.224 148.556 133.322 148.327C133.425 148.098 133.476 147.856 133.476 147.599C133.476 147.347 133.427 147.107 133.329 146.878C133.231 146.649 133.098 146.451 132.93 146.283C132.767 146.11 132.573 145.973 132.349 145.87C132.125 145.767 131.887 145.716 131.635 145.716C131.397 145.716 131.166 145.765 130.942 145.863C130.723 145.961 130.529 146.096 130.361 146.269C130.193 146.437 130.058 146.635 129.955 146.864C129.857 147.093 129.808 147.338 129.808 147.599C129.808 147.856 129.857 148.098 129.955 148.327C130.053 148.556 130.186 148.756 130.354 148.929C130.522 149.097 130.716 149.232 130.935 149.335C131.159 149.433 131.395 149.482 131.642 149.482ZM135.522 149.37H137.559L137.279 150H134.836V145.198L135.522 145.086V149.37ZM137.655 145.086L139.048 147.424L140.056 145.086L140.714 145.289L138.558 150.112L137.886 149.965L138.726 148.152L136.983 145.282L137.655 145.086Z" fill="black"/>
</svg>
