<svg width="244" height="157" viewBox="0 0 244 157" fill="none" xmlns="http://www.w3.org/2000/svg">
<rect width="244" height="157" fill="white"/>
<rect x="9" y="9" width="226" height="139" stroke="black"/>
<path d="M106.19 23.036C105.966 22.876 105.73 22.74 105.482 22.628C105.234 22.508 104.97 22.448 104.69 22.448C104.346 22.448 104.026 22.508 103.73 22.628C103.442 22.74 103.194 22.904 102.986 23.12C102.778 23.328 102.614 23.58 102.494 23.876C102.374 24.172 102.314 24.5 102.314 24.86C102.314 25.228 102.37 25.564 102.482 25.868C102.602 26.164 102.766 26.42 102.974 26.636C103.182 26.852 103.43 27.02 103.718 27.14C104.014 27.26 104.338 27.32 104.69 27.32C104.97 27.32 105.238 27.26 105.494 27.14C105.758 27.012 106.006 26.868 106.238 26.708L105.986 28.892C105.906 28.94 105.802 28.98 105.674 29.012C105.546 29.052 105.41 29.084 105.266 29.108C105.13 29.132 104.994 29.152 104.858 29.168C104.73 29.184 104.626 29.192 104.546 29.192C103.922 29.192 103.346 29.088 102.818 28.88C102.298 28.672 101.846 28.38 101.462 28.004C101.086 27.628 100.794 27.18 100.586 26.66C100.378 26.132 100.274 25.548 100.274 24.908C100.274 24.3 100.378 23.732 100.586 23.204C100.794 22.676 101.086 22.216 101.462 21.824C101.838 21.432 102.286 21.128 102.806 20.912C103.334 20.688 103.91 20.576 104.534 20.576C104.774 20.576 105.006 20.596 105.23 20.636C105.454 20.676 105.67 20.744 105.878 20.84L106.19 23.036ZM109.342 23.768H111.982V20.768L114.022 20.576V28.904L111.982 29.096V25.64H109.342V28.904L107.302 29.096V20.768L109.342 20.576V23.768ZM118.642 20.576H118.666L123.106 28.772L121.03 29.192L120.19 27.428L117.058 27.428L116.23 29.192L114.25 28.772L118.642 20.576ZM117.55 25.904L119.734 25.904L118.642 23.888L117.55 25.904ZM123.274 20.576H123.298L128.686 25.184V20.768L130.726 20.576V29.192H130.702L125.314 24.488V28.904L123.274 29.096V20.576ZM137.526 23.036C137.302 22.876 137.066 22.74 136.818 22.628C136.57 22.508 136.306 22.448 136.026 22.448C135.682 22.448 135.362 22.508 135.066 22.628C134.778 22.74 134.53 22.904 134.322 23.12C134.114 23.328 133.95 23.58 133.83 23.876C133.71 24.172 133.65 24.5 133.65 24.86C133.65 25.228 133.706 25.564 133.818 25.868C133.938 26.164 134.102 26.42 134.31 26.636C134.518 26.852 134.766 27.02 135.054 27.14C135.35 27.26 135.674 27.32 136.026 27.32C136.306 27.32 136.574 27.26 136.83 27.14C137.094 27.012 137.342 26.868 137.574 26.708L137.322 28.892C137.242 28.94 137.138 28.98 137.01 29.012C136.882 29.052 136.746 29.084 136.602 29.108C136.466 29.132 136.33 29.152 136.194 29.168C136.066 29.184 135.962 29.192 135.882 29.192C135.258 29.192 134.682 29.088 134.154 28.88C133.634 28.672 133.182 28.38 132.798 28.004C132.422 27.628 132.13 27.18 131.922 26.66C131.714 26.132 131.61 25.548 131.61 24.908C131.61 24.3 131.714 23.732 131.922 23.204C132.13 22.676 132.422 22.216 132.798 21.824C133.174 21.432 133.622 21.128 134.142 20.912C134.67 20.688 135.246 20.576 135.87 20.576C136.11 20.576 136.342 20.596 136.566 20.636C136.79 20.676 137.006 20.744 137.214 20.84L137.526 23.036ZM143.294 20.768L143.654 22.508H140.678V23.936H142.802V25.676H140.678V27.26H143.906L143.402 29H138.638V20.768H143.294Z" fill="black"/>
<rect width="194" height="95" transform="translate(25 37)" fill="white"/>
<path d="M32.8292 53.682L34.3412 57.966H34.3592L35.9342 53.682L36.8162 53.826L34.3592 60.144H34.3412L31.9562 53.826L32.8292 53.682ZM43.3772 56.913C43.3772 57.363 43.2902 57.786 43.1162 58.182C42.9482 58.572 42.7172 58.914 42.4232 59.208C42.1352 59.496 41.7932 59.724 41.3972 59.892C41.0072 60.06 40.5872 60.144 40.1372 60.144C39.6812 60.144 39.2552 60.06 38.8592 59.892C38.4692 59.724 38.1272 59.493 37.8332 59.199C37.5452 58.905 37.3172 58.563 37.1492 58.173C36.9812 57.777 36.8972 57.357 36.8972 56.913C36.8972 56.463 36.9812 56.043 37.1492 55.653C37.3232 55.257 37.5542 54.915 37.8422 54.627C38.1362 54.333 38.4782 54.102 38.8682 53.934C39.2642 53.766 39.6872 53.682 40.1372 53.682C40.5932 53.682 41.0162 53.769 41.4062 53.943C41.8022 54.111 42.1442 54.342 42.4322 54.636C42.7262 54.924 42.9572 55.266 43.1252 55.662C43.2932 56.052 43.3772 56.469 43.3772 56.913ZM40.1372 59.334C40.4492 59.334 40.7462 59.271 41.0282 59.145C41.3162 59.013 41.5682 58.839 41.7842 58.623C42.0002 58.401 42.1712 58.143 42.2972 57.849C42.4292 57.555 42.4952 57.243 42.4952 56.913C42.4952 56.589 42.4322 56.28 42.3062 55.986C42.1802 55.692 42.0092 55.437 41.7932 55.221C41.5832 54.999 41.3342 54.822 41.0462 54.69C40.7582 54.558 40.4522 54.492 40.1282 54.492C39.8222 54.492 39.5252 54.555 39.2372 54.681C38.9552 54.807 38.7062 54.981 38.4902 55.203C38.2742 55.419 38.1002 55.674 37.9682 55.968C37.8422 56.262 37.7792 56.577 37.7792 56.913C37.7792 57.243 37.8422 57.555 37.9682 57.849C38.0942 58.143 38.2652 58.401 38.4812 58.623C38.6972 58.839 38.9462 59.013 39.2282 59.145C39.5162 59.271 39.8192 59.334 40.1372 59.334ZM45.0901 58.101C45.0901 58.467 45.1921 58.764 45.3961 58.992C45.6061 59.22 45.9181 59.334 46.3321 59.334C46.7821 59.334 47.1211 59.226 47.3491 59.01C47.5771 58.788 47.6911 58.488 47.6911 58.11V53.826L48.5731 53.682V57.309C48.5731 57.531 48.5671 57.756 48.5551 57.984C48.5491 58.212 48.5251 58.431 48.4831 58.641C48.4471 58.851 48.3841 59.049 48.2941 59.235C48.2101 59.415 48.0901 59.574 47.9341 59.712C47.7781 59.844 47.5801 59.949 47.3401 60.027C47.1061 60.105 46.8181 60.144 46.4761 60.144C46.0501 60.144 45.6901 60.102 45.3961 60.018C45.1081 59.934 44.8741 59.796 44.6941 59.604C44.5201 59.406 44.3941 59.151 44.3161 58.839C44.2441 58.521 44.2081 58.131 44.2081 57.669V53.826L45.0901 53.682V58.101ZM52.6261 55.176C52.3861 54.912 52.1731 54.732 51.9871 54.636C51.8011 54.54 51.6181 54.492 51.4381 54.492C51.1501 54.492 50.9161 54.576 50.7361 54.744C50.5561 54.912 50.4661 55.143 50.4661 55.437C50.4661 55.575 50.4961 55.695 50.5561 55.797C50.6221 55.893 50.7091 55.98 50.8171 56.058C50.9311 56.136 51.0661 56.208 51.2221 56.274C51.3781 56.334 51.5491 56.4 51.7351 56.472C51.9571 56.556 52.1611 56.646 52.3471 56.742C52.5391 56.838 52.7041 56.955 52.8421 57.093C52.9801 57.231 53.0881 57.396 53.1661 57.588C53.2501 57.774 53.2921 57.999 53.2921 58.263C53.2921 58.545 53.2411 58.8 53.1391 59.028C53.0371 59.256 52.8991 59.454 52.7251 59.622C52.5511 59.79 52.3471 59.919 52.1131 60.009C51.8851 60.099 51.6391 60.144 51.3751 60.144C51.2011 60.144 51.0361 60.126 50.8801 60.09C50.7241 60.06 50.5681 60.006 50.4121 59.928C50.2621 59.85 50.1061 59.748 49.9441 59.622C49.7881 59.49 49.6261 59.331 49.4581 59.145L50.1061 58.605C50.2321 58.803 50.3971 58.974 50.6011 59.118C50.8051 59.262 51.0331 59.334 51.2851 59.334C51.4411 59.334 51.5851 59.316 51.7171 59.28C51.8551 59.238 51.9751 59.175 52.0771 59.091C52.1791 59.007 52.2601 58.896 52.3201 58.758C52.3801 58.62 52.4101 58.452 52.4101 58.254C52.4101 58.14 52.3681 58.035 52.2841 57.939C52.2001 57.837 52.0951 57.747 51.9691 57.669C51.8491 57.591 51.7231 57.522 51.5911 57.462C51.4591 57.396 51.3451 57.339 51.2491 57.291C51.0511 57.195 50.8531 57.093 50.6551 56.985C50.4571 56.871 50.2771 56.742 50.1151 56.598C49.9591 56.454 49.8301 56.289 49.7281 56.103C49.6321 55.911 49.5841 55.683 49.5841 55.419C49.5841 55.161 49.6291 54.927 49.7191 54.717C49.8091 54.501 49.9351 54.318 50.0971 54.168C50.2651 54.012 50.4661 53.892 50.7001 53.808C50.9341 53.724 51.1951 53.682 51.4831 53.682C51.7891 53.682 52.0981 53.757 52.4101 53.907C52.7221 54.057 52.9921 54.282 53.2201 54.582L52.6261 55.176ZM59.9369 53.826L60.0899 54.636H57.6329V56.382H59.5229V57.192H57.6329V60L56.7509 60.108V53.826H59.9369ZM62.819 53.682L65.96 59.964L65.078 60.144L64.025 58.02H61.541L60.497 60.144L59.669 59.964L62.801 53.682H62.819ZM61.91 57.21H63.665L62.783 55.437L61.91 57.21ZM67.2559 60L66.3739 60.072V53.826L67.2559 53.682V60ZM71.69 53.826V54.636H70.25V60L69.368 60.108V54.636H67.766L68.045 53.826H71.69ZM75.7071 53.826L75.8961 54.636H73.2951V56.382H75.3741V57.192H73.2951V59.19H76.0941L75.8421 60H72.4131V53.826H75.7071ZM79.7931 55.176C79.5531 54.912 79.3401 54.732 79.1541 54.636C78.9681 54.54 78.7851 54.492 78.6051 54.492C78.3171 54.492 78.0831 54.576 77.9031 54.744C77.7231 54.912 77.6331 55.143 77.6331 55.437C77.6331 55.575 77.6631 55.695 77.7231 55.797C77.7891 55.893 77.8761 55.98 77.9841 56.058C78.0981 56.136 78.2331 56.208 78.3891 56.274C78.5451 56.334 78.7161 56.4 78.9021 56.472C79.1241 56.556 79.3281 56.646 79.5141 56.742C79.7061 56.838 79.8711 56.955 80.0091 57.093C80.1471 57.231 80.2551 57.396 80.3331 57.588C80.4171 57.774 80.4591 57.999 80.4591 58.263C80.4591 58.545 80.4081 58.8 80.3061 59.028C80.2041 59.256 80.0661 59.454 79.8921 59.622C79.7181 59.79 79.5141 59.919 79.2801 60.009C79.0521 60.099 78.8061 60.144 78.5421 60.144C78.3681 60.144 78.2031 60.126 78.0471 60.09C77.8911 60.06 77.7351 60.006 77.5791 59.928C77.4291 59.85 77.2731 59.748 77.1111 59.622C76.9551 59.49 76.7931 59.331 76.6251 59.145L77.2731 58.605C77.3991 58.803 77.5641 58.974 77.7681 59.118C77.9721 59.262 78.2001 59.334 78.4521 59.334C78.6081 59.334 78.7521 59.316 78.8841 59.28C79.0221 59.238 79.1421 59.175 79.2441 59.091C79.3461 59.007 79.4271 58.896 79.4871 58.758C79.5471 58.62 79.5771 58.452 79.5771 58.254C79.5771 58.14 79.5351 58.035 79.4511 57.939C79.3671 57.837 79.2621 57.747 79.1361 57.669C79.0161 57.591 78.8901 57.522 78.7581 57.462C78.6261 57.396 78.5121 57.339 78.4161 57.291C78.2181 57.195 78.0201 57.093 77.8221 56.985C77.6241 56.871 77.4441 56.742 77.2821 56.598C77.1261 56.454 76.9971 56.289 76.8951 56.103C76.7991 55.911 76.7511 55.683 76.7511 55.419C76.7511 55.161 76.7961 54.927 76.8861 54.717C76.9761 54.501 77.1021 54.318 77.2641 54.168C77.4321 54.012 77.6331 53.892 77.8671 53.808C78.1011 53.724 78.3621 53.682 78.6501 53.682C78.9561 53.682 79.2651 53.757 79.5771 53.907C79.8891 54.057 80.1591 54.282 80.3871 54.582L79.7931 55.176ZM84.7639 58.101C84.7639 58.467 84.8659 58.764 85.0699 58.992C85.2799 59.22 85.5919 59.334 86.0059 59.334C86.4559 59.334 86.7949 59.226 87.0229 59.01C87.2509 58.788 87.3649 58.488 87.3649 58.11V53.826L88.2469 53.682V57.309C88.2469 57.531 88.2409 57.756 88.2289 57.984C88.2229 58.212 88.1989 58.431 88.1569 58.641C88.1209 58.851 88.0579 59.049 87.9679 59.235C87.8839 59.415 87.7639 59.574 87.6079 59.712C87.4519 59.844 87.2539 59.949 87.0139 60.027C86.7799 60.105 86.4919 60.144 86.1499 60.144C85.7239 60.144 85.3639 60.102 85.0699 60.018C84.7819 59.934 84.5479 59.796 84.3679 59.604C84.1939 59.406 84.0679 59.151 83.9899 58.839C83.9179 58.521 83.8819 58.131 83.8819 57.669V53.826L84.7639 53.682V58.101ZM89.3929 53.682L89.4199 53.691L93.3709 58.002V53.97L94.2529 53.826V60.144L94.2259 60.135L90.2749 55.824V60L89.3929 60.108V53.682ZM98.7168 53.826L98.9058 54.636H96.3048V56.382H98.3838V57.192H96.3048V59.19L99.1038 59.19L98.8518 60L95.4228 60V53.826H98.7168ZM105.614 53.826L105.767 54.636H103.31V56.382H105.2V57.192H103.31V60L102.428 60.108V53.826H105.614ZM109.721 53.826L109.91 54.636H107.309V56.382H109.388V57.192H107.309V59.19H110.108L109.856 60H106.427V53.826H109.721ZM112.349 53.826C112.625 53.826 112.886 53.865 113.132 53.943C113.378 54.015 113.594 54.129 113.78 54.285C113.966 54.441 114.113 54.636 114.221 54.87C114.329 55.104 114.383 55.38 114.383 55.698C114.383 56.166 114.26 56.529 114.014 56.787C113.768 57.039 113.435 57.213 113.015 57.309L114.878 59.892L113.888 60.144L111.737 57.003H111.719V60L110.837 60.108V53.826H112.349ZM112.367 56.805C112.511 56.805 112.652 56.778 112.79 56.724C112.928 56.67 113.048 56.595 113.15 56.499C113.258 56.403 113.342 56.289 113.402 56.157C113.468 56.019 113.501 55.866 113.501 55.698C113.501 55.512 113.471 55.353 113.411 55.221C113.351 55.083 113.27 54.972 113.168 54.888C113.066 54.804 112.946 54.741 112.808 54.699C112.676 54.657 112.532 54.636 112.376 54.636H111.719V56.805H112.367ZM116.183 53.682H116.201L118.334 58.389L120.44 53.682H120.458L121.718 60L120.863 60.108L120.116 56.202H120.098L118.343 60.072H118.325L116.525 56.202H116.507L115.778 60.108L114.932 60L116.183 53.682ZM125.726 53.826L125.915 54.636H123.314V56.382H125.393V57.192H123.314V59.19H126.113L125.861 60H122.432V53.826H125.726ZM130.984 53.826C131.428 53.826 131.839 53.91 132.217 54.078C132.595 54.246 132.919 54.471 133.189 54.753C133.465 55.035 133.681 55.362 133.837 55.734C133.993 56.106 134.071 56.499 134.071 56.913C134.071 57.327 133.993 57.72 133.837 58.092C133.681 58.464 133.465 58.794 133.189 59.082C132.913 59.364 132.586 59.589 132.208 59.757C131.836 59.919 131.431 60 130.993 60H129.418V53.826H130.984ZM130.957 59.19C131.233 59.19 131.503 59.136 131.767 59.028C132.037 58.92 132.277 58.767 132.487 58.569C132.697 58.365 132.865 58.125 132.991 57.849C133.123 57.567 133.189 57.255 133.189 56.913C133.189 56.577 133.123 56.271 132.991 55.995C132.865 55.713 132.697 55.473 132.487 55.275C132.277 55.071 132.037 54.915 131.767 54.807C131.503 54.693 131.23 54.636 130.948 54.636H130.3V59.19H130.957ZM138.232 53.826L138.421 54.636H135.82V56.382H137.899V57.192H135.82V59.19H138.619L138.367 60H134.938V53.826H138.232ZM145.768 54.789C145.606 54.675 145.441 54.597 145.273 54.555C145.105 54.513 144.925 54.492 144.733 54.492C144.415 54.492 144.118 54.561 143.842 54.699C143.572 54.831 143.335 55.008 143.131 55.23C142.927 55.446 142.768 55.698 142.654 55.986C142.54 56.274 142.483 56.571 142.483 56.877C142.483 57.201 142.54 57.513 142.654 57.813C142.768 58.107 142.924 58.368 143.122 58.596C143.32 58.818 143.551 58.998 143.815 59.136C144.085 59.268 144.376 59.334 144.688 59.334C144.898 59.334 145.108 59.301 145.318 59.235C145.534 59.163 145.729 59.07 145.903 58.956L145.741 59.919C145.555 59.985 145.375 60.039 145.201 60.081C145.033 60.123 144.856 60.144 144.67 60.144C144.256 60.144 143.863 60.06 143.491 59.892C143.119 59.724 142.792 59.496 142.51 59.208C142.234 58.914 142.012 58.572 141.844 58.182C141.682 57.786 141.601 57.363 141.601 56.913C141.601 56.505 141.685 56.109 141.853 55.725C142.021 55.335 142.24 54.99 142.51 54.69C142.786 54.384 143.098 54.141 143.446 53.961C143.794 53.775 144.151 53.682 144.517 53.682C144.697 53.682 144.874 53.697 145.048 53.727C145.228 53.751 145.405 53.787 145.579 53.835L145.768 54.789ZM148.366 53.826C148.642 53.826 148.903 53.865 149.149 53.943C149.395 54.015 149.611 54.129 149.797 54.285C149.983 54.441 150.13 54.636 150.238 54.87C150.346 55.104 150.4 55.38 150.4 55.698C150.4 56.166 150.277 56.529 150.031 56.787C149.785 57.039 149.452 57.213 149.032 57.309L150.895 59.892L149.905 60.144L147.754 57.003H147.736V60L146.854 60.108V53.826H148.366ZM148.384 56.805C148.528 56.805 148.669 56.778 148.807 56.724C148.945 56.67 149.065 56.595 149.167 56.499C149.275 56.403 149.359 56.289 149.419 56.157C149.485 56.019 149.518 55.866 149.518 55.698C149.518 55.512 149.488 55.353 149.428 55.221C149.368 55.083 149.287 54.972 149.185 54.888C149.083 54.804 148.963 54.741 148.825 54.699C148.693 54.657 148.549 54.636 148.393 54.636H147.736V56.805H148.384ZM151.561 53.682L153.352 56.688L154.648 53.682L155.494 53.943L152.722 60.144L151.858 59.955L152.938 57.624L150.697 53.934L151.561 53.682ZM157.609 53.826C157.909 53.826 158.185 53.871 158.437 53.961C158.689 54.045 158.905 54.168 159.085 54.33C159.271 54.492 159.415 54.684 159.517 54.906C159.619 55.128 159.67 55.374 159.67 55.644C159.67 55.926 159.631 56.19 159.553 56.436C159.475 56.676 159.34 56.886 159.148 57.066C158.962 57.246 158.713 57.387 158.401 57.489C158.089 57.591 157.699 57.642 157.231 57.642H156.799V60L155.917 60.108V53.826H157.609ZM157.51 56.832C157.708 56.832 157.885 56.814 158.041 56.778C158.197 56.736 158.329 56.67 158.437 56.58C158.551 56.484 158.638 56.361 158.698 56.211C158.758 56.055 158.788 55.866 158.788 55.644C158.788 55.308 158.671 55.056 158.437 54.888C158.209 54.72 157.9 54.636 157.51 54.636H156.799V56.832H157.51ZM163.72 53.826V54.636H162.28V60L161.398 60.108V54.636H159.796L160.075 53.826H163.72ZM170.581 56.913C170.581 57.363 170.494 57.786 170.32 58.182C170.152 58.572 169.921 58.914 169.627 59.208C169.339 59.496 168.997 59.724 168.601 59.892C168.211 60.06 167.791 60.144 167.341 60.144C166.885 60.144 166.459 60.06 166.063 59.892C165.673 59.724 165.331 59.493 165.037 59.199C164.749 58.905 164.521 58.563 164.353 58.173C164.185 57.777 164.101 57.357 164.101 56.913C164.101 56.463 164.185 56.043 164.353 55.653C164.527 55.257 164.758 54.915 165.046 54.627C165.34 54.333 165.682 54.102 166.072 53.934C166.468 53.766 166.891 53.682 167.341 53.682C167.797 53.682 168.22 53.769 168.61 53.943C169.006 54.111 169.348 54.342 169.636 54.636C169.93 54.924 170.161 55.266 170.329 55.662C170.497 56.052 170.581 56.469 170.581 56.913ZM167.341 59.334C167.653 59.334 167.95 59.271 168.232 59.145C168.52 59.013 168.772 58.839 168.988 58.623C169.204 58.401 169.375 58.143 169.501 57.849C169.633 57.555 169.699 57.243 169.699 56.913C169.699 56.589 169.636 56.28 169.51 55.986C169.384 55.692 169.213 55.437 168.997 55.221C168.787 54.999 168.538 54.822 168.25 54.69C167.962 54.558 167.656 54.492 167.332 54.492C167.026 54.492 166.729 54.555 166.441 54.681C166.159 54.807 165.91 54.981 165.694 55.203C165.478 55.419 165.304 55.674 165.172 55.968C165.046 56.262 164.983 56.577 164.983 56.913C164.983 57.243 165.046 57.555 165.172 57.849C165.298 58.143 165.469 58.401 165.685 58.623C165.901 58.839 166.15 59.013 166.432 59.145C166.72 59.271 167.023 59.334 167.341 59.334ZM172.204 53.682H172.222L174.355 58.389L176.461 53.682H176.479L177.739 60L176.884 60.108L176.137 56.202H176.119L174.364 60.072H174.346L172.546 56.202H172.528L171.799 60.108L170.953 60L172.204 53.682ZM184.591 56.913C184.591 57.363 184.504 57.786 184.33 58.182C184.162 58.572 183.931 58.914 183.637 59.208C183.349 59.496 183.007 59.724 182.611 59.892C182.221 60.06 181.801 60.144 181.351 60.144C180.895 60.144 180.469 60.06 180.073 59.892C179.683 59.724 179.341 59.493 179.047 59.199C178.759 58.905 178.531 58.563 178.363 58.173C178.195 57.777 178.111 57.357 178.111 56.913C178.111 56.463 178.195 56.043 178.363 55.653C178.537 55.257 178.768 54.915 179.056 54.627C179.35 54.333 179.692 54.102 180.082 53.934C180.478 53.766 180.901 53.682 181.351 53.682C181.807 53.682 182.23 53.769 182.62 53.943C183.016 54.111 183.358 54.342 183.646 54.636C183.94 54.924 184.171 55.266 184.339 55.662C184.507 56.052 184.591 56.469 184.591 56.913ZM181.351 59.334C181.663 59.334 181.96 59.271 182.242 59.145C182.53 59.013 182.782 58.839 182.998 58.623C183.214 58.401 183.385 58.143 183.511 57.849C183.643 57.555 183.709 57.243 183.709 56.913C183.709 56.589 183.646 56.28 183.52 55.986C183.394 55.692 183.223 55.437 183.007 55.221C182.797 54.999 182.548 54.822 182.26 54.69C181.972 54.558 181.666 54.492 181.342 54.492C181.036 54.492 180.739 54.555 180.451 54.681C180.169 54.807 179.92 54.981 179.704 55.203C179.488 55.419 179.314 55.674 179.182 55.968C179.056 56.262 178.993 56.577 178.993 56.913C178.993 57.243 179.056 57.555 179.182 57.849C179.308 58.143 179.479 58.401 179.695 58.623C179.911 58.839 180.16 59.013 180.442 59.145C180.73 59.271 181.033 59.334 181.351 59.334ZM185.431 53.682L185.458 53.691L189.409 58.002V53.97L190.291 53.826V60.144L190.264 60.135L186.313 55.824V60L185.431 60.108V53.682ZM191.434 53.682L191.461 53.691L195.412 58.002V53.97L196.294 53.826V60.144L196.267 60.135L192.316 55.824V60L191.434 60.108V53.682ZM199.867 53.682L203.008 59.964L202.126 60.144L201.073 58.02H198.589L197.545 60.144L196.717 59.964L199.849 53.682H199.867ZM198.958 57.21H200.713L199.831 55.437L198.958 57.21ZM204.304 60L203.422 60.072V53.826L204.304 53.682V60ZM208.756 53.826L208.945 54.636H206.344V56.382H208.423V57.192H206.344V59.19L209.143 59.19L208.891 60H205.462V53.826H208.756ZM210.61 58.533L211.195 59.307L210.61 60.081L210.025 59.307L210.61 58.533Z" fill="black"/>
<path d="M85.2311 64.682L88.3721 70.964L87.4901 71.144L86.4371 69.02H83.9531L82.9091 71.144L82.0811 70.964L85.2131 64.682H85.2311ZM84.3221 68.21H86.0771L85.1951 66.437L84.3221 68.21ZM88.4288 64.682L89.9408 68.966H89.9588L91.5338 64.682L92.4158 64.826L89.9588 71.144H89.9408L87.5558 64.826L88.4288 64.682ZM94.7497 64.682L97.8907 70.964L97.0087 71.144L95.9557 69.02H93.4717L92.4277 71.144L91.5997 70.964L94.7317 64.682H94.7497ZM93.8407 68.21H95.5957L94.7137 66.437L93.8407 68.21ZM98.3226 64.682L98.3496 64.691L102.301 69.002V64.97L103.183 64.826V71.144L103.156 71.135L99.2046 66.824V71L98.3226 71.108V64.682ZM108.178 65.789C108.016 65.675 107.851 65.597 107.683 65.555C107.515 65.513 107.335 65.492 107.143 65.492C106.825 65.492 106.528 65.561 106.252 65.699C105.982 65.831 105.745 66.008 105.541 66.23C105.337 66.446 105.178 66.698 105.064 66.986C104.95 67.274 104.893 67.571 104.893 67.877C104.893 68.201 104.95 68.513 105.064 68.813C105.178 69.107 105.334 69.368 105.532 69.596C105.73 69.818 105.961 69.998 106.225 70.136C106.495 70.268 106.786 70.334 107.098 70.334C107.308 70.334 107.518 70.301 107.728 70.235C107.944 70.163 108.139 70.07 108.313 69.956L108.151 70.919C107.965 70.985 107.785 71.039 107.611 71.081C107.443 71.123 107.266 71.144 107.08 71.144C106.666 71.144 106.273 71.06 105.901 70.892C105.529 70.724 105.202 70.496 104.92 70.208C104.644 69.914 104.422 69.572 104.254 69.182C104.092 68.786 104.011 68.363 104.011 67.913C104.011 67.505 104.095 67.109 104.263 66.725C104.431 66.335 104.65 65.99 104.92 65.69C105.196 65.384 105.508 65.141 105.856 64.961C106.204 64.775 106.561 64.682 106.927 64.682C107.107 64.682 107.284 64.697 107.458 64.727C107.638 64.751 107.815 64.787 107.989 64.835L108.178 65.789ZM112.647 64.826L112.836 65.636H110.235V67.382H112.314V68.192H110.235V70.19H113.034L112.782 71H109.353V64.826H112.647ZM117.975 64.826L114.735 70.19H118.137L117.921 71H113.376L116.652 65.636H113.511L113.691 64.826H117.975ZM123.762 64.682L126.903 70.964L126.021 71.144L124.968 69.02H122.484L121.44 71.144L120.612 70.964L123.744 64.682H123.762ZM122.853 68.21H124.608L123.726 66.437L122.853 68.21ZM123.627 63.17L124.437 64.466H123.699L122.421 63.17H123.627ZM130.749 70.19H133.368L133.008 71H129.867V64.826L130.749 64.682V70.19ZM136.269 64.682L139.41 70.964L138.528 71.144L137.475 69.02H134.991L133.947 71.144L133.119 70.964L136.251 64.682H136.269ZM135.36 68.21H137.115L136.233 66.437L135.36 68.21ZM146.199 65.789C146.037 65.675 145.872 65.597 145.704 65.555C145.536 65.513 145.356 65.492 145.164 65.492C144.846 65.492 144.549 65.561 144.273 65.699C144.003 65.831 143.766 66.008 143.562 66.23C143.358 66.446 143.199 66.698 143.085 66.986C142.971 67.274 142.914 67.571 142.914 67.877C142.914 68.201 142.971 68.513 143.085 68.813C143.199 69.107 143.355 69.368 143.553 69.596C143.751 69.818 143.982 69.998 144.246 70.136C144.516 70.268 144.807 70.334 145.119 70.334C145.329 70.334 145.539 70.301 145.749 70.235C145.965 70.163 146.16 70.07 146.334 69.956L146.172 70.919C145.986 70.985 145.806 71.039 145.632 71.081C145.464 71.123 145.287 71.144 145.101 71.144C144.687 71.144 144.294 71.06 143.922 70.892C143.55 70.724 143.223 70.496 142.941 70.208C142.665 69.914 142.443 69.572 142.275 69.182C142.113 68.786 142.032 68.363 142.032 67.913C142.032 67.505 142.116 67.109 142.284 66.725C142.452 66.335 142.671 65.99 142.941 65.69C143.217 65.384 143.529 65.141 143.877 64.961C144.225 64.775 144.582 64.682 144.948 64.682C145.128 64.682 145.305 64.697 145.479 64.727C145.659 64.751 145.836 64.787 146.01 64.835L146.199 65.789ZM149.778 64.682L152.919 70.964L152.037 71.144L150.984 69.02H148.5L147.456 71.144L146.628 70.964L149.76 64.682H149.778ZM148.869 68.21H150.624L149.742 66.437L148.869 68.21ZM156.258 66.176C156.018 65.912 155.805 65.732 155.619 65.636C155.433 65.54 155.25 65.492 155.07 65.492C154.782 65.492 154.548 65.576 154.368 65.744C154.188 65.912 154.098 66.143 154.098 66.437C154.098 66.575 154.128 66.695 154.188 66.797C154.254 66.893 154.341 66.98 154.449 67.058C154.563 67.136 154.698 67.208 154.854 67.274C155.01 67.334 155.181 67.4 155.367 67.472C155.589 67.556 155.793 67.646 155.979 67.742C156.171 67.838 156.336 67.955 156.474 68.093C156.612 68.231 156.72 68.396 156.798 68.588C156.882 68.774 156.924 68.999 156.924 69.263C156.924 69.545 156.873 69.8 156.771 70.028C156.669 70.256 156.531 70.454 156.357 70.622C156.183 70.79 155.979 70.919 155.745 71.009C155.517 71.099 155.271 71.144 155.007 71.144C154.833 71.144 154.668 71.126 154.512 71.09C154.356 71.06 154.2 71.006 154.044 70.928C153.894 70.85 153.738 70.748 153.576 70.622C153.42 70.49 153.258 70.331 153.09 70.145L153.738 69.605C153.864 69.803 154.029 69.974 154.233 70.118C154.437 70.262 154.665 70.334 154.917 70.334C155.073 70.334 155.217 70.316 155.349 70.28C155.487 70.238 155.607 70.175 155.709 70.091C155.811 70.007 155.892 69.896 155.952 69.758C156.012 69.62 156.042 69.452 156.042 69.254C156.042 69.14 156 69.035 155.916 68.939C155.832 68.837 155.727 68.747 155.601 68.669C155.481 68.591 155.355 68.522 155.223 68.462C155.091 68.396 154.977 68.339 154.881 68.291C154.683 68.195 154.485 68.093 154.287 67.985C154.089 67.871 153.909 67.742 153.747 67.598C153.591 67.454 153.462 67.289 153.36 67.103C153.264 66.911 153.216 66.683 153.216 66.419C153.216 66.161 153.261 65.927 153.351 65.717C153.441 65.501 153.567 65.318 153.729 65.168C153.897 65.012 154.098 64.892 154.332 64.808C154.566 64.724 154.827 64.682 155.115 64.682C155.421 64.682 155.73 64.757 156.042 64.907C156.354 65.057 156.624 65.282 156.852 65.582L156.258 66.176ZM161.172 64.826L161.361 65.636H158.76V67.382H160.839V68.192H158.76V70.19H161.559L161.307 71H157.878V64.826H161.172ZM69.4811 75.682L72.6221 81.964L71.7401 82.144L70.6871 80.02H68.2031L67.1591 82.144L66.3311 81.964L69.4631 75.682H69.4811ZM68.5721 79.21H70.3271L69.4451 77.437L68.5721 79.21ZM72.6788 75.682L74.1908 79.966H74.2088L75.7838 75.682L76.6658 75.826L74.2088 82.144H74.1908L71.8058 75.826L72.6788 75.682ZM80.3828 75.826L80.5718 76.636H77.9708V78.382H80.0498V79.192H77.9708V81.19H80.7698L80.5178 82H77.0888V75.826H80.3828ZM81.5618 75.682L81.5888 75.691L85.5398 80.002V75.97L86.4218 75.826V82.144L86.3948 82.135L82.4438 77.824V82L81.5618 82.108V75.682ZM88.4378 80.101C88.4378 80.467 88.5398 80.764 88.7438 80.992C88.9538 81.22 89.2658 81.334 89.6798 81.334C90.1298 81.334 90.4688 81.226 90.6968 81.01C90.9248 80.788 91.0388 80.488 91.0388 80.11V75.826L91.9208 75.682V79.309C91.9208 79.531 91.9148 79.756 91.9028 79.984C91.8968 80.212 91.8728 80.431 91.8308 80.641C91.7948 80.851 91.7318 81.049 91.6418 81.235C91.5578 81.415 91.4378 81.574 91.2818 81.712C91.1258 81.844 90.9278 81.949 90.6878 82.027C90.4538 82.105 90.1658 82.144 89.8238 82.144C89.3978 82.144 89.0378 82.102 88.7438 82.018C88.4558 81.934 88.2218 81.796 88.0418 81.604C87.8678 81.406 87.7418 81.151 87.6638 80.839C87.5918 80.521 87.5558 80.131 87.5558 79.669V75.826L88.4378 75.682V80.101ZM96.3877 75.826L96.5767 76.636H93.9757V78.382H96.0547V79.192H93.9757V81.19H96.7747L96.5227 82H93.0937V75.826H96.3877ZM101.647 75.826C102.091 75.826 102.502 75.91 102.88 76.078C103.258 76.246 103.582 76.471 103.852 76.753C104.128 77.035 104.344 77.362 104.5 77.734C104.656 78.106 104.734 78.499 104.734 78.913C104.734 79.327 104.656 79.72 104.5 80.092C104.344 80.464 104.128 80.794 103.852 81.082C103.576 81.364 103.249 81.589 102.871 81.757C102.499 81.919 102.094 82 101.656 82H100.081V75.826H101.647ZM101.62 81.19C101.896 81.19 102.166 81.136 102.43 81.028C102.7 80.92 102.94 80.767 103.15 80.569C103.36 80.365 103.528 80.125 103.654 79.849C103.786 79.567 103.852 79.255 103.852 78.913C103.852 78.577 103.786 78.271 103.654 77.995C103.528 77.713 103.36 77.473 103.15 77.275C102.94 77.071 102.7 76.915 102.43 76.807C102.166 76.693 101.893 76.636 101.611 76.636H100.963V81.19H101.62ZM108.895 75.826L109.084 76.636H106.483V78.382H108.562V79.192H106.483V81.19H109.282L109.03 82H105.601V75.826H108.895ZM113.487 81.19H116.106L115.746 82H112.605V75.826L113.487 75.682V81.19ZM119.007 75.682L122.148 81.964L121.266 82.144L120.213 80.02H117.729L116.685 82.144L115.857 81.964L118.989 75.682H119.007ZM118.098 79.21H119.853L118.971 77.437L118.098 79.21ZM126.867 75.826C127.089 75.826 127.299 75.868 127.497 75.952C127.701 76.036 127.878 76.15 128.028 76.294C128.184 76.438 128.307 76.609 128.397 76.807C128.487 77.005 128.532 77.221 128.532 77.455C128.532 77.749 128.457 78.004 128.307 78.22C128.157 78.436 127.962 78.622 127.722 78.778C127.884 78.826 128.028 78.901 128.154 79.003C128.28 79.105 128.388 79.225 128.478 79.363C128.568 79.495 128.634 79.642 128.676 79.804C128.724 79.96 128.748 80.122 128.748 80.29C128.748 80.854 128.571 81.28 128.217 81.568C127.863 81.856 127.386 82 126.786 82H124.986V75.826H126.867ZM126.696 78.472C126.948 78.472 127.17 78.385 127.362 78.211C127.554 78.031 127.65 77.779 127.65 77.455C127.65 77.167 127.563 76.954 127.389 76.816C127.221 76.672 126.993 76.6 126.705 76.6H125.868V78.472H126.696ZM126.714 81.226C127.05 81.226 127.326 81.157 127.542 81.019C127.758 80.875 127.866 80.632 127.866 80.29C127.866 79.9 127.755 79.624 127.533 79.462C127.317 79.294 127.038 79.21 126.696 79.21H125.868V81.226H126.714ZM130.494 81.19H133.113L132.753 82H129.612V75.826L130.494 75.682V81.19ZM139.749 78.913C139.749 79.363 139.662 79.786 139.488 80.182C139.32 80.572 139.089 80.914 138.795 81.208C138.507 81.496 138.165 81.724 137.769 81.892C137.379 82.06 136.959 82.144 136.509 82.144C136.053 82.144 135.627 82.06 135.231 81.892C134.841 81.724 134.499 81.493 134.205 81.199C133.917 80.905 133.689 80.563 133.521 80.173C133.353 79.777 133.269 79.357 133.269 78.913C133.269 78.463 133.353 78.043 133.521 77.653C133.695 77.257 133.926 76.915 134.214 76.627C134.508 76.333 134.85 76.102 135.24 75.934C135.636 75.766 136.059 75.682 136.509 75.682C136.965 75.682 137.388 75.769 137.778 75.943C138.174 76.111 138.516 76.342 138.804 76.636C139.098 76.924 139.329 77.266 139.497 77.662C139.665 78.052 139.749 78.469 139.749 78.913ZM136.509 81.334C136.821 81.334 137.118 81.271 137.4 81.145C137.688 81.013 137.94 80.839 138.156 80.623C138.372 80.401 138.543 80.143 138.669 79.849C138.801 79.555 138.867 79.243 138.867 78.913C138.867 78.589 138.804 78.28 138.678 77.986C138.552 77.692 138.381 77.437 138.165 77.221C137.955 76.999 137.706 76.822 137.418 76.69C137.13 76.558 136.824 76.492 136.5 76.492C136.194 76.492 135.897 76.555 135.609 76.681C135.327 76.807 135.078 76.981 134.862 77.203C134.646 77.419 134.472 77.674 134.34 77.968C134.214 78.262 134.151 78.577 134.151 78.913C134.151 79.243 134.214 79.555 134.34 79.849C134.466 80.143 134.637 80.401 134.853 80.623C135.069 80.839 135.318 81.013 135.6 81.145C135.888 81.271 136.191 81.334 136.509 81.334ZM144.441 76.789C144.279 76.675 144.114 76.597 143.946 76.555C143.778 76.513 143.598 76.492 143.406 76.492C143.088 76.492 142.791 76.561 142.515 76.699C142.245 76.831 142.008 77.008 141.804 77.23C141.6 77.446 141.441 77.698 141.327 77.986C141.213 78.274 141.156 78.571 141.156 78.877C141.156 79.201 141.213 79.513 141.327 79.813C141.441 80.107 141.597 80.368 141.795 80.596C141.993 80.818 142.224 80.998 142.488 81.136C142.758 81.268 143.049 81.334 143.361 81.334C143.571 81.334 143.781 81.301 143.991 81.235C144.207 81.163 144.402 81.07 144.576 80.956L144.414 81.919C144.228 81.985 144.048 82.039 143.874 82.081C143.706 82.123 143.529 82.144 143.343 82.144C142.929 82.144 142.536 82.06 142.164 81.892C141.792 81.724 141.465 81.496 141.183 81.208C140.907 80.914 140.685 80.572 140.517 80.182C140.355 79.786 140.274 79.363 140.274 78.913C140.274 78.505 140.358 78.109 140.526 77.725C140.694 77.335 140.913 76.99 141.183 76.69C141.459 76.384 141.771 76.141 142.119 75.961C142.467 75.775 142.824 75.682 143.19 75.682C143.37 75.682 143.547 75.697 143.721 75.727C143.901 75.751 144.078 75.787 144.252 75.835L144.441 76.789ZM149.046 75.574L149.874 75.952L147.534 78.832L149.811 81.811L148.92 82.144L146.517 78.85H146.499V82L145.617 82.144V75.826L146.499 75.682V78.805H146.517L149.046 75.574ZM154.443 76.789C154.281 76.675 154.116 76.597 153.948 76.555C153.78 76.513 153.6 76.492 153.408 76.492C153.09 76.492 152.793 76.561 152.517 76.699C152.247 76.831 152.01 77.008 151.806 77.23C151.602 77.446 151.443 77.698 151.329 77.986C151.215 78.274 151.158 78.571 151.158 78.877C151.158 79.201 151.215 79.513 151.329 79.813C151.443 80.107 151.599 80.368 151.797 80.596C151.995 80.818 152.226 80.998 152.49 81.136C152.76 81.268 153.051 81.334 153.363 81.334C153.573 81.334 153.783 81.301 153.993 81.235C154.209 81.163 154.404 81.07 154.578 80.956L154.416 81.919C154.23 81.985 154.05 82.039 153.876 82.081C153.708 82.123 153.531 82.144 153.345 82.144C152.931 82.144 152.538 82.06 152.166 81.892C151.794 81.724 151.467 81.496 151.185 81.208C150.909 80.914 150.687 80.572 150.519 80.182C150.357 79.786 150.276 79.363 150.276 78.913C150.276 78.505 150.36 78.109 150.528 77.725C150.696 77.335 150.915 76.99 151.185 76.69C151.461 76.384 151.773 76.141 152.121 75.961C152.469 75.775 152.826 75.682 153.192 75.682C153.372 75.682 153.549 75.697 153.723 75.727C153.903 75.751 154.08 75.787 154.254 75.835L154.443 76.789ZM156.501 78.382H159.543V75.826L160.425 75.682V82L159.543 82.108V79.192H156.501V82L155.619 82.108V75.826L156.501 75.682V78.382ZM164.025 75.682L167.166 81.964L166.284 82.144L165.231 80.02H162.747L161.703 82.144L160.875 81.964L164.007 75.682H164.025ZM163.116 79.21H164.871L163.989 77.437L163.116 79.21ZM168.462 82L167.58 82.072V75.826L168.462 75.682V82ZM169.593 75.682L169.62 75.691L173.571 80.002V75.97L174.453 75.826V82.144L174.426 82.135L170.475 77.824V82L169.593 82.108V75.682ZM176.271 80.533L176.856 81.307L176.271 82.081L175.686 81.307L176.271 80.533Z" fill="black"/>
<path d="M69.5494 99.176C69.3094 98.912 69.0964 98.732 68.9104 98.636C68.7244 98.54 68.5414 98.492 68.3614 98.492C68.0734 98.492 67.8394 98.576 67.6594 98.744C67.4794 98.912 67.3894 99.143 67.3894 99.437C67.3894 99.575 67.4194 99.695 67.4794 99.797C67.5454 99.893 67.6324 99.98 67.7404 100.058C67.8544 100.136 67.9894 100.208 68.1454 100.274C68.3014 100.334 68.4724 100.4 68.6584 100.472C68.8804 100.556 69.0844 100.646 69.2704 100.742C69.4624 100.838 69.6274 100.955 69.7654 101.093C69.9034 101.231 70.0114 101.396 70.0894 101.588C70.1734 101.774 70.2154 101.999 70.2154 102.263C70.2154 102.545 70.1644 102.8 70.0624 103.028C69.9604 103.256 69.8224 103.454 69.6484 103.622C69.4744 103.79 69.2704 103.919 69.0364 104.009C68.8084 104.099 68.5624 104.144 68.2984 104.144C68.1244 104.144 67.9594 104.126 67.8034 104.09C67.6474 104.06 67.4914 104.006 67.3354 103.928C67.1854 103.85 67.0294 103.748 66.8674 103.622C66.7114 103.49 66.5494 103.331 66.3814 103.145L67.0294 102.605C67.1554 102.803 67.3204 102.974 67.5244 103.118C67.7284 103.262 67.9564 103.334 68.2084 103.334C68.3644 103.334 68.5084 103.316 68.6404 103.28C68.7784 103.238 68.8984 103.175 69.0004 103.091C69.1024 103.007 69.1834 102.896 69.2434 102.758C69.3034 102.62 69.3334 102.452 69.3334 102.254C69.3334 102.14 69.2914 102.035 69.2074 101.939C69.1234 101.837 69.0184 101.747 68.8924 101.669C68.7724 101.591 68.6464 101.522 68.5144 101.462C68.3824 101.396 68.2684 101.339 68.1724 101.291C67.9744 101.195 67.7764 101.093 67.5784 100.985C67.3804 100.871 67.2004 100.742 67.0384 100.598C66.8824 100.454 66.7534 100.289 66.6514 100.103C66.5554 99.911 66.5074 99.683 66.5074 99.419C66.5074 99.161 66.5524 98.927 66.6424 98.717C66.7324 98.501 66.8584 98.318 67.0204 98.168C67.1884 98.012 67.3894 97.892 67.6234 97.808C67.8574 97.724 68.1184 97.682 68.4064 97.682C68.7124 97.682 69.0214 97.757 69.3334 97.907C69.6454 98.057 69.9154 98.282 70.1434 98.582L69.5494 99.176ZM72.0064 104L71.1244 104.072V97.826L72.0064 97.682V104ZM75.7594 97.682L77.2714 101.966H77.2894L78.8644 97.682L79.7464 97.826L77.2894 104.144H77.2714L74.8864 97.826L75.7594 97.682ZM86.3074 100.913C86.3074 101.363 86.2204 101.786 86.0464 102.182C85.8784 102.572 85.6474 102.914 85.3534 103.208C85.0654 103.496 84.7234 103.724 84.3274 103.892C83.9374 104.06 83.5174 104.144 83.0674 104.144C82.6114 104.144 82.1854 104.06 81.7894 103.892C81.3994 103.724 81.0574 103.493 80.7634 103.199C80.4754 102.905 80.2474 102.563 80.0794 102.173C79.9114 101.777 79.8274 101.357 79.8274 100.913C79.8274 100.463 79.9114 100.043 80.0794 99.653C80.2534 99.257 80.4844 98.915 80.7724 98.627C81.0664 98.333 81.4084 98.102 81.7984 97.934C82.1944 97.766 82.6174 97.682 83.0674 97.682C83.5234 97.682 83.9464 97.769 84.3364 97.943C84.7324 98.111 85.0744 98.342 85.3624 98.636C85.6564 98.924 85.8874 99.266 86.0554 99.662C86.2234 100.052 86.3074 100.469 86.3074 100.913ZM83.0674 103.334C83.3794 103.334 83.6764 103.271 83.9584 103.145C84.2464 103.013 84.4984 102.839 84.7144 102.623C84.9304 102.401 85.1014 102.143 85.2274 101.849C85.3594 101.555 85.4254 101.243 85.4254 100.913C85.4254 100.589 85.3624 100.28 85.2364 99.986C85.1104 99.692 84.9394 99.437 84.7234 99.221C84.5134 98.999 84.2644 98.822 83.9764 98.69C83.6884 98.558 83.3824 98.492 83.0584 98.492C82.7524 98.492 82.4554 98.555 82.1674 98.681C81.8854 98.807 81.6364 98.981 81.4204 99.203C81.2044 99.419 81.0304 99.674 80.8984 99.968C80.7724 100.262 80.7094 100.577 80.7094 100.913C80.7094 101.243 80.7724 101.555 80.8984 101.849C81.0244 102.143 81.1954 102.401 81.4114 102.623C81.6274 102.839 81.8764 103.013 82.1584 103.145C82.4464 103.271 82.7494 103.334 83.0674 103.334ZM88.0203 102.101C88.0203 102.467 88.1223 102.764 88.3263 102.992C88.5363 103.22 88.8483 103.334 89.2623 103.334C89.7123 103.334 90.0513 103.226 90.2793 103.01C90.5073 102.788 90.6213 102.488 90.6213 102.11V97.826L91.5033 97.682V101.309C91.5033 101.531 91.4973 101.756 91.4853 101.984C91.4793 102.212 91.4553 102.431 91.4133 102.641C91.3773 102.851 91.3143 103.049 91.2243 103.235C91.1403 103.415 91.0203 103.574 90.8643 103.712C90.7083 103.844 90.5103 103.949 90.2703 104.027C90.0363 104.105 89.7483 104.144 89.4063 104.144C88.9803 104.144 88.6203 104.102 88.3263 104.018C88.0383 103.934 87.8043 103.796 87.6243 103.604C87.4503 103.406 87.3243 103.151 87.2463 102.839C87.1743 102.521 87.1383 102.131 87.1383 101.669V97.826L88.0203 97.682V102.101ZM95.5562 99.176C95.3162 98.912 95.1032 98.732 94.9172 98.636C94.7312 98.54 94.5482 98.492 94.3682 98.492C94.0802 98.492 93.8462 98.576 93.6662 98.744C93.4862 98.912 93.3962 99.143 93.3962 99.437C93.3962 99.575 93.4262 99.695 93.4862 99.797C93.5522 99.893 93.6392 99.98 93.7472 100.058C93.8612 100.136 93.9962 100.208 94.1522 100.274C94.3082 100.334 94.4792 100.4 94.6652 100.472C94.8872 100.556 95.0912 100.646 95.2772 100.742C95.4692 100.838 95.6342 100.955 95.7722 101.093C95.9102 101.231 96.0182 101.396 96.0962 101.588C96.1802 101.774 96.2222 101.999 96.2222 102.263C96.2222 102.545 96.1712 102.8 96.0692 103.028C95.9672 103.256 95.8292 103.454 95.6552 103.622C95.4812 103.79 95.2772 103.919 95.0432 104.009C94.8152 104.099 94.5692 104.144 94.3052 104.144C94.1312 104.144 93.9662 104.126 93.8102 104.09C93.6542 104.06 93.4982 104.006 93.3422 103.928C93.1922 103.85 93.0362 103.748 92.8742 103.622C92.7182 103.49 92.5562 103.331 92.3882 103.145L93.0362 102.605C93.1622 102.803 93.3272 102.974 93.5312 103.118C93.7352 103.262 93.9632 103.334 94.2152 103.334C94.3712 103.334 94.5152 103.316 94.6472 103.28C94.7852 103.238 94.9052 103.175 95.0072 103.091C95.1092 103.007 95.1902 102.896 95.2502 102.758C95.3102 102.62 95.3402 102.452 95.3402 102.254C95.3402 102.14 95.2982 102.035 95.2142 101.939C95.1302 101.837 95.0252 101.747 94.8992 101.669C94.7792 101.591 94.6532 101.522 94.5212 101.462C94.3892 101.396 94.2752 101.339 94.1792 101.291C93.9812 101.195 93.7832 101.093 93.5852 100.985C93.3872 100.871 93.2072 100.742 93.0452 100.598C92.8892 100.454 92.7602 100.289 92.6582 100.103C92.5622 99.911 92.5142 99.683 92.5142 99.419C92.5142 99.161 92.5592 98.927 92.6492 98.717C92.7392 98.501 92.8652 98.318 93.0272 98.168C93.1952 98.012 93.3962 97.892 93.6302 97.808C93.8642 97.724 94.1252 97.682 94.4132 97.682C94.7192 97.682 95.0282 97.757 95.3402 97.907C95.6522 98.057 95.9222 98.282 96.1502 98.582L95.5562 99.176ZM101.346 97.826C101.646 97.826 101.922 97.871 102.174 97.961C102.426 98.045 102.642 98.168 102.822 98.33C103.008 98.492 103.152 98.684 103.254 98.906C103.356 99.128 103.407 99.374 103.407 99.644C103.407 99.926 103.368 100.19 103.29 100.436C103.212 100.676 103.077 100.886 102.885 101.066C102.699 101.246 102.45 101.387 102.138 101.489C101.826 101.591 101.436 101.642 100.968 101.642H100.536V104L99.6541 104.108V97.826H101.346ZM101.247 100.832C101.445 100.832 101.622 100.814 101.778 100.778C101.934 100.736 102.066 100.67 102.174 100.58C102.288 100.484 102.375 100.361 102.435 100.211C102.495 100.055 102.525 99.866 102.525 99.644C102.525 99.308 102.408 99.056 102.174 98.888C101.946 98.72 101.637 98.636 101.247 98.636H100.536V100.832H101.247ZM106.25 97.682L109.391 103.964L108.509 104.144L107.456 102.02H104.972L103.928 104.144L103.1 103.964L106.232 97.682H106.25ZM105.341 101.21H107.096L106.214 99.437L105.341 101.21ZM112.73 99.176C112.49 98.912 112.277 98.732 112.091 98.636C111.905 98.54 111.722 98.492 111.542 98.492C111.254 98.492 111.02 98.576 110.84 98.744C110.66 98.912 110.57 99.143 110.57 99.437C110.57 99.575 110.6 99.695 110.66 99.797C110.726 99.893 110.813 99.98 110.921 100.058C111.035 100.136 111.17 100.208 111.326 100.274C111.482 100.334 111.653 100.4 111.839 100.472C112.061 100.556 112.265 100.646 112.451 100.742C112.643 100.838 112.808 100.955 112.946 101.093C113.084 101.231 113.192 101.396 113.27 101.588C113.354 101.774 113.396 101.999 113.396 102.263C113.396 102.545 113.345 102.8 113.243 103.028C113.141 103.256 113.003 103.454 112.829 103.622C112.655 103.79 112.451 103.919 112.217 104.009C111.989 104.099 111.743 104.144 111.479 104.144C111.305 104.144 111.14 104.126 110.984 104.09C110.828 104.06 110.672 104.006 110.516 103.928C110.366 103.85 110.21 103.748 110.048 103.622C109.892 103.49 109.73 103.331 109.562 103.145L110.21 102.605C110.336 102.803 110.501 102.974 110.705 103.118C110.909 103.262 111.137 103.334 111.389 103.334C111.545 103.334 111.689 103.316 111.821 103.28C111.959 103.238 112.079 103.175 112.181 103.091C112.283 103.007 112.364 102.896 112.424 102.758C112.484 102.62 112.514 102.452 112.514 102.254C112.514 102.14 112.472 102.035 112.388 101.939C112.304 101.837 112.199 101.747 112.073 101.669C111.953 101.591 111.827 101.522 111.695 101.462C111.563 101.396 111.449 101.339 111.353 101.291C111.155 101.195 110.957 101.093 110.759 100.985C110.561 100.871 110.381 100.742 110.219 100.598C110.063 100.454 109.934 100.289 109.832 100.103C109.736 99.911 109.688 99.683 109.688 99.419C109.688 99.161 109.733 98.927 109.823 98.717C109.913 98.501 110.039 98.318 110.201 98.168C110.369 98.012 110.57 97.892 110.804 97.808C111.038 97.724 111.299 97.682 111.587 97.682C111.893 97.682 112.202 97.757 112.514 97.907C112.826 98.057 113.096 98.282 113.324 98.582L112.73 99.176ZM117.23 99.176C116.99 98.912 116.777 98.732 116.591 98.636C116.405 98.54 116.222 98.492 116.042 98.492C115.754 98.492 115.52 98.576 115.34 98.744C115.16 98.912 115.07 99.143 115.07 99.437C115.07 99.575 115.1 99.695 115.16 99.797C115.226 99.893 115.313 99.98 115.421 100.058C115.535 100.136 115.67 100.208 115.826 100.274C115.982 100.334 116.153 100.4 116.339 100.472C116.561 100.556 116.765 100.646 116.951 100.742C117.143 100.838 117.308 100.955 117.446 101.093C117.584 101.231 117.692 101.396 117.77 101.588C117.854 101.774 117.896 101.999 117.896 102.263C117.896 102.545 117.845 102.8 117.743 103.028C117.641 103.256 117.503 103.454 117.329 103.622C117.155 103.79 116.951 103.919 116.717 104.009C116.489 104.099 116.243 104.144 115.979 104.144C115.805 104.144 115.64 104.126 115.484 104.09C115.328 104.06 115.172 104.006 115.016 103.928C114.866 103.85 114.71 103.748 114.548 103.622C114.392 103.49 114.23 103.331 114.062 103.145L114.71 102.605C114.836 102.803 115.001 102.974 115.205 103.118C115.409 103.262 115.637 103.334 115.889 103.334C116.045 103.334 116.189 103.316 116.321 103.28C116.459 103.238 116.579 103.175 116.681 103.091C116.783 103.007 116.864 102.896 116.924 102.758C116.984 102.62 117.014 102.452 117.014 102.254C117.014 102.14 116.972 102.035 116.888 101.939C116.804 101.837 116.699 101.747 116.573 101.669C116.453 101.591 116.327 101.522 116.195 101.462C116.063 101.396 115.949 101.339 115.853 101.291C115.655 101.195 115.457 101.093 115.259 100.985C115.061 100.871 114.881 100.742 114.719 100.598C114.563 100.454 114.434 100.289 114.332 100.103C114.236 99.911 114.188 99.683 114.188 99.419C114.188 99.161 114.233 98.927 114.323 98.717C114.413 98.501 114.539 98.318 114.701 98.168C114.869 98.012 115.07 97.892 115.304 97.808C115.538 97.724 115.799 97.682 116.087 97.682C116.393 97.682 116.702 97.757 117.014 97.907C117.326 98.057 117.596 98.282 117.824 98.582L117.23 99.176ZM122.144 97.826L122.333 98.636H119.732V100.382H121.811V101.192H119.732V103.19H122.531L122.279 104H118.85V97.826H122.144ZM127.472 97.826L124.232 103.19H127.634L127.418 104H122.873L126.149 98.636H123.008L123.188 97.826H127.472ZM132.521 97.826C132.821 97.826 133.097 97.871 133.349 97.961C133.601 98.045 133.817 98.168 133.997 98.33C134.183 98.492 134.327 98.684 134.429 98.906C134.531 99.128 134.582 99.374 134.582 99.644C134.582 99.926 134.543 100.19 134.465 100.436C134.387 100.676 134.252 100.886 134.06 101.066C133.874 101.246 133.625 101.387 133.313 101.489C133.001 101.591 132.611 101.642 132.143 101.642H131.711V104L130.829 104.108V97.826H132.521ZM132.422 100.832C132.62 100.832 132.797 100.814 132.953 100.778C133.109 100.736 133.241 100.67 133.349 100.58C133.463 100.484 133.55 100.361 133.61 100.211C133.67 100.055 133.7 99.866 133.7 99.644C133.7 99.308 133.583 99.056 133.349 98.888C133.121 98.72 132.812 98.636 132.422 98.636H131.711V100.832H132.422ZM137.425 97.682L140.566 103.964L139.684 104.144L138.631 102.02H136.147L135.103 104.144L134.275 103.964L137.407 97.682H137.425ZM136.516 101.21H138.271L137.389 99.437L136.516 101.21ZM142.447 97.826C142.723 97.826 142.984 97.865 143.23 97.943C143.476 98.015 143.692 98.129 143.878 98.285C144.064 98.441 144.211 98.636 144.319 98.87C144.427 99.104 144.481 99.38 144.481 99.698C144.481 100.166 144.358 100.529 144.112 100.787C143.866 101.039 143.533 101.213 143.113 101.309L144.976 103.892L143.986 104.144L141.835 101.003H141.817V104L140.935 104.108V97.826H142.447ZM142.465 100.805C142.609 100.805 142.75 100.778 142.888 100.724C143.026 100.67 143.146 100.595 143.248 100.499C143.356 100.403 143.44 100.289 143.5 100.157C143.566 100.019 143.599 99.866 143.599 99.698C143.599 99.512 143.569 99.353 143.509 99.221C143.449 99.083 143.368 98.972 143.266 98.888C143.164 98.804 143.044 98.741 142.906 98.699C142.774 98.657 142.63 98.636 142.474 98.636H141.817V100.805H142.465ZM149.578 97.826C150.022 97.826 150.433 97.91 150.811 98.078C151.189 98.246 151.513 98.471 151.783 98.753C152.059 99.035 152.275 99.362 152.431 99.734C152.587 100.106 152.665 100.499 152.665 100.913C152.665 101.327 152.587 101.72 152.431 102.092C152.275 102.464 152.059 102.794 151.783 103.082C151.507 103.364 151.18 103.589 150.802 103.757C150.43 103.919 150.025 104 149.587 104H148.012V97.826H149.578ZM149.551 103.19C149.827 103.19 150.097 103.136 150.361 103.028C150.631 102.92 150.871 102.767 151.081 102.569C151.291 102.365 151.459 102.125 151.585 101.849C151.717 101.567 151.783 101.255 151.783 100.913C151.783 100.577 151.717 100.271 151.585 99.995C151.459 99.713 151.291 99.473 151.081 99.275C150.871 99.071 150.631 98.915 150.361 98.807C150.097 98.693 149.824 98.636 149.542 98.636H148.894V103.19H149.551ZM156.826 97.826L157.015 98.636H154.414V100.382H156.493V101.192H154.414V103.19H157.213L156.961 104H153.532V97.826H156.826ZM156.52 96.17L155.224 97.466H154.486L155.296 96.17H156.52ZM159.697 97.826C159.997 97.826 160.273 97.871 160.525 97.961C160.777 98.045 160.993 98.168 161.173 98.33C161.359 98.492 161.503 98.684 161.605 98.906C161.707 99.128 161.758 99.374 161.758 99.644C161.758 99.926 161.719 100.19 161.641 100.436C161.563 100.676 161.428 100.886 161.236 101.066C161.05 101.246 160.801 101.387 160.489 101.489C160.177 101.591 159.787 101.642 159.319 101.642H158.887V104L158.005 104.108V97.826H159.697ZM159.598 100.832C159.796 100.832 159.973 100.814 160.129 100.778C160.285 100.736 160.417 100.67 160.525 100.58C160.639 100.484 160.726 100.361 160.786 100.211C160.846 100.055 160.876 99.866 160.876 99.644C160.876 99.308 160.759 99.056 160.525 98.888C160.297 98.72 159.988 98.636 159.598 98.636H158.887V100.832H159.598ZM164.601 97.682L167.742 103.964L166.86 104.144L165.807 102.02H163.323L162.279 104.144L161.451 103.964L164.583 97.682H164.601ZM163.692 101.21H165.447L164.565 99.437L163.692 101.21ZM169.623 97.826C169.899 97.826 170.16 97.865 170.406 97.943C170.652 98.015 170.868 98.129 171.054 98.285C171.24 98.441 171.387 98.636 171.495 98.87C171.603 99.104 171.657 99.38 171.657 99.698C171.657 100.166 171.534 100.529 171.288 100.787C171.042 101.039 170.709 101.213 170.289 101.309L172.152 103.892L171.162 104.144L169.011 101.003L168.993 101.003V104L168.111 104.108V97.826L169.623 97.826ZM169.641 100.805C169.785 100.805 169.926 100.778 170.064 100.724C170.202 100.67 170.322 100.595 170.424 100.499C170.532 100.403 170.616 100.289 170.676 100.157C170.742 100.019 170.775 99.866 170.775 99.698C170.775 99.512 170.745 99.353 170.685 99.221C170.625 99.083 170.544 98.972 170.442 98.888C170.34 98.804 170.22 98.741 170.082 98.699C169.95 98.657 169.806 98.636 169.65 98.636L168.993 98.636V100.805L169.641 100.805ZM175.977 97.826V98.636H174.537V104L173.655 104.108V98.636H172.053L172.332 97.826H175.977ZM177.472 102.794L176.401 105.71L175.744 105.755L176.554 102.893L177.472 102.794Z" fill="black"/>
<path d="M90.9256 109.789C90.7636 109.675 90.5986 109.597 90.4306 109.555C90.2626 109.513 90.0826 109.492 89.8906 109.492C89.5726 109.492 89.2756 109.561 88.9996 109.699C88.7296 109.831 88.4926 110.008 88.2886 110.23C88.0846 110.446 87.9256 110.698 87.8116 110.986C87.6976 111.274 87.6406 111.571 87.6406 111.877C87.6406 112.201 87.6976 112.513 87.8116 112.813C87.9256 113.107 88.0816 113.368 88.2796 113.596C88.4776 113.818 88.7086 113.998 88.9726 114.136C89.2426 114.268 89.5336 114.334 89.8456 114.334C90.0556 114.334 90.2656 114.301 90.4756 114.235C90.6916 114.163 90.8866 114.07 91.0606 113.956L90.8986 114.919C90.7126 114.985 90.5326 115.039 90.3586 115.081C90.1906 115.123 90.0136 115.144 89.8276 115.144C89.4136 115.144 89.0206 115.06 88.6486 114.892C88.2766 114.724 87.9496 114.496 87.6676 114.208C87.3916 113.914 87.1696 113.572 87.0016 113.182C86.8396 112.786 86.7586 112.363 86.7586 111.913C86.7586 111.505 86.8426 111.109 87.0106 110.725C87.1786 110.335 87.3976 109.99 87.6676 109.69C87.9436 109.384 88.2556 109.141 88.6036 108.961C88.9516 108.775 89.3086 108.682 89.6746 108.682C89.8546 108.682 90.0316 108.697 90.2056 108.727C90.3856 108.751 90.5626 108.787 90.7366 108.835L90.9256 109.789ZM98.2395 111.913C98.2395 112.363 98.1525 112.786 97.9785 113.182C97.8105 113.572 97.5795 113.914 97.2855 114.208C96.9975 114.496 96.6555 114.724 96.2595 114.892C95.8695 115.06 95.4495 115.144 94.9995 115.144C94.5435 115.144 94.1175 115.06 93.7215 114.892C93.3315 114.724 92.9895 114.493 92.6955 114.199C92.4075 113.905 92.1795 113.563 92.0115 113.173C91.8435 112.777 91.7595 112.357 91.7595 111.913C91.7595 111.463 91.8435 111.043 92.0115 110.653C92.1855 110.257 92.4165 109.915 92.7045 109.627C92.9985 109.333 93.3405 109.102 93.7305 108.934C94.1265 108.766 94.5495 108.682 94.9995 108.682C95.4555 108.682 95.8785 108.769 96.2685 108.943C96.6645 109.111 97.0065 109.342 97.2945 109.636C97.5885 109.924 97.8195 110.266 97.9875 110.662C98.1555 111.052 98.2395 111.469 98.2395 111.913ZM94.9995 114.334C95.3115 114.334 95.6085 114.271 95.8905 114.145C96.1785 114.013 96.4305 113.839 96.6465 113.623C96.8625 113.401 97.0335 113.143 97.1595 112.849C97.2915 112.555 97.3575 112.243 97.3575 111.913C97.3575 111.589 97.2945 111.28 97.1685 110.986C97.0425 110.692 96.8715 110.437 96.6555 110.221C96.4455 109.999 96.1965 109.822 95.9085 109.69C95.6205 109.558 95.3145 109.492 94.9905 109.492C94.6845 109.492 94.3875 109.555 94.0995 109.681C93.8175 109.807 93.5685 109.981 93.3525 110.203C93.1365 110.419 92.9625 110.674 92.8305 110.968C92.7045 111.262 92.6415 111.577 92.6415 111.913C92.6415 112.243 92.7045 112.555 92.8305 112.849C92.9565 113.143 93.1275 113.401 93.3435 113.623C93.5595 113.839 93.8085 114.013 94.0905 114.145C94.3785 114.271 94.6815 114.334 94.9995 114.334ZM99.9884 114.19H102.607L102.247 115H99.1064V108.826L99.9884 108.682V114.19ZM103.987 114.19H106.606L106.246 115H103.105V108.826L103.987 108.682V114.19ZM110.398 108.826L110.587 109.636H107.986V111.382H110.065V112.192H107.986V114.19H110.785L110.533 115H107.104V108.826H110.398ZM115.429 109.789C115.267 109.675 115.102 109.597 114.934 109.555C114.766 109.513 114.586 109.492 114.394 109.492C114.076 109.492 113.779 109.561 113.503 109.699C113.233 109.831 112.996 110.008 112.792 110.23C112.588 110.446 112.429 110.698 112.315 110.986C112.201 111.274 112.144 111.571 112.144 111.877C112.144 112.201 112.201 112.513 112.315 112.813C112.429 113.107 112.585 113.368 112.783 113.596C112.981 113.818 113.212 113.998 113.476 114.136C113.746 114.268 114.037 114.334 114.349 114.334C114.559 114.334 114.769 114.301 114.979 114.235C115.195 114.163 115.39 114.07 115.564 113.956L115.402 114.919C115.216 114.985 115.036 115.039 114.862 115.081C114.694 115.123 114.517 115.144 114.331 115.144C113.917 115.144 113.524 115.06 113.152 114.892C112.78 114.724 112.453 114.496 112.171 114.208C111.895 113.914 111.673 113.572 111.505 113.182C111.343 112.786 111.262 112.363 111.262 111.913C111.262 111.505 111.346 111.109 111.514 110.725C111.682 110.335 111.901 109.99 112.171 109.69C112.447 109.384 112.759 109.141 113.107 108.961C113.455 108.775 113.812 108.682 114.178 108.682C114.358 108.682 114.535 108.697 114.709 108.727C114.889 108.751 115.066 108.787 115.24 108.835L115.429 109.789ZM119.881 108.826V109.636H118.441V115L117.559 115.108V109.636H115.957L116.236 108.826H119.881ZM123.898 108.826L124.087 109.636H121.486V111.382H123.565V112.192H121.486V114.19H124.285L124.033 115H120.604V108.826H123.898ZM129.226 108.826L125.986 114.19H129.388L129.172 115H124.627L127.903 109.636H124.762L124.942 108.826H129.226Z" fill="black"/>
<path d="M138.007 109.564C137.905 109.462 137.77 109.378 137.602 109.312C137.44 109.24 137.263 109.204 137.071 109.204C136.873 109.204 136.687 109.249 136.513 109.339C136.339 109.423 136.18 109.546 136.036 109.708C135.892 109.864 135.766 110.056 135.658 110.284C135.55 110.512 135.469 110.764 135.415 111.04H137.278L137.188 111.517H135.334C135.322 111.583 135.316 111.646 135.316 111.706C135.316 111.766 135.316 111.829 135.316 111.895C135.316 111.943 135.316 111.988 135.316 112.03C135.316 112.072 135.319 112.117 135.325 112.165H137.062L136.972 112.642H135.37C135.466 113.26 135.667 113.746 135.973 114.1C136.285 114.448 136.657 114.622 137.089 114.622C137.269 114.622 137.443 114.589 137.611 114.523C137.779 114.451 137.926 114.358 138.052 114.244L137.971 114.91C137.827 115.012 137.671 115.075 137.503 115.099C137.341 115.129 137.206 115.144 137.098 115.144C136.81 115.144 136.537 115.084 136.279 114.964C136.027 114.844 135.799 114.676 135.595 114.46C135.397 114.244 135.229 113.983 135.091 113.677C134.953 113.371 134.854 113.026 134.794 112.642H133.984L134.074 112.165H134.749C134.743 112.117 134.74 112.072 134.74 112.03C134.74 111.982 134.74 111.937 134.74 111.895C134.74 111.829 134.74 111.766 134.74 111.706C134.746 111.646 134.752 111.583 134.758 111.517H133.984L134.074 111.04H134.821C134.887 110.698 134.989 110.383 135.127 110.095C135.271 109.807 135.442 109.558 135.64 109.348C135.838 109.138 136.06 108.976 136.306 108.862C136.558 108.742 136.825 108.682 137.107 108.682C137.257 108.682 137.407 108.7 137.557 108.736C137.713 108.772 137.833 108.829 137.917 108.907L138.007 109.564Z" fill="black"/>
<path d="M144.737 110.608C144.737 110.848 144.692 111.088 144.602 111.328C144.512 111.568 144.398 111.802 144.26 112.03C144.122 112.252 143.969 112.465 143.801 112.669C143.633 112.873 143.471 113.059 143.315 113.227L142.406 114.19H144.836L144.674 115H140.633L143.099 112.138C143.189 112.036 143.279 111.922 143.369 111.796C143.459 111.67 143.54 111.541 143.612 111.409C143.684 111.271 143.741 111.136 143.783 111.004C143.831 110.866 143.855 110.734 143.855 110.608C143.855 110.26 143.747 109.987 143.531 109.789C143.315 109.591 143.027 109.492 142.667 109.492C142.493 109.492 142.334 109.522 142.19 109.582C142.046 109.642 141.92 109.726 141.812 109.834C141.704 109.936 141.62 110.056 141.56 110.194C141.5 110.332 141.47 110.479 141.47 110.635C141.47 111.031 141.569 111.343 141.767 111.571C141.971 111.793 142.226 111.919 142.532 111.949L141.974 112.651C141.578 112.525 141.26 112.285 141.02 111.931C140.78 111.577 140.66 111.136 140.66 110.608C140.66 110.326 140.711 110.068 140.813 109.834C140.921 109.6 141.068 109.399 141.254 109.231C141.44 109.057 141.659 108.922 141.911 108.826C142.163 108.73 142.439 108.682 142.739 108.682C143.021 108.682 143.282 108.727 143.522 108.817C143.768 108.907 143.981 109.036 144.161 109.204C144.341 109.372 144.482 109.576 144.584 109.816C144.686 110.05 144.737 110.314 144.737 110.608ZM147.749 115.144C147.335 115.144 146.984 115.048 146.696 114.856C146.408 114.658 146.177 114.406 146.003 114.1C145.829 113.788 145.703 113.44 145.625 113.056C145.547 112.666 145.508 112.282 145.508 111.904C145.508 111.676 145.523 111.439 145.553 111.193C145.583 110.947 145.631 110.704 145.697 110.464C145.769 110.224 145.862 109.996 145.976 109.78C146.09 109.564 146.228 109.375 146.39 109.213C146.558 109.051 146.753 108.922 146.975 108.826C147.197 108.73 147.455 108.682 147.749 108.682C148.169 108.682 148.52 108.781 148.802 108.979C149.09 109.177 149.321 109.432 149.495 109.744C149.675 110.056 149.801 110.404 149.873 110.788C149.951 111.172 149.99 111.553 149.99 111.931C149.99 112.273 149.954 112.633 149.882 113.011C149.81 113.383 149.687 113.728 149.513 114.046C149.345 114.364 149.117 114.628 148.829 114.838C148.541 115.042 148.181 115.144 147.749 115.144ZM147.749 114.334C148.199 114.334 148.538 114.127 148.766 113.713C148.994 113.293 149.108 112.693 149.108 111.913C149.108 111.145 148.994 110.551 148.766 110.131C148.544 109.705 148.202 109.492 147.74 109.492C147.32 109.492 146.99 109.693 146.75 110.095C146.51 110.491 146.39 111.097 146.39 111.913C146.39 112.693 146.504 113.293 146.732 113.713C146.96 114.127 147.299 114.334 147.749 114.334ZM152.75 115.144C152.336 115.144 151.985 115.048 151.697 114.856C151.409 114.658 151.178 114.406 151.004 114.1C150.83 113.788 150.704 113.44 150.626 113.056C150.548 112.666 150.509 112.282 150.509 111.904C150.509 111.676 150.524 111.439 150.554 111.193C150.584 110.947 150.632 110.704 150.698 110.464C150.77 110.224 150.863 109.996 150.977 109.78C151.091 109.564 151.229 109.375 151.391 109.213C151.559 109.051 151.754 108.922 151.976 108.826C152.198 108.73 152.456 108.682 152.75 108.682C153.17 108.682 153.521 108.781 153.803 108.979C154.091 109.177 154.322 109.432 154.496 109.744C154.676 110.056 154.802 110.404 154.874 110.788C154.952 111.172 154.991 111.553 154.991 111.931C154.991 112.273 154.955 112.633 154.883 113.011C154.811 113.383 154.688 113.728 154.514 114.046C154.346 114.364 154.118 114.628 153.83 114.838C153.542 115.042 153.182 115.144 152.75 115.144ZM152.75 114.334C153.2 114.334 153.539 114.127 153.767 113.713C153.995 113.293 154.109 112.693 154.109 111.913C154.109 111.145 153.995 110.551 153.767 110.131C153.545 109.705 153.203 109.492 152.741 109.492C152.321 109.492 151.991 109.693 151.751 110.095C151.511 110.491 151.391 111.097 151.391 111.913C151.391 112.693 151.505 113.293 151.733 113.713C151.961 114.127 152.3 114.334 152.75 114.334ZM156.5 113.533L157.085 114.307L156.5 115.081L155.915 114.307L156.5 113.533Z" fill="black"/>
<rect width="30" height="13" transform="translate(107.5 141)" fill="white"/>
<path d="M111.426 145.198C111.659 145.198 111.874 145.233 112.07 145.303C112.266 145.368 112.434 145.464 112.574 145.59C112.719 145.716 112.831 145.865 112.91 146.038C112.989 146.211 113.029 146.402 113.029 146.612C113.029 146.831 112.999 147.037 112.938 147.228C112.877 147.415 112.772 147.578 112.623 147.718C112.478 147.858 112.285 147.968 112.042 148.047C111.799 148.126 111.496 148.166 111.132 148.166H110.796V150L110.11 150.084V145.198H111.426ZM111.349 147.536C111.503 147.536 111.641 147.522 111.762 147.494C111.883 147.461 111.986 147.41 112.07 147.34C112.159 147.265 112.226 147.17 112.273 147.053C112.32 146.932 112.343 146.785 112.343 146.612C112.343 146.351 112.252 146.155 112.07 146.024C111.893 145.893 111.652 145.828 111.349 145.828H110.796V147.536H111.349ZM118.405 147.599C118.405 147.949 118.337 148.278 118.202 148.586C118.071 148.889 117.892 149.155 117.663 149.384C117.439 149.608 117.173 149.785 116.865 149.916C116.562 150.047 116.235 150.112 115.885 150.112C115.53 150.112 115.199 150.047 114.891 149.916C114.588 149.785 114.322 149.606 114.093 149.377C113.869 149.148 113.692 148.882 113.561 148.579C113.43 148.271 113.365 147.944 113.365 147.599C113.365 147.249 113.43 146.922 113.561 146.619C113.696 146.311 113.876 146.045 114.1 145.821C114.329 145.592 114.595 145.413 114.898 145.282C115.206 145.151 115.535 145.086 115.885 145.086C116.24 145.086 116.569 145.154 116.872 145.289C117.18 145.42 117.446 145.599 117.67 145.828C117.899 146.052 118.078 146.318 118.209 146.626C118.34 146.929 118.405 147.254 118.405 147.599ZM115.885 149.482C116.128 149.482 116.359 149.433 116.578 149.335C116.802 149.232 116.998 149.097 117.166 148.929C117.334 148.756 117.467 148.556 117.565 148.327C117.668 148.098 117.719 147.856 117.719 147.599C117.719 147.347 117.67 147.107 117.572 146.878C117.474 146.649 117.341 146.451 117.173 146.283C117.01 146.11 116.816 145.973 116.592 145.87C116.368 145.767 116.13 145.716 115.878 145.716C115.64 145.716 115.409 145.765 115.185 145.863C114.966 145.961 114.772 146.096 114.604 146.269C114.436 146.437 114.301 146.635 114.198 146.864C114.1 147.093 114.051 147.338 114.051 147.599C114.051 147.856 114.1 148.098 114.198 148.327C114.296 148.556 114.429 148.756 114.597 148.929C114.765 149.097 114.959 149.232 115.178 149.335C115.402 149.433 115.638 149.482 115.885 149.482ZM119.765 149.37H121.802L121.522 150H119.079V145.198L119.765 145.086V149.37ZM121.898 145.086L123.291 147.424L124.299 145.086L124.957 145.289L122.801 150.112L122.129 149.965L122.969 148.152L121.226 145.282L121.898 145.086ZM127.547 146.248C127.36 146.043 127.195 145.903 127.05 145.828C126.905 145.753 126.763 145.716 126.623 145.716C126.399 145.716 126.217 145.781 126.077 145.912C125.937 146.043 125.867 146.222 125.867 146.451C125.867 146.558 125.89 146.652 125.937 146.731C125.988 146.806 126.056 146.873 126.14 146.934C126.229 146.995 126.334 147.051 126.455 147.102C126.576 147.149 126.709 147.2 126.854 147.256C127.027 147.321 127.185 147.391 127.33 147.466C127.479 147.541 127.608 147.632 127.715 147.739C127.822 147.846 127.906 147.975 127.967 148.124C128.032 148.269 128.065 148.444 128.065 148.649C128.065 148.868 128.025 149.067 127.946 149.244C127.867 149.421 127.759 149.575 127.624 149.706C127.489 149.837 127.33 149.937 127.148 150.007C126.971 150.077 126.779 150.112 126.574 150.112C126.439 150.112 126.31 150.098 126.189 150.07C126.068 150.047 125.946 150.005 125.825 149.944C125.708 149.883 125.587 149.804 125.461 149.706C125.34 149.603 125.214 149.48 125.083 149.335L125.587 148.915C125.685 149.069 125.813 149.202 125.972 149.314C126.131 149.426 126.308 149.482 126.504 149.482C126.625 149.482 126.737 149.468 126.84 149.44C126.947 149.407 127.041 149.358 127.12 149.293C127.199 149.228 127.262 149.141 127.309 149.034C127.356 148.927 127.379 148.796 127.379 148.642C127.379 148.553 127.346 148.472 127.281 148.397C127.216 148.318 127.134 148.248 127.036 148.187C126.943 148.126 126.845 148.073 126.742 148.026C126.639 147.975 126.551 147.93 126.476 147.893C126.322 147.818 126.168 147.739 126.014 147.655C125.86 147.566 125.72 147.466 125.594 147.354C125.473 147.242 125.372 147.114 125.293 146.969C125.218 146.82 125.181 146.642 125.181 146.437C125.181 146.236 125.216 146.054 125.286 145.891C125.356 145.723 125.454 145.581 125.58 145.464C125.711 145.343 125.867 145.249 126.049 145.184C126.231 145.119 126.434 145.086 126.658 145.086C126.896 145.086 127.136 145.144 127.379 145.261C127.622 145.378 127.832 145.553 128.009 145.786L127.547 146.248ZM129.458 150L128.772 150.056V145.198L129.458 145.086V150ZM135.133 147.599C135.133 147.949 135.065 148.278 134.93 148.586C134.799 148.889 134.619 149.155 134.391 149.384C134.167 149.608 133.901 149.785 133.593 149.916C133.289 150.047 132.963 150.112 132.613 150.112C132.258 150.112 131.927 150.047 131.619 149.916C131.315 149.785 131.049 149.606 130.821 149.377C130.597 149.148 130.419 148.882 130.289 148.579C130.158 148.271 130.093 147.944 130.093 147.599C130.093 147.249 130.158 146.922 130.289 146.619C130.424 146.311 130.604 146.045 130.828 145.821C131.056 145.592 131.322 145.413 131.626 145.282C131.934 145.151 132.263 145.086 132.613 145.086C132.967 145.086 133.296 145.154 133.6 145.289C133.908 145.42 134.174 145.599 134.398 145.828C134.626 146.052 134.806 146.318 134.937 146.626C135.067 146.929 135.133 147.254 135.133 147.599ZM132.613 149.482C132.855 149.482 133.086 149.433 133.306 149.335C133.53 149.232 133.726 149.097 133.894 148.929C134.062 148.756 134.195 148.556 134.293 148.327C134.395 148.098 134.447 147.856 134.447 147.599C134.447 147.347 134.398 147.107 134.3 146.878C134.202 146.649 134.069 146.451 133.901 146.283C133.737 146.11 133.544 145.973 133.32 145.87C133.096 145.767 132.858 145.716 132.606 145.716C132.368 145.716 132.137 145.765 131.913 145.863C131.693 145.961 131.5 146.096 131.332 146.269C131.164 146.437 131.028 146.635 130.926 146.864C130.828 147.093 130.779 147.338 130.779 147.599C130.779 147.856 130.828 148.098 130.926 148.327C131.024 148.556 131.157 148.756 131.325 148.929C131.493 149.097 131.686 149.232 131.906 149.335C132.13 149.433 132.365 149.482 132.613 149.482Z" fill="black"/>
</svg>
