<svg width="244" height="157" viewBox="0 0 244 157" fill="none" xmlns="http://www.w3.org/2000/svg">
<rect width="244" height="157" fill="white"/>
<rect x="9" y="9" width="226" height="139" stroke="black"/>
<path d="M106.19 23.036C105.966 22.876 105.73 22.74 105.482 22.628C105.234 22.508 104.97 22.448 104.69 22.448C104.346 22.448 104.026 22.508 103.73 22.628C103.442 22.74 103.194 22.904 102.986 23.12C102.778 23.328 102.614 23.58 102.494 23.876C102.374 24.172 102.314 24.5 102.314 24.86C102.314 25.228 102.37 25.564 102.482 25.868C102.602 26.164 102.766 26.42 102.974 26.636C103.182 26.852 103.43 27.02 103.718 27.14C104.014 27.26 104.338 27.32 104.69 27.32C104.97 27.32 105.238 27.26 105.494 27.14C105.758 27.012 106.006 26.868 106.238 26.708L105.986 28.892C105.906 28.94 105.802 28.98 105.674 29.012C105.546 29.052 105.41 29.084 105.266 29.108C105.13 29.132 104.994 29.152 104.858 29.168C104.73 29.184 104.626 29.192 104.546 29.192C103.922 29.192 103.346 29.088 102.818 28.88C102.298 28.672 101.846 28.38 101.462 28.004C101.086 27.628 100.794 27.18 100.586 26.66C100.378 26.132 100.274 25.548 100.274 24.908C100.274 24.3 100.378 23.732 100.586 23.204C100.794 22.676 101.086 22.216 101.462 21.824C101.838 21.432 102.286 21.128 102.806 20.912C103.334 20.688 103.91 20.576 104.534 20.576C104.774 20.576 105.006 20.596 105.23 20.636C105.454 20.676 105.67 20.744 105.878 20.84L106.19 23.036ZM109.342 23.768H111.982V20.768L114.022 20.576V28.904L111.982 29.096V25.64H109.342V28.904L107.302 29.096V20.768L109.342 20.576V23.768ZM118.642 20.576H118.666L123.106 28.772L121.03 29.192L120.19 27.428L117.058 27.428L116.23 29.192L114.25 28.772L118.642 20.576ZM117.55 25.904L119.734 25.904L118.642 23.888L117.55 25.904ZM123.274 20.576H123.298L128.686 25.184V20.768L130.726 20.576V29.192H130.702L125.314 24.488V28.904L123.274 29.096V20.576ZM137.526 23.036C137.302 22.876 137.066 22.74 136.818 22.628C136.57 22.508 136.306 22.448 136.026 22.448C135.682 22.448 135.362 22.508 135.066 22.628C134.778 22.74 134.53 22.904 134.322 23.12C134.114 23.328 133.95 23.58 133.83 23.876C133.71 24.172 133.65 24.5 133.65 24.86C133.65 25.228 133.706 25.564 133.818 25.868C133.938 26.164 134.102 26.42 134.31 26.636C134.518 26.852 134.766 27.02 135.054 27.14C135.35 27.26 135.674 27.32 136.026 27.32C136.306 27.32 136.574 27.26 136.83 27.14C137.094 27.012 137.342 26.868 137.574 26.708L137.322 28.892C137.242 28.94 137.138 28.98 137.01 29.012C136.882 29.052 136.746 29.084 136.602 29.108C136.466 29.132 136.33 29.152 136.194 29.168C136.066 29.184 135.962 29.192 135.882 29.192C135.258 29.192 134.682 29.088 134.154 28.88C133.634 28.672 133.182 28.38 132.798 28.004C132.422 27.628 132.13 27.18 131.922 26.66C131.714 26.132 131.61 25.548 131.61 24.908C131.61 24.3 131.714 23.732 131.922 23.204C132.13 22.676 132.422 22.216 132.798 21.824C133.174 21.432 133.622 21.128 134.142 20.912C134.67 20.688 135.246 20.576 135.87 20.576C136.11 20.576 136.342 20.596 136.566 20.636C136.79 20.676 137.006 20.744 137.214 20.84L137.526 23.036ZM143.294 20.768L143.654 22.508H140.678V23.936H142.802V25.676H140.678V27.26H143.906L143.402 29H138.638V20.768H143.294Z" fill="black"/>
<rect width="194" height="95" transform="translate(25 37)" fill="white"/>
<path d="M37.4171 59.182L38.9291 63.466H38.9471L40.5221 59.182L41.4041 59.326L38.9471 65.644H38.9291L36.5441 59.326L37.4171 59.182ZM47.9651 62.413C47.9651 62.863 47.8781 63.286 47.7041 63.682C47.5361 64.072 47.3051 64.414 47.0111 64.708C46.7231 64.996 46.3811 65.224 45.9851 65.392C45.5951 65.56 45.1751 65.644 44.7251 65.644C44.2691 65.644 43.8431 65.56 43.4471 65.392C43.0571 65.224 42.7151 64.993 42.4211 64.699C42.1331 64.405 41.9051 64.063 41.7371 63.673C41.5691 63.277 41.4851 62.857 41.4851 62.413C41.4851 61.963 41.5691 61.543 41.7371 61.153C41.9111 60.757 42.1421 60.415 42.4301 60.127C42.7241 59.833 43.0661 59.602 43.4561 59.434C43.8521 59.266 44.2751 59.182 44.7251 59.182C45.1811 59.182 45.6041 59.269 45.9941 59.443C46.3901 59.611 46.7321 59.842 47.0201 60.136C47.3141 60.424 47.5451 60.766 47.7131 61.162C47.8811 61.552 47.9651 61.969 47.9651 62.413ZM44.7251 64.834C45.0371 64.834 45.3341 64.771 45.6161 64.645C45.9041 64.513 46.1561 64.339 46.3721 64.123C46.5881 63.901 46.7591 63.643 46.8851 63.349C47.0171 63.055 47.0831 62.743 47.0831 62.413C47.0831 62.089 47.0201 61.78 46.8941 61.486C46.7681 61.192 46.5971 60.937 46.3811 60.721C46.1711 60.499 45.9221 60.322 45.6341 60.19C45.3461 60.058 45.0401 59.992 44.7161 59.992C44.4101 59.992 44.1131 60.055 43.8251 60.181C43.5431 60.307 43.2941 60.481 43.0781 60.703C42.8621 60.919 42.6881 61.174 42.5561 61.468C42.4301 61.762 42.3671 62.077 42.3671 62.413C42.3671 62.743 42.4301 63.055 42.5561 63.349C42.6821 63.643 42.8531 63.901 43.0691 64.123C43.2851 64.339 43.5341 64.513 43.8161 64.645C44.1041 64.771 44.4071 64.834 44.7251 64.834ZM49.678 63.601C49.678 63.967 49.78 64.264 49.984 64.492C50.194 64.72 50.506 64.834 50.92 64.834C51.37 64.834 51.709 64.726 51.937 64.51C52.165 64.288 52.279 63.988 52.279 63.61V59.326L53.161 59.182V62.809C53.161 63.031 53.155 63.256 53.143 63.484C53.137 63.712 53.113 63.931 53.071 64.141C53.035 64.351 52.972 64.549 52.882 64.735C52.798 64.915 52.678 65.074 52.522 65.212C52.366 65.344 52.168 65.449 51.928 65.527C51.694 65.605 51.406 65.644 51.064 65.644C50.638 65.644 50.278 65.602 49.984 65.518C49.696 65.434 49.462 65.296 49.282 65.104C49.108 64.906 48.982 64.651 48.904 64.339C48.832 64.021 48.796 63.631 48.796 63.169V59.326L49.678 59.182V63.601ZM57.214 60.676C56.974 60.412 56.761 60.232 56.575 60.136C56.389 60.04 56.206 59.992 56.026 59.992C55.738 59.992 55.504 60.076 55.324 60.244C55.144 60.412 55.054 60.643 55.054 60.937C55.054 61.075 55.084 61.195 55.144 61.297C55.21 61.393 55.297 61.48 55.405 61.558C55.519 61.636 55.654 61.708 55.81 61.774C55.966 61.834 56.137 61.9 56.323 61.972C56.545 62.056 56.749 62.146 56.935 62.242C57.127 62.338 57.292 62.455 57.43 62.593C57.568 62.731 57.676 62.896 57.754 63.088C57.838 63.274 57.88 63.499 57.88 63.763C57.88 64.045 57.829 64.3 57.727 64.528C57.625 64.756 57.487 64.954 57.313 65.122C57.139 65.29 56.935 65.419 56.701 65.509C56.473 65.599 56.227 65.644 55.963 65.644C55.789 65.644 55.624 65.626 55.468 65.59C55.312 65.56 55.156 65.506 55 65.428C54.85 65.35 54.694 65.248 54.532 65.122C54.376 64.99 54.214 64.831 54.046 64.645L54.694 64.105C54.82 64.303 54.985 64.474 55.189 64.618C55.393 64.762 55.621 64.834 55.873 64.834C56.029 64.834 56.173 64.816 56.305 64.78C56.443 64.738 56.563 64.675 56.665 64.591C56.767 64.507 56.848 64.396 56.908 64.258C56.968 64.12 56.998 63.952 56.998 63.754C56.998 63.64 56.956 63.535 56.872 63.439C56.788 63.337 56.683 63.247 56.557 63.169C56.437 63.091 56.311 63.022 56.179 62.962C56.047 62.896 55.933 62.839 55.837 62.791C55.639 62.695 55.441 62.593 55.243 62.485C55.045 62.371 54.865 62.242 54.703 62.098C54.547 61.954 54.418 61.789 54.316 61.603C54.22 61.411 54.172 61.183 54.172 60.919C54.172 60.661 54.217 60.427 54.307 60.217C54.397 60.001 54.523 59.818 54.685 59.668C54.853 59.512 55.054 59.392 55.288 59.308C55.522 59.224 55.783 59.182 56.071 59.182C56.377 59.182 56.686 59.257 56.998 59.407C57.31 59.557 57.58 59.782 57.808 60.082L57.214 60.676ZM64.5248 59.326L64.6778 60.136H62.2208V61.882H64.1108V62.692H62.2208V65.5L61.3388 65.608V59.326H64.5248ZM67.4069 59.182L70.5479 65.464L69.6659 65.644L68.6129 63.52H66.1289L65.0849 65.644L64.2569 65.464L67.3889 59.182H67.4069ZM66.4979 62.71H68.2529L67.3709 60.937L66.4979 62.71ZM71.8438 65.5L70.9618 65.572V59.326L71.8438 59.182V65.5ZM76.2779 59.326V60.136H74.8379V65.5L73.9559 65.608V60.136H72.3539L72.6329 59.326H76.2779ZM80.2949 59.326L80.4839 60.136H77.8829V61.882H79.9619V62.692H77.8829V64.69H80.6819L80.4299 65.5H77.0009V59.326H80.2949ZM84.3809 60.676C84.1409 60.412 83.9279 60.232 83.7419 60.136C83.5559 60.04 83.3729 59.992 83.1929 59.992C82.9049 59.992 82.6709 60.076 82.4909 60.244C82.3109 60.412 82.2209 60.643 82.2209 60.937C82.2209 61.075 82.2509 61.195 82.3109 61.297C82.3769 61.393 82.4639 61.48 82.5719 61.558C82.6859 61.636 82.8209 61.708 82.9769 61.774C83.1329 61.834 83.3039 61.9 83.4899 61.972C83.7119 62.056 83.9159 62.146 84.1019 62.242C84.2939 62.338 84.4589 62.455 84.5969 62.593C84.7349 62.731 84.8429 62.896 84.9209 63.088C85.0049 63.274 85.0469 63.499 85.0469 63.763C85.0469 64.045 84.9959 64.3 84.8939 64.528C84.7919 64.756 84.6539 64.954 84.4799 65.122C84.3059 65.29 84.1019 65.419 83.8679 65.509C83.6399 65.599 83.3939 65.644 83.1299 65.644C82.9559 65.644 82.7909 65.626 82.6349 65.59C82.4789 65.56 82.3229 65.506 82.1669 65.428C82.0169 65.35 81.8609 65.248 81.6989 65.122C81.5429 64.99 81.3809 64.831 81.2129 64.645L81.8609 64.105C81.9869 64.303 82.1519 64.474 82.3559 64.618C82.5599 64.762 82.7879 64.834 83.0399 64.834C83.1959 64.834 83.3399 64.816 83.4719 64.78C83.6099 64.738 83.7299 64.675 83.8319 64.591C83.9339 64.507 84.0149 64.396 84.0749 64.258C84.1349 64.12 84.1649 63.952 84.1649 63.754C84.1649 63.64 84.1229 63.535 84.0389 63.439C83.9549 63.337 83.8499 63.247 83.7239 63.169C83.6039 63.091 83.4779 63.022 83.3459 62.962C83.2139 62.896 83.0999 62.839 83.0039 62.791C82.8059 62.695 82.6079 62.593 82.4099 62.485C82.2119 62.371 82.0319 62.242 81.8699 62.098C81.7139 61.954 81.5849 61.789 81.4829 61.603C81.3869 61.411 81.3389 61.183 81.3389 60.919C81.3389 60.661 81.3839 60.427 81.4739 60.217C81.5639 60.001 81.6899 59.818 81.8519 59.668C82.0199 59.512 82.2209 59.392 82.4549 59.308C82.6889 59.224 82.9499 59.182 83.2379 59.182C83.5439 59.182 83.8529 59.257 84.1649 59.407C84.4769 59.557 84.7469 59.782 84.9749 60.082L84.3809 60.676ZM88.4788 59.182L88.5058 59.191L92.4568 63.502V59.47L93.3388 59.326V65.644L93.3118 65.635L89.3608 61.324V65.5L88.4788 65.608V59.182ZM95.3548 63.601C95.3548 63.967 95.4568 64.264 95.6608 64.492C95.8708 64.72 96.1828 64.834 96.5968 64.834C97.0468 64.834 97.3858 64.726 97.6138 64.51C97.8418 64.288 97.9558 63.988 97.9558 63.61V59.326L98.8378 59.182V62.809C98.8378 63.031 98.8318 63.256 98.8198 63.484C98.8138 63.712 98.7898 63.931 98.7478 64.141C98.7118 64.351 98.6488 64.549 98.5588 64.735C98.4748 64.915 98.3548 65.074 98.1988 65.212C98.0428 65.344 97.8448 65.449 97.6048 65.527C97.3708 65.605 97.0828 65.644 96.7408 65.644C96.3148 65.644 95.9548 65.602 95.6608 65.518C95.3728 65.434 95.1388 65.296 94.9588 65.104C94.7848 64.906 94.6588 64.651 94.5808 64.339C94.5088 64.021 94.4728 63.631 94.4728 63.169V59.326L95.3548 59.182V63.601ZM100.848 65.5L99.9657 65.572V59.326L100.848 59.182V65.5ZM105.282 59.326V60.136H103.842V65.5L102.96 65.608V60.136H101.358L101.637 59.326H105.282ZM110.265 59.326C110.487 59.326 110.697 59.368 110.895 59.452C111.099 59.536 111.276 59.65 111.426 59.794C111.582 59.938 111.705 60.109 111.795 60.307C111.885 60.505 111.93 60.721 111.93 60.955C111.93 61.249 111.855 61.504 111.705 61.72C111.555 61.936 111.36 62.122 111.12 62.278C111.282 62.326 111.426 62.401 111.552 62.503C111.678 62.605 111.786 62.725 111.876 62.863C111.966 62.995 112.032 63.142 112.074 63.304C112.122 63.46 112.146 63.622 112.146 63.79C112.146 64.354 111.969 64.78 111.615 65.068C111.261 65.356 110.784 65.5 110.184 65.5H108.384V59.326H110.265ZM110.094 61.972C110.346 61.972 110.568 61.885 110.76 61.711C110.952 61.531 111.048 61.279 111.048 60.955C111.048 60.667 110.961 60.454 110.787 60.316C110.619 60.172 110.391 60.1 110.103 60.1H109.266V61.972H110.094ZM110.112 64.726C110.448 64.726 110.724 64.657 110.94 64.519C111.156 64.375 111.264 64.132 111.264 63.79C111.264 63.4 111.153 63.124 110.931 62.962C110.715 62.794 110.436 62.71 110.094 62.71H109.266V64.726H110.112ZM113.892 64.69H116.511L116.151 65.5H113.01V59.326L113.892 59.182V64.69ZM119.412 59.182L122.553 65.464L121.671 65.644L120.618 63.52H118.134L117.09 65.644L116.262 65.464L119.394 59.182H119.412ZM118.503 62.71H120.258L119.376 60.937L118.503 62.71ZM122.985 59.182L123.012 59.191L126.963 63.502V59.47L127.845 59.326V65.644L127.818 65.635L123.867 61.324V65.5L122.985 65.608V59.182ZM132.84 60.289C132.678 60.175 132.513 60.097 132.345 60.055C132.177 60.013 131.997 59.992 131.805 59.992C131.487 59.992 131.19 60.061 130.914 60.199C130.644 60.331 130.407 60.508 130.203 60.73C129.999 60.946 129.84 61.198 129.726 61.486C129.612 61.774 129.555 62.071 129.555 62.377C129.555 62.701 129.612 63.013 129.726 63.313C129.84 63.607 129.996 63.868 130.194 64.096C130.392 64.318 130.623 64.498 130.887 64.636C131.157 64.768 131.448 64.834 131.76 64.834C131.97 64.834 132.18 64.801 132.39 64.735C132.606 64.663 132.801 64.57 132.975 64.456L132.813 65.419C132.627 65.485 132.447 65.539 132.273 65.581C132.105 65.623 131.928 65.644 131.742 65.644C131.328 65.644 130.935 65.56 130.563 65.392C130.191 65.224 129.864 64.996 129.582 64.708C129.306 64.414 129.084 64.072 128.916 63.682C128.754 63.286 128.673 62.863 128.673 62.413C128.673 62.005 128.757 61.609 128.925 61.225C129.093 60.835 129.312 60.49 129.582 60.19C129.858 59.884 130.17 59.641 130.518 59.461C130.866 59.275 131.223 59.182 131.589 59.182C131.769 59.182 131.946 59.197 132.12 59.227C132.3 59.251 132.477 59.287 132.651 59.335L132.84 60.289ZM134.898 61.882H137.94V59.326L138.822 59.182V65.5L137.94 65.608V62.692H134.898V65.5L134.016 65.608V59.326L134.898 59.182V61.882ZM143.313 59.326L143.502 60.136H140.901V61.882H142.98V62.692H140.901V64.69H143.7L143.448 65.5H140.019V59.326H143.313ZM149.903 60.676C149.663 60.412 149.45 60.232 149.264 60.136C149.078 60.04 148.895 59.992 148.715 59.992C148.427 59.992 148.193 60.076 148.013 60.244C147.833 60.412 147.743 60.643 147.743 60.937C147.743 61.075 147.773 61.195 147.833 61.297C147.899 61.393 147.986 61.48 148.094 61.558C148.208 61.636 148.343 61.708 148.499 61.774C148.655 61.834 148.826 61.9 149.012 61.972C149.234 62.056 149.438 62.146 149.624 62.242C149.816 62.338 149.981 62.455 150.119 62.593C150.257 62.731 150.365 62.896 150.443 63.088C150.527 63.274 150.569 63.499 150.569 63.763C150.569 64.045 150.518 64.3 150.416 64.528C150.314 64.756 150.176 64.954 150.002 65.122C149.828 65.29 149.624 65.419 149.39 65.509C149.162 65.599 148.916 65.644 148.652 65.644C148.478 65.644 148.313 65.626 148.157 65.59C148.001 65.56 147.845 65.506 147.689 65.428C147.539 65.35 147.383 65.248 147.221 65.122C147.065 64.99 146.903 64.831 146.735 64.645L147.383 64.105C147.509 64.303 147.674 64.474 147.878 64.618C148.082 64.762 148.31 64.834 148.562 64.834C148.718 64.834 148.862 64.816 148.994 64.78C149.132 64.738 149.252 64.675 149.354 64.591C149.456 64.507 149.537 64.396 149.597 64.258C149.657 64.12 149.687 63.952 149.687 63.754C149.687 63.64 149.645 63.535 149.561 63.439C149.477 63.337 149.372 63.247 149.246 63.169C149.126 63.091 149 63.022 148.868 62.962C148.736 62.896 148.622 62.839 148.526 62.791C148.328 62.695 148.13 62.593 147.932 62.485C147.734 62.371 147.554 62.242 147.392 62.098C147.236 61.954 147.107 61.789 147.005 61.603C146.909 61.411 146.861 61.183 146.861 60.919C146.861 60.661 146.906 60.427 146.996 60.217C147.086 60.001 147.212 59.818 147.374 59.668C147.542 59.512 147.743 59.392 147.977 59.308C148.211 59.224 148.472 59.182 148.76 59.182C149.066 59.182 149.375 59.257 149.687 59.407C149.999 59.557 150.269 59.782 150.497 60.082L149.903 60.676ZM152.369 63.601C152.369 63.967 152.471 64.264 152.675 64.492C152.885 64.72 153.197 64.834 153.611 64.834C154.061 64.834 154.4 64.726 154.628 64.51C154.856 64.288 154.97 63.988 154.97 63.61V59.326L155.852 59.182V62.809C155.852 63.031 155.846 63.256 155.834 63.484C155.828 63.712 155.804 63.931 155.762 64.141C155.726 64.351 155.663 64.549 155.573 64.735C155.489 64.915 155.369 65.074 155.213 65.212C155.057 65.344 154.859 65.449 154.619 65.527C154.385 65.605 154.097 65.644 153.755 65.644C153.329 65.644 152.969 65.602 152.675 65.518C152.387 65.434 152.153 65.296 151.973 65.104C151.799 64.906 151.673 64.651 151.595 64.339C151.523 64.021 151.487 63.631 151.487 63.169V59.326L152.369 59.182V63.601ZM158.447 59.326C158.723 59.326 158.984 59.365 159.23 59.443C159.476 59.515 159.692 59.629 159.878 59.785C160.064 59.941 160.211 60.136 160.319 60.37C160.427 60.604 160.481 60.88 160.481 61.198C160.481 61.666 160.358 62.029 160.112 62.287C159.866 62.539 159.533 62.713 159.113 62.809L160.976 65.392L159.986 65.644L157.835 62.503H157.817V65.5L156.935 65.608V59.326H158.447ZM158.465 62.305C158.609 62.305 158.75 62.278 158.888 62.224C159.026 62.17 159.146 62.095 159.248 61.999C159.356 61.903 159.44 61.789 159.5 61.657C159.566 61.519 159.599 61.366 159.599 61.198C159.599 61.012 159.569 60.853 159.509 60.721C159.449 60.583 159.368 60.472 159.266 60.388C159.164 60.304 159.044 60.241 158.906 60.199C158.774 60.157 158.63 60.136 158.474 60.136H157.817V62.305H158.465ZM164.876 63.601C164.876 63.967 164.978 64.264 165.182 64.492C165.392 64.72 165.704 64.834 166.118 64.834C166.568 64.834 166.907 64.726 167.135 64.51C167.363 64.288 167.477 63.988 167.477 63.61V59.326L168.359 59.182V62.809C168.359 63.031 168.353 63.256 168.341 63.484C168.335 63.712 168.311 63.931 168.269 64.141C168.233 64.351 168.17 64.549 168.08 64.735C167.996 64.915 167.876 65.074 167.72 65.212C167.564 65.344 167.366 65.449 167.126 65.527C166.892 65.605 166.604 65.644 166.262 65.644C165.836 65.644 165.476 65.602 165.182 65.518C164.894 65.434 164.66 65.296 164.48 65.104C164.306 64.906 164.18 64.651 164.102 64.339C164.03 64.021 163.994 63.631 163.994 63.169V59.326L164.876 59.182V63.601ZM169.505 59.182L169.532 59.191L173.483 63.502V59.47L174.365 59.326V65.644L174.338 65.635L170.387 61.324V65.5L169.505 65.608V59.182ZM179.705 59.326C180.005 59.326 180.281 59.371 180.533 59.461C180.785 59.545 181.001 59.668 181.181 59.83C181.367 59.992 181.511 60.184 181.613 60.406C181.715 60.628 181.766 60.874 181.766 61.144C181.766 61.426 181.727 61.69 181.649 61.936C181.571 62.176 181.436 62.386 181.244 62.566C181.058 62.746 180.809 62.887 180.497 62.989C180.185 63.091 179.795 63.142 179.327 63.142H178.895V65.5L178.013 65.608V59.326H179.705ZM179.606 62.332C179.804 62.332 179.981 62.314 180.137 62.278C180.293 62.236 180.425 62.17 180.533 62.08C180.647 61.984 180.734 61.861 180.794 61.711C180.854 61.555 180.884 61.366 180.884 61.144C180.884 60.808 180.767 60.556 180.533 60.388C180.305 60.22 179.996 60.136 179.606 60.136H178.895V62.332H179.606ZM183.962 59.326C184.238 59.326 184.499 59.365 184.745 59.443C184.991 59.515 185.207 59.629 185.393 59.785C185.579 59.941 185.726 60.136 185.834 60.37C185.942 60.604 185.996 60.88 185.996 61.198C185.996 61.666 185.873 62.029 185.627 62.287C185.381 62.539 185.048 62.713 184.628 62.809L186.491 65.392L185.501 65.644L183.35 62.503H183.332V65.5L182.45 65.608V59.326H183.962ZM183.98 62.305C184.124 62.305 184.265 62.278 184.403 62.224C184.541 62.17 184.661 62.095 184.763 61.999C184.871 61.903 184.955 61.789 185.015 61.657C185.081 61.519 185.114 61.366 185.114 61.198C185.114 61.012 185.084 60.853 185.024 60.721C184.964 60.583 184.883 60.472 184.781 60.388C184.679 60.304 184.559 60.241 184.421 60.199C184.289 60.157 184.145 60.136 183.989 60.136H183.332V62.305H183.98ZM193.178 62.413C193.178 62.863 193.091 63.286 192.917 63.682C192.749 64.072 192.518 64.414 192.224 64.708C191.936 64.996 191.594 65.224 191.198 65.392C190.808 65.56 190.388 65.644 189.938 65.644C189.482 65.644 189.056 65.56 188.66 65.392C188.27 65.224 187.928 64.993 187.634 64.699C187.346 64.405 187.118 64.063 186.95 63.673C186.782 63.277 186.698 62.857 186.698 62.413C186.698 61.963 186.782 61.543 186.95 61.153C187.124 60.757 187.355 60.415 187.643 60.127C187.937 59.833 188.279 59.602 188.669 59.434C189.065 59.266 189.488 59.182 189.938 59.182C190.394 59.182 190.817 59.269 191.207 59.443C191.603 59.611 191.945 59.842 192.233 60.136C192.527 60.424 192.758 60.766 192.926 61.162C193.094 61.552 193.178 61.969 193.178 62.413ZM189.938 64.834C190.25 64.834 190.547 64.771 190.829 64.645C191.117 64.513 191.369 64.339 191.585 64.123C191.801 63.901 191.972 63.643 192.098 63.349C192.23 63.055 192.296 62.743 192.296 62.413C192.296 62.089 192.233 61.78 192.107 61.486C191.981 61.192 191.81 60.937 191.594 60.721C191.384 60.499 191.135 60.322 190.847 60.19C190.559 60.058 190.253 59.992 189.929 59.992C189.623 59.992 189.326 60.055 189.038 60.181C188.756 60.307 188.507 60.481 188.291 60.703C188.075 60.919 187.901 61.174 187.769 61.468C187.643 61.762 187.58 62.077 187.58 62.413C187.58 62.743 187.643 63.055 187.769 63.349C187.895 63.643 188.066 63.901 188.282 64.123C188.498 64.339 188.747 64.513 189.029 64.645C189.317 64.771 189.62 64.834 189.938 64.834ZM196.349 63.7C196.349 64 196.304 64.27 196.214 64.51C196.13 64.744 196.007 64.948 195.845 65.122C195.689 65.29 195.497 65.419 195.269 65.509C195.047 65.599 194.798 65.644 194.522 65.644C194.42 65.644 194.312 65.632 194.198 65.608C194.084 65.584 193.973 65.554 193.865 65.518C193.763 65.482 193.67 65.44 193.586 65.392C193.502 65.344 193.436 65.296 193.388 65.248L193.829 64.474C194.075 64.666 194.348 64.762 194.648 64.762C194.924 64.762 195.128 64.672 195.26 64.492C195.398 64.306 195.467 64.042 195.467 63.7V59.326L196.349 59.182V63.7ZM200.837 59.326L201.026 60.136H198.425V61.882H200.504V62.692H198.425V64.69H201.224L200.972 65.5H197.543V59.326H200.837ZM205.319 59.326V60.136H203.879V65.5L202.997 65.608V60.136H201.395L201.674 59.326H205.319ZM206.022 64.033L206.607 64.807L206.022 65.581L205.437 64.807L206.022 64.033ZM71.6364 70.326C72.0804 70.326 72.4914 70.41 72.8694 70.578C73.2474 70.746 73.5714 70.971 73.8414 71.253C74.1174 71.535 74.3334 71.862 74.4894 72.234C74.6454 72.606 74.7234 72.999 74.7234 73.413C74.7234 73.827 74.6454 74.22 74.4894 74.592C74.3334 74.964 74.1174 75.294 73.8414 75.582C73.5654 75.864 73.2384 76.089 72.8604 76.257C72.4884 76.419 72.0834 76.5 71.6454 76.5H70.0704V70.326H71.6364ZM71.6094 75.69C71.8854 75.69 72.1554 75.636 72.4194 75.528C72.6894 75.42 72.9294 75.267 73.1394 75.069C73.3494 74.865 73.5174 74.625 73.6434 74.349C73.7754 74.067 73.8414 73.755 73.8414 73.413C73.8414 73.077 73.7754 72.771 73.6434 72.495C73.5174 72.213 73.3494 71.973 73.1394 71.775C72.9294 71.571 72.6894 71.415 72.4194 71.307C72.1554 71.193 71.8824 71.136 71.6004 71.136H70.9524V75.69H71.6094ZM76.4363 74.601C76.4363 74.967 76.5383 75.264 76.7423 75.492C76.9523 75.72 77.2643 75.834 77.6783 75.834C78.1283 75.834 78.4673 75.726 78.6953 75.51C78.9233 75.288 79.0373 74.988 79.0373 74.61V70.326L79.9193 70.182V73.809C79.9193 74.031 79.9133 74.256 79.9013 74.484C79.8953 74.712 79.8713 74.931 79.8293 75.141C79.7933 75.351 79.7303 75.549 79.6403 75.735C79.5563 75.915 79.4363 76.074 79.2803 76.212C79.1243 76.344 78.9263 76.449 78.6863 76.527C78.4523 76.605 78.1643 76.644 77.8223 76.644C77.3963 76.644 77.0363 76.602 76.7423 76.518C76.4543 76.434 76.2203 76.296 76.0403 76.104C75.8663 75.906 75.7403 75.651 75.6623 75.339C75.5903 75.021 75.5543 74.631 75.5543 74.169V70.326L76.4363 70.182V74.601ZM85.0191 70.326C85.2951 70.326 85.5561 70.365 85.8021 70.443C86.0481 70.515 86.2641 70.629 86.4501 70.785C86.6361 70.941 86.7831 71.136 86.8911 71.37C86.9991 71.604 87.0531 71.88 87.0531 72.198C87.0531 72.666 86.9301 73.029 86.6841 73.287C86.4381 73.539 86.1051 73.713 85.6851 73.809L87.5481 76.392L86.5581 76.644L84.4071 73.503H84.3891V76.5L83.5071 76.608V70.326H85.0191ZM85.0371 73.305C85.1811 73.305 85.3221 73.278 85.4601 73.224C85.5981 73.17 85.7181 73.095 85.8201 72.999C85.9281 72.903 86.0121 72.789 86.0721 72.657C86.1381 72.519 86.1711 72.366 86.1711 72.198C86.1711 72.012 86.1411 71.853 86.0811 71.721C86.0211 71.583 85.9401 71.472 85.8381 71.388C85.7361 71.304 85.6161 71.241 85.4781 71.199C85.3461 71.157 85.2021 71.136 85.0461 71.136H84.3891V73.305H85.0371ZM91.3911 70.326L91.5801 71.136H88.9791V72.882H91.0581V73.692H88.9791V75.69H91.7781L91.5261 76.5H88.0971V70.326H91.3911ZM94.2621 70.326C94.5621 70.326 94.8381 70.371 95.0901 70.461C95.3421 70.545 95.5581 70.668 95.7381 70.83C95.9241 70.992 96.0681 71.184 96.1701 71.406C96.2721 71.628 96.3231 71.874 96.3231 72.144C96.3231 72.426 96.2841 72.69 96.2061 72.936C96.1281 73.176 95.9931 73.386 95.8011 73.566C95.6151 73.746 95.3661 73.887 95.0541 73.989C94.7421 74.091 94.3521 74.142 93.8841 74.142H93.4521V76.5L92.5701 76.608V70.326H94.2621ZM94.1631 73.332C94.3611 73.332 94.5381 73.314 94.6941 73.278C94.8501 73.236 94.9821 73.17 95.0901 73.08C95.2041 72.984 95.2911 72.861 95.3511 72.711C95.4111 72.555 95.4411 72.366 95.4411 72.144C95.4411 71.808 95.3241 71.556 95.0901 71.388C94.8621 71.22 94.5531 71.136 94.1631 71.136H93.4521V73.332H94.1631ZM103.235 73.413C103.235 73.863 103.148 74.286 102.974 74.682C102.806 75.072 102.575 75.414 102.281 75.708C101.993 75.996 101.651 76.224 101.255 76.392C100.865 76.56 100.445 76.644 99.9951 76.644C99.5391 76.644 99.1131 76.56 98.7171 76.392C98.3271 76.224 97.9851 75.993 97.6911 75.699C97.4031 75.405 97.1751 75.063 97.0071 74.673C96.8391 74.277 96.7551 73.857 96.7551 73.413C96.7551 72.963 96.8391 72.543 97.0071 72.153C97.1811 71.757 97.4121 71.415 97.7001 71.127C97.9941 70.833 98.3361 70.602 98.7261 70.434C99.1221 70.266 99.5451 70.182 99.9951 70.182C100.451 70.182 100.874 70.269 101.264 70.443C101.66 70.611 102.002 70.842 102.29 71.136C102.584 71.424 102.815 71.766 102.983 72.162C103.151 72.552 103.235 72.969 103.235 73.413ZM99.9951 75.834C100.307 75.834 100.604 75.771 100.886 75.645C101.174 75.513 101.426 75.339 101.642 75.123C101.858 74.901 102.029 74.643 102.155 74.349C102.287 74.055 102.353 73.743 102.353 73.413C102.353 73.089 102.29 72.78 102.164 72.486C102.038 72.192 101.867 71.937 101.651 71.721C101.441 71.499 101.192 71.322 100.904 71.19C100.616 71.058 100.31 70.992 99.9861 70.992C99.6801 70.992 99.3831 71.055 99.0951 71.181C98.8131 71.307 98.5641 71.481 98.3481 71.703C98.1321 71.919 97.9581 72.174 97.8261 72.468C97.7001 72.762 97.6371 73.077 97.6371 73.413C97.6371 73.743 97.7001 74.055 97.8261 74.349C97.9521 74.643 98.1231 74.901 98.3391 75.123C98.5551 75.339 98.8041 75.513 99.0861 75.645C99.3741 75.771 99.6771 75.834 99.9951 75.834ZM106.982 71.676C106.742 71.412 106.529 71.232 106.343 71.136C106.157 71.04 105.974 70.992 105.794 70.992C105.506 70.992 105.272 71.076 105.092 71.244C104.912 71.412 104.822 71.643 104.822 71.937C104.822 72.075 104.852 72.195 104.912 72.297C104.978 72.393 105.065 72.48 105.173 72.558C105.287 72.636 105.422 72.708 105.578 72.774C105.734 72.834 105.905 72.9 106.091 72.972C106.313 73.056 106.517 73.146 106.703 73.242C106.895 73.338 107.06 73.455 107.198 73.593C107.336 73.731 107.444 73.896 107.522 74.088C107.606 74.274 107.648 74.499 107.648 74.763C107.648 75.045 107.597 75.3 107.495 75.528C107.393 75.756 107.255 75.954 107.081 76.122C106.907 76.29 106.703 76.419 106.469 76.509C106.241 76.599 105.995 76.644 105.731 76.644C105.557 76.644 105.392 76.626 105.236 76.59C105.08 76.56 104.924 76.506 104.768 76.428C104.618 76.35 104.462 76.248 104.3 76.122C104.144 75.99 103.982 75.831 103.814 75.645L104.462 75.105C104.588 75.303 104.753 75.474 104.957 75.618C105.161 75.762 105.389 75.834 105.641 75.834C105.797 75.834 105.941 75.816 106.073 75.78C106.211 75.738 106.331 75.675 106.433 75.591C106.535 75.507 106.616 75.396 106.676 75.258C106.736 75.12 106.766 74.952 106.766 74.754C106.766 74.64 106.724 74.535 106.64 74.439C106.556 74.337 106.451 74.247 106.325 74.169C106.205 74.091 106.079 74.022 105.947 73.962C105.815 73.896 105.701 73.839 105.605 73.791C105.407 73.695 105.209 73.593 105.011 73.485C104.813 73.371 104.633 73.242 104.471 73.098C104.315 72.954 104.186 72.789 104.084 72.603C103.988 72.411 103.94 72.183 103.94 71.919C103.94 71.661 103.985 71.427 104.075 71.217C104.165 71.001 104.291 70.818 104.453 70.668C104.621 70.512 104.822 70.392 105.056 70.308C105.29 70.224 105.551 70.182 105.839 70.182C106.145 70.182 106.454 70.257 106.766 70.407C107.078 70.557 107.348 70.782 107.576 71.082L106.982 71.676ZM114.401 70.326L114.59 71.136H111.989V72.882H114.068V73.692H111.989V75.69H114.788L114.536 76.5H111.107V70.326H114.401ZM118.487 71.676C118.247 71.412 118.034 71.232 117.848 71.136C117.662 71.04 117.479 70.992 117.299 70.992C117.011 70.992 116.777 71.076 116.597 71.244C116.417 71.412 116.327 71.643 116.327 71.937C116.327 72.075 116.357 72.195 116.417 72.297C116.483 72.393 116.57 72.48 116.678 72.558C116.792 72.636 116.927 72.708 117.083 72.774C117.239 72.834 117.41 72.9 117.596 72.972C117.818 73.056 118.022 73.146 118.208 73.242C118.4 73.338 118.565 73.455 118.703 73.593C118.841 73.731 118.949 73.896 119.027 74.088C119.111 74.274 119.153 74.499 119.153 74.763C119.153 75.045 119.102 75.3 119 75.528C118.898 75.756 118.76 75.954 118.586 76.122C118.412 76.29 118.208 76.419 117.974 76.509C117.746 76.599 117.5 76.644 117.236 76.644C117.062 76.644 116.897 76.626 116.741 76.59C116.585 76.56 116.429 76.506 116.273 76.428C116.123 76.35 115.967 76.248 115.805 76.122C115.649 75.99 115.487 75.831 115.319 75.645L115.967 75.105C116.093 75.303 116.258 75.474 116.462 75.618C116.666 75.762 116.894 75.834 117.146 75.834C117.302 75.834 117.446 75.816 117.578 75.78C117.716 75.738 117.836 75.675 117.938 75.591C118.04 75.507 118.121 75.396 118.181 75.258C118.241 75.12 118.271 74.952 118.271 74.754C118.271 74.64 118.229 74.535 118.145 74.439C118.061 74.337 117.956 74.247 117.83 74.169C117.71 74.091 117.584 74.022 117.452 73.962C117.32 73.896 117.206 73.839 117.11 73.791C116.912 73.695 116.714 73.593 116.516 73.485C116.318 73.371 116.138 73.242 115.976 73.098C115.82 72.954 115.691 72.789 115.589 72.603C115.493 72.411 115.445 72.183 115.445 71.919C115.445 71.661 115.49 71.427 115.58 71.217C115.67 71.001 115.796 70.818 115.958 70.668C116.126 70.512 116.327 70.392 116.561 70.308C116.795 70.224 117.056 70.182 117.344 70.182C117.65 70.182 117.959 70.257 118.271 70.407C118.583 70.557 118.853 70.782 119.081 71.082L118.487 71.676ZM123.383 70.326V71.136H121.943V76.5L121.061 76.608V71.136H119.459L119.738 70.326H123.383ZM126.584 70.182L126.611 70.191L130.562 74.502V70.47L131.444 70.326V76.644L131.417 76.635L127.466 72.324V76.5L126.584 76.608V70.182ZM135.908 70.326L136.097 71.136H133.496V72.882H135.575V73.692H133.496V75.69H136.295L136.043 76.5H132.614V70.326H135.908ZM135.602 68.67L134.306 69.966H133.568L134.378 68.67H135.602ZM140.939 71.289C140.777 71.175 140.612 71.097 140.444 71.055C140.276 71.013 140.096 70.992 139.904 70.992C139.586 70.992 139.289 71.061 139.013 71.199C138.743 71.331 138.506 71.508 138.302 71.73C138.098 71.946 137.939 72.198 137.825 72.486C137.711 72.774 137.654 73.071 137.654 73.377C137.654 73.701 137.711 74.013 137.825 74.313C137.939 74.607 138.095 74.868 138.293 75.096C138.491 75.318 138.722 75.498 138.986 75.636C139.256 75.768 139.547 75.834 139.859 75.834C140.069 75.834 140.279 75.801 140.489 75.735C140.705 75.663 140.9 75.57 141.074 75.456L140.912 76.419C140.726 76.485 140.546 76.539 140.372 76.581C140.204 76.623 140.027 76.644 139.841 76.644C139.427 76.644 139.034 76.56 138.662 76.392C138.29 76.224 137.963 75.996 137.681 75.708C137.405 75.414 137.183 75.072 137.015 74.682C136.853 74.286 136.772 73.863 136.772 73.413C136.772 73.005 136.856 72.609 137.024 72.225C137.192 71.835 137.411 71.49 137.681 71.19C137.957 70.884 138.269 70.641 138.617 70.461C138.965 70.275 139.322 70.182 139.688 70.182C139.868 70.182 140.045 70.197 140.219 70.227C140.399 70.251 140.576 70.287 140.75 70.335L140.939 71.289ZM145.409 70.326L145.598 71.136H142.997V72.882H145.076V73.692H142.997V75.69H145.796L145.544 76.5H142.115V70.326H145.409ZM149.495 71.676C149.255 71.412 149.042 71.232 148.856 71.136C148.67 71.04 148.487 70.992 148.307 70.992C148.019 70.992 147.785 71.076 147.605 71.244C147.425 71.412 147.335 71.643 147.335 71.937C147.335 72.075 147.365 72.195 147.425 72.297C147.491 72.393 147.578 72.48 147.686 72.558C147.8 72.636 147.935 72.708 148.091 72.774C148.247 72.834 148.418 72.9 148.604 72.972C148.826 73.056 149.03 73.146 149.216 73.242C149.408 73.338 149.573 73.455 149.711 73.593C149.849 73.731 149.957 73.896 150.035 74.088C150.119 74.274 150.161 74.499 150.161 74.763C150.161 75.045 150.11 75.3 150.008 75.528C149.906 75.756 149.768 75.954 149.594 76.122C149.42 76.29 149.216 76.419 148.982 76.509C148.754 76.599 148.508 76.644 148.244 76.644C148.07 76.644 147.905 76.626 147.749 76.59C147.593 76.56 147.437 76.506 147.281 76.428C147.131 76.35 146.975 76.248 146.813 76.122C146.657 75.99 146.495 75.831 146.327 75.645L146.975 75.105C147.101 75.303 147.266 75.474 147.47 75.618C147.674 75.762 147.902 75.834 148.154 75.834C148.31 75.834 148.454 75.816 148.586 75.78C148.724 75.738 148.844 75.675 148.946 75.591C149.048 75.507 149.129 75.396 149.189 75.258C149.249 75.12 149.279 74.952 149.279 74.754C149.279 74.64 149.237 74.535 149.153 74.439C149.069 74.337 148.964 74.247 148.838 74.169C148.718 74.091 148.592 74.022 148.46 73.962C148.328 73.896 148.214 73.839 148.118 73.791C147.92 73.695 147.722 73.593 147.524 73.485C147.326 73.371 147.146 73.242 146.984 73.098C146.828 72.954 146.699 72.789 146.597 72.603C146.501 72.411 146.453 72.183 146.453 71.919C146.453 71.661 146.498 71.427 146.588 71.217C146.678 71.001 146.804 70.818 146.966 70.668C147.134 70.512 147.335 70.392 147.569 70.308C147.803 70.224 148.064 70.182 148.352 70.182C148.658 70.182 148.967 70.257 149.279 70.407C149.591 70.557 149.861 70.782 150.089 71.082L149.495 71.676ZM153.995 71.676C153.755 71.412 153.542 71.232 153.356 71.136C153.17 71.04 152.987 70.992 152.807 70.992C152.519 70.992 152.285 71.076 152.105 71.244C151.925 71.412 151.835 71.643 151.835 71.937C151.835 72.075 151.865 72.195 151.925 72.297C151.991 72.393 152.078 72.48 152.186 72.558C152.3 72.636 152.435 72.708 152.591 72.774C152.747 72.834 152.918 72.9 153.104 72.972C153.326 73.056 153.53 73.146 153.716 73.242C153.908 73.338 154.073 73.455 154.211 73.593C154.349 73.731 154.457 73.896 154.535 74.088C154.619 74.274 154.661 74.499 154.661 74.763C154.661 75.045 154.61 75.3 154.508 75.528C154.406 75.756 154.268 75.954 154.094 76.122C153.92 76.29 153.716 76.419 153.482 76.509C153.254 76.599 153.008 76.644 152.744 76.644C152.57 76.644 152.405 76.626 152.249 76.59C152.093 76.56 151.937 76.506 151.781 76.428C151.631 76.35 151.475 76.248 151.313 76.122C151.157 75.99 150.995 75.831 150.827 75.645L151.475 75.105C151.601 75.303 151.766 75.474 151.97 75.618C152.174 75.762 152.402 75.834 152.654 75.834C152.81 75.834 152.954 75.816 153.086 75.78C153.224 75.738 153.344 75.675 153.446 75.591C153.548 75.507 153.629 75.396 153.689 75.258C153.749 75.12 153.779 74.952 153.779 74.754C153.779 74.64 153.737 74.535 153.653 74.439C153.569 74.337 153.464 74.247 153.338 74.169C153.218 74.091 153.092 74.022 152.96 73.962C152.828 73.896 152.714 73.839 152.618 73.791C152.42 73.695 152.222 73.593 152.024 73.485C151.826 73.371 151.646 73.242 151.484 73.098C151.328 72.954 151.199 72.789 151.097 72.603C151.001 72.411 150.953 72.183 150.953 71.919C150.953 71.661 150.998 71.427 151.088 71.217C151.178 71.001 151.304 70.818 151.466 70.668C151.634 70.512 151.835 70.392 152.069 70.308C152.303 70.224 152.564 70.182 152.852 70.182C153.158 70.182 153.467 70.257 153.779 70.407C154.091 70.557 154.361 70.782 154.589 71.082L153.995 71.676ZM158.018 70.182L161.159 76.464L160.277 76.644L159.224 74.52H156.74L155.696 76.644L154.868 76.464L158 70.182H158.018ZM157.109 73.71H158.864L157.982 71.937L157.109 73.71ZM162.455 76.5L161.573 76.572V70.326L162.455 70.182V76.5ZM165.035 70.326C165.311 70.326 165.572 70.365 165.818 70.443C166.064 70.515 166.28 70.629 166.466 70.785C166.652 70.941 166.799 71.136 166.907 71.37C167.015 71.604 167.069 71.88 167.069 72.198C167.069 72.666 166.946 73.029 166.7 73.287C166.454 73.539 166.121 73.713 165.701 73.809L167.564 76.392L166.574 76.644L164.423 73.503H164.405V76.5L163.523 76.608V70.326H165.035ZM165.053 73.305C165.197 73.305 165.338 73.278 165.476 73.224C165.614 73.17 165.734 73.095 165.836 72.999C165.944 72.903 166.028 72.789 166.088 72.657C166.154 72.519 166.187 72.366 166.187 72.198C166.187 72.012 166.157 71.853 166.097 71.721C166.037 71.583 165.956 71.472 165.854 71.388C165.752 71.304 165.632 71.241 165.494 71.199C165.362 71.157 165.218 71.136 165.062 71.136H164.405V73.305H165.053ZM171.407 70.326L171.596 71.136L168.995 71.136V72.882L171.074 72.882V73.692L168.995 73.692V75.69H171.794L171.542 76.5H168.113V70.326L171.407 70.326ZM173.261 75.033L173.846 75.807L173.261 76.581L172.676 75.807L173.261 75.033ZM68.7252 92.182L71.8662 98.464L70.9842 98.644L69.9312 96.52H67.4472L66.4032 98.644L65.5752 98.464L68.7072 92.182H68.7252ZM67.8162 95.71H69.5712L68.6892 93.937L67.8162 95.71ZM71.923 92.182L73.435 96.466H73.453L75.028 92.182L75.91 92.326L73.453 98.644H73.435L71.05 92.326L71.923 92.182ZM78.2438 92.182L81.3848 98.464L80.5028 98.644L79.4498 96.52H76.9658L75.9218 98.644L75.0938 98.464L78.2258 92.182H78.2438ZM77.3348 95.71H79.0898L78.2078 93.937L77.3348 95.71ZM81.8167 92.182L81.8437 92.191L85.7947 96.502V92.47L86.6767 92.326V98.644L86.6497 98.635L82.6987 94.324V98.5L81.8167 98.608V92.182ZM91.6717 93.289C91.5097 93.175 91.3447 93.097 91.1767 93.055C91.0087 93.013 90.8287 92.992 90.6367 92.992C90.3187 92.992 90.0217 93.061 89.7457 93.199C89.4757 93.331 89.2387 93.508 89.0347 93.73C88.8307 93.946 88.6717 94.198 88.5577 94.486C88.4437 94.774 88.3867 95.071 88.3867 95.377C88.3867 95.701 88.4437 96.013 88.5577 96.313C88.6717 96.607 88.8277 96.868 89.0257 97.096C89.2237 97.318 89.4547 97.498 89.7187 97.636C89.9887 97.768 90.2797 97.834 90.5917 97.834C90.8017 97.834 91.0117 97.801 91.2217 97.735C91.4377 97.663 91.6327 97.57 91.8067 97.456L91.6447 98.419C91.4587 98.485 91.2787 98.539 91.1047 98.581C90.9367 98.623 90.7597 98.644 90.5737 98.644C90.1597 98.644 89.7667 98.56 89.3947 98.392C89.0227 98.224 88.6957 97.996 88.4137 97.708C88.1377 97.414 87.9157 97.072 87.7477 96.682C87.5857 96.286 87.5047 95.863 87.5047 95.413C87.5047 95.005 87.5887 94.609 87.7567 94.225C87.9247 93.835 88.1437 93.49 88.4137 93.19C88.6897 92.884 89.0017 92.641 89.3497 92.461C89.6977 92.275 90.0547 92.182 90.4207 92.182C90.6007 92.182 90.7777 92.197 90.9517 92.227C91.1317 92.251 91.3087 92.287 91.4827 92.335L91.6717 93.289ZM96.1416 92.326L96.3306 93.136H93.7296V94.882H95.8086V95.692H93.7296V97.69H96.5286L96.2766 98.5H92.8476V92.326H96.1416ZM101.47 92.326L98.2296 97.69H101.632L101.416 98.5H96.8706L100.147 93.136H97.0056L97.1856 92.326H101.47ZM107.256 92.182L110.397 98.464L109.515 98.644L108.462 96.52H105.978L104.934 98.644L104.106 98.464L107.238 92.182H107.256ZM106.347 95.71H108.102L107.22 93.937L106.347 95.71ZM107.121 90.67L107.931 91.966H107.193L105.915 90.67H107.121ZM114.243 97.69H116.862L116.502 98.5H113.361V92.326L114.243 92.182V97.69ZM119.763 92.182L122.904 98.464L122.022 98.644L120.969 96.52H118.485L117.441 98.644L116.613 98.464L119.745 92.182H119.763ZM118.854 95.71H120.609L119.727 93.937L118.854 95.71ZM129.693 93.289C129.531 93.175 129.366 93.097 129.198 93.055C129.03 93.013 128.85 92.992 128.658 92.992C128.34 92.992 128.043 93.061 127.767 93.199C127.497 93.331 127.26 93.508 127.056 93.73C126.852 93.946 126.693 94.198 126.579 94.486C126.465 94.774 126.408 95.071 126.408 95.377C126.408 95.701 126.465 96.013 126.579 96.313C126.693 96.607 126.849 96.868 127.047 97.096C127.245 97.318 127.476 97.498 127.74 97.636C128.01 97.768 128.301 97.834 128.613 97.834C128.823 97.834 129.033 97.801 129.243 97.735C129.459 97.663 129.654 97.57 129.828 97.456L129.666 98.419C129.48 98.485 129.3 98.539 129.126 98.581C128.958 98.623 128.781 98.644 128.595 98.644C128.181 98.644 127.788 98.56 127.416 98.392C127.044 98.224 126.717 97.996 126.435 97.708C126.159 97.414 125.937 97.072 125.769 96.682C125.607 96.286 125.526 95.863 125.526 95.413C125.526 95.005 125.61 94.609 125.778 94.225C125.946 93.835 126.165 93.49 126.435 93.19C126.711 92.884 127.023 92.641 127.371 92.461C127.719 92.275 128.076 92.182 128.442 92.182C128.622 92.182 128.799 92.197 128.973 92.227C129.153 92.251 129.33 92.287 129.504 92.335L129.693 93.289ZM133.272 92.182L136.413 98.464L135.531 98.644L134.478 96.52H131.994L130.95 98.644L130.122 98.464L133.254 92.182H133.272ZM132.363 95.71H134.118L133.236 93.937L132.363 95.71ZM139.752 93.676C139.512 93.412 139.299 93.232 139.113 93.136C138.927 93.04 138.744 92.992 138.564 92.992C138.276 92.992 138.042 93.076 137.862 93.244C137.682 93.412 137.592 93.643 137.592 93.937C137.592 94.075 137.622 94.195 137.682 94.297C137.748 94.393 137.835 94.48 137.943 94.558C138.057 94.636 138.192 94.708 138.348 94.774C138.504 94.834 138.675 94.9 138.861 94.972C139.083 95.056 139.287 95.146 139.473 95.242C139.665 95.338 139.83 95.455 139.968 95.593C140.106 95.731 140.214 95.896 140.292 96.088C140.376 96.274 140.418 96.499 140.418 96.763C140.418 97.045 140.367 97.3 140.265 97.528C140.163 97.756 140.025 97.954 139.851 98.122C139.677 98.29 139.473 98.419 139.239 98.509C139.011 98.599 138.765 98.644 138.501 98.644C138.327 98.644 138.162 98.626 138.006 98.59C137.85 98.56 137.694 98.506 137.538 98.428C137.388 98.35 137.232 98.248 137.07 98.122C136.914 97.99 136.752 97.831 136.584 97.645L137.232 97.105C137.358 97.303 137.523 97.474 137.727 97.618C137.931 97.762 138.159 97.834 138.411 97.834C138.567 97.834 138.711 97.816 138.843 97.78C138.981 97.738 139.101 97.675 139.203 97.591C139.305 97.507 139.386 97.396 139.446 97.258C139.506 97.12 139.536 96.952 139.536 96.754C139.536 96.64 139.494 96.535 139.41 96.439C139.326 96.337 139.221 96.247 139.095 96.169C138.975 96.091 138.849 96.022 138.717 95.962C138.585 95.896 138.471 95.839 138.375 95.791C138.177 95.695 137.979 95.593 137.781 95.485C137.583 95.371 137.403 95.242 137.241 95.098C137.085 94.954 136.956 94.789 136.854 94.603C136.758 94.411 136.71 94.183 136.71 93.919C136.71 93.661 136.755 93.427 136.845 93.217C136.935 93.001 137.061 92.818 137.223 92.668C137.391 92.512 137.592 92.392 137.826 92.308C138.06 92.224 138.321 92.182 138.609 92.182C138.915 92.182 139.224 92.257 139.536 92.407C139.848 92.557 140.118 92.782 140.346 93.082L139.752 93.676ZM144.666 92.326L144.855 93.136H142.254V94.882H144.333V95.692H142.254V97.69H145.053L144.801 98.5H141.372V92.326H144.666ZM149.925 92.326C150.369 92.326 150.78 92.41 151.158 92.578C151.536 92.746 151.86 92.971 152.13 93.253C152.406 93.535 152.622 93.862 152.778 94.234C152.934 94.606 153.012 94.999 153.012 95.413C153.012 95.827 152.934 96.22 152.778 96.592C152.622 96.964 152.406 97.294 152.13 97.582C151.854 97.864 151.527 98.089 151.149 98.257C150.777 98.419 150.372 98.5 149.934 98.5H148.359V92.326H149.925ZM149.898 97.69C150.174 97.69 150.444 97.636 150.708 97.528C150.978 97.42 151.218 97.267 151.428 97.069C151.638 96.865 151.806 96.625 151.932 96.349C152.064 96.067 152.13 95.755 152.13 95.413C152.13 95.077 152.064 94.771 151.932 94.495C151.806 94.213 151.638 93.973 151.428 93.775C151.218 93.571 150.978 93.415 150.708 93.307C150.444 93.193 150.171 93.136 149.889 93.136H149.241V97.69H149.898ZM157.173 92.326L157.362 93.136H154.761V94.882H156.84V95.692H154.761V97.69H157.56L157.308 98.5H153.879V92.326H157.173ZM156.867 90.67L155.571 91.966H154.833L155.643 90.67H156.867ZM160.044 92.326C160.344 92.326 160.62 92.371 160.872 92.461C161.124 92.545 161.34 92.668 161.52 92.83C161.706 92.992 161.85 93.184 161.952 93.406C162.054 93.628 162.105 93.874 162.105 94.144C162.105 94.426 162.066 94.69 161.988 94.936C161.91 95.176 161.775 95.386 161.583 95.566C161.397 95.746 161.148 95.887 160.836 95.989C160.524 96.091 160.134 96.142 159.666 96.142H159.234V98.5L158.352 98.608V92.326H160.044ZM159.945 95.332C160.143 95.332 160.32 95.314 160.476 95.278C160.632 95.236 160.764 95.17 160.872 95.08C160.986 94.984 161.073 94.861 161.133 94.711C161.193 94.555 161.223 94.366 161.223 94.144C161.223 93.808 161.106 93.556 160.872 93.388C160.644 93.22 160.335 93.136 159.945 93.136H159.234V95.332H159.945ZM164.948 92.182L168.089 98.464L167.207 98.644L166.154 96.52H163.67L162.626 98.644L161.798 98.464L164.93 92.182H164.948ZM164.039 95.71H165.794L164.912 93.937L164.039 95.71ZM169.97 92.326C170.246 92.326 170.507 92.365 170.753 92.443C170.999 92.515 171.215 92.629 171.401 92.785C171.587 92.941 171.734 93.136 171.842 93.37C171.95 93.604 172.004 93.88 172.004 94.198C172.004 94.666 171.881 95.029 171.635 95.287C171.389 95.539 171.056 95.713 170.636 95.809L172.499 98.392L171.509 98.644L169.358 95.503H169.34V98.5L168.458 98.608V92.326H169.97ZM169.988 95.305C170.132 95.305 170.273 95.278 170.411 95.224C170.549 95.17 170.669 95.095 170.771 94.999C170.879 94.903 170.963 94.789 171.023 94.657C171.089 94.519 171.122 94.366 171.122 94.198C171.122 94.012 171.092 93.853 171.032 93.721C170.972 93.583 170.891 93.472 170.789 93.388C170.687 93.304 170.567 93.241 170.429 93.199C170.297 93.157 170.153 93.136 169.997 93.136H169.34V95.305H169.988ZM176.324 92.326V93.136H174.884V98.5L174.002 98.608V93.136H172.4L172.679 92.326H176.324ZM177.819 97.294L176.748 100.21L176.091 100.255L176.901 97.393L177.819 97.294Z" fill="black"/>
<path d="M90.9256 104.289C90.7636 104.175 90.5986 104.097 90.4306 104.055C90.2626 104.013 90.0826 103.992 89.8906 103.992C89.5726 103.992 89.2756 104.061 88.9996 104.199C88.7296 104.331 88.4926 104.508 88.2886 104.73C88.0846 104.946 87.9256 105.198 87.8116 105.486C87.6976 105.774 87.6406 106.071 87.6406 106.377C87.6406 106.701 87.6976 107.013 87.8116 107.313C87.9256 107.607 88.0816 107.868 88.2796 108.096C88.4776 108.318 88.7086 108.498 88.9726 108.636C89.2426 108.768 89.5336 108.834 89.8456 108.834C90.0556 108.834 90.2656 108.801 90.4756 108.735C90.6916 108.663 90.8866 108.57 91.0606 108.456L90.8986 109.419C90.7126 109.485 90.5326 109.539 90.3586 109.581C90.1906 109.623 90.0136 109.644 89.8276 109.644C89.4136 109.644 89.0206 109.56 88.6486 109.392C88.2766 109.224 87.9496 108.996 87.6676 108.708C87.3916 108.414 87.1696 108.072 87.0016 107.682C86.8396 107.286 86.7586 106.863 86.7586 106.413C86.7586 106.005 86.8426 105.609 87.0106 105.225C87.1786 104.835 87.3976 104.49 87.6676 104.19C87.9436 103.884 88.2556 103.641 88.6036 103.461C88.9516 103.275 89.3086 103.182 89.6746 103.182C89.8546 103.182 90.0316 103.197 90.2056 103.227C90.3856 103.251 90.5626 103.287 90.7366 103.335L90.9256 104.289ZM98.2395 106.413C98.2395 106.863 98.1525 107.286 97.9785 107.682C97.8105 108.072 97.5795 108.414 97.2855 108.708C96.9975 108.996 96.6555 109.224 96.2595 109.392C95.8695 109.56 95.4495 109.644 94.9995 109.644C94.5435 109.644 94.1175 109.56 93.7215 109.392C93.3315 109.224 92.9895 108.993 92.6955 108.699C92.4075 108.405 92.1795 108.063 92.0115 107.673C91.8435 107.277 91.7595 106.857 91.7595 106.413C91.7595 105.963 91.8435 105.543 92.0115 105.153C92.1855 104.757 92.4165 104.415 92.7045 104.127C92.9985 103.833 93.3405 103.602 93.7305 103.434C94.1265 103.266 94.5495 103.182 94.9995 103.182C95.4555 103.182 95.8785 103.269 96.2685 103.443C96.6645 103.611 97.0065 103.842 97.2945 104.136C97.5885 104.424 97.8195 104.766 97.9875 105.162C98.1555 105.552 98.2395 105.969 98.2395 106.413ZM94.9995 108.834C95.3115 108.834 95.6085 108.771 95.8905 108.645C96.1785 108.513 96.4305 108.339 96.6465 108.123C96.8625 107.901 97.0335 107.643 97.1595 107.349C97.2915 107.055 97.3575 106.743 97.3575 106.413C97.3575 106.089 97.2945 105.78 97.1685 105.486C97.0425 105.192 96.8715 104.937 96.6555 104.721C96.4455 104.499 96.1965 104.322 95.9085 104.19C95.6205 104.058 95.3145 103.992 94.9905 103.992C94.6845 103.992 94.3875 104.055 94.0995 104.181C93.8175 104.307 93.5685 104.481 93.3525 104.703C93.1365 104.919 92.9625 105.174 92.8305 105.468C92.7045 105.762 92.6415 106.077 92.6415 106.413C92.6415 106.743 92.7045 107.055 92.8305 107.349C92.9565 107.643 93.1275 107.901 93.3435 108.123C93.5595 108.339 93.8085 108.513 94.0905 108.645C94.3785 108.771 94.6815 108.834 94.9995 108.834ZM99.9884 108.69H102.607L102.247 109.5H99.1064V103.326L99.9884 103.182V108.69ZM103.987 108.69H106.606L106.246 109.5H103.105V103.326L103.987 103.182V108.69ZM110.398 103.326L110.587 104.136H107.986V105.882H110.065V106.692H107.986V108.69H110.785L110.533 109.5H107.104V103.326H110.398ZM115.429 104.289C115.267 104.175 115.102 104.097 114.934 104.055C114.766 104.013 114.586 103.992 114.394 103.992C114.076 103.992 113.779 104.061 113.503 104.199C113.233 104.331 112.996 104.508 112.792 104.73C112.588 104.946 112.429 105.198 112.315 105.486C112.201 105.774 112.144 106.071 112.144 106.377C112.144 106.701 112.201 107.013 112.315 107.313C112.429 107.607 112.585 107.868 112.783 108.096C112.981 108.318 113.212 108.498 113.476 108.636C113.746 108.768 114.037 108.834 114.349 108.834C114.559 108.834 114.769 108.801 114.979 108.735C115.195 108.663 115.39 108.57 115.564 108.456L115.402 109.419C115.216 109.485 115.036 109.539 114.862 109.581C114.694 109.623 114.517 109.644 114.331 109.644C113.917 109.644 113.524 109.56 113.152 109.392C112.78 109.224 112.453 108.996 112.171 108.708C111.895 108.414 111.673 108.072 111.505 107.682C111.343 107.286 111.262 106.863 111.262 106.413C111.262 106.005 111.346 105.609 111.514 105.225C111.682 104.835 111.901 104.49 112.171 104.19C112.447 103.884 112.759 103.641 113.107 103.461C113.455 103.275 113.812 103.182 114.178 103.182C114.358 103.182 114.535 103.197 114.709 103.227C114.889 103.251 115.066 103.287 115.24 103.335L115.429 104.289ZM119.881 103.326V104.136H118.441V109.5L117.559 109.608V104.136H115.957L116.236 103.326H119.881ZM123.898 103.326L124.087 104.136H121.486V105.882H123.565V106.692H121.486V108.69H124.285L124.033 109.5H120.604V103.326H123.898ZM129.226 103.326L125.986 108.69H129.388L129.172 109.5H124.627L127.903 104.136H124.762L124.942 103.326H129.226Z" fill="black"/>
<path d="M138.007 104.064C137.905 103.962 137.77 103.878 137.602 103.812C137.44 103.74 137.263 103.704 137.071 103.704C136.873 103.704 136.687 103.749 136.513 103.839C136.339 103.923 136.18 104.046 136.036 104.208C135.892 104.364 135.766 104.556 135.658 104.784C135.55 105.012 135.469 105.264 135.415 105.54H137.278L137.188 106.017H135.334C135.322 106.083 135.316 106.146 135.316 106.206C135.316 106.266 135.316 106.329 135.316 106.395C135.316 106.443 135.316 106.488 135.316 106.53C135.316 106.572 135.319 106.617 135.325 106.665H137.062L136.972 107.142H135.37C135.466 107.76 135.667 108.246 135.973 108.6C136.285 108.948 136.657 109.122 137.089 109.122C137.269 109.122 137.443 109.089 137.611 109.023C137.779 108.951 137.926 108.858 138.052 108.744L137.971 109.41C137.827 109.512 137.671 109.575 137.503 109.599C137.341 109.629 137.206 109.644 137.098 109.644C136.81 109.644 136.537 109.584 136.279 109.464C136.027 109.344 135.799 109.176 135.595 108.96C135.397 108.744 135.229 108.483 135.091 108.177C134.953 107.871 134.854 107.526 134.794 107.142H133.984L134.074 106.665H134.749C134.743 106.617 134.74 106.572 134.74 106.53C134.74 106.482 134.74 106.437 134.74 106.395C134.74 106.329 134.74 106.266 134.74 106.206C134.746 106.146 134.752 106.083 134.758 106.017H133.984L134.074 105.54H134.821C134.887 105.198 134.989 104.883 135.127 104.595C135.271 104.307 135.442 104.058 135.64 103.848C135.838 103.638 136.06 103.476 136.306 103.362C136.558 103.242 136.825 103.182 137.107 103.182C137.257 103.182 137.407 103.2 137.557 103.236C137.713 103.272 137.833 103.329 137.917 103.407L138.007 104.064Z" fill="black"/>
<path d="M144.737 105.108C144.737 105.348 144.692 105.588 144.602 105.828C144.512 106.068 144.398 106.302 144.26 106.53C144.122 106.752 143.969 106.965 143.801 107.169C143.633 107.373 143.471 107.559 143.315 107.727L142.406 108.69H144.836L144.674 109.5H140.633L143.099 106.638C143.189 106.536 143.279 106.422 143.369 106.296C143.459 106.17 143.54 106.041 143.612 105.909C143.684 105.771 143.741 105.636 143.783 105.504C143.831 105.366 143.855 105.234 143.855 105.108C143.855 104.76 143.747 104.487 143.531 104.289C143.315 104.091 143.027 103.992 142.667 103.992C142.493 103.992 142.334 104.022 142.19 104.082C142.046 104.142 141.92 104.226 141.812 104.334C141.704 104.436 141.62 104.556 141.56 104.694C141.5 104.832 141.47 104.979 141.47 105.135C141.47 105.531 141.569 105.843 141.767 106.071C141.971 106.293 142.226 106.419 142.532 106.449L141.974 107.151C141.578 107.025 141.26 106.785 141.02 106.431C140.78 106.077 140.66 105.636 140.66 105.108C140.66 104.826 140.711 104.568 140.813 104.334C140.921 104.1 141.068 103.899 141.254 103.731C141.44 103.557 141.659 103.422 141.911 103.326C142.163 103.23 142.439 103.182 142.739 103.182C143.021 103.182 143.282 103.227 143.522 103.317C143.768 103.407 143.981 103.536 144.161 103.704C144.341 103.872 144.482 104.076 144.584 104.316C144.686 104.55 144.737 104.814 144.737 105.108ZM147.749 109.644C147.335 109.644 146.984 109.548 146.696 109.356C146.408 109.158 146.177 108.906 146.003 108.6C145.829 108.288 145.703 107.94 145.625 107.556C145.547 107.166 145.508 106.782 145.508 106.404C145.508 106.176 145.523 105.939 145.553 105.693C145.583 105.447 145.631 105.204 145.697 104.964C145.769 104.724 145.862 104.496 145.976 104.28C146.09 104.064 146.228 103.875 146.39 103.713C146.558 103.551 146.753 103.422 146.975 103.326C147.197 103.23 147.455 103.182 147.749 103.182C148.169 103.182 148.52 103.281 148.802 103.479C149.09 103.677 149.321 103.932 149.495 104.244C149.675 104.556 149.801 104.904 149.873 105.288C149.951 105.672 149.99 106.053 149.99 106.431C149.99 106.773 149.954 107.133 149.882 107.511C149.81 107.883 149.687 108.228 149.513 108.546C149.345 108.864 149.117 109.128 148.829 109.338C148.541 109.542 148.181 109.644 147.749 109.644ZM147.749 108.834C148.199 108.834 148.538 108.627 148.766 108.213C148.994 107.793 149.108 107.193 149.108 106.413C149.108 105.645 148.994 105.051 148.766 104.631C148.544 104.205 148.202 103.992 147.74 103.992C147.32 103.992 146.99 104.193 146.75 104.595C146.51 104.991 146.39 105.597 146.39 106.413C146.39 107.193 146.504 107.793 146.732 108.213C146.96 108.627 147.299 108.834 147.749 108.834ZM152.75 109.644C152.336 109.644 151.985 109.548 151.697 109.356C151.409 109.158 151.178 108.906 151.004 108.6C150.83 108.288 150.704 107.94 150.626 107.556C150.548 107.166 150.509 106.782 150.509 106.404C150.509 106.176 150.524 105.939 150.554 105.693C150.584 105.447 150.632 105.204 150.698 104.964C150.77 104.724 150.863 104.496 150.977 104.28C151.091 104.064 151.229 103.875 151.391 103.713C151.559 103.551 151.754 103.422 151.976 103.326C152.198 103.23 152.456 103.182 152.75 103.182C153.17 103.182 153.521 103.281 153.803 103.479C154.091 103.677 154.322 103.932 154.496 104.244C154.676 104.556 154.802 104.904 154.874 105.288C154.952 105.672 154.991 106.053 154.991 106.431C154.991 106.773 154.955 107.133 154.883 107.511C154.811 107.883 154.688 108.228 154.514 108.546C154.346 108.864 154.118 109.128 153.83 109.338C153.542 109.542 153.182 109.644 152.75 109.644ZM152.75 108.834C153.2 108.834 153.539 108.627 153.767 108.213C153.995 107.793 154.109 107.193 154.109 106.413C154.109 105.645 153.995 105.051 153.767 104.631C153.545 104.205 153.203 103.992 152.741 103.992C152.321 103.992 151.991 104.193 151.751 104.595C151.511 104.991 151.391 105.597 151.391 106.413C151.391 107.193 151.505 107.793 151.733 108.213C151.961 108.627 152.3 108.834 152.75 108.834ZM156.5 108.033L157.085 108.807L156.5 109.581L155.915 108.807L156.5 108.033Z" fill="black"/>
<rect width="30" height="13" transform="translate(107.5 141)" fill="white"/>
<path d="M111.426 145.198C111.659 145.198 111.874 145.233 112.07 145.303C112.266 145.368 112.434 145.464 112.574 145.59C112.719 145.716 112.831 145.865 112.91 146.038C112.989 146.211 113.029 146.402 113.029 146.612C113.029 146.831 112.999 147.037 112.938 147.228C112.877 147.415 112.772 147.578 112.623 147.718C112.478 147.858 112.285 147.968 112.042 148.047C111.799 148.126 111.496 148.166 111.132 148.166H110.796V150L110.11 150.084V145.198H111.426ZM111.349 147.536C111.503 147.536 111.641 147.522 111.762 147.494C111.883 147.461 111.986 147.41 112.07 147.34C112.159 147.265 112.226 147.17 112.273 147.053C112.32 146.932 112.343 146.785 112.343 146.612C112.343 146.351 112.252 146.155 112.07 146.024C111.893 145.893 111.652 145.828 111.349 145.828H110.796V147.536H111.349ZM118.405 147.599C118.405 147.949 118.337 148.278 118.202 148.586C118.071 148.889 117.892 149.155 117.663 149.384C117.439 149.608 117.173 149.785 116.865 149.916C116.562 150.047 116.235 150.112 115.885 150.112C115.53 150.112 115.199 150.047 114.891 149.916C114.588 149.785 114.322 149.606 114.093 149.377C113.869 149.148 113.692 148.882 113.561 148.579C113.43 148.271 113.365 147.944 113.365 147.599C113.365 147.249 113.43 146.922 113.561 146.619C113.696 146.311 113.876 146.045 114.1 145.821C114.329 145.592 114.595 145.413 114.898 145.282C115.206 145.151 115.535 145.086 115.885 145.086C116.24 145.086 116.569 145.154 116.872 145.289C117.18 145.42 117.446 145.599 117.67 145.828C117.899 146.052 118.078 146.318 118.209 146.626C118.34 146.929 118.405 147.254 118.405 147.599ZM115.885 149.482C116.128 149.482 116.359 149.433 116.578 149.335C116.802 149.232 116.998 149.097 117.166 148.929C117.334 148.756 117.467 148.556 117.565 148.327C117.668 148.098 117.719 147.856 117.719 147.599C117.719 147.347 117.67 147.107 117.572 146.878C117.474 146.649 117.341 146.451 117.173 146.283C117.01 146.11 116.816 145.973 116.592 145.87C116.368 145.767 116.13 145.716 115.878 145.716C115.64 145.716 115.409 145.765 115.185 145.863C114.966 145.961 114.772 146.096 114.604 146.269C114.436 146.437 114.301 146.635 114.198 146.864C114.1 147.093 114.051 147.338 114.051 147.599C114.051 147.856 114.1 148.098 114.198 148.327C114.296 148.556 114.429 148.756 114.597 148.929C114.765 149.097 114.959 149.232 115.178 149.335C115.402 149.433 115.638 149.482 115.885 149.482ZM119.765 149.37H121.802L121.522 150H119.079V145.198L119.765 145.086V149.37ZM121.898 145.086L123.291 147.424L124.299 145.086L124.957 145.289L122.801 150.112L122.129 149.965L122.969 148.152L121.226 145.282L121.898 145.086ZM127.547 146.248C127.36 146.043 127.195 145.903 127.05 145.828C126.905 145.753 126.763 145.716 126.623 145.716C126.399 145.716 126.217 145.781 126.077 145.912C125.937 146.043 125.867 146.222 125.867 146.451C125.867 146.558 125.89 146.652 125.937 146.731C125.988 146.806 126.056 146.873 126.14 146.934C126.229 146.995 126.334 147.051 126.455 147.102C126.576 147.149 126.709 147.2 126.854 147.256C127.027 147.321 127.185 147.391 127.33 147.466C127.479 147.541 127.608 147.632 127.715 147.739C127.822 147.846 127.906 147.975 127.967 148.124C128.032 148.269 128.065 148.444 128.065 148.649C128.065 148.868 128.025 149.067 127.946 149.244C127.867 149.421 127.759 149.575 127.624 149.706C127.489 149.837 127.33 149.937 127.148 150.007C126.971 150.077 126.779 150.112 126.574 150.112C126.439 150.112 126.31 150.098 126.189 150.07C126.068 150.047 125.946 150.005 125.825 149.944C125.708 149.883 125.587 149.804 125.461 149.706C125.34 149.603 125.214 149.48 125.083 149.335L125.587 148.915C125.685 149.069 125.813 149.202 125.972 149.314C126.131 149.426 126.308 149.482 126.504 149.482C126.625 149.482 126.737 149.468 126.84 149.44C126.947 149.407 127.041 149.358 127.12 149.293C127.199 149.228 127.262 149.141 127.309 149.034C127.356 148.927 127.379 148.796 127.379 148.642C127.379 148.553 127.346 148.472 127.281 148.397C127.216 148.318 127.134 148.248 127.036 148.187C126.943 148.126 126.845 148.073 126.742 148.026C126.639 147.975 126.551 147.93 126.476 147.893C126.322 147.818 126.168 147.739 126.014 147.655C125.86 147.566 125.72 147.466 125.594 147.354C125.473 147.242 125.372 147.114 125.293 146.969C125.218 146.82 125.181 146.642 125.181 146.437C125.181 146.236 125.216 146.054 125.286 145.891C125.356 145.723 125.454 145.581 125.58 145.464C125.711 145.343 125.867 145.249 126.049 145.184C126.231 145.119 126.434 145.086 126.658 145.086C126.896 145.086 127.136 145.144 127.379 145.261C127.622 145.378 127.832 145.553 128.009 145.786L127.547 146.248ZM129.458 150L128.772 150.056V145.198L129.458 145.086V150ZM135.133 147.599C135.133 147.949 135.065 148.278 134.93 148.586C134.799 148.889 134.619 149.155 134.391 149.384C134.167 149.608 133.901 149.785 133.593 149.916C133.289 150.047 132.963 150.112 132.613 150.112C132.258 150.112 131.927 150.047 131.619 149.916C131.315 149.785 131.049 149.606 130.821 149.377C130.597 149.148 130.419 148.882 130.289 148.579C130.158 148.271 130.093 147.944 130.093 147.599C130.093 147.249 130.158 146.922 130.289 146.619C130.424 146.311 130.604 146.045 130.828 145.821C131.056 145.592 131.322 145.413 131.626 145.282C131.934 145.151 132.263 145.086 132.613 145.086C132.967 145.086 133.296 145.154 133.6 145.289C133.908 145.42 134.174 145.599 134.398 145.828C134.626 146.052 134.806 146.318 134.937 146.626C135.067 146.929 135.133 147.254 135.133 147.599ZM132.613 149.482C132.855 149.482 133.086 149.433 133.306 149.335C133.53 149.232 133.726 149.097 133.894 148.929C134.062 148.756 134.195 148.556 134.293 148.327C134.395 148.098 134.447 147.856 134.447 147.599C134.447 147.347 134.398 147.107 134.3 146.878C134.202 146.649 134.069 146.451 133.901 146.283C133.737 146.11 133.544 145.973 133.32 145.87C133.096 145.767 132.858 145.716 132.606 145.716C132.368 145.716 132.137 145.765 131.913 145.863C131.693 145.961 131.5 146.096 131.332 146.269C131.164 146.437 131.028 146.635 130.926 146.864C130.828 147.093 130.779 147.338 130.779 147.599C130.779 147.856 130.828 148.098 130.926 148.327C131.024 148.556 131.157 148.756 131.325 148.929C131.493 149.097 131.686 149.232 131.906 149.335C132.13 149.433 132.365 149.482 132.613 149.482Z" fill="black"/>
</svg>
