<svg width="244" height="157" viewBox="0 0 244 157" fill="none" xmlns="http://www.w3.org/2000/svg">
<rect width="244" height="157" fill="white"/>
<rect x="9" y="9" width="226" height="139" stroke="black"/>
<path d="M106.19 23.036C105.966 22.876 105.73 22.74 105.482 22.628C105.234 22.508 104.97 22.448 104.69 22.448C104.346 22.448 104.026 22.508 103.73 22.628C103.442 22.74 103.194 22.904 102.986 23.12C102.778 23.328 102.614 23.58 102.494 23.876C102.374 24.172 102.314 24.5 102.314 24.86C102.314 25.228 102.37 25.564 102.482 25.868C102.602 26.164 102.766 26.42 102.974 26.636C103.182 26.852 103.43 27.02 103.718 27.14C104.014 27.26 104.338 27.32 104.69 27.32C104.97 27.32 105.238 27.26 105.494 27.14C105.758 27.012 106.006 26.868 106.238 26.708L105.986 28.892C105.906 28.94 105.802 28.98 105.674 29.012C105.546 29.052 105.41 29.084 105.266 29.108C105.13 29.132 104.994 29.152 104.858 29.168C104.73 29.184 104.626 29.192 104.546 29.192C103.922 29.192 103.346 29.088 102.818 28.88C102.298 28.672 101.846 28.38 101.462 28.004C101.086 27.628 100.794 27.18 100.586 26.66C100.378 26.132 100.274 25.548 100.274 24.908C100.274 24.3 100.378 23.732 100.586 23.204C100.794 22.676 101.086 22.216 101.462 21.824C101.838 21.432 102.286 21.128 102.806 20.912C103.334 20.688 103.91 20.576 104.534 20.576C104.774 20.576 105.006 20.596 105.23 20.636C105.454 20.676 105.67 20.744 105.878 20.84L106.19 23.036ZM109.342 23.768H111.982V20.768L114.022 20.576V28.904L111.982 29.096V25.64H109.342V28.904L107.302 29.096V20.768L109.342 20.576V23.768ZM118.642 20.576H118.666L123.106 28.772L121.03 29.192L120.19 27.428L117.058 27.428L116.23 29.192L114.25 28.772L118.642 20.576ZM117.55 25.904L119.734 25.904L118.642 23.888L117.55 25.904ZM123.274 20.576H123.298L128.686 25.184V20.768L130.726 20.576V29.192H130.702L125.314 24.488V28.904L123.274 29.096V20.576ZM137.526 23.036C137.302 22.876 137.066 22.74 136.818 22.628C136.57 22.508 136.306 22.448 136.026 22.448C135.682 22.448 135.362 22.508 135.066 22.628C134.778 22.74 134.53 22.904 134.322 23.12C134.114 23.328 133.95 23.58 133.83 23.876C133.71 24.172 133.65 24.5 133.65 24.86C133.65 25.228 133.706 25.564 133.818 25.868C133.938 26.164 134.102 26.42 134.31 26.636C134.518 26.852 134.766 27.02 135.054 27.14C135.35 27.26 135.674 27.32 136.026 27.32C136.306 27.32 136.574 27.26 136.83 27.14C137.094 27.012 137.342 26.868 137.574 26.708L137.322 28.892C137.242 28.94 137.138 28.98 137.01 29.012C136.882 29.052 136.746 29.084 136.602 29.108C136.466 29.132 136.33 29.152 136.194 29.168C136.066 29.184 135.962 29.192 135.882 29.192C135.258 29.192 134.682 29.088 134.154 28.88C133.634 28.672 133.182 28.38 132.798 28.004C132.422 27.628 132.13 27.18 131.922 26.66C131.714 26.132 131.61 25.548 131.61 24.908C131.61 24.3 131.714 23.732 131.922 23.204C132.13 22.676 132.422 22.216 132.798 21.824C133.174 21.432 133.622 21.128 134.142 20.912C134.67 20.688 135.246 20.576 135.87 20.576C136.11 20.576 136.342 20.596 136.566 20.636C136.79 20.676 137.006 20.744 137.214 20.84L137.526 23.036ZM143.294 20.768L143.654 22.508H140.678V23.936H142.802V25.676H140.678V27.26H143.906L143.402 29H138.638V20.768H143.294Z" fill="black"/>
<rect width="194" height="95" transform="translate(25 37)" fill="white"/>
<path d="M59.1744 64.682L60.6864 68.966H60.7044L62.2794 64.682L63.1614 64.826L60.7044 71.144H60.6864L58.3014 64.826L59.1744 64.682ZM69.7224 67.913C69.7224 68.363 69.6354 68.786 69.4614 69.182C69.2934 69.572 69.0624 69.914 68.7684 70.208C68.4804 70.496 68.1384 70.724 67.7424 70.892C67.3524 71.06 66.9324 71.144 66.4824 71.144C66.0264 71.144 65.6004 71.06 65.2044 70.892C64.8144 70.724 64.4724 70.493 64.1784 70.199C63.8904 69.905 63.6624 69.563 63.4944 69.173C63.3264 68.777 63.2424 68.357 63.2424 67.913C63.2424 67.463 63.3264 67.043 63.4944 66.653C63.6684 66.257 63.8994 65.915 64.1874 65.627C64.4814 65.333 64.8234 65.102 65.2134 64.934C65.6094 64.766 66.0324 64.682 66.4824 64.682C66.9384 64.682 67.3614 64.769 67.7514 64.943C68.1474 65.111 68.4894 65.342 68.7774 65.636C69.0714 65.924 69.3024 66.266 69.4704 66.662C69.6384 67.052 69.7224 67.469 69.7224 67.913ZM66.4824 70.334C66.7944 70.334 67.0914 70.271 67.3734 70.145C67.6614 70.013 67.9134 69.839 68.1294 69.623C68.3454 69.401 68.5164 69.143 68.6424 68.849C68.7744 68.555 68.8404 68.243 68.8404 67.913C68.8404 67.589 68.7774 67.28 68.6514 66.986C68.5254 66.692 68.3544 66.437 68.1384 66.221C67.9284 65.999 67.6794 65.822 67.3914 65.69C67.1034 65.558 66.7974 65.492 66.4734 65.492C66.1674 65.492 65.8704 65.555 65.5824 65.681C65.3004 65.807 65.0514 65.981 64.8354 66.203C64.6194 66.419 64.4454 66.674 64.3134 66.968C64.1874 67.262 64.1244 67.577 64.1244 67.913C64.1244 68.243 64.1874 68.555 64.3134 68.849C64.4394 69.143 64.6104 69.401 64.8264 69.623C65.0424 69.839 65.2914 70.013 65.5734 70.145C65.8614 70.271 66.1644 70.334 66.4824 70.334ZM71.4353 69.101C71.4353 69.467 71.5373 69.764 71.7413 69.992C71.9513 70.22 72.2633 70.334 72.6773 70.334C73.1273 70.334 73.4663 70.226 73.6943 70.01C73.9223 69.788 74.0363 69.488 74.0363 69.11V64.826L74.9183 64.682V68.309C74.9183 68.531 74.9123 68.756 74.9003 68.984C74.8943 69.212 74.8703 69.431 74.8283 69.641C74.7923 69.851 74.7293 70.049 74.6393 70.235C74.5553 70.415 74.4353 70.574 74.2793 70.712C74.1233 70.844 73.9253 70.949 73.6853 71.027C73.4513 71.105 73.1633 71.144 72.8213 71.144C72.3953 71.144 72.0353 71.102 71.7413 71.018C71.4533 70.934 71.2193 70.796 71.0393 70.604C70.8653 70.406 70.7393 70.151 70.6613 69.839C70.5893 69.521 70.5533 69.131 70.5533 68.669V64.826L71.4353 64.682V69.101ZM78.9713 66.176C78.7313 65.912 78.5183 65.732 78.3323 65.636C78.1463 65.54 77.9633 65.492 77.7833 65.492C77.4953 65.492 77.2613 65.576 77.0813 65.744C76.9013 65.912 76.8113 66.143 76.8113 66.437C76.8113 66.575 76.8413 66.695 76.9013 66.797C76.9673 66.893 77.0543 66.98 77.1623 67.058C77.2763 67.136 77.4113 67.208 77.5673 67.274C77.7233 67.334 77.8943 67.4 78.0803 67.472C78.3023 67.556 78.5063 67.646 78.6923 67.742C78.8843 67.838 79.0493 67.955 79.1873 68.093C79.3253 68.231 79.4333 68.396 79.5113 68.588C79.5953 68.774 79.6373 68.999 79.6373 69.263C79.6373 69.545 79.5863 69.8 79.4843 70.028C79.3823 70.256 79.2443 70.454 79.0703 70.622C78.8963 70.79 78.6923 70.919 78.4583 71.009C78.2303 71.099 77.9843 71.144 77.7203 71.144C77.5463 71.144 77.3813 71.126 77.2253 71.09C77.0693 71.06 76.9133 71.006 76.7573 70.928C76.6073 70.85 76.4513 70.748 76.2893 70.622C76.1333 70.49 75.9713 70.331 75.8033 70.145L76.4513 69.605C76.5773 69.803 76.7423 69.974 76.9463 70.118C77.1503 70.262 77.3783 70.334 77.6303 70.334C77.7863 70.334 77.9303 70.316 78.0623 70.28C78.2003 70.238 78.3203 70.175 78.4223 70.091C78.5243 70.007 78.6053 69.896 78.6653 69.758C78.7253 69.62 78.7553 69.452 78.7553 69.254C78.7553 69.14 78.7133 69.035 78.6293 68.939C78.5453 68.837 78.4403 68.747 78.3143 68.669C78.1943 68.591 78.0683 68.522 77.9363 68.462C77.8043 68.396 77.6903 68.339 77.5943 68.291C77.3963 68.195 77.1983 68.093 77.0003 67.985C76.8023 67.871 76.6223 67.742 76.4603 67.598C76.3043 67.454 76.1753 67.289 76.0733 67.103C75.9773 66.911 75.9293 66.683 75.9293 66.419C75.9293 66.161 75.9743 65.927 76.0643 65.717C76.1543 65.501 76.2803 65.318 76.4423 65.168C76.6103 65.012 76.8113 64.892 77.0453 64.808C77.2793 64.724 77.5403 64.682 77.8283 64.682C78.1343 64.682 78.4433 64.757 78.7553 64.907C79.0673 65.057 79.3373 65.282 79.5653 65.582L78.9713 66.176ZM84.6442 64.826C85.0882 64.826 85.4992 64.91 85.8772 65.078C86.2552 65.246 86.5792 65.471 86.8492 65.753C87.1252 66.035 87.3412 66.362 87.4972 66.734C87.6532 67.106 87.7312 67.499 87.7312 67.913C87.7312 68.327 87.6532 68.72 87.4972 69.092C87.3412 69.464 87.1252 69.794 86.8492 70.082C86.5732 70.364 86.2462 70.589 85.8682 70.757C85.4962 70.919 85.0912 71 84.6532 71H83.0782V64.826H84.6442ZM84.6172 70.19C84.8932 70.19 85.1632 70.136 85.4272 70.028C85.6972 69.92 85.9372 69.767 86.1472 69.569C86.3572 69.365 86.5252 69.125 86.6512 68.849C86.7832 68.567 86.8492 68.255 86.8492 67.913C86.8492 67.577 86.7832 67.271 86.6512 66.995C86.5252 66.713 86.3572 66.473 86.1472 66.275C85.9372 66.071 85.6972 65.915 85.4272 65.807C85.1632 65.693 84.8902 65.636 84.6082 65.636H83.9602V70.19H84.6172ZM91.8921 64.826L92.0811 65.636H89.4801V67.382H91.5591V68.192H89.4801V70.19H92.2791L92.0271 71H88.5981V64.826H91.8921ZM93.1881 64.682L94.7001 68.966H94.7181L96.2931 64.682L97.1751 64.826L94.7181 71.144H94.7001L92.3151 64.826L93.1881 64.682ZM100.892 64.826L101.081 65.636H98.4801V67.382H100.559V68.192H98.4801V70.19H101.279L101.027 71H97.5981V64.826H100.892ZM106.22 64.826L102.98 70.19H106.382L106.166 71H101.621L104.897 65.636H101.756L101.936 64.826H106.22ZM111.026 64.826C111.302 64.826 111.563 64.865 111.809 64.943C112.055 65.015 112.271 65.129 112.457 65.285C112.643 65.441 112.79 65.636 112.898 65.87C113.006 66.104 113.06 66.38 113.06 66.698C113.06 67.166 112.937 67.529 112.691 67.787C112.445 68.039 112.112 68.213 111.692 68.309L113.555 70.892L112.565 71.144L110.414 68.003H110.396V71L109.514 71.108V64.826H111.026ZM111.044 67.805C111.188 67.805 111.329 67.778 111.467 67.724C111.605 67.67 111.725 67.595 111.827 67.499C111.935 67.403 112.019 67.289 112.079 67.157C112.145 67.019 112.178 66.866 112.178 66.698C112.178 66.512 112.148 66.353 112.088 66.221C112.028 66.083 111.947 65.972 111.845 65.888C111.743 65.804 111.623 65.741 111.485 65.699C111.353 65.657 111.209 65.636 111.053 65.636H110.396V67.805H111.044ZM117.398 64.826L117.587 65.636H114.986V67.382H117.065V68.192H114.986V70.19H117.785L117.533 71H114.104V64.826H117.398ZM118.577 64.682L118.604 64.691L122.555 69.002V64.97L123.437 64.826V71.144L123.41 71.135L119.459 66.824V71L118.577 71.108V64.682ZM130.745 67.913C130.745 68.363 130.658 68.786 130.484 69.182C130.316 69.572 130.085 69.914 129.791 70.208C129.503 70.496 129.161 70.724 128.765 70.892C128.375 71.06 127.955 71.144 127.505 71.144C127.049 71.144 126.623 71.06 126.227 70.892C125.837 70.724 125.495 70.493 125.201 70.199C124.913 69.905 124.685 69.563 124.517 69.173C124.349 68.777 124.265 68.357 124.265 67.913C124.265 67.463 124.349 67.043 124.517 66.653C124.691 66.257 124.922 65.915 125.21 65.627C125.504 65.333 125.846 65.102 126.236 64.934C126.632 64.766 127.055 64.682 127.505 64.682C127.961 64.682 128.384 64.769 128.774 64.943C129.17 65.111 129.512 65.342 129.8 65.636C130.094 65.924 130.325 66.266 130.493 66.662C130.661 67.052 130.745 67.469 130.745 67.913ZM127.505 70.334C127.817 70.334 128.114 70.271 128.396 70.145C128.684 70.013 128.936 69.839 129.152 69.623C129.368 69.401 129.539 69.143 129.665 68.849C129.797 68.555 129.863 68.243 129.863 67.913C129.863 67.589 129.8 67.28 129.674 66.986C129.548 66.692 129.377 66.437 129.161 66.221C128.951 65.999 128.702 65.822 128.414 65.69C128.126 65.558 127.82 65.492 127.496 65.492C127.19 65.492 126.893 65.555 126.605 65.681C126.323 65.807 126.074 65.981 125.858 66.203C125.642 66.419 125.468 66.674 125.336 66.968C125.21 67.262 125.147 67.577 125.147 67.913C125.147 68.243 125.21 68.555 125.336 68.849C125.462 69.143 125.633 69.401 125.849 69.623C126.065 69.839 126.314 70.013 126.596 70.145C126.884 70.271 127.187 70.334 127.505 70.334ZM132.458 69.101C132.458 69.467 132.56 69.764 132.764 69.992C132.974 70.22 133.286 70.334 133.7 70.334C134.15 70.334 134.489 70.226 134.717 70.01C134.945 69.788 135.059 69.488 135.059 69.11V64.826L135.941 64.682V68.309C135.941 68.531 135.935 68.756 135.923 68.984C135.917 69.212 135.893 69.431 135.851 69.641C135.815 69.851 135.752 70.049 135.662 70.235C135.578 70.415 135.458 70.574 135.302 70.712C135.146 70.844 134.948 70.949 134.708 71.027C134.474 71.105 134.186 71.144 133.844 71.144C133.418 71.144 133.058 71.102 132.764 71.018C132.476 70.934 132.242 70.796 132.062 70.604C131.888 70.406 131.762 70.151 131.684 69.839C131.612 69.521 131.576 69.131 131.576 68.669V64.826L132.458 64.682V69.101ZM137.204 64.682L138.716 68.966H138.734L140.309 64.682L141.191 64.826L138.734 71.144H138.716L136.331 64.826L137.204 64.682ZM144.908 64.826L145.097 65.636H142.496V67.382H144.575V68.192H142.496V70.19H145.295L145.043 71H141.614V64.826H144.908ZM146.996 70.19H149.615L149.255 71H146.114V64.826L146.996 64.682V70.19ZM153.407 64.826L153.596 65.636H150.995V67.382H153.074V68.192H150.995V70.19H153.794L153.542 71H150.113V64.826L153.407 64.826ZM156.035 64.826C156.311 64.826 156.572 64.865 156.818 64.943C157.064 65.015 157.28 65.129 157.466 65.285C157.652 65.441 157.799 65.636 157.907 65.87C158.015 66.104 158.069 66.38 158.069 66.698C158.069 67.166 157.946 67.529 157.7 67.787C157.454 68.039 157.121 68.213 156.701 68.309L158.564 70.892L157.574 71.144L155.423 68.003H155.405V71L154.523 71.108V64.826H156.035ZM156.053 67.805C156.197 67.805 156.338 67.778 156.476 67.724C156.614 67.67 156.734 67.595 156.836 67.499C156.944 67.403 157.028 67.289 157.088 67.157C157.154 67.019 157.187 66.866 157.187 66.698C157.187 66.512 157.157 66.353 157.097 66.221C157.037 66.083 156.956 65.972 156.854 65.888C156.752 65.804 156.632 65.741 156.494 65.699C156.362 65.657 156.218 65.636 156.062 65.636H155.405V67.805H156.053ZM161.708 64.682L163.22 68.966H163.238L164.813 64.682L165.695 64.826L163.238 71.144H163.22L160.835 64.826L161.708 64.682ZM172.256 67.913C172.256 68.363 172.169 68.786 171.995 69.182C171.827 69.572 171.596 69.914 171.302 70.208C171.014 70.496 170.672 70.724 170.276 70.892C169.886 71.06 169.466 71.144 169.016 71.144C168.56 71.144 168.134 71.06 167.738 70.892C167.348 70.724 167.006 70.493 166.712 70.199C166.424 69.905 166.196 69.563 166.028 69.173C165.86 68.777 165.776 68.357 165.776 67.913C165.776 67.463 165.86 67.043 166.028 66.653C166.202 66.257 166.433 65.915 166.721 65.627C167.015 65.333 167.357 65.102 167.747 64.934C168.143 64.766 168.566 64.682 169.016 64.682C169.472 64.682 169.895 64.769 170.285 64.943C170.681 65.111 171.023 65.342 171.311 65.636C171.605 65.924 171.836 66.266 172.004 66.662C172.172 67.052 172.256 67.469 172.256 67.913ZM169.016 70.334C169.328 70.334 169.625 70.271 169.907 70.145C170.195 70.013 170.447 69.839 170.663 69.623C170.879 69.401 171.05 69.143 171.176 68.849C171.308 68.555 171.374 68.243 171.374 67.913C171.374 67.589 171.311 67.28 171.185 66.986C171.059 66.692 170.888 66.437 170.672 66.221C170.462 65.999 170.213 65.822 169.925 65.69C169.637 65.558 169.331 65.492 169.007 65.492C168.701 65.492 168.404 65.555 168.116 65.681C167.834 65.807 167.585 65.981 167.369 66.203C167.153 66.419 166.979 66.674 166.847 66.968C166.721 67.262 166.658 67.577 166.658 67.913C166.658 68.243 166.721 68.555 166.847 68.849C166.973 69.143 167.144 69.401 167.36 69.623C167.576 69.839 167.825 70.013 168.107 70.145C168.395 70.271 168.698 70.334 169.016 70.334ZM176.399 64.826V65.636H174.959V71L174.077 71.108V65.636H172.475L172.754 64.826H176.399ZM178.544 64.826C178.82 64.826 179.081 64.865 179.327 64.943C179.573 65.015 179.789 65.129 179.975 65.285C180.161 65.441 180.308 65.636 180.416 65.87C180.524 66.104 180.578 66.38 180.578 66.698C180.578 67.166 180.455 67.529 180.209 67.787C179.963 68.039 179.63 68.213 179.21 68.309L181.073 70.892L180.083 71.144L177.932 68.003H177.914V71L177.032 71.108V64.826H178.544ZM178.562 67.805C178.706 67.805 178.847 67.778 178.985 67.724C179.123 67.67 179.243 67.595 179.345 67.499C179.453 67.403 179.537 67.289 179.597 67.157C179.663 67.019 179.696 66.866 179.696 66.698C179.696 66.512 179.666 66.353 179.606 66.221C179.546 66.083 179.465 65.972 179.363 65.888C179.261 65.804 179.141 65.741 179.003 65.699C178.871 65.657 178.727 65.636 178.571 65.636H177.914V67.805H178.562ZM184.916 64.826L185.105 65.636H182.504V67.382H184.583V68.192H182.504V70.19H185.303L185.051 71H181.622V64.826H184.916ZM77.2418 75.682L80.3828 81.964L79.5008 82.144L78.4478 80.02H75.9638L74.9198 82.144L74.0918 81.964L77.2238 75.682H77.2418ZM76.3328 79.21H78.0878L77.2058 77.437L76.3328 79.21ZM82.5968 75.826C82.8188 75.826 83.0288 75.868 83.2268 75.952C83.4308 76.036 83.6078 76.15 83.7578 76.294C83.9138 76.438 84.0368 76.609 84.1268 76.807C84.2168 77.005 84.2618 77.221 84.2618 77.455C84.2618 77.749 84.1868 78.004 84.0368 78.22C83.8868 78.436 83.6918 78.622 83.4518 78.778C83.6138 78.826 83.7578 78.901 83.8838 79.003C84.0098 79.105 84.1178 79.225 84.2078 79.363C84.2978 79.495 84.3638 79.642 84.4058 79.804C84.4538 79.96 84.4778 80.122 84.4778 80.29C84.4778 80.854 84.3008 81.28 83.9468 81.568C83.5928 81.856 83.1158 82 82.5158 82H80.7158V75.826H82.5968ZM82.4258 78.472C82.6778 78.472 82.8998 78.385 83.0918 78.211C83.2838 78.031 83.3798 77.779 83.3798 77.455C83.3798 77.167 83.2928 76.954 83.1188 76.816C82.9508 76.672 82.7228 76.6 82.4348 76.6H81.5978V78.472H82.4258ZM82.4438 81.226C82.7798 81.226 83.0558 81.157 83.2718 81.019C83.4878 80.875 83.5958 80.632 83.5958 80.29C83.5958 79.9 83.4848 79.624 83.2628 79.462C83.0468 79.294 82.7678 79.21 82.4258 79.21H81.5978V81.226H82.4438ZM91.4798 78.913C91.4798 79.363 91.3928 79.786 91.2188 80.182C91.0508 80.572 90.8198 80.914 90.5258 81.208C90.2378 81.496 89.8958 81.724 89.4998 81.892C89.1098 82.06 88.6898 82.144 88.2398 82.144C87.7838 82.144 87.3578 82.06 86.9618 81.892C86.5718 81.724 86.2298 81.493 85.9358 81.199C85.6478 80.905 85.4198 80.563 85.2518 80.173C85.0838 79.777 84.9998 79.357 84.9998 78.913C84.9998 78.463 85.0838 78.043 85.2518 77.653C85.4258 77.257 85.6568 76.915 85.9448 76.627C86.2388 76.333 86.5808 76.102 86.9708 75.934C87.3668 75.766 87.7898 75.682 88.2398 75.682C88.6958 75.682 89.1188 75.769 89.5088 75.943C89.9048 76.111 90.2468 76.342 90.5348 76.636C90.8288 76.924 91.0598 77.266 91.2278 77.662C91.3958 78.052 91.4798 78.469 91.4798 78.913ZM88.2398 81.334C88.5518 81.334 88.8488 81.271 89.1308 81.145C89.4188 81.013 89.6708 80.839 89.8868 80.623C90.1028 80.401 90.2738 80.143 90.3998 79.849C90.5318 79.555 90.5978 79.243 90.5978 78.913C90.5978 78.589 90.5348 78.28 90.4088 77.986C90.2828 77.692 90.1118 77.437 89.8958 77.221C89.6858 76.999 89.4368 76.822 89.1488 76.69C88.8608 76.558 88.5548 76.492 88.2308 76.492C87.9248 76.492 87.6278 76.555 87.3398 76.681C87.0578 76.807 86.8088 76.981 86.5928 77.203C86.3768 77.419 86.2028 77.674 86.0708 77.968C85.9448 78.262 85.8818 78.577 85.8818 78.913C85.8818 79.243 85.9448 79.555 86.0708 79.849C86.1968 80.143 86.3678 80.401 86.5838 80.623C86.7998 80.839 87.0488 81.013 87.3308 81.145C87.6188 81.271 87.9218 81.334 88.2398 81.334ZM92.3197 75.682L92.3467 75.691L96.2977 80.002V75.97L97.1797 75.826V82.144L97.1527 82.135L93.2017 77.824V82L92.3197 82.108V75.682ZM98.3226 75.682L98.3496 75.691L102.301 80.002V75.97L103.183 75.826V82.144L103.156 82.135L99.2046 77.824V82L98.3226 82.108V75.682ZM107.647 75.826L107.836 76.636H105.235V78.382H107.314V79.192H105.235V81.19H108.034L107.782 82H104.353V75.826H107.647ZM109.609 75.682H109.627L111.76 80.389L113.866 75.682H113.884L115.144 82L114.289 82.108L113.542 78.202H113.524L111.769 82.072H111.751L109.951 78.202H109.933L109.204 82.108L108.358 82L109.609 75.682ZM119.151 75.826L119.34 76.636H116.739V78.382H118.818V79.192H116.739V81.19H119.538L119.286 82H115.857V75.826H119.151ZM120.33 75.682L120.357 75.691L124.308 80.002V75.97L125.19 75.826V82.144L125.163 82.135L121.212 77.824V82L120.33 82.108V75.682ZM129.636 75.826V76.636H128.196V82L127.314 82.108V76.636H125.712L125.991 75.826H129.636ZM136.689 76.789C136.527 76.675 136.362 76.597 136.194 76.555C136.026 76.513 135.846 76.492 135.654 76.492C135.336 76.492 135.039 76.561 134.763 76.699C134.493 76.831 134.256 77.008 134.052 77.23C133.848 77.446 133.689 77.698 133.575 77.986C133.461 78.274 133.404 78.571 133.404 78.877C133.404 79.201 133.461 79.513 133.575 79.813C133.689 80.107 133.845 80.368 134.043 80.596C134.241 80.818 134.472 80.998 134.736 81.136C135.006 81.268 135.297 81.334 135.609 81.334C135.819 81.334 136.029 81.301 136.239 81.235C136.455 81.163 136.65 81.07 136.824 80.956L136.662 81.919C136.476 81.985 136.296 82.039 136.122 82.081C135.954 82.123 135.777 82.144 135.591 82.144C135.177 82.144 134.784 82.06 134.412 81.892C134.04 81.724 133.713 81.496 133.431 81.208C133.155 80.914 132.933 80.572 132.765 80.182C132.603 79.786 132.522 79.363 132.522 78.913C132.522 78.505 132.606 78.109 132.774 77.725C132.942 77.335 133.161 76.99 133.431 76.69C133.707 76.384 134.019 76.141 134.367 75.961C134.715 75.775 135.072 75.682 135.438 75.682C135.618 75.682 135.795 75.697 135.969 75.727C136.149 75.751 136.326 75.787 136.5 75.835L136.689 76.789ZM138.612 77.878H138.666C138.78 77.692 138.96 77.551 139.206 77.455C139.452 77.353 139.71 77.302 139.98 77.302C140.532 77.302 140.967 77.437 141.285 77.707C141.609 77.977 141.771 78.343 141.771 78.805V82L140.907 82.144V78.94C140.907 78.67 140.823 78.457 140.655 78.301C140.487 78.145 140.235 78.067 139.899 78.067C139.503 78.067 139.188 78.19 138.954 78.436C138.726 78.682 138.612 79.015 138.612 79.435V82L137.748 82.144V75.781L138.612 75.637V77.878ZM146.304 82L145.53 82.144V81.514H145.512C145.446 81.64 145.362 81.745 145.26 81.829C145.164 81.913 145.056 81.976 144.936 82.018C144.822 82.066 144.696 82.099 144.558 82.117C144.426 82.135 144.294 82.144 144.162 82.144C143.91 82.144 143.679 82.099 143.469 82.009C143.265 81.925 143.088 81.805 142.938 81.649C142.788 81.487 142.671 81.298 142.587 81.082C142.509 80.866 142.47 80.629 142.47 80.371C142.47 80.137 142.518 79.921 142.614 79.723C142.71 79.525 142.839 79.354 143.001 79.21C143.169 79.066 143.361 78.955 143.577 78.877C143.799 78.799 144.036 78.76 144.288 78.76C144.498 78.76 144.702 78.793 144.9 78.859C145.104 78.925 145.284 79.039 145.44 79.201V78.886C145.44 78.718 145.419 78.583 145.377 78.481C145.335 78.379 145.269 78.301 145.179 78.247C145.095 78.193 144.984 78.157 144.846 78.139C144.708 78.121 144.543 78.112 144.351 78.112C144.165 78.112 143.958 78.127 143.73 78.157C143.502 78.181 143.268 78.253 143.028 78.373L143.262 77.482C143.478 77.434 143.694 77.392 143.91 77.356C144.126 77.32 144.327 77.302 144.513 77.302C145.155 77.302 145.614 77.443 145.89 77.725C146.166 78.007 146.304 78.427 146.304 78.985V82ZM144.324 81.334C144.702 81.334 144.981 81.25 145.161 81.082C145.347 80.914 145.44 80.677 145.44 80.371C145.44 80.119 145.344 79.915 145.152 79.759C144.96 79.603 144.702 79.525 144.378 79.525C144.072 79.525 143.82 79.603 143.622 79.759C143.43 79.909 143.334 80.113 143.334 80.371C143.334 80.695 143.421 80.938 143.595 81.1C143.775 81.256 144.018 81.334 144.324 81.334ZM148.392 77.446H149.607V78.211H148.392V80.659C148.392 80.785 148.404 80.893 148.428 80.983C148.452 81.073 148.494 81.148 148.554 81.208C148.614 81.268 148.695 81.313 148.797 81.343C148.905 81.367 149.04 81.379 149.202 81.379C149.304 81.379 149.4 81.373 149.49 81.361C149.58 81.349 149.676 81.337 149.778 81.325L149.625 82.108C149.595 82.108 149.526 82.114 149.418 82.126C149.316 82.138 149.163 82.144 148.959 82.144C148.725 82.144 148.518 82.105 148.338 82.027C148.164 81.949 148.017 81.847 147.897 81.721C147.777 81.595 147.684 81.451 147.618 81.289C147.558 81.121 147.528 80.95 147.528 80.776V78.211H146.817L147.123 77.446H147.528V76.33L148.392 76.123V77.446ZM154.953 77.131C154.833 77.047 154.713 76.966 154.593 76.888C154.473 76.81 154.344 76.744 154.206 76.69C154.074 76.63 153.93 76.582 153.774 76.546C153.618 76.51 153.447 76.492 153.261 76.492C152.943 76.492 152.64 76.558 152.352 76.69C152.07 76.816 151.821 76.993 151.605 77.221C151.389 77.443 151.218 77.704 151.092 78.004C150.966 78.304 150.903 78.628 150.903 78.976C150.903 79.258 150.96 79.54 151.074 79.822C151.188 80.104 151.344 80.359 151.542 80.587C151.74 80.809 151.971 80.989 152.235 81.127C152.505 81.265 152.793 81.334 153.099 81.334C153.375 81.334 153.654 81.295 153.936 81.217C154.224 81.133 154.47 80.989 154.674 80.785V79.318H152.829L153.135 78.508H155.556V81.244C155.442 81.382 155.295 81.508 155.115 81.622C154.935 81.73 154.737 81.823 154.521 81.901C154.305 81.979 154.077 82.039 153.837 82.081C153.597 82.123 153.36 82.144 153.126 82.144C152.718 82.144 152.328 82.06 151.956 81.892C151.584 81.718 151.254 81.487 150.966 81.199C150.678 80.911 150.447 80.578 150.273 80.2C150.105 79.816 150.021 79.414 150.021 78.994C150.021 78.544 150.102 78.118 150.264 77.716C150.426 77.314 150.648 76.963 150.93 76.663C151.218 76.357 151.557 76.117 151.947 75.943C152.337 75.769 152.763 75.682 153.225 75.682C153.657 75.682 154.071 75.754 154.467 75.898C154.863 76.036 155.199 76.246 155.475 76.528L154.953 77.131ZM158.523 75.826C158.823 75.826 159.099 75.871 159.351 75.961C159.603 76.045 159.819 76.168 159.999 76.33C160.185 76.492 160.329 76.684 160.431 76.906C160.533 77.128 160.584 77.374 160.584 77.644C160.584 77.926 160.545 78.19 160.467 78.436C160.389 78.676 160.254 78.886 160.062 79.066C159.876 79.246 159.627 79.387 159.315 79.489C159.003 79.591 158.613 79.642 158.145 79.642H157.713V82L156.831 82.108V75.826H158.523ZM158.424 78.832C158.622 78.832 158.799 78.814 158.955 78.778C159.111 78.736 159.243 78.67 159.351 78.58C159.465 78.484 159.552 78.361 159.612 78.211C159.672 78.055 159.702 77.866 159.702 77.644C159.702 77.308 159.585 77.056 159.351 76.888C159.123 76.72 158.814 76.636 158.424 76.636H157.713V78.832H158.424ZM164.634 75.826V76.636H163.194V82L162.312 82.108V76.636H160.71L160.989 75.826H164.634ZM168.969 79.912L168.267 80.056L168.186 75.826L169.104 75.682L168.969 79.912ZM168.573 80.533L169.158 81.307L168.573 82.081L167.988 81.307L168.573 80.533Z" fill="black"/>
<path d="M101.101 97.826C101.401 97.826 101.677 97.871 101.929 97.961C102.181 98.045 102.397 98.168 102.577 98.33C102.763 98.492 102.907 98.684 103.009 98.906C103.111 99.128 103.162 99.374 103.162 99.644C103.162 99.926 103.123 100.19 103.045 100.436C102.967 100.676 102.832 100.886 102.64 101.066C102.454 101.246 102.205 101.387 101.893 101.489C101.581 101.591 101.191 101.642 100.723 101.642H100.291V104L99.4085 104.108V97.826H101.101ZM101.002 100.832C101.2 100.832 101.377 100.814 101.533 100.778C101.689 100.736 101.821 100.67 101.929 100.58C102.043 100.484 102.13 100.361 102.19 100.211C102.25 100.055 102.28 99.866 102.28 99.644C102.28 99.308 102.163 99.056 101.929 98.888C101.701 98.72 101.392 98.636 101.002 98.636H100.291V100.832H101.002ZM106.005 97.682L109.146 103.964L108.264 104.144L107.211 102.02H104.727L103.683 104.144L102.855 103.964L105.987 97.682H106.005ZM105.096 101.21H106.851L105.969 99.437L105.096 101.21ZM109.387 97.682L111.178 100.688L112.474 97.682L113.32 97.943L110.548 104.144L109.684 103.955L110.764 101.624L108.523 97.934L109.387 97.682ZM117.064 97.826L117.253 98.636H114.652V100.382H116.731V101.192H114.652V103.19H117.451L117.199 104H113.77V97.826H117.064ZM119.692 97.826C119.968 97.826 120.229 97.865 120.475 97.943C120.721 98.015 120.937 98.129 121.123 98.285C121.309 98.441 121.456 98.636 121.564 98.87C121.672 99.104 121.726 99.38 121.726 99.698C121.726 100.166 121.603 100.529 121.357 100.787C121.111 101.039 120.778 101.213 120.358 101.309L122.221 103.892L121.231 104.144L119.08 101.003H119.062V104L118.18 104.108V97.826H119.692ZM119.71 100.805C119.854 100.805 119.995 100.778 120.133 100.724C120.271 100.67 120.391 100.595 120.493 100.499C120.601 100.403 120.685 100.289 120.745 100.157C120.811 100.019 120.844 99.866 120.844 99.698C120.844 99.512 120.814 99.353 120.754 99.221C120.694 99.083 120.613 98.972 120.511 98.888C120.409 98.804 120.289 98.741 120.151 98.699C120.019 98.657 119.875 98.636 119.719 98.636H119.062V100.805H119.71Z" fill="black"/>
<path d="M130.507 98.564C130.405 98.462 130.27 98.378 130.102 98.312C129.94 98.24 129.763 98.204 129.571 98.204C129.373 98.204 129.187 98.249 129.013 98.339C128.839 98.423 128.68 98.546 128.536 98.708C128.392 98.864 128.266 99.056 128.158 99.284C128.05 99.512 127.969 99.764 127.915 100.04H129.778L129.688 100.517H127.834C127.822 100.583 127.816 100.646 127.816 100.706C127.816 100.766 127.816 100.829 127.816 100.895C127.816 100.943 127.816 100.988 127.816 101.03C127.816 101.072 127.819 101.117 127.825 101.165H129.562L129.472 101.642H127.87C127.966 102.26 128.167 102.746 128.473 103.1C128.785 103.448 129.157 103.622 129.589 103.622C129.769 103.622 129.943 103.589 130.111 103.523C130.279 103.451 130.426 103.358 130.552 103.244L130.471 103.91C130.327 104.012 130.171 104.075 130.003 104.099C129.841 104.129 129.706 104.144 129.598 104.144C129.31 104.144 129.037 104.084 128.779 103.964C128.527 103.844 128.299 103.676 128.095 103.46C127.897 103.244 127.729 102.983 127.591 102.677C127.453 102.371 127.354 102.026 127.294 101.642H126.484L126.574 101.165H127.249C127.243 101.117 127.24 101.072 127.24 101.03C127.24 100.982 127.24 100.937 127.24 100.895C127.24 100.829 127.24 100.766 127.24 100.706C127.246 100.646 127.252 100.583 127.258 100.517H126.484L126.574 100.04H127.321C127.387 99.698 127.489 99.383 127.627 99.095C127.771 98.807 127.942 98.558 128.14 98.348C128.338 98.138 128.56 97.976 128.806 97.862C129.058 97.742 129.325 97.682 129.607 97.682C129.757 97.682 129.907 97.7 130.057 97.736C130.213 97.772 130.333 97.829 130.417 97.907L130.507 98.564Z" fill="black"/>
<path d="M136.896 97.826L136.68 98.636H134.52V99.905C134.718 99.845 134.919 99.815 135.123 99.815C135.411 99.815 135.684 99.875 135.942 99.995C136.2 100.109 136.428 100.265 136.626 100.463C136.824 100.661 136.98 100.892 137.094 101.156C137.208 101.414 137.265 101.687 137.265 101.975C137.265 102.293 137.202 102.584 137.076 102.848C136.956 103.112 136.788 103.34 136.572 103.532C136.356 103.724 136.104 103.874 135.816 103.982C135.528 104.09 135.219 104.144 134.889 104.144C134.475 104.144 134.118 104.063 133.818 103.901C133.518 103.739 133.239 103.502 132.981 103.19L133.701 102.704C133.845 102.878 134.016 103.028 134.214 103.154C134.412 103.274 134.625 103.334 134.853 103.334C135.057 103.334 135.249 103.304 135.429 103.244C135.615 103.184 135.777 103.097 135.915 102.983C136.059 102.869 136.173 102.728 136.257 102.56C136.341 102.386 136.383 102.191 136.383 101.975C136.383 101.777 136.344 101.597 136.266 101.435C136.188 101.267 136.08 101.123 135.942 101.003C135.81 100.883 135.651 100.79 135.465 100.724C135.285 100.658 135.093 100.625 134.889 100.625C134.649 100.625 134.424 100.673 134.214 100.769C134.004 100.859 133.812 100.982 133.638 101.138V97.826H136.896ZM140.25 104.144C139.836 104.144 139.485 104.048 139.197 103.856C138.909 103.658 138.678 103.406 138.504 103.1C138.33 102.788 138.204 102.44 138.126 102.056C138.048 101.666 138.009 101.282 138.009 100.904C138.009 100.676 138.024 100.439 138.054 100.193C138.084 99.947 138.132 99.704 138.198 99.464C138.27 99.224 138.363 98.996 138.477 98.78C138.591 98.564 138.729 98.375 138.891 98.213C139.059 98.051 139.254 97.922 139.476 97.826C139.698 97.73 139.956 97.682 140.25 97.682C140.67 97.682 141.021 97.781 141.303 97.979C141.591 98.177 141.822 98.432 141.996 98.744C142.176 99.056 142.302 99.404 142.374 99.788C142.452 100.172 142.491 100.553 142.491 100.931C142.491 101.273 142.455 101.633 142.383 102.011C142.311 102.383 142.188 102.728 142.014 103.046C141.846 103.364 141.618 103.628 141.33 103.838C141.042 104.042 140.682 104.144 140.25 104.144ZM140.25 103.334C140.7 103.334 141.039 103.127 141.267 102.713C141.495 102.293 141.609 101.693 141.609 100.913C141.609 100.145 141.495 99.551 141.267 99.131C141.045 98.705 140.703 98.492 140.241 98.492C139.821 98.492 139.491 98.693 139.251 99.095C139.011 99.491 138.891 100.097 138.891 100.913C138.891 101.693 139.005 102.293 139.233 102.713C139.461 103.127 139.8 103.334 140.25 103.334ZM144 102.533L144.585 103.307L144 104.081L143.415 103.307L144 102.533Z" fill="black"/>
<rect width="30" height="13" transform="translate(107.5 141)" fill="white"/>
<path d="M111.426 145.198C111.659 145.198 111.874 145.233 112.07 145.303C112.266 145.368 112.434 145.464 112.574 145.59C112.719 145.716 112.831 145.865 112.91 146.038C112.989 146.211 113.029 146.402 113.029 146.612C113.029 146.831 112.999 147.037 112.938 147.228C112.877 147.415 112.772 147.578 112.623 147.718C112.478 147.858 112.285 147.968 112.042 148.047C111.799 148.126 111.496 148.166 111.132 148.166H110.796V150L110.11 150.084V145.198H111.426ZM111.349 147.536C111.503 147.536 111.641 147.522 111.762 147.494C111.883 147.461 111.986 147.41 112.07 147.34C112.159 147.265 112.226 147.17 112.273 147.053C112.32 146.932 112.343 146.785 112.343 146.612C112.343 146.351 112.252 146.155 112.07 146.024C111.893 145.893 111.652 145.828 111.349 145.828H110.796V147.536H111.349ZM118.405 147.599C118.405 147.949 118.337 148.278 118.202 148.586C118.071 148.889 117.892 149.155 117.663 149.384C117.439 149.608 117.173 149.785 116.865 149.916C116.562 150.047 116.235 150.112 115.885 150.112C115.53 150.112 115.199 150.047 114.891 149.916C114.588 149.785 114.322 149.606 114.093 149.377C113.869 149.148 113.692 148.882 113.561 148.579C113.43 148.271 113.365 147.944 113.365 147.599C113.365 147.249 113.43 146.922 113.561 146.619C113.696 146.311 113.876 146.045 114.1 145.821C114.329 145.592 114.595 145.413 114.898 145.282C115.206 145.151 115.535 145.086 115.885 145.086C116.24 145.086 116.569 145.154 116.872 145.289C117.18 145.42 117.446 145.599 117.67 145.828C117.899 146.052 118.078 146.318 118.209 146.626C118.34 146.929 118.405 147.254 118.405 147.599ZM115.885 149.482C116.128 149.482 116.359 149.433 116.578 149.335C116.802 149.232 116.998 149.097 117.166 148.929C117.334 148.756 117.467 148.556 117.565 148.327C117.668 148.098 117.719 147.856 117.719 147.599C117.719 147.347 117.67 147.107 117.572 146.878C117.474 146.649 117.341 146.451 117.173 146.283C117.01 146.11 116.816 145.973 116.592 145.87C116.368 145.767 116.13 145.716 115.878 145.716C115.64 145.716 115.409 145.765 115.185 145.863C114.966 145.961 114.772 146.096 114.604 146.269C114.436 146.437 114.301 146.635 114.198 146.864C114.1 147.093 114.051 147.338 114.051 147.599C114.051 147.856 114.1 148.098 114.198 148.327C114.296 148.556 114.429 148.756 114.597 148.929C114.765 149.097 114.959 149.232 115.178 149.335C115.402 149.433 115.638 149.482 115.885 149.482ZM119.765 149.37H121.802L121.522 150H119.079V145.198L119.765 145.086V149.37ZM121.898 145.086L123.291 147.424L124.299 145.086L124.957 145.289L122.801 150.112L122.129 149.965L122.969 148.152L121.226 145.282L121.898 145.086ZM127.547 146.248C127.36 146.043 127.195 145.903 127.05 145.828C126.905 145.753 126.763 145.716 126.623 145.716C126.399 145.716 126.217 145.781 126.077 145.912C125.937 146.043 125.867 146.222 125.867 146.451C125.867 146.558 125.89 146.652 125.937 146.731C125.988 146.806 126.056 146.873 126.14 146.934C126.229 146.995 126.334 147.051 126.455 147.102C126.576 147.149 126.709 147.2 126.854 147.256C127.027 147.321 127.185 147.391 127.33 147.466C127.479 147.541 127.608 147.632 127.715 147.739C127.822 147.846 127.906 147.975 127.967 148.124C128.032 148.269 128.065 148.444 128.065 148.649C128.065 148.868 128.025 149.067 127.946 149.244C127.867 149.421 127.759 149.575 127.624 149.706C127.489 149.837 127.33 149.937 127.148 150.007C126.971 150.077 126.779 150.112 126.574 150.112C126.439 150.112 126.31 150.098 126.189 150.07C126.068 150.047 125.946 150.005 125.825 149.944C125.708 149.883 125.587 149.804 125.461 149.706C125.34 149.603 125.214 149.48 125.083 149.335L125.587 148.915C125.685 149.069 125.813 149.202 125.972 149.314C126.131 149.426 126.308 149.482 126.504 149.482C126.625 149.482 126.737 149.468 126.84 149.44C126.947 149.407 127.041 149.358 127.12 149.293C127.199 149.228 127.262 149.141 127.309 149.034C127.356 148.927 127.379 148.796 127.379 148.642C127.379 148.553 127.346 148.472 127.281 148.397C127.216 148.318 127.134 148.248 127.036 148.187C126.943 148.126 126.845 148.073 126.742 148.026C126.639 147.975 126.551 147.93 126.476 147.893C126.322 147.818 126.168 147.739 126.014 147.655C125.86 147.566 125.72 147.466 125.594 147.354C125.473 147.242 125.372 147.114 125.293 146.969C125.218 146.82 125.181 146.642 125.181 146.437C125.181 146.236 125.216 146.054 125.286 145.891C125.356 145.723 125.454 145.581 125.58 145.464C125.711 145.343 125.867 145.249 126.049 145.184C126.231 145.119 126.434 145.086 126.658 145.086C126.896 145.086 127.136 145.144 127.379 145.261C127.622 145.378 127.832 145.553 128.009 145.786L127.547 146.248ZM129.458 150L128.772 150.056V145.198L129.458 145.086V150ZM135.133 147.599C135.133 147.949 135.065 148.278 134.93 148.586C134.799 148.889 134.619 149.155 134.391 149.384C134.167 149.608 133.901 149.785 133.593 149.916C133.289 150.047 132.963 150.112 132.613 150.112C132.258 150.112 131.927 150.047 131.619 149.916C131.315 149.785 131.049 149.606 130.821 149.377C130.597 149.148 130.419 148.882 130.289 148.579C130.158 148.271 130.093 147.944 130.093 147.599C130.093 147.249 130.158 146.922 130.289 146.619C130.424 146.311 130.604 146.045 130.828 145.821C131.056 145.592 131.322 145.413 131.626 145.282C131.934 145.151 132.263 145.086 132.613 145.086C132.967 145.086 133.296 145.154 133.6 145.289C133.908 145.42 134.174 145.599 134.398 145.828C134.626 146.052 134.806 146.318 134.937 146.626C135.067 146.929 135.133 147.254 135.133 147.599ZM132.613 149.482C132.855 149.482 133.086 149.433 133.306 149.335C133.53 149.232 133.726 149.097 133.894 148.929C134.062 148.756 134.195 148.556 134.293 148.327C134.395 148.098 134.447 147.856 134.447 147.599C134.447 147.347 134.398 147.107 134.3 146.878C134.202 146.649 134.069 146.451 133.901 146.283C133.737 146.11 133.544 145.973 133.32 145.87C133.096 145.767 132.858 145.716 132.606 145.716C132.368 145.716 132.137 145.765 131.913 145.863C131.693 145.961 131.5 146.096 131.332 146.269C131.164 146.437 131.028 146.635 130.926 146.864C130.828 147.093 130.779 147.338 130.779 147.599C130.779 147.856 130.828 148.098 130.926 148.327C131.024 148.556 131.157 148.756 131.325 148.929C131.493 149.097 131.686 149.232 131.906 149.335C132.13 149.433 132.365 149.482 132.613 149.482Z" fill="black"/>
</svg>
