<svg width="244" height="157" viewBox="0 0 244 157" fill="none" xmlns="http://www.w3.org/2000/svg">
<rect width="244" height="157" fill="white"/>
<rect x="9" y="9" width="226" height="139" stroke="black"/>
<path d="M106.19 23.036C105.966 22.876 105.73 22.74 105.482 22.628C105.234 22.508 104.97 22.448 104.69 22.448C104.346 22.448 104.026 22.508 103.73 22.628C103.442 22.74 103.194 22.904 102.986 23.12C102.778 23.328 102.614 23.58 102.494 23.876C102.374 24.172 102.314 24.5 102.314 24.86C102.314 25.228 102.37 25.564 102.482 25.868C102.602 26.164 102.766 26.42 102.974 26.636C103.182 26.852 103.43 27.02 103.718 27.14C104.014 27.26 104.338 27.32 104.69 27.32C104.97 27.32 105.238 27.26 105.494 27.14C105.758 27.012 106.006 26.868 106.238 26.708L105.986 28.892C105.906 28.94 105.802 28.98 105.674 29.012C105.546 29.052 105.41 29.084 105.266 29.108C105.13 29.132 104.994 29.152 104.858 29.168C104.73 29.184 104.626 29.192 104.546 29.192C103.922 29.192 103.346 29.088 102.818 28.88C102.298 28.672 101.846 28.38 101.462 28.004C101.086 27.628 100.794 27.18 100.586 26.66C100.378 26.132 100.274 25.548 100.274 24.908C100.274 24.3 100.378 23.732 100.586 23.204C100.794 22.676 101.086 22.216 101.462 21.824C101.838 21.432 102.286 21.128 102.806 20.912C103.334 20.688 103.91 20.576 104.534 20.576C104.774 20.576 105.006 20.596 105.23 20.636C105.454 20.676 105.67 20.744 105.878 20.84L106.19 23.036ZM109.342 23.768H111.982V20.768L114.022 20.576V28.904L111.982 29.096V25.64H109.342V28.904L107.302 29.096V20.768L109.342 20.576V23.768ZM118.642 20.576H118.666L123.106 28.772L121.03 29.192L120.19 27.428L117.058 27.428L116.23 29.192L114.25 28.772L118.642 20.576ZM117.55 25.904L119.734 25.904L118.642 23.888L117.55 25.904ZM123.274 20.576H123.298L128.686 25.184V20.768L130.726 20.576V29.192H130.702L125.314 24.488V28.904L123.274 29.096V20.576ZM137.526 23.036C137.302 22.876 137.066 22.74 136.818 22.628C136.57 22.508 136.306 22.448 136.026 22.448C135.682 22.448 135.362 22.508 135.066 22.628C134.778 22.74 134.53 22.904 134.322 23.12C134.114 23.328 133.95 23.58 133.83 23.876C133.71 24.172 133.65 24.5 133.65 24.86C133.65 25.228 133.706 25.564 133.818 25.868C133.938 26.164 134.102 26.42 134.31 26.636C134.518 26.852 134.766 27.02 135.054 27.14C135.35 27.26 135.674 27.32 136.026 27.32C136.306 27.32 136.574 27.26 136.83 27.14C137.094 27.012 137.342 26.868 137.574 26.708L137.322 28.892C137.242 28.94 137.138 28.98 137.01 29.012C136.882 29.052 136.746 29.084 136.602 29.108C136.466 29.132 136.33 29.152 136.194 29.168C136.066 29.184 135.962 29.192 135.882 29.192C135.258 29.192 134.682 29.088 134.154 28.88C133.634 28.672 133.182 28.38 132.798 28.004C132.422 27.628 132.13 27.18 131.922 26.66C131.714 26.132 131.61 25.548 131.61 24.908C131.61 24.3 131.714 23.732 131.922 23.204C132.13 22.676 132.422 22.216 132.798 21.824C133.174 21.432 133.622 21.128 134.142 20.912C134.67 20.688 135.246 20.576 135.87 20.576C136.11 20.576 136.342 20.596 136.566 20.636C136.79 20.676 137.006 20.744 137.214 20.84L137.526 23.036ZM143.294 20.768L143.654 22.508H140.678V23.936H142.802V25.676H140.678V27.26H143.906L143.402 29H138.638V20.768H143.294Z" fill="black"/>
<rect width="194" height="95" transform="translate(25 37)" fill="white"/>
<path d="M41.2404 64.682L42.7524 68.966H42.7704L44.3454 64.682L45.2274 64.826L42.7704 71.144H42.7524L40.3674 64.826L41.2404 64.682ZM51.7884 67.913C51.7884 68.363 51.7014 68.786 51.5274 69.182C51.3594 69.572 51.1284 69.914 50.8344 70.208C50.5464 70.496 50.2044 70.724 49.8084 70.892C49.4184 71.06 48.9984 71.144 48.5484 71.144C48.0924 71.144 47.6664 71.06 47.2704 70.892C46.8804 70.724 46.5384 70.493 46.2444 70.199C45.9564 69.905 45.7284 69.563 45.5604 69.173C45.3924 68.777 45.3084 68.357 45.3084 67.913C45.3084 67.463 45.3924 67.043 45.5604 66.653C45.7344 66.257 45.9654 65.915 46.2534 65.627C46.5474 65.333 46.8894 65.102 47.2794 64.934C47.6754 64.766 48.0984 64.682 48.5484 64.682C49.0044 64.682 49.4274 64.769 49.8174 64.943C50.2134 65.111 50.5554 65.342 50.8434 65.636C51.1374 65.924 51.3684 66.266 51.5364 66.662C51.7044 67.052 51.7884 67.469 51.7884 67.913ZM48.5484 70.334C48.8604 70.334 49.1574 70.271 49.4394 70.145C49.7274 70.013 49.9794 69.839 50.1954 69.623C50.4114 69.401 50.5824 69.143 50.7084 68.849C50.8404 68.555 50.9064 68.243 50.9064 67.913C50.9064 67.589 50.8434 67.28 50.7174 66.986C50.5914 66.692 50.4204 66.437 50.2044 66.221C49.9944 65.999 49.7454 65.822 49.4574 65.69C49.1694 65.558 48.8634 65.492 48.5394 65.492C48.2334 65.492 47.9364 65.555 47.6484 65.681C47.3664 65.807 47.1174 65.981 46.9014 66.203C46.6854 66.419 46.5114 66.674 46.3794 66.968C46.2534 67.262 46.1904 67.577 46.1904 67.913C46.1904 68.243 46.2534 68.555 46.3794 68.849C46.5054 69.143 46.6764 69.401 46.8924 69.623C47.1084 69.839 47.3574 70.013 47.6394 70.145C47.9274 70.271 48.2304 70.334 48.5484 70.334ZM53.5012 69.101C53.5012 69.467 53.6032 69.764 53.8072 69.992C54.0172 70.22 54.3292 70.334 54.7432 70.334C55.1932 70.334 55.5322 70.226 55.7602 70.01C55.9882 69.788 56.1022 69.488 56.1022 69.11V64.826L56.9842 64.682V68.309C56.9842 68.531 56.9782 68.756 56.9662 68.984C56.9602 69.212 56.9362 69.431 56.8942 69.641C56.8582 69.851 56.7952 70.049 56.7052 70.235C56.6212 70.415 56.5012 70.574 56.3452 70.712C56.1892 70.844 55.9912 70.949 55.7512 71.027C55.5172 71.105 55.2292 71.144 54.8872 71.144C54.4612 71.144 54.1012 71.102 53.8072 71.018C53.5192 70.934 53.2852 70.796 53.1052 70.604C52.9312 70.406 52.8052 70.151 52.7272 69.839C52.6552 69.521 52.6192 69.131 52.6192 68.669V64.826L53.5012 64.682V69.101ZM61.0372 66.176C60.7972 65.912 60.5842 65.732 60.3982 65.636C60.2122 65.54 60.0292 65.492 59.8492 65.492C59.5612 65.492 59.3272 65.576 59.1472 65.744C58.9672 65.912 58.8772 66.143 58.8772 66.437C58.8772 66.575 58.9072 66.695 58.9672 66.797C59.0332 66.893 59.1202 66.98 59.2282 67.058C59.3422 67.136 59.4772 67.208 59.6332 67.274C59.7892 67.334 59.9602 67.4 60.1462 67.472C60.3682 67.556 60.5722 67.646 60.7582 67.742C60.9502 67.838 61.1152 67.955 61.2532 68.093C61.3912 68.231 61.4992 68.396 61.5772 68.588C61.6612 68.774 61.7032 68.999 61.7032 69.263C61.7032 69.545 61.6522 69.8 61.5502 70.028C61.4482 70.256 61.3102 70.454 61.1362 70.622C60.9622 70.79 60.7582 70.919 60.5242 71.009C60.2962 71.099 60.0502 71.144 59.7862 71.144C59.6122 71.144 59.4472 71.126 59.2912 71.09C59.1352 71.06 58.9792 71.006 58.8232 70.928C58.6732 70.85 58.5172 70.748 58.3552 70.622C58.1992 70.49 58.0372 70.331 57.8692 70.145L58.5172 69.605C58.6432 69.803 58.8082 69.974 59.0122 70.118C59.2162 70.262 59.4442 70.334 59.6962 70.334C59.8522 70.334 59.9962 70.316 60.1282 70.28C60.2662 70.238 60.3862 70.175 60.4882 70.091C60.5902 70.007 60.6712 69.896 60.7312 69.758C60.7912 69.62 60.8212 69.452 60.8212 69.254C60.8212 69.14 60.7792 69.035 60.6952 68.939C60.6112 68.837 60.5062 68.747 60.3802 68.669C60.2602 68.591 60.1342 68.522 60.0022 68.462C59.8702 68.396 59.7562 68.339 59.6602 68.291C59.4622 68.195 59.2642 68.093 59.0662 67.985C58.8682 67.871 58.6882 67.742 58.5262 67.598C58.3702 67.454 58.2412 67.289 58.1392 67.103C58.0432 66.911 57.9952 66.683 57.9952 66.419C57.9952 66.161 58.0402 65.927 58.1302 65.717C58.2202 65.501 58.3462 65.318 58.5082 65.168C58.6762 65.012 58.8772 64.892 59.1112 64.808C59.3452 64.724 59.6062 64.682 59.8942 64.682C60.2002 64.682 60.5092 64.757 60.8212 64.907C61.1332 65.057 61.4032 65.282 61.6312 65.582L61.0372 66.176ZM68.9871 65.789C68.8251 65.675 68.6601 65.597 68.4921 65.555C68.3241 65.513 68.1441 65.492 67.9521 65.492C67.6341 65.492 67.3371 65.561 67.0611 65.699C66.7911 65.831 66.5541 66.008 66.3501 66.23C66.1461 66.446 65.9871 66.698 65.8731 66.986C65.7591 67.274 65.7021 67.571 65.7021 67.877C65.7021 68.201 65.7591 68.513 65.8731 68.813C65.9871 69.107 66.1431 69.368 66.3411 69.596C66.5391 69.818 66.7701 69.998 67.0341 70.136C67.3041 70.268 67.5951 70.334 67.9071 70.334C68.1171 70.334 68.3271 70.301 68.5371 70.235C68.7531 70.163 68.9481 70.07 69.1221 69.956L68.9601 70.919C68.7741 70.985 68.5941 71.039 68.4201 71.081C68.2521 71.123 68.0751 71.144 67.8891 71.144C67.4751 71.144 67.0821 71.06 66.7101 70.892C66.3381 70.724 66.0111 70.496 65.7291 70.208C65.4531 69.914 65.2311 69.572 65.0631 69.182C64.9011 68.786 64.8201 68.363 64.8201 67.913C64.8201 67.505 64.9041 67.109 65.0721 66.725C65.2401 66.335 65.4591 65.99 65.7291 65.69C66.0051 65.384 66.3171 65.141 66.6651 64.961C67.0131 64.775 67.3701 64.682 67.7361 64.682C67.9161 64.682 68.0931 64.697 68.2671 64.727C68.4471 64.751 68.6241 64.787 68.7981 64.835L68.9871 65.789ZM76.3011 67.913C76.3011 68.363 76.2141 68.786 76.0401 69.182C75.8721 69.572 75.6411 69.914 75.3471 70.208C75.0591 70.496 74.7171 70.724 74.3211 70.892C73.9311 71.06 73.5111 71.144 73.0611 71.144C72.6051 71.144 72.1791 71.06 71.7831 70.892C71.3931 70.724 71.0511 70.493 70.7571 70.199C70.4691 69.905 70.2411 69.563 70.0731 69.173C69.9051 68.777 69.8211 68.357 69.8211 67.913C69.8211 67.463 69.9051 67.043 70.0731 66.653C70.2471 66.257 70.4781 65.915 70.7661 65.627C71.0601 65.333 71.4021 65.102 71.7921 64.934C72.1881 64.766 72.6111 64.682 73.0611 64.682C73.5171 64.682 73.9401 64.769 74.3301 64.943C74.7261 65.111 75.0681 65.342 75.3561 65.636C75.6501 65.924 75.8811 66.266 76.0491 66.662C76.2171 67.052 76.3011 67.469 76.3011 67.913ZM73.0611 70.334C73.3731 70.334 73.6701 70.271 73.9521 70.145C74.2401 70.013 74.4921 69.839 74.7081 69.623C74.9241 69.401 75.0951 69.143 75.2211 68.849C75.3531 68.555 75.4191 68.243 75.4191 67.913C75.4191 67.589 75.3561 67.28 75.2301 66.986C75.1041 66.692 74.9331 66.437 74.7171 66.221C74.5071 65.999 74.2581 65.822 73.9701 65.69C73.6821 65.558 73.3761 65.492 73.0521 65.492C72.7461 65.492 72.4491 65.555 72.1611 65.681C71.8791 65.807 71.6301 65.981 71.4141 66.203C71.1981 66.419 71.0241 66.674 70.8921 66.968C70.7661 67.262 70.7031 67.577 70.7031 67.913C70.7031 68.243 70.7661 68.555 70.8921 68.849C71.0181 69.143 71.1891 69.401 71.4051 69.623C71.6211 69.839 71.8701 70.013 72.1521 70.145C72.4401 70.271 72.7431 70.334 73.0611 70.334ZM77.9239 64.682H77.9419L80.0749 69.389L82.1809 64.682H82.1989L83.4589 71L82.6039 71.108L81.8569 67.202H81.8389L80.0839 71.072H80.0659L78.2659 67.202H78.2479L77.5189 71.108L76.6729 71L77.9239 64.682ZM84.9288 64.682H84.9468L87.0798 69.389L89.1858 64.682H89.2038L90.4638 71L89.6088 71.108L88.8618 67.202H88.8438L87.0888 71.072H87.0708L85.2708 67.202H85.2528L84.5238 71.108L83.6778 71L84.9288 64.682ZM94.4717 64.826L94.6607 65.636H92.0597V67.382H94.1387V68.192H92.0597V70.19H94.8587L94.6067 71H91.1777V64.826H94.4717ZM95.6507 64.682L95.6777 64.691L99.6287 69.002V64.97L100.511 64.826V71.144L100.484 71.135L96.5327 66.824V71L95.6507 71.108V64.682ZM105.506 65.789C105.344 65.675 105.179 65.597 105.011 65.555C104.843 65.513 104.663 65.492 104.471 65.492C104.153 65.492 103.856 65.561 103.58 65.699C103.31 65.831 103.073 66.008 102.869 66.23C102.665 66.446 102.506 66.698 102.392 66.986C102.278 67.274 102.221 67.571 102.221 67.877C102.221 68.201 102.278 68.513 102.392 68.813C102.506 69.107 102.662 69.368 102.86 69.596C103.058 69.818 103.289 69.998 103.553 70.136C103.823 70.268 104.114 70.334 104.426 70.334C104.636 70.334 104.846 70.301 105.056 70.235C105.272 70.163 105.467 70.07 105.641 69.956L105.479 70.919C105.293 70.985 105.113 71.039 104.939 71.081C104.771 71.123 104.594 71.144 104.408 71.144C103.994 71.144 103.601 71.06 103.229 70.892C102.857 70.724 102.53 70.496 102.248 70.208C101.972 69.914 101.75 69.572 101.582 69.182C101.42 68.786 101.339 68.363 101.339 67.913C101.339 67.505 101.423 67.109 101.591 66.725C101.759 66.335 101.978 65.99 102.248 65.69C102.524 65.384 102.836 65.141 103.184 64.961C103.532 64.775 103.889 64.682 104.255 64.682C104.435 64.682 104.612 64.697 104.786 64.727C104.966 64.751 105.143 64.787 105.317 64.835L105.506 65.789ZM109.976 64.826L110.165 65.636H107.564V67.382H109.643V68.192H107.564V70.19H110.363L110.111 71H106.682V64.826H109.976ZM115.304 64.826L112.064 70.19H115.466L115.25 71H110.705L113.981 65.636H110.84L111.02 64.826H115.304ZM119.533 69.101C119.533 69.467 119.635 69.764 119.839 69.992C120.049 70.22 120.361 70.334 120.775 70.334C121.225 70.334 121.564 70.226 121.792 70.01C122.02 69.788 122.134 69.488 122.134 69.11V64.826L123.016 64.682V68.309C123.016 68.531 123.01 68.756 122.998 68.984C122.992 69.212 122.968 69.431 122.926 69.641C122.89 69.851 122.827 70.049 122.737 70.235C122.653 70.415 122.533 70.574 122.377 70.712C122.221 70.844 122.023 70.949 121.783 71.027C121.549 71.105 121.261 71.144 120.919 71.144C120.493 71.144 120.133 71.102 119.839 71.018C119.551 70.934 119.317 70.796 119.137 70.604C118.963 70.406 118.837 70.151 118.759 69.839C118.687 69.521 118.651 69.131 118.651 68.669V64.826L119.533 64.682V69.101ZM124.162 64.682L124.189 64.691L128.14 69.002V64.97L129.022 64.826V71.144L128.995 71.135L125.044 66.824V71L124.162 71.108V64.682ZM132.67 64.682L132.697 64.691L136.648 69.002V64.97L137.53 64.826V71.144L137.503 71.135L133.552 66.824V71L132.67 71.108V64.682ZM144.838 67.913C144.838 68.363 144.751 68.786 144.577 69.182C144.409 69.572 144.178 69.914 143.884 70.208C143.596 70.496 143.254 70.724 142.858 70.892C142.468 71.06 142.048 71.144 141.598 71.144C141.142 71.144 140.716 71.06 140.32 70.892C139.93 70.724 139.588 70.493 139.294 70.199C139.006 69.905 138.778 69.563 138.61 69.173C138.442 68.777 138.358 68.357 138.358 67.913C138.358 67.463 138.442 67.043 138.61 66.653C138.784 66.257 139.015 65.915 139.303 65.627C139.597 65.333 139.939 65.102 140.329 64.934C140.725 64.766 141.148 64.682 141.598 64.682C142.054 64.682 142.477 64.769 142.867 64.943C143.263 65.111 143.605 65.342 143.893 65.636C144.187 65.924 144.418 66.266 144.586 66.662C144.754 67.052 144.838 67.469 144.838 67.913ZM141.598 70.334C141.91 70.334 142.207 70.271 142.489 70.145C142.777 70.013 143.029 69.839 143.245 69.623C143.461 69.401 143.632 69.143 143.758 68.849C143.89 68.555 143.956 68.243 143.956 67.913C143.956 67.589 143.893 67.28 143.767 66.986C143.641 66.692 143.47 66.437 143.254 66.221C143.044 65.999 142.795 65.822 142.507 65.69C142.219 65.558 141.913 65.492 141.589 65.492C141.283 65.492 140.986 65.555 140.698 65.681C140.416 65.807 140.167 65.981 139.951 66.203C139.735 66.419 139.561 66.674 139.429 66.968C139.303 67.262 139.24 67.577 139.24 67.913C139.24 68.243 139.303 68.555 139.429 68.849C139.555 69.143 139.726 69.401 139.942 69.623C140.158 69.839 140.407 70.013 140.689 70.145C140.977 70.271 141.28 70.334 141.598 70.334ZM146.551 69.101C146.551 69.467 146.653 69.764 146.857 69.992C147.067 70.22 147.379 70.334 147.793 70.334C148.243 70.334 148.582 70.226 148.81 70.01C149.038 69.788 149.152 69.488 149.152 69.11V64.826L150.034 64.682V68.309C150.034 68.531 150.028 68.756 150.016 68.984C150.01 69.212 149.986 69.431 149.944 69.641C149.908 69.851 149.845 70.049 149.755 70.235C149.671 70.415 149.551 70.574 149.395 70.712C149.239 70.844 149.041 70.949 148.801 71.027C148.567 71.105 148.279 71.144 147.937 71.144C147.511 71.144 147.151 71.102 146.857 71.018C146.569 70.934 146.335 70.796 146.155 70.604C145.981 70.406 145.855 70.151 145.777 69.839C145.705 69.521 145.669 69.131 145.669 68.669V64.826L146.551 64.682V69.101ZM151.297 64.682L152.809 68.966H152.827L154.402 64.682L155.284 64.826L152.827 71.144H152.809L150.424 64.826L151.297 64.682ZM159.001 64.826L159.19 65.636H156.589V67.382L158.668 67.382V68.192L156.589 68.192V70.19H159.388L159.136 71H155.707V64.826H159.001ZM162.61 64.682L165.751 70.964L164.869 71.144L163.816 69.02H161.332L160.288 71.144L159.46 70.964L162.592 64.682H162.61ZM161.701 68.21H163.456L162.574 66.437L161.701 68.21ZM167.056 69.101C167.056 69.467 167.158 69.764 167.362 69.992C167.572 70.22 167.884 70.334 168.298 70.334C168.748 70.334 169.087 70.226 169.315 70.01C169.543 69.788 169.657 69.488 169.657 69.11V64.826L170.539 64.682V68.309C170.539 68.531 170.533 68.756 170.521 68.984C170.515 69.212 170.491 69.431 170.449 69.641C170.413 69.851 170.35 70.049 170.26 70.235C170.176 70.415 170.056 70.574 169.9 70.712C169.744 70.844 169.546 70.949 169.306 71.027C169.072 71.105 168.784 71.144 168.442 71.144C168.016 71.144 167.656 71.102 167.362 71.018C167.074 70.934 166.84 70.796 166.66 70.604C166.486 70.406 166.36 70.151 166.282 69.839C166.21 69.521 166.174 69.131 166.174 68.669V64.826L167.056 64.682V69.101ZM175.882 64.826C176.182 64.826 176.458 64.871 176.71 64.961C176.962 65.045 177.178 65.168 177.358 65.33C177.544 65.492 177.688 65.684 177.79 65.906C177.892 66.128 177.943 66.374 177.943 66.644C177.943 66.926 177.904 67.19 177.826 67.436C177.748 67.676 177.613 67.886 177.421 68.066C177.235 68.246 176.986 68.387 176.674 68.489C176.362 68.591 175.972 68.642 175.504 68.642H175.072V71L174.19 71.108V64.826H175.882ZM175.783 67.832C175.981 67.832 176.158 67.814 176.314 67.778C176.47 67.736 176.602 67.67 176.71 67.58C176.824 67.484 176.911 67.361 176.971 67.211C177.031 67.055 177.061 66.866 177.061 66.644C177.061 66.308 176.944 66.056 176.71 65.888C176.482 65.72 176.173 65.636 175.783 65.636H175.072V67.832H175.783ZM180.139 64.826C180.415 64.826 180.676 64.865 180.922 64.943C181.168 65.015 181.384 65.129 181.57 65.285C181.756 65.441 181.903 65.636 182.011 65.87C182.119 66.104 182.173 66.38 182.173 66.698C182.173 67.166 182.05 67.529 181.804 67.787C181.558 68.039 181.225 68.213 180.805 68.309L182.668 70.892L181.678 71.144L179.527 68.003H179.509V71L178.627 71.108V64.826H180.139ZM180.157 67.805C180.301 67.805 180.442 67.778 180.58 67.724C180.718 67.67 180.838 67.595 180.94 67.499C181.048 67.403 181.132 67.289 181.192 67.157C181.258 67.019 181.291 66.866 181.291 66.698C181.291 66.512 181.261 66.353 181.201 66.221C181.141 66.083 181.06 65.972 180.958 65.888C180.856 65.804 180.736 65.741 180.598 65.699C180.466 65.657 180.322 65.636 180.166 65.636H179.509V67.805H180.157ZM189.355 67.913C189.355 68.363 189.268 68.786 189.094 69.182C188.926 69.572 188.695 69.914 188.401 70.208C188.113 70.496 187.771 70.724 187.375 70.892C186.985 71.06 186.565 71.144 186.115 71.144C185.659 71.144 185.233 71.06 184.837 70.892C184.447 70.724 184.105 70.493 183.811 70.199C183.523 69.905 183.295 69.563 183.127 69.173C182.959 68.777 182.875 68.357 182.875 67.913C182.875 67.463 182.959 67.043 183.127 66.653C183.301 66.257 183.532 65.915 183.82 65.627C184.114 65.333 184.456 65.102 184.846 64.934C185.242 64.766 185.665 64.682 186.115 64.682C186.571 64.682 186.994 64.769 187.384 64.943C187.78 65.111 188.122 65.342 188.41 65.636C188.704 65.924 188.935 66.266 189.103 66.662C189.271 67.052 189.355 67.469 189.355 67.913ZM186.115 70.334C186.427 70.334 186.724 70.271 187.006 70.145C187.294 70.013 187.546 69.839 187.762 69.623C187.978 69.401 188.149 69.143 188.275 68.849C188.407 68.555 188.473 68.243 188.473 67.913C188.473 67.589 188.41 67.28 188.284 66.986C188.158 66.692 187.987 66.437 187.771 66.221C187.561 65.999 187.312 65.822 187.024 65.69C186.736 65.558 186.43 65.492 186.106 65.492C185.8 65.492 185.503 65.555 185.215 65.681C184.933 65.807 184.684 65.981 184.468 66.203C184.252 66.419 184.078 66.674 183.946 66.968C183.82 67.262 183.757 67.577 183.757 67.913C183.757 68.243 183.82 68.555 183.946 68.849C184.072 69.143 184.243 69.401 184.459 69.623C184.675 69.839 184.924 70.013 185.206 70.145C185.494 70.271 185.797 70.334 186.115 70.334ZM192.526 69.2C192.526 69.5 192.481 69.77 192.391 70.01C192.307 70.244 192.184 70.448 192.022 70.622C191.866 70.79 191.674 70.919 191.446 71.009C191.224 71.099 190.975 71.144 190.699 71.144C190.597 71.144 190.489 71.132 190.375 71.108C190.261 71.084 190.15 71.054 190.042 71.018C189.94 70.982 189.847 70.94 189.763 70.892C189.679 70.844 189.613 70.796 189.565 70.748L190.006 69.974C190.252 70.166 190.525 70.262 190.825 70.262C191.101 70.262 191.305 70.172 191.437 69.992C191.575 69.806 191.644 69.542 191.644 69.2V64.826L192.526 64.682V69.2ZM197.014 64.826L197.203 65.636H194.602V67.382H196.681V68.192H194.602V70.19H197.401L197.149 71H193.72V64.826H197.014ZM201.496 64.826V65.636H200.056V71L199.174 71.108V65.636H197.572L197.851 64.826H201.496ZM202.199 69.533L202.784 70.307L202.199 71.081L201.614 70.307L202.199 69.533ZM68.7252 75.682L71.8662 81.964L70.9842 82.144L69.9312 80.02H67.4472L66.4032 82.144L65.5752 81.964L68.7072 75.682H68.7252ZM67.8162 79.21H69.5712L68.6892 77.437L67.8162 79.21ZM71.923 75.682L73.435 79.966H73.453L75.028 75.682L75.91 75.826L73.453 82.144H73.435L71.05 75.826L71.923 75.682ZM78.2438 75.682L81.3848 81.964L80.5028 82.144L79.4498 80.02H76.9658L75.9218 82.144L75.0938 81.964L78.2258 75.682H78.2438ZM77.3348 79.21H79.0898L78.2078 77.437L77.3348 79.21ZM81.8167 75.682L81.8437 75.691L85.7947 80.002V75.97L86.6767 75.826V82.144L86.6497 82.135L82.6987 77.824V82L81.8167 82.108V75.682ZM91.6717 76.789C91.5097 76.675 91.3447 76.597 91.1767 76.555C91.0087 76.513 90.8287 76.492 90.6367 76.492C90.3187 76.492 90.0217 76.561 89.7457 76.699C89.4757 76.831 89.2387 77.008 89.0347 77.23C88.8307 77.446 88.6717 77.698 88.5577 77.986C88.4437 78.274 88.3867 78.571 88.3867 78.877C88.3867 79.201 88.4437 79.513 88.5577 79.813C88.6717 80.107 88.8277 80.368 89.0257 80.596C89.2237 80.818 89.4547 80.998 89.7187 81.136C89.9887 81.268 90.2797 81.334 90.5917 81.334C90.8017 81.334 91.0117 81.301 91.2217 81.235C91.4377 81.163 91.6327 81.07 91.8067 80.956L91.6447 81.919C91.4587 81.985 91.2787 82.039 91.1047 82.081C90.9367 82.123 90.7597 82.144 90.5737 82.144C90.1597 82.144 89.7667 82.06 89.3947 81.892C89.0227 81.724 88.6957 81.496 88.4137 81.208C88.1377 80.914 87.9157 80.572 87.7477 80.182C87.5857 79.786 87.5047 79.363 87.5047 78.913C87.5047 78.505 87.5887 78.109 87.7567 77.725C87.9247 77.335 88.1437 76.99 88.4137 76.69C88.6897 76.384 89.0017 76.141 89.3497 75.961C89.6977 75.775 90.0547 75.682 90.4207 75.682C90.6007 75.682 90.7777 75.697 90.9517 75.727C91.1317 75.751 91.3087 75.787 91.4827 75.835L91.6717 76.789ZM96.1416 75.826L96.3306 76.636H93.7296V78.382H95.8086V79.192H93.7296V81.19H96.5286L96.2766 82H92.8476V75.826H96.1416ZM101.47 75.826L98.2296 81.19H101.632L101.416 82H96.8706L100.147 76.636H97.0056L97.1856 75.826H101.47ZM107.256 75.682L110.397 81.964L109.515 82.144L108.462 80.02H105.978L104.934 82.144L104.106 81.964L107.238 75.682H107.256ZM106.347 79.21H108.102L107.22 77.437L106.347 79.21ZM107.121 74.17L107.931 75.466H107.193L105.915 74.17H107.121ZM114.243 81.19H116.862L116.502 82H113.361V75.826L114.243 75.682V81.19ZM119.763 75.682L122.904 81.964L122.022 82.144L120.969 80.02H118.485L117.441 82.144L116.613 81.964L119.745 75.682H119.763ZM118.854 79.21H120.609L119.727 77.437L118.854 79.21ZM129.693 76.789C129.531 76.675 129.366 76.597 129.198 76.555C129.03 76.513 128.85 76.492 128.658 76.492C128.34 76.492 128.043 76.561 127.767 76.699C127.497 76.831 127.26 77.008 127.056 77.23C126.852 77.446 126.693 77.698 126.579 77.986C126.465 78.274 126.408 78.571 126.408 78.877C126.408 79.201 126.465 79.513 126.579 79.813C126.693 80.107 126.849 80.368 127.047 80.596C127.245 80.818 127.476 80.998 127.74 81.136C128.01 81.268 128.301 81.334 128.613 81.334C128.823 81.334 129.033 81.301 129.243 81.235C129.459 81.163 129.654 81.07 129.828 80.956L129.666 81.919C129.48 81.985 129.3 82.039 129.126 82.081C128.958 82.123 128.781 82.144 128.595 82.144C128.181 82.144 127.788 82.06 127.416 81.892C127.044 81.724 126.717 81.496 126.435 81.208C126.159 80.914 125.937 80.572 125.769 80.182C125.607 79.786 125.526 79.363 125.526 78.913C125.526 78.505 125.61 78.109 125.778 77.725C125.946 77.335 126.165 76.99 126.435 76.69C126.711 76.384 127.023 76.141 127.371 75.961C127.719 75.775 128.076 75.682 128.442 75.682C128.622 75.682 128.799 75.697 128.973 75.727C129.153 75.751 129.33 75.787 129.504 75.835L129.693 76.789ZM133.272 75.682L136.413 81.964L135.531 82.144L134.478 80.02H131.994L130.95 82.144L130.122 81.964L133.254 75.682H133.272ZM132.363 79.21H134.118L133.236 77.437L132.363 79.21ZM139.752 77.176C139.512 76.912 139.299 76.732 139.113 76.636C138.927 76.54 138.744 76.492 138.564 76.492C138.276 76.492 138.042 76.576 137.862 76.744C137.682 76.912 137.592 77.143 137.592 77.437C137.592 77.575 137.622 77.695 137.682 77.797C137.748 77.893 137.835 77.98 137.943 78.058C138.057 78.136 138.192 78.208 138.348 78.274C138.504 78.334 138.675 78.4 138.861 78.472C139.083 78.556 139.287 78.646 139.473 78.742C139.665 78.838 139.83 78.955 139.968 79.093C140.106 79.231 140.214 79.396 140.292 79.588C140.376 79.774 140.418 79.999 140.418 80.263C140.418 80.545 140.367 80.8 140.265 81.028C140.163 81.256 140.025 81.454 139.851 81.622C139.677 81.79 139.473 81.919 139.239 82.009C139.011 82.099 138.765 82.144 138.501 82.144C138.327 82.144 138.162 82.126 138.006 82.09C137.85 82.06 137.694 82.006 137.538 81.928C137.388 81.85 137.232 81.748 137.07 81.622C136.914 81.49 136.752 81.331 136.584 81.145L137.232 80.605C137.358 80.803 137.523 80.974 137.727 81.118C137.931 81.262 138.159 81.334 138.411 81.334C138.567 81.334 138.711 81.316 138.843 81.28C138.981 81.238 139.101 81.175 139.203 81.091C139.305 81.007 139.386 80.896 139.446 80.758C139.506 80.62 139.536 80.452 139.536 80.254C139.536 80.14 139.494 80.035 139.41 79.939C139.326 79.837 139.221 79.747 139.095 79.669C138.975 79.591 138.849 79.522 138.717 79.462C138.585 79.396 138.471 79.339 138.375 79.291C138.177 79.195 137.979 79.093 137.781 78.985C137.583 78.871 137.403 78.742 137.241 78.598C137.085 78.454 136.956 78.289 136.854 78.103C136.758 77.911 136.71 77.683 136.71 77.419C136.71 77.161 136.755 76.927 136.845 76.717C136.935 76.501 137.061 76.318 137.223 76.168C137.391 76.012 137.592 75.892 137.826 75.808C138.06 75.724 138.321 75.682 138.609 75.682C138.915 75.682 139.224 75.757 139.536 75.907C139.848 76.057 140.118 76.282 140.346 76.582L139.752 77.176ZM144.666 75.826L144.855 76.636H142.254V78.382H144.333V79.192H142.254V81.19H145.053L144.801 82H141.372V75.826H144.666ZM149.925 75.826C150.369 75.826 150.78 75.91 151.158 76.078C151.536 76.246 151.86 76.471 152.13 76.753C152.406 77.035 152.622 77.362 152.778 77.734C152.934 78.106 153.012 78.499 153.012 78.913C153.012 79.327 152.934 79.72 152.778 80.092C152.622 80.464 152.406 80.794 152.13 81.082C151.854 81.364 151.527 81.589 151.149 81.757C150.777 81.919 150.372 82 149.934 82H148.359V75.826H149.925ZM149.898 81.19C150.174 81.19 150.444 81.136 150.708 81.028C150.978 80.92 151.218 80.767 151.428 80.569C151.638 80.365 151.806 80.125 151.932 79.849C152.064 79.567 152.13 79.255 152.13 78.913C152.13 78.577 152.064 78.271 151.932 77.995C151.806 77.713 151.638 77.473 151.428 77.275C151.218 77.071 150.978 76.915 150.708 76.807C150.444 76.693 150.171 76.636 149.889 76.636H149.241V81.19H149.898ZM157.173 75.826L157.362 76.636H154.761V78.382H156.84V79.192H154.761V81.19H157.56L157.308 82H153.879V75.826H157.173ZM156.867 74.17L155.571 75.466H154.833L155.643 74.17H156.867ZM160.044 75.826C160.344 75.826 160.62 75.871 160.872 75.961C161.124 76.045 161.34 76.168 161.52 76.33C161.706 76.492 161.85 76.684 161.952 76.906C162.054 77.128 162.105 77.374 162.105 77.644C162.105 77.926 162.066 78.19 161.988 78.436C161.91 78.676 161.775 78.886 161.583 79.066C161.397 79.246 161.148 79.387 160.836 79.489C160.524 79.591 160.134 79.642 159.666 79.642H159.234V82L158.352 82.108V75.826H160.044ZM159.945 78.832C160.143 78.832 160.32 78.814 160.476 78.778C160.632 78.736 160.764 78.67 160.872 78.58C160.986 78.484 161.073 78.361 161.133 78.211C161.193 78.055 161.223 77.866 161.223 77.644C161.223 77.308 161.106 77.056 160.872 76.888C160.644 76.72 160.335 76.636 159.945 76.636H159.234V78.832H159.945ZM164.948 75.682L168.089 81.964L167.207 82.144L166.154 80.02H163.67L162.626 82.144L161.798 81.964L164.93 75.682H164.948ZM164.039 79.21H165.794L164.912 77.437L164.039 79.21ZM169.97 75.826C170.246 75.826 170.507 75.865 170.753 75.943C170.999 76.015 171.215 76.129 171.401 76.285C171.587 76.441 171.734 76.636 171.842 76.87C171.95 77.104 172.004 77.38 172.004 77.698C172.004 78.166 171.881 78.529 171.635 78.787C171.389 79.039 171.056 79.213 170.636 79.309L172.499 81.892L171.509 82.144L169.358 79.003H169.34V82L168.458 82.108V75.826L169.97 75.826ZM169.988 78.805C170.132 78.805 170.273 78.778 170.411 78.724C170.549 78.67 170.669 78.595 170.771 78.499C170.879 78.403 170.963 78.289 171.023 78.157C171.089 78.019 171.122 77.866 171.122 77.698C171.122 77.512 171.092 77.353 171.032 77.221C170.972 77.083 170.891 76.972 170.789 76.888C170.687 76.804 170.567 76.741 170.429 76.699C170.297 76.657 170.153 76.636 169.997 76.636H169.34V78.805H169.988ZM176.324 75.826V76.636H174.884V82L174.002 82.108V76.636H172.4L172.679 75.826H176.324ZM177.027 80.533L177.612 81.307L177.027 82.081L176.442 81.307L177.027 80.533Z" fill="black"/>
<path d="M90.9256 98.789C90.7636 98.675 90.5986 98.597 90.4306 98.555C90.2626 98.513 90.0826 98.492 89.8906 98.492C89.5726 98.492 89.2756 98.561 88.9996 98.699C88.7296 98.831 88.4926 99.008 88.2886 99.23C88.0846 99.446 87.9256 99.698 87.8116 99.986C87.6976 100.274 87.6406 100.571 87.6406 100.877C87.6406 101.201 87.6976 101.513 87.8116 101.813C87.9256 102.107 88.0816 102.368 88.2796 102.596C88.4776 102.818 88.7086 102.998 88.9726 103.136C89.2426 103.268 89.5336 103.334 89.8456 103.334C90.0556 103.334 90.2656 103.301 90.4756 103.235C90.6916 103.163 90.8866 103.07 91.0606 102.956L90.8986 103.919C90.7126 103.985 90.5326 104.039 90.3586 104.081C90.1906 104.123 90.0136 104.144 89.8276 104.144C89.4136 104.144 89.0206 104.06 88.6486 103.892C88.2766 103.724 87.9496 103.496 87.6676 103.208C87.3916 102.914 87.1696 102.572 87.0016 102.182C86.8396 101.786 86.7586 101.363 86.7586 100.913C86.7586 100.505 86.8426 100.109 87.0106 99.725C87.1786 99.335 87.3976 98.99 87.6676 98.69C87.9436 98.384 88.2556 98.141 88.6036 97.961C88.9516 97.775 89.3086 97.682 89.6746 97.682C89.8546 97.682 90.0316 97.697 90.2056 97.727C90.3856 97.751 90.5626 97.787 90.7366 97.835L90.9256 98.789ZM98.2395 100.913C98.2395 101.363 98.1525 101.786 97.9785 102.182C97.8105 102.572 97.5795 102.914 97.2855 103.208C96.9975 103.496 96.6555 103.724 96.2595 103.892C95.8695 104.06 95.4495 104.144 94.9995 104.144C94.5435 104.144 94.1175 104.06 93.7215 103.892C93.3315 103.724 92.9895 103.493 92.6955 103.199C92.4075 102.905 92.1795 102.563 92.0115 102.173C91.8435 101.777 91.7595 101.357 91.7595 100.913C91.7595 100.463 91.8435 100.043 92.0115 99.653C92.1855 99.257 92.4165 98.915 92.7045 98.627C92.9985 98.333 93.3405 98.102 93.7305 97.934C94.1265 97.766 94.5495 97.682 94.9995 97.682C95.4555 97.682 95.8785 97.769 96.2685 97.943C96.6645 98.111 97.0065 98.342 97.2945 98.636C97.5885 98.924 97.8195 99.266 97.9875 99.662C98.1555 100.052 98.2395 100.469 98.2395 100.913ZM94.9995 103.334C95.3115 103.334 95.6085 103.271 95.8905 103.145C96.1785 103.013 96.4305 102.839 96.6465 102.623C96.8625 102.401 97.0335 102.143 97.1595 101.849C97.2915 101.555 97.3575 101.243 97.3575 100.913C97.3575 100.589 97.2945 100.28 97.1685 99.986C97.0425 99.692 96.8715 99.437 96.6555 99.221C96.4455 98.999 96.1965 98.822 95.9085 98.69C95.6205 98.558 95.3145 98.492 94.9905 98.492C94.6845 98.492 94.3875 98.555 94.0995 98.681C93.8175 98.807 93.5685 98.981 93.3525 99.203C93.1365 99.419 92.9625 99.674 92.8305 99.968C92.7045 100.262 92.6415 100.577 92.6415 100.913C92.6415 101.243 92.7045 101.555 92.8305 101.849C92.9565 102.143 93.1275 102.401 93.3435 102.623C93.5595 102.839 93.8085 103.013 94.0905 103.145C94.3785 103.271 94.6815 103.334 94.9995 103.334ZM99.9884 103.19H102.607L102.247 104H99.1064V97.826L99.9884 97.682V103.19ZM103.987 103.19H106.606L106.246 104H103.105V97.826L103.987 97.682V103.19ZM110.398 97.826L110.587 98.636H107.986V100.382H110.065V101.192H107.986V103.19H110.785L110.533 104H107.104V97.826H110.398ZM115.429 98.789C115.267 98.675 115.102 98.597 114.934 98.555C114.766 98.513 114.586 98.492 114.394 98.492C114.076 98.492 113.779 98.561 113.503 98.699C113.233 98.831 112.996 99.008 112.792 99.23C112.588 99.446 112.429 99.698 112.315 99.986C112.201 100.274 112.144 100.571 112.144 100.877C112.144 101.201 112.201 101.513 112.315 101.813C112.429 102.107 112.585 102.368 112.783 102.596C112.981 102.818 113.212 102.998 113.476 103.136C113.746 103.268 114.037 103.334 114.349 103.334C114.559 103.334 114.769 103.301 114.979 103.235C115.195 103.163 115.39 103.07 115.564 102.956L115.402 103.919C115.216 103.985 115.036 104.039 114.862 104.081C114.694 104.123 114.517 104.144 114.331 104.144C113.917 104.144 113.524 104.06 113.152 103.892C112.78 103.724 112.453 103.496 112.171 103.208C111.895 102.914 111.673 102.572 111.505 102.182C111.343 101.786 111.262 101.363 111.262 100.913C111.262 100.505 111.346 100.109 111.514 99.725C111.682 99.335 111.901 98.99 112.171 98.69C112.447 98.384 112.759 98.141 113.107 97.961C113.455 97.775 113.812 97.682 114.178 97.682C114.358 97.682 114.535 97.697 114.709 97.727C114.889 97.751 115.066 97.787 115.24 97.835L115.429 98.789ZM119.881 97.826V98.636H118.441V104L117.559 104.108V98.636H115.957L116.236 97.826H119.881ZM123.898 97.826L124.087 98.636H121.486V100.382H123.565V101.192H121.486V103.19H124.285L124.033 104H120.604V97.826H123.898ZM129.226 97.826L125.986 103.19H129.388L129.172 104H124.627L127.903 98.636H124.762L124.942 97.826H129.226Z" fill="black"/>
<path d="M138.007 98.564C137.905 98.462 137.77 98.378 137.602 98.312C137.44 98.24 137.263 98.204 137.071 98.204C136.873 98.204 136.687 98.249 136.513 98.339C136.339 98.423 136.18 98.546 136.036 98.708C135.892 98.864 135.766 99.056 135.658 99.284C135.55 99.512 135.469 99.764 135.415 100.04H137.278L137.188 100.517H135.334C135.322 100.583 135.316 100.646 135.316 100.706C135.316 100.766 135.316 100.829 135.316 100.895C135.316 100.943 135.316 100.988 135.316 101.03C135.316 101.072 135.319 101.117 135.325 101.165H137.062L136.972 101.642H135.37C135.466 102.26 135.667 102.746 135.973 103.1C136.285 103.448 136.657 103.622 137.089 103.622C137.269 103.622 137.443 103.589 137.611 103.523C137.779 103.451 137.926 103.358 138.052 103.244L137.971 103.91C137.827 104.012 137.671 104.075 137.503 104.099C137.341 104.129 137.206 104.144 137.098 104.144C136.81 104.144 136.537 104.084 136.279 103.964C136.027 103.844 135.799 103.676 135.595 103.46C135.397 103.244 135.229 102.983 135.091 102.677C134.953 102.371 134.854 102.026 134.794 101.642H133.984L134.074 101.165H134.749C134.743 101.117 134.74 101.072 134.74 101.03C134.74 100.982 134.74 100.937 134.74 100.895C134.74 100.829 134.74 100.766 134.74 100.706C134.746 100.646 134.752 100.583 134.758 100.517H133.984L134.074 100.04H134.821C134.887 99.698 134.989 99.383 135.127 99.095C135.271 98.807 135.442 98.558 135.64 98.348C135.838 98.138 136.06 97.976 136.306 97.862C136.558 97.742 136.825 97.682 137.107 97.682C137.257 97.682 137.407 97.7 137.557 97.736C137.713 97.772 137.833 97.829 137.917 97.907L138.007 98.564Z" fill="black"/>
<path d="M144.737 99.608C144.737 99.848 144.692 100.088 144.602 100.328C144.512 100.568 144.398 100.802 144.26 101.03C144.122 101.252 143.969 101.465 143.801 101.669C143.633 101.873 143.471 102.059 143.315 102.227L142.406 103.19H144.836L144.674 104H140.633L143.099 101.138C143.189 101.036 143.279 100.922 143.369 100.796C143.459 100.67 143.54 100.541 143.612 100.409C143.684 100.271 143.741 100.136 143.783 100.004C143.831 99.866 143.855 99.734 143.855 99.608C143.855 99.26 143.747 98.987 143.531 98.789C143.315 98.591 143.027 98.492 142.667 98.492C142.493 98.492 142.334 98.522 142.19 98.582C142.046 98.642 141.92 98.726 141.812 98.834C141.704 98.936 141.62 99.056 141.56 99.194C141.5 99.332 141.47 99.479 141.47 99.635C141.47 100.031 141.569 100.343 141.767 100.571C141.971 100.793 142.226 100.919 142.532 100.949L141.974 101.651C141.578 101.525 141.26 101.285 141.02 100.931C140.78 100.577 140.66 100.136 140.66 99.608C140.66 99.326 140.711 99.068 140.813 98.834C140.921 98.6 141.068 98.399 141.254 98.231C141.44 98.057 141.659 97.922 141.911 97.826C142.163 97.73 142.439 97.682 142.739 97.682C143.021 97.682 143.282 97.727 143.522 97.817C143.768 97.907 143.981 98.036 144.161 98.204C144.341 98.372 144.482 98.576 144.584 98.816C144.686 99.05 144.737 99.314 144.737 99.608ZM147.749 104.144C147.335 104.144 146.984 104.048 146.696 103.856C146.408 103.658 146.177 103.406 146.003 103.1C145.829 102.788 145.703 102.44 145.625 102.056C145.547 101.666 145.508 101.282 145.508 100.904C145.508 100.676 145.523 100.439 145.553 100.193C145.583 99.947 145.631 99.704 145.697 99.464C145.769 99.224 145.862 98.996 145.976 98.78C146.09 98.564 146.228 98.375 146.39 98.213C146.558 98.051 146.753 97.922 146.975 97.826C147.197 97.73 147.455 97.682 147.749 97.682C148.169 97.682 148.52 97.781 148.802 97.979C149.09 98.177 149.321 98.432 149.495 98.744C149.675 99.056 149.801 99.404 149.873 99.788C149.951 100.172 149.99 100.553 149.99 100.931C149.99 101.273 149.954 101.633 149.882 102.011C149.81 102.383 149.687 102.728 149.513 103.046C149.345 103.364 149.117 103.628 148.829 103.838C148.541 104.042 148.181 104.144 147.749 104.144ZM147.749 103.334C148.199 103.334 148.538 103.127 148.766 102.713C148.994 102.293 149.108 101.693 149.108 100.913C149.108 100.145 148.994 99.551 148.766 99.131C148.544 98.705 148.202 98.492 147.74 98.492C147.32 98.492 146.99 98.693 146.75 99.095C146.51 99.491 146.39 100.097 146.39 100.913C146.39 101.693 146.504 102.293 146.732 102.713C146.96 103.127 147.299 103.334 147.749 103.334ZM152.75 104.144C152.336 104.144 151.985 104.048 151.697 103.856C151.409 103.658 151.178 103.406 151.004 103.1C150.83 102.788 150.704 102.44 150.626 102.056C150.548 101.666 150.509 101.282 150.509 100.904C150.509 100.676 150.524 100.439 150.554 100.193C150.584 99.947 150.632 99.704 150.698 99.464C150.77 99.224 150.863 98.996 150.977 98.78C151.091 98.564 151.229 98.375 151.391 98.213C151.559 98.051 151.754 97.922 151.976 97.826C152.198 97.73 152.456 97.682 152.75 97.682C153.17 97.682 153.521 97.781 153.803 97.979C154.091 98.177 154.322 98.432 154.496 98.744C154.676 99.056 154.802 99.404 154.874 99.788C154.952 100.172 154.991 100.553 154.991 100.931C154.991 101.273 154.955 101.633 154.883 102.011C154.811 102.383 154.688 102.728 154.514 103.046C154.346 103.364 154.118 103.628 153.83 103.838C153.542 104.042 153.182 104.144 152.75 104.144ZM152.75 103.334C153.2 103.334 153.539 103.127 153.767 102.713C153.995 102.293 154.109 101.693 154.109 100.913C154.109 100.145 153.995 99.551 153.767 99.131C153.545 98.705 153.203 98.492 152.741 98.492C152.321 98.492 151.991 98.693 151.751 99.095C151.511 99.491 151.391 100.097 151.391 100.913C151.391 101.693 151.505 102.293 151.733 102.713C151.961 103.127 152.3 103.334 152.75 103.334ZM156.5 102.533L157.085 103.307L156.5 104.081L155.915 103.307L156.5 102.533Z" fill="black"/>
<rect width="30" height="13" transform="translate(107.5 141)" fill="white"/>
<path d="M111.426 145.198C111.659 145.198 111.874 145.233 112.07 145.303C112.266 145.368 112.434 145.464 112.574 145.59C112.719 145.716 112.831 145.865 112.91 146.038C112.989 146.211 113.029 146.402 113.029 146.612C113.029 146.831 112.999 147.037 112.938 147.228C112.877 147.415 112.772 147.578 112.623 147.718C112.478 147.858 112.285 147.968 112.042 148.047C111.799 148.126 111.496 148.166 111.132 148.166H110.796V150L110.11 150.084V145.198H111.426ZM111.349 147.536C111.503 147.536 111.641 147.522 111.762 147.494C111.883 147.461 111.986 147.41 112.07 147.34C112.159 147.265 112.226 147.17 112.273 147.053C112.32 146.932 112.343 146.785 112.343 146.612C112.343 146.351 112.252 146.155 112.07 146.024C111.893 145.893 111.652 145.828 111.349 145.828H110.796V147.536H111.349ZM118.405 147.599C118.405 147.949 118.337 148.278 118.202 148.586C118.071 148.889 117.892 149.155 117.663 149.384C117.439 149.608 117.173 149.785 116.865 149.916C116.562 150.047 116.235 150.112 115.885 150.112C115.53 150.112 115.199 150.047 114.891 149.916C114.588 149.785 114.322 149.606 114.093 149.377C113.869 149.148 113.692 148.882 113.561 148.579C113.43 148.271 113.365 147.944 113.365 147.599C113.365 147.249 113.43 146.922 113.561 146.619C113.696 146.311 113.876 146.045 114.1 145.821C114.329 145.592 114.595 145.413 114.898 145.282C115.206 145.151 115.535 145.086 115.885 145.086C116.24 145.086 116.569 145.154 116.872 145.289C117.18 145.42 117.446 145.599 117.67 145.828C117.899 146.052 118.078 146.318 118.209 146.626C118.34 146.929 118.405 147.254 118.405 147.599ZM115.885 149.482C116.128 149.482 116.359 149.433 116.578 149.335C116.802 149.232 116.998 149.097 117.166 148.929C117.334 148.756 117.467 148.556 117.565 148.327C117.668 148.098 117.719 147.856 117.719 147.599C117.719 147.347 117.67 147.107 117.572 146.878C117.474 146.649 117.341 146.451 117.173 146.283C117.01 146.11 116.816 145.973 116.592 145.87C116.368 145.767 116.13 145.716 115.878 145.716C115.64 145.716 115.409 145.765 115.185 145.863C114.966 145.961 114.772 146.096 114.604 146.269C114.436 146.437 114.301 146.635 114.198 146.864C114.1 147.093 114.051 147.338 114.051 147.599C114.051 147.856 114.1 148.098 114.198 148.327C114.296 148.556 114.429 148.756 114.597 148.929C114.765 149.097 114.959 149.232 115.178 149.335C115.402 149.433 115.638 149.482 115.885 149.482ZM119.765 149.37H121.802L121.522 150H119.079V145.198L119.765 145.086V149.37ZM121.898 145.086L123.291 147.424L124.299 145.086L124.957 145.289L122.801 150.112L122.129 149.965L122.969 148.152L121.226 145.282L121.898 145.086ZM127.547 146.248C127.36 146.043 127.195 145.903 127.05 145.828C126.905 145.753 126.763 145.716 126.623 145.716C126.399 145.716 126.217 145.781 126.077 145.912C125.937 146.043 125.867 146.222 125.867 146.451C125.867 146.558 125.89 146.652 125.937 146.731C125.988 146.806 126.056 146.873 126.14 146.934C126.229 146.995 126.334 147.051 126.455 147.102C126.576 147.149 126.709 147.2 126.854 147.256C127.027 147.321 127.185 147.391 127.33 147.466C127.479 147.541 127.608 147.632 127.715 147.739C127.822 147.846 127.906 147.975 127.967 148.124C128.032 148.269 128.065 148.444 128.065 148.649C128.065 148.868 128.025 149.067 127.946 149.244C127.867 149.421 127.759 149.575 127.624 149.706C127.489 149.837 127.33 149.937 127.148 150.007C126.971 150.077 126.779 150.112 126.574 150.112C126.439 150.112 126.31 150.098 126.189 150.07C126.068 150.047 125.946 150.005 125.825 149.944C125.708 149.883 125.587 149.804 125.461 149.706C125.34 149.603 125.214 149.48 125.083 149.335L125.587 148.915C125.685 149.069 125.813 149.202 125.972 149.314C126.131 149.426 126.308 149.482 126.504 149.482C126.625 149.482 126.737 149.468 126.84 149.44C126.947 149.407 127.041 149.358 127.12 149.293C127.199 149.228 127.262 149.141 127.309 149.034C127.356 148.927 127.379 148.796 127.379 148.642C127.379 148.553 127.346 148.472 127.281 148.397C127.216 148.318 127.134 148.248 127.036 148.187C126.943 148.126 126.845 148.073 126.742 148.026C126.639 147.975 126.551 147.93 126.476 147.893C126.322 147.818 126.168 147.739 126.014 147.655C125.86 147.566 125.72 147.466 125.594 147.354C125.473 147.242 125.372 147.114 125.293 146.969C125.218 146.82 125.181 146.642 125.181 146.437C125.181 146.236 125.216 146.054 125.286 145.891C125.356 145.723 125.454 145.581 125.58 145.464C125.711 145.343 125.867 145.249 126.049 145.184C126.231 145.119 126.434 145.086 126.658 145.086C126.896 145.086 127.136 145.144 127.379 145.261C127.622 145.378 127.832 145.553 128.009 145.786L127.547 146.248ZM129.458 150L128.772 150.056V145.198L129.458 145.086V150ZM135.133 147.599C135.133 147.949 135.065 148.278 134.93 148.586C134.799 148.889 134.619 149.155 134.391 149.384C134.167 149.608 133.901 149.785 133.593 149.916C133.289 150.047 132.963 150.112 132.613 150.112C132.258 150.112 131.927 150.047 131.619 149.916C131.315 149.785 131.049 149.606 130.821 149.377C130.597 149.148 130.419 148.882 130.289 148.579C130.158 148.271 130.093 147.944 130.093 147.599C130.093 147.249 130.158 146.922 130.289 146.619C130.424 146.311 130.604 146.045 130.828 145.821C131.056 145.592 131.322 145.413 131.626 145.282C131.934 145.151 132.263 145.086 132.613 145.086C132.967 145.086 133.296 145.154 133.6 145.289C133.908 145.42 134.174 145.599 134.398 145.828C134.626 146.052 134.806 146.318 134.937 146.626C135.067 146.929 135.133 147.254 135.133 147.599ZM132.613 149.482C132.855 149.482 133.086 149.433 133.306 149.335C133.53 149.232 133.726 149.097 133.894 148.929C134.062 148.756 134.195 148.556 134.293 148.327C134.395 148.098 134.447 147.856 134.447 147.599C134.447 147.347 134.398 147.107 134.3 146.878C134.202 146.649 134.069 146.451 133.901 146.283C133.737 146.11 133.544 145.973 133.32 145.87C133.096 145.767 132.858 145.716 132.606 145.716C132.368 145.716 132.137 145.765 131.913 145.863C131.693 145.961 131.5 146.096 131.332 146.269C131.164 146.437 131.028 146.635 130.926 146.864C130.828 147.093 130.779 147.338 130.779 147.599C130.779 147.856 130.828 148.098 130.926 148.327C131.024 148.556 131.157 148.756 131.325 148.929C131.493 149.097 131.686 149.232 131.906 149.335C132.13 149.433 132.365 149.482 132.613 149.482Z" fill="black"/>
</svg>
