<svg width="244" height="157" viewBox="0 0 244 157" fill="none" xmlns="http://www.w3.org/2000/svg">
<rect width="244" height="157" fill="white"/>
<rect x="9" y="9" width="226" height="139" stroke="black"/>
<path d="M106.19 23.036C105.966 22.876 105.73 22.74 105.482 22.628C105.234 22.508 104.97 22.448 104.69 22.448C104.346 22.448 104.026 22.508 103.73 22.628C103.442 22.74 103.194 22.904 102.986 23.12C102.778 23.328 102.614 23.58 102.494 23.876C102.374 24.172 102.314 24.5 102.314 24.86C102.314 25.228 102.37 25.564 102.482 25.868C102.602 26.164 102.766 26.42 102.974 26.636C103.182 26.852 103.43 27.02 103.718 27.14C104.014 27.26 104.338 27.32 104.69 27.32C104.97 27.32 105.238 27.26 105.494 27.14C105.758 27.012 106.006 26.868 106.238 26.708L105.986 28.892C105.906 28.94 105.802 28.98 105.674 29.012C105.546 29.052 105.41 29.084 105.266 29.108C105.13 29.132 104.994 29.152 104.858 29.168C104.73 29.184 104.626 29.192 104.546 29.192C103.922 29.192 103.346 29.088 102.818 28.88C102.298 28.672 101.846 28.38 101.462 28.004C101.086 27.628 100.794 27.18 100.586 26.66C100.378 26.132 100.274 25.548 100.274 24.908C100.274 24.3 100.378 23.732 100.586 23.204C100.794 22.676 101.086 22.216 101.462 21.824C101.838 21.432 102.286 21.128 102.806 20.912C103.334 20.688 103.91 20.576 104.534 20.576C104.774 20.576 105.006 20.596 105.23 20.636C105.454 20.676 105.67 20.744 105.878 20.84L106.19 23.036ZM109.342 23.768H111.982V20.768L114.022 20.576V28.904L111.982 29.096V25.64H109.342V28.904L107.302 29.096V20.768L109.342 20.576V23.768ZM118.642 20.576H118.666L123.106 28.772L121.03 29.192L120.19 27.428L117.058 27.428L116.23 29.192L114.25 28.772L118.642 20.576ZM117.55 25.904L119.734 25.904L118.642 23.888L117.55 25.904ZM123.274 20.576H123.298L128.686 25.184V20.768L130.726 20.576V29.192H130.702L125.314 24.488V28.904L123.274 29.096V20.576ZM137.526 23.036C137.302 22.876 137.066 22.74 136.818 22.628C136.57 22.508 136.306 22.448 136.026 22.448C135.682 22.448 135.362 22.508 135.066 22.628C134.778 22.74 134.53 22.904 134.322 23.12C134.114 23.328 133.95 23.58 133.83 23.876C133.71 24.172 133.65 24.5 133.65 24.86C133.65 25.228 133.706 25.564 133.818 25.868C133.938 26.164 134.102 26.42 134.31 26.636C134.518 26.852 134.766 27.02 135.054 27.14C135.35 27.26 135.674 27.32 136.026 27.32C136.306 27.32 136.574 27.26 136.83 27.14C137.094 27.012 137.342 26.868 137.574 26.708L137.322 28.892C137.242 28.94 137.138 28.98 137.01 29.012C136.882 29.052 136.746 29.084 136.602 29.108C136.466 29.132 136.33 29.152 136.194 29.168C136.066 29.184 135.962 29.192 135.882 29.192C135.258 29.192 134.682 29.088 134.154 28.88C133.634 28.672 133.182 28.38 132.798 28.004C132.422 27.628 132.13 27.18 131.922 26.66C131.714 26.132 131.61 25.548 131.61 24.908C131.61 24.3 131.714 23.732 131.922 23.204C132.13 22.676 132.422 22.216 132.798 21.824C133.174 21.432 133.622 21.128 134.142 20.912C134.67 20.688 135.246 20.576 135.87 20.576C136.11 20.576 136.342 20.596 136.566 20.636C136.79 20.676 137.006 20.744 137.214 20.84L137.526 23.036ZM143.294 20.768L143.654 22.508H140.678V23.936H142.802V25.676H140.678V27.26H143.906L143.402 29H138.638V20.768H143.294Z" fill="black"/>
<rect width="194" height="95" transform="translate(25 37)" fill="white"/>
<path d="M26.9054 70.182L28.4174 74.466H28.4354L30.0104 70.182L30.8924 70.326L28.4354 76.644H28.4174L26.0324 70.326L26.9054 70.182ZM37.4534 73.413C37.4534 73.863 37.3664 74.286 37.1924 74.682C37.0244 75.072 36.7934 75.414 36.4994 75.708C36.2114 75.996 35.8694 76.224 35.4734 76.392C35.0834 76.56 34.6634 76.644 34.2134 76.644C33.7574 76.644 33.3314 76.56 32.9354 76.392C32.5454 76.224 32.2034 75.993 31.9094 75.699C31.6214 75.405 31.3934 75.063 31.2254 74.673C31.0574 74.277 30.9734 73.857 30.9734 73.413C30.9734 72.963 31.0574 72.543 31.2254 72.153C31.3994 71.757 31.6304 71.415 31.9184 71.127C32.2124 70.833 32.5544 70.602 32.9444 70.434C33.3404 70.266 33.7634 70.182 34.2134 70.182C34.6694 70.182 35.0924 70.269 35.4824 70.443C35.8784 70.611 36.2204 70.842 36.5084 71.136C36.8024 71.424 37.0334 71.766 37.2014 72.162C37.3694 72.552 37.4534 72.969 37.4534 73.413ZM34.2134 75.834C34.5254 75.834 34.8224 75.771 35.1044 75.645C35.3924 75.513 35.6444 75.339 35.8604 75.123C36.0764 74.901 36.2474 74.643 36.3734 74.349C36.5054 74.055 36.5714 73.743 36.5714 73.413C36.5714 73.089 36.5084 72.78 36.3824 72.486C36.2564 72.192 36.0854 71.937 35.8694 71.721C35.6594 71.499 35.4104 71.322 35.1224 71.19C34.8344 71.058 34.5284 70.992 34.2044 70.992C33.8984 70.992 33.6014 71.055 33.3134 71.181C33.0314 71.307 32.7824 71.481 32.5664 71.703C32.3504 71.919 32.1764 72.174 32.0444 72.468C31.9184 72.762 31.8554 73.077 31.8554 73.413C31.8554 73.743 31.9184 74.055 32.0444 74.349C32.1704 74.643 32.3414 74.901 32.5574 75.123C32.7734 75.339 33.0224 75.513 33.3044 75.645C33.5924 75.771 33.8954 75.834 34.2134 75.834ZM39.1663 74.601C39.1663 74.967 39.2683 75.264 39.4723 75.492C39.6823 75.72 39.9943 75.834 40.4083 75.834C40.8583 75.834 41.1973 75.726 41.4253 75.51C41.6533 75.288 41.7673 74.988 41.7673 74.61V70.326L42.6493 70.182V73.809C42.6493 74.031 42.6433 74.256 42.6313 74.484C42.6253 74.712 42.6013 74.931 42.5593 75.141C42.5233 75.351 42.4603 75.549 42.3703 75.735C42.2863 75.915 42.1663 76.074 42.0103 76.212C41.8543 76.344 41.6563 76.449 41.4163 76.527C41.1823 76.605 40.8943 76.644 40.5523 76.644C40.1263 76.644 39.7663 76.602 39.4723 76.518C39.1843 76.434 38.9503 76.296 38.7703 76.104C38.5963 75.906 38.4703 75.651 38.3923 75.339C38.3203 75.021 38.2843 74.631 38.2843 74.169V70.326L39.1663 70.182V74.601ZM46.7022 71.676C46.4622 71.412 46.2492 71.232 46.0632 71.136C45.8772 71.04 45.6942 70.992 45.5142 70.992C45.2262 70.992 44.9922 71.076 44.8122 71.244C44.6322 71.412 44.5422 71.643 44.5422 71.937C44.5422 72.075 44.5722 72.195 44.6322 72.297C44.6982 72.393 44.7852 72.48 44.8932 72.558C45.0072 72.636 45.1422 72.708 45.2982 72.774C45.4542 72.834 45.6252 72.9 45.8112 72.972C46.0332 73.056 46.2372 73.146 46.4232 73.242C46.6152 73.338 46.7802 73.455 46.9182 73.593C47.0562 73.731 47.1642 73.896 47.2422 74.088C47.3262 74.274 47.3682 74.499 47.3682 74.763C47.3682 75.045 47.3172 75.3 47.2152 75.528C47.1132 75.756 46.9752 75.954 46.8012 76.122C46.6272 76.29 46.4232 76.419 46.1892 76.509C45.9612 76.599 45.7152 76.644 45.4512 76.644C45.2772 76.644 45.1122 76.626 44.9562 76.59C44.8002 76.56 44.6442 76.506 44.4882 76.428C44.3382 76.35 44.1822 76.248 44.0202 76.122C43.8642 75.99 43.7022 75.831 43.5342 75.645L44.1822 75.105C44.3082 75.303 44.4732 75.474 44.6772 75.618C44.8812 75.762 45.1092 75.834 45.3612 75.834C45.5172 75.834 45.6612 75.816 45.7932 75.78C45.9312 75.738 46.0512 75.675 46.1532 75.591C46.2552 75.507 46.3362 75.396 46.3962 75.258C46.4562 75.12 46.4862 74.952 46.4862 74.754C46.4862 74.64 46.4442 74.535 46.3602 74.439C46.2762 74.337 46.1712 74.247 46.0452 74.169C45.9252 74.091 45.7992 74.022 45.6672 73.962C45.5352 73.896 45.4212 73.839 45.3252 73.791C45.1272 73.695 44.9292 73.593 44.7312 73.485C44.5332 73.371 44.3532 73.242 44.1912 73.098C44.0352 72.954 43.9062 72.789 43.8042 72.603C43.7082 72.411 43.6602 72.183 43.6602 71.919C43.6602 71.661 43.7052 71.427 43.7952 71.217C43.8852 71.001 44.0112 70.818 44.1732 70.668C44.3412 70.512 44.5422 70.392 44.7762 70.308C45.0102 70.224 45.2712 70.182 45.5592 70.182C45.8652 70.182 46.1742 70.257 46.4862 70.407C46.7982 70.557 47.0682 70.782 47.2962 71.082L46.7022 71.676ZM53.2301 70.182L56.3711 76.464L55.4891 76.644L54.4361 74.52H51.9521L50.9081 76.644L50.0801 76.464L53.2121 70.182H53.2301ZM52.3211 73.71H54.0761L53.1941 71.937L52.3211 73.71ZM56.4279 70.182L57.9399 74.466H57.9579L59.5329 70.182L60.4149 70.326L57.9579 76.644H57.9399L55.5549 70.326L56.4279 70.182ZM64.1319 70.326L64.3209 71.136H61.7199V72.882H63.7989V73.692H61.7199V75.69H64.5189L64.2669 76.5H60.8379V70.326H64.1319ZM69.4599 70.326L66.2199 75.69H69.6219L69.4059 76.5H64.8609L68.1369 71.136H64.9959L65.1759 70.326H69.4599ZM76.1377 70.326L76.3267 71.136H73.7257V72.882H75.8047V73.692H73.7257V75.69H76.5247L76.2727 76.5H72.8437V70.326H76.1377ZM75.8317 68.67L74.5357 69.966H73.7977L74.6077 68.67H75.8317ZM80.6197 70.326V71.136H79.1797V76.5L78.2977 76.608V71.136H76.6957L76.9747 70.326H80.6197ZM84.6367 70.326L84.8257 71.136H82.2247V72.882H84.3037V73.692H82.2247V75.69H85.0237L84.7717 76.5H81.3427V70.326H84.6367ZM84.3307 68.67L83.0347 69.966H82.2967L83.1067 68.67H84.3307ZM91.6416 70.326L91.8306 71.136H89.2296V72.882H91.3086V73.692H89.2296V75.69H92.0286L91.7766 76.5H88.3476V70.326H91.6416ZM91.3356 68.67L90.0396 69.966H89.3016L90.1116 68.67H91.3356ZM93.7296 75.69H96.3486L95.9886 76.5H92.8476V70.326L93.7296 70.182V75.69ZM97.6927 74.601C97.6927 74.967 97.7947 75.264 97.9987 75.492C98.2087 75.72 98.5207 75.834 98.9347 75.834C99.3847 75.834 99.7237 75.726 99.9517 75.51C100.18 75.288 100.294 74.988 100.294 74.61V70.326L101.176 70.182V73.809C101.176 74.031 101.17 74.256 101.158 74.484C101.152 74.712 101.128 74.931 101.086 75.141C101.05 75.351 100.987 75.549 100.897 75.735C100.813 75.915 100.693 76.074 100.537 76.212C100.381 76.344 100.183 76.449 99.9427 76.527C99.7087 76.605 99.4207 76.644 99.0787 76.644C98.6527 76.644 98.2927 76.602 97.9987 76.518C97.7107 76.434 97.4767 76.296 97.2967 76.104C97.1227 75.906 96.9967 75.651 96.9187 75.339C96.8467 75.021 96.8107 74.631 96.8107 74.169V70.326L97.6927 70.182V74.601ZM105.609 70.182H105.627L107.76 74.889L109.866 70.182H109.884L111.144 76.5L110.289 76.608L109.542 72.702H109.524L107.769 76.572H107.751L105.951 72.702H105.933L105.204 76.608L104.358 76.5L105.609 70.182ZM115.152 70.326L115.341 71.136H112.74V72.882H114.819V73.692H112.74V75.69H115.539L115.287 76.5H111.858V70.326H115.152ZM117.195 76.5L116.313 76.572V70.326L117.195 70.182V76.5ZM119.235 75.69H121.854L121.494 76.5H118.353V70.326L119.235 70.182V75.69ZM123.235 75.69H125.854L125.494 76.5H122.353V70.326L123.235 70.182V75.69ZM129.646 70.326L129.835 71.136H127.234V72.882H129.313V73.692H127.234V75.69H130.033L129.781 76.5H126.352V70.326H129.646ZM131.698 74.601C131.698 74.967 131.8 75.264 132.004 75.492C132.214 75.72 132.526 75.834 132.94 75.834C133.39 75.834 133.729 75.726 133.957 75.51C134.185 75.288 134.299 74.988 134.299 74.61V70.326L135.181 70.182V73.809C135.181 74.031 135.175 74.256 135.163 74.484C135.157 74.712 135.133 74.931 135.091 75.141C135.055 75.351 134.992 75.549 134.902 75.735C134.818 75.915 134.698 76.074 134.542 76.212C134.386 76.344 134.188 76.449 133.948 76.527C133.714 76.605 133.426 76.644 133.084 76.644C132.658 76.644 132.298 76.602 132.004 76.518C131.716 76.434 131.482 76.296 131.302 76.104C131.128 75.906 131.002 75.651 130.924 75.339C130.852 75.021 130.816 74.631 130.816 74.169V70.326L131.698 70.182V74.601ZM137.775 70.326C138.051 70.326 138.312 70.365 138.558 70.443C138.804 70.515 139.02 70.629 139.206 70.785C139.392 70.941 139.539 71.136 139.647 71.37C139.755 71.604 139.809 71.88 139.809 72.198C139.809 72.666 139.686 73.029 139.44 73.287C139.194 73.539 138.861 73.713 138.441 73.809L140.304 76.392L139.314 76.644L137.163 73.503H137.145V76.5L136.263 76.608V70.326H137.775ZM137.793 73.305C137.937 73.305 138.078 73.278 138.216 73.224C138.354 73.17 138.474 73.095 138.576 72.999C138.684 72.903 138.768 72.789 138.828 72.657C138.894 72.519 138.927 72.366 138.927 72.198C138.927 72.012 138.897 71.853 138.837 71.721C138.777 71.583 138.696 71.472 138.594 71.388C138.492 71.304 138.372 71.241 138.234 71.199C138.102 71.157 137.958 71.136 137.802 71.136H137.145V73.305H137.793ZM146.652 70.326L146.841 71.136H144.24V72.882H146.319V73.692H144.24V75.69H147.039L146.787 76.5H143.358V70.326H146.652ZM148.614 70.182H148.632L150.765 74.889L152.871 70.182H152.889L154.149 76.5L153.294 76.608L152.547 72.702H152.529L150.774 76.572H150.756L148.956 72.702H148.938L148.209 76.608L147.363 76.5L148.614 70.182ZM156.528 70.326C156.828 70.326 157.104 70.371 157.356 70.461C157.608 70.545 157.824 70.668 158.004 70.83C158.19 70.992 158.334 71.184 158.436 71.406C158.538 71.628 158.589 71.874 158.589 72.144C158.589 72.426 158.55 72.69 158.472 72.936C158.394 73.176 158.259 73.386 158.067 73.566C157.881 73.746 157.632 73.887 157.32 73.989C157.008 74.091 156.618 74.142 156.15 74.142H155.718V76.5L154.836 76.608V70.326H156.528ZM156.429 73.332C156.627 73.332 156.804 73.314 156.96 73.278C157.116 73.236 157.248 73.17 157.356 73.08C157.47 72.984 157.557 72.861 157.617 72.711C157.677 72.555 157.707 72.366 157.707 72.144C157.707 71.808 157.59 71.556 157.356 71.388C157.128 71.22 156.819 71.136 156.429 71.136H155.718V73.332H156.429ZM160.245 75.69L162.864 75.69L162.504 76.5L159.363 76.5V70.326L160.245 70.182V75.69ZM169.5 73.413C169.5 73.863 169.413 74.286 169.239 74.682C169.071 75.072 168.84 75.414 168.546 75.708C168.258 75.996 167.916 76.224 167.52 76.392C167.13 76.56 166.71 76.644 166.26 76.644C165.804 76.644 165.378 76.56 164.982 76.392C164.592 76.224 164.25 75.993 163.956 75.699C163.668 75.405 163.44 75.063 163.272 74.673C163.104 74.277 163.02 73.857 163.02 73.413C163.02 72.963 163.104 72.543 163.272 72.153C163.446 71.757 163.677 71.415 163.965 71.127C164.259 70.833 164.601 70.602 164.991 70.434C165.387 70.266 165.81 70.182 166.26 70.182C166.716 70.182 167.139 70.269 167.529 70.443C167.925 70.611 168.267 70.842 168.555 71.136C168.849 71.424 169.08 71.766 169.248 72.162C169.416 72.552 169.5 72.969 169.5 73.413ZM166.26 75.834C166.572 75.834 166.869 75.771 167.151 75.645C167.439 75.513 167.691 75.339 167.907 75.123C168.123 74.901 168.294 74.643 168.42 74.349C168.552 74.055 168.618 73.743 168.618 73.413C168.618 73.089 168.555 72.78 168.429 72.486C168.303 72.192 168.132 71.937 167.916 71.721C167.706 71.499 167.457 71.322 167.169 71.19C166.881 71.058 166.575 70.992 166.251 70.992C165.945 70.992 165.648 71.055 165.36 71.181C165.078 71.307 164.829 71.481 164.613 71.703C164.397 71.919 164.223 72.174 164.091 72.468C163.965 72.762 163.902 73.077 163.902 73.413C163.902 73.743 163.965 74.055 164.091 74.349C164.217 74.643 164.388 74.901 164.604 75.123C164.82 75.339 165.069 75.513 165.351 75.645C165.639 75.771 165.942 75.834 166.26 75.834ZM170.484 70.182L172.275 73.188L173.571 70.182L174.417 70.443L171.645 76.644L170.781 76.455L171.861 74.124L169.62 70.434L170.484 70.182ZM178.161 70.326L178.35 71.136H175.749V72.882H177.828V73.692H175.749V75.69H178.548L178.296 76.5H174.867V70.326H178.161ZM177.855 68.67L176.559 69.966H175.821L176.631 68.67H177.855ZM183.42 70.326C183.864 70.326 184.275 70.41 184.653 70.578C185.031 70.746 185.355 70.971 185.625 71.253C185.901 71.535 186.117 71.862 186.273 72.234C186.429 72.606 186.507 72.999 186.507 73.413C186.507 73.827 186.429 74.22 186.273 74.592C186.117 74.964 185.901 75.294 185.625 75.582C185.349 75.864 185.022 76.089 184.644 76.257C184.272 76.419 183.867 76.5 183.429 76.5H181.854V70.326H183.42ZM183.393 75.69C183.669 75.69 183.939 75.636 184.203 75.528C184.473 75.42 184.713 75.267 184.923 75.069C185.133 74.865 185.301 74.625 185.427 74.349C185.559 74.067 185.625 73.755 185.625 73.413C185.625 73.077 185.559 72.771 185.427 72.495C185.301 72.213 185.133 71.973 184.923 71.775C184.713 71.571 184.473 71.415 184.203 71.307C183.939 71.193 183.666 71.136 183.384 71.136H182.736V75.69H183.393ZM188.22 74.601C188.22 74.967 188.322 75.264 188.526 75.492C188.736 75.72 189.048 75.834 189.462 75.834C189.912 75.834 190.251 75.726 190.479 75.51C190.707 75.288 190.821 74.988 190.821 74.61V70.326L191.703 70.182V73.809C191.703 74.031 191.697 74.256 191.685 74.484C191.679 74.712 191.655 74.931 191.613 75.141C191.577 75.351 191.514 75.549 191.424 75.735C191.34 75.915 191.22 76.074 191.064 76.212C190.908 76.344 190.71 76.449 190.47 76.527C190.236 76.605 189.948 76.644 189.606 76.644C189.18 76.644 188.82 76.602 188.526 76.518C188.238 76.434 188.004 76.296 187.824 76.104C187.65 75.906 187.524 75.651 187.446 75.339C187.374 75.021 187.338 74.631 187.338 74.169V70.326L188.22 70.182V74.601ZM196.137 70.182H196.155L198.288 74.889L200.394 70.182H200.412L201.672 76.5L200.817 76.608L200.07 72.702H200.052L198.297 76.572H198.279L196.479 72.702H196.461L195.732 76.608L194.886 76.5L196.137 70.182ZM208.524 73.413C208.524 73.863 208.437 74.286 208.263 74.682C208.095 75.072 207.864 75.414 207.57 75.708C207.282 75.996 206.94 76.224 206.544 76.392C206.154 76.56 205.734 76.644 205.284 76.644C204.828 76.644 204.402 76.56 204.006 76.392C203.616 76.224 203.274 75.993 202.98 75.699C202.692 75.405 202.464 75.063 202.296 74.673C202.128 74.277 202.044 73.857 202.044 73.413C202.044 72.963 202.128 72.543 202.296 72.153C202.47 71.757 202.701 71.415 202.989 71.127C203.283 70.833 203.625 70.602 204.015 70.434C204.411 70.266 204.834 70.182 205.284 70.182C205.74 70.182 206.163 70.269 206.553 70.443C206.949 70.611 207.291 70.842 207.579 71.136C207.873 71.424 208.104 71.766 208.272 72.162C208.44 72.552 208.524 72.969 208.524 73.413ZM205.284 75.834C205.596 75.834 205.893 75.771 206.175 75.645C206.463 75.513 206.715 75.339 206.931 75.123C207.147 74.901 207.318 74.643 207.444 74.349C207.576 74.055 207.642 73.743 207.642 73.413C207.642 73.089 207.579 72.78 207.453 72.486C207.327 72.192 207.156 71.937 206.94 71.721C206.73 71.499 206.481 71.322 206.193 71.19C205.905 71.058 205.599 70.992 205.275 70.992C204.969 70.992 204.672 71.055 204.384 71.181C204.102 71.307 203.853 71.481 203.637 71.703C203.421 71.919 203.247 72.174 203.115 72.468C202.989 72.762 202.926 73.077 202.926 73.413C202.926 73.743 202.989 74.055 203.115 74.349C203.241 74.643 203.412 74.901 203.628 75.123C203.844 75.339 204.093 75.513 204.375 75.645C204.663 75.771 204.966 75.834 205.284 75.834ZM210.228 76.5L209.346 76.572V70.326L210.228 70.182V76.5ZM214.266 71.676C214.026 71.412 213.813 71.232 213.627 71.136C213.441 71.04 213.258 70.992 213.078 70.992C212.79 70.992 212.556 71.076 212.376 71.244C212.196 71.412 212.106 71.643 212.106 71.937C212.106 72.075 212.136 72.195 212.196 72.297C212.262 72.393 212.349 72.48 212.457 72.558C212.571 72.636 212.706 72.708 212.862 72.774C213.018 72.834 213.189 72.9 213.375 72.972C213.597 73.056 213.801 73.146 213.987 73.242C214.179 73.338 214.344 73.455 214.482 73.593C214.62 73.731 214.728 73.896 214.806 74.088C214.89 74.274 214.932 74.499 214.932 74.763C214.932 75.045 214.881 75.3 214.779 75.528C214.677 75.756 214.539 75.954 214.365 76.122C214.191 76.29 213.987 76.419 213.753 76.509C213.525 76.599 213.279 76.644 213.015 76.644C212.841 76.644 212.676 76.626 212.52 76.59C212.364 76.56 212.208 76.506 212.052 76.428C211.902 76.35 211.746 76.248 211.584 76.122C211.428 75.99 211.266 75.831 211.098 75.645L211.746 75.105C211.872 75.303 212.037 75.474 212.241 75.618C212.445 75.762 212.673 75.834 212.925 75.834C213.081 75.834 213.225 75.816 213.357 75.78C213.495 75.738 213.615 75.675 213.717 75.591C213.819 75.507 213.9 75.396 213.96 75.258C214.02 75.12 214.05 74.952 214.05 74.754C214.05 74.64 214.008 74.535 213.924 74.439C213.84 74.337 213.735 74.247 213.609 74.169C213.489 74.091 213.363 74.022 213.231 73.962C213.099 73.896 212.985 73.839 212.889 73.791C212.691 73.695 212.493 73.593 212.295 73.485C212.097 73.371 211.917 73.242 211.755 73.098C211.599 72.954 211.47 72.789 211.368 72.603C211.272 72.411 211.224 72.183 211.224 71.919C211.224 71.661 211.269 71.427 211.359 71.217C211.449 71.001 211.575 70.818 211.737 70.668C211.905 70.512 212.106 70.392 212.34 70.308C212.574 70.224 212.835 70.182 213.123 70.182C213.429 70.182 213.738 70.257 214.05 70.407C214.362 70.557 214.632 70.782 214.86 71.082L214.266 71.676ZM216.534 75.033L217.119 75.807L216.534 76.581L215.949 75.807L216.534 75.033Z" fill="black"/>
<path d="M90.9256 93.289C90.7636 93.175 90.5986 93.097 90.4306 93.055C90.2626 93.013 90.0826 92.992 89.8906 92.992C89.5726 92.992 89.2756 93.061 88.9996 93.199C88.7296 93.331 88.4926 93.508 88.2886 93.73C88.0846 93.946 87.9256 94.198 87.8116 94.486C87.6976 94.774 87.6406 95.071 87.6406 95.377C87.6406 95.701 87.6976 96.013 87.8116 96.313C87.9256 96.607 88.0816 96.868 88.2796 97.096C88.4776 97.318 88.7086 97.498 88.9726 97.636C89.2426 97.768 89.5336 97.834 89.8456 97.834C90.0556 97.834 90.2656 97.801 90.4756 97.735C90.6916 97.663 90.8866 97.57 91.0606 97.456L90.8986 98.419C90.7126 98.485 90.5326 98.539 90.3586 98.581C90.1906 98.623 90.0136 98.644 89.8276 98.644C89.4136 98.644 89.0206 98.56 88.6486 98.392C88.2766 98.224 87.9496 97.996 87.6676 97.708C87.3916 97.414 87.1696 97.072 87.0016 96.682C86.8396 96.286 86.7586 95.863 86.7586 95.413C86.7586 95.005 86.8426 94.609 87.0106 94.225C87.1786 93.835 87.3976 93.49 87.6676 93.19C87.9436 92.884 88.2556 92.641 88.6036 92.461C88.9516 92.275 89.3086 92.182 89.6746 92.182C89.8546 92.182 90.0316 92.197 90.2056 92.227C90.3856 92.251 90.5626 92.287 90.7366 92.335L90.9256 93.289ZM98.2395 95.413C98.2395 95.863 98.1525 96.286 97.9785 96.682C97.8105 97.072 97.5795 97.414 97.2855 97.708C96.9975 97.996 96.6555 98.224 96.2595 98.392C95.8695 98.56 95.4495 98.644 94.9995 98.644C94.5435 98.644 94.1175 98.56 93.7215 98.392C93.3315 98.224 92.9895 97.993 92.6955 97.699C92.4075 97.405 92.1795 97.063 92.0115 96.673C91.8435 96.277 91.7595 95.857 91.7595 95.413C91.7595 94.963 91.8435 94.543 92.0115 94.153C92.1855 93.757 92.4165 93.415 92.7045 93.127C92.9985 92.833 93.3405 92.602 93.7305 92.434C94.1265 92.266 94.5495 92.182 94.9995 92.182C95.4555 92.182 95.8785 92.269 96.2685 92.443C96.6645 92.611 97.0065 92.842 97.2945 93.136C97.5885 93.424 97.8195 93.766 97.9875 94.162C98.1555 94.552 98.2395 94.969 98.2395 95.413ZM94.9995 97.834C95.3115 97.834 95.6085 97.771 95.8905 97.645C96.1785 97.513 96.4305 97.339 96.6465 97.123C96.8625 96.901 97.0335 96.643 97.1595 96.349C97.2915 96.055 97.3575 95.743 97.3575 95.413C97.3575 95.089 97.2945 94.78 97.1685 94.486C97.0425 94.192 96.8715 93.937 96.6555 93.721C96.4455 93.499 96.1965 93.322 95.9085 93.19C95.6205 93.058 95.3145 92.992 94.9905 92.992C94.6845 92.992 94.3875 93.055 94.0995 93.181C93.8175 93.307 93.5685 93.481 93.3525 93.703C93.1365 93.919 92.9625 94.174 92.8305 94.468C92.7045 94.762 92.6415 95.077 92.6415 95.413C92.6415 95.743 92.7045 96.055 92.8305 96.349C92.9565 96.643 93.1275 96.901 93.3435 97.123C93.5595 97.339 93.8085 97.513 94.0905 97.645C94.3785 97.771 94.6815 97.834 94.9995 97.834ZM99.9884 97.69H102.607L102.247 98.5H99.1064V92.326L99.9884 92.182V97.69ZM103.987 97.69H106.606L106.246 98.5H103.105V92.326L103.987 92.182V97.69ZM110.398 92.326L110.587 93.136H107.986V94.882H110.065V95.692H107.986V97.69H110.785L110.533 98.5H107.104V92.326H110.398ZM115.429 93.289C115.267 93.175 115.102 93.097 114.934 93.055C114.766 93.013 114.586 92.992 114.394 92.992C114.076 92.992 113.779 93.061 113.503 93.199C113.233 93.331 112.996 93.508 112.792 93.73C112.588 93.946 112.429 94.198 112.315 94.486C112.201 94.774 112.144 95.071 112.144 95.377C112.144 95.701 112.201 96.013 112.315 96.313C112.429 96.607 112.585 96.868 112.783 97.096C112.981 97.318 113.212 97.498 113.476 97.636C113.746 97.768 114.037 97.834 114.349 97.834C114.559 97.834 114.769 97.801 114.979 97.735C115.195 97.663 115.39 97.57 115.564 97.456L115.402 98.419C115.216 98.485 115.036 98.539 114.862 98.581C114.694 98.623 114.517 98.644 114.331 98.644C113.917 98.644 113.524 98.56 113.152 98.392C112.78 98.224 112.453 97.996 112.171 97.708C111.895 97.414 111.673 97.072 111.505 96.682C111.343 96.286 111.262 95.863 111.262 95.413C111.262 95.005 111.346 94.609 111.514 94.225C111.682 93.835 111.901 93.49 112.171 93.19C112.447 92.884 112.759 92.641 113.107 92.461C113.455 92.275 113.812 92.182 114.178 92.182C114.358 92.182 114.535 92.197 114.709 92.227C114.889 92.251 115.066 92.287 115.24 92.335L115.429 93.289ZM119.881 92.326V93.136H118.441V98.5L117.559 98.608V93.136H115.957L116.236 92.326H119.881ZM123.898 92.326L124.087 93.136H121.486V94.882H123.565V95.692H121.486V97.69H124.285L124.033 98.5H120.604V92.326H123.898ZM129.226 92.326L125.986 97.69H129.388L129.172 98.5H124.627L127.903 93.136H124.762L124.942 92.326H129.226Z" fill="black"/>
<path d="M138.007 93.064C137.905 92.962 137.77 92.878 137.602 92.812C137.44 92.74 137.263 92.704 137.071 92.704C136.873 92.704 136.687 92.749 136.513 92.839C136.339 92.923 136.18 93.046 136.036 93.208C135.892 93.364 135.766 93.556 135.658 93.784C135.55 94.012 135.469 94.264 135.415 94.54H137.278L137.188 95.017H135.334C135.322 95.083 135.316 95.146 135.316 95.206C135.316 95.266 135.316 95.329 135.316 95.395C135.316 95.443 135.316 95.488 135.316 95.53C135.316 95.572 135.319 95.617 135.325 95.665H137.062L136.972 96.142H135.37C135.466 96.76 135.667 97.246 135.973 97.6C136.285 97.948 136.657 98.122 137.089 98.122C137.269 98.122 137.443 98.089 137.611 98.023C137.779 97.951 137.926 97.858 138.052 97.744L137.971 98.41C137.827 98.512 137.671 98.575 137.503 98.599C137.341 98.629 137.206 98.644 137.098 98.644C136.81 98.644 136.537 98.584 136.279 98.464C136.027 98.344 135.799 98.176 135.595 97.96C135.397 97.744 135.229 97.483 135.091 97.177C134.953 96.871 134.854 96.526 134.794 96.142H133.984L134.074 95.665H134.749C134.743 95.617 134.74 95.572 134.74 95.53C134.74 95.482 134.74 95.437 134.74 95.395C134.74 95.329 134.74 95.266 134.74 95.206C134.746 95.146 134.752 95.083 134.758 95.017H133.984L134.074 94.54H134.821C134.887 94.198 134.989 93.883 135.127 93.595C135.271 93.307 135.442 93.058 135.64 92.848C135.838 92.638 136.06 92.476 136.306 92.362C136.558 92.242 136.825 92.182 137.107 92.182C137.257 92.182 137.407 92.2 137.557 92.236C137.713 92.272 137.833 92.329 137.917 92.407L138.007 93.064Z" fill="black"/>
<path d="M143.45 92.182H143.468V98.5L142.586 98.572V93.721L141.326 94.504L141.011 93.946L143.45 92.182ZM147.749 98.644C147.335 98.644 146.984 98.548 146.696 98.356C146.408 98.158 146.177 97.906 146.003 97.6C145.829 97.288 145.703 96.94 145.625 96.556C145.547 96.166 145.508 95.782 145.508 95.404C145.508 95.176 145.523 94.939 145.553 94.693C145.583 94.447 145.631 94.204 145.697 93.964C145.769 93.724 145.862 93.496 145.976 93.28C146.09 93.064 146.228 92.875 146.39 92.713C146.558 92.551 146.753 92.422 146.975 92.326C147.197 92.23 147.455 92.182 147.749 92.182C148.169 92.182 148.52 92.281 148.802 92.479C149.09 92.677 149.321 92.932 149.495 93.244C149.675 93.556 149.801 93.904 149.873 94.288C149.951 94.672 149.99 95.053 149.99 95.431C149.99 95.773 149.954 96.133 149.882 96.511C149.81 96.883 149.687 97.228 149.513 97.546C149.345 97.864 149.117 98.128 148.829 98.338C148.541 98.542 148.181 98.644 147.749 98.644ZM147.749 97.834C148.199 97.834 148.538 97.627 148.766 97.213C148.994 96.793 149.108 96.193 149.108 95.413C149.108 94.645 148.994 94.051 148.766 93.631C148.544 93.205 148.202 92.992 147.74 92.992C147.32 92.992 146.99 93.193 146.75 93.595C146.51 93.991 146.39 94.597 146.39 95.413C146.39 96.193 146.504 96.793 146.732 97.213C146.96 97.627 147.299 97.834 147.749 97.834ZM152.75 98.644C152.336 98.644 151.985 98.548 151.697 98.356C151.409 98.158 151.178 97.906 151.004 97.6C150.83 97.288 150.704 96.94 150.626 96.556C150.548 96.166 150.509 95.782 150.509 95.404C150.509 95.176 150.524 94.939 150.554 94.693C150.584 94.447 150.632 94.204 150.698 93.964C150.77 93.724 150.863 93.496 150.977 93.28C151.091 93.064 151.229 92.875 151.391 92.713C151.559 92.551 151.754 92.422 151.976 92.326C152.198 92.23 152.456 92.182 152.75 92.182C153.17 92.182 153.521 92.281 153.803 92.479C154.091 92.677 154.322 92.932 154.496 93.244C154.676 93.556 154.802 93.904 154.874 94.288C154.952 94.672 154.991 95.053 154.991 95.431C154.991 95.773 154.955 96.133 154.883 96.511C154.811 96.883 154.688 97.228 154.514 97.546C154.346 97.864 154.118 98.128 153.83 98.338C153.542 98.542 153.182 98.644 152.75 98.644ZM152.75 97.834C153.2 97.834 153.539 97.627 153.767 97.213C153.995 96.793 154.109 96.193 154.109 95.413C154.109 94.645 153.995 94.051 153.767 93.631C153.545 93.205 153.203 92.992 152.741 92.992C152.321 92.992 151.991 93.193 151.751 93.595C151.511 93.991 151.391 94.597 151.391 95.413C151.391 96.193 151.505 96.793 151.733 97.213C151.961 97.627 152.3 97.834 152.75 97.834ZM156.5 97.033L157.085 97.807L156.5 98.581L155.915 97.807L156.5 97.033Z" fill="black"/>
<rect width="30" height="13" transform="translate(107.5 141)" fill="white"/>
<path d="M111.426 145.198C111.659 145.198 111.874 145.233 112.07 145.303C112.266 145.368 112.434 145.464 112.574 145.59C112.719 145.716 112.831 145.865 112.91 146.038C112.989 146.211 113.029 146.402 113.029 146.612C113.029 146.831 112.999 147.037 112.938 147.228C112.877 147.415 112.772 147.578 112.623 147.718C112.478 147.858 112.285 147.968 112.042 148.047C111.799 148.126 111.496 148.166 111.132 148.166H110.796V150L110.11 150.084V145.198H111.426ZM111.349 147.536C111.503 147.536 111.641 147.522 111.762 147.494C111.883 147.461 111.986 147.41 112.07 147.34C112.159 147.265 112.226 147.17 112.273 147.053C112.32 146.932 112.343 146.785 112.343 146.612C112.343 146.351 112.252 146.155 112.07 146.024C111.893 145.893 111.652 145.828 111.349 145.828H110.796V147.536H111.349ZM118.405 147.599C118.405 147.949 118.337 148.278 118.202 148.586C118.071 148.889 117.892 149.155 117.663 149.384C117.439 149.608 117.173 149.785 116.865 149.916C116.562 150.047 116.235 150.112 115.885 150.112C115.53 150.112 115.199 150.047 114.891 149.916C114.588 149.785 114.322 149.606 114.093 149.377C113.869 149.148 113.692 148.882 113.561 148.579C113.43 148.271 113.365 147.944 113.365 147.599C113.365 147.249 113.43 146.922 113.561 146.619C113.696 146.311 113.876 146.045 114.1 145.821C114.329 145.592 114.595 145.413 114.898 145.282C115.206 145.151 115.535 145.086 115.885 145.086C116.24 145.086 116.569 145.154 116.872 145.289C117.18 145.42 117.446 145.599 117.67 145.828C117.899 146.052 118.078 146.318 118.209 146.626C118.34 146.929 118.405 147.254 118.405 147.599ZM115.885 149.482C116.128 149.482 116.359 149.433 116.578 149.335C116.802 149.232 116.998 149.097 117.166 148.929C117.334 148.756 117.467 148.556 117.565 148.327C117.668 148.098 117.719 147.856 117.719 147.599C117.719 147.347 117.67 147.107 117.572 146.878C117.474 146.649 117.341 146.451 117.173 146.283C117.01 146.11 116.816 145.973 116.592 145.87C116.368 145.767 116.13 145.716 115.878 145.716C115.64 145.716 115.409 145.765 115.185 145.863C114.966 145.961 114.772 146.096 114.604 146.269C114.436 146.437 114.301 146.635 114.198 146.864C114.1 147.093 114.051 147.338 114.051 147.599C114.051 147.856 114.1 148.098 114.198 148.327C114.296 148.556 114.429 148.756 114.597 148.929C114.765 149.097 114.959 149.232 115.178 149.335C115.402 149.433 115.638 149.482 115.885 149.482ZM119.765 149.37H121.802L121.522 150H119.079V145.198L119.765 145.086V149.37ZM121.898 145.086L123.291 147.424L124.299 145.086L124.957 145.289L122.801 150.112L122.129 149.965L122.969 148.152L121.226 145.282L121.898 145.086ZM127.547 146.248C127.36 146.043 127.195 145.903 127.05 145.828C126.905 145.753 126.763 145.716 126.623 145.716C126.399 145.716 126.217 145.781 126.077 145.912C125.937 146.043 125.867 146.222 125.867 146.451C125.867 146.558 125.89 146.652 125.937 146.731C125.988 146.806 126.056 146.873 126.14 146.934C126.229 146.995 126.334 147.051 126.455 147.102C126.576 147.149 126.709 147.2 126.854 147.256C127.027 147.321 127.185 147.391 127.33 147.466C127.479 147.541 127.608 147.632 127.715 147.739C127.822 147.846 127.906 147.975 127.967 148.124C128.032 148.269 128.065 148.444 128.065 148.649C128.065 148.868 128.025 149.067 127.946 149.244C127.867 149.421 127.759 149.575 127.624 149.706C127.489 149.837 127.33 149.937 127.148 150.007C126.971 150.077 126.779 150.112 126.574 150.112C126.439 150.112 126.31 150.098 126.189 150.07C126.068 150.047 125.946 150.005 125.825 149.944C125.708 149.883 125.587 149.804 125.461 149.706C125.34 149.603 125.214 149.48 125.083 149.335L125.587 148.915C125.685 149.069 125.813 149.202 125.972 149.314C126.131 149.426 126.308 149.482 126.504 149.482C126.625 149.482 126.737 149.468 126.84 149.44C126.947 149.407 127.041 149.358 127.12 149.293C127.199 149.228 127.262 149.141 127.309 149.034C127.356 148.927 127.379 148.796 127.379 148.642C127.379 148.553 127.346 148.472 127.281 148.397C127.216 148.318 127.134 148.248 127.036 148.187C126.943 148.126 126.845 148.073 126.742 148.026C126.639 147.975 126.551 147.93 126.476 147.893C126.322 147.818 126.168 147.739 126.014 147.655C125.86 147.566 125.72 147.466 125.594 147.354C125.473 147.242 125.372 147.114 125.293 146.969C125.218 146.82 125.181 146.642 125.181 146.437C125.181 146.236 125.216 146.054 125.286 145.891C125.356 145.723 125.454 145.581 125.58 145.464C125.711 145.343 125.867 145.249 126.049 145.184C126.231 145.119 126.434 145.086 126.658 145.086C126.896 145.086 127.136 145.144 127.379 145.261C127.622 145.378 127.832 145.553 128.009 145.786L127.547 146.248ZM129.458 150L128.772 150.056V145.198L129.458 145.086V150ZM135.133 147.599C135.133 147.949 135.065 148.278 134.93 148.586C134.799 148.889 134.619 149.155 134.391 149.384C134.167 149.608 133.901 149.785 133.593 149.916C133.289 150.047 132.963 150.112 132.613 150.112C132.258 150.112 131.927 150.047 131.619 149.916C131.315 149.785 131.049 149.606 130.821 149.377C130.597 149.148 130.419 148.882 130.289 148.579C130.158 148.271 130.093 147.944 130.093 147.599C130.093 147.249 130.158 146.922 130.289 146.619C130.424 146.311 130.604 146.045 130.828 145.821C131.056 145.592 131.322 145.413 131.626 145.282C131.934 145.151 132.263 145.086 132.613 145.086C132.967 145.086 133.296 145.154 133.6 145.289C133.908 145.42 134.174 145.599 134.398 145.828C134.626 146.052 134.806 146.318 134.937 146.626C135.067 146.929 135.133 147.254 135.133 147.599ZM132.613 149.482C132.855 149.482 133.086 149.433 133.306 149.335C133.53 149.232 133.726 149.097 133.894 148.929C134.062 148.756 134.195 148.556 134.293 148.327C134.395 148.098 134.447 147.856 134.447 147.599C134.447 147.347 134.398 147.107 134.3 146.878C134.202 146.649 134.069 146.451 133.901 146.283C133.737 146.11 133.544 145.973 133.32 145.87C133.096 145.767 132.858 145.716 132.606 145.716C132.368 145.716 132.137 145.765 131.913 145.863C131.693 145.961 131.5 146.096 131.332 146.269C131.164 146.437 131.028 146.635 130.926 146.864C130.828 147.093 130.779 147.338 130.779 147.599C130.779 147.856 130.828 148.098 130.926 148.327C131.024 148.556 131.157 148.756 131.325 148.929C131.493 149.097 131.686 149.232 131.906 149.335C132.13 149.433 132.365 149.482 132.613 149.482Z" fill="black"/>
</svg>
